<?xml version="1.0" ?>
<!-- Uploaded to: SVG Repo, www.svgrepo.com, Generator: SVG Repo Mixer Tools -->
<svg width="800px" height="800px" viewBox="0 0 24 24" xmlns="http://www.w3.org/2000/svg">
<defs>
<style>.cls-1{fill:#231f20;}</style>
</defs>
<title/>
<g id="Card">
<path class="cls-1" d="M21,17H20V12a1,1,0,0,0-1-1H13V7h1a1,1,0,0,0,1-1V3a1,1,0,0,0-1-1H10A1,1,0,0,0,9,3V6a1,1,0,0,0,1,1h1v4H5a1,1,0,0,0-1,1v5H3a1,1,0,0,0-1,1v3a1,1,0,0,0,1,1H7a1,1,0,0,0,1-1V18a1,1,0,0,0-1-1H6V13h5v4H10a1,1,0,0,0-1,1v3a1,1,0,0,0,1,1h4a1,1,0,0,0,1-1V18a1,1,0,0,0-1-1H13V13h5v4H17a1,1,0,0,0-1,1v3a1,1,0,0,0,1,1h4a1,1,0,0,0,1-1V18A1,1,0,0,0,21,17ZM11,4h2V5H11ZM6,20H4V19H6Zm7,0H11V19h2Zm7,0H18V19h2Z"/>
</g>
</svg>