<?xml version="1.0" encoding="UTF-8"?>
<svg version="1.1" xmlns="http://www.w3.org/2000/svg" width="950" height="950">
<path d="M0 0 C1.75525626 1.11342517 3.51004958 2.22758016 5.26464844 3.34204102 C6.73052399 4.27259056 6.73052399 4.27259056 8.22601318 5.22193909 C11.61540859 7.39446256 14.94346887 9.64164097 18.25 11.9375 C18.90637451 12.3907666 19.56274902 12.8440332 20.23901367 13.31103516 C27.27169091 18.17343126 34.28255354 23.0674179 41.29785156 27.95483398 C48.10650557 32.69437764 54.94244239 37.39184747 61.79614258 42.06591797 C68.05629353 46.34085489 74.28124161 50.66512179 80.5 55 C90.62778707 62.05769426 100.79913621 69.04846571 111 76 C112.80080178 77.22783447 114.6015823 78.45570013 116.40234375 79.68359375 C119.20217356 81.59256862 122.002086 83.50142174 124.80224609 85.40991211 C130.7677397 89.47615099 136.72962073 93.54761307 142.6875 97.625 C143.46617432 98.15786621 144.24484863 98.69073242 145.04711914 99.23974609 C148.83965316 101.83553196 152.63131407 104.43258378 156.421875 107.03125 C170.58213304 116.73530978 184.78774302 126.37234205 199 136 C199.639375 136.433125 200.27875 136.86625 200.9375 137.3125 C209.26381675 142.95236987 217.59333172 148.587495 225.92576599 154.21832275 C230.01540062 156.98207422 234.10425019 159.74697739 238.19189453 162.51367188 C261.34776298 178.18549729 284.56194073 193.75293329 308 209 C308.87140625 209.56799316 309.7428125 210.13598633 310.640625 210.72119141 C314.72339377 213.38167013 318.81347236 216.03021294 322.91503906 218.66162109 C324.41805551 219.62643798 325.91986134 220.59314173 327.42089844 221.56103516 C338.30880645 228.57791396 349.27700796 235.44462353 360.375 242.125 C361.41462891 242.75245117 362.45425781 243.37990234 363.52539062 244.02636719 C366.33688003 245.70868186 369.16192483 247.36301428 372 249 C372.75571289 249.44569336 373.51142578 249.89138672 374.29003906 250.35058594 C378.74326369 252.81663027 381.11283724 253.22685323 386 252 C388.8236082 250.69419819 388.8236082 250.69419819 391.61328125 248.96484375 C392.68231689 248.3294165 393.75135254 247.69398926 394.8527832 247.03930664 C396.00638223 246.33929751 397.15961073 245.63867746 398.3125 244.9375 C399.52870308 244.20598802 400.74509646 243.47479232 401.96166992 242.74389648 C441.53271922 218.88265813 479.77194784 192.6580061 518.0625 166.8125 C519.45424942 165.87346832 519.45424942 165.87346832 520.87411499 164.91546631 C553.65944258 142.79469566 586.37968176 120.57652126 618.95825195 98.15209961 C622.43796685 95.75788717 625.9212986 93.36915492 629.41015625 90.98828125 C639.12627102 84.3569092 648.80121975 77.66958567 658.45141602 70.94262695 C664.44795432 66.76583147 670.4625495 62.61740643 676.5 58.5 C684.58930182 52.98295991 692.63067312 47.3988518 700.6640625 41.80078125 C706.09718142 38.01582995 711.53843 34.24377212 717 30.5 C723.5825427 25.98704748 730.13722323 21.4346404 736.6875 16.875 C737.67314941 16.18921875 738.65879883 15.5034375 739.67431641 14.796875 C743.89369125 11.86067192 748.1118963 8.92287541 752.32421875 5.9765625 C753.50780062 5.15102464 754.6913932 4.32550213 755.875 3.5 C756.86242187 2.8090625 757.84984375 2.118125 758.8671875 1.40625 C761 0 761 0 762 0 C762.06871448 46.24350437 762.12155334 92.48700332 762.15319599 138.73054871 C762.15694796 144.19398243 762.16083095 149.65741604 762.16479492 155.12084961 C762.16558185 156.20848934 762.16636878 157.29612908 762.16717956 158.4167276 C762.18022211 176.01172805 762.20386961 193.60669901 762.23145839 211.20168198 C762.25954462 229.26500079 762.27618306 247.32830419 762.28226548 265.39164394 C762.28637525 276.53149529 762.29934071 287.67126324 762.3237494 298.81108891 C762.33964632 306.45721952 762.34439142 314.10330721 762.34050413 321.74945313 C762.33858874 326.15632342 762.34145861 330.56304829 762.35761642 334.9698925 C762.3723348 339.01392818 762.37287595 343.05772219 762.36269668 347.10176956 C762.36144068 348.55559835 762.36514452 350.00944291 762.37464955 351.46324117 C762.45787561 364.99253547 761.84265929 380.09426925 752.47265625 390.734375 C738.45531981 404.05909011 715.27263178 401.29577773 697.53021797 401.26313647 C694.03676801 401.25893467 690.54333852 401.26638581 687.04989368 401.27228898 C680.93742192 401.28102243 674.82498368 401.28237329 668.71250725 401.27878571 C659.62268467 401.27346479 650.53289437 401.27958794 641.4430753 401.28786864 C624.26214002 401.30309059 607.0812195 401.30481558 589.90027889 401.30234561 C576.63130505 401.30051137 563.36233604 401.30227531 550.09336281 401.30657005 C548.18551778 401.30717246 546.27767275 401.30777366 544.36982772 401.30837366 C541.4947221 401.30928093 538.61961648 401.3101896 535.74451086 401.31110601 C509.0211877 401.31953281 482.29786635 401.3238731 455.57454205 401.31969929 C454.56760143 401.31954291 453.5606608 401.31938654 452.52320683 401.31922542 C447.41989061 401.31841966 442.31657439 401.31757389 437.21325817 401.31671212 C435.69301615 401.31645549 435.69301615 401.31645549 434.14206217 401.31619367 C432.09253126 401.31584701 430.04300035 401.31549848 427.99346943 401.31514808 C396.10313861 401.30979095 364.21283543 401.3177222 332.32250977 401.33618164 C296.47487894 401.35690754 260.62726525 401.36762326 224.7796281 401.36360615 C220.95578023 401.36321082 217.13193236 401.36284927 213.30808449 401.36250877 C212.36658991 401.36241804 211.42509532 401.36232731 210.4550706 401.36223383 C196.25614405 401.36106895 182.05723483 401.36770782 167.85831261 401.37832069 C151.70631964 401.39038122 135.55436479 401.39192178 119.40237125 401.37953053 C110.36984185 401.37291079 101.33740362 401.37451255 92.30488154 401.38811904 C86.26284637 401.39638432 80.22087925 401.39363909 74.17884957 401.38214377 C70.74205593 401.37590792 67.30543975 401.37423276 63.8686566 401.38600711 C22.78822919 401.49830752 22.78822919 401.49830752 10.984375 391.25 C-0.02448566 379.77858216 -0.30548306 363.85284119 -0.24050903 348.85835266 C-0.24138264 347.34743099 -0.24313648 345.83650961 -0.24568737 344.32558984 C-0.25013434 340.20023043 -0.24219392 336.07497596 -0.23213124 331.9496299 C-0.22346061 327.49102238 -0.22641945 323.03242035 -0.22793579 318.57380676 C-0.22898236 310.8577415 -0.22272961 303.14171018 -0.21146011 295.42565346 C-0.19517715 284.2696588 -0.18999425 273.11368049 -0.18748413 261.95767524 C-0.18311141 243.85597017 -0.1698138 225.75428316 -0.15087891 207.65258789 C-0.13250915 190.0728362 -0.11835801 172.49308943 -0.10986328 154.91333008 C-0.10907511 153.28676543 -0.10907511 153.28676543 -0.10827102 151.62734089 C-0.10566086 146.18711596 -0.10313347 140.746891 -0.10064721 135.30666602 C-0.07992789 90.2044315 -0.0447139 45.10221668 0 0 Z " fill="#000000" transform="translate(94,322)"/>
<path d="M0 0 C1.15169719 -0.00205263 2.30339438 -0.00410527 3.48999149 -0.0062201 C6.67819084 -0.01089029 9.86635428 -0.01112018 13.05455545 -0.00944251 C16.52650587 -0.00870864 19.99844884 -0.01374085 23.47039604 -0.01801753 C30.35275265 -0.02558264 37.23510149 -0.02778983 44.11746182 -0.02834659 C52.36288858 -0.0292617 60.6083082 -0.03593359 68.85373188 -0.04269341 C88.78062529 -0.0587404 108.70751792 -0.06465515 128.63441664 -0.06944216 C138.06388914 -0.07177934 147.49336103 -0.07538212 156.92283306 -0.07913754 C189.21057349 -0.09197169 221.49831359 -0.10269115 253.78605652 -0.10614014 C255.81223369 -0.10636177 257.83841085 -0.10658355 259.86458802 -0.10680549 C261.89561224 -0.10702613 263.92663646 -0.10724661 265.95766068 -0.10746694 C270.03213247 -0.10790948 274.10660426 -0.1083566 278.18107605 -0.10880661 C279.19130536 -0.108916 280.20153467 -0.10902539 281.24237698 -0.1091381 C313.9961421 -0.11276841 346.74988507 -0.12868817 379.50364171 -0.15199697 C414.14543344 -0.17660424 448.78721253 -0.19031338 483.42901325 -0.19150805 C487.23327955 -0.1916795 491.03754584 -0.19189493 494.84181213 -0.19214249 C496.24685386 -0.19222614 496.24685386 -0.19222614 497.68028026 -0.19231148 C512.74066493 -0.19346112 527.80102685 -0.20447563 542.86140385 -0.21902954 C558.00469222 -0.23341032 573.14795148 -0.23662259 588.2912448 -0.22858956 C597.28153736 -0.22414084 606.2717358 -0.22796357 615.26201595 -0.24382807 C621.27607023 -0.25360703 627.29005887 -0.2523721 633.3041126 -0.24239184 C636.72505781 -0.23702071 640.14567687 -0.23790102 643.56663001 -0.24890056 C684.64189928 -0.37257402 684.64189928 -0.37257402 698.48429871 10.87752151 C704.58891647 17.07229187 707.72192394 26.25959067 708.18742371 34.88924026 C708.29675354 37.30413879 708.29675354 37.30413879 708.98429871 40.31111526 C709.53363106 44.42660517 709.54675123 47.1415887 708.33586121 51.13142776 C704.45602721 55.67052495 698.92754848 58.5463067 693.86369324 61.57771683 C689.6128916 64.19043671 685.58608725 67.11345009 681.52336121 70.00642776 C679.82657075 71.19553643 678.12864523 72.383027 676.42961121 73.56892776 C673.09507922 75.90055471 669.76169497 78.23380346 666.42961121 80.56892776 C654.7239181 88.77132086 642.99586345 96.94119473 631.25920105 105.0992012 C627.40684725 107.77725307 623.55537342 110.4565686 619.70402527 113.13606644 C617.79073326 114.46713007 615.87732164 115.7980218 613.96379089 117.12874222 C609.15722254 120.47153657 604.35233706 123.81670233 599.55070496 127.16658401 C589.27461963 134.33207054 578.96667619 141.44574831 568.60514832 148.48714066 C561.98476012 152.99183814 555.40307098 157.54961485 548.83586121 162.13142776 C538.62028391 169.25654933 528.34460207 176.28955708 518.04338074 183.29011917 C514.49210113 185.70524549 510.94499686 188.1264637 507.39787292 190.54768753 C493.39595087 200.10324237 479.37367756 209.6287057 465.33586121 219.13142776 C464.11376953 219.95882462 464.11376953 219.95882462 462.86698914 220.80293655 C420.20482177 249.68264813 420.20482177 249.68264813 401.76408386 261.56355667 C399.23462654 263.19679364 396.71218657 264.84041893 394.19132996 266.48689651 C378.64552659 276.6379307 363.03113909 286.67375165 347.04386902 296.11873245 C345.34203102 297.12776962 343.64751156 298.14911658 341.95304871 299.17049026 C340.90375183 299.79697464 339.85445496 300.42345901 338.77336121 301.06892776 C337.86457214 301.6142012 336.95578308 302.15947464 336.01945496 302.72127151 C333.05897092 304.27692615 330.62702982 305.46486197 327.33586121 306.13142776 C324.76451947 305.30772146 322.84949887 304.47936889 320.52336121 303.19392776 C319.84958435 302.83911331 319.1758075 302.48429886 318.48161316 302.11873245 C301.77801493 293.14366475 285.72319139 282.87918414 269.75187683 272.67341995 C267.1633902 271.02135027 264.57033534 269.37662662 261.97648621 267.73299026 C239.75325503 253.64164157 217.76550117 239.19159552 195.77799988 224.7365303 C193.19937142 223.04171947 190.62019542 221.34774421 188.04093933 219.6538887 C167.55717906 206.19990919 147.10263138 192.71552651 126.86329651 178.89598465 C119.36215309 173.77822013 111.83003315 168.70621564 104.30158997 163.62874222 C100.00652487 160.7319398 95.71221422 157.83401947 91.41789246 154.93611526 C90.57189987 154.36524185 89.72590729 153.79436844 88.85427856 153.20619583 C67.66195575 138.90447072 46.48933345 124.57399033 25.35539246 110.18611526 C22.17284917 108.02050366 18.98889478 105.85697957 15.80461121 103.69392776 C5.59172293 96.75569634 -4.61402477 89.8081817 -14.78132629 82.80330276 C-18.42223421 80.29558266 -22.0690253 77.7965896 -25.72200012 75.30647659 C-27.34057193 74.19630753 -28.95252823 73.07642669 -30.55744934 71.94661331 C-34.41718066 69.24563417 -38.22558736 66.77584797 -42.42585754 64.63533401 C-50.95061508 60.08138889 -50.95061508 60.08138889 -53.66413879 56.13142776 C-55.79851646 48.95530392 -54.74954948 41.41432061 -53.66413879 34.13142776 C-53.49269348 32.89779495 -53.32124817 31.66416214 -53.14460754 30.39314651 C-51.35988476 21.51558997 -47.3850431 13.84106804 -40.16413879 8.25642776 C-28.11615185 0.55153114 -13.85351973 -0.02310737 0 0 Z " fill="#000000" transform="translate(147.6641387939453,207.86857223510742)"/>
</svg>
