<svg id="svg" version="1.1" xmlns="http://www.w3.org/2000/svg" xmlns:xlink="http://www.w3.org/1999/xlink" width="400" height="121.21212121212122" viewBox="0, 0, 400,121.21212121212122"><g id="svgg"><path id="path0" d="M77.700 45.867 C 77.467 46.100,77.433 46.772,77.648 46.905 C 77.846 47.028,78.114 46.683,78.255 46.124 C 78.379 45.627,78.079 45.488,77.700 45.867 M54.260 46.378 C 54.124 46.585,53.903 47.068,53.768 47.449 C 53.324 48.707,52.667 49.440,52.667 48.677 C 52.667 47.995,52.335 48.207,51.622 49.343 L 50.883 50.522 50.361 49.886 C 49.861 49.277,49.835 49.266,49.734 49.625 C 49.469 50.564,48.500 49.526,48.500 48.304 C 48.500 47.460,48.490 47.440,48.239 47.798 C 47.538 48.799,47.830 49.932,48.923 50.453 C 49.365 50.664,49.516 50.853,49.581 51.280 C 49.628 51.584,49.705 52.083,49.752 52.387 C 50.073 54.470,53.070 56.507,54.069 55.321 C 54.546 54.753,54.563 54.691,54.340 54.338 C 54.154 54.045,54.407 53.840,54.958 53.836 C 55.275 53.834,55.333 53.743,55.333 53.250 C 55.333 52.682,55.351 52.667,55.990 52.667 C 56.351 52.667,56.697 52.586,56.757 52.488 C 56.883 52.285,56.330 50.000,56.155 50.000 C 56.093 50.000,55.738 50.107,55.367 50.238 C 54.641 50.494,54.500 50.401,54.500 49.662 C 54.500 49.492,54.356 49.251,54.180 49.128 C 53.236 48.467,55.009 48.378,56.455 49.013 C 57.558 49.498,57.602 49.440,57.249 47.966 C 56.867 46.372,56.737 46.273,56.504 47.399 C 56.267 48.541,56.368 48.563,55.440 47.167 C 54.562 45.846,54.594 45.868,54.260 46.378 M79.042 50.607 C 78.818 50.701,78.751 51.597,78.958 51.724 C 79.623 52.131,80.250 51.901,80.250 51.250 C 80.250 50.573,79.751 50.307,79.042 50.607 M75.197 52.163 C 73.429 54.614,73.491 54.575,70.067 55.413 C 61.721 57.455,61.209 57.556,59.066 57.570 L 57.048 57.583 57.357 58.305 C 57.527 58.703,57.667 59.049,57.667 59.076 C 57.667 59.102,57.221 59.174,56.676 59.236 C 56.122 59.298,55.524 59.479,55.318 59.646 C 54.724 60.127,56.327 60.382,59.426 60.298 L 61.917 60.231 64.667 59.134 C 71.051 56.585,72.143 56.314,74.955 56.583 C 76.523 56.733,76.673 56.628,76.275 55.658 C 76.069 55.156,76.073 54.940,76.306 53.943 L 76.574 52.803 77.175 52.899 C 78.730 53.147,78.525 52.388,76.667 51.012 L 76.250 50.703 75.197 52.163 M46.125 52.419 C 45.781 52.654,45.500 52.937,45.500 53.050 C 45.500 53.350,47.977 56.167,48.242 56.167 C 48.847 56.167,48.972 54.642,48.485 53.199 C 48.101 52.062,48.007 52.005,47.360 52.516 L 46.917 52.865 46.833 52.429 L 46.750 51.993 46.125 52.419 M78.989 52.642 C 78.558 52.991,78.675 53.333,79.227 53.333 C 79.918 53.333,80.216 52.794,79.682 52.508 C 79.440 52.379,79.274 52.411,78.989 52.642 M78.042 54.339 C 77.294 54.639,77.713 55.000,78.810 55.000 C 79.606 55.000,80.393 54.507,79.904 54.316 C 79.465 54.144,78.496 54.156,78.042 54.339 M44.977 55.498 C 47.024 57.440,51.366 59.749,51.328 58.875 C 51.323 58.770,48.108 56.882,44.924 55.117 L 44.083 54.650 44.977 55.498 M77.946 55.951 C 77.758 55.999,77.679 56.124,77.738 56.278 C 77.790 56.415,77.833 56.559,77.833 56.597 C 77.833 56.635,78.240 56.667,78.738 56.667 C 79.603 56.667,80.167 56.399,80.167 55.988 C 80.167 55.832,78.512 55.804,77.946 55.951 M75.387 57.824 C 75.096 58.002,74.685 58.381,74.473 58.667 C 73.751 59.644,73.263 59.812,69.637 60.327 C 64.398 61.072,61.199 61.358,57.750 61.389 L 54.583 61.417 53.332 60.792 C 51.039 59.647,49.312 60.066,50.345 61.516 C 50.728 62.054,50.648 62.084,49.567 61.812 C 47.786 61.363,49.022 63.123,50.933 63.758 C 51.382 63.907,52.357 64.354,53.098 64.751 C 55.650 66.117,54.768 66.179,66.083 63.835 C 74.562 62.078,74.777 62.047,76.155 62.401 C 77.492 62.743,77.866 62.736,78.353 62.357 C 78.571 62.187,79.001 61.918,79.308 61.761 C 79.864 61.476,79.890 61.367,79.585 60.627 C 79.497 60.412,79.577 60.296,79.900 60.173 C 80.397 59.984,80.443 59.730,80.074 59.204 C 79.830 58.856,79.840 58.823,80.241 58.640 C 80.744 58.411,80.780 58.154,80.362 57.776 C 79.881 57.341,76.120 57.377,75.387 57.824 M40.125 60.115 C 39.642 60.241,39.763 60.360,41.866 61.833 C 44.241 63.498,44.395 63.595,44.312 63.376 C 44.228 63.155,40.664 59.995,40.526 60.019 C 40.466 60.030,40.285 60.073,40.125 60.115 M38.833 64.076 C 37.047 64.435,36.914 64.569,38.143 64.766 C 38.894 64.886,40.137 64.521,40.511 64.071 C 40.821 63.697,40.716 63.697,38.833 64.076 M77.847 75.958 C 77.859 85.160,77.891 86.513,78.091 86.057 C 78.410 85.330,78.637 80.756,78.774 72.316 L 78.887 65.333 78.360 65.333 L 77.833 65.333 77.847 75.958 M34.250 68.590 C 33.425 68.708,32.712 68.814,32.667 68.825 C 32.621 68.836,32.771 68.952,33.000 69.083 C 33.752 69.513,35.178 69.316,36.000 68.669 C 36.502 68.273,36.471 68.272,34.250 68.590 M31.667 71.254 C 31.667 71.597,33.311 72.333,34.074 72.331 C 34.983 72.328,35.616 72.094,35.162 71.929 C 34.194 71.576,31.667 71.088,31.667 71.254 M40.083 71.444 C 39.392 71.809,39.000 72.175,39.000 72.454 C 39.000 72.632,39.111 72.608,39.458 72.353 C 40.870 71.318,41.182 70.863,40.083 71.444 M37.422 72.928 C 37.109 73.680,37.186 73.802,37.745 73.435 C 38.220 73.124,38.282 72.803,37.925 72.507 C 37.724 72.340,37.638 72.413,37.422 72.928 M50.756 73.958 C 50.696 74.852,50.608 75.790,50.560 76.042 L 50.474 76.500 52.070 76.500 C 52.948 76.500,53.667 76.522,53.667 76.550 C 53.667 76.577,53.480 78.209,53.251 80.175 C 53.023 82.141,52.836 83.792,52.835 83.844 C 52.834 83.895,53.630 84.035,54.604 84.154 C 56.592 84.397,56.563 84.409,56.735 83.269 C 56.791 82.892,57.186 80.760,57.612 78.532 C 58.712 72.771,58.340 72.380,51.724 72.339 L 50.864 72.333 50.756 73.958 M36.113 75.030 C 35.311 76.213,34.754 79.024,35.128 80.000 C 35.634 81.318,36.653 77.778,36.472 75.333 L 36.417 74.583 36.113 75.030 M37.500 78.306 C 37.500 81.662,37.713 82.579,37.883 79.958 C 37.980 78.481,37.793 75.404,37.595 75.206 C 37.543 75.154,37.500 76.549,37.500 78.306 M30.195 88.875 C 30.012 89.173,29.678 89.835,29.453 90.345 C 28.943 91.504,28.479 91.873,26.955 92.333 C 24.523 93.067,23.413 93.982,21.825 96.562 C 20.823 98.190,20.816 98.004,21.897 98.551 C 22.935 99.077,22.980 99.068,24.583 97.995 C 26.876 96.461,30.446 94.394,31.453 94.018 C 32.749 93.533,32.915 93.340,33.505 91.641 C 34.115 89.886,34.114 89.671,33.492 89.076 C 32.990 88.594,32.678 88.666,32.669 89.264 C 32.668 89.363,32.406 89.738,32.088 90.097 C 31.409 90.864,31.310 90.792,30.995 89.311 C 30.756 88.186,30.653 88.129,30.195 88.875 " stroke="none" fill="#e7e7e7" fill-rule="evenodd"></path><path id="path1" d="M138.613 34.702 C 137.693 37.275,136.709 39.982,135.749 42.583 C 135.140 44.233,134.429 46.183,134.168 46.917 C 131.150 55.406,130.574 56.552,129.250 56.696 L 128.750 56.750 128.702 58.125 L 128.653 59.500 132.552 59.500 L 136.451 59.500 136.629 58.423 C 136.927 56.625,136.795 56.417,135.353 56.417 C 134.361 56.417,134.163 56.373,134.225 56.167 C 134.266 56.029,134.503 55.392,134.751 54.750 C 134.999 54.108,135.282 53.312,135.379 52.981 L 135.557 52.378 136.903 52.274 C 137.644 52.216,139.342 52.168,140.677 52.168 L 143.103 52.167 143.402 53.042 C 144.357 55.839,144.310 56.557,143.158 56.751 L 142.500 56.863 142.500 58.181 L 142.500 59.500 147.333 59.500 L 152.167 59.500 152.167 57.980 L 152.167 56.460 151.204 56.530 L 150.241 56.599 149.886 55.341 C 149.574 54.236,148.878 52.380,146.760 47.000 C 146.453 46.221,145.926 44.871,145.589 44.000 C 145.251 43.129,144.840 42.079,144.674 41.667 C 144.508 41.254,144.222 40.542,144.037 40.083 C 143.853 39.625,143.586 38.950,143.445 38.583 C 143.304 38.217,142.850 37.054,142.437 36.000 L 141.686 34.083 140.277 34.035 L 138.869 33.988 138.613 34.702 M162.335 34.355 C 161.038 34.703,159.129 35.616,158.528 36.176 C 158.337 36.354,158.108 36.500,158.020 36.500 C 157.718 36.500,156.025 38.560,155.333 39.770 C 152.365 44.957,152.713 51.674,156.173 55.976 C 156.843 56.809,159.042 58.654,159.376 58.663 C 159.445 58.665,159.873 58.846,160.328 59.065 C 162.030 59.886,166.712 60.247,168.750 59.714 C 169.117 59.618,170.017 59.372,170.750 59.167 C 171.483 58.962,172.346 58.724,172.667 58.638 C 172.987 58.552,173.850 58.430,174.583 58.366 L 175.917 58.250 176.000 54.500 C 176.099 50.031,176.175 49.829,177.833 49.633 C 178.233 49.585,178.252 49.530,178.299 48.292 L 178.347 47.000 173.507 47.000 L 168.667 47.000 168.667 48.521 L 168.667 50.043 169.958 49.968 L 171.250 49.893 171.201 52.958 L 171.152 56.023 170.582 56.261 C 168.448 57.153,164.880 57.099,163.223 56.151 C 159.171 53.833,157.818 45.790,160.567 40.365 C 163.306 34.960,170.840 35.869,172.373 41.791 C 172.626 42.768,172.706 42.828,173.778 42.831 C 175.272 42.835,175.167 43.173,175.167 38.399 L 175.167 34.167 173.667 34.167 L 172.167 34.167 172.167 34.827 L 172.167 35.488 171.375 35.140 C 168.765 33.993,164.926 33.660,162.335 34.355 M185.385 34.330 C 182.112 35.297,180.358 37.452,180.203 40.700 C 180.008 44.788,182.973 47.819,189.530 50.233 C 190.582 50.620,191.668 51.165,192.586 51.767 C 194.396 52.953,193.948 55.682,191.768 56.749 C 188.598 58.299,184.488 56.009,183.471 52.125 L 183.264 51.333 181.963 51.333 L 180.661 51.333 180.705 55.542 L 180.750 59.750 182.198 59.798 L 183.647 59.846 183.698 59.174 C 183.749 58.516,183.758 58.507,184.167 58.717 C 192.125 62.807,201.588 56.749,198.074 49.814 C 197.170 48.032,192.295 44.500,190.738 44.500 C 189.857 44.500,186.055 42.154,185.528 41.285 C 182.988 37.102,190.526 34.930,193.298 39.047 C 193.835 39.845,194.500 41.514,194.500 42.065 C 194.500 42.644,194.828 42.834,195.825 42.831 C 197.172 42.827,197.105 43.025,197.218 38.743 C 197.350 33.782,197.472 34.143,195.687 34.202 L 194.250 34.250 194.298 34.870 L 194.346 35.490 193.348 34.994 C 191.331 33.994,187.583 33.681,185.385 34.330 M284.960 34.341 C 275.429 36.684,272.527 51.033,280.307 57.349 C 281.099 57.992,282.062 58.561,283.693 59.350 C 287.526 61.203,294.072 59.534,297.575 55.810 C 299.064 54.228,299.034 54.377,298.042 53.430 C 297.052 52.486,296.922 52.494,296.000 53.564 C 293.581 56.372,288.665 57.719,286.075 56.283 C 279.853 52.833,280.309 39.358,286.723 37.142 C 290.313 35.901,294.500 38.706,294.500 42.351 C 294.500 42.587,294.690 42.648,295.564 42.694 C 297.337 42.787,297.178 43.218,297.128 38.446 L 297.083 34.250 295.635 34.202 L 294.186 34.154 294.135 34.807 L 294.083 35.460 293.048 34.985 C 290.806 33.957,287.571 33.699,284.960 34.341 M356.083 34.322 C 350.082 36.099,348.879 43.131,353.921 46.968 C 354.969 47.766,358.787 49.777,359.833 50.082 C 364.522 51.452,365.923 55.042,362.434 56.749 C 359.183 58.340,354.796 55.819,354.098 51.958 L 353.985 51.333 352.659 51.333 L 351.333 51.333 351.333 55.583 L 351.333 59.833 352.833 59.833 L 354.333 59.833 354.333 59.162 L 354.333 58.491 354.792 58.728 C 360.759 61.814,368.580 59.162,369.339 53.796 C 369.898 49.835,367.645 47.160,361.583 44.588 C 355.750 42.114,354.103 39.730,356.770 37.619 C 359.613 35.369,364.134 37.545,365.054 41.606 L 365.275 42.583 366.389 42.667 C 367.002 42.712,367.577 42.725,367.668 42.694 C 367.772 42.660,367.833 41.054,367.833 38.403 L 367.833 34.167 366.417 34.167 L 365.000 34.167 365.000 34.836 L 365.000 35.506 364.125 35.062 C 362.062 34.016,358.288 33.669,356.083 34.322 M106.111 34.611 C 106.050 34.672,106.000 35.347,106.000 36.111 L 106.000 37.500 107.344 37.500 L 108.688 37.500 108.636 46.375 C 108.573 57.024,108.616 56.827,106.375 56.832 C 106.017 56.833,106.000 56.895,106.000 58.167 L 106.000 59.500 111.417 59.500 L 116.833 59.500 116.833 57.983 L 116.833 56.467 115.321 56.525 L 113.808 56.583 113.904 56.104 C 113.957 55.841,114.000 54.322,114.000 52.729 L 114.000 49.833 114.765 49.833 C 115.715 49.833,115.669 49.782,117.945 53.417 C 120.390 57.321,120.954 58.153,121.640 58.875 L 122.234 59.500 125.284 59.500 L 128.333 59.500 128.333 58.185 L 128.333 56.870 127.731 56.757 C 126.480 56.523,125.769 55.774,123.362 52.158 C 122.718 51.190,121.846 50.081,121.425 49.692 L 120.659 48.986 121.288 48.733 C 128.650 45.773,128.309 36.885,120.759 34.923 C 119.149 34.505,106.487 34.235,106.111 34.611 M238.611 34.611 C 238.550 34.672,238.500 35.347,238.500 36.111 L 238.500 37.500 239.794 37.500 L 241.088 37.500 241.039 46.125 C 240.979 56.910,241.042 56.515,239.334 56.750 L 238.500 56.865 238.500 58.182 L 238.500 59.500 243.917 59.500 L 249.333 59.500 249.333 57.983 L 249.333 56.467 247.867 56.525 L 246.400 56.583 246.374 53.208 L 246.349 49.833 247.104 49.833 C 248.137 49.833,248.350 50.078,250.925 54.231 C 252.112 56.146,253.447 58.115,253.892 58.606 L 254.700 59.500 257.767 59.500 L 260.833 59.500 260.833 58.167 C 260.833 56.907,260.813 56.833,260.469 56.833 C 259.257 56.833,258.352 55.946,256.030 52.479 C 255.198 51.237,254.212 49.945,253.840 49.609 L 253.164 48.998 254.540 48.360 C 261.234 45.254,260.262 36.679,253.010 34.854 C 251.598 34.499,238.937 34.285,238.611 34.611 M262.780 34.609 C 262.718 34.671,262.667 35.347,262.667 36.111 L 262.667 37.500 264.023 37.500 L 265.379 37.500 265.273 38.273 C 265.214 38.699,265.167 42.780,265.167 47.344 L 265.167 55.641 264.748 56.138 C 264.427 56.520,264.136 56.662,263.498 56.750 L 262.667 56.865 262.667 58.185 L 262.667 59.505 267.875 59.461 L 273.083 59.417 273.132 57.945 L 273.180 56.474 271.882 56.529 L 270.583 56.583 270.626 51.167 C 270.649 48.188,270.686 44.045,270.709 41.962 L 270.750 38.174 271.200 37.724 C 271.493 37.431,271.899 37.241,272.366 37.179 L 273.083 37.083 273.083 35.833 L 273.083 34.583 267.988 34.539 C 265.186 34.515,262.843 34.546,262.780 34.609 M300.667 36.000 L 300.667 37.500 301.875 37.500 L 303.083 37.500 303.029 46.458 C 302.966 56.892,303.025 56.480,301.542 56.732 L 300.667 56.880 300.667 58.190 L 300.667 59.500 305.833 59.500 L 311.000 59.500 311.000 57.982 L 311.000 56.465 309.708 56.524 L 308.417 56.583 308.464 52.542 L 308.511 48.500 312.909 48.500 C 315.327 48.500,317.429 48.453,317.579 48.395 C 317.827 48.300,317.847 48.626,317.801 52.049 C 317.742 56.374,317.692 56.525,316.237 56.743 L 315.500 56.854 315.500 58.177 L 315.500 59.500 320.667 59.500 L 325.833 59.500 325.833 57.982 L 325.833 56.465 324.542 56.524 L 323.250 56.583 323.290 48.083 C 323.342 37.221,323.312 37.408,325.047 37.212 L 325.833 37.123 325.833 35.812 L 325.833 34.500 320.667 34.500 L 315.500 34.500 315.500 36.000 L 315.500 37.500 316.724 37.500 L 317.947 37.500 317.932 41.499 L 317.917 45.498 313.188 45.499 L 308.459 45.500 308.531 41.958 C 308.617 37.696,308.834 37.167,310.492 37.167 L 311.000 37.167 311.000 35.833 L 311.000 34.500 305.833 34.500 L 300.667 34.500 300.667 36.000 M329.000 36.000 L 329.000 37.500 330.292 37.500 L 331.583 37.500 331.538 46.125 C 331.481 56.901,331.543 56.515,329.834 56.750 L 329.000 56.865 329.000 58.182 L 329.000 59.500 338.500 59.500 L 348.000 59.500 348.000 58.277 C 348.000 57.604,348.049 55.804,348.110 54.277 L 348.219 51.500 346.883 51.500 L 345.547 51.500 345.443 52.499 C 345.125 55.544,343.710 56.500,339.521 56.500 L 336.917 56.500 336.878 52.250 L 336.840 48.000 338.162 48.000 C 340.214 48.000,340.781 48.427,340.954 50.098 L 341.047 51.000 342.357 51.000 L 343.667 51.000 343.667 46.583 L 343.667 42.167 342.167 42.167 L 340.667 42.167 340.667 43.667 L 340.667 45.167 338.833 45.167 L 337.000 45.167 337.000 41.922 C 337.000 37.299,337.089 37.167,340.200 37.167 C 342.979 37.167,344.221 38.167,344.447 40.588 L 344.548 41.667 345.847 41.667 L 347.145 41.667 347.059 38.292 C 347.012 36.435,346.944 34.823,346.908 34.708 C 346.858 34.545,344.914 34.500,337.922 34.500 L 329.000 34.500 329.000 36.000 M118.674 37.720 C 120.659 38.662,121.458 41.533,120.504 44.296 C 119.836 46.230,117.481 47.396,114.895 47.073 L 113.985 46.960 114.034 42.580 C 114.087 37.834,114.105 37.744,115.083 37.314 C 115.728 37.031,117.690 37.252,118.674 37.720 M250.472 37.424 C 252.809 38.118,253.928 41.085,253.025 44.191 C 252.448 46.174,250.051 47.378,247.300 47.066 L 246.304 46.954 246.373 42.852 C 246.449 38.286,246.545 37.777,247.397 37.406 C 248.095 37.102,249.415 37.110,250.472 37.424 M223.000 37.823 C 220.067 38.718,218.444 41.091,218.427 44.509 L 218.417 46.601 219.046 47.875 C 220.038 49.880,221.309 50.803,223.581 51.166 C 229.572 52.123,233.220 46.016,230.071 40.300 C 229.021 38.393,225.347 37.106,223.000 37.823 M206.166 38.792 C 206.165 39.227,206.117 40.202,206.058 40.958 L 205.951 42.333 206.711 42.333 L 207.472 42.333 207.654 41.487 C 207.965 40.036,208.551 39.500,209.828 39.500 L 210.333 39.500 210.333 44.130 C 210.333 49.077,210.267 49.500,209.491 49.500 C 209.218 49.500,209.167 49.618,209.167 50.250 L 209.167 51.000 211.917 51.000 L 214.667 51.000 214.667 50.167 L 214.667 49.333 213.958 49.333 L 213.250 49.334 213.297 44.417 L 213.343 39.500 213.911 39.500 C 215.175 39.500,215.840 40.133,215.995 41.486 C 216.083 42.250,216.083 42.250,216.792 42.301 L 217.500 42.352 217.500 40.176 L 217.500 38.000 211.833 38.000 L 206.167 38.000 206.166 38.792 M226.112 39.632 C 228.627 40.988,228.854 47.442,226.448 49.185 C 223.472 51.341,220.392 46.497,221.766 41.822 C 222.397 39.676,224.359 38.687,226.112 39.632 M139.588 42.083 C 140.031 43.649,140.753 45.800,141.292 47.167 C 141.564 47.854,141.836 48.623,141.896 48.875 L 142.006 49.333 139.337 49.333 C 137.868 49.333,136.667 49.269,136.667 49.190 C 136.667 49.111,137.151 47.651,137.742 45.945 C 138.334 44.239,138.913 42.384,139.029 41.823 C 139.145 41.262,139.254 40.866,139.272 40.943 C 139.290 41.020,139.432 41.533,139.588 42.083 M206.035 55.208 L 206.083 56.583 218.625 56.626 L 231.167 56.669 231.167 55.251 L 231.167 53.833 218.577 53.833 L 205.987 53.833 206.035 55.208 M247.982 71.417 C 241.030 72.803,239.616 83.319,245.960 86.455 L 247.232 87.083 249.575 87.083 C 252.222 87.083,253.089 86.803,254.520 85.482 L 255.200 84.854 254.747 84.260 C 254.259 83.621,253.703 83.488,253.281 83.909 C 250.843 86.348,246.045 85.109,244.779 81.714 C 242.697 76.133,248.323 71.009,252.985 74.240 C 253.782 74.792,254.044 74.778,254.569 74.154 C 255.995 72.458,251.705 70.676,247.982 71.417 M299.167 71.353 C 291.462 72.594,290.608 84.778,298.076 86.925 C 301.617 87.943,307.203 85.857,305.552 84.134 C 304.973 83.530,304.662 83.545,303.775 84.222 C 299.386 87.573,293.814 82.452,295.735 76.833 C 296.837 73.606,300.793 72.321,303.852 74.196 C 304.838 74.800,305.034 74.789,305.564 74.094 C 306.138 73.341,306.123 73.258,305.292 72.652 C 303.491 71.340,301.661 70.952,299.167 71.353 M360.417 71.354 C 352.480 72.338,351.374 84.264,358.982 86.827 C 360.967 87.496,364.479 87.224,366.453 86.248 L 367.667 85.648 367.667 82.491 L 367.667 79.333 365.167 79.333 L 362.667 79.333 362.667 80.133 C 362.667 81.206,362.839 81.333,364.283 81.333 L 365.500 81.333 365.500 82.891 L 365.500 84.449 364.792 84.733 C 359.401 86.888,354.695 82.279,356.692 76.801 C 357.893 73.507,363.198 72.116,365.637 74.455 C 366.086 74.886,366.640 74.702,367.103 73.969 L 367.544 73.270 367.070 72.892 C 366.184 72.186,365.086 71.695,363.799 71.431 C 362.400 71.143,362.156 71.138,360.417 71.354 M108.000 79.167 L 108.000 87.000 109.167 87.000 L 110.333 87.000 110.333 83.750 L 110.333 80.500 113.500 80.500 L 116.667 80.500 116.667 79.500 L 116.667 78.500 113.500 78.500 L 110.333 78.500 110.333 75.917 L 110.333 73.333 114.000 73.333 L 117.667 73.333 117.667 72.333 L 117.667 71.333 112.833 71.333 L 108.000 71.333 108.000 79.167 M122.333 79.167 L 122.333 87.000 123.500 87.000 L 124.667 87.000 124.667 79.167 L 124.667 71.333 123.500 71.333 L 122.333 71.333 122.333 79.167 M130.333 79.145 L 130.333 87.000 131.331 87.000 L 132.329 87.000 132.373 81.220 L 132.417 75.440 134.442 78.095 C 135.556 79.555,136.901 81.313,137.431 82.000 C 137.961 82.688,138.880 83.887,139.473 84.667 C 141.200 86.936,141.275 87.000,142.198 87.000 L 143.000 87.000 143.000 79.167 L 143.000 71.333 142.002 71.333 L 141.004 71.333 140.960 77.098 L 140.917 82.864 138.492 79.723 C 137.158 77.996,135.358 75.653,134.492 74.516 C 132.106 71.384,132.196 71.470,131.198 71.374 L 130.333 71.291 130.333 79.145 M152.589 71.786 C 152.527 72.035,152.340 72.541,152.174 72.911 C 152.008 73.281,151.299 75.046,150.598 76.833 C 149.896 78.621,149.253 80.233,149.168 80.417 C 148.775 81.264,146.667 86.658,146.667 86.816 C 146.667 87.335,148.579 87.220,149.025 86.674 C 149.176 86.489,149.586 85.549,149.936 84.585 L 150.571 82.833 153.957 82.833 C 157.036 82.833,157.352 82.860,157.436 83.125 C 157.487 83.285,157.628 83.679,157.750 84.000 C 157.872 84.321,158.156 85.071,158.382 85.667 C 158.866 86.942,159.235 87.210,160.379 87.114 C 161.477 87.023,161.480 87.069,160.252 84.250 C 160.132 83.975,159.759 83.037,159.422 82.167 C 159.086 81.296,158.712 80.355,158.591 80.076 C 158.470 79.796,158.169 79.046,157.923 78.409 C 157.396 77.047,156.885 75.782,156.581 75.083 C 156.461 74.808,156.160 74.058,155.912 73.417 C 155.076 71.255,155.153 71.333,153.847 71.333 C 152.741 71.333,152.699 71.349,152.589 71.786 M164.667 79.167 L 164.667 87.000 165.748 87.000 L 166.829 87.000 166.873 81.278 L 166.917 75.555 169.333 78.707 C 176.278 87.762,175.594 86.994,176.708 86.997 L 177.500 87.000 177.500 79.167 L 177.500 71.333 176.419 71.333 L 175.338 71.333 175.294 77.042 L 175.250 82.750 174.170 81.333 C 173.576 80.554,172.999 79.804,172.888 79.667 C 172.684 79.415,172.414 79.065,168.781 74.333 C 166.621 71.519,166.426 71.348,165.375 71.339 L 164.667 71.333 164.667 79.167 M186.944 71.679 C 179.289 74.312,180.545 86.503,188.538 87.145 C 191.402 87.374,195.000 86.059,195.000 84.781 C 195.000 83.928,193.725 83.482,192.947 84.064 C 191.556 85.104,189.169 85.458,187.667 84.846 C 182.746 82.840,183.330 74.687,188.479 73.497 C 189.957 73.156,193.333 73.869,193.333 74.523 C 193.333 74.976,194.193 74.618,194.581 74.003 C 195.112 73.162,195.158 73.286,194.038 72.526 C 192.179 71.263,189.190 70.906,186.944 71.679 M199.667 79.167 L 199.667 87.000 200.833 87.000 L 202.000 87.000 202.000 79.167 L 202.000 71.333 200.833 71.333 L 199.667 71.333 199.667 79.167 M212.110 71.458 C 212.040 71.573,209.218 78.602,207.642 82.583 C 207.280 83.500,206.915 84.400,206.833 84.583 C 206.750 84.767,206.497 85.367,206.271 85.917 L 205.860 86.917 206.222 87.025 C 207.742 87.481,208.285 87.104,209.069 85.052 C 209.412 84.152,209.751 83.304,209.823 83.167 C 209.930 82.960,210.522 82.909,213.271 82.872 L 216.590 82.827 217.153 84.288 C 217.463 85.092,217.780 85.821,217.858 85.908 C 217.936 85.995,218.000 86.197,218.000 86.357 C 218.000 86.984,219.195 87.356,220.276 87.066 C 220.669 86.960,220.640 86.681,220.115 85.500 C 219.972 85.179,219.435 83.867,218.920 82.583 C 218.406 81.300,217.847 79.912,217.677 79.500 C 217.507 79.087,217.254 78.450,217.115 78.083 C 216.669 76.914,215.821 74.762,215.670 74.417 C 215.591 74.233,215.280 73.465,214.980 72.708 L 214.434 71.333 213.310 71.333 C 212.692 71.333,212.152 71.390,212.110 71.458 M224.167 79.167 L 224.167 87.000 228.675 87.000 L 233.183 87.000 233.133 86.042 L 233.083 85.083 229.708 85.038 L 226.333 84.993 226.333 78.163 L 226.333 71.333 225.250 71.333 L 224.167 71.333 224.167 79.167 M263.750 71.560 C 257.209 73.753,256.565 83.602,262.771 86.541 C 264.475 87.348,267.984 87.361,269.672 86.566 C 275.508 83.819,275.424 74.585,269.538 71.871 C 268.383 71.339,264.958 71.155,263.750 71.560 M282.099 71.875 C 281.979 72.173,281.503 73.354,281.040 74.500 C 279.770 77.643,279.159 79.171,278.838 80.000 C 278.678 80.412,278.012 82.070,277.357 83.682 C 275.970 87.099,275.996 86.953,276.762 87.097 C 277.686 87.270,278.372 86.998,278.699 86.328 C 279.198 85.305,279.667 84.175,279.667 83.994 C 279.667 83.896,279.781 83.596,279.921 83.325 L 280.175 82.833 283.480 82.833 L 286.785 82.833 287.543 84.792 C 288.401 87.008,288.614 87.220,289.879 87.114 C 290.316 87.078,290.707 87.015,290.748 86.974 C 290.809 86.914,288.390 80.637,287.836 79.417 C 287.650 79.006,287.212 77.905,286.411 75.833 C 286.074 74.962,285.662 73.950,285.496 73.583 C 285.329 73.217,285.056 72.561,284.888 72.126 L 284.583 71.335 283.450 71.334 C 282.327 71.333,282.314 71.338,282.099 71.875 M310.333 79.174 L 310.333 87.015 311.542 86.966 L 312.750 86.917 312.795 83.542 L 312.840 80.167 316.753 80.167 L 320.667 80.167 320.667 83.583 L 320.667 87.000 321.833 87.000 L 323.000 87.000 323.000 79.167 L 323.000 71.333 321.833 71.333 L 320.667 71.333 320.667 74.833 L 320.667 78.333 316.669 78.333 L 312.671 78.333 312.778 75.279 C 312.919 71.212,312.959 71.333,311.497 71.333 L 310.333 71.333 310.333 79.174 M328.778 71.444 C 328.637 71.585,328.637 75.326,328.777 81.875 L 328.887 87.000 329.944 87.000 L 331.000 87.000 331.000 79.167 L 331.000 71.333 329.944 71.333 C 329.364 71.333,328.839 71.383,328.778 71.444 M336.833 79.145 L 336.833 87.000 337.831 87.000 L 338.829 87.000 338.873 81.263 L 338.917 75.526 339.694 76.554 C 340.884 78.130,342.767 80.584,343.055 80.935 C 343.197 81.108,344.141 82.337,345.154 83.667 C 346.166 84.996,347.168 86.303,347.380 86.571 C 347.710 86.987,347.885 87.060,348.591 87.071 L 349.417 87.083 349.460 79.200 L 349.503 71.317 348.460 71.367 L 347.417 71.417 347.333 77.167 C 347.287 80.329,347.203 82.804,347.145 82.667 C 347.059 82.462,344.145 78.656,342.168 76.167 C 341.913 75.846,341.190 74.902,340.561 74.070 C 338.600 71.476,338.582 71.459,337.656 71.370 L 336.833 71.291 336.833 79.145 M268.250 73.686 C 271.697 74.955,272.731 80.983,269.967 83.702 C 267.597 86.033,263.084 85.470,261.678 82.667 C 258.998 77.323,263.058 71.775,268.250 73.686 M154.613 76.000 C 154.837 76.596,155.158 77.421,155.326 77.833 C 155.494 78.246,155.761 78.921,155.919 79.333 C 156.177 80.007,156.463 80.697,156.627 81.042 C 156.660 81.110,155.482 81.167,154.010 81.167 C 152.367 81.167,151.333 81.103,151.333 81.003 C 151.333 80.913,151.851 79.532,152.483 77.935 C 153.116 76.339,153.689 74.781,153.758 74.474 L 153.883 73.917 154.045 74.417 C 154.134 74.692,154.389 75.404,154.613 76.000 M214.240 76.750 C 214.761 78.136,215.457 79.887,215.763 80.583 L 215.983 81.083 213.385 81.129 C 211.956 81.155,210.751 81.140,210.707 81.096 C 210.663 81.052,211.060 79.907,211.588 78.550 C 212.117 77.193,212.704 75.611,212.893 75.033 L 213.237 73.983 213.519 74.783 C 213.674 75.223,213.999 76.108,214.240 76.750 M284.750 77.500 C 285.263 78.829,285.792 80.163,285.925 80.464 C 286.058 80.765,286.167 81.046,286.167 81.089 C 286.167 81.132,284.967 81.167,283.500 81.167 C 282.033 81.167,280.833 81.118,280.833 81.058 C 280.833 80.892,282.336 77.015,283.102 75.203 C 283.229 74.902,283.338 74.527,283.344 74.369 C 283.358 73.989,283.612 74.555,284.750 77.500 M76.372 80.333 C 76.372 80.654,76.406 80.785,76.448 80.625 C 76.490 80.465,76.490 80.202,76.448 80.042 C 76.406 79.881,76.372 80.012,76.372 80.333 " stroke="none" fill="#040404" fill-rule="evenodd"></path><path id="path2" d="M50.917 39.401 C 49.777 39.763,48.627 40.436,47.500 41.401 C 46.871 41.940,46.256 42.330,46.032 42.331 C 45.679 42.333,44.667 43.227,44.667 43.537 C 44.667 43.697,44.641 43.698,45.293 43.512 C 45.928 43.329,45.925 43.323,45.513 44.032 C 45.337 44.335,44.919 45.408,44.584 46.417 C 44.249 47.425,43.937 48.344,43.890 48.458 C 43.836 48.592,43.955 48.667,44.222 48.667 C 45.295 48.667,45.378 48.936,44.656 50.074 L 44.145 50.879 44.656 50.777 C 44.937 50.721,45.167 50.737,45.167 50.812 C 45.167 51.239,43.340 52.204,42.000 52.483 C 38.594 53.194,37.616 54.062,33.037 60.442 C 29.974 64.709,29.504 65.677,29.496 67.739 C 29.491 69.041,29.276 69.949,28.845 70.487 C 27.853 71.728,27.467 72.899,27.001 76.091 C 26.466 79.756,26.026 82.069,25.390 84.559 C 24.709 87.226,24.731 87.299,26.078 86.835 C 26.614 86.651,27.115 86.500,27.193 86.500 C 27.270 86.500,27.333 87.161,27.333 87.968 C 27.333 89.412,27.340 89.438,27.784 89.594 C 28.209 89.744,28.138 89.799,26.492 90.604 C 23.558 92.037,22.168 93.317,20.414 96.198 C 20.117 96.687,19.984 96.756,19.252 96.802 C 18.180 96.870,18.135 96.917,17.431 98.677 C 16.732 100.422,16.705 100.707,17.207 101.041 L 17.580 101.288 17.019 103.269 C 16.272 105.907,16.438 105.724,12.919 107.760 C 11.218 108.744,9.853 109.575,9.886 109.608 C 9.950 109.673,12.946 109.094,18.583 107.929 C 25.180 106.566,25.867 106.495,34.167 106.334 C 42.388 106.174,44.169 106.034,52.417 104.906 C 55.442 104.492,59.042 104.005,60.417 103.823 C 61.792 103.641,64.229 103.307,65.833 103.081 C 79.248 101.192,82.695 100.705,88.227 99.917 C 91.697 99.423,94.565 98.990,94.601 98.955 C 94.636 98.920,94.124 98.522,93.463 98.070 C 91.571 96.779,91.315 96.506,90.657 95.086 C 90.317 94.351,89.871 93.600,89.666 93.417 C 88.998 92.819,87.896 91.116,87.131 89.500 C 86.212 87.559,86.101 87.456,83.448 86.083 C 80.770 84.697,80.082 84.444,79.637 84.682 C 79.154 84.941,79.167 85.432,79.421 76.162 C 79.551 71.444,79.659 67.068,79.662 66.439 L 79.667 65.294 81.082 65.412 C 84.153 65.668,85.450 64.696,84.508 62.848 C 84.119 62.086,83.875 62.005,81.958 62.002 C 81.156 62.001,80.500 61.964,80.500 61.921 C 80.500 61.878,80.732 61.259,81.016 60.546 C 81.562 59.173,81.847 57.500,81.535 57.500 C 81.176 57.500,81.083 56.685,81.083 53.513 L 81.083 50.276 80.333 49.836 C 79.429 49.307,79.270 48.662,79.822 47.768 C 80.899 46.026,79.151 44.143,77.331 45.084 C 76.373 45.580,76.340 47.781,77.282 48.308 C 77.669 48.525,73.855 52.871,72.583 53.662 C 71.952 54.054,61.012 56.501,59.899 56.498 C 57.529 56.493,54.353 55.747,54.800 55.300 C 54.910 55.190,55.000 54.899,55.000 54.653 C 55.000 54.352,55.105 54.178,55.319 54.122 C 55.495 54.076,55.664 53.864,55.694 53.652 C 55.738 53.347,55.910 53.225,56.500 53.080 C 57.332 52.876,57.309 52.956,57.076 51.132 C 56.958 50.208,56.968 50.174,57.407 49.974 C 57.880 49.759,58.418 48.873,58.748 47.770 L 58.942 47.123 59.332 47.770 L 59.722 48.417 59.872 47.750 C 60.197 46.315,59.555 44.540,58.302 43.408 L 57.666 42.833 58.375 42.829 L 59.083 42.826 57.675 42.000 C 55.959 40.994,54.610 40.515,53.131 40.385 L 52.011 40.286 52.339 39.826 C 52.519 39.572,52.667 39.321,52.667 39.266 C 52.667 39.097,51.618 39.178,50.917 39.401 M78.247 46.283 C 77.936 47.027,77.904 47.063,77.678 46.924 C 77.229 46.646,77.561 45.667,78.103 45.667 C 78.501 45.667,78.502 45.672,78.247 46.283 M55.500 47.162 C 56.325 48.437,56.230 48.455,56.569 46.958 C 56.738 46.214,56.921 46.425,57.222 47.708 C 57.659 49.578,57.601 49.644,56.167 48.917 C 55.234 48.444,54.924 48.415,54.333 48.744 C 53.979 48.941,53.958 48.992,54.196 49.084 C 54.358 49.147,54.521 49.465,54.585 49.843 L 54.695 50.493 55.284 50.246 C 56.185 49.870,56.262 49.920,56.577 51.082 C 56.920 52.349,56.847 52.666,56.214 52.669 C 55.584 52.673,55.374 52.841,55.397 53.325 C 55.413 53.660,55.305 53.765,54.799 53.910 C 54.310 54.049,54.213 54.138,54.338 54.335 C 54.563 54.692,54.547 54.752,54.069 55.321 C 52.847 56.772,49.992 54.413,49.593 51.624 C 49.500 50.978,49.391 50.786,49.004 50.586 C 47.903 50.016,47.532 48.877,48.146 47.946 L 48.457 47.475 48.536 48.432 C 48.637 49.648,49.667 50.697,49.667 49.583 C 49.667 49.003,49.841 49.066,50.394 49.849 L 50.872 50.524 51.638 49.274 C 52.384 48.058,52.667 47.848,52.667 48.510 C 52.667 49.208,53.334 48.633,53.646 47.667 C 54.248 45.799,54.562 45.713,55.500 47.162 M80.302 51.314 C 80.352 52.006,80.334 52.039,79.969 51.941 C 79.757 51.884,79.415 51.837,79.208 51.836 C 78.895 51.834,78.833 51.742,78.833 51.278 C 78.833 50.098,80.218 50.132,80.302 51.314 M77.413 51.566 C 78.604 52.631,78.543 53.119,77.246 52.925 L 76.556 52.821 76.332 54.006 C 76.152 54.958,76.149 55.303,76.315 55.761 C 76.662 56.721,76.136 56.938,74.310 56.590 C 72.567 56.258,70.702 56.756,64.583 59.187 L 61.917 60.247 59.250 60.293 C 57.428 60.324,56.320 60.268,55.750 60.117 L 54.917 59.895 55.362 59.604 C 55.607 59.443,56.221 59.269,56.726 59.217 L 57.644 59.122 57.341 58.353 L 57.038 57.583 58.977 57.571 C 61.027 57.557,62.019 57.364,69.861 55.444 C 73.384 54.582,73.317 54.622,74.952 52.417 C 76.475 50.363,76.182 50.465,77.413 51.566 M46.833 52.436 L 46.833 52.873 47.421 52.425 L 48.008 51.977 48.365 52.780 C 48.987 54.181,48.915 56.167,48.242 56.167 C 47.963 56.167,45.500 53.406,45.500 53.093 C 45.500 52.866,46.453 52.006,46.708 52.002 C 46.777 52.001,46.833 52.196,46.833 52.436 M79.800 52.533 C 80.309 53.042,79.359 53.726,78.820 53.238 L 78.482 52.932 78.866 52.636 C 79.321 52.286,79.530 52.263,79.800 52.533 M79.910 54.271 C 80.158 54.366,80.157 54.401,79.898 54.687 C 79.573 55.046,77.938 55.138,77.734 54.808 C 77.447 54.343,79.060 53.944,79.910 54.271 M48.000 56.852 C 51.233 58.715,51.530 58.922,51.032 58.970 C 49.978 59.071,46.799 57.257,45.013 55.536 C 44.502 55.044,44.158 54.674,44.250 54.714 C 44.342 54.754,46.029 55.716,48.000 56.852 M80.167 55.928 C 80.167 56.447,79.771 56.667,78.837 56.667 C 77.842 56.667,77.561 56.516,77.730 56.075 C 77.821 55.838,80.167 55.696,80.167 55.928 M80.370 57.686 C 80.814 57.924,80.740 58.481,80.238 58.671 L 79.810 58.834 80.153 59.270 C 80.537 59.759,80.484 59.951,79.903 60.172 C 79.555 60.304,79.525 60.379,79.669 60.756 C 79.914 61.400,79.909 61.406,78.875 62.034 C 77.572 62.825,77.404 62.867,76.720 62.582 C 75.873 62.227,73.569 62.271,71.667 62.676 C 67.641 63.535,58.127 65.486,57.042 65.676 C 55.606 65.926,55.029 65.799,53.250 64.839 C 52.608 64.493,51.540 64.006,50.875 63.757 C 49.680 63.309,48.811 62.568,48.619 61.835 C 48.540 61.532,48.617 61.536,50.042 61.914 C 50.552 62.050,50.610 61.910,50.245 61.426 C 49.253 60.115,51.228 59.666,53.314 60.728 C 55.423 61.803,60.433 61.642,70.587 60.172 C 73.142 59.802,73.511 59.649,74.584 58.516 C 75.062 58.012,75.601 57.626,75.974 57.520 C 76.673 57.322,79.918 57.445,80.370 57.686 M42.025 61.208 C 42.773 61.873,43.617 62.616,43.901 62.859 C 45.122 63.906,44.035 63.394,42.062 61.992 C 39.513 60.183,39.703 60.351,40.005 60.160 C 40.446 59.881,40.649 59.986,42.025 61.208 M40.482 64.105 C 39.928 64.774,38.554 65.014,37.483 64.630 C 36.929 64.432,36.955 64.420,38.750 64.077 C 40.753 63.693,40.823 63.694,40.482 64.105 M72.068 64.556 C 72.829 65.130,73.574 65.333,74.918 65.333 L 76.120 65.333 76.225 70.125 C 76.569 85.746,76.569 85.667,76.260 85.667 C 76.102 85.667,75.660 85.920,75.278 86.230 C 74.350 86.983,73.113 87.588,71.700 87.980 C 70.143 88.411,69.914 88.552,69.426 89.385 C 68.888 90.303,68.278 90.744,67.063 91.093 C 65.798 91.455,65.758 91.493,64.978 93.044 C 64.061 94.868,63.139 95.252,61.646 94.433 C 61.245 94.213,60.511 93.949,60.015 93.846 C 58.944 93.624,56.710 92.399,56.570 91.958 C 56.341 91.236,56.677 90.003,57.172 89.747 C 57.809 89.418,57.788 89.470,58.251 87.059 C 58.690 84.774,58.696 84.831,58.022 84.583 L 57.567 84.417 58.526 79.833 C 60.049 72.552,59.799 71.748,55.933 71.478 C 51.854 71.194,51.829 71.189,51.721 70.649 L 51.625 70.167 47.394 70.167 L 43.163 70.167 44.707 68.185 C 46.178 66.296,46.267 66.214,46.613 66.431 C 46.955 66.645,47.025 66.596,47.813 65.593 L 48.651 64.527 51.034 65.529 C 54.661 67.054,54.638 67.048,56.468 66.963 C 58.062 66.890,65.410 65.453,68.659 64.580 C 70.569 64.066,71.411 64.060,72.068 64.556 M78.830 69.375 C 78.822 78.064,78.444 85.956,78.013 86.387 C 77.885 86.515,77.833 83.542,77.833 75.950 L 77.833 65.333 78.333 65.333 L 78.833 65.333 78.830 69.375 M36.239 68.517 C 35.832 69.177,33.867 69.519,32.917 69.096 C 32.287 68.815,32.483 68.732,34.250 68.530 C 36.187 68.309,36.369 68.308,36.239 68.517 M70.333 69.013 C 70.333 69.763,72.592 73.167,73.090 73.167 C 74.283 73.167,74.128 72.133,72.694 70.528 C 71.053 68.693,70.333 68.231,70.333 69.013 M83.344 70.458 C 81.967 71.946,81.655 72.512,81.951 72.984 C 82.472 73.817,83.181 73.280,84.422 71.112 C 85.895 68.536,85.401 68.236,83.344 70.458 M33.760 71.528 C 35.384 71.901,35.667 72.087,34.875 72.261 C 34.623 72.316,34.315 72.393,34.190 72.432 C 33.776 72.562,32.756 72.182,32.166 71.678 C 31.439 71.056,31.629 71.038,33.760 71.528 M40.250 71.763 C 39.347 72.553,39.000 72.743,39.000 72.448 C 39.000 72.175,39.397 71.807,40.083 71.444 C 40.897 71.014,40.962 71.139,40.250 71.763 M38.069 73.117 C 37.535 73.964,37.036 73.802,37.411 72.903 C 37.661 72.307,37.692 72.287,37.960 72.555 C 38.174 72.770,38.201 72.908,38.069 73.117 M55.049 72.572 C 57.943 72.914,58.512 73.404,58.222 75.306 C 57.870 77.614,56.613 84.089,56.490 84.228 C 56.375 84.356,53.008 84.063,52.855 83.911 C 52.797 83.853,53.406 78.182,53.593 77.042 L 53.682 76.500 52.075 76.500 L 50.469 76.500 50.564 75.708 C 50.616 75.273,50.707 74.335,50.765 73.625 L 50.872 72.333 51.978 72.337 C 52.586 72.339,53.968 72.445,55.049 72.572 M36.341 78.283 C 36.160 79.263,35.442 80.420,35.133 80.229 C 34.606 79.904,35.262 76.203,36.038 75.114 L 36.417 74.583 36.465 75.967 C 36.492 76.728,36.436 77.770,36.341 78.283 M37.943 77.571 C 38.055 79.402,37.900 81.500,37.653 81.500 C 37.565 81.500,37.504 80.142,37.511 78.292 C 37.522 74.834,37.752 74.451,37.943 77.571 M66.500 75.678 C 66.500 76.290,69.661 78.667,70.476 78.667 C 71.324 78.667,71.774 77.608,71.179 77.012 C 70.570 76.403,66.500 75.242,66.500 75.678 M86.458 76.194 C 84.823 76.751,84.483 76.925,84.402 77.248 C 83.959 79.013,86.348 78.476,89.369 76.131 C 90.431 75.308,88.966 75.339,86.458 76.194 M52.295 78.073 C 52.464 78.241,51.747 83.667,51.556 83.667 C 51.030 83.667,50.669 84.958,50.404 87.783 C 50.292 88.977,50.294 88.984,50.729 89.093 C 51.290 89.234,51.319 89.023,50.183 92.974 C 49.014 97.035,49.383 96.625,45.816 97.821 C 41.344 99.319,32.482 103.354,30.102 104.976 L 29.620 105.304 29.207 104.813 C 28.673 104.178,28.194 103.946,26.667 103.582 C 24.612 103.093,23.518 102.552,23.959 102.244 C 24.686 101.734,25.115 100.545,24.781 99.963 C 24.621 99.684,24.511 99.436,24.536 99.414 C 25.128 98.895,30.823 95.725,31.886 95.323 C 33.996 94.526,33.915 94.650,35.237 90.208 C 35.871 88.077,36.434 86.336,36.487 86.338 C 36.540 86.341,36.895 86.797,37.275 87.351 L 37.967 88.358 38.328 87.392 C 38.527 86.862,38.842 85.765,39.028 84.955 L 39.367 83.483 40.091 84.510 L 40.814 85.538 41.218 85.102 C 41.440 84.862,41.827 84.104,42.078 83.416 C 42.622 81.926,42.478 81.952,43.907 83.092 L 45.064 84.016 45.517 82.499 C 46.193 80.240,46.104 80.348,46.695 81.065 C 47.326 81.831,47.322 81.836,48.010 79.603 L 48.569 77.790 50.407 77.907 C 51.418 77.971,52.268 78.045,52.295 78.073 M83.917 82.559 C 83.214 83.632,83.694 84.061,86.472 84.841 C 89.155 85.595,89.263 84.962,86.731 83.338 C 84.794 82.096,84.309 81.962,83.917 82.559 M68.958 83.843 C 66.440 85.124,66.677 85.770,69.473 85.244 C 71.665 84.832,72.364 84.169,71.620 83.208 C 71.330 82.832,70.608 83.005,68.958 83.843 M82.799 87.510 C 84.010 88.250,85.116 89.018,85.257 89.219 C 86.673 91.226,89.213 95.565,89.061 95.717 C 88.890 95.887,85.752 94.647,85.325 94.240 C 85.091 94.017,84.765 93.460,84.600 93.002 C 84.302 92.174,83.529 91.333,83.065 91.333 C 82.932 91.333,82.366 91.180,81.809 90.992 C 80.514 90.555,80.538 90.378,81.502 93.256 C 81.959 94.621,82.333 95.769,82.333 95.807 C 82.333 95.846,82.021 95.835,81.639 95.784 C 80.669 95.654,79.788 94.976,78.450 93.332 C 77.038 91.596,76.192 90.978,74.439 90.403 C 72.689 89.829,72.679 89.815,73.620 89.212 C 74.058 88.931,74.971 88.319,75.648 87.851 C 76.630 87.173,77.019 86.999,77.565 86.993 C 77.942 86.990,78.662 86.805,79.167 86.583 C 80.426 86.029,80.335 86.006,82.799 87.510 M31.063 89.510 C 31.418 90.890,31.733 90.876,32.500 89.445 C 32.984 88.543,33.040 88.525,33.608 89.092 C 34.704 90.189,33.328 93.300,31.407 94.069 C 30.239 94.536,27.498 96.125,24.859 97.864 C 22.911 99.148,22.901 99.150,21.719 98.534 L 20.855 98.083 21.689 96.709 C 23.287 94.076,24.654 92.968,27.257 92.194 C 28.582 91.800,28.988 91.448,29.500 90.251 C 30.430 88.079,30.665 87.967,31.063 89.510 M73.038 93.852 C 73.331 94.201,73.664 95.184,73.666 95.708 C 73.667 96.016,73.248 96.084,72.533 95.893 C 72.204 95.805,71.000 93.846,71.000 93.399 C 71.000 93.135,72.763 93.527,73.038 93.852 " stroke="none" fill="#241c24" fill-rule="evenodd"></path><path id="path3" d="M77.708 57.448 C 77.869 57.490,78.131 57.490,78.292 57.448 C 78.452 57.406,78.321 57.372,78.000 57.372 C 77.679 57.372,77.548 57.406,77.708 57.448 " stroke="none" fill="#5b5859" fill-rule="evenodd"></path><path id="path4" d="M37.872 79.833 C 37.872 80.154,37.906 80.285,37.948 80.125 C 37.990 79.965,37.990 79.702,37.948 79.542 C 37.906 79.381,37.872 79.512,37.872 79.833 M79.427 86.527 C 79.066 86.718,78.304 86.931,77.733 87.002 C 76.719 87.128,72.536 89.644,72.950 89.879 C 73.024 89.921,73.603 90.120,74.238 90.323 C 76.419 91.017,77.039 91.481,78.886 93.806 C 79.940 95.132,82.333 96.506,82.333 95.785 C 82.333 95.759,81.959 94.621,81.502 93.256 C 80.534 90.367,80.501 90.533,81.948 90.996 C 84.062 91.672,84.001 91.627,84.585 92.905 C 85.273 94.408,85.428 94.536,87.385 95.218 C 89.404 95.922,89.402 95.926,88.052 93.727 C 87.441 92.731,86.560 91.288,86.095 90.520 C 85.188 89.022,84.916 88.791,81.977 87.029 C 80.353 86.057,80.329 86.052,79.427 86.527 M71.526 94.458 C 72.150 95.847,72.096 95.792,72.984 95.934 L 73.719 96.051 73.625 95.474 C 73.374 93.929,72.756 93.338,71.385 93.334 C 71.024 93.333,71.026 93.344,71.526 94.458 " stroke="none" fill="#7c7c7c" fill-rule="evenodd"></path></g></svg>