<svg id="svg" version="1.1" xmlns="http://www.w3.org/2000/svg" xmlns:xlink="http://www.w3.org/1999/xlink" width="400" height="121.21212121212122" viewBox="0, 0, 400,121.21212121212122"><g id="svgg"><path id="path0" d="M76.637 2.867 C 76.242 3.484,76.138 3.857,76.069 4.907 C 76.033 5.451,75.927 5.973,75.835 6.065 C 75.728 6.172,75.667 8.285,75.666 11.825 C 75.666 14.900,75.594 18.392,75.506 19.583 C 75.418 20.775,75.324 23.822,75.298 26.354 L 75.250 30.958 73.539 30.872 L 71.828 30.785 71.164 31.483 C 69.820 32.895,70.787 34.164,73.208 34.166 C 74.760 34.167,74.906 34.444,73.781 35.250 C 72.694 36.029,71.856 38.125,71.839 40.107 C 71.832 40.974,69.067 43.037,66.831 43.843 C 65.785 44.220,63.027 43.993,60.875 43.351 C 60.577 43.263,60.333 43.231,60.333 43.282 C 60.333 43.333,60.209 43.271,60.058 43.145 C 59.906 43.020,59.757 42.932,59.727 42.951 C 59.305 43.217,58.500 42.422,58.500 41.737 C 58.500 41.320,58.379 40.608,58.230 40.155 C 58.013 39.490,58.001 39.283,58.170 39.080 C 58.312 38.908,58.345 38.544,58.274 37.934 C 58.172 37.072,58.185 37.033,58.630 36.848 C 59.529 36.476,59.583 36.119,58.944 34.774 C 58.355 33.533,58.211 32.308,58.310 29.375 L 58.339 28.500 57.128 28.501 C 55.456 28.503,54.153 28.676,54.278 28.878 C 54.344 28.986,54.051 29.003,53.440 28.927 C 52.885 28.858,52.500 28.873,52.500 28.965 C 52.500 29.050,52.313 29.085,52.083 29.041 C 51.854 28.997,51.666 29.026,51.666 29.106 C 51.665 29.185,51.309 29.265,50.874 29.284 C 50.028 29.321,48.700 29.629,48.401 29.858 C 48.301 29.934,48.179 29.956,48.129 29.906 C 48.079 29.857,47.448 29.974,46.727 30.168 C 46.006 30.362,45.188 30.580,44.908 30.652 C 43.608 30.987,42.957 31.830,43.619 32.319 C 43.691 32.373,43.758 32.750,43.767 33.158 C 43.776 33.566,43.870 33.929,43.976 33.964 C 44.082 34.000,44.129 34.092,44.081 34.170 C 44.033 34.248,44.061 34.612,44.143 34.979 C 44.276 35.569,44.248 35.689,43.903 36.013 L 43.512 36.380 41.710 36.016 C 37.107 35.087,32.838 37.814,29.602 43.750 C 29.452 44.025,29.030 44.726,28.665 45.308 C 28.299 45.891,28.000 46.393,28.000 46.424 C 28.000 46.456,27.747 46.917,27.437 47.449 C 26.310 49.385,25.176 51.714,25.279 51.881 C 25.340 51.979,25.303 52.001,25.192 51.933 C 25.022 51.827,24.968 51.930,25.014 52.273 C 25.022 52.332,24.965 52.425,24.887 52.481 C 24.809 52.537,24.560 52.958,24.334 53.417 C 24.107 53.875,23.688 54.663,23.401 55.167 C 23.114 55.671,22.580 56.646,22.215 57.333 C 21.849 58.021,21.239 59.091,20.858 59.711 C 20.478 60.332,20.167 60.869,20.167 60.905 C 20.167 61.245,16.854 65.702,15.397 67.322 C 14.663 68.139,12.205 70.271,11.402 70.789 C 11.227 70.902,10.783 71.195,10.417 71.441 C 9.622 71.974,7.318 73.000,6.915 73.000 C 6.727 73.000,6.664 73.087,6.730 73.259 C 6.795 73.428,6.763 73.476,6.636 73.398 C 6.509 73.319,6.478 73.369,6.546 73.545 C 6.602 73.692,6.595 73.835,6.530 73.864 C 6.465 73.893,6.439 74.348,6.471 74.875 C 6.504 75.403,6.580 75.803,6.640 75.766 C 6.701 75.729,6.762 75.895,6.776 76.135 C 6.802 76.568,6.439 77.266,6.205 77.233 C 5.519 77.134,2.258 80.065,2.198 80.833 C 2.098 82.134,2.106 82.834,2.222 82.834 C 2.298 82.833,2.308 83.068,2.245 83.354 C 2.167 83.713,2.188 83.840,2.314 83.762 C 2.425 83.694,2.460 83.743,2.405 83.887 C 2.136 84.588,4.917 89.000,5.628 89.000 C 6.760 89.000,12.949 82.777,15.886 78.687 C 18.814 74.607,22.724 67.246,24.750 62.000 C 25.264 60.671,25.784 59.358,25.907 59.083 C 26.029 58.808,26.186 58.396,26.254 58.167 C 26.323 57.938,26.543 57.375,26.744 56.917 C 27.626 54.900,27.733 54.611,27.711 54.310 C 27.698 54.136,27.757 54.036,27.843 54.090 C 27.930 54.143,28.000 54.109,28.000 54.015 C 28.000 53.920,28.179 53.447,28.397 52.963 C 28.616 52.479,29.033 51.521,29.325 50.833 C 30.357 48.399,30.590 47.895,31.628 45.851 C 33.651 41.867,36.728 39.040,38.378 39.650 C 38.692 39.767,38.676 39.790,38.211 39.883 C 37.033 40.118,35.010 41.826,33.728 43.667 C 32.970 44.755,31.649 47.337,31.759 47.515 C 31.811 47.598,31.767 47.667,31.663 47.667 C 31.558 47.667,31.503 47.760,31.541 47.874 C 31.579 47.987,31.525 48.165,31.422 48.269 C 31.318 48.372,30.906 49.348,30.506 50.437 C 30.106 51.526,29.266 53.792,28.639 55.473 C 28.012 57.154,27.541 58.598,27.592 58.681 C 27.644 58.765,27.613 58.833,27.523 58.833 C 27.348 58.833,26.569 60.938,26.609 61.303 C 26.622 61.423,26.589 61.478,26.536 61.424 C 26.482 61.371,26.149 62.097,25.795 63.038 C 25.442 63.980,24.777 65.633,24.319 66.712 C 23.860 67.792,23.538 68.759,23.602 68.863 C 23.666 68.967,23.644 69.006,23.554 68.950 C 23.464 68.895,23.253 69.164,23.086 69.550 C 21.603 72.956,18.930 77.863,17.046 80.638 C 16.652 81.218,16.380 81.774,16.441 81.872 C 16.505 81.976,16.474 82.003,16.367 81.938 C 16.266 81.875,16.108 81.966,16.015 82.139 C 15.386 83.315,11.226 88.028,9.112 89.962 C 8.684 90.353,8.333 90.742,8.333 90.825 C 8.333 91.448,12.863 93.504,14.358 93.560 C 14.692 93.573,14.926 93.649,14.877 93.729 C 14.755 93.930,19.268 93.733,20.042 93.503 C 20.385 93.401,20.667 93.246,20.667 93.159 C 20.667 93.071,20.723 93.012,20.792 93.027 C 21.064 93.086,21.922 92.624,22.650 92.028 C 25.843 89.412,27.524 89.165,26.247 91.500 C 26.021 91.912,25.685 92.577,25.500 92.976 C 25.233 93.552,25.104 93.675,24.874 93.575 C 23.711 93.071,23.142 93.512,21.798 95.957 C 21.017 97.380,20.896 97.899,21.227 98.404 C 21.533 98.872,21.088 100.303,20.446 100.913 C 19.637 101.682,18.554 103.405,18.061 104.705 L 17.540 106.083 16.675 106.300 C 15.598 106.570,10.104 109.728,10.590 109.798 C 10.773 109.825,12.571 109.504,14.586 109.085 C 24.675 106.988,26.881 106.668,31.298 106.664 C 38.095 106.656,44.513 106.319,48.667 105.749 C 49.629 105.618,51.767 105.324,53.417 105.097 C 55.067 104.870,57.804 104.495,59.500 104.264 C 64.511 103.582,72.128 102.525,76.417 101.917 C 78.617 101.605,83.642 100.894,87.583 100.337 C 91.525 99.779,94.819 99.302,94.904 99.277 C 94.989 99.251,94.426 98.794,93.654 98.260 C 91.897 97.044,91.621 96.733,90.839 95.083 C 90.486 94.338,89.935 93.493,89.590 93.167 C 88.946 92.558,88.136 91.280,87.584 90.000 C 86.720 87.997,86.532 87.817,83.791 86.375 C 79.782 84.266,78.726 84.086,77.309 85.270 C 76.938 85.580,76.561 85.833,76.471 85.833 C 76.381 85.833,76.081 86.060,75.805 86.336 C 75.188 86.953,72.933 88.055,71.583 88.399 C 70.829 88.591,70.472 88.788,70.130 89.202 C 68.625 91.022,68.680 90.978,67.359 91.374 L 66.083 91.756 65.500 92.939 C 65.179 93.589,64.750 94.326,64.547 94.576 L 64.178 95.031 62.902 94.515 C 62.200 94.232,61.500 94.000,61.346 94.000 C 61.192 94.000,60.995 93.938,60.908 93.862 C 60.821 93.786,60.199 93.543,59.526 93.320 C 58.482 92.976,57.593 92.333,58.161 92.333 C 58.256 92.333,58.333 92.108,58.333 91.833 C 58.333 91.558,58.399 91.333,58.479 91.333 C 58.612 91.333,59.404 89.144,59.414 88.750 C 59.416 88.658,59.643 88.571,59.917 88.557 C 60.192 88.542,60.535 88.524,60.680 88.515 C 60.956 88.499,61.310 87.966,61.414 87.410 C 61.447 87.230,61.492 87.046,61.513 87.000 C 61.534 86.954,61.565 86.842,61.583 86.750 C 61.601 86.658,61.658 86.471,61.711 86.333 C 62.306 84.767,62.638 83.425,62.496 83.159 C 62.407 82.993,62.380 82.740,62.435 82.595 C 62.507 82.408,62.435 82.333,62.184 82.333 C 61.751 82.333,61.750 82.232,62.174 80.810 C 62.468 79.820,62.566 79.667,62.903 79.667 C 63.291 79.667,63.978 77.790,64.062 76.500 C 64.076 76.271,64.136 76.008,64.193 75.917 C 64.415 75.563,64.635 74.500,64.487 74.500 C 64.402 74.500,64.333 74.421,64.333 74.323 C 64.333 74.226,64.397 74.186,64.475 74.234 C 64.552 74.282,64.595 73.893,64.568 73.369 C 64.533 72.647,64.557 72.517,64.671 72.833 C 64.783 73.144,64.798 73.058,64.728 72.500 C 64.583 71.349,64.077 70.362,63.223 69.567 C 62.374 68.776,60.133 67.565,59.846 67.742 C 59.747 67.803,59.667 67.783,59.667 67.698 C 59.667 67.528,58.743 67.343,57.362 67.238 C 56.874 67.201,56.390 67.118,56.288 67.055 C 56.185 66.992,55.741 66.959,55.300 66.982 C 54.817 67.008,54.500 66.954,54.500 66.847 C 54.500 66.740,54.265 66.699,53.911 66.744 C 53.510 66.795,53.332 66.755,53.354 66.618 C 53.372 66.507,53.304 66.216,53.203 65.972 C 52.920 65.288,52.926 63.345,53.214 62.583 C 53.887 60.802,54.202 60.118,54.722 59.302 C 55.536 58.027,58.140 53.082,58.269 52.566 C 58.391 52.083,58.174 52.088,60.750 52.510 C 61.392 52.615,62.352 52.694,62.884 52.686 C 63.481 52.676,63.812 52.734,63.749 52.835 C 63.691 52.929,63.850 53.001,64.115 53.002 C 64.373 53.003,64.876 53.052,65.234 53.111 C 65.615 53.174,65.846 53.155,65.791 53.066 C 65.738 52.981,66.115 52.905,66.640 52.895 C 67.945 52.870,72.000 51.401,72.000 50.953 C 72.000 50.877,72.073 50.859,72.162 50.914 C 72.495 51.120,74.100 49.797,73.903 49.478 C 73.854 49.399,73.878 49.333,73.956 49.333 C 74.163 49.333,74.569 47.370,74.536 46.534 C 74.520 46.140,74.568 45.856,74.644 45.902 C 74.719 45.949,74.948 45.652,75.153 45.242 C 75.622 44.303,75.994 44.491,75.664 45.500 C 74.970 47.623,78.054 48.824,79.084 46.831 C 79.372 46.274,79.415 45.500,79.157 45.500 C 79.060 45.500,79.022 45.433,79.073 45.351 C 79.123 45.269,79.064 45.163,78.942 45.116 C 78.798 45.061,78.740 44.832,78.780 44.473 C 78.814 44.167,78.845 43.801,78.850 43.660 C 78.860 43.373,79.737 42.921,79.985 43.074 C 80.255 43.241,80.667 42.460,80.667 41.781 C 80.667 41.385,80.797 40.970,81.005 40.706 C 81.203 40.454,81.343 40.028,81.342 39.679 C 81.341 39.352,81.383 38.733,81.436 38.305 C 81.488 37.877,81.457 37.393,81.366 37.230 C 81.258 37.038,81.256 36.786,81.361 36.511 C 81.620 35.830,81.387 35.051,80.827 34.720 C 80.014 34.240,80.219 34.073,81.579 34.106 C 83.588 34.156,84.407 32.908,83.293 31.496 C 82.835 30.915,82.291 30.790,80.550 30.861 L 79.214 30.917 79.112 24.833 C 79.056 21.488,78.970 18.525,78.920 18.250 C 78.870 17.975,78.795 15.350,78.754 12.417 C 78.649 4.952,78.360 2.667,77.523 2.667 C 77.434 2.667,77.253 2.625,77.122 2.575 C 76.984 2.522,76.779 2.645,76.637 2.867 M84.286 2.744 C 83.969 2.909,83.854 2.922,83.924 2.785 C 83.979 2.674,83.925 2.696,83.804 2.834 C 83.683 2.972,82.973 3.631,82.226 4.300 C 80.556 5.796,80.180 7.144,81.540 6.765 C 81.981 6.643,83.439 4.878,83.368 4.554 C 83.341 4.433,83.427 4.333,83.559 4.333 C 83.894 4.333,84.833 3.224,84.833 2.828 C 84.833 2.438,84.865 2.442,84.286 2.744 M69.886 2.998 C 69.914 3.180,70.267 3.687,70.671 4.123 C 71.074 4.560,71.493 5.104,71.602 5.333 C 72.155 6.501,73.018 7.038,73.593 6.571 C 73.771 6.427,73.824 6.355,73.711 6.413 C 73.563 6.487,73.530 6.386,73.593 6.050 C 73.673 5.632,73.517 5.433,72.087 4.125 C 70.517 2.689,69.781 2.312,69.886 2.998 M77.589 21.542 C 77.675 28.030,77.659 30.833,77.537 30.833 C 77.440 30.833,77.230 30.884,77.070 30.945 C 76.794 31.051,76.784 30.454,76.888 19.487 C 77.050 2.488,77.349 3.364,77.589 21.542 M65.826 7.838 C 65.701 7.915,65.539 7.941,65.466 7.896 C 65.393 7.851,65.333 7.881,65.333 7.964 C 65.333 8.205,65.917 8.667,66.221 8.667 C 66.375 8.667,66.500 8.754,66.500 8.861 C 66.500 8.968,66.544 9.012,66.597 8.958 C 66.651 8.905,66.844 9.011,67.027 9.193 C 67.210 9.376,67.469 9.484,67.603 9.432 C 67.736 9.381,67.888 9.450,67.940 9.585 C 67.992 9.721,68.102 9.790,68.184 9.739 C 68.266 9.688,68.333 9.726,68.333 9.823 C 68.333 9.921,68.488 10.000,68.677 10.000 C 68.865 10.000,68.983 10.059,68.938 10.132 C 68.893 10.205,69.010 10.276,69.197 10.290 C 69.384 10.304,69.666 10.432,69.823 10.574 C 70.192 10.908,70.266 10.901,70.667 10.500 C 71.268 9.898,71.038 9.467,70.011 9.271 C 69.696 9.212,69.305 9.042,69.142 8.894 C 68.979 8.747,68.728 8.672,68.583 8.727 C 68.432 8.785,68.281 8.725,68.228 8.585 C 68.176 8.452,67.860 8.293,67.526 8.233 C 67.191 8.173,66.842 8.070,66.750 8.004 C 66.418 7.767,66.048 7.700,65.826 7.838 M87.167 8.276 C 87.029 8.322,86.804 8.403,86.667 8.456 C 86.529 8.509,86.360 8.541,86.292 8.526 C 86.223 8.512,86.167 8.568,86.167 8.650 C 86.167 8.732,85.906 8.800,85.588 8.800 C 85.270 8.800,84.890 8.920,84.743 9.067 C 84.447 9.362,84.259 9.423,84.413 9.172 C 84.468 9.083,84.267 9.114,83.966 9.241 C 83.001 9.646,82.906 10.312,83.757 10.700 C 84.102 10.857,84.218 10.853,84.326 10.678 C 84.401 10.557,84.645 10.438,84.870 10.414 C 85.094 10.389,85.608 10.196,86.013 9.984 C 86.419 9.772,86.806 9.614,86.875 9.633 C 86.944 9.652,87.000 9.592,87.000 9.500 C 87.000 9.408,87.060 9.352,87.133 9.375 C 87.426 9.466,88.507 8.925,88.430 8.725 C 88.385 8.606,88.442 8.552,88.564 8.599 C 88.682 8.644,88.778 8.565,88.778 8.424 C 88.778 8.167,87.772 8.074,87.167 8.276 M69.333 14.120 C 67.786 14.201,64.500 14.869,64.500 15.102 C 64.500 15.495,65.044 15.582,67.372 15.558 C 70.047 15.532,70.071 15.524,70.223 14.715 C 70.340 14.087,70.313 14.069,69.333 14.120 M84.155 14.355 C 83.978 14.687,83.944 15.279,84.111 15.111 C 84.173 15.049,84.362 15.125,84.532 15.279 C 84.780 15.503,85.282 15.572,87.046 15.626 L 89.250 15.692 89.250 15.284 C 89.250 15.059,89.172 14.906,89.077 14.942 C 88.982 14.979,88.419 14.851,87.827 14.659 C 86.215 14.135,84.355 13.981,84.155 14.355 M70.338 18.792 C 70.026 19.044,69.527 19.494,69.230 19.792 C 68.932 20.090,68.647 20.333,68.595 20.333 C 68.543 20.333,68.357 20.465,68.183 20.625 C 68.008 20.785,67.670 21.051,67.433 21.216 C 66.904 21.582,66.869 22.103,67.362 22.259 C 67.615 22.340,67.791 22.283,67.946 22.072 C 68.067 21.906,68.167 21.823,68.167 21.887 C 68.167 21.952,68.465 21.807,68.831 21.565 C 69.196 21.324,69.446 21.047,69.387 20.951 C 69.319 20.842,69.386 20.818,69.562 20.886 C 69.738 20.953,69.882 20.900,69.940 20.748 C 69.992 20.613,70.102 20.543,70.184 20.594 C 70.266 20.645,70.333 20.572,70.333 20.432 C 70.333 20.274,70.428 20.214,70.582 20.273 C 70.742 20.334,70.888 20.227,70.988 19.976 C 71.075 19.760,71.150 19.689,71.156 19.817 C 71.164 20.002,71.235 19.990,71.484 19.764 C 71.791 19.486,71.844 18.921,71.599 18.526 C 71.403 18.208,70.939 18.306,70.338 18.792 M83.125 18.563 C 82.873 18.655,82.667 18.824,82.667 18.938 C 82.667 19.448,83.020 19.999,83.411 20.097 C 83.643 20.155,83.833 20.258,83.833 20.326 C 83.833 20.451,86.579 22.333,86.760 22.333 C 87.060 22.333,87.316 21.863,87.068 21.767 C 86.928 21.713,86.851 21.607,86.897 21.531 C 86.944 21.456,86.423 20.887,85.740 20.269 C 83.652 18.378,83.644 18.372,83.125 18.563 M57.556 20.383 C 57.084 20.925,57.066 21.615,57.513 21.977 L 57.885 22.278 57.423 22.796 C 56.370 23.978,55.388 24.363,54.759 23.841 C 54.646 23.747,54.511 23.711,54.460 23.762 C 54.268 23.954,54.423 22.907,54.617 22.704 C 54.728 22.586,54.782 22.393,54.736 22.274 C 54.690 22.155,54.736 21.840,54.837 21.574 C 54.938 21.308,54.967 21.145,54.900 21.211 C 54.834 21.277,54.696 21.163,54.594 20.957 C 54.381 20.527,53.458 20.356,53.072 20.676 C 52.689 20.994,52.750 22.612,53.155 22.865 C 53.400 23.018,53.438 23.137,53.316 23.366 C 53.227 23.531,53.209 23.667,53.276 23.667 C 53.342 23.667,53.230 23.821,53.028 24.010 C 52.825 24.199,52.703 24.424,52.756 24.510 C 52.809 24.596,52.774 24.667,52.677 24.667 C 52.579 24.667,52.500 24.592,52.500 24.500 C 52.500 24.408,52.421 24.333,52.323 24.333 C 52.226 24.333,52.193 24.408,52.250 24.500 C 52.376 24.704,51.225 24.704,50.750 24.500 C 50.567 24.421,50.487 24.351,50.574 24.345 C 50.660 24.339,50.586 24.227,50.409 24.098 C 50.232 23.969,50.030 23.898,49.960 23.942 C 49.785 24.049,49.897 23.515,50.166 22.958 C 50.423 22.424,50.182 21.667,49.754 21.667 C 49.614 21.667,49.500 21.592,49.500 21.500 C 49.500 21.232,48.562 21.308,48.323 21.595 C 47.931 22.068,48.099 23.333,48.553 23.333 C 48.762 23.333,48.799 23.632,48.693 24.450 C 48.622 24.996,46.500 26.002,46.500 25.490 C 46.500 25.393,46.413 25.367,46.308 25.433 C 46.196 25.502,46.160 25.479,46.223 25.377 C 46.282 25.282,46.143 25.080,45.913 24.930 C 45.492 24.654,45.470 23.913,45.875 23.647 C 46.067 23.521,45.545 22.453,45.350 22.573 C 45.275 22.619,44.984 22.591,44.703 22.510 C 44.125 22.345,43.730 22.655,43.765 23.250 C 43.824 24.272,43.839 24.321,44.074 24.231 C 44.240 24.167,44.307 24.246,44.289 24.486 C 44.273 24.688,44.147 24.833,43.985 24.833 C 43.833 24.833,43.493 24.876,43.229 24.928 C 42.898 24.994,42.647 24.929,42.417 24.720 C 41.666 24.037,40.966 23.500,40.825 23.500 C 40.623 23.500,40.826 24.521,41.090 24.833 C 41.207 24.971,41.634 26.077,42.041 27.291 C 42.447 28.505,42.820 29.458,42.870 29.408 C 42.992 29.286,43.199 30.146,43.090 30.322 C 42.773 30.835,44.090 30.922,44.667 30.426 C 44.804 30.308,45.046 30.213,45.204 30.217 C 45.679 30.226,47.409 29.780,47.519 29.620 C 47.575 29.538,47.875 29.446,48.185 29.416 C 48.496 29.385,49.083 29.284,49.491 29.190 C 49.899 29.097,50.304 29.065,50.392 29.119 C 50.480 29.174,50.501 29.136,50.439 29.036 C 50.310 28.828,51.642 28.578,52.160 28.713 C 52.338 28.760,52.511 28.716,52.545 28.616 C 52.583 28.501,53.590 28.396,55.301 28.330 C 58.297 28.213,58.245 28.228,58.001 27.586 C 57.876 27.258,57.879 27.062,58.011 26.903 C 58.117 26.776,58.150 26.468,58.087 26.185 C 58.021 25.881,58.088 25.381,58.262 24.887 C 58.418 24.445,58.537 23.918,58.526 23.717 C 58.514 23.515,58.576 23.306,58.662 23.253 C 58.748 23.200,58.776 23.045,58.724 22.910 C 58.672 22.775,58.767 22.458,58.934 22.207 C 59.298 21.659,59.407 20.598,59.121 20.374 C 58.646 20.001,57.886 20.005,57.556 20.383 M57.212 29.542 C 57.615 29.846,57.823 32.000,57.450 32.000 C 57.305 32.000,57.140 31.925,57.083 31.833 C 56.864 31.478,55.578 31.646,55.167 32.083 L 54.775 32.500 55.247 32.500 C 55.693 32.500,55.704 32.516,55.442 32.805 C 54.891 33.414,56.010 34.049,56.912 33.639 C 57.144 33.533,57.359 33.477,57.390 33.515 C 58.618 35.056,58.867 36.167,57.984 36.167 C 57.442 36.167,57.284 36.235,57.215 36.500 C 57.146 36.765,56.988 36.833,56.446 36.833 C 55.892 36.833,55.652 36.942,55.170 37.413 C 54.240 38.321,53.608 38.365,53.191 37.548 C 53.008 37.188,52.586 36.569,52.255 36.172 C 50.365 33.910,50.436 31.537,52.435 30.126 C 53.350 29.481,56.605 29.083,57.212 29.542 M49.481 32.744 C 49.781 33.044,49.790 34.975,49.498 36.239 C 48.824 39.158,49.706 40.792,52.749 42.253 L 54.081 42.893 53.501 43.130 C 52.301 43.620,50.578 42.866,48.710 41.033 C 46.765 39.124,45.225 38.000,44.558 38.000 C 44.278 38.000,44.273 37.871,44.542 37.599 C 44.656 37.483,44.899 37.188,45.081 36.944 C 45.263 36.700,45.488 36.498,45.581 36.496 C 45.674 36.494,45.938 36.346,46.167 36.167 C 46.736 35.721,46.859 35.749,47.293 36.419 C 47.557 36.826,47.794 37.000,48.085 37.000 C 48.591 37.000,48.624 36.745,48.151 36.492 C 47.685 36.242,47.000 34.654,47.000 33.821 C 47.000 32.510,48.568 31.829,49.481 32.744 M80.300 35.367 C 80.674 35.740,80.542 36.492,80.072 36.671 C 78.559 37.246,76.805 36.527,77.594 35.654 C 78.006 35.200,79.929 34.995,80.300 35.367 M76.204 35.827 C 76.854 36.338,77.626 37.928,77.400 38.290 C 77.098 38.773,76.235 38.754,75.638 38.252 C 74.991 37.707,74.684 37.903,74.997 38.660 C 75.286 39.356,75.129 40.505,74.660 41.140 C 74.231 41.721,74.295 41.955,74.808 41.680 C 75.965 41.061,75.897 42.536,74.687 44.304 C 74.519 44.549,74.056 45.256,73.659 45.875 C 72.743 47.302,72.851 47.375,72.050 44.792 L 71.366 42.583 71.913 42.000 C 72.387 41.494,72.474 41.262,72.569 40.250 C 72.893 36.805,74.681 34.629,76.204 35.827 M42.488 37.770 C 43.488 38.218,44.733 39.168,45.017 39.698 C 45.223 40.083,45.286 40.110,43.883 39.218 C 43.406 38.915,42.934 38.667,42.833 38.667 C 42.733 38.667,42.344 38.518,41.968 38.337 C 40.983 37.861,39.479 37.607,38.287 37.715 C 37.462 37.790,37.319 37.771,37.584 37.619 C 38.518 37.087,41.145 37.167,42.488 37.770 M80.467 37.935 L 80.517 38.619 79.735 38.726 C 78.143 38.944,77.636 38.737,77.790 37.930 C 77.854 37.596,77.997 37.488,78.477 37.410 C 78.810 37.355,79.196 37.286,79.333 37.255 C 80.145 37.072,80.416 37.234,80.467 37.935 M57.333 38.467 C 57.333 38.844,57.227 38.971,56.780 39.133 C 55.330 39.658,55.044 38.970,56.417 38.261 C 57.134 37.890,57.333 37.935,57.333 38.467 M80.435 39.700 C 80.277 40.492,79.180 40.729,77.417 40.354 C 76.558 40.171,76.635 39.547,77.532 39.429 C 80.342 39.059,80.559 39.080,80.435 39.700 M40.333 39.667 C 40.521 39.788,40.437 39.828,40.000 39.828 C 39.563 39.828,39.479 39.788,39.667 39.667 C 39.804 39.578,39.954 39.505,40.000 39.505 C 40.046 39.505,40.196 39.578,40.333 39.667 M80.224 41.536 C 80.527 42.693,77.544 42.891,77.104 41.743 C 76.900 41.213,77.019 41.167,78.564 41.167 C 80.038 41.167,80.133 41.188,80.224 41.536 M77.949 45.774 C 78.060 46.063,77.616 46.500,77.213 46.500 C 76.939 46.500,76.764 46.088,76.894 45.750 C 77.024 45.411,77.817 45.430,77.949 45.774 M39.333 49.295 C 39.333 49.434,37.407 53.257,36.711 54.500 C 34.064 59.228,33.899 59.635,31.308 67.833 C 30.627 69.989,30.594 70.079,30.015 71.344 C 29.823 71.763,29.667 72.160,29.667 72.227 C 29.667 72.456,28.256 74.351,28.203 74.193 C 28.174 74.107,28.425 73.446,28.760 72.726 C 29.454 71.233,30.069 69.429,30.828 66.667 C 32.684 59.911,34.938 54.705,37.213 51.917 C 37.663 51.365,39.000 49.405,39.000 49.296 C 39.000 49.225,39.075 49.167,39.167 49.167 C 39.258 49.167,39.333 49.225,39.333 49.295 M302.836 59.958 C 302.838 60.315,302.874 60.361,303.000 60.167 C 303.211 59.841,303.211 59.500,303.000 59.500 C 302.908 59.500,302.834 59.706,302.836 59.958 M38.083 60.909 C 39.187 61.080,40.908 61.388,41.917 61.597 C 42.558 61.729,43.496 61.865,44.000 61.899 C 44.504 61.934,45.629 62.043,46.500 62.143 C 47.371 62.243,48.857 62.410,49.802 62.516 C 51.284 62.680,51.505 62.744,51.408 62.978 C 51.347 63.128,51.258 63.569,51.210 63.958 L 51.123 64.667 50.187 64.662 C 47.558 64.648,43.755 64.221,40.417 63.565 C 37.680 63.027,37.404 62.968,36.875 62.806 C 36.441 62.674,36.348 62.569,36.407 62.279 C 36.448 62.080,36.528 61.627,36.585 61.273 C 36.685 60.651,36.706 60.633,37.219 60.743 C 37.511 60.806,37.900 60.880,38.083 60.909 M48.794 70.125 C 48.475 70.797,48.323 71.238,48.095 72.167 C 47.948 72.762,47.716 73.662,47.579 74.167 C 47.441 74.671,47.259 75.496,47.174 76.000 C 46.724 78.668,46.469 79.999,46.264 80.750 C 46.139 81.208,45.905 82.164,45.744 82.875 C 45.374 84.502,43.976 86.082,42.600 86.427 C 42.362 86.487,42.167 86.594,42.167 86.665 C 42.167 86.736,41.998 86.831,41.792 86.876 C 41.585 86.921,41.275 87.016,41.101 87.089 C 40.901 87.173,41.053 86.890,41.518 86.315 C 42.666 84.896,43.718 82.652,44.909 79.083 C 45.337 77.800,45.755 76.600,45.837 76.417 C 45.920 76.233,46.293 75.296,46.667 74.333 C 47.561 72.031,48.515 70.000,48.703 70.000 C 48.785 70.000,48.826 70.056,48.794 70.125 M62.418 70.907 C 64.103 71.611,64.041 72.879,62.004 79.333 C 61.642 80.479,61.260 81.773,61.153 82.208 C 60.874 83.355,59.409 83.273,55.583 81.897 C 54.633 81.555,54.578 80.905,55.333 78.944 C 55.608 78.230,55.833 77.493,55.833 77.306 C 55.833 76.726,56.918 74.430,57.678 73.401 C 59.272 71.243,61.021 70.323,62.418 70.907 M26.904 72.375 C 26.946 72.581,27.012 73.099,27.051 73.527 C 27.105 74.109,27.329 74.612,27.949 75.540 C 28.657 76.597,28.807 76.967,28.985 78.096 C 29.177 79.318,29.437 80.325,29.744 81.042 C 29.849 81.287,29.779 81.333,29.309 81.331 C 28.329 81.326,27.990 80.861,27.751 79.193 L 27.568 77.917 27.266 78.485 C 26.737 79.480,26.728 80.789,27.238 82.425 C 27.749 84.064,27.760 83.987,27.045 83.878 C 26.489 83.794,26.525 83.845,25.520 81.667 C 25.348 81.294,25.339 81.321,25.428 81.917 C 25.483 82.283,25.644 82.830,25.786 83.131 C 26.090 83.777,26.007 83.913,25.405 83.762 C 24.755 83.599,24.329 83.032,23.882 81.734 L 23.486 80.583 23.577 81.400 C 23.626 81.849,23.774 82.430,23.904 82.692 C 24.254 83.394,23.810 83.328,23.222 82.591 C 22.116 81.205,21.909 77.671,22.733 74.250 C 22.777 74.067,22.860 73.699,22.916 73.433 C 23.195 72.123,26.664 71.203,26.904 72.375 M52.053 81.878 C 51.997 82.678,51.887 83.333,51.809 83.333 C 51.731 83.333,51.667 83.483,51.667 83.667 C 51.667 83.850,51.583 84.000,51.481 84.000 C 51.377 84.000,51.333 84.147,51.382 84.333 C 51.430 84.516,51.401 84.708,51.318 84.760 C 50.916 85.008,51.150 86.833,51.583 86.833 C 52.126 86.833,52.128 87.218,51.591 88.371 C 51.366 88.855,51.138 89.533,51.083 89.880 C 51.028 90.226,50.919 90.470,50.840 90.421 C 50.762 90.373,50.740 90.495,50.792 90.692 C 50.862 90.962,50.831 91.018,50.665 90.915 C 50.504 90.816,50.472 90.854,50.550 91.056 C 50.608 91.209,50.584 91.333,50.495 91.333 C 50.406 91.333,50.345 91.390,50.359 91.458 C 50.373 91.527,50.261 91.862,50.109 92.203 C 49.957 92.544,49.833 92.938,49.833 93.078 C 49.833 93.218,49.761 93.333,49.672 93.333 C 49.583 93.333,49.550 93.436,49.598 93.562 C 49.646 93.688,49.564 93.913,49.414 94.062 C 49.265 94.211,49.195 94.333,49.259 94.333 C 49.322 94.333,49.280 94.447,49.165 94.585 C 49.050 94.724,48.928 95.076,48.894 95.368 C 48.860 95.659,48.756 95.945,48.662 96.003 C 48.568 96.061,48.512 96.364,48.537 96.677 L 48.583 97.246 45.833 98.176 C 42.034 99.461,41.296 99.771,36.833 101.952 C 32.942 103.854,32.912 103.866,32.206 103.683 C 31.815 103.583,31.346 103.500,31.164 103.500 C 30.982 103.500,30.833 103.427,30.833 103.339 C 30.833 103.250,30.709 103.225,30.556 103.284 C 30.359 103.359,30.317 103.328,30.410 103.177 C 30.507 103.021,30.452 102.993,30.202 103.072 C 30.014 103.132,29.815 103.105,29.759 103.014 C 29.702 102.923,29.554 102.887,29.430 102.934 C 28.883 103.144,27.543 102.108,27.890 101.743 C 27.996 101.632,28.194 101.380,28.330 101.184 C 28.504 100.934,28.729 100.838,29.087 100.862 C 29.674 100.902,30.000 100.744,30.000 100.421 C 30.000 100.296,30.066 100.169,30.146 100.139 C 30.340 100.065,31.953 97.578,32.093 97.138 C 32.210 96.767,31.955 96.507,31.468 96.503 C 30.697 96.496,31.113 95.538,32.786 93.475 C 33.408 92.707,34.399 91.443,34.988 90.665 C 35.578 89.887,36.084 89.219,36.113 89.181 C 36.161 89.119,38.109 88.985,39.692 88.936 C 40.027 88.925,40.262 88.852,40.213 88.774 C 40.165 88.695,40.350 88.680,40.625 88.741 C 40.956 88.813,41.204 88.773,41.356 88.620 C 41.483 88.494,41.667 88.417,41.765 88.449 C 42.935 88.839,47.306 84.900,46.733 83.972 C 46.660 83.855,46.689 83.827,46.808 83.901 C 46.926 83.974,47.001 83.903,47.002 83.718 C 47.003 83.511,47.330 83.266,48.043 82.937 C 49.192 82.408,50.860 81.276,51.489 80.599 C 52.064 79.981,52.170 80.220,52.053 81.878 M82.715 87.542 C 85.278 89.087,85.559 89.380,87.525 92.568 C 89.833 96.309,89.830 96.271,87.717 95.509 C 85.719 94.788,85.550 94.652,84.904 93.234 C 84.531 92.415,84.212 91.946,83.962 91.848 C 83.073 91.502,81.000 90.905,81.000 90.997 C 81.000 91.051,81.375 92.215,81.833 93.583 C 82.292 94.951,82.667 96.096,82.667 96.126 C 82.667 96.157,82.385 96.132,82.042 96.072 C 80.919 95.876,80.063 95.227,78.753 93.581 C 77.350 91.819,76.583 91.282,74.458 90.571 C 72.913 90.055,72.939 90.186,74.208 89.313 C 76.824 87.514,77.073 87.379,77.968 87.279 C 78.454 87.225,79.242 86.996,79.718 86.771 C 80.194 86.545,80.612 86.355,80.647 86.347 C 80.682 86.340,81.612 86.877,82.715 87.542 M35.000 89.463 C 35.000 89.534,34.494 90.218,33.875 90.982 C 33.256 91.747,32.546 92.675,32.297 93.045 C 32.047 93.415,31.703 93.875,31.533 94.067 C 31.362 94.259,31.011 94.792,30.753 95.250 C 30.495 95.708,30.271 96.102,30.254 96.124 C 30.172 96.236,25.853 94.507,25.517 94.228 C 25.481 94.198,25.650 93.874,25.892 93.507 C 26.135 93.140,26.333 92.790,26.333 92.729 C 26.333 92.667,26.571 92.149,26.862 91.576 L 27.391 90.535 28.987 90.326 C 29.865 90.211,31.408 89.948,32.417 89.742 C 34.436 89.329,35.000 89.268,35.000 89.463 M73.253 94.003 C 73.748 94.414,74.192 96.334,73.792 96.332 C 72.760 96.328,71.333 94.793,71.333 93.688 C 71.333 93.502,72.973 93.770,73.253 94.003 " stroke="none" fill="#241c24" fill-rule="evenodd"></path><path id="path1" d="M77.145 9.583 C 77.087 9.675,76.986 14.494,76.919 20.292 L 76.798 30.833 77.239 30.833 L 77.679 30.833 77.569 24.375 C 77.395 14.177,77.259 9.403,77.145 9.583 M54.150 29.656 C 50.964 30.094,49.948 33.537,52.253 36.083 C 52.584 36.450,52.973 36.996,53.116 37.297 C 53.627 38.371,54.016 38.349,55.314 37.176 C 55.703 36.825,56.049 36.667,56.428 36.667 C 56.831 36.667,57.006 36.578,57.083 36.333 C 57.168 36.066,57.336 36.000,57.928 36.000 C 58.826 36.000,58.824 36.034,57.992 34.633 C 57.384 33.611,57.283 33.515,56.980 33.678 C 56.330 34.025,54.943 33.528,55.251 33.058 C 55.596 32.532,55.565 32.447,55.075 32.571 C 54.688 32.668,54.666 32.646,54.830 32.340 C 55.227 31.598,56.480 31.279,57.032 31.779 C 57.501 32.203,57.704 31.865,57.574 30.879 C 57.394 29.521,56.763 29.296,54.150 29.656 M47.513 32.765 C 46.652 33.489,47.072 35.441,48.332 36.582 C 48.700 36.915,48.632 37.167,48.174 37.167 C 47.878 37.167,47.408 36.759,46.937 36.094 C 46.717 35.782,46.685 35.790,45.980 36.339 C 44.477 37.509,44.299 37.893,45.169 38.084 C 45.443 38.144,45.667 38.245,45.667 38.309 C 45.667 38.372,45.910 38.556,46.208 38.716 C 46.506 38.876,47.087 39.348,47.500 39.763 C 49.972 42.252,51.364 43.169,52.665 43.164 C 53.929 43.160,53.918 42.959,52.618 42.265 C 49.273 40.482,48.718 39.147,49.553 34.895 C 49.976 32.747,48.886 31.610,47.513 32.765 M138.613 34.702 C 137.693 37.275,136.709 39.982,135.749 42.583 C 135.140 44.233,134.429 46.183,134.168 46.917 C 131.150 55.406,130.574 56.552,129.250 56.696 L 128.750 56.750 128.702 58.125 L 128.653 59.500 132.552 59.500 L 136.451 59.500 136.629 58.423 C 136.927 56.625,136.795 56.417,135.353 56.417 C 134.361 56.417,134.163 56.373,134.225 56.167 C 134.266 56.029,134.503 55.392,134.751 54.750 C 134.999 54.108,135.282 53.312,135.379 52.981 L 135.557 52.378 136.903 52.274 C 137.644 52.216,139.342 52.168,140.677 52.168 L 143.103 52.167 143.402 53.042 C 144.357 55.839,144.310 56.557,143.158 56.751 L 142.500 56.863 142.500 58.181 L 142.500 59.500 147.333 59.500 L 152.167 59.500 152.167 57.980 L 152.167 56.460 151.204 56.530 L 150.241 56.599 149.886 55.341 C 149.574 54.236,148.878 52.380,146.760 47.000 C 146.453 46.221,145.926 44.871,145.589 44.000 C 145.251 43.129,144.840 42.079,144.674 41.667 C 144.508 41.254,144.222 40.542,144.037 40.083 C 143.853 39.625,143.586 38.950,143.445 38.583 C 143.304 38.217,142.850 37.054,142.437 36.000 L 141.686 34.083 140.277 34.035 L 138.869 33.988 138.613 34.702 M162.335 34.355 C 161.038 34.703,159.129 35.616,158.528 36.176 C 158.337 36.354,158.108 36.500,158.020 36.500 C 157.718 36.500,156.025 38.560,155.333 39.770 C 152.365 44.957,152.713 51.674,156.173 55.976 C 156.843 56.809,159.042 58.654,159.376 58.663 C 159.445 58.665,159.873 58.846,160.328 59.065 C 162.030 59.886,166.712 60.247,168.750 59.714 C 169.117 59.618,170.017 59.372,170.750 59.167 C 171.483 58.962,172.346 58.724,172.667 58.638 C 172.987 58.552,173.850 58.430,174.583 58.366 L 175.917 58.250 176.000 54.500 C 176.099 50.031,176.175 49.829,177.833 49.633 C 178.233 49.585,178.252 49.530,178.299 48.292 L 178.347 47.000 173.507 47.000 L 168.667 47.000 168.667 48.521 L 168.667 50.043 169.958 49.968 L 171.250 49.893 171.201 52.958 L 171.152 56.023 170.582 56.261 C 168.448 57.153,164.880 57.099,163.223 56.151 C 159.171 53.833,157.818 45.790,160.567 40.365 C 163.306 34.960,170.840 35.869,172.373 41.791 C 172.626 42.768,172.706 42.828,173.778 42.831 C 175.272 42.835,175.167 43.173,175.167 38.399 L 175.167 34.167 173.667 34.167 L 172.167 34.167 172.167 34.827 L 172.167 35.488 171.375 35.140 C 168.765 33.993,164.926 33.660,162.335 34.355 M185.385 34.330 C 182.112 35.297,180.358 37.452,180.203 40.700 C 180.008 44.788,182.973 47.819,189.530 50.233 C 190.582 50.620,191.668 51.165,192.586 51.767 C 194.396 52.953,193.948 55.682,191.768 56.749 C 188.598 58.299,184.488 56.009,183.471 52.125 L 183.264 51.333 181.963 51.333 L 180.661 51.333 180.705 55.542 L 180.750 59.750 182.198 59.798 L 183.647 59.846 183.698 59.174 C 183.749 58.516,183.758 58.507,184.167 58.717 C 192.125 62.807,201.588 56.749,198.074 49.814 C 197.170 48.032,192.295 44.500,190.738 44.500 C 189.857 44.500,186.055 42.154,185.528 41.285 C 182.988 37.102,190.526 34.930,193.298 39.047 C 193.835 39.845,194.500 41.514,194.500 42.065 C 194.500 42.644,194.828 42.834,195.825 42.831 C 197.172 42.827,197.105 43.025,197.218 38.743 C 197.350 33.782,197.472 34.143,195.687 34.202 L 194.250 34.250 194.298 34.870 L 194.346 35.490 193.348 34.994 C 191.331 33.994,187.583 33.681,185.385 34.330 M284.960 34.341 C 275.429 36.684,272.527 51.033,280.307 57.349 C 281.099 57.992,282.062 58.561,283.693 59.350 C 287.526 61.203,294.072 59.534,297.575 55.810 C 299.064 54.228,299.034 54.377,298.042 53.430 C 297.052 52.486,296.922 52.494,296.000 53.564 C 293.581 56.372,288.665 57.719,286.075 56.283 C 279.853 52.833,280.309 39.358,286.723 37.142 C 290.313 35.901,294.500 38.706,294.500 42.351 C 294.500 42.587,294.690 42.648,295.564 42.694 C 297.337 42.787,297.178 43.218,297.128 38.446 L 297.083 34.250 295.635 34.202 L 294.186 34.154 294.135 34.807 L 294.083 35.460 293.048 34.985 C 290.806 33.957,287.571 33.699,284.960 34.341 M356.083 34.322 C 350.082 36.099,348.879 43.131,353.921 46.968 C 354.969 47.766,358.787 49.777,359.833 50.082 C 364.522 51.452,365.923 55.042,362.434 56.749 C 359.183 58.340,354.796 55.819,354.098 51.958 L 353.985 51.333 352.659 51.333 L 351.333 51.333 351.333 55.583 L 351.333 59.833 352.833 59.833 L 354.333 59.833 354.333 59.162 L 354.333 58.491 354.792 58.728 C 360.759 61.814,368.580 59.162,369.339 53.796 C 369.898 49.835,367.645 47.160,361.583 44.588 C 355.750 42.114,354.103 39.730,356.770 37.619 C 359.613 35.369,364.134 37.545,365.054 41.606 L 365.275 42.583 366.389 42.667 C 367.002 42.712,367.577 42.725,367.668 42.694 C 367.772 42.660,367.833 41.054,367.833 38.403 L 367.833 34.167 366.417 34.167 L 365.000 34.167 365.000 34.836 L 365.000 35.506 364.125 35.062 C 362.062 34.016,358.288 33.669,356.083 34.322 M106.111 34.611 C 106.050 34.672,106.000 35.347,106.000 36.111 L 106.000 37.500 107.344 37.500 L 108.688 37.500 108.636 46.375 C 108.573 57.024,108.616 56.827,106.375 56.832 C 106.017 56.833,106.000 56.895,106.000 58.167 L 106.000 59.500 111.417 59.500 L 116.833 59.500 116.833 57.983 L 116.833 56.467 115.321 56.525 L 113.808 56.583 113.904 56.104 C 113.957 55.841,114.000 54.322,114.000 52.729 L 114.000 49.833 114.765 49.833 C 115.715 49.833,115.669 49.782,117.945 53.417 C 120.390 57.321,120.954 58.153,121.640 58.875 L 122.234 59.500 125.284 59.500 L 128.333 59.500 128.333 58.185 L 128.333 56.870 127.731 56.757 C 126.480 56.523,125.769 55.774,123.362 52.158 C 122.718 51.190,121.846 50.081,121.425 49.692 L 120.659 48.986 121.288 48.733 C 128.650 45.773,128.309 36.885,120.759 34.923 C 119.149 34.505,106.487 34.235,106.111 34.611 M238.611 34.611 C 238.550 34.672,238.500 35.347,238.500 36.111 L 238.500 37.500 239.794 37.500 L 241.088 37.500 241.039 46.125 C 240.979 56.910,241.042 56.515,239.334 56.750 L 238.500 56.865 238.500 58.182 L 238.500 59.500 243.917 59.500 L 249.333 59.500 249.333 57.983 L 249.333 56.467 247.867 56.525 L 246.400 56.583 246.374 53.208 L 246.349 49.833 247.104 49.833 C 248.137 49.833,248.350 50.078,250.925 54.231 C 252.112 56.146,253.447 58.115,253.892 58.606 L 254.700 59.500 257.767 59.500 L 260.833 59.500 260.833 58.167 C 260.833 56.907,260.813 56.833,260.469 56.833 C 259.257 56.833,258.352 55.946,256.030 52.479 C 255.198 51.237,254.212 49.945,253.840 49.609 L 253.164 48.998 254.540 48.360 C 261.234 45.254,260.262 36.679,253.010 34.854 C 251.598 34.499,238.937 34.285,238.611 34.611 M262.780 34.609 C 262.718 34.671,262.667 35.347,262.667 36.111 L 262.667 37.500 264.023 37.500 L 265.379 37.500 265.273 38.273 C 265.214 38.699,265.167 42.780,265.167 47.344 L 265.167 55.641 264.748 56.138 C 264.427 56.520,264.136 56.662,263.498 56.750 L 262.667 56.865 262.667 58.185 L 262.667 59.505 267.875 59.461 L 273.083 59.417 273.132 57.945 L 273.180 56.474 271.882 56.529 L 270.583 56.583 270.626 51.167 C 270.649 48.188,270.686 44.045,270.709 41.962 L 270.750 38.174 271.200 37.724 C 271.493 37.431,271.899 37.241,272.366 37.179 L 273.083 37.083 273.083 35.833 L 273.083 34.583 267.988 34.539 C 265.186 34.515,262.843 34.546,262.780 34.609 M300.667 36.000 L 300.667 37.500 301.875 37.500 L 303.083 37.500 303.024 46.624 C 302.956 57.114,303.042 56.538,301.500 56.750 L 300.667 56.865 300.667 58.182 L 300.667 59.500 305.833 59.500 L 311.000 59.500 311.000 57.982 L 311.000 56.465 309.708 56.524 L 308.417 56.583 308.464 52.542 L 308.511 48.500 312.909 48.500 C 315.327 48.500,317.429 48.453,317.579 48.395 C 317.827 48.300,317.847 48.626,317.801 52.049 C 317.742 56.374,317.692 56.525,316.237 56.743 L 315.500 56.854 315.500 58.177 L 315.500 59.500 320.667 59.500 L 325.833 59.500 325.833 57.982 L 325.833 56.465 324.542 56.524 L 323.250 56.583 323.290 48.083 C 323.342 37.221,323.312 37.408,325.047 37.212 L 325.833 37.123 325.833 35.812 L 325.833 34.500 320.667 34.500 L 315.500 34.500 315.500 36.000 L 315.500 37.500 316.724 37.500 L 317.947 37.500 317.932 41.499 L 317.917 45.498 313.188 45.499 L 308.459 45.500 308.531 41.958 C 308.617 37.696,308.834 37.167,310.492 37.167 L 311.000 37.167 311.000 35.833 L 311.000 34.500 305.833 34.500 L 300.667 34.500 300.667 36.000 M329.000 36.000 L 329.000 37.500 330.292 37.500 L 331.583 37.500 331.538 46.125 C 331.481 56.901,331.543 56.515,329.834 56.750 L 329.000 56.865 329.000 58.182 L 329.000 59.500 338.500 59.500 L 348.000 59.500 348.000 58.277 C 348.000 57.604,348.049 55.804,348.110 54.277 L 348.219 51.500 346.883 51.500 L 345.547 51.500 345.443 52.499 C 345.125 55.544,343.710 56.500,339.521 56.500 L 336.917 56.500 336.878 52.250 L 336.840 48.000 338.162 48.000 C 340.214 48.000,340.781 48.427,340.954 50.098 L 341.047 51.000 342.357 51.000 L 343.667 51.000 343.667 46.583 L 343.667 42.167 342.167 42.167 L 340.667 42.167 340.667 43.667 L 340.667 45.167 338.833 45.167 L 337.000 45.167 337.000 41.922 C 337.000 37.299,337.089 37.167,340.200 37.167 C 342.979 37.167,344.221 38.167,344.447 40.588 L 344.548 41.667 345.847 41.667 L 347.145 41.667 347.059 38.292 C 347.012 36.435,346.944 34.823,346.908 34.708 C 346.858 34.545,344.914 34.500,337.922 34.500 L 329.000 34.500 329.000 36.000 M77.587 35.662 C 77.032 36.276,77.610 36.833,78.800 36.833 C 80.176 36.833,80.939 36.172,80.300 35.533 C 79.948 35.181,77.936 35.277,77.587 35.662 M74.456 35.921 C 73.484 36.467,72.667 38.543,72.667 40.465 C 72.667 41.322,72.614 41.457,72.047 42.037 L 71.427 42.672 72.076 44.628 C 72.869 47.020,72.872 47.023,73.345 46.181 C 73.556 45.807,73.778 45.500,73.839 45.500 C 73.900 45.500,74.085 45.200,74.250 44.833 C 74.415 44.467,74.612 44.167,74.688 44.167 C 74.887 44.167,75.500 42.753,75.497 42.301 C 75.493 41.659,75.282 41.461,74.907 41.745 C 74.231 42.256,74.091 41.687,74.701 40.911 C 75.090 40.416,75.138 39.870,74.915 38.458 C 74.773 37.557,74.918 37.464,75.500 38.083 C 75.968 38.581,77.271 38.689,77.442 38.244 C 77.537 37.996,77.017 36.852,76.491 36.154 C 76.148 35.699,75.070 35.576,74.456 35.921 M78.792 37.385 C 77.850 37.551,77.833 37.564,77.833 38.110 L 77.833 38.667 78.792 38.664 C 80.262 38.661,80.500 38.557,80.500 37.915 C 80.500 37.421,80.227 37.111,79.861 37.191 C 79.800 37.204,79.319 37.291,78.792 37.385 M118.674 37.720 C 120.659 38.662,121.458 41.533,120.504 44.296 C 119.836 46.230,117.481 47.396,114.895 47.073 L 113.985 46.960 114.034 42.580 C 114.087 37.834,114.105 37.744,115.083 37.314 C 115.728 37.031,117.690 37.252,118.674 37.720 M250.472 37.424 C 252.809 38.118,253.928 41.085,253.025 44.191 C 252.448 46.174,250.051 47.378,247.300 47.066 L 246.304 46.954 246.373 42.852 C 246.449 38.286,246.545 37.777,247.397 37.406 C 248.095 37.102,249.415 37.110,250.472 37.424 M38.500 37.488 C 38.315 37.617,38.511 37.662,39.261 37.664 C 40.557 37.667,41.708 38.014,43.490 38.938 L 44.917 39.677 44.121 38.928 C 42.771 37.657,39.474 36.812,38.500 37.488 M223.000 37.823 C 220.067 38.718,218.444 41.091,218.427 44.509 L 218.417 46.601 219.046 47.875 C 220.038 49.880,221.309 50.803,223.581 51.166 C 229.572 52.123,233.220 46.016,230.071 40.300 C 229.021 38.393,225.347 37.106,223.000 37.823 M56.375 38.394 C 55.594 38.758,55.435 39.167,56.075 39.167 C 56.691 39.167,57.333 38.818,57.333 38.483 C 57.333 38.044,57.160 38.028,56.375 38.394 M206.166 38.792 C 206.165 39.227,206.117 40.202,206.058 40.958 L 205.951 42.333 206.711 42.333 L 207.472 42.333 207.654 41.487 C 207.965 40.036,208.551 39.500,209.828 39.500 L 210.333 39.500 210.333 44.130 C 210.333 49.077,210.267 49.500,209.491 49.500 C 209.218 49.500,209.167 49.618,209.167 50.250 L 209.167 51.000 211.917 51.000 L 214.667 51.000 214.667 50.167 L 214.667 49.333 213.958 49.333 L 213.250 49.334 213.297 44.417 L 213.343 39.500 213.911 39.500 C 215.175 39.500,215.840 40.133,215.995 41.486 C 216.083 42.250,216.083 42.250,216.792 42.301 L 217.500 42.352 217.500 40.176 L 217.500 38.000 211.833 38.000 L 206.167 38.000 206.166 38.792 M77.375 39.454 C 76.799 39.525,76.673 39.826,77.077 40.162 C 77.456 40.476,79.880 40.597,80.108 40.313 C 80.857 39.380,80.041 39.123,77.375 39.454 M226.112 39.632 C 228.627 40.988,228.854 47.442,226.448 49.185 C 223.472 51.341,220.392 46.497,221.766 41.822 C 222.397 39.676,224.359 38.687,226.112 39.632 M139.588 42.083 C 140.031 43.649,140.753 45.800,141.292 47.167 C 141.564 47.854,141.836 48.623,141.896 48.875 L 142.006 49.333 139.337 49.333 C 137.868 49.333,136.667 49.269,136.667 49.190 C 136.667 49.111,137.151 47.651,137.742 45.945 C 138.334 44.239,138.913 42.384,139.029 41.823 C 139.145 41.262,139.254 40.866,139.272 40.943 C 139.290 41.020,139.432 41.533,139.588 42.083 M77.167 41.502 C 77.167 42.255,79.157 42.826,79.897 42.285 C 80.113 42.127,80.161 41.950,80.077 41.618 C 79.922 41.002,77.167 40.892,77.167 41.502 M77.208 45.628 C 76.602 45.728,76.710 46.333,77.333 46.333 C 77.717 46.333,77.833 46.258,77.833 46.010 C 77.833 45.623,77.707 45.546,77.208 45.628 M38.846 49.656 C 38.839 49.788,38.691 50.050,38.518 50.239 C 37.946 50.862,35.176 55.143,34.656 56.207 C 33.866 57.824,32.809 60.337,32.569 61.167 C 32.450 61.579,32.156 62.554,31.916 63.333 C 31.675 64.112,31.152 65.875,30.752 67.250 C 29.950 70.009,29.220 72.083,28.670 73.160 C 28.208 74.065,28.328 74.194,28.870 73.375 C 29.874 71.857,30.838 69.444,31.748 66.167 C 32.255 64.342,33.322 61.165,33.736 60.250 C 33.985 59.700,34.388 58.800,34.632 58.250 C 34.877 57.700,35.236 56.987,35.430 56.667 C 36.723 54.534,39.045 49.872,38.941 49.617 C 38.887 49.485,38.855 49.498,38.846 49.656 M206.035 55.208 L 206.083 56.583 218.625 56.626 L 231.167 56.669 231.167 55.251 L 231.167 53.833 218.577 53.833 L 205.987 53.833 206.035 55.208 M36.744 61.272 C 36.686 61.535,36.574 61.956,36.495 62.207 C 36.366 62.619,36.397 62.674,36.801 62.758 C 37.048 62.810,37.550 62.920,37.917 63.004 C 40.877 63.676,43.370 64.013,48.978 64.498 C 51.148 64.686,51.167 64.680,51.167 63.896 C 51.167 63.574,51.244 63.166,51.339 62.989 C 51.497 62.694,51.452 62.667,50.798 62.669 C 50.032 62.672,46.622 62.311,43.500 61.897 C 41.736 61.663,41.133 61.567,39.000 61.180 C 36.640 60.752,36.861 60.743,36.744 61.272 M47.793 71.791 C 47.467 72.502,46.846 74.021,46.413 75.167 C 45.980 76.313,45.447 77.713,45.229 78.278 C 45.012 78.844,44.834 79.369,44.835 79.445 C 44.839 79.876,43.345 83.578,42.804 84.475 C 42.454 85.058,42.166 85.583,42.166 85.642 C 42.165 85.701,41.932 85.998,41.648 86.302 C 40.958 87.038,41.079 87.081,42.259 86.520 C 44.584 85.415,45.140 84.746,45.747 82.324 C 45.987 81.366,46.291 80.171,46.421 79.667 C 46.552 79.162,46.772 78.075,46.910 77.250 C 47.280 75.038,47.653 73.284,47.816 72.994 C 47.894 72.853,48.014 72.403,48.082 71.994 C 48.150 71.585,48.278 71.112,48.366 70.944 C 48.455 70.776,48.495 70.607,48.457 70.568 C 48.418 70.529,48.120 71.080,47.793 71.791 M60.333 71.101 C 58.306 72.082,57.101 73.838,55.725 77.816 C 54.686 80.819,54.599 81.611,55.292 81.756 C 55.544 81.809,56.061 81.993,56.441 82.166 C 57.211 82.515,58.613 82.791,59.997 82.867 L 60.910 82.917 61.535 80.667 C 61.879 79.429,62.244 78.192,62.346 77.917 C 62.448 77.642,62.599 77.079,62.682 76.667 C 62.764 76.254,62.899 75.767,62.982 75.583 C 64.423 72.397,62.918 69.850,60.333 71.101 M247.982 71.417 C 241.030 72.803,239.616 83.319,245.960 86.455 L 247.232 87.083 249.575 87.083 C 252.222 87.083,253.089 86.803,254.520 85.482 L 255.200 84.854 254.747 84.260 C 254.259 83.621,253.703 83.488,253.281 83.909 C 250.843 86.348,246.045 85.109,244.779 81.714 C 242.697 76.133,248.323 71.009,252.985 74.240 C 253.782 74.792,254.044 74.778,254.569 74.154 C 255.995 72.458,251.705 70.676,247.982 71.417 M299.167 71.353 C 291.462 72.594,290.608 84.778,298.076 86.925 C 301.617 87.943,307.203 85.857,305.552 84.134 C 304.973 83.530,304.662 83.545,303.775 84.222 C 299.386 87.573,293.814 82.452,295.735 76.833 C 296.837 73.606,300.793 72.321,303.852 74.196 C 304.838 74.800,305.034 74.789,305.564 74.094 C 306.138 73.341,306.123 73.258,305.292 72.652 C 303.491 71.340,301.661 70.952,299.167 71.353 M360.417 71.354 C 352.480 72.338,351.374 84.264,358.982 86.827 C 360.967 87.496,364.479 87.224,366.453 86.248 L 367.667 85.648 367.667 82.491 L 367.667 79.333 365.167 79.333 L 362.667 79.333 362.667 80.133 C 362.667 81.206,362.839 81.333,364.283 81.333 L 365.500 81.333 365.500 82.891 L 365.500 84.449 364.792 84.733 C 359.401 86.888,354.695 82.279,356.692 76.801 C 357.893 73.507,363.198 72.116,365.637 74.455 C 366.086 74.886,366.640 74.702,367.103 73.969 L 367.544 73.270 367.070 72.892 C 366.184 72.186,365.086 71.695,363.799 71.431 C 362.400 71.143,362.156 71.138,360.417 71.354 M108.000 79.167 L 108.000 87.000 109.167 87.000 L 110.333 87.000 110.333 83.750 L 110.333 80.500 113.500 80.500 L 116.667 80.500 116.667 79.500 L 116.667 78.500 113.500 78.500 L 110.333 78.500 110.333 75.917 L 110.333 73.333 114.000 73.333 L 117.667 73.333 117.667 72.333 L 117.667 71.333 112.833 71.333 L 108.000 71.333 108.000 79.167 M122.333 79.167 L 122.333 87.000 123.500 87.000 L 124.667 87.000 124.667 79.167 L 124.667 71.333 123.500 71.333 L 122.333 71.333 122.333 79.167 M130.333 79.145 L 130.333 87.000 131.331 87.000 L 132.329 87.000 132.373 81.220 L 132.417 75.440 134.442 78.095 C 135.556 79.555,136.901 81.313,137.431 82.000 C 137.961 82.688,138.880 83.887,139.473 84.667 C 141.200 86.936,141.275 87.000,142.198 87.000 L 143.000 87.000 143.000 79.167 L 143.000 71.333 142.002 71.333 L 141.004 71.333 140.960 77.098 L 140.917 82.864 138.492 79.723 C 137.158 77.996,135.358 75.653,134.492 74.516 C 132.106 71.384,132.196 71.470,131.198 71.374 L 130.333 71.291 130.333 79.145 M152.589 71.786 C 152.527 72.035,152.340 72.541,152.174 72.911 C 152.008 73.281,151.299 75.046,150.598 76.833 C 149.896 78.621,149.253 80.233,149.168 80.417 C 148.775 81.264,146.667 86.658,146.667 86.816 C 146.667 87.335,148.579 87.220,149.025 86.674 C 149.176 86.489,149.586 85.549,149.936 84.585 L 150.571 82.833 153.957 82.833 C 157.036 82.833,157.352 82.860,157.436 83.125 C 157.487 83.285,157.628 83.679,157.750 84.000 C 157.872 84.321,158.156 85.071,158.382 85.667 C 158.866 86.942,159.235 87.210,160.379 87.114 C 161.477 87.023,161.480 87.069,160.252 84.250 C 160.132 83.975,159.759 83.037,159.422 82.167 C 159.086 81.296,158.712 80.355,158.591 80.076 C 158.470 79.796,158.169 79.046,157.923 78.409 C 157.396 77.047,156.885 75.782,156.581 75.083 C 156.461 74.808,156.160 74.058,155.912 73.417 C 155.076 71.255,155.153 71.333,153.847 71.333 C 152.741 71.333,152.699 71.349,152.589 71.786 M164.667 79.167 L 164.667 87.000 165.748 87.000 L 166.829 87.000 166.873 81.278 L 166.917 75.555 169.333 78.707 C 176.278 87.762,175.594 86.994,176.708 86.997 L 177.500 87.000 177.500 79.167 L 177.500 71.333 176.419 71.333 L 175.338 71.333 175.294 77.042 L 175.250 82.750 174.170 81.333 C 173.576 80.554,172.999 79.804,172.888 79.667 C 172.684 79.415,172.414 79.065,168.781 74.333 C 166.621 71.519,166.426 71.348,165.375 71.339 L 164.667 71.333 164.667 79.167 M186.944 71.679 C 179.289 74.312,180.545 86.503,188.538 87.145 C 191.402 87.374,195.000 86.059,195.000 84.781 C 195.000 83.928,193.725 83.482,192.947 84.064 C 191.556 85.104,189.169 85.458,187.667 84.846 C 182.746 82.840,183.330 74.687,188.479 73.497 C 189.957 73.156,193.333 73.869,193.333 74.523 C 193.333 74.976,194.193 74.618,194.581 74.003 C 195.112 73.162,195.158 73.286,194.038 72.526 C 192.179 71.263,189.190 70.906,186.944 71.679 M199.667 79.167 L 199.667 87.000 200.833 87.000 L 202.000 87.000 202.000 79.167 L 202.000 71.333 200.833 71.333 L 199.667 71.333 199.667 79.167 M212.110 71.458 C 212.040 71.573,209.218 78.602,207.642 82.583 C 207.280 83.500,206.915 84.400,206.833 84.583 C 206.750 84.767,206.497 85.367,206.271 85.917 L 205.860 86.917 206.222 87.025 C 207.742 87.481,208.285 87.104,209.069 85.052 C 209.412 84.152,209.751 83.304,209.823 83.167 C 209.930 82.960,210.522 82.909,213.271 82.872 L 216.590 82.827 217.153 84.288 C 217.463 85.092,217.780 85.821,217.858 85.908 C 217.936 85.995,218.000 86.197,218.000 86.357 C 218.000 86.984,219.195 87.356,220.276 87.066 C 220.669 86.960,220.640 86.681,220.115 85.500 C 219.972 85.179,219.435 83.867,218.920 82.583 C 218.406 81.300,217.847 79.912,217.677 79.500 C 217.507 79.087,217.254 78.450,217.115 78.083 C 216.669 76.914,215.821 74.762,215.670 74.417 C 215.591 74.233,215.280 73.465,214.980 72.708 L 214.434 71.333 213.310 71.333 C 212.692 71.333,212.152 71.390,212.110 71.458 M224.167 79.167 L 224.167 87.000 228.675 87.000 L 233.183 87.000 233.133 86.042 L 233.083 85.083 229.708 85.038 L 226.333 84.993 226.333 78.163 L 226.333 71.333 225.250 71.333 L 224.167 71.333 224.167 79.167 M263.750 71.560 C 257.209 73.753,256.565 83.602,262.771 86.541 C 264.475 87.348,267.984 87.361,269.672 86.566 C 275.508 83.819,275.424 74.585,269.538 71.871 C 268.383 71.339,264.958 71.155,263.750 71.560 M282.099 71.875 C 281.979 72.173,281.503 73.354,281.040 74.500 C 279.770 77.643,279.159 79.171,278.838 80.000 C 278.678 80.412,278.012 82.070,277.357 83.682 C 275.970 87.099,275.996 86.953,276.762 87.097 C 277.686 87.270,278.372 86.998,278.699 86.328 C 279.198 85.305,279.667 84.175,279.667 83.994 C 279.667 83.896,279.781 83.596,279.921 83.325 L 280.175 82.833 283.480 82.833 L 286.785 82.833 287.543 84.792 C 288.401 87.008,288.614 87.220,289.879 87.114 C 290.316 87.078,290.707 87.015,290.748 86.974 C 290.809 86.914,288.390 80.637,287.836 79.417 C 287.650 79.006,287.212 77.905,286.411 75.833 C 286.074 74.962,285.662 73.950,285.496 73.583 C 285.329 73.217,285.056 72.561,284.888 72.126 L 284.583 71.335 283.450 71.334 C 282.327 71.333,282.314 71.338,282.099 71.875 M310.333 79.174 L 310.333 87.015 311.542 86.966 L 312.750 86.917 312.795 83.542 L 312.840 80.167 316.753 80.167 L 320.667 80.167 320.667 83.583 L 320.667 87.000 321.833 87.000 L 323.000 87.000 323.000 79.167 L 323.000 71.333 321.833 71.333 L 320.667 71.333 320.667 74.833 L 320.667 78.333 316.669 78.333 L 312.671 78.333 312.778 75.279 C 312.919 71.212,312.959 71.333,311.497 71.333 L 310.333 71.333 310.333 79.174 M328.778 71.444 C 328.637 71.585,328.637 75.326,328.777 81.875 L 328.887 87.000 329.944 87.000 L 331.000 87.000 331.000 79.167 L 331.000 71.333 329.944 71.333 C 329.364 71.333,328.839 71.383,328.778 71.444 M336.833 79.145 L 336.833 87.000 337.831 87.000 L 338.829 87.000 338.873 81.263 L 338.917 75.526 339.694 76.554 C 340.884 78.130,342.767 80.584,343.055 80.935 C 343.197 81.108,344.141 82.337,345.154 83.667 C 346.166 84.996,347.168 86.303,347.380 86.571 C 347.710 86.987,347.885 87.060,348.591 87.071 L 349.417 87.083 349.460 79.200 L 349.503 71.317 348.460 71.367 L 347.417 71.417 347.333 77.167 C 347.287 80.329,347.203 82.804,347.145 82.667 C 347.059 82.462,344.145 78.656,342.168 76.167 C 341.913 75.846,341.190 74.902,340.561 74.070 C 338.600 71.476,338.582 71.459,337.656 71.370 L 336.833 71.291 336.833 79.145 M23.524 72.558 C 22.126 74.046,21.943 80.964,23.258 82.610 C 23.722 83.190,23.926 83.046,23.695 82.303 C 23.601 81.999,23.474 81.431,23.414 81.042 C 23.275 80.148,23.603 80.070,23.767 80.958 C 24.074 82.625,24.727 83.667,25.464 83.667 C 25.785 83.667,25.844 83.606,25.748 83.375 C 25.248 82.172,24.977 80.530,25.313 80.737 C 25.393 80.787,25.544 81.148,25.649 81.539 C 26.008 82.883,26.538 83.745,27.042 83.803 C 27.591 83.866,27.603 83.740,27.167 82.500 C 26.747 81.306,26.720 79.248,27.114 78.422 C 27.554 77.500,27.833 77.661,27.833 78.839 C 27.833 80.444,28.364 81.333,29.322 81.333 C 29.742 81.333,29.743 81.328,29.350 80.178 C 29.176 79.667,28.989 78.830,28.935 78.316 C 28.819 77.219,28.375 76.141,27.676 75.262 C 27.178 74.635,27.041 74.187,26.959 72.917 L 26.917 72.250 25.409 72.203 C 24.000 72.158,23.878 72.181,23.524 72.558 M268.250 73.686 C 271.697 74.955,272.731 80.983,269.967 83.702 C 267.597 86.033,263.084 85.470,261.678 82.667 C 258.998 77.323,263.058 71.775,268.250 73.686 M154.613 76.000 C 154.837 76.596,155.158 77.421,155.326 77.833 C 155.494 78.246,155.761 78.921,155.919 79.333 C 156.177 80.007,156.463 80.697,156.627 81.042 C 156.660 81.110,155.482 81.167,154.010 81.167 C 152.367 81.167,151.333 81.103,151.333 81.003 C 151.333 80.913,151.851 79.532,152.483 77.935 C 153.116 76.339,153.689 74.781,153.758 74.474 L 153.883 73.917 154.045 74.417 C 154.134 74.692,154.389 75.404,154.613 76.000 M214.240 76.750 C 214.761 78.136,215.457 79.887,215.763 80.583 L 215.983 81.083 213.385 81.129 C 211.956 81.155,210.751 81.140,210.707 81.096 C 210.663 81.052,211.060 79.907,211.588 78.550 C 212.117 77.193,212.704 75.611,212.893 75.033 L 213.237 73.983 213.519 74.783 C 213.674 75.223,213.999 76.108,214.240 76.750 M284.750 77.500 C 285.263 78.829,285.792 80.163,285.925 80.464 C 286.058 80.765,286.167 81.046,286.167 81.089 C 286.167 81.132,284.967 81.167,283.500 81.167 C 282.033 81.167,280.833 81.118,280.833 81.058 C 280.833 80.892,282.336 77.015,283.102 75.203 C 283.229 74.902,283.338 74.527,283.344 74.369 C 283.358 73.989,283.612 74.555,284.750 77.500 M32.333 89.833 C 31.183 90.117,29.119 90.450,27.924 90.544 C 27.481 90.579,27.352 90.740,26.651 92.127 C 26.222 92.976,25.781 93.778,25.673 93.910 C 25.437 94.193,26.359 94.711,28.521 95.508 C 30.231 96.138,30.203 96.142,30.712 95.208 C 30.950 94.773,31.290 94.261,31.469 94.070 C 31.647 93.880,31.999 93.398,32.250 93.000 C 32.770 92.176,32.691 92.280,33.913 90.804 C 34.419 90.192,34.833 89.648,34.833 89.596 C 34.833 89.409,33.565 89.529,32.333 89.833 " stroke="none" fill="#fbfbfb" fill-rule="evenodd"></path><path id="path2" d="M65.875 15.623 C 66.402 15.656,67.265 15.656,67.792 15.623 C 68.319 15.590,67.887 15.563,66.833 15.563 C 65.779 15.563,65.348 15.590,65.875 15.623 M76.889 18.500 C 76.889 19.188,76.919 19.469,76.955 19.125 C 76.991 18.781,76.991 18.219,76.955 17.875 C 76.919 17.531,76.889 17.813,76.889 18.500 M77.571 22.167 C 77.571 24.137,77.595 24.944,77.624 23.958 C 77.654 22.973,77.654 21.360,77.624 20.375 C 77.595 19.390,77.571 20.196,77.571 22.167 M55.711 29.453 C 55.964 29.491,56.339 29.490,56.544 29.451 C 56.749 29.411,56.542 29.380,56.083 29.381 C 55.625 29.382,55.457 29.415,55.711 29.453 M49.209 38.250 C 49.211 38.617,49.245 38.747,49.285 38.540 C 49.324 38.332,49.323 38.032,49.281 37.873 C 49.239 37.714,49.207 37.883,49.209 38.250 M78.460 38.785 C 78.668 38.824,78.968 38.823,79.127 38.781 C 79.286 38.739,79.117 38.707,78.750 38.709 C 78.383 38.711,78.253 38.745,78.460 38.785 M47.127 64.451 C 47.334 64.491,47.634 64.490,47.794 64.448 C 47.953 64.406,47.783 64.374,47.417 64.375 C 47.050 64.377,46.920 64.411,47.127 64.451 M79.417 86.928 C 78.949 87.153,78.277 87.330,77.885 87.331 C 77.006 87.334,72.890 89.982,73.444 90.188 C 73.612 90.250,74.330 90.503,75.038 90.750 C 76.725 91.337,77.393 91.843,78.814 93.615 C 80.137 95.262,80.745 95.740,81.829 95.982 C 82.775 96.193,82.776 96.454,81.825 93.578 C 81.372 92.206,81.001 91.036,81.001 90.978 C 81.000 90.801,84.031 91.810,84.340 92.089 C 84.498 92.233,84.790 92.793,84.987 93.335 C 85.434 94.561,85.793 94.845,87.702 95.485 C 89.817 96.195,89.824 96.303,87.517 92.626 C 86.697 91.319,85.887 90.025,85.718 89.750 C 85.359 89.165,81.131 86.493,80.596 86.513 C 80.406 86.520,79.875 86.707,79.417 86.928 M71.863 94.767 C 72.166 95.399,72.427 95.942,72.444 95.973 C 72.501 96.080,73.877 96.345,73.957 96.265 C 74.101 96.122,73.640 94.504,73.358 94.159 C 73.174 93.934,72.792 93.790,72.198 93.721 L 71.312 93.618 71.863 94.767 " stroke="none" fill="#888888" fill-rule="evenodd"></path><path id="path3" d="M75.948 4.671 C 75.888 4.898,75.845 5.308,75.854 5.583 C 75.867 5.982,75.900 5.932,76.017 5.333 C 76.179 4.514,76.126 4.007,75.948 4.671 M73.686 5.778 C 73.675 5.885,73.618 6.110,73.559 6.278 C 73.475 6.515,73.497 6.541,73.658 6.393 C 73.772 6.288,73.829 6.063,73.785 5.893 C 73.741 5.723,73.697 5.671,73.686 5.778 M77.107 7.535 C 77.051 7.745,77.013 8.179,77.023 8.500 C 77.037 8.945,77.073 8.867,77.174 8.167 C 77.314 7.205,77.280 6.889,77.107 7.535 M69.167 8.929 C 69.167 9.042,70.032 9.356,70.115 9.274 C 70.153 9.236,69.955 9.125,69.675 9.028 C 69.395 8.930,69.167 8.886,69.167 8.929 M78.720 15.500 C 78.720 16.096,78.750 16.340,78.787 16.042 C 78.824 15.744,78.824 15.256,78.787 14.958 C 78.750 14.660,78.720 14.904,78.720 15.500 M88.526 14.849 C 88.914 14.962,89.175 15.157,89.245 15.388 C 89.321 15.635,89.385 15.679,89.447 15.525 C 89.582 15.194,89.159 14.852,88.498 14.757 L 87.917 14.672 88.526 14.849 M76.890 16.083 C 76.891 16.817,76.920 17.096,76.956 16.704 C 76.991 16.312,76.990 15.712,76.954 15.371 C 76.919 15.029,76.890 15.350,76.890 16.083 M84.167 15.135 C 84.167 15.394,84.792 15.703,85.134 15.613 C 85.370 15.551,85.364 15.536,85.096 15.519 C 84.920 15.509,84.639 15.376,84.471 15.224 C 84.300 15.069,84.167 15.030,84.167 15.135 M75.539 17.833 C 75.539 18.154,75.573 18.285,75.615 18.125 C 75.657 17.965,75.657 17.702,75.615 17.542 C 75.573 17.381,75.539 17.512,75.539 17.833 M52.712 21.667 C 52.712 22.079,52.745 22.248,52.784 22.042 C 52.824 21.835,52.824 21.498,52.784 21.292 C 52.745 21.085,52.712 21.254,52.712 21.667 M54.728 21.699 C 54.714 22.314,54.736 22.363,54.881 22.042 C 54.988 21.806,54.994 21.539,54.898 21.324 C 54.774 21.046,54.742 21.117,54.728 21.699 M48.261 21.821 C 48.101 21.997,48.006 22.279,48.049 22.446 C 48.122 22.727,48.129 22.726,48.147 22.430 C 48.158 22.254,48.291 21.972,48.442 21.805 C 48.594 21.637,48.681 21.500,48.635 21.500 C 48.589 21.500,48.421 21.644,48.261 21.821 M44.347 22.393 C 44.544 22.563,45.351 22.664,45.254 22.507 C 45.195 22.411,44.951 22.333,44.712 22.333 C 44.473 22.333,44.309 22.360,44.347 22.393 M43.572 23.219 C 43.526 23.340,43.557 23.621,43.642 23.844 C 43.779 24.206,43.794 24.183,43.782 23.625 C 43.766 22.966,43.711 22.858,43.572 23.219 M50.750 24.502 C 51.069 24.637,52.463 24.731,52.319 24.607 C 52.281 24.574,51.837 24.505,51.333 24.453 C 50.763 24.395,50.543 24.413,50.750 24.502 M42.466 24.762 C 42.671 24.906,42.969 24.989,43.128 24.948 C 43.347 24.890,43.329 24.867,43.052 24.853 C 42.851 24.842,42.640 24.758,42.583 24.667 C 42.527 24.575,42.393 24.500,42.286 24.500 C 42.180 24.500,42.261 24.618,42.466 24.762 M41.135 25.083 C 41.219 25.267,41.330 25.529,41.381 25.667 C 41.461 25.883,41.475 25.881,41.487 25.657 C 41.494 25.514,41.383 25.251,41.241 25.074 C 40.986 24.755,40.984 24.755,41.135 25.083 M52.833 28.500 L 52.417 28.633 52.833 28.638 C 53.063 28.640,53.587 28.582,54.000 28.509 L 54.750 28.375 54.000 28.371 C 53.587 28.368,53.063 28.427,52.833 28.500 M50.523 28.858 C 50.215 28.946,49.990 29.042,50.023 29.069 C 50.157 29.181,51.333 28.953,51.333 28.815 C 51.333 28.641,51.265 28.644,50.523 28.858 M53.542 28.948 C 53.702 28.990,53.965 28.990,54.125 28.948 C 54.285 28.906,54.154 28.872,53.833 28.872 C 53.512 28.872,53.381 28.906,53.542 28.948 M42.857 29.500 C 42.857 29.637,42.921 29.900,43.000 30.083 C 43.090 30.293,43.143 30.324,43.143 30.167 C 43.143 30.029,43.079 29.767,43.000 29.583 C 42.910 29.373,42.857 29.342,42.857 29.500 M47.750 29.500 C 47.540 29.590,47.509 29.643,47.667 29.643 C 47.804 29.643,48.067 29.579,48.250 29.500 C 48.460 29.410,48.491 29.357,48.333 29.357 C 48.196 29.357,47.933 29.421,47.750 29.500 M58.375 31.583 C 58.377 31.950,58.411 32.080,58.451 31.873 C 58.491 31.666,58.490 31.366,58.448 31.206 C 58.406 31.047,58.374 31.217,58.375 31.583 M75.042 35.615 C 75.202 35.657,75.465 35.657,75.625 35.615 C 75.785 35.573,75.654 35.539,75.333 35.539 C 75.012 35.539,74.881 35.573,75.042 35.615 M39.667 39.667 C 39.479 39.788,39.563 39.828,40.000 39.828 C 40.437 39.828,40.521 39.788,40.333 39.667 C 40.196 39.578,40.046 39.505,40.000 39.505 C 39.954 39.505,39.804 39.578,39.667 39.667 M62.960 52.785 C 63.168 52.824,63.468 52.823,63.627 52.781 C 63.786 52.739,63.617 52.707,63.250 52.709 C 62.883 52.711,62.753 52.745,62.960 52.785 M48.542 62.448 C 48.702 62.490,48.965 62.490,49.125 62.448 C 49.285 62.406,49.154 62.372,48.833 62.372 C 48.512 62.372,48.381 62.406,48.542 62.448 M46.042 64.448 C 46.202 64.490,46.465 64.490,46.625 64.448 C 46.785 64.406,46.654 64.372,46.333 64.372 C 46.012 64.372,45.881 64.406,46.042 64.448 M64.539 73.000 C 64.539 73.321,64.573 73.452,64.615 73.292 C 64.657 73.131,64.657 72.869,64.615 72.708 C 64.573 72.548,64.539 72.679,64.539 73.000 M22.224 78.583 C 22.224 79.317,22.254 79.596,22.289 79.204 C 22.324 78.812,22.324 78.212,22.288 77.871 C 22.252 77.529,22.223 77.850,22.224 78.583 M2.042 82.083 C 2.044 82.450,2.078 82.580,2.118 82.373 C 2.158 82.166,2.156 81.866,2.115 81.706 C 2.073 81.547,2.040 81.717,2.042 82.083 M39.833 88.833 C 39.498 88.941,39.482 88.968,39.750 88.972 C 39.933 88.974,40.233 88.912,40.417 88.833 C 40.841 88.651,40.403 88.651,39.833 88.833 " stroke="none" fill="#7c7474" fill-rule="evenodd"></path><path id="path4" d="M77.191 8.583 C 77.175 8.767,77.115 9.104,77.058 9.333 C 76.979 9.654,77.001 9.707,77.156 9.563 C 77.268 9.459,77.327 9.126,77.289 8.813 C 77.251 8.503,77.207 8.400,77.191 8.583 M77.396 14.000 C 77.396 15.054,77.423 15.485,77.456 14.958 C 77.490 14.431,77.490 13.569,77.456 13.042 C 77.423 12.515,77.396 12.946,77.396 14.000 M77.555 17.583 C 77.555 18.225,77.586 18.467,77.622 18.121 C 77.658 17.775,77.657 17.250,77.620 16.955 C 77.583 16.659,77.554 16.942,77.555 17.583 M76.879 20.333 C 76.879 20.746,76.911 20.915,76.951 20.708 C 76.991 20.502,76.991 20.165,76.951 19.958 C 76.911 19.752,76.879 19.921,76.879 20.333 M54.208 29.615 C 54.369 29.657,54.631 29.657,54.792 29.615 C 54.952 29.573,54.821 29.539,54.500 29.539 C 54.179 29.539,54.048 29.573,54.208 29.615 M56.042 31.615 C 56.202 31.657,56.465 31.657,56.625 31.615 C 56.785 31.573,56.654 31.539,56.333 31.539 C 56.012 31.539,55.881 31.573,56.042 31.615 M49.424 35.591 C 49.360 36.016,49.342 36.398,49.384 36.440 C 49.426 36.481,49.512 36.168,49.576 35.742 C 49.640 35.317,49.658 34.935,49.616 34.894 C 49.574 34.852,49.488 35.166,49.424 35.591 M79.127 35.285 C 79.334 35.324,79.634 35.323,79.794 35.281 C 79.953 35.239,79.783 35.207,79.417 35.209 C 79.050 35.211,78.920 35.245,79.127 35.285 M57.544 36.120 C 57.797 36.158,58.172 36.157,58.377 36.117 C 58.582 36.078,58.375 36.046,57.917 36.048 C 57.458 36.049,57.291 36.081,57.544 36.120 M76.208 38.615 C 76.369 38.657,76.631 38.657,76.792 38.615 C 76.952 38.573,76.821 38.539,76.500 38.539 C 76.179 38.539,76.048 38.573,76.208 38.615 M44.875 62.115 C 45.035 62.157,45.298 62.157,45.458 62.115 C 45.619 62.073,45.487 62.039,45.167 62.039 C 44.846 62.039,44.715 62.073,44.875 62.115 M49.627 62.618 C 49.834 62.658,50.134 62.656,50.294 62.615 C 50.453 62.573,50.283 62.540,49.917 62.542 C 49.550 62.544,49.420 62.578,49.627 62.618 M43.875 64.115 C 44.035 64.157,44.298 64.157,44.458 64.115 C 44.619 64.073,44.487 64.039,44.167 64.039 C 43.846 64.039,43.715 64.073,43.875 64.115 M49.294 64.618 C 49.501 64.658,49.801 64.656,49.960 64.615 C 50.120 64.573,49.950 64.540,49.583 64.542 C 49.217 64.544,49.086 64.578,49.294 64.618 M24.792 72.122 C 25.181 72.157,25.819 72.157,26.208 72.122 C 26.598 72.087,26.279 72.058,25.500 72.058 C 24.721 72.058,24.402 72.087,24.792 72.122 M27.443 77.961 C 27.550 78.029,27.670 78.309,27.710 78.584 C 27.777 79.037,27.786 79.025,27.808 78.458 C 27.828 77.964,27.772 77.834,27.542 77.836 C 27.352 77.838,27.318 77.882,27.443 77.961 " stroke="none" fill="#c8c8c8" fill-rule="evenodd"></path></g></svg>