<svg id="svg" version="1.1" xmlns="http://www.w3.org/2000/svg" xmlns:xlink="http://www.w3.org/1999/xlink" width="400" height="121.21212121212122" viewBox="0, 0, 400,121.21212121212122"><g id="svgg"><path id="path0" d="M77.132 9.167 C 77.070 9.487,76.967 14.523,76.904 20.356 L 76.789 30.962 77.215 30.881 L 77.641 30.799 77.559 21.941 C 77.472 12.527,77.326 8.168,77.132 9.167 M53.333 29.805 C 52.093 30.266,51.839 30.479,51.410 31.415 C 50.646 33.086,50.903 34.598,52.197 36.040 C 52.504 36.383,52.904 36.946,53.085 37.290 C 53.667 38.399,53.816 38.408,55.105 37.406 C 55.946 36.753,56.159 36.660,56.625 36.747 C 57.093 36.835,57.167 36.802,57.167 36.508 C 57.167 36.222,57.273 36.167,57.823 36.167 C 58.702 36.167,58.774 35.971,58.238 35.038 C 57.989 34.605,57.703 34.081,57.601 33.875 C 57.480 33.628,57.331 33.539,57.167 33.613 C 56.375 33.971,54.922 33.561,55.244 33.069 C 55.576 32.563,55.567 32.500,55.167 32.500 C 54.727 32.500,54.744 32.248,55.204 31.926 C 55.616 31.638,56.923 31.573,57.083 31.833 C 57.581 32.639,57.835 30.901,57.389 29.739 C 57.254 29.386,54.333 29.433,53.333 29.805 M47.833 32.450 C 46.644 32.879,46.892 35.373,48.234 36.487 C 48.380 36.608,48.500 36.811,48.500 36.937 C 48.500 37.398,47.846 37.149,47.286 36.475 L 46.711 35.782 46.064 36.255 C 45.477 36.683,44.333 37.774,44.333 37.905 C 44.333 37.934,44.568 38.005,44.855 38.063 C 45.489 38.190,46.765 39.082,48.000 40.264 C 50.767 42.912,51.869 43.500,53.352 43.124 L 54.037 42.950 52.448 42.132 C 49.691 40.714,48.946 39.527,49.328 37.167 C 49.767 34.456,49.818 33.447,49.538 32.970 C 49.206 32.406,48.529 32.199,47.833 32.450 M78.392 35.286 C 77.560 35.391,77.214 35.876,77.577 36.430 C 78.122 37.262,80.489 36.889,80.497 35.970 C 80.504 35.286,79.914 35.095,78.392 35.286 M73.928 36.396 C 73.106 37.280,72.752 38.382,72.591 40.560 C 72.530 41.392,72.444 41.604,72.010 41.991 C 71.353 42.577,71.420 43.002,72.771 46.833 C 72.835 47.014,72.931 46.946,73.120 46.583 C 73.264 46.308,73.436 46.046,73.502 46.000 C 73.647 45.900,74.787 44.140,75.214 43.359 C 75.395 43.027,75.498 42.554,75.467 42.192 C 75.416 41.574,75.406 41.569,74.625 41.790 C 74.232 41.901,74.247 41.488,74.656 40.968 C 75.129 40.366,75.233 39.748,75.000 38.916 C 74.676 37.758,74.882 37.487,75.576 38.160 C 76.786 39.332,77.853 38.539,77.073 37.048 C 76.200 35.381,75.087 35.150,73.928 36.396 M78.708 37.386 C 77.861 37.555,77.833 37.579,77.833 38.121 L 77.833 38.681 79.125 38.632 L 80.417 38.583 80.417 37.917 C 80.417 37.144,80.223 37.084,78.708 37.386 M37.917 37.490 C 37.679 37.599,37.965 37.647,38.917 37.657 C 40.698 37.675,42.944 38.418,44.281 39.431 C 45.112 40.061,45.139 39.904,44.339 39.089 C 42.960 37.684,39.412 36.801,37.917 37.490 M56.292 38.393 C 55.237 38.996,55.632 39.603,56.738 39.078 C 57.175 38.870,57.333 38.690,57.333 38.398 C 57.333 37.921,57.120 37.920,56.292 38.393 M79.417 39.273 C 79.142 39.306,78.444 39.377,77.865 39.431 C 76.553 39.553,76.372 40.149,77.583 40.363 C 79.470 40.696,80.278 40.492,80.372 39.660 C 80.420 39.234,80.265 39.172,79.417 39.273 M77.000 41.396 C 77.000 41.933,77.980 42.500,78.909 42.500 C 79.885 42.500,80.226 42.259,80.138 41.634 C 80.070 41.154,77.000 40.921,77.000 41.396 M77.042 45.610 C 76.927 45.657,76.833 45.838,76.833 46.014 C 76.833 46.398,77.743 46.476,77.886 46.104 C 78.047 45.684,77.562 45.400,77.042 45.610 M37.822 51.127 C 34.854 55.416,33.322 58.434,32.261 62.083 C 32.101 62.633,31.910 63.236,31.838 63.423 C 31.765 63.610,31.466 64.622,31.173 65.673 C 30.123 69.432,29.058 72.518,28.559 73.245 C 28.435 73.426,28.335 73.689,28.337 73.829 C 28.346 74.433,29.952 71.708,30.545 70.083 C 30.837 69.280,32.123 65.179,32.243 64.667 C 32.744 62.516,34.355 58.677,36.018 55.667 C 36.398 54.979,37.023 53.817,37.407 53.083 C 37.791 52.350,38.194 51.600,38.302 51.417 C 38.594 50.925,39.184 49.462,39.118 49.395 C 39.086 49.364,38.503 50.143,37.822 51.127 M302.836 59.958 C 302.838 60.315,302.874 60.361,303.000 60.167 C 303.211 59.841,303.211 59.500,303.000 59.500 C 302.908 59.500,302.834 59.706,302.836 59.958 M36.752 61.110 C 36.700 61.370,36.586 61.803,36.498 62.072 C 36.293 62.703,36.185 62.642,38.367 63.114 C 40.181 63.505,40.814 63.621,43.167 63.989 C 44.175 64.146,47.423 64.444,50.042 64.619 L 51.167 64.694 51.167 64.108 C 51.167 63.785,51.240 63.329,51.329 63.094 C 51.419 62.859,51.437 62.665,51.371 62.664 C 50.790 62.651,47.004 62.304,46.083 62.178 C 45.442 62.091,44.167 61.935,43.250 61.832 C 41.202 61.602,37.782 60.983,37.049 60.711 C 36.932 60.668,36.807 60.836,36.752 61.110 M48.030 71.195 C 47.140 73.077,46.047 75.882,45.152 78.583 C 44.879 79.408,44.587 80.233,44.503 80.417 C 44.419 80.600,44.237 81.100,44.098 81.528 C 43.489 83.409,42.124 85.857,41.178 86.761 L 40.774 87.148 41.345 86.949 C 42.929 86.398,44.979 84.890,45.301 84.040 C 45.766 82.810,46.598 79.363,46.919 77.333 C 47.256 75.200,48.211 71.226,48.533 70.611 C 48.621 70.442,48.657 70.268,48.612 70.223 C 48.566 70.178,48.305 70.615,48.030 71.195 M60.269 71.097 C 58.568 72.000,56.882 74.166,56.186 76.342 C 55.968 77.025,55.574 78.187,55.311 78.925 C 54.671 80.722,54.665 81.624,55.292 81.758 C 55.544 81.812,56.058 82.001,56.434 82.178 C 57.128 82.504,59.501 82.991,60.423 82.997 L 60.928 83.000 61.728 80.208 C 62.168 78.673,62.594 77.192,62.675 76.917 C 63.677 73.526,63.782 72.818,63.416 71.940 C 62.911 70.731,61.613 70.383,60.269 71.097 M23.793 72.292 C 21.916 73.456,21.810 82.006,23.660 82.996 C 23.977 83.166,23.980 83.151,23.743 82.481 C 23.610 82.102,23.506 81.482,23.514 81.104 C 23.527 80.440,23.540 80.459,23.916 81.640 C 24.344 82.991,24.855 83.667,25.446 83.667 C 25.828 83.667,25.988 83.282,25.684 83.094 C 25.510 82.986,25.108 80.836,25.238 80.707 C 25.286 80.658,25.354 80.723,25.390 80.851 C 25.979 82.988,26.481 83.833,27.160 83.833 L 27.631 83.833 27.218 82.542 C 26.738 81.038,26.747 79.510,27.243 78.417 L 27.545 77.750 27.754 79.000 C 28.082 80.972,28.340 81.324,29.458 81.331 C 29.891 81.334,29.923 81.206,29.608 80.745 C 29.485 80.565,29.252 79.704,29.092 78.833 C 28.767 77.062,28.369 76.056,27.621 75.110 C 27.243 74.632,27.098 74.252,27.048 73.610 C 26.917 71.920,26.992 71.999,25.538 72.004 C 24.622 72.008,24.118 72.091,23.793 72.292 M34.417 89.460 C 34.142 89.488,32.964 89.695,31.800 89.920 C 30.636 90.145,29.172 90.377,28.546 90.435 L 27.408 90.541 26.699 91.979 C 26.310 92.770,25.877 93.576,25.739 93.771 C 25.402 94.245,25.736 94.449,28.814 95.650 C 30.116 96.158,30.266 96.121,30.744 95.178 C 30.973 94.727,31.243 94.306,31.344 94.243 C 31.445 94.181,31.798 93.708,32.128 93.192 C 32.458 92.676,32.870 92.103,33.043 91.919 C 33.216 91.734,33.521 91.368,33.720 91.106 C 33.920 90.843,34.300 90.371,34.564 90.058 C 35.109 89.412,35.103 89.390,34.417 89.460 " stroke="none" fill="#e3e3e3" fill-rule="evenodd"></path><path id="path1" d="M67.542 15.456 C 67.977 15.490,68.690 15.490,69.125 15.456 C 69.560 15.422,69.204 15.393,68.333 15.393 C 67.462 15.393,67.106 15.422,67.542 15.456 M85.128 15.454 C 85.428 15.491,85.878 15.490,86.128 15.452 C 86.378 15.414,86.133 15.384,85.583 15.385 C 85.033 15.386,84.828 15.417,85.128 15.454 M51.292 24.784 C 51.498 24.824,51.835 24.824,52.042 24.784 C 52.248 24.745,52.079 24.712,51.667 24.712 C 51.254 24.712,51.085 24.745,51.292 24.784 M43.583 25.000 L 42.917 25.119 43.532 25.143 C 43.870 25.156,44.193 25.092,44.250 25.000 C 44.307 24.908,44.330 24.844,44.302 24.857 C 44.273 24.870,43.950 24.934,43.583 25.000 M57.872 26.333 C 57.872 26.654,57.906 26.785,57.948 26.625 C 57.990 26.465,57.990 26.202,57.948 26.042 C 57.906 25.881,57.872 26.012,57.872 26.333 M55.875 28.119 C 56.127 28.158,56.540 28.158,56.792 28.119 C 57.044 28.081,56.837 28.050,56.333 28.050 C 55.829 28.050,55.623 28.081,55.875 28.119 M138.613 34.702 C 137.693 37.275,136.709 39.982,135.749 42.583 C 135.140 44.233,134.429 46.183,134.168 46.917 C 131.150 55.406,130.574 56.552,129.250 56.696 L 128.750 56.750 128.702 58.125 L 128.653 59.500 132.552 59.500 L 136.451 59.500 136.629 58.423 C 136.927 56.625,136.795 56.417,135.353 56.417 C 134.361 56.417,134.163 56.373,134.225 56.167 C 134.266 56.029,134.503 55.392,134.751 54.750 C 134.999 54.108,135.282 53.312,135.379 52.981 L 135.557 52.378 136.903 52.274 C 137.644 52.216,139.342 52.168,140.677 52.168 L 143.103 52.167 143.402 53.042 C 144.357 55.839,144.310 56.557,143.158 56.751 L 142.500 56.863 142.500 58.181 L 142.500 59.500 147.333 59.500 L 152.167 59.500 152.167 57.980 L 152.167 56.460 151.204 56.530 L 150.241 56.599 149.886 55.341 C 149.574 54.236,148.878 52.380,146.760 47.000 C 146.453 46.221,145.926 44.871,145.589 44.000 C 145.251 43.129,144.840 42.079,144.674 41.667 C 144.508 41.254,144.222 40.542,144.037 40.083 C 143.853 39.625,143.586 38.950,143.445 38.583 C 143.304 38.217,142.850 37.054,142.437 36.000 L 141.686 34.083 140.277 34.035 L 138.869 33.988 138.613 34.702 M162.335 34.355 C 161.038 34.703,159.129 35.616,158.528 36.176 C 158.337 36.354,158.108 36.500,158.020 36.500 C 157.718 36.500,156.025 38.560,155.333 39.770 C 152.365 44.957,152.713 51.674,156.173 55.976 C 156.843 56.809,159.042 58.654,159.376 58.663 C 159.445 58.665,159.873 58.846,160.328 59.065 C 162.030 59.886,166.712 60.247,168.750 59.714 C 169.117 59.618,170.017 59.372,170.750 59.167 C 171.483 58.962,172.346 58.724,172.667 58.638 C 172.987 58.552,173.850 58.430,174.583 58.366 L 175.917 58.250 176.000 54.500 C 176.099 50.031,176.175 49.829,177.833 49.633 C 178.233 49.585,178.252 49.530,178.299 48.292 L 178.347 47.000 173.507 47.000 L 168.667 47.000 168.667 48.521 L 168.667 50.043 169.958 49.968 L 171.250 49.893 171.201 52.958 L 171.152 56.023 170.582 56.261 C 168.448 57.153,164.880 57.099,163.223 56.151 C 159.171 53.833,157.818 45.790,160.567 40.365 C 163.306 34.960,170.840 35.869,172.373 41.791 C 172.626 42.768,172.706 42.828,173.778 42.831 C 175.272 42.835,175.167 43.173,175.167 38.399 L 175.167 34.167 173.667 34.167 L 172.167 34.167 172.167 34.827 L 172.167 35.488 171.375 35.140 C 168.765 33.993,164.926 33.660,162.335 34.355 M185.385 34.330 C 182.112 35.297,180.358 37.452,180.203 40.700 C 180.008 44.788,182.973 47.819,189.530 50.233 C 190.582 50.620,191.668 51.165,192.586 51.767 C 194.396 52.953,193.948 55.682,191.768 56.749 C 188.598 58.299,184.488 56.009,183.471 52.125 L 183.264 51.333 181.963 51.333 L 180.661 51.333 180.705 55.542 L 180.750 59.750 182.198 59.798 L 183.647 59.846 183.698 59.174 C 183.749 58.516,183.758 58.507,184.167 58.717 C 192.125 62.807,201.588 56.749,198.074 49.814 C 197.170 48.032,192.295 44.500,190.738 44.500 C 189.857 44.500,186.055 42.154,185.528 41.285 C 182.988 37.102,190.526 34.930,193.298 39.047 C 193.835 39.845,194.500 41.514,194.500 42.065 C 194.500 42.644,194.828 42.834,195.825 42.831 C 197.172 42.827,197.105 43.025,197.218 38.743 C 197.350 33.782,197.472 34.143,195.687 34.202 L 194.250 34.250 194.298 34.870 L 194.346 35.490 193.348 34.994 C 191.331 33.994,187.583 33.681,185.385 34.330 M284.960 34.341 C 275.429 36.684,272.527 51.033,280.307 57.349 C 281.099 57.992,282.062 58.561,283.693 59.350 C 287.526 61.203,294.072 59.534,297.575 55.810 C 299.064 54.228,299.034 54.377,298.042 53.430 C 297.052 52.486,296.922 52.494,296.000 53.564 C 293.581 56.372,288.665 57.719,286.075 56.283 C 279.853 52.833,280.309 39.358,286.723 37.142 C 290.313 35.901,294.500 38.706,294.500 42.351 C 294.500 42.587,294.690 42.648,295.564 42.694 C 297.337 42.787,297.178 43.218,297.128 38.446 L 297.083 34.250 295.635 34.202 L 294.186 34.154 294.135 34.807 L 294.083 35.460 293.048 34.985 C 290.806 33.957,287.571 33.699,284.960 34.341 M356.083 34.322 C 350.082 36.099,348.879 43.131,353.921 46.968 C 354.969 47.766,358.787 49.777,359.833 50.082 C 364.522 51.452,365.923 55.042,362.434 56.749 C 359.183 58.340,354.796 55.819,354.098 51.958 L 353.985 51.333 352.659 51.333 L 351.333 51.333 351.333 55.583 L 351.333 59.833 352.833 59.833 L 354.333 59.833 354.333 59.162 L 354.333 58.491 354.792 58.728 C 360.759 61.814,368.580 59.162,369.339 53.796 C 369.898 49.835,367.645 47.160,361.583 44.588 C 355.750 42.114,354.103 39.730,356.770 37.619 C 359.613 35.369,364.134 37.545,365.054 41.606 L 365.275 42.583 366.389 42.667 C 367.002 42.712,367.577 42.725,367.668 42.694 C 367.772 42.660,367.833 41.054,367.833 38.403 L 367.833 34.167 366.417 34.167 L 365.000 34.167 365.000 34.836 L 365.000 35.506 364.125 35.062 C 362.062 34.016,358.288 33.669,356.083 34.322 M106.111 34.611 C 106.050 34.672,106.000 35.347,106.000 36.111 L 106.000 37.500 107.344 37.500 L 108.688 37.500 108.636 46.375 C 108.573 57.024,108.616 56.827,106.375 56.832 C 106.017 56.833,106.000 56.895,106.000 58.167 L 106.000 59.500 111.417 59.500 L 116.833 59.500 116.833 57.983 L 116.833 56.467 115.321 56.525 L 113.808 56.583 113.904 56.104 C 113.957 55.841,114.000 54.322,114.000 52.729 L 114.000 49.833 114.765 49.833 C 115.715 49.833,115.669 49.782,117.945 53.417 C 120.390 57.321,120.954 58.153,121.640 58.875 L 122.234 59.500 125.284 59.500 L 128.333 59.500 128.333 58.185 L 128.333 56.870 127.731 56.757 C 126.480 56.523,125.769 55.774,123.362 52.158 C 122.718 51.190,121.846 50.081,121.425 49.692 L 120.659 48.986 121.288 48.733 C 128.650 45.773,128.309 36.885,120.759 34.923 C 119.149 34.505,106.487 34.235,106.111 34.611 M238.611 34.611 C 238.550 34.672,238.500 35.347,238.500 36.111 L 238.500 37.500 239.794 37.500 L 241.088 37.500 241.039 46.125 C 240.979 56.910,241.042 56.515,239.334 56.750 L 238.500 56.865 238.500 58.182 L 238.500 59.500 243.917 59.500 L 249.333 59.500 249.333 57.983 L 249.333 56.467 247.867 56.525 L 246.400 56.583 246.374 53.208 L 246.349 49.833 247.104 49.833 C 248.137 49.833,248.350 50.078,250.925 54.231 C 252.112 56.146,253.447 58.115,253.892 58.606 L 254.700 59.500 257.767 59.500 L 260.833 59.500 260.833 58.167 C 260.833 56.907,260.813 56.833,260.469 56.833 C 259.257 56.833,258.352 55.946,256.030 52.479 C 255.198 51.237,254.212 49.945,253.840 49.609 L 253.164 48.998 254.540 48.360 C 261.234 45.254,260.262 36.679,253.010 34.854 C 251.598 34.499,238.937 34.285,238.611 34.611 M262.780 34.609 C 262.718 34.671,262.667 35.347,262.667 36.111 L 262.667 37.500 264.023 37.500 L 265.379 37.500 265.273 38.273 C 265.214 38.699,265.167 42.780,265.167 47.344 L 265.167 55.641 264.748 56.138 C 264.427 56.520,264.136 56.662,263.498 56.750 L 262.667 56.865 262.667 58.185 L 262.667 59.505 267.875 59.461 L 273.083 59.417 273.132 57.945 L 273.180 56.474 271.882 56.529 L 270.583 56.583 270.626 51.167 C 270.649 48.188,270.686 44.045,270.709 41.962 L 270.750 38.174 271.200 37.724 C 271.493 37.431,271.899 37.241,272.366 37.179 L 273.083 37.083 273.083 35.833 L 273.083 34.583 267.988 34.539 C 265.186 34.515,262.843 34.546,262.780 34.609 M300.667 36.000 L 300.667 37.500 301.875 37.500 L 303.083 37.500 303.024 46.624 C 302.956 57.114,303.042 56.538,301.500 56.750 L 300.667 56.865 300.667 58.182 L 300.667 59.500 305.833 59.500 L 311.000 59.500 311.000 57.982 L 311.000 56.465 309.708 56.524 L 308.417 56.583 308.464 52.542 L 308.511 48.500 312.909 48.500 C 315.327 48.500,317.429 48.453,317.579 48.395 C 317.827 48.300,317.847 48.626,317.801 52.049 C 317.742 56.374,317.692 56.525,316.237 56.743 L 315.500 56.854 315.500 58.177 L 315.500 59.500 320.667 59.500 L 325.833 59.500 325.833 57.982 L 325.833 56.465 324.542 56.524 L 323.250 56.583 323.290 48.083 C 323.342 37.221,323.312 37.408,325.047 37.212 L 325.833 37.123 325.833 35.812 L 325.833 34.500 320.667 34.500 L 315.500 34.500 315.500 36.000 L 315.500 37.500 316.724 37.500 L 317.947 37.500 317.932 41.499 L 317.917 45.498 313.188 45.499 L 308.459 45.500 308.531 41.958 C 308.617 37.696,308.834 37.167,310.492 37.167 L 311.000 37.167 311.000 35.833 L 311.000 34.500 305.833 34.500 L 300.667 34.500 300.667 36.000 M329.000 36.000 L 329.000 37.500 330.292 37.500 L 331.583 37.500 331.538 46.125 C 331.481 56.901,331.543 56.515,329.834 56.750 L 329.000 56.865 329.000 58.182 L 329.000 59.500 338.500 59.500 L 348.000 59.500 348.000 58.277 C 348.000 57.604,348.049 55.804,348.110 54.277 L 348.219 51.500 346.883 51.500 L 345.547 51.500 345.443 52.499 C 345.125 55.544,343.710 56.500,339.521 56.500 L 336.917 56.500 336.878 52.250 L 336.840 48.000 338.162 48.000 C 340.214 48.000,340.781 48.427,340.954 50.098 L 341.047 51.000 342.357 51.000 L 343.667 51.000 343.667 46.583 L 343.667 42.167 342.167 42.167 L 340.667 42.167 340.667 43.667 L 340.667 45.167 338.833 45.167 L 337.000 45.167 337.000 41.922 C 337.000 37.299,337.089 37.167,340.200 37.167 C 342.979 37.167,344.221 38.167,344.447 40.588 L 344.548 41.667 345.847 41.667 L 347.145 41.667 347.059 38.292 C 347.012 36.435,346.944 34.823,346.908 34.708 C 346.858 34.545,344.914 34.500,337.922 34.500 L 329.000 34.500 329.000 36.000 M118.674 37.720 C 120.659 38.662,121.458 41.533,120.504 44.296 C 119.836 46.230,117.481 47.396,114.895 47.073 L 113.985 46.960 114.034 42.580 C 114.087 37.834,114.105 37.744,115.083 37.314 C 115.728 37.031,117.690 37.252,118.674 37.720 M250.472 37.424 C 252.809 38.118,253.928 41.085,253.025 44.191 C 252.448 46.174,250.051 47.378,247.300 47.066 L 246.304 46.954 246.373 42.852 C 246.449 38.286,246.545 37.777,247.397 37.406 C 248.095 37.102,249.415 37.110,250.472 37.424 M223.000 37.823 C 220.067 38.718,218.444 41.091,218.427 44.509 L 218.417 46.601 219.046 47.875 C 220.038 49.880,221.309 50.803,223.581 51.166 C 229.572 52.123,233.220 46.016,230.071 40.300 C 229.021 38.393,225.347 37.106,223.000 37.823 M206.166 38.792 C 206.165 39.227,206.117 40.202,206.058 40.958 L 205.951 42.333 206.711 42.333 L 207.472 42.333 207.654 41.487 C 207.965 40.036,208.551 39.500,209.828 39.500 L 210.333 39.500 210.333 44.130 C 210.333 49.077,210.267 49.500,209.491 49.500 C 209.218 49.500,209.167 49.618,209.167 50.250 L 209.167 51.000 211.917 51.000 L 214.667 51.000 214.667 50.167 L 214.667 49.333 213.958 49.333 L 213.250 49.334 213.297 44.417 L 213.343 39.500 213.911 39.500 C 215.175 39.500,215.840 40.133,215.995 41.486 C 216.083 42.250,216.083 42.250,216.792 42.301 L 217.500 42.352 217.500 40.176 L 217.500 38.000 211.833 38.000 L 206.167 38.000 206.166 38.792 M226.112 39.632 C 228.627 40.988,228.854 47.442,226.448 49.185 C 223.472 51.341,220.392 46.497,221.766 41.822 C 222.397 39.676,224.359 38.687,226.112 39.632 M139.588 42.083 C 140.031 43.649,140.753 45.800,141.292 47.167 C 141.564 47.854,141.836 48.623,141.896 48.875 L 142.006 49.333 139.337 49.333 C 137.868 49.333,136.667 49.269,136.667 49.190 C 136.667 49.111,137.151 47.651,137.742 45.945 C 138.334 44.239,138.913 42.384,139.029 41.823 C 139.145 41.262,139.254 40.866,139.272 40.943 C 139.290 41.020,139.432 41.533,139.588 42.083 M206.035 55.208 L 206.083 56.583 218.625 56.626 L 231.167 56.669 231.167 55.251 L 231.167 53.833 218.577 53.833 L 205.987 53.833 206.035 55.208 M247.982 71.417 C 241.030 72.803,239.616 83.319,245.960 86.455 L 247.232 87.083 249.575 87.083 C 252.222 87.083,253.089 86.803,254.520 85.482 L 255.200 84.854 254.747 84.260 C 254.259 83.621,253.703 83.488,253.281 83.909 C 250.843 86.348,246.045 85.109,244.779 81.714 C 242.697 76.133,248.323 71.009,252.985 74.240 C 253.782 74.792,254.044 74.778,254.569 74.154 C 255.995 72.458,251.705 70.676,247.982 71.417 M299.167 71.353 C 291.462 72.594,290.608 84.778,298.076 86.925 C 301.617 87.943,307.203 85.857,305.552 84.134 C 304.973 83.530,304.662 83.545,303.775 84.222 C 299.386 87.573,293.814 82.452,295.735 76.833 C 296.837 73.606,300.793 72.321,303.852 74.196 C 304.838 74.800,305.034 74.789,305.564 74.094 C 306.138 73.341,306.123 73.258,305.292 72.652 C 303.491 71.340,301.661 70.952,299.167 71.353 M360.417 71.354 C 352.480 72.338,351.374 84.264,358.982 86.827 C 360.967 87.496,364.479 87.224,366.453 86.248 L 367.667 85.648 367.667 82.491 L 367.667 79.333 365.167 79.333 L 362.667 79.333 362.667 80.133 C 362.667 81.206,362.839 81.333,364.283 81.333 L 365.500 81.333 365.500 82.891 L 365.500 84.449 364.792 84.733 C 359.401 86.888,354.695 82.279,356.692 76.801 C 357.893 73.507,363.198 72.116,365.637 74.455 C 366.086 74.886,366.640 74.702,367.103 73.969 L 367.544 73.270 367.070 72.892 C 366.184 72.186,365.086 71.695,363.799 71.431 C 362.400 71.143,362.156 71.138,360.417 71.354 M108.000 79.167 L 108.000 87.000 109.167 87.000 L 110.333 87.000 110.333 83.750 L 110.333 80.500 113.500 80.500 L 116.667 80.500 116.667 79.500 L 116.667 78.500 113.500 78.500 L 110.333 78.500 110.333 75.917 L 110.333 73.333 114.000 73.333 L 117.667 73.333 117.667 72.333 L 117.667 71.333 112.833 71.333 L 108.000 71.333 108.000 79.167 M122.333 79.167 L 122.333 87.000 123.500 87.000 L 124.667 87.000 124.667 79.167 L 124.667 71.333 123.500 71.333 L 122.333 71.333 122.333 79.167 M130.333 79.145 L 130.333 87.000 131.331 87.000 L 132.329 87.000 132.373 81.220 L 132.417 75.440 134.442 78.095 C 135.556 79.555,136.901 81.313,137.431 82.000 C 137.961 82.688,138.880 83.887,139.473 84.667 C 141.200 86.936,141.275 87.000,142.198 87.000 L 143.000 87.000 143.000 79.167 L 143.000 71.333 142.002 71.333 L 141.004 71.333 140.960 77.098 L 140.917 82.864 138.492 79.723 C 137.158 77.996,135.358 75.653,134.492 74.516 C 132.106 71.384,132.196 71.470,131.198 71.374 L 130.333 71.291 130.333 79.145 M152.589 71.786 C 152.527 72.035,152.340 72.541,152.174 72.911 C 152.008 73.281,151.299 75.046,150.598 76.833 C 149.896 78.621,149.253 80.233,149.168 80.417 C 148.775 81.264,146.667 86.658,146.667 86.816 C 146.667 87.335,148.579 87.220,149.025 86.674 C 149.176 86.489,149.586 85.549,149.936 84.585 L 150.571 82.833 153.957 82.833 C 157.036 82.833,157.352 82.860,157.436 83.125 C 157.487 83.285,157.628 83.679,157.750 84.000 C 157.872 84.321,158.156 85.071,158.382 85.667 C 158.866 86.942,159.235 87.210,160.379 87.114 C 161.477 87.023,161.480 87.069,160.252 84.250 C 160.132 83.975,159.759 83.037,159.422 82.167 C 159.086 81.296,158.712 80.355,158.591 80.076 C 158.470 79.796,158.169 79.046,157.923 78.409 C 157.396 77.047,156.885 75.782,156.581 75.083 C 156.461 74.808,156.160 74.058,155.912 73.417 C 155.076 71.255,155.153 71.333,153.847 71.333 C 152.741 71.333,152.699 71.349,152.589 71.786 M164.667 79.167 L 164.667 87.000 165.748 87.000 L 166.829 87.000 166.873 81.278 L 166.917 75.555 169.333 78.707 C 176.278 87.762,175.594 86.994,176.708 86.997 L 177.500 87.000 177.500 79.167 L 177.500 71.333 176.419 71.333 L 175.338 71.333 175.294 77.042 L 175.250 82.750 174.170 81.333 C 173.576 80.554,172.999 79.804,172.888 79.667 C 172.684 79.415,172.414 79.065,168.781 74.333 C 166.621 71.519,166.426 71.348,165.375 71.339 L 164.667 71.333 164.667 79.167 M186.944 71.679 C 179.289 74.312,180.545 86.503,188.538 87.145 C 191.402 87.374,195.000 86.059,195.000 84.781 C 195.000 83.928,193.725 83.482,192.947 84.064 C 191.556 85.104,189.169 85.458,187.667 84.846 C 182.746 82.840,183.330 74.687,188.479 73.497 C 189.957 73.156,193.333 73.869,193.333 74.523 C 193.333 74.976,194.193 74.618,194.581 74.003 C 195.112 73.162,195.158 73.286,194.038 72.526 C 192.179 71.263,189.190 70.906,186.944 71.679 M199.667 79.167 L 199.667 87.000 200.833 87.000 L 202.000 87.000 202.000 79.167 L 202.000 71.333 200.833 71.333 L 199.667 71.333 199.667 79.167 M212.110 71.458 C 212.040 71.573,209.218 78.602,207.642 82.583 C 207.280 83.500,206.915 84.400,206.833 84.583 C 206.750 84.767,206.497 85.367,206.271 85.917 L 205.860 86.917 206.222 87.025 C 207.742 87.481,208.285 87.104,209.069 85.052 C 209.412 84.152,209.751 83.304,209.823 83.167 C 209.930 82.960,210.522 82.909,213.271 82.872 L 216.590 82.827 217.153 84.288 C 217.463 85.092,217.780 85.821,217.858 85.908 C 217.936 85.995,218.000 86.197,218.000 86.357 C 218.000 86.984,219.195 87.356,220.276 87.066 C 220.669 86.960,220.640 86.681,220.115 85.500 C 219.972 85.179,219.435 83.867,218.920 82.583 C 218.406 81.300,217.847 79.912,217.677 79.500 C 217.507 79.087,217.254 78.450,217.115 78.083 C 216.669 76.914,215.821 74.762,215.670 74.417 C 215.591 74.233,215.280 73.465,214.980 72.708 L 214.434 71.333 213.310 71.333 C 212.692 71.333,212.152 71.390,212.110 71.458 M224.167 79.167 L 224.167 87.000 228.675 87.000 L 233.183 87.000 233.133 86.042 L 233.083 85.083 229.708 85.038 L 226.333 84.993 226.333 78.163 L 226.333 71.333 225.250 71.333 L 224.167 71.333 224.167 79.167 M263.750 71.560 C 257.209 73.753,256.565 83.602,262.771 86.541 C 264.475 87.348,267.984 87.361,269.672 86.566 C 275.508 83.819,275.424 74.585,269.538 71.871 C 268.383 71.339,264.958 71.155,263.750 71.560 M282.099 71.875 C 281.979 72.173,281.503 73.354,281.040 74.500 C 279.770 77.643,279.159 79.171,278.838 80.000 C 278.678 80.412,278.012 82.070,277.357 83.682 C 275.970 87.099,275.996 86.953,276.762 87.097 C 277.686 87.270,278.372 86.998,278.699 86.328 C 279.198 85.305,279.667 84.175,279.667 83.994 C 279.667 83.896,279.781 83.596,279.921 83.325 L 280.175 82.833 283.480 82.833 L 286.785 82.833 287.543 84.792 C 288.401 87.008,288.614 87.220,289.879 87.114 C 290.316 87.078,290.707 87.015,290.748 86.974 C 290.809 86.914,288.390 80.637,287.836 79.417 C 287.650 79.006,287.212 77.905,286.411 75.833 C 286.074 74.962,285.662 73.950,285.496 73.583 C 285.329 73.217,285.056 72.561,284.888 72.126 L 284.583 71.335 283.450 71.334 C 282.327 71.333,282.314 71.338,282.099 71.875 M310.333 79.174 L 310.333 87.015 311.542 86.966 L 312.750 86.917 312.795 83.542 L 312.840 80.167 316.753 80.167 L 320.667 80.167 320.667 83.583 L 320.667 87.000 321.833 87.000 L 323.000 87.000 323.000 79.167 L 323.000 71.333 321.833 71.333 L 320.667 71.333 320.667 74.833 L 320.667 78.333 316.669 78.333 L 312.671 78.333 312.778 75.279 C 312.919 71.212,312.959 71.333,311.497 71.333 L 310.333 71.333 310.333 79.174 M328.778 71.444 C 328.637 71.585,328.637 75.326,328.777 81.875 L 328.887 87.000 329.944 87.000 L 331.000 87.000 331.000 79.167 L 331.000 71.333 329.944 71.333 C 329.364 71.333,328.839 71.383,328.778 71.444 M336.833 79.145 L 336.833 87.000 337.831 87.000 L 338.829 87.000 338.873 81.263 L 338.917 75.526 339.694 76.554 C 340.884 78.130,342.767 80.584,343.055 80.935 C 343.197 81.108,344.141 82.337,345.154 83.667 C 346.166 84.996,347.168 86.303,347.380 86.571 C 347.710 86.987,347.885 87.060,348.591 87.071 L 349.417 87.083 349.460 79.200 L 349.503 71.317 348.460 71.367 L 347.417 71.417 347.333 77.167 C 347.287 80.329,347.203 82.804,347.145 82.667 C 347.059 82.462,344.145 78.656,342.168 76.167 C 341.913 75.846,341.190 74.902,340.561 74.070 C 338.600 71.476,338.582 71.459,337.656 71.370 L 336.833 71.291 336.833 79.145 M268.250 73.686 C 271.697 74.955,272.731 80.983,269.967 83.702 C 267.597 86.033,263.084 85.470,261.678 82.667 C 258.998 77.323,263.058 71.775,268.250 73.686 M154.613 76.000 C 154.837 76.596,155.158 77.421,155.326 77.833 C 155.494 78.246,155.761 78.921,155.919 79.333 C 156.177 80.007,156.463 80.697,156.627 81.042 C 156.660 81.110,155.482 81.167,154.010 81.167 C 152.367 81.167,151.333 81.103,151.333 81.003 C 151.333 80.913,151.851 79.532,152.483 77.935 C 153.116 76.339,153.689 74.781,153.758 74.474 L 153.883 73.917 154.045 74.417 C 154.134 74.692,154.389 75.404,154.613 76.000 M214.240 76.750 C 214.761 78.136,215.457 79.887,215.763 80.583 L 215.983 81.083 213.385 81.129 C 211.956 81.155,210.751 81.140,210.707 81.096 C 210.663 81.052,211.060 79.907,211.588 78.550 C 212.117 77.193,212.704 75.611,212.893 75.033 L 213.237 73.983 213.519 74.783 C 213.674 75.223,213.999 76.108,214.240 76.750 M284.750 77.500 C 285.263 78.829,285.792 80.163,285.925 80.464 C 286.058 80.765,286.167 81.046,286.167 81.089 C 286.167 81.132,284.967 81.167,283.500 81.167 C 282.033 81.167,280.833 81.118,280.833 81.058 C 280.833 80.892,282.336 77.015,283.102 75.203 C 283.229 74.902,283.338 74.527,283.344 74.369 C 283.358 73.989,283.612 74.555,284.750 77.500 " stroke="none" fill="#040404" fill-rule="evenodd"></path><path id="path2" d="M76.637 2.867 C 76.255 3.464,76.151 3.840,76.072 4.909 C 76.031 5.455,75.924 5.976,75.833 6.067 C 75.729 6.171,75.666 8.422,75.665 12.075 C 75.664 15.288,75.593 18.742,75.506 19.750 C 75.419 20.758,75.326 23.693,75.299 26.271 L 75.250 30.958 73.583 30.877 C 72.049 30.801,71.880 30.824,71.455 31.162 C 69.716 32.546,70.668 34.167,73.219 34.167 C 74.649 34.167,75.010 34.560,74.042 35.063 C 72.805 35.706,71.858 37.883,71.839 40.123 C 71.834 40.767,71.772 40.868,71.146 41.263 C 70.769 41.501,69.925 42.078,69.271 42.545 C 67.398 43.882,66.397 44.175,64.390 43.974 C 62.249 43.760,62.061 43.729,61.125 43.433 C 60.690 43.295,60.333 43.232,60.333 43.291 C 60.333 43.351,60.249 43.316,60.146 43.213 C 60.044 43.110,59.856 43.066,59.730 43.114 C 59.603 43.163,59.500 43.127,59.500 43.034 C 59.500 42.942,59.275 42.788,59.000 42.692 C 58.489 42.514,58.397 42.208,58.496 41.023 C 58.519 40.747,58.467 40.668,58.322 40.757 C 58.200 40.832,58.157 40.816,58.218 40.718 C 58.275 40.627,58.244 40.273,58.149 39.931 C 58.024 39.478,58.031 39.247,58.175 39.073 C 58.308 38.913,58.334 38.535,58.257 37.914 C 58.144 37.009,58.151 36.988,58.616 36.826 C 59.525 36.509,59.586 36.126,58.944 34.774 C 58.355 33.533,58.211 32.308,58.310 29.375 L 58.339 28.500 56.846 28.500 C 55.943 28.500,55.308 28.572,55.240 28.683 C 55.178 28.783,54.915 28.834,54.656 28.796 C 54.384 28.756,54.226 28.794,54.282 28.886 C 54.343 28.984,54.017 28.999,53.421 28.924 C 52.697 28.834,52.493 28.853,52.585 29.003 C 52.676 29.150,52.570 29.172,52.188 29.088 C 51.831 29.010,51.667 29.036,51.667 29.173 C 51.667 29.290,51.529 29.336,51.333 29.285 C 50.951 29.185,48.675 29.621,48.401 29.847 C 48.301 29.930,48.175 29.953,48.120 29.898 C 48.021 29.799,45.262 30.507,44.171 30.911 C 43.474 31.170,43.140 31.608,43.480 31.819 C 43.606 31.898,43.658 32.046,43.595 32.148 C 43.532 32.250,43.548 32.333,43.631 32.333 C 43.714 32.333,43.775 32.683,43.766 33.111 C 43.756 33.599,43.828 33.915,43.959 33.959 C 44.075 33.997,44.129 34.092,44.081 34.170 C 44.033 34.248,44.061 34.612,44.143 34.979 C 44.276 35.569,44.248 35.689,43.902 36.014 L 43.510 36.382 41.760 36.025 C 37.143 35.084,32.909 37.774,29.599 43.750 C 29.447 44.025,29.089 44.625,28.805 45.083 C 28.298 45.898,28.089 46.265,27.023 48.199 C 25.788 50.441,25.181 51.722,25.280 51.881 C 25.340 51.979,25.303 52.001,25.192 51.933 C 25.022 51.827,24.968 51.930,25.014 52.273 C 25.022 52.332,24.966 52.425,24.889 52.481 C 24.678 52.636,23.315 55.333,23.448 55.333 C 23.512 55.333,23.447 55.427,23.303 55.542 C 23.160 55.656,22.705 56.387,22.292 57.167 C 21.663 58.354,20.892 59.710,19.781 61.583 C 17.944 64.682,13.825 69.207,11.401 70.791 C 11.226 70.904,10.730 71.228,10.299 71.510 C 9.867 71.791,8.930 72.262,8.216 72.556 C 6.607 73.217,6.456 73.312,6.563 73.589 C 6.610 73.712,6.595 73.835,6.530 73.864 C 6.465 73.893,6.439 74.348,6.471 74.875 C 6.510 75.497,6.593 75.795,6.708 75.725 C 6.811 75.661,6.836 75.694,6.768 75.804 C 6.704 75.908,6.716 76.126,6.795 76.288 C 6.901 76.505,6.830 76.694,6.527 77.000 C 6.300 77.229,6.172 77.316,6.242 77.194 C 6.313 77.072,5.969 77.252,5.477 77.594 C 2.948 79.356,2.133 80.247,2.291 81.075 C 2.341 81.336,2.315 81.508,2.232 81.457 C 2.150 81.407,2.083 81.696,2.083 82.099 C 2.083 82.503,2.146 82.833,2.222 82.833 C 2.298 82.833,2.308 83.068,2.245 83.354 C 2.167 83.713,2.188 83.840,2.314 83.762 C 2.427 83.692,2.460 83.745,2.400 83.900 C 2.166 84.510,4.968 89.000,5.583 89.000 C 6.741 89.000,13.144 82.581,15.890 78.667 C 16.501 77.796,17.059 77.008,17.131 76.917 C 18.551 75.110,23.212 65.982,24.750 62.000 C 25.264 60.671,25.784 59.358,25.907 59.083 C 26.029 58.808,26.185 58.396,26.253 58.167 C 26.321 57.938,26.513 57.450,26.678 57.083 C 27.353 55.593,27.773 54.401,27.700 54.184 C 27.649 54.031,27.695 53.998,27.837 54.086 C 27.985 54.177,28.011 54.152,27.921 54.007 C 27.849 53.891,27.865 53.748,27.957 53.690 C 28.123 53.583,28.750 52.265,29.157 51.167 C 30.720 46.950,33.400 42.424,35.215 40.936 C 36.437 39.935,38.667 39.232,38.667 39.848 C 38.667 39.926,38.556 39.947,38.420 39.895 C 37.709 39.622,35.256 41.583,33.805 43.583 C 33.048 44.628,31.647 47.333,31.765 47.524 C 31.813 47.603,31.766 47.667,31.659 47.667 C 31.552 47.667,31.508 47.779,31.560 47.917 C 31.613 48.054,31.589 48.167,31.508 48.167 C 31.367 48.167,30.925 49.230,30.919 49.583 C 30.918 49.675,30.867 49.788,30.805 49.835 C 30.700 49.915,29.574 52.890,28.483 55.968 C 28.214 56.730,28.044 57.436,28.105 57.536 C 28.169 57.639,28.142 57.671,28.042 57.609 C 27.819 57.471,27.478 58.415,27.619 58.782 C 27.683 58.949,27.656 59.013,27.549 58.947 C 27.447 58.884,27.206 59.299,26.962 59.962 C 26.735 60.579,26.493 61.233,26.425 61.417 C 26.327 61.683,26.338 61.700,26.482 61.500 C 26.595 61.343,26.663 61.324,26.664 61.450 C 26.666 61.560,26.566 61.710,26.443 61.783 C 26.320 61.857,26.010 62.479,25.754 63.167 C 25.498 63.854,24.884 65.375,24.388 66.547 C 23.892 67.719,23.539 68.769,23.604 68.880 C 23.668 68.992,23.657 69.026,23.581 68.957 C 23.399 68.792,22.136 71.478,22.278 71.727 C 22.338 71.831,22.327 71.863,22.254 71.797 C 22.133 71.688,20.589 74.463,20.468 75.006 C 20.440 75.133,20.284 75.387,20.121 75.571 C 19.958 75.755,19.864 76.005,19.911 76.128 C 19.958 76.250,19.935 76.313,19.861 76.267 C 19.737 76.190,18.987 77.528,19.016 77.774 C 19.023 77.832,18.959 77.925,18.874 77.981 C 18.631 78.141,16.449 81.560,16.447 81.784 C 16.445 81.895,16.391 81.952,16.326 81.912 C 16.261 81.872,16.021 82.119,15.794 82.461 C 15.403 83.050,14.976 83.593,13.537 85.333 C 12.613 86.449,11.255 87.892,9.668 89.442 C 8.027 91.046,8.005 90.907,10.083 92.043 C 11.588 92.865,13.613 93.560,14.532 93.570 C 14.870 93.573,15.070 93.623,14.977 93.681 C 14.843 93.764,17.165 93.762,19.385 93.678 C 19.551 93.672,19.638 93.589,19.579 93.493 C 19.510 93.381,19.621 93.357,19.891 93.425 C 20.198 93.502,20.391 93.437,20.609 93.182 C 20.773 92.990,21.046 92.833,21.215 92.833 C 21.676 92.833,22.192 92.508,22.062 92.299 C 22.000 92.198,22.018 92.158,22.104 92.211 C 22.189 92.264,22.445 92.160,22.671 91.980 C 25.886 89.428,27.554 89.211,26.251 91.515 C 26.023 91.919,25.685 92.577,25.500 92.976 C 25.233 93.552,25.104 93.675,24.874 93.575 C 23.917 93.160,22.233 94.159,22.458 95.009 C 22.481 95.096,22.428 95.167,22.340 95.167 C 21.770 95.167,20.869 97.906,21.257 98.460 C 21.455 98.743,21.473 98.906,21.333 99.167 C 21.233 99.354,21.197 99.580,21.252 99.670 C 21.308 99.760,21.274 99.833,21.177 99.833 C 21.079 99.833,21.000 99.943,21.000 100.078 C 21.000 100.212,20.794 100.535,20.542 100.796 C 19.561 101.811,18.561 103.386,18.061 104.705 L 17.538 106.083 16.624 106.333 C 15.483 106.645,10.113 109.729,10.590 109.798 C 10.773 109.825,12.571 109.502,14.586 109.082 C 25.385 106.830,26.225 106.725,34.500 106.592 C 42.964 106.456,44.512 106.330,54.083 105.004 C 55.367 104.826,58.104 104.450,60.167 104.169 C 66.759 103.269,68.368 103.045,79.917 101.420 C 86.150 100.543,92.112 99.695,93.167 99.535 L 95.083 99.244 93.539 98.185 C 91.827 97.012,91.562 96.708,90.830 95.077 C 90.546 94.443,89.947 93.539,89.455 93.001 C 88.976 92.477,88.420 91.719,88.221 91.316 C 88.021 90.913,87.623 90.096,87.335 89.500 C 86.594 87.965,86.220 87.643,83.589 86.267 C 79.815 84.294,78.719 84.112,77.339 85.229 C 75.192 86.966,73.679 87.813,71.805 88.326 C 70.852 88.588,70.484 88.781,70.130 89.206 C 68.595 91.048,68.671 90.989,67.355 91.385 L 66.083 91.767 65.500 92.944 C 64.531 94.901,64.174 95.219,63.452 94.771 C 63.249 94.646,62.671 94.410,62.167 94.249 C 61.663 94.087,61.100 93.894,60.917 93.821 C 60.733 93.747,60.096 93.521,59.500 93.317 C 58.904 93.114,58.330 92.843,58.225 92.715 C 58.071 92.528,58.017 92.525,57.947 92.699 C 57.877 92.872,57.857 92.873,57.846 92.703 C 57.839 92.586,57.946 92.446,58.083 92.394 C 58.226 92.339,58.333 92.090,58.333 91.816 C 58.333 91.550,58.416 91.333,58.518 91.333 C 58.619 91.333,58.661 91.226,58.611 91.094 C 58.560 90.963,58.596 90.829,58.690 90.798 C 58.784 90.766,58.988 90.255,59.142 89.662 L 59.424 88.583 60.195 88.533 C 60.995 88.481,61.607 87.806,61.383 87.223 C 61.336 87.100,61.389 87.000,61.500 87.000 C 61.621 87.000,61.659 86.887,61.596 86.722 C 61.537 86.569,61.548 86.400,61.620 86.347 C 61.920 86.125,62.652 83.451,62.494 83.155 C 62.406 82.991,62.380 82.740,62.435 82.595 C 62.507 82.408,62.435 82.333,62.184 82.333 C 61.751 82.333,61.750 82.232,62.174 80.810 C 62.469 79.818,62.566 79.667,62.905 79.667 C 63.273 79.667,64.072 77.404,64.081 76.333 C 64.082 76.196,64.132 76.008,64.190 75.917 C 64.395 75.599,64.642 74.496,64.487 74.591 C 64.403 74.644,64.333 74.565,64.333 74.417 C 64.333 74.268,64.390 74.182,64.458 74.224 C 64.527 74.267,64.579 73.647,64.575 72.847 C 64.563 70.900,64.199 70.226,62.497 68.998 C 61.509 68.286,60.546 67.826,60.267 67.933 C 60.116 67.991,60.000 67.951,60.000 67.841 C 60.000 67.734,59.925 67.693,59.833 67.750 C 59.742 67.807,59.667 67.783,59.667 67.698 C 59.667 67.528,58.743 67.343,57.362 67.238 C 56.874 67.201,56.390 67.118,56.288 67.055 C 56.185 66.992,55.741 66.959,55.300 66.982 C 54.815 67.008,54.500 66.954,54.500 66.846 C 54.500 66.747,54.421 66.667,54.323 66.667 C 54.226 66.667,54.203 66.760,54.272 66.875 C 54.370 67.038,54.340 67.037,54.136 66.872 C 53.993 66.756,53.748 66.710,53.592 66.770 C 53.402 66.842,53.321 66.802,53.348 66.648 C 53.369 66.521,53.304 66.216,53.203 65.972 C 52.920 65.288,52.926 63.345,53.214 62.583 C 53.890 60.796,54.203 60.116,54.734 59.287 C 55.493 58.100,57.953 53.410,58.207 52.667 C 58.316 52.346,58.411 52.068,58.418 52.048 C 58.425 52.029,58.868 52.128,59.402 52.267 C 59.936 52.407,60.482 52.479,60.615 52.428 C 60.748 52.376,61.014 52.418,61.205 52.520 C 61.396 52.623,62.067 52.702,62.697 52.696 C 63.376 52.689,63.802 52.749,63.744 52.842 C 63.691 52.929,63.858 53.001,64.115 53.002 C 64.373 53.003,64.876 53.052,65.234 53.111 C 65.615 53.174,65.846 53.155,65.791 53.066 C 65.738 52.981,66.115 52.905,66.640 52.895 C 67.945 52.870,72.000 51.401,72.000 50.953 C 72.000 50.877,72.073 50.859,72.162 50.914 C 72.495 51.120,74.100 49.797,73.903 49.478 C 73.854 49.399,73.876 49.333,73.952 49.333 C 74.158 49.333,74.500 47.700,74.500 46.721 C 74.500 46.162,74.577 45.839,74.724 45.783 C 74.847 45.736,75.074 45.431,75.228 45.106 C 75.419 44.703,75.589 44.545,75.759 44.610 C 75.923 44.673,75.955 44.770,75.852 44.894 C 75.766 44.998,75.689 45.140,75.681 45.208 C 75.673 45.277,75.660 45.390,75.652 45.458 C 75.370 47.831,78.019 48.891,79.084 46.831 C 79.354 46.310,79.426 45.423,79.186 45.571 C 78.936 45.726,78.617 44.714,78.758 44.212 C 78.828 43.958,78.868 43.611,78.846 43.440 C 78.821 43.247,78.877 43.174,78.994 43.246 C 79.097 43.310,79.285 43.276,79.412 43.171 C 79.538 43.066,79.775 43.003,79.937 43.032 C 80.315 43.098,80.661 42.440,80.664 41.645 C 80.666 41.313,80.778 40.948,80.915 40.835 C 81.051 40.722,81.122 40.562,81.072 40.481 C 81.021 40.400,81.054 40.333,81.145 40.333 C 81.235 40.333,81.312 40.052,81.316 39.708 C 81.320 39.365,81.370 38.733,81.427 38.305 C 81.484 37.877,81.457 37.393,81.366 37.230 C 81.258 37.038,81.256 36.786,81.361 36.511 C 81.620 35.830,81.387 35.051,80.827 34.720 C 80.009 34.237,80.212 34.056,81.542 34.085 C 83.399 34.124,84.275 33.143,83.507 31.884 C 82.937 30.949,82.547 30.804,80.766 30.863 L 79.175 30.917 79.088 26.083 C 78.983 20.291,78.923 18.539,78.765 16.667 C 78.700 15.887,78.631 12.850,78.612 9.917 L 78.579 4.583 78.132 3.625 C 77.886 3.098,77.612 2.667,77.523 2.667 C 77.434 2.667,77.253 2.625,77.122 2.575 C 76.984 2.522,76.779 2.645,76.637 2.867 M84.680 2.620 C 84.673 2.731,84.573 2.800,84.458 2.772 C 84.344 2.744,84.306 2.753,84.375 2.791 C 84.652 2.946,84.475 3.118,84.083 3.075 C 83.853 3.050,83.702 3.089,83.747 3.162 C 83.793 3.236,83.718 3.388,83.581 3.502 C 83.389 3.661,83.333 3.662,83.333 3.505 C 83.333 3.394,82.782 3.797,82.108 4.400 C 80.981 5.408,80.884 5.548,80.899 6.124 C 80.920 6.880,81.593 7.045,81.927 6.376 C 82.029 6.170,82.163 6.052,82.223 6.112 C 82.323 6.212,82.400 5.931,82.355 5.631 C 82.345 5.566,82.450 5.555,82.587 5.608 C 82.774 5.680,82.809 5.625,82.725 5.394 C 82.664 5.223,82.676 5.140,82.752 5.209 C 82.952 5.391,83.494 4.845,83.388 4.568 C 83.338 4.438,83.398 4.332,83.524 4.330 C 83.976 4.325,84.935 3.010,84.774 2.616 C 84.712 2.464,84.690 2.465,84.680 2.620 M69.887 3.004 C 69.915 3.189,70.308 3.731,70.761 4.207 C 71.213 4.684,71.627 5.226,71.681 5.412 C 71.735 5.598,71.872 5.729,71.985 5.704 C 72.099 5.679,72.152 5.722,72.105 5.799 C 71.969 6.019,72.832 6.858,73.134 6.800 C 73.647 6.701,73.771 5.716,73.330 5.247 C 73.117 5.020,72.919 4.859,72.889 4.889 C 72.859 4.919,72.322 4.431,71.696 3.805 C 70.528 2.638,69.780 2.306,69.887 3.004 M77.589 21.542 C 77.675 28.030,77.659 30.833,77.537 30.833 C 77.440 30.833,77.230 30.884,77.069 30.945 C 76.793 31.051,76.784 30.449,76.884 19.388 C 77.039 2.374,77.348 3.319,77.589 21.542 M65.928 7.994 C 65.704 8.074,65.666 8.147,65.805 8.233 C 65.915 8.301,65.967 8.418,65.921 8.493 C 65.874 8.569,66.100 8.680,66.423 8.740 C 66.745 8.801,66.969 8.916,66.919 8.996 C 66.820 9.157,67.459 9.422,67.792 9.359 C 67.906 9.337,68.000 9.401,68.000 9.503 C 68.000 9.604,68.076 9.640,68.168 9.583 C 68.260 9.526,68.381 9.596,68.436 9.739 C 68.491 9.883,68.678 10.000,68.851 10.000 C 69.025 10.000,69.167 10.075,69.167 10.167 C 69.167 10.258,69.223 10.321,69.292 10.306 C 69.360 10.292,69.627 10.366,69.883 10.472 C 70.283 10.637,70.401 10.616,70.712 10.327 C 71.139 9.929,70.933 9.384,70.386 9.464 C 70.208 9.489,69.780 9.319,69.436 9.086 C 69.092 8.852,68.857 8.737,68.915 8.830 C 69.046 9.042,68.967 9.043,68.417 8.834 C 68.177 8.742,68.023 8.597,68.077 8.511 C 68.132 8.422,67.987 8.388,67.740 8.433 C 67.434 8.488,67.343 8.453,67.429 8.313 C 67.515 8.174,67.444 8.142,67.193 8.208 C 66.995 8.260,66.833 8.230,66.833 8.141 C 66.833 8.053,66.750 8.032,66.648 8.095 C 66.546 8.158,66.415 8.135,66.356 8.044 C 66.298 7.953,66.105 7.931,65.928 7.994 M87.255 8.463 C 87.185 8.646,87.108 8.659,86.937 8.517 C 86.766 8.375,86.661 8.390,86.506 8.576 C 86.394 8.711,86.065 8.814,85.776 8.805 C 85.487 8.796,84.977 8.951,84.643 9.150 C 84.309 9.349,83.934 9.490,83.809 9.464 C 83.661 9.433,83.587 9.574,83.593 9.875 C 83.598 10.127,83.523 10.336,83.426 10.340 C 83.329 10.344,83.467 10.464,83.733 10.608 C 84.174 10.847,84.229 10.846,84.366 10.602 C 84.450 10.453,84.728 10.333,84.990 10.333 C 85.264 10.333,85.506 10.225,85.563 10.076 C 85.618 9.934,85.757 9.830,85.873 9.845 C 86.279 9.898,86.519 9.832,86.432 9.691 C 86.302 9.481,87.154 9.140,87.520 9.256 C 87.721 9.320,87.871 9.262,87.935 9.095 C 87.991 8.951,88.153 8.833,88.296 8.833 C 88.439 8.833,88.507 8.784,88.447 8.725 C 88.387 8.665,88.460 8.528,88.608 8.419 C 88.830 8.257,88.742 8.222,88.113 8.222 C 87.599 8.222,87.317 8.301,87.255 8.463 M68.500 14.355 C 68.500 14.433,68.144 14.486,67.708 14.471 C 66.742 14.440,65.601 14.623,65.534 14.820 C 65.506 14.899,65.338 14.926,65.159 14.880 C 64.898 14.811,64.840 14.873,64.867 15.192 C 64.899 15.583,64.920 15.588,66.075 15.472 C 66.721 15.407,67.915 15.349,68.727 15.344 L 70.204 15.333 70.132 14.842 C 70.093 14.572,70.122 14.389,70.197 14.435 C 70.272 14.482,70.333 14.457,70.333 14.379 C 70.333 14.302,69.921 14.233,69.417 14.226 C 68.912 14.219,68.500 14.277,68.500 14.355 M84.111 14.411 C 83.931 14.934,84.536 15.333,85.509 15.333 C 86.043 15.333,86.527 15.408,86.583 15.500 C 86.640 15.592,87.301 15.659,88.052 15.650 C 88.990 15.639,89.287 15.592,89.000 15.500 C 88.756 15.422,88.697 15.360,88.857 15.350 C 89.008 15.341,89.169 15.235,89.215 15.115 C 89.276 14.956,89.140 14.909,88.715 14.943 C 88.384 14.969,88.032 14.889,87.902 14.759 C 87.776 14.633,87.521 14.569,87.336 14.618 C 87.140 14.669,87.000 14.624,87.000 14.510 C 87.000 14.402,86.922 14.362,86.826 14.421 C 86.730 14.480,86.558 14.450,86.442 14.355 C 86.175 14.133,84.190 14.181,84.111 14.411 M70.496 18.786 C 70.264 19.041,69.964 19.274,69.829 19.302 C 69.694 19.331,69.433 19.510,69.250 19.700 C 69.051 19.907,69.017 19.998,69.167 19.927 C 69.304 19.862,69.267 19.924,69.083 20.065 C 68.900 20.206,68.641 20.418,68.507 20.536 C 68.374 20.654,68.054 20.841,67.797 20.951 C 67.341 21.147,67.031 21.587,67.218 21.774 C 67.402 21.957,68.417 21.917,68.382 21.728 C 68.362 21.624,68.475 21.549,68.632 21.561 C 68.788 21.573,68.899 21.492,68.877 21.381 C 68.854 21.264,68.942 21.219,69.085 21.274 C 69.245 21.335,69.333 21.268,69.333 21.083 C 69.333 20.891,69.420 20.831,69.599 20.900 C 69.776 20.967,69.893 20.890,69.952 20.667 C 70.037 20.341,70.192 20.263,70.638 20.324 C 70.760 20.340,70.898 20.204,70.946 20.022 C 70.994 19.836,71.129 19.726,71.250 19.773 C 71.369 19.819,71.528 19.757,71.603 19.636 C 71.814 19.298,71.850 18.833,71.666 18.833 C 71.575 18.833,71.519 18.741,71.542 18.629 C 71.626 18.217,70.915 18.324,70.496 18.786 M83.068 18.692 C 83.018 18.773,82.921 18.804,82.852 18.762 C 82.783 18.719,82.762 18.924,82.805 19.217 C 82.887 19.775,83.282 20.204,83.609 20.090 C 83.714 20.053,83.845 20.187,83.900 20.387 C 83.984 20.691,84.027 20.709,84.164 20.500 C 84.312 20.275,84.405 20.378,84.353 20.708 C 84.342 20.777,84.390 20.816,84.458 20.796 C 84.527 20.775,84.796 20.958,85.055 21.202 C 85.314 21.446,85.622 21.609,85.739 21.565 C 85.855 21.520,86.077 21.676,86.231 21.911 C 86.467 22.271,86.565 22.310,86.850 22.158 C 87.099 22.024,87.142 21.921,87.012 21.765 C 86.915 21.648,86.874 21.515,86.919 21.470 C 86.965 21.424,86.833 21.244,86.626 21.068 L 86.250 20.750 86.583 21.154 C 86.767 21.376,86.273 20.918,85.485 20.137 C 84.147 18.808,83.306 18.306,83.068 18.692 M57.472 20.451 C 57.380 20.562,57.353 20.730,57.412 20.826 C 57.471 20.922,57.440 21.000,57.343 21.000 C 57.118 21.000,57.112 21.613,57.336 21.752 C 57.429 21.809,57.468 21.918,57.421 21.993 C 57.375 22.068,57.459 22.119,57.609 22.106 C 58.182 22.058,57.976 22.478,57.091 23.161 C 56.585 23.551,56.219 23.949,56.278 24.045 C 56.340 24.145,56.304 24.168,56.192 24.099 C 56.087 24.034,56.000 24.051,56.000 24.137 C 56.000 24.438,54.840 24.282,54.740 23.968 C 54.688 23.806,54.557 23.691,54.448 23.712 C 54.194 23.761,54.271 22.975,54.537 22.810 C 54.849 22.617,54.676 20.719,54.353 20.792 C 54.250 20.815,54.167 20.758,54.167 20.667 C 54.167 20.448,53.566 20.453,53.150 20.676 C 52.794 20.866,52.731 22.670,53.082 22.611 C 53.175 22.596,53.232 22.674,53.210 22.786 C 53.187 22.903,53.275 22.948,53.419 22.893 C 53.555 22.840,53.667 22.881,53.667 22.982 C 53.667 23.084,53.584 23.167,53.482 23.167 C 53.381 23.167,53.338 23.271,53.386 23.398 C 53.435 23.525,53.290 23.789,53.064 23.986 C 52.836 24.184,52.705 24.428,52.770 24.533 C 52.848 24.659,52.794 24.687,52.611 24.617 C 52.458 24.558,52.333 24.583,52.333 24.672 C 52.333 24.761,52.033 24.833,51.667 24.833 C 51.300 24.833,51.000 24.758,51.000 24.667 C 51.000 24.575,50.944 24.509,50.875 24.520 C 50.557 24.570,50.322 24.486,50.405 24.352 C 50.518 24.169,50.094 23.795,49.943 23.946 C 49.722 24.167,49.852 23.406,50.089 23.093 C 50.666 22.329,50.208 21.625,49.103 21.579 C 48.675 21.561,48.355 21.577,48.393 21.615 C 48.430 21.653,48.402 21.946,48.330 22.266 C 48.226 22.725,48.261 22.910,48.493 23.133 C 48.886 23.511,49.015 24.280,48.727 24.519 C 48.602 24.623,48.500 24.811,48.500 24.937 C 48.500 25.063,48.350 25.167,48.167 25.167 C 47.983 25.167,47.852 25.257,47.875 25.367 C 47.898 25.478,47.829 25.572,47.722 25.576 C 47.615 25.580,47.472 25.640,47.403 25.708 C 47.151 25.960,46.575 25.825,46.415 25.477 C 46.324 25.281,46.175 25.118,46.083 25.114 C 45.560 25.092,45.307 23.778,45.791 23.591 C 46.208 23.430,45.686 22.718,45.140 22.702 C 44.867 22.695,44.551 22.611,44.437 22.517 C 44.173 22.298,43.740 22.776,43.774 23.250 C 43.787 23.433,43.806 23.715,43.816 23.875 C 43.825 24.035,43.927 24.148,44.042 24.125 C 44.171 24.099,44.250 24.272,44.250 24.581 C 44.250 25.527,42.902 25.347,41.735 24.245 C 40.822 23.382,40.618 23.322,40.770 23.958 C 40.920 24.585,41.146 25.000,41.339 25.000 C 41.428 25.000,41.501 25.169,41.502 25.375 C 41.506 25.997,41.694 26.503,41.878 26.389 C 41.973 26.330,42.003 26.360,41.944 26.455 C 41.805 26.680,42.135 27.629,42.548 28.192 C 42.727 28.436,42.827 28.709,42.771 28.799 C 42.716 28.889,42.778 29.052,42.910 29.161 C 43.042 29.271,43.200 29.692,43.261 30.097 C 43.370 30.828,43.702 31.083,43.894 30.583 C 43.946 30.446,44.071 30.333,44.171 30.333 C 44.271 30.333,44.299 30.420,44.234 30.526 C 44.094 30.753,44.429 30.582,44.875 30.199 C 45.053 30.046,45.167 30.021,45.167 30.136 C 45.167 30.239,45.279 30.280,45.416 30.227 C 45.553 30.175,45.628 30.073,45.584 30.001 C 45.540 29.929,45.728 29.838,46.002 29.798 C 46.277 29.757,46.500 29.800,46.500 29.894 C 46.500 29.987,46.594 29.944,46.708 29.798 C 46.940 29.502,48.594 29.102,48.873 29.275 C 48.975 29.338,49.003 29.307,48.939 29.202 C 48.861 29.076,49.016 29.051,49.439 29.119 C 49.880 29.191,50.018 29.165,49.933 29.026 C 49.860 28.909,49.932 28.825,50.115 28.812 C 50.281 28.800,50.604 28.761,50.833 28.725 C 51.063 28.689,51.475 28.650,51.750 28.638 C 52.025 28.626,52.298 28.543,52.357 28.453 C 52.418 28.359,53.590 28.279,55.107 28.266 C 57.751 28.243,58.322 28.147,58.031 27.777 C 57.812 27.497,57.649 25.833,57.841 25.833 C 57.929 25.833,58.000 25.698,58.000 25.533 C 58.000 25.368,58.075 25.158,58.167 25.067 C 58.258 24.975,58.379 24.379,58.435 23.742 C 58.490 23.105,58.627 22.471,58.739 22.333 C 59.095 21.896,59.382 20.649,59.175 20.442 C 58.927 20.194,57.680 20.201,57.472 20.451 M56.792 28.119 C 56.540 28.158,56.127 28.158,55.875 28.119 C 55.623 28.081,55.829 28.050,56.333 28.050 C 56.837 28.050,57.044 28.081,56.792 28.119 M57.221 29.542 C 57.708 29.899,57.825 32.000,57.357 32.000 C 57.161 32.000,57.000 31.925,57.000 31.833 C 57.000 31.459,55.570 31.654,55.167 32.083 L 54.775 32.500 55.247 32.500 C 55.710 32.500,55.713 32.506,55.413 32.837 C 54.959 33.339,55.318 33.584,56.498 33.578 C 57.319 33.573,57.508 33.628,57.657 33.911 C 57.755 34.097,58.019 34.550,58.244 34.917 C 58.857 35.918,58.806 36.167,57.984 36.167 C 57.442 36.167,57.284 36.235,57.215 36.500 C 57.146 36.765,56.988 36.833,56.446 36.833 C 55.892 36.833,55.652 36.942,55.170 37.413 C 54.188 38.373,53.648 38.367,53.082 37.391 C 52.825 36.947,52.406 36.343,52.151 36.048 C 50.375 33.995,50.488 31.473,52.417 30.133 C 53.355 29.481,56.594 29.082,57.221 29.542 M49.075 32.497 C 49.781 32.765,49.848 33.246,49.570 36.022 C 49.173 39.996,49.533 40.701,52.750 42.244 L 54.083 42.884 53.583 43.101 C 52.340 43.641,50.747 42.975,48.750 41.080 C 46.834 39.262,45.745 38.410,45.042 38.179 C 44.401 37.969,44.081 37.667,44.500 37.667 C 44.592 37.667,44.667 37.588,44.667 37.493 C 44.667 37.242,45.309 36.632,46.109 36.124 L 46.800 35.684 47.236 36.342 C 47.549 36.815,47.788 37.000,48.086 37.000 C 48.591 37.000,48.624 36.745,48.151 36.492 C 47.685 36.242,47.000 34.654,47.000 33.821 C 47.000 32.653,47.928 32.061,49.075 32.497 M80.300 35.367 C 80.674 35.740,80.542 36.492,80.072 36.671 C 78.559 37.246,76.805 36.527,77.594 35.654 C 78.006 35.200,79.929 34.995,80.300 35.367 M76.204 35.827 C 76.854 36.338,77.626 37.928,77.400 38.290 C 77.101 38.768,76.166 38.748,75.595 38.251 C 74.985 37.721,74.691 37.922,74.997 38.660 C 75.286 39.356,75.129 40.505,74.660 41.140 C 74.204 41.757,74.286 41.924,74.907 41.641 C 76.025 41.131,75.911 42.516,74.687 44.304 C 74.519 44.549,74.056 45.256,73.659 45.875 C 72.751 47.289,72.837 47.327,72.166 45.208 C 71.290 42.443,71.302 42.595,71.918 41.999 C 72.403 41.529,72.467 41.350,72.569 40.197 C 72.866 36.840,74.695 34.640,76.204 35.827 M42.518 37.774 C 43.581 38.276,45.330 39.725,45.123 39.933 C 45.067 39.988,44.773 39.847,44.469 39.618 C 43.920 39.206,43.217 38.858,41.487 38.145 C 40.775 37.852,40.241 37.770,38.972 37.761 C 38.086 37.755,37.387 37.724,37.418 37.693 C 38.113 36.995,40.965 37.040,42.518 37.774 M80.479 37.460 C 80.953 38.346,80.276 38.833,78.572 38.833 C 77.325 38.833,77.470 37.378,78.726 37.289 C 79.198 37.256,79.749 37.214,79.952 37.197 C 80.159 37.180,80.391 37.296,80.479 37.460 M57.342 38.208 C 57.337 38.277,57.333 38.468,57.333 38.633 C 57.333 38.929,56.538 39.333,55.956 39.333 C 55.570 39.333,55.421 39.007,55.689 38.743 C 56.243 38.198,57.369 37.834,57.342 38.208 M80.435 39.700 C 80.293 40.408,80.111 40.497,78.833 40.481 C 76.333 40.448,75.723 39.582,78.030 39.340 C 80.499 39.081,80.557 39.090,80.435 39.700 M40.417 39.667 C 40.479 39.767,40.268 39.829,39.885 39.822 C 39.378 39.812,39.317 39.781,39.583 39.667 C 40.041 39.470,40.295 39.470,40.417 39.667 M80.220 41.519 C 80.393 42.182,80.009 42.500,79.035 42.500 C 77.799 42.500,77.000 42.036,77.000 41.320 C 77.000 40.951,80.122 41.145,80.220 41.519 M77.967 45.938 C 78.019 46.302,77.345 46.630,76.992 46.412 C 76.806 46.297,76.780 45.775,76.952 45.603 C 77.208 45.348,77.916 45.582,77.967 45.938 M38.826 50.433 C 38.368 51.411,37.654 52.765,35.447 56.833 C 33.985 59.529,33.733 60.197,31.419 67.500 C 30.997 68.829,30.588 70.067,30.510 70.250 C 30.431 70.433,30.209 70.939,30.017 71.373 C 29.824 71.808,29.667 72.208,29.667 72.263 C 29.667 72.485,28.257 74.355,28.206 74.201 C 28.176 74.110,28.423 73.446,28.756 72.726 C 29.627 70.843,30.042 69.581,31.266 65.083 C 32.842 59.291,34.703 55.339,37.954 50.877 C 38.438 50.213,38.833 49.609,38.833 49.535 C 38.833 49.461,38.926 49.307,39.040 49.194 C 39.438 48.796,39.348 49.316,38.826 50.433 M38.774 61.003 C 39.769 61.187,41.146 61.449,41.833 61.584 C 42.521 61.719,43.496 61.858,44.000 61.893 C 44.504 61.928,45.629 62.039,46.500 62.140 C 47.371 62.242,48.857 62.410,49.802 62.516 C 51.257 62.677,51.505 62.747,51.419 62.971 C 51.363 63.116,51.273 63.557,51.219 63.951 L 51.121 64.667 50.186 64.662 C 47.530 64.648,43.709 64.220,40.417 63.567 C 39.683 63.422,38.708 63.229,38.250 63.138 C 36.628 62.815,36.327 62.675,36.407 62.279 C 36.448 62.080,36.526 61.635,36.581 61.292 C 36.637 60.948,36.746 60.667,36.824 60.667 C 36.902 60.667,37.779 60.818,38.774 61.003 M48.744 70.292 C 48.210 71.533,47.088 76.145,46.747 78.500 C 46.687 78.912,46.524 79.700,46.384 80.250 C 46.245 80.800,46.116 81.325,46.099 81.417 C 45.562 84.265,44.360 85.986,42.600 86.427 C 42.362 86.487,42.167 86.594,42.167 86.665 C 42.167 86.736,41.998 86.831,41.792 86.876 C 41.585 86.921,41.269 87.019,41.088 87.094 C 40.866 87.186,40.983 86.963,41.447 86.407 C 42.575 85.056,44.382 81.211,44.928 79.000 C 45.030 78.589,45.655 76.775,45.819 76.417 C 45.903 76.233,46.248 75.371,46.586 74.500 C 47.448 72.282,48.526 70.000,48.712 70.000 C 48.798 70.000,48.813 70.131,48.744 70.292 M62.418 70.907 C 64.041 71.585,64.041 72.825,62.416 78.000 C 62.114 78.962,61.657 80.481,61.402 81.375 L 60.938 83.000 60.357 83.000 C 59.439 83.000,56.974 82.493,56.333 82.172 C 56.012 82.012,55.544 81.831,55.292 81.770 C 54.659 81.618,54.672 80.684,55.333 78.917 C 55.608 78.183,55.832 77.450,55.833 77.288 C 55.834 76.719,56.907 74.443,57.658 73.415 C 59.254 71.234,60.999 70.314,62.418 70.907 M26.904 72.375 C 26.946 72.581,27.012 73.087,27.051 73.500 C 27.100 74.031,27.332 74.567,27.844 75.333 C 28.715 76.638,28.964 77.319,29.172 78.962 C 29.260 79.650,29.397 80.296,29.478 80.398 C 29.949 80.989,29.869 81.333,29.260 81.333 C 28.357 81.333,27.955 80.767,27.746 79.197 L 27.575 77.917 27.269 78.485 C 26.737 79.474,26.727 80.785,27.238 82.425 C 27.745 84.051,27.747 84.041,27.029 83.897 C 26.495 83.791,26.509 83.812,25.520 81.667 C 25.348 81.294,25.339 81.321,25.428 81.917 C 25.483 82.283,25.644 82.830,25.786 83.131 C 26.090 83.777,26.007 83.913,25.405 83.762 C 24.750 83.598,24.325 83.026,23.897 81.734 C 23.687 81.101,23.515 80.733,23.515 80.917 C 23.515 81.325,23.869 82.673,24.053 82.958 C 24.388 83.481,23.616 83.153,23.115 82.559 C 21.756 80.948,22.078 73.585,23.559 72.417 C 24.322 71.815,26.783 71.784,26.904 72.375 M52.053 81.878 C 51.997 82.678,51.887 83.333,51.809 83.333 C 51.731 83.333,51.667 83.483,51.667 83.667 C 51.667 83.850,51.587 84.000,51.489 84.000 C 51.389 84.000,51.356 84.141,51.412 84.319 C 51.468 84.495,51.436 84.687,51.340 84.746 C 50.923 85.004,51.136 86.833,51.583 86.833 C 52.126 86.833,52.128 87.218,51.591 88.371 C 51.366 88.855,51.138 89.533,51.083 89.880 C 51.028 90.226,50.919 90.470,50.840 90.421 C 50.762 90.373,50.740 90.495,50.792 90.692 C 50.856 90.937,50.825 91.014,50.695 90.934 C 50.571 90.858,50.539 90.907,50.603 91.075 C 50.658 91.217,50.619 91.333,50.518 91.333 C 50.416 91.333,50.345 91.390,50.359 91.458 C 50.373 91.527,50.261 91.862,50.109 92.203 C 49.957 92.544,49.833 92.938,49.833 93.078 C 49.833 93.218,49.754 93.333,49.657 93.333 C 49.560 93.333,49.523 93.403,49.576 93.489 C 49.663 93.630,49.211 94.800,48.992 95.000 C 48.942 95.046,48.889 95.264,48.875 95.485 C 48.861 95.706,48.769 95.937,48.670 95.998 C 48.572 96.059,48.512 96.365,48.537 96.679 L 48.583 97.250 46.083 98.088 C 42.515 99.283,40.519 100.118,36.478 102.106 L 32.920 103.856 31.877 103.659 C 31.303 103.551,30.833 103.398,30.833 103.320 C 30.833 103.241,30.709 103.225,30.556 103.284 C 30.381 103.351,30.319 103.324,30.390 103.211 C 30.459 103.098,30.383 103.062,30.186 103.113 C 30.013 103.159,29.823 103.117,29.763 103.022 C 29.704 102.926,29.545 102.890,29.410 102.942 C 29.275 102.994,28.975 102.913,28.744 102.761 C 28.513 102.610,28.270 102.519,28.204 102.559 C 28.082 102.633,27.763 102.358,27.693 102.119 C 27.672 102.047,27.751 101.887,27.869 101.764 C 27.987 101.641,28.194 101.380,28.330 101.184 C 28.504 100.934,28.729 100.838,29.087 100.862 C 29.674 100.902,30.000 100.744,30.000 100.421 C 30.000 100.296,30.066 100.169,30.146 100.139 C 30.340 100.065,31.953 97.578,32.093 97.138 C 32.210 96.767,31.955 96.507,31.468 96.503 C 30.710 96.496,31.094 95.585,32.692 93.605 C 33.274 92.883,33.862 92.128,34.000 91.927 C 34.137 91.725,34.658 91.040,35.157 90.405 C 35.656 89.770,36.093 89.213,36.128 89.168 C 36.163 89.123,36.767 89.073,37.471 89.057 C 38.174 89.041,39.109 88.946,39.547 88.845 C 39.985 88.745,40.518 88.707,40.731 88.760 C 40.976 88.822,41.219 88.757,41.391 88.585 C 41.541 88.435,41.727 88.351,41.805 88.399 C 42.650 88.921,46.649 85.548,46.727 84.247 C 46.740 84.037,46.806 83.900,46.875 83.942 C 46.944 83.985,47.001 83.884,47.002 83.718 C 47.003 83.511,47.330 83.266,48.043 82.937 C 49.192 82.408,50.860 81.276,51.489 80.599 C 52.064 79.981,52.170 80.220,52.053 81.878 M82.926 87.676 C 85.581 89.328,85.319 89.057,87.262 92.164 C 89.853 96.307,89.850 96.287,87.688 95.508 C 85.721 94.798,85.555 94.663,84.900 93.224 C 84.530 92.413,84.211 91.946,83.962 91.848 C 83.358 91.613,81.000 90.893,81.000 90.944 C 81.000 91.000,82.507 95.650,82.633 95.982 C 82.703 96.167,82.589 96.190,82.069 96.095 C 80.942 95.888,80.043 95.220,78.838 93.695 C 77.306 91.757,76.617 91.274,74.292 90.509 C 73.673 90.306,73.167 90.114,73.167 90.082 C 73.167 89.698,77.049 87.415,77.901 87.299 C 78.444 87.225,79.270 86.983,79.736 86.762 C 80.202 86.542,80.625 86.355,80.676 86.347 C 80.727 86.340,81.739 86.937,82.926 87.676 M35.000 89.463 C 35.000 89.534,34.494 90.218,33.875 90.982 C 33.256 91.747,32.546 92.675,32.297 93.045 C 32.047 93.415,31.703 93.875,31.533 94.067 C 31.362 94.259,31.011 94.792,30.753 95.250 C 30.495 95.708,30.270 96.103,30.252 96.126 C 30.234 96.150,29.419 95.872,28.440 95.509 C 26.964 94.961,26.308 94.670,25.517 94.212 C 25.481 94.191,25.650 93.874,25.892 93.507 C 26.135 93.140,26.333 92.790,26.333 92.729 C 26.333 92.667,26.569 92.153,26.857 91.586 L 27.381 90.555 30.232 90.103 C 31.800 89.854,33.346 89.587,33.667 89.509 C 34.437 89.322,35.000 89.302,35.000 89.463 M73.371 94.175 C 73.670 94.541,73.997 95.524,73.999 96.063 C 74.000 96.324,73.915 96.358,73.479 96.271 C 73.193 96.214,72.856 96.167,72.731 96.167 C 72.528 96.167,71.333 94.055,71.333 93.696 C 71.333 93.404,73.075 93.814,73.371 94.175 " stroke="none" fill="#241c24" fill-rule="evenodd"></path><path id="path3" d="M84.042 2.610 C 83.927 2.657,83.833 2.776,83.833 2.875 C 83.833 2.974,83.883 3.006,83.943 2.946 C 84.003 2.886,84.153 2.920,84.276 3.022 C 84.441 3.158,84.500 3.158,84.500 3.020 C 84.500 2.918,84.421 2.833,84.323 2.833 C 84.226 2.833,84.193 2.758,84.250 2.667 C 84.361 2.487,84.354 2.484,84.042 2.610 M75.959 4.583 C 75.915 4.813,75.944 5.000,76.023 5.000 C 76.102 5.000,76.167 4.813,76.167 4.583 C 76.167 4.354,76.138 4.167,76.103 4.167 C 76.068 4.167,76.003 4.354,75.959 4.583 M73.686 5.778 C 73.675 5.885,73.618 6.110,73.559 6.278 C 73.475 6.515,73.497 6.541,73.658 6.393 C 73.772 6.288,73.829 6.063,73.785 5.893 C 73.741 5.723,73.697 5.671,73.686 5.778 M77.045 8.167 C 77.045 8.579,77.078 8.748,77.118 8.542 C 77.157 8.335,77.157 7.998,77.118 7.792 C 77.078 7.585,77.045 7.754,77.045 8.167 M65.412 7.841 C 65.286 8.044,65.622 8.501,65.895 8.497 C 65.999 8.496,65.971 8.420,65.833 8.328 C 65.617 8.183,65.627 8.127,65.907 7.913 C 66.224 7.672,66.223 7.667,65.875 7.667 C 65.680 7.667,65.471 7.745,65.412 7.841 M88.495 8.507 C 88.360 8.592,88.325 8.668,88.417 8.676 C 88.508 8.684,88.433 8.755,88.250 8.833 C 87.994 8.944,87.979 8.979,88.188 8.988 C 88.457 9.000,88.945 8.556,88.811 8.422 C 88.772 8.383,88.630 8.421,88.495 8.507 M68.167 8.667 C 68.167 8.758,68.335 8.832,68.542 8.831 C 68.845 8.829,68.869 8.797,68.667 8.667 C 68.344 8.458,68.167 8.458,68.167 8.667 M86.875 9.277 C 86.645 9.370,86.589 9.667,86.801 9.667 C 86.876 9.667,87.082 9.557,87.260 9.422 C 87.589 9.173,87.353 9.084,86.875 9.277 M67.749 9.499 C 67.806 9.590,68.016 9.750,68.218 9.853 L 68.583 10.041 68.215 9.687 C 67.831 9.318,67.573 9.214,67.749 9.499 M83.367 9.533 C 83.257 9.643,83.175 9.887,83.186 10.075 C 83.202 10.356,83.219 10.365,83.282 10.125 C 83.323 9.965,83.415 9.833,83.484 9.833 C 83.554 9.833,83.611 9.721,83.611 9.583 C 83.611 9.283,83.616 9.284,83.367 9.533 M70.634 10.390 C 70.511 10.513,70.300 10.657,70.164 10.710 C 69.956 10.791,69.959 10.809,70.183 10.820 C 70.329 10.827,70.584 10.683,70.750 10.500 C 71.085 10.130,70.987 10.037,70.634 10.390 M78.627 13.083 C 78.674 14.458,78.746 15.621,78.786 15.666 C 78.902 15.796,78.780 11.467,78.655 11.000 C 78.593 10.771,78.581 11.708,78.627 13.083 M84.050 14.776 C 83.880 15.219,84.586 15.672,85.393 15.638 L 86.083 15.608 85.378 15.545 C 84.687 15.482,84.061 14.972,84.267 14.640 C 84.314 14.563,84.309 14.500,84.255 14.500 C 84.200 14.500,84.109 14.624,84.050 14.776 M76.883 15.667 C 76.883 16.171,76.915 16.377,76.953 16.125 C 76.991 15.873,76.991 15.460,76.953 15.208 C 76.915 14.956,76.883 15.162,76.883 15.667 M88.875 14.948 C 89.035 14.990,89.167 15.094,89.167 15.179 C 89.167 15.264,89.035 15.341,88.875 15.350 C 88.685 15.361,88.729 15.410,89.000 15.491 C 89.561 15.659,89.822 15.402,89.408 15.089 C 89.229 14.954,88.971 14.850,88.833 14.858 C 88.658 14.868,88.671 14.895,88.875 14.948 M75.545 18.000 C 75.545 18.412,75.578 18.581,75.618 18.375 C 75.657 18.169,75.657 17.831,75.618 17.625 C 75.578 17.419,75.545 17.587,75.545 18.000 M78.836 19.847 C 78.837 20.527,78.899 21.178,78.972 21.294 C 79.046 21.410,79.075 20.885,79.036 20.128 C 78.948 18.386,78.833 18.224,78.836 19.847 M59.093 21.436 C 58.937 22.060,59.095 22.113,59.305 21.509 C 59.403 21.229,59.420 21.000,59.343 21.000 C 59.266 21.000,59.154 21.196,59.093 21.436 M48.375 21.612 C 47.980 21.888,47.879 22.553,48.164 23.000 C 48.274 23.172,48.294 23.061,48.226 22.641 C 48.107 21.901,48.687 21.385,49.429 21.572 C 49.710 21.642,49.824 21.619,49.754 21.507 C 49.596 21.251,48.806 21.312,48.375 21.612 M67.045 21.732 C 67.107 22.241,67.611 22.468,67.914 22.123 C 68.054 21.964,68.078 21.909,67.967 22.001 C 67.857 22.092,67.650 22.166,67.508 22.164 C 67.281 22.162,67.280 22.142,67.500 22.000 C 67.716 21.860,67.712 21.838,67.472 21.836 C 67.319 21.834,67.152 21.740,67.100 21.625 C 67.048 21.510,67.023 21.559,67.045 21.732 M58.676 22.333 C 58.561 22.597,58.595 23.305,58.717 23.183 C 58.797 23.103,58.828 22.861,58.787 22.644 C 58.746 22.427,58.696 22.287,58.676 22.333 M54.372 23.333 C 54.372 23.654,54.406 23.785,54.448 23.625 C 54.490 23.465,54.490 23.202,54.448 23.042 C 54.406 22.881,54.372 23.012,54.372 23.333 M43.622 23.101 C 43.555 23.168,43.500 23.337,43.500 23.478 C 43.500 23.665,43.549 23.684,43.685 23.548 C 43.787 23.446,43.842 23.276,43.807 23.171 C 43.772 23.065,43.688 23.034,43.622 23.101 M48.632 23.676 C 48.674 23.960,48.591 24.340,48.436 24.578 C 48.129 25.046,48.104 25.167,48.315 25.167 C 48.397 25.167,48.511 24.979,48.568 24.750 C 48.626 24.521,48.734 24.333,48.808 24.333 C 48.966 24.333,48.849 23.363,48.678 23.257 C 48.613 23.217,48.593 23.405,48.632 23.676 M55.058 24.189 C 55.278 24.317,55.418 24.316,55.549 24.184 C 55.684 24.050,55.600 24.001,55.242 24.005 C 54.811 24.010,54.788 24.032,55.058 24.189 M50.500 24.314 C 50.500 24.524,51.249 24.678,52.097 24.643 C 52.527 24.625,52.778 24.535,52.778 24.399 C 52.778 24.246,52.694 24.229,52.483 24.342 C 52.094 24.551,51.225 24.543,50.822 24.327 C 50.627 24.223,50.500 24.218,50.500 24.314 M42.031 24.510 C 42.069 24.624,42.269 24.781,42.475 24.857 C 42.931 25.025,42.806 24.753,42.305 24.485 C 42.041 24.343,41.977 24.349,42.031 24.510 M58.045 26.000 C 58.045 26.412,58.078 26.581,58.118 26.375 C 58.157 26.169,58.157 25.831,58.118 25.625 C 58.078 25.419,58.045 25.587,58.045 26.000 M46.708 25.615 C 46.869 25.657,47.131 25.657,47.292 25.615 C 47.452 25.573,47.321 25.539,47.000 25.539 C 46.679 25.539,46.548 25.573,46.708 25.615 M54.333 28.329 C 54.333 28.423,54.564 28.448,54.875 28.389 C 55.635 28.244,55.659 28.167,54.944 28.167 C 54.608 28.167,54.333 28.240,54.333 28.329 M48.167 29.333 C 48.029 29.422,47.729 29.497,47.500 29.500 C 47.271 29.503,46.971 29.581,46.833 29.673 C 46.640 29.802,46.678 29.825,47.000 29.771 C 48.229 29.564,48.679 29.448,48.762 29.314 C 48.883 29.117,48.481 29.130,48.167 29.333 M45.667 29.990 C 45.667 30.077,45.827 30.117,46.023 30.079 C 46.561 29.975,46.612 29.833,46.111 29.833 C 45.867 29.833,45.667 29.904,45.667 29.990 M49.372 37.167 C 49.372 37.487,49.406 37.619,49.448 37.458 C 49.490 37.298,49.490 37.035,49.448 36.875 C 49.406 36.715,49.372 36.846,49.372 37.167 M39.296 37.289 C 39.688 37.324,40.288 37.324,40.629 37.288 C 40.971 37.252,40.650 37.223,39.917 37.224 C 39.183 37.224,38.904 37.254,39.296 37.289 M74.539 46.333 C 74.539 46.654,74.573 46.785,74.615 46.625 C 74.657 46.465,74.657 46.202,74.615 46.042 C 74.573 45.881,74.539 46.012,74.539 46.333 M48.542 62.448 C 48.702 62.490,48.965 62.490,49.125 62.448 C 49.285 62.406,49.154 62.372,48.833 62.372 C 48.512 62.372,48.381 62.406,48.542 62.448 M64.542 72.917 C 64.544 73.283,64.578 73.414,64.618 73.206 C 64.658 72.999,64.656 72.699,64.615 72.540 C 64.573 72.380,64.540 72.550,64.542 72.917 M22.214 79.083 C 22.216 79.542,22.248 79.709,22.286 79.456 C 22.325 79.203,22.324 78.828,22.284 78.623 C 22.244 78.418,22.213 78.625,22.214 79.083 M2.129 81.114 C 2.090 81.189,2.050 81.587,2.041 82.000 L 2.023 82.750 2.170 81.922 C 2.307 81.144,2.290 80.805,2.129 81.114 M16.377 93.786 C 16.631 93.825,17.006 93.824,17.211 93.784 C 17.416 93.744,17.208 93.713,16.750 93.714 C 16.292 93.716,16.124 93.748,16.377 93.786 " stroke="none" fill="#595858" fill-rule="evenodd"></path><path id="path4" d="M77.214 7.917 C 77.216 8.375,77.248 8.543,77.286 8.289 C 77.325 8.036,77.324 7.661,77.284 7.456 C 77.244 7.251,77.213 7.458,77.214 7.917 M69.127 14.118 C 69.334 14.158,69.634 14.156,69.794 14.115 C 69.953 14.073,69.783 14.040,69.417 14.042 C 69.050 14.044,68.920 14.078,69.127 14.118 M66.034 15.623 C 66.649 15.655,67.699 15.656,68.368 15.624 C 69.036 15.592,68.533 15.566,67.250 15.566 C 65.967 15.565,65.420 15.591,66.034 15.623 M78.705 16.167 C 78.705 16.487,78.740 16.619,78.782 16.458 C 78.823 16.298,78.823 16.035,78.782 15.875 C 78.740 15.715,78.705 15.846,78.705 16.167 M75.539 16.833 C 75.539 17.154,75.573 17.285,75.615 17.125 C 75.657 16.965,75.657 16.702,75.615 16.542 C 75.573 16.381,75.539 16.512,75.539 16.833 M76.895 18.167 C 76.895 19.129,76.923 19.523,76.956 19.042 C 76.990 18.560,76.990 17.773,76.956 17.292 C 76.923 16.810,76.895 17.204,76.895 18.167 M77.571 22.167 C 77.571 24.137,77.595 24.944,77.624 23.958 C 77.654 22.973,77.654 21.360,77.624 20.375 C 77.595 19.390,77.571 20.196,77.571 22.167 M53.542 28.448 C 53.702 28.490,53.965 28.490,54.125 28.448 C 54.285 28.406,54.154 28.372,53.833 28.372 C 53.512 28.372,53.381 28.406,53.542 28.448 M50.750 28.844 C 50.510 28.955,50.622 28.975,51.152 28.917 C 51.556 28.872,51.925 28.798,51.971 28.751 C 52.117 28.605,51.100 28.683,50.750 28.844 M53.542 28.948 C 53.702 28.990,53.965 28.990,54.125 28.948 C 54.285 28.906,54.154 28.872,53.833 28.872 C 53.512 28.872,53.381 28.906,53.542 28.948 M55.711 29.453 C 55.964 29.491,56.339 29.490,56.544 29.451 C 56.749 29.411,56.542 29.380,56.083 29.381 C 55.625 29.382,55.457 29.415,55.711 29.453 M58.385 31.250 C 58.386 31.800,58.417 32.005,58.454 31.705 C 58.491 31.406,58.490 30.956,58.452 30.705 C 58.414 30.455,58.384 30.700,58.385 31.250 M75.042 35.615 C 75.202 35.657,75.465 35.657,75.625 35.615 C 75.785 35.573,75.654 35.539,75.333 35.539 C 75.012 35.539,74.881 35.573,75.042 35.615 M49.212 38.167 C 49.212 38.579,49.245 38.748,49.284 38.542 C 49.324 38.335,49.324 37.998,49.284 37.792 C 49.245 37.585,49.212 37.754,49.212 38.167 M78.460 38.785 C 78.668 38.824,78.968 38.823,79.127 38.781 C 79.286 38.739,79.117 38.707,78.750 38.709 C 78.383 38.711,78.253 38.745,78.460 38.785 M40.750 61.500 C 41.455 61.679,42.060 61.679,41.500 61.500 C 41.271 61.427,40.896 61.368,40.667 61.370 C 40.292 61.372,40.301 61.386,40.750 61.500 M44.875 64.282 C 45.035 64.323,45.298 64.323,45.458 64.282 C 45.619 64.240,45.487 64.205,45.167 64.205 C 44.846 64.205,44.715 64.240,44.875 64.282 M46.795 64.454 C 47.094 64.491,47.544 64.490,47.795 64.452 C 48.045 64.414,47.800 64.384,47.250 64.385 C 46.700 64.386,46.495 64.417,46.795 64.454 M54.958 66.951 C 55.165 66.991,55.502 66.991,55.708 66.951 C 55.915 66.911,55.746 66.879,55.333 66.879 C 54.921 66.879,54.752 66.911,54.958 66.951 M22.205 77.833 C 22.205 78.154,22.240 78.285,22.282 78.125 C 22.323 77.965,22.323 77.702,22.282 77.542 C 22.240 77.381,22.205 77.512,22.205 77.833 M79.605 86.855 C 79.251 87.042,78.540 87.238,78.025 87.291 C 77.191 87.377,74.383 88.980,73.276 90.002 C 73.199 90.073,73.761 90.332,74.526 90.577 C 76.474 91.200,77.444 91.894,78.842 93.666 C 80.081 95.237,80.934 95.878,82.042 96.072 C 82.385 96.132,82.667 96.157,82.667 96.126 C 82.667 96.096,82.292 94.951,81.833 93.583 C 81.375 92.215,81.000 91.039,81.000 90.970 C 81.000 90.901,81.394 90.982,81.875 91.150 C 82.356 91.318,83.087 91.559,83.500 91.686 C 84.202 91.902,84.288 91.995,84.853 93.155 C 85.594 94.679,85.761 94.816,87.672 95.484 C 89.830 96.237,89.831 96.273,87.595 92.725 C 86.738 91.364,85.895 90.025,85.723 89.750 C 85.336 89.131,81.254 86.522,80.667 86.518 C 80.438 86.516,79.960 86.668,79.605 86.855 M71.869 94.809 C 72.159 95.463,72.514 96.030,72.657 96.070 C 74.117 96.474,74.160 96.434,73.749 95.050 C 73.439 94.006,73.253 93.848,72.188 93.721 L 71.341 93.621 71.869 94.809 " stroke="none" fill="#7c7b7c" fill-rule="evenodd"></path></g></svg>