<svg id="svg" version="1.1" xmlns="http://www.w3.org/2000/svg" xmlns:xlink="http://www.w3.org/1999/xlink" width="400" height="121.21212121212122" viewBox="0, 0, 400,121.21212121212122"><g id="svgg"><path id="path0" d="M50.607 39.514 C 49.416 39.923,49.079 40.128,47.556 41.364 C 46.899 41.897,46.198 42.333,45.997 42.333 C 45.649 42.333,44.667 43.208,44.667 43.518 C 44.667 43.700,44.635 43.700,45.293 43.512 C 45.928 43.329,45.925 43.323,45.513 44.032 C 45.337 44.335,44.919 45.408,44.584 46.417 C 44.249 47.425,43.937 48.344,43.890 48.458 C 43.836 48.592,43.955 48.667,44.222 48.667 C 45.295 48.667,45.378 48.936,44.656 50.074 L 44.145 50.879 44.660 50.776 C 45.133 50.682,45.161 50.700,44.998 51.004 C 44.741 51.483,43.295 52.161,41.756 52.524 C 38.463 53.299,37.443 54.236,32.800 60.750 C 29.932 64.775,29.693 65.288,29.496 67.862 C 29.354 69.712,29.251 70.031,28.485 71.000 C 27.857 71.794,27.415 73.216,27.085 75.500 C 26.558 79.155,26.008 82.096,25.394 84.541 C 24.682 87.375,24.673 87.343,26.044 86.862 C 26.616 86.661,27.140 86.497,27.208 86.498 C 27.277 86.499,27.333 87.161,27.333 87.968 C 27.333 89.414,27.340 89.438,27.786 89.595 C 28.215 89.746,28.157 89.792,26.624 90.534 C 23.598 91.997,22.526 92.914,20.902 95.433 L 19.998 96.833 19.170 96.833 C 18.182 96.833,18.101 96.928,17.264 99.059 L 16.694 100.512 17.097 100.947 C 17.593 101.483,17.609 101.241,16.923 103.573 C 16.210 105.997,16.568 105.624,12.911 107.755 C 11.216 108.743,9.859 109.581,9.895 109.617 C 9.961 109.683,12.006 109.286,18.583 107.929 C 25.199 106.565,25.874 106.495,34.167 106.331 C 43.389 106.148,43.531 106.136,54.833 104.584 C 56.529 104.351,59.042 104.012,60.417 103.830 C 61.792 103.648,63.667 103.389,64.583 103.255 C 65.500 103.121,68.462 102.704,71.167 102.328 C 81.650 100.873,94.537 99.019,94.599 98.956 C 94.635 98.920,94.124 98.522,93.463 98.070 C 91.572 96.779,91.315 96.506,90.654 95.086 C 90.295 94.314,89.638 93.296,89.096 92.675 C 88.581 92.083,87.945 91.146,87.683 90.591 C 87.421 90.037,87.040 89.228,86.836 88.794 C 86.424 87.916,85.567 87.081,84.713 86.724 C 84.405 86.595,83.537 86.147,82.784 85.728 C 81.092 84.786,80.071 84.450,79.626 84.688 C 79.157 84.939,79.169 85.418,79.423 76.163 C 79.552 71.444,79.660 67.070,79.662 66.443 L 79.667 65.302 81.211 65.418 C 84.139 65.638,85.584 64.535,84.553 62.869 C 84.058 62.069,83.866 62.000,82.135 62.000 C 81.236 62.000,80.500 61.970,80.500 61.933 C 80.500 61.897,80.762 61.187,81.083 60.356 C 81.745 58.643,81.813 57.823,81.344 57.226 C 81.043 56.844,81.028 56.614,81.119 53.852 C 81.230 50.467,81.177 50.081,80.581 49.931 C 79.553 49.673,79.215 48.684,79.833 47.750 C 80.940 46.079,79.133 44.153,77.331 45.084 C 76.389 45.572,76.344 47.925,77.270 48.281 C 77.591 48.404,76.933 49.271,74.796 51.540 C 72.576 53.897,72.662 53.852,68.580 54.739 C 66.657 55.157,64.783 55.573,64.417 55.663 C 60.525 56.620,60.084 56.650,57.022 56.179 C 54.908 55.853,54.434 55.666,54.800 55.300 C 54.910 55.190,55.000 54.899,55.000 54.653 C 55.000 54.352,55.105 54.178,55.319 54.122 C 55.495 54.076,55.664 53.864,55.694 53.652 C 55.738 53.347,55.910 53.225,56.500 53.080 C 57.332 52.876,57.309 52.956,57.076 51.132 C 56.958 50.208,56.968 50.174,57.407 49.974 C 57.880 49.759,58.418 48.873,58.748 47.770 L 58.942 47.123 59.335 47.770 L 59.728 48.417 59.887 47.599 C 60.176 46.110,59.489 44.388,58.159 43.269 L 57.641 42.833 58.353 42.833 L 59.065 42.833 58.276 42.333 C 56.455 41.178,54.223 40.333,52.992 40.333 C 52.243 40.333,52.086 40.170,52.417 39.733 C 52.932 39.053,52.203 38.965,50.607 39.514 M78.333 45.909 C 78.333 46.258,77.972 47.000,77.801 47.000 C 77.572 47.000,77.454 46.538,77.569 46.083 C 77.682 45.630,78.333 45.482,78.333 45.909 M55.500 47.162 C 56.325 48.437,56.230 48.455,56.569 46.958 C 56.744 46.185,56.939 46.441,57.242 47.845 C 57.591 49.459,57.564 49.500,56.455 49.016 C 55.189 48.464,55.050 48.439,54.493 48.669 C 54.034 48.860,54.012 48.903,54.243 49.158 C 54.382 49.312,54.543 49.671,54.599 49.955 L 54.703 50.472 55.372 50.236 C 56.297 49.910,56.251 49.877,56.577 51.082 C 56.920 52.349,56.847 52.666,56.214 52.669 C 55.584 52.673,55.374 52.841,55.397 53.325 C 55.413 53.660,55.305 53.765,54.799 53.910 C 54.310 54.049,54.213 54.138,54.338 54.335 C 54.563 54.692,54.547 54.752,54.069 55.321 C 53.524 55.968,53.112 55.967,52.074 55.316 C 50.479 54.315,49.926 53.523,49.660 51.860 C 49.554 51.194,49.404 50.843,49.150 50.667 C 47.810 49.735,47.584 49.153,48.125 48.025 L 48.417 47.417 48.523 48.408 C 48.648 49.569,49.667 50.715,49.667 49.694 C 49.667 49.125,49.883 49.169,50.376 49.839 L 50.867 50.506 51.615 49.337 C 52.382 48.139,52.667 47.912,52.667 48.500 C 52.667 49.207,53.332 48.641,53.646 47.667 C 54.248 45.799,54.562 45.713,55.500 47.162 M80.302 51.314 C 80.352 52.006,80.334 52.039,79.969 51.941 C 79.757 51.884,79.415 51.837,79.208 51.836 C 78.895 51.834,78.833 51.742,78.833 51.278 C 78.833 50.098,80.218 50.132,80.302 51.314 M77.581 51.716 C 78.606 52.627,78.472 53.109,77.246 52.925 L 76.556 52.821 76.332 54.006 C 76.152 54.958,76.149 55.303,76.315 55.761 C 76.634 56.645,76.483 56.731,74.851 56.584 C 72.175 56.344,70.919 56.662,64.583 59.186 L 61.917 60.249 59.250 60.293 C 57.430 60.324,56.319 60.268,55.750 60.117 L 54.917 59.895 55.362 59.604 C 55.607 59.443,56.221 59.269,56.726 59.217 L 57.644 59.122 57.333 58.333 L 57.022 57.543 58.469 57.622 C 60.146 57.713,61.464 57.469,68.592 55.746 C 73.688 54.515,73.295 54.726,75.099 52.247 C 76.369 50.501,76.244 50.528,77.581 51.716 M46.833 52.436 L 46.833 52.873 47.418 52.427 L 48.003 51.980 48.356 52.782 C 48.981 54.204,48.915 56.167,48.242 56.167 C 47.963 56.167,45.500 53.406,45.500 53.093 C 45.500 52.866,46.453 52.006,46.708 52.002 C 46.777 52.001,46.833 52.196,46.833 52.436 M79.800 52.533 C 80.309 53.042,79.359 53.726,78.820 53.238 L 78.482 52.932 78.866 52.636 C 79.321 52.286,79.530 52.263,79.800 52.533 M79.975 54.315 C 80.152 54.426,80.117 54.516,79.813 54.729 C 79.384 55.030,78.222 55.088,77.833 54.828 C 77.185 54.394,79.300 53.887,79.975 54.315 M48.417 57.093 C 51.274 58.739,51.530 58.922,51.039 58.969 C 50.002 59.069,46.202 56.863,44.750 55.320 L 44.083 54.611 44.667 54.940 C 44.987 55.122,46.675 56.090,48.417 57.093 M80.167 55.928 C 80.167 56.447,79.771 56.667,78.837 56.667 C 77.842 56.667,77.561 56.516,77.730 56.075 C 77.821 55.838,80.167 55.696,80.167 55.928 M80.375 57.695 C 80.815 57.921,80.737 58.482,80.238 58.671 L 79.810 58.834 80.153 59.270 C 80.540 59.762,80.484 59.951,79.884 60.179 C 79.575 60.297,79.497 60.413,79.585 60.627 C 79.892 61.371,79.856 61.439,78.821 62.077 C 77.772 62.725,77.142 62.844,76.521 62.511 C 76.039 62.253,73.441 62.298,72.083 62.589 C 68.911 63.267,58.738 65.352,57.436 65.590 C 55.637 65.920,55.036 65.805,53.087 64.757 C 52.352 64.361,51.360 63.912,50.884 63.759 C 49.802 63.410,49.248 62.979,48.834 62.167 L 48.510 61.533 49.380 61.764 C 50.636 62.099,50.750 62.075,50.345 61.561 C 49.204 60.110,51.166 59.616,53.397 60.792 L 54.583 61.417 57.667 61.376 C 61.240 61.328,63.135 61.171,68.417 60.484 C 72.864 59.905,73.485 59.721,74.407 58.708 C 75.143 57.899,75.494 57.668,76.250 57.493 C 76.888 57.345,79.990 57.498,80.375 57.695 M42.297 61.444 C 43.188 62.238,44.025 62.986,44.157 63.107 C 45.247 64.100,41.176 61.533,39.838 60.383 C 39.731 60.291,40.200 60.006,40.463 60.003 C 40.581 60.001,41.406 60.650,42.297 61.444 M40.516 64.064 C 39.947 64.750,38.758 64.981,37.583 64.635 L 36.917 64.439 38.750 64.082 C 40.717 63.700,40.819 63.699,40.516 64.064 M72.068 64.556 C 72.830 65.130,73.575 65.333,74.921 65.333 L 76.126 65.333 76.231 70.792 C 76.288 73.794,76.382 78.369,76.438 80.958 C 76.531 85.223,76.516 85.667,76.272 85.667 C 76.124 85.667,75.653 85.934,75.224 86.261 C 74.166 87.069,73.086 87.596,71.700 87.980 C 70.138 88.412,69.958 88.526,69.358 89.462 C 68.788 90.350,68.060 90.826,66.661 91.225 L 65.739 91.488 65.078 92.850 C 64.128 94.806,63.185 95.254,61.697 94.455 C 61.268 94.225,60.511 93.951,60.015 93.847 C 58.943 93.623,56.710 92.398,56.570 91.958 C 56.341 91.236,56.677 90.003,57.172 89.747 C 57.809 89.418,57.788 89.470,58.251 87.059 C 58.690 84.774,58.696 84.831,58.022 84.583 L 57.568 84.417 58.529 79.833 C 60.053 72.565,59.800 71.748,55.933 71.478 C 51.854 71.194,51.829 71.189,51.721 70.649 L 51.625 70.167 47.393 70.167 L 43.160 70.167 44.622 68.312 C 46.164 66.356,46.366 66.181,46.734 66.486 C 46.917 66.639,47.134 66.462,47.816 65.606 L 48.668 64.535 51.042 65.533 C 54.701 67.071,54.637 67.054,56.558 66.953 C 58.221 66.865,66.216 65.293,68.917 64.523 C 70.535 64.061,71.425 64.071,72.068 64.556 M78.830 69.292 C 78.825 74.508,78.549 83.242,78.336 84.908 C 77.926 88.114,77.833 86.464,77.833 75.950 L 77.833 65.333 78.333 65.333 L 78.833 65.333 78.830 69.292 M36.239 68.517 C 35.865 69.123,33.992 69.512,33.094 69.171 C 32.349 68.888,32.625 68.722,34.125 68.552 C 36.245 68.311,36.368 68.309,36.239 68.517 M70.333 69.018 C 70.333 69.657,72.466 72.985,72.955 73.108 C 74.270 73.438,74.190 72.205,72.795 70.626 C 71.143 68.758,70.333 68.229,70.333 69.018 M83.344 70.458 C 81.967 71.946,81.655 72.512,81.951 72.984 C 82.470 73.813,83.171 73.285,84.424 71.123 C 85.916 68.549,85.404 68.234,83.344 70.458 M33.707 71.534 C 35.370 71.909,35.618 72.053,34.958 72.264 C 33.928 72.593,32.484 72.201,31.832 71.415 C 31.551 71.076,31.729 71.087,33.707 71.534 M40.250 71.763 C 39.347 72.553,39.000 72.743,39.000 72.448 C 39.000 72.175,39.397 71.807,40.083 71.444 C 40.897 71.014,40.962 71.139,40.250 71.763 M38.069 73.117 C 37.535 73.964,37.036 73.802,37.411 72.903 C 37.661 72.307,37.692 72.287,37.960 72.555 C 38.174 72.770,38.201 72.908,38.069 73.117 M54.929 72.565 C 58.688 72.985,58.689 72.988,57.596 78.718 C 57.190 80.844,56.805 82.946,56.741 83.388 C 56.677 83.831,56.528 84.230,56.409 84.276 C 56.207 84.354,52.977 84.028,52.865 83.919 C 52.809 83.865,53.449 77.949,53.609 77.042 L 53.704 76.500 52.086 76.500 L 50.469 76.500 50.564 75.708 C 50.616 75.273,50.707 74.335,50.765 73.625 L 50.872 72.333 51.895 72.337 C 52.457 72.339,53.822 72.442,54.929 72.565 M36.341 78.283 C 36.127 79.443,35.380 80.541,35.120 80.077 C 34.681 79.294,35.260 76.248,36.069 75.083 L 36.417 74.583 36.465 75.967 C 36.492 76.728,36.436 77.770,36.341 78.283 M37.934 77.554 C 38.053 79.399,37.904 81.500,37.653 81.500 C 37.565 81.500,37.504 80.142,37.511 78.292 C 37.522 74.848,37.735 74.477,37.934 77.554 M66.500 75.713 C 66.500 76.345,69.680 78.667,70.546 78.667 C 71.121 78.667,71.580 78.010,71.429 77.406 C 71.229 76.609,66.500 74.985,66.500 75.713 M86.517 76.165 C 84.520 76.844,84.304 76.995,84.373 77.661 C 84.459 78.478,85.208 78.658,86.214 78.105 C 87.529 77.383,89.667 75.974,89.667 75.830 C 89.667 75.321,88.692 75.425,86.517 76.165 M52.292 78.070 C 52.457 78.235,51.742 83.667,51.555 83.667 C 51.144 83.667,50.853 84.430,50.594 86.188 C 50.226 88.689,50.241 88.970,50.750 89.098 C 51.287 89.233,51.316 89.034,50.177 92.995 C 49.067 96.853,49.113 96.783,47.294 97.330 C 42.741 98.697,33.610 102.745,30.088 104.959 L 29.592 105.270 29.193 104.796 C 28.673 104.178,28.186 103.944,26.667 103.582 C 24.811 103.140,23.477 102.516,23.932 102.303 C 24.671 101.956,25.190 100.348,24.750 99.767 C 24.389 99.290,29.179 96.373,32.299 95.170 C 34.010 94.510,33.885 94.724,35.260 90.125 C 35.883 88.040,36.436 86.336,36.488 86.338 C 36.541 86.341,36.895 86.797,37.275 87.351 L 37.967 88.358 38.328 87.392 C 38.527 86.862,38.842 85.764,39.029 84.953 L 39.368 83.478 40.059 84.484 C 40.439 85.037,40.804 85.492,40.869 85.495 C 41.109 85.505,41.840 84.232,42.179 83.213 C 42.599 81.951,42.488 81.959,43.906 83.091 L 45.062 84.014 45.533 82.465 C 45.792 81.614,46.044 80.809,46.092 80.678 C 46.154 80.508,46.327 80.618,46.695 81.065 C 47.331 81.836,47.339 81.827,48.015 79.603 L 48.566 77.790 50.406 77.906 C 51.417 77.970,52.266 78.044,52.292 78.070 M83.917 82.559 C 83.526 83.157,83.719 83.965,84.307 84.189 C 88.436 85.761,89.776 85.291,86.731 83.338 C 84.794 82.096,84.309 81.962,83.917 82.559 M68.958 83.843 C 66.440 85.124,66.677 85.770,69.473 85.244 C 71.665 84.832,72.364 84.169,71.620 83.208 C 71.330 82.832,70.608 83.005,68.958 83.843 M82.769 87.503 C 85.227 89.033,85.083 88.884,86.871 91.750 C 89.598 96.121,89.582 96.011,87.375 95.223 C 85.408 94.520,85.262 94.399,84.575 92.902 C 83.987 91.621,84.059 91.672,81.937 91.012 C 80.492 90.562,80.532 90.359,81.500 93.250 C 82.434 96.039,82.438 95.975,81.373 95.690 C 80.311 95.406,79.669 94.880,78.380 93.234 C 77.138 91.648,76.263 91.015,74.483 90.414 C 73.805 90.185,73.146 89.959,73.018 89.912 C 72.505 89.722,76.601 87.151,77.654 87.002 C 78.187 86.926,78.952 86.714,79.353 86.530 C 80.416 86.042,80.426 86.045,82.769 87.503 M30.992 89.292 C 31.349 90.907,31.866 90.925,32.578 89.345 C 32.937 88.550,33.040 88.525,33.608 89.092 C 34.121 89.606,34.091 90.167,33.457 91.882 C 32.925 93.323,32.712 93.546,31.360 94.087 C 30.223 94.541,27.808 95.936,25.000 97.760 C 22.927 99.106,22.854 99.124,21.835 98.552 C 20.824 97.984,20.827 98.123,21.792 96.557 C 23.352 94.025,24.689 92.957,27.257 92.194 C 28.582 91.800,28.988 91.448,29.500 90.251 C 30.394 88.163,30.699 87.966,30.992 89.292 M73.038 93.852 C 73.570 94.484,73.852 96.000,73.438 96.000 C 72.310 96.000,71.846 95.537,71.154 93.718 L 70.991 93.289 71.871 93.400 C 72.453 93.474,72.847 93.626,73.038 93.852 " stroke="none" fill="#241c24" fill-rule="evenodd"></path><path id="path1" d="M138.613 34.702 C 137.693 37.275,136.709 39.982,135.749 42.583 C 135.140 44.233,134.429 46.183,134.168 46.917 C 131.150 55.406,130.574 56.552,129.250 56.696 L 128.750 56.750 128.702 58.125 L 128.653 59.500 132.552 59.500 L 136.451 59.500 136.629 58.423 C 136.927 56.625,136.795 56.417,135.353 56.417 C 134.361 56.417,134.163 56.373,134.225 56.167 C 134.266 56.029,134.503 55.392,134.751 54.750 C 134.999 54.108,135.282 53.312,135.379 52.981 L 135.557 52.378 136.903 52.274 C 137.644 52.216,139.342 52.168,140.677 52.168 L 143.103 52.167 143.402 53.042 C 144.357 55.839,144.310 56.557,143.158 56.751 L 142.500 56.863 142.500 58.181 L 142.500 59.500 147.333 59.500 L 152.167 59.500 152.167 57.980 L 152.167 56.460 151.204 56.530 L 150.241 56.599 149.886 55.341 C 149.574 54.236,148.878 52.380,146.760 47.000 C 146.453 46.221,145.926 44.871,145.589 44.000 C 145.251 43.129,144.840 42.079,144.674 41.667 C 144.508 41.254,144.222 40.542,144.037 40.083 C 143.853 39.625,143.586 38.950,143.445 38.583 C 143.304 38.217,142.850 37.054,142.437 36.000 L 141.686 34.083 140.277 34.035 L 138.869 33.988 138.613 34.702 M162.335 34.355 C 161.038 34.703,159.129 35.616,158.528 36.176 C 158.337 36.354,158.108 36.500,158.020 36.500 C 157.718 36.500,156.025 38.560,155.333 39.770 C 152.365 44.957,152.713 51.674,156.173 55.976 C 156.843 56.809,159.042 58.654,159.376 58.663 C 159.445 58.665,159.873 58.846,160.328 59.065 C 162.030 59.886,166.712 60.247,168.750 59.714 C 169.117 59.618,170.017 59.372,170.750 59.167 C 171.483 58.962,172.346 58.724,172.667 58.638 C 172.987 58.552,173.850 58.430,174.583 58.366 L 175.917 58.250 176.000 54.500 C 176.099 50.031,176.175 49.829,177.833 49.633 C 178.233 49.585,178.252 49.530,178.299 48.292 L 178.347 47.000 173.507 47.000 L 168.667 47.000 168.667 48.521 L 168.667 50.043 169.958 49.968 L 171.250 49.893 171.201 52.958 L 171.152 56.023 170.582 56.261 C 168.448 57.153,164.880 57.099,163.223 56.151 C 159.171 53.833,157.818 45.790,160.567 40.365 C 163.306 34.960,170.840 35.869,172.373 41.791 C 172.626 42.768,172.706 42.828,173.778 42.831 C 175.272 42.835,175.167 43.173,175.167 38.399 L 175.167 34.167 173.667 34.167 L 172.167 34.167 172.167 34.827 L 172.167 35.488 171.375 35.140 C 168.765 33.993,164.926 33.660,162.335 34.355 M185.385 34.330 C 182.112 35.297,180.358 37.452,180.203 40.700 C 180.008 44.788,182.973 47.819,189.530 50.233 C 190.582 50.620,191.668 51.165,192.586 51.767 C 194.396 52.953,193.948 55.682,191.768 56.749 C 188.598 58.299,184.488 56.009,183.471 52.125 L 183.264 51.333 181.963 51.333 L 180.661 51.333 180.705 55.542 L 180.750 59.750 182.198 59.798 L 183.647 59.846 183.698 59.174 C 183.749 58.516,183.758 58.507,184.167 58.717 C 192.125 62.807,201.588 56.749,198.074 49.814 C 197.170 48.032,192.295 44.500,190.738 44.500 C 189.857 44.500,186.055 42.154,185.528 41.285 C 182.988 37.102,190.526 34.930,193.298 39.047 C 193.835 39.845,194.500 41.514,194.500 42.065 C 194.500 42.644,194.828 42.834,195.825 42.831 C 197.172 42.827,197.105 43.025,197.218 38.743 C 197.350 33.782,197.472 34.143,195.687 34.202 L 194.250 34.250 194.298 34.870 L 194.346 35.490 193.348 34.994 C 191.331 33.994,187.583 33.681,185.385 34.330 M284.960 34.341 C 275.429 36.684,272.527 51.033,280.307 57.349 C 281.099 57.992,282.062 58.561,283.693 59.350 C 287.526 61.203,294.072 59.534,297.575 55.810 C 299.064 54.228,299.034 54.377,298.042 53.430 C 297.052 52.486,296.922 52.494,296.000 53.564 C 293.581 56.372,288.665 57.719,286.075 56.283 C 279.853 52.833,280.309 39.358,286.723 37.142 C 290.313 35.901,294.500 38.706,294.500 42.351 C 294.500 42.587,294.690 42.648,295.564 42.694 C 297.337 42.787,297.178 43.218,297.128 38.446 L 297.083 34.250 295.635 34.202 L 294.186 34.154 294.135 34.807 L 294.083 35.460 293.048 34.985 C 290.806 33.957,287.571 33.699,284.960 34.341 M356.083 34.322 C 350.082 36.099,348.879 43.131,353.921 46.968 C 354.969 47.766,358.787 49.777,359.833 50.082 C 364.522 51.452,365.923 55.042,362.434 56.749 C 359.183 58.340,354.796 55.819,354.098 51.958 L 353.985 51.333 352.659 51.333 L 351.333 51.333 351.333 55.583 L 351.333 59.833 352.833 59.833 L 354.333 59.833 354.333 59.162 L 354.333 58.491 354.792 58.728 C 360.759 61.814,368.580 59.162,369.339 53.796 C 369.898 49.835,367.645 47.160,361.583 44.588 C 355.750 42.114,354.103 39.730,356.770 37.619 C 359.613 35.369,364.134 37.545,365.054 41.606 L 365.275 42.583 366.389 42.667 C 367.002 42.712,367.577 42.725,367.668 42.694 C 367.772 42.660,367.833 41.054,367.833 38.403 L 367.833 34.167 366.417 34.167 L 365.000 34.167 365.000 34.836 L 365.000 35.506 364.125 35.062 C 362.062 34.016,358.288 33.669,356.083 34.322 M106.111 34.611 C 106.050 34.672,106.000 35.347,106.000 36.111 L 106.000 37.500 107.344 37.500 L 108.688 37.500 108.636 46.375 C 108.573 57.024,108.616 56.827,106.375 56.832 C 106.017 56.833,106.000 56.895,106.000 58.167 L 106.000 59.500 111.417 59.500 L 116.833 59.500 116.833 57.983 L 116.833 56.467 115.321 56.525 L 113.808 56.583 113.904 56.104 C 113.957 55.841,114.000 54.322,114.000 52.729 L 114.000 49.833 114.765 49.833 C 115.715 49.833,115.669 49.782,117.945 53.417 C 120.390 57.321,120.954 58.153,121.640 58.875 L 122.234 59.500 125.284 59.500 L 128.333 59.500 128.333 58.185 L 128.333 56.870 127.731 56.757 C 126.480 56.523,125.769 55.774,123.362 52.158 C 122.718 51.190,121.846 50.081,121.425 49.692 L 120.659 48.986 121.288 48.733 C 128.650 45.773,128.309 36.885,120.759 34.923 C 119.149 34.505,106.487 34.235,106.111 34.611 M238.611 34.611 C 238.550 34.672,238.500 35.347,238.500 36.111 L 238.500 37.500 239.794 37.500 L 241.088 37.500 241.039 46.125 C 240.979 56.910,241.042 56.515,239.334 56.750 L 238.500 56.865 238.500 58.182 L 238.500 59.500 243.917 59.500 L 249.333 59.500 249.333 57.983 L 249.333 56.467 247.867 56.525 L 246.400 56.583 246.374 53.208 L 246.349 49.833 247.104 49.833 C 248.137 49.833,248.350 50.078,250.925 54.231 C 252.112 56.146,253.447 58.115,253.892 58.606 L 254.700 59.500 257.767 59.500 L 260.833 59.500 260.833 58.167 C 260.833 56.907,260.813 56.833,260.469 56.833 C 259.257 56.833,258.352 55.946,256.030 52.479 C 255.198 51.237,254.212 49.945,253.840 49.609 L 253.164 48.998 254.540 48.360 C 261.234 45.254,260.262 36.679,253.010 34.854 C 251.598 34.499,238.937 34.285,238.611 34.611 M262.780 34.609 C 262.718 34.671,262.667 35.347,262.667 36.111 L 262.667 37.500 264.023 37.500 L 265.379 37.500 265.273 38.273 C 265.214 38.699,265.167 42.780,265.167 47.344 L 265.167 55.641 264.748 56.138 C 264.427 56.520,264.136 56.662,263.498 56.750 L 262.667 56.865 262.667 58.185 L 262.667 59.505 267.875 59.461 L 273.083 59.417 273.132 57.945 L 273.180 56.474 271.882 56.529 L 270.583 56.583 270.626 51.167 C 270.649 48.188,270.686 44.045,270.709 41.962 L 270.750 38.174 271.200 37.724 C 271.493 37.431,271.899 37.241,272.366 37.179 L 273.083 37.083 273.083 35.833 L 273.083 34.583 267.988 34.539 C 265.186 34.515,262.843 34.546,262.780 34.609 M300.667 36.000 L 300.667 37.500 301.875 37.500 L 303.083 37.500 303.029 46.458 C 302.966 56.892,303.025 56.480,301.542 56.732 L 300.667 56.880 300.667 58.190 L 300.667 59.500 305.833 59.500 L 311.000 59.500 311.000 57.982 L 311.000 56.465 309.708 56.524 L 308.417 56.583 308.464 52.542 L 308.511 48.500 312.909 48.500 C 315.327 48.500,317.429 48.453,317.579 48.395 C 317.827 48.300,317.847 48.626,317.801 52.049 C 317.742 56.374,317.692 56.525,316.237 56.743 L 315.500 56.854 315.500 58.177 L 315.500 59.500 320.667 59.500 L 325.833 59.500 325.833 57.982 L 325.833 56.465 324.542 56.524 L 323.250 56.583 323.290 48.083 C 323.342 37.221,323.312 37.408,325.047 37.212 L 325.833 37.123 325.833 35.812 L 325.833 34.500 320.667 34.500 L 315.500 34.500 315.500 36.000 L 315.500 37.500 316.724 37.500 L 317.947 37.500 317.932 41.499 L 317.917 45.498 313.188 45.499 L 308.459 45.500 308.531 41.958 C 308.617 37.696,308.834 37.167,310.492 37.167 L 311.000 37.167 311.000 35.833 L 311.000 34.500 305.833 34.500 L 300.667 34.500 300.667 36.000 M329.000 36.000 L 329.000 37.500 330.292 37.500 L 331.583 37.500 331.538 46.125 C 331.481 56.901,331.543 56.515,329.834 56.750 L 329.000 56.865 329.000 58.182 L 329.000 59.500 338.500 59.500 L 348.000 59.500 348.000 58.277 C 348.000 57.604,348.049 55.804,348.110 54.277 L 348.219 51.500 346.883 51.500 L 345.547 51.500 345.443 52.499 C 345.125 55.544,343.710 56.500,339.521 56.500 L 336.917 56.500 336.878 52.250 L 336.840 48.000 338.162 48.000 C 340.214 48.000,340.781 48.427,340.954 50.098 L 341.047 51.000 342.357 51.000 L 343.667 51.000 343.667 46.583 L 343.667 42.167 342.167 42.167 L 340.667 42.167 340.667 43.667 L 340.667 45.167 338.833 45.167 L 337.000 45.167 337.000 41.922 C 337.000 37.299,337.089 37.167,340.200 37.167 C 342.979 37.167,344.221 38.167,344.447 40.588 L 344.548 41.667 345.847 41.667 L 347.145 41.667 347.059 38.292 C 347.012 36.435,346.944 34.823,346.908 34.708 C 346.858 34.545,344.914 34.500,337.922 34.500 L 329.000 34.500 329.000 36.000 M118.674 37.720 C 120.659 38.662,121.458 41.533,120.504 44.296 C 119.836 46.230,117.481 47.396,114.895 47.073 L 113.985 46.960 114.034 42.580 C 114.087 37.834,114.105 37.744,115.083 37.314 C 115.728 37.031,117.690 37.252,118.674 37.720 M250.472 37.424 C 252.809 38.118,253.928 41.085,253.025 44.191 C 252.448 46.174,250.051 47.378,247.300 47.066 L 246.304 46.954 246.373 42.852 C 246.449 38.286,246.545 37.777,247.397 37.406 C 248.095 37.102,249.415 37.110,250.472 37.424 M223.000 37.823 C 220.067 38.718,218.444 41.091,218.427 44.509 L 218.417 46.601 219.046 47.875 C 220.038 49.880,221.309 50.803,223.581 51.166 C 229.572 52.123,233.220 46.016,230.071 40.300 C 229.021 38.393,225.347 37.106,223.000 37.823 M206.166 38.792 C 206.165 39.227,206.117 40.202,206.058 40.958 L 205.951 42.333 206.711 42.333 L 207.472 42.333 207.654 41.487 C 207.965 40.036,208.551 39.500,209.828 39.500 L 210.333 39.500 210.333 44.130 C 210.333 49.077,210.267 49.500,209.491 49.500 C 209.218 49.500,209.167 49.618,209.167 50.250 L 209.167 51.000 211.917 51.000 L 214.667 51.000 214.667 50.167 L 214.667 49.333 213.958 49.333 L 213.250 49.334 213.297 44.417 L 213.343 39.500 213.911 39.500 C 215.175 39.500,215.840 40.133,215.995 41.486 C 216.083 42.250,216.083 42.250,216.792 42.301 L 217.500 42.352 217.500 40.176 L 217.500 38.000 211.833 38.000 L 206.167 38.000 206.166 38.792 M226.112 39.632 C 228.627 40.988,228.854 47.442,226.448 49.185 C 223.472 51.341,220.392 46.497,221.766 41.822 C 222.397 39.676,224.359 38.687,226.112 39.632 M139.588 42.083 C 140.031 43.649,140.753 45.800,141.292 47.167 C 141.564 47.854,141.836 48.623,141.896 48.875 L 142.006 49.333 139.337 49.333 C 137.868 49.333,136.667 49.269,136.667 49.190 C 136.667 49.111,137.151 47.651,137.742 45.945 C 138.334 44.239,138.913 42.384,139.029 41.823 C 139.145 41.262,139.254 40.866,139.272 40.943 C 139.290 41.020,139.432 41.533,139.588 42.083 M77.700 45.867 C 77.467 46.100,77.433 46.772,77.648 46.905 C 77.846 47.028,78.114 46.683,78.255 46.124 C 78.379 45.627,78.079 45.488,77.700 45.867 M54.260 46.378 C 54.124 46.585,53.903 47.068,53.768 47.449 C 53.324 48.707,52.667 49.440,52.667 48.677 C 52.667 48.009,52.359 48.212,51.649 49.347 L 50.917 50.518 50.375 49.884 C 49.855 49.276,49.829 49.265,49.730 49.625 C 49.439 50.691,48.581 49.705,48.461 48.167 L 48.416 47.583 48.125 48.117 C 47.581 49.112,47.921 50.053,48.985 50.494 C 49.490 50.703,49.530 50.796,49.756 52.296 C 49.971 53.714,52.040 55.788,53.277 55.823 C 53.894 55.841,54.681 54.747,54.315 54.381 C 54.034 54.101,54.293 53.833,54.843 53.833 C 55.292 53.833,55.333 53.784,55.333 53.250 C 55.333 52.682,55.351 52.667,55.990 52.667 C 56.351 52.667,56.695 52.590,56.753 52.496 C 56.873 52.301,56.318 50.000,56.151 50.000 C 56.091 50.000,55.739 50.107,55.369 50.237 C 54.602 50.508,54.500 50.459,54.500 49.815 C 54.500 49.539,54.364 49.257,54.162 49.115 C 53.206 48.446,54.983 48.367,56.455 49.013 C 57.551 49.495,57.571 49.468,57.239 47.979 C 56.906 46.489,56.724 46.246,56.584 47.103 C 56.362 48.459,56.302 48.464,55.451 47.184 C 54.561 45.845,54.594 45.868,54.260 46.378 M79.115 50.617 C 78.890 50.675,78.827 50.827,78.865 51.222 C 78.936 51.953,80.333 52.160,80.333 51.440 C 80.333 50.561,80.056 50.373,79.115 50.617 M75.197 52.163 C 73.317 54.769,73.755 54.543,67.881 55.944 C 61.126 57.556,60.225 57.718,58.478 57.634 L 57.040 57.566 57.353 58.297 C 57.526 58.699,57.667 59.049,57.667 59.076 C 57.667 59.102,57.289 59.174,56.827 59.235 C 53.525 59.673,55.372 60.411,59.474 60.293 L 61.917 60.222 65.083 58.969 C 71.294 56.510,72.160 56.302,75.019 56.583 C 76.515 56.730,76.675 56.609,76.246 55.658 C 76.013 55.142,75.991 54.918,76.137 54.548 C 76.238 54.292,76.370 53.794,76.432 53.441 C 76.542 52.807,76.552 52.799,77.160 52.896 C 78.731 53.147,78.533 52.394,76.667 51.012 L 76.250 50.703 75.197 52.163 M46.125 52.419 C 45.293 52.986,45.305 53.026,46.766 54.709 C 48.183 56.340,48.224 56.362,48.579 55.675 C 48.922 55.013,48.899 54.427,48.485 53.199 C 48.101 52.062,48.007 52.005,47.360 52.516 L 46.917 52.865 46.833 52.429 L 46.750 51.993 46.125 52.419 M78.974 52.657 C 78.450 53.085,78.767 53.480,79.444 53.241 C 80.010 53.041,80.113 52.739,79.692 52.514 C 79.436 52.377,79.279 52.408,78.974 52.657 M206.035 55.208 L 206.083 56.583 218.625 56.626 L 231.167 56.669 231.167 55.251 L 231.167 53.833 218.577 53.833 L 205.987 53.833 206.035 55.208 M78.042 54.339 C 77.294 54.639,77.713 55.000,78.810 55.000 C 79.606 55.000,80.393 54.507,79.904 54.316 C 79.465 54.144,78.496 54.156,78.042 54.339 M45.000 55.496 C 46.629 57.028,49.957 59.000,50.913 59.000 C 51.622 59.000,51.328 58.786,48.039 56.904 C 46.322 55.921,44.729 55.008,44.500 54.875 C 44.271 54.742,44.496 55.022,45.000 55.496 M78.125 55.953 C 77.195 56.094,77.770 56.667,78.841 56.667 C 79.553 56.667,80.167 56.333,80.167 55.945 C 80.167 55.828,78.915 55.833,78.125 55.953 M75.387 57.824 C 75.096 58.002,74.685 58.381,74.473 58.667 C 73.756 59.638,73.254 59.813,69.708 60.327 C 64.602 61.068,61.211 61.371,57.750 61.395 L 54.583 61.417 53.332 60.792 C 51.071 59.663,49.326 60.086,50.345 61.516 C 50.728 62.054,50.648 62.084,49.567 61.812 C 48.630 61.576,48.538 61.670,48.989 62.399 C 49.366 63.009,50.265 63.667,50.723 63.667 C 50.869 63.667,51.723 64.043,52.620 64.504 C 54.593 65.518,55.700 65.870,56.492 65.736 C 57.722 65.528,65.566 63.938,69.169 63.165 C 73.861 62.160,74.974 62.038,76.209 62.398 C 77.489 62.770,77.644 62.749,78.820 62.052 C 79.856 61.436,79.892 61.371,79.586 60.629 C 79.499 60.418,79.583 60.288,79.900 60.144 C 80.400 59.916,80.436 59.721,80.074 59.204 C 79.830 58.856,79.840 58.823,80.241 58.640 C 80.744 58.411,80.780 58.154,80.362 57.776 C 79.881 57.341,76.120 57.377,75.387 57.824 M40.125 60.115 C 39.965 60.157,39.838 60.242,39.843 60.304 C 39.855 60.447,44.217 63.505,44.296 63.426 C 44.399 63.324,40.699 59.986,40.521 60.019 C 40.463 60.030,40.285 60.073,40.125 60.115 M38.500 64.148 C 37.034 64.432,36.952 64.575,38.143 64.766 C 38.891 64.885,40.137 64.521,40.507 64.075 C 40.765 63.764,40.416 63.777,38.500 64.148 M77.838 75.958 C 77.843 86.435,77.942 88.163,78.334 84.627 C 78.521 82.937,78.832 72.911,78.833 68.542 L 78.833 65.333 78.333 65.333 L 77.833 65.333 77.838 75.958 M34.333 68.592 C 33.462 68.709,32.712 68.814,32.667 68.825 C 32.621 68.836,32.771 68.952,33.000 69.083 C 33.743 69.508,35.161 69.306,36.010 68.654 C 36.474 68.296,36.516 68.298,34.333 68.592 M31.667 71.234 C 31.667 71.552,33.320 72.333,33.987 72.331 C 34.692 72.328,35.346 72.115,35.162 71.947 C 34.964 71.766,31.667 71.094,31.667 71.234 M40.083 71.444 C 39.392 71.809,39.000 72.175,39.000 72.454 C 39.000 72.632,39.111 72.608,39.458 72.353 C 40.870 71.318,41.182 70.863,40.083 71.444 M247.982 71.417 C 241.030 72.803,239.616 83.319,245.960 86.455 L 247.232 87.083 249.575 87.083 C 252.222 87.083,253.089 86.803,254.520 85.482 L 255.200 84.854 254.747 84.260 C 254.259 83.621,253.703 83.488,253.281 83.909 C 250.843 86.348,246.045 85.109,244.779 81.714 C 242.697 76.133,248.323 71.009,252.985 74.240 C 253.782 74.792,254.044 74.778,254.569 74.154 C 255.995 72.458,251.705 70.676,247.982 71.417 M299.167 71.353 C 291.462 72.594,290.608 84.778,298.076 86.925 C 301.617 87.943,307.203 85.857,305.552 84.134 C 304.973 83.530,304.662 83.545,303.775 84.222 C 299.386 87.573,293.814 82.452,295.735 76.833 C 296.837 73.606,300.793 72.321,303.852 74.196 C 304.838 74.800,305.034 74.789,305.564 74.094 C 306.138 73.341,306.123 73.258,305.292 72.652 C 303.491 71.340,301.661 70.952,299.167 71.353 M360.417 71.354 C 352.480 72.338,351.374 84.264,358.982 86.827 C 360.967 87.496,364.479 87.224,366.453 86.248 L 367.667 85.648 367.667 82.491 L 367.667 79.333 365.167 79.333 L 362.667 79.333 362.667 80.133 C 362.667 81.206,362.839 81.333,364.283 81.333 L 365.500 81.333 365.500 82.891 L 365.500 84.449 364.792 84.733 C 359.401 86.888,354.695 82.279,356.692 76.801 C 357.893 73.507,363.198 72.116,365.637 74.455 C 366.086 74.886,366.640 74.702,367.103 73.969 L 367.544 73.270 367.070 72.892 C 366.184 72.186,365.086 71.695,363.799 71.431 C 362.400 71.143,362.156 71.138,360.417 71.354 M108.000 79.167 L 108.000 87.000 109.167 87.000 L 110.333 87.000 110.333 83.750 L 110.333 80.500 113.500 80.500 L 116.667 80.500 116.667 79.500 L 116.667 78.500 113.500 78.500 L 110.333 78.500 110.333 75.917 L 110.333 73.333 114.000 73.333 L 117.667 73.333 117.667 72.333 L 117.667 71.333 112.833 71.333 L 108.000 71.333 108.000 79.167 M122.333 79.167 L 122.333 87.000 123.500 87.000 L 124.667 87.000 124.667 79.167 L 124.667 71.333 123.500 71.333 L 122.333 71.333 122.333 79.167 M130.333 79.145 L 130.333 87.000 131.331 87.000 L 132.329 87.000 132.373 81.220 L 132.417 75.440 134.442 78.095 C 135.556 79.555,136.901 81.313,137.431 82.000 C 137.961 82.688,138.880 83.887,139.473 84.667 C 141.200 86.936,141.275 87.000,142.198 87.000 L 143.000 87.000 143.000 79.167 L 143.000 71.333 142.002 71.333 L 141.004 71.333 140.960 77.098 L 140.917 82.864 138.492 79.723 C 137.158 77.996,135.358 75.653,134.492 74.516 C 132.106 71.384,132.196 71.470,131.198 71.374 L 130.333 71.291 130.333 79.145 M152.589 71.786 C 152.527 72.035,152.340 72.541,152.174 72.911 C 152.008 73.281,151.299 75.046,150.598 76.833 C 149.896 78.621,149.253 80.233,149.168 80.417 C 148.775 81.264,146.667 86.658,146.667 86.816 C 146.667 87.335,148.579 87.220,149.025 86.674 C 149.176 86.489,149.586 85.549,149.936 84.585 L 150.571 82.833 153.957 82.833 C 157.036 82.833,157.352 82.860,157.436 83.125 C 157.487 83.285,157.628 83.679,157.750 84.000 C 157.872 84.321,158.156 85.071,158.382 85.667 C 158.866 86.942,159.235 87.210,160.379 87.114 C 161.477 87.023,161.480 87.069,160.252 84.250 C 160.132 83.975,159.759 83.037,159.422 82.167 C 159.086 81.296,158.712 80.355,158.591 80.076 C 158.470 79.796,158.169 79.046,157.923 78.409 C 157.396 77.047,156.885 75.782,156.581 75.083 C 156.461 74.808,156.160 74.058,155.912 73.417 C 155.076 71.255,155.153 71.333,153.847 71.333 C 152.741 71.333,152.699 71.349,152.589 71.786 M164.667 79.167 L 164.667 87.000 165.748 87.000 L 166.829 87.000 166.873 81.278 L 166.917 75.555 169.333 78.707 C 176.278 87.762,175.594 86.994,176.708 86.997 L 177.500 87.000 177.500 79.167 L 177.500 71.333 176.419 71.333 L 175.338 71.333 175.294 77.042 L 175.250 82.750 174.170 81.333 C 173.576 80.554,172.999 79.804,172.888 79.667 C 172.684 79.415,172.414 79.065,168.781 74.333 C 166.621 71.519,166.426 71.348,165.375 71.339 L 164.667 71.333 164.667 79.167 M186.944 71.679 C 179.289 74.312,180.545 86.503,188.538 87.145 C 191.402 87.374,195.000 86.059,195.000 84.781 C 195.000 83.928,193.725 83.482,192.947 84.064 C 191.556 85.104,189.169 85.458,187.667 84.846 C 182.746 82.840,183.330 74.687,188.479 73.497 C 189.957 73.156,193.333 73.869,193.333 74.523 C 193.333 74.976,194.193 74.618,194.581 74.003 C 195.112 73.162,195.158 73.286,194.038 72.526 C 192.179 71.263,189.190 70.906,186.944 71.679 M199.667 79.167 L 199.667 87.000 200.833 87.000 L 202.000 87.000 202.000 79.167 L 202.000 71.333 200.833 71.333 L 199.667 71.333 199.667 79.167 M212.110 71.458 C 212.040 71.573,209.218 78.602,207.642 82.583 C 207.280 83.500,206.915 84.400,206.833 84.583 C 206.750 84.767,206.497 85.367,206.271 85.917 L 205.860 86.917 206.222 87.025 C 207.742 87.481,208.285 87.104,209.069 85.052 C 209.412 84.152,209.751 83.304,209.823 83.167 C 209.930 82.960,210.522 82.909,213.271 82.872 L 216.590 82.827 217.153 84.288 C 217.463 85.092,217.780 85.821,217.858 85.908 C 217.936 85.995,218.000 86.197,218.000 86.357 C 218.000 86.984,219.195 87.356,220.276 87.066 C 220.669 86.960,220.640 86.681,220.115 85.500 C 219.972 85.179,219.435 83.867,218.920 82.583 C 218.406 81.300,217.847 79.912,217.677 79.500 C 217.507 79.087,217.254 78.450,217.115 78.083 C 216.669 76.914,215.821 74.762,215.670 74.417 C 215.591 74.233,215.280 73.465,214.980 72.708 L 214.434 71.333 213.310 71.333 C 212.692 71.333,212.152 71.390,212.110 71.458 M224.167 79.167 L 224.167 87.000 228.675 87.000 L 233.183 87.000 233.133 86.042 L 233.083 85.083 229.708 85.038 L 226.333 84.993 226.333 78.163 L 226.333 71.333 225.250 71.333 L 224.167 71.333 224.167 79.167 M263.750 71.560 C 257.209 73.753,256.565 83.602,262.771 86.541 C 264.475 87.348,267.984 87.361,269.672 86.566 C 275.508 83.819,275.424 74.585,269.538 71.871 C 268.383 71.339,264.958 71.155,263.750 71.560 M282.099 71.875 C 281.979 72.173,281.503 73.354,281.040 74.500 C 279.770 77.643,279.159 79.171,278.838 80.000 C 278.678 80.412,278.012 82.070,277.357 83.682 C 275.970 87.099,275.996 86.953,276.762 87.097 C 277.686 87.270,278.372 86.998,278.699 86.328 C 279.198 85.305,279.667 84.175,279.667 83.994 C 279.667 83.896,279.781 83.596,279.921 83.325 L 280.175 82.833 283.480 82.833 L 286.785 82.833 287.543 84.792 C 288.401 87.008,288.614 87.220,289.879 87.114 C 290.316 87.078,290.707 87.015,290.748 86.974 C 290.809 86.914,288.390 80.637,287.836 79.417 C 287.650 79.006,287.212 77.905,286.411 75.833 C 286.074 74.962,285.662 73.950,285.496 73.583 C 285.329 73.217,285.056 72.561,284.888 72.126 L 284.583 71.335 283.450 71.334 C 282.327 71.333,282.314 71.338,282.099 71.875 M310.333 79.174 L 310.333 87.015 311.542 86.966 L 312.750 86.917 312.795 83.542 L 312.840 80.167 316.753 80.167 L 320.667 80.167 320.667 83.583 L 320.667 87.000 321.833 87.000 L 323.000 87.000 323.000 79.167 L 323.000 71.333 321.833 71.333 L 320.667 71.333 320.667 74.833 L 320.667 78.333 316.669 78.333 L 312.671 78.333 312.778 75.279 C 312.919 71.212,312.959 71.333,311.497 71.333 L 310.333 71.333 310.333 79.174 M328.778 71.444 C 328.637 71.585,328.637 75.326,328.777 81.875 L 328.887 87.000 329.944 87.000 L 331.000 87.000 331.000 79.167 L 331.000 71.333 329.944 71.333 C 329.364 71.333,328.839 71.383,328.778 71.444 M336.833 79.145 L 336.833 87.000 337.831 87.000 L 338.829 87.000 338.873 81.263 L 338.917 75.526 339.694 76.554 C 340.884 78.130,342.767 80.584,343.055 80.935 C 343.197 81.108,344.141 82.337,345.154 83.667 C 346.166 84.996,347.168 86.303,347.380 86.571 C 347.710 86.987,347.885 87.060,348.591 87.071 L 349.417 87.083 349.460 79.200 L 349.503 71.317 348.460 71.367 L 347.417 71.417 347.333 77.167 C 347.287 80.329,347.203 82.804,347.145 82.667 C 347.059 82.462,344.145 78.656,342.168 76.167 C 341.913 75.846,341.190 74.902,340.561 74.070 C 338.600 71.476,338.582 71.459,337.656 71.370 L 336.833 71.291 336.833 79.145 M37.498 72.774 C 37.402 73.036,37.291 73.344,37.250 73.458 C 37.152 73.739,37.349 73.721,37.796 73.407 C 38.226 73.106,38.269 72.792,37.919 72.502 C 37.714 72.332,37.643 72.377,37.498 72.774 M50.756 73.958 C 50.696 74.852,50.608 75.790,50.560 76.042 L 50.474 76.500 52.070 76.500 C 52.948 76.500,53.665 76.556,53.664 76.625 C 53.662 76.694,53.478 78.359,53.254 80.326 C 53.030 82.293,52.862 83.911,52.882 83.921 C 52.901 83.932,53.697 84.034,54.650 84.148 C 56.661 84.390,56.543 84.464,56.815 82.775 C 56.920 82.120,57.316 79.983,57.694 78.028 C 58.699 72.832,58.222 72.385,51.641 72.339 L 50.864 72.333 50.756 73.958 M268.250 73.686 C 271.697 74.955,272.731 80.983,269.967 83.702 C 267.597 86.033,263.084 85.470,261.678 82.667 C 258.998 77.323,263.058 71.775,268.250 73.686 M154.613 76.000 C 154.837 76.596,155.158 77.421,155.326 77.833 C 155.494 78.246,155.761 78.921,155.919 79.333 C 156.177 80.007,156.463 80.697,156.627 81.042 C 156.660 81.110,155.482 81.167,154.010 81.167 C 152.367 81.167,151.333 81.103,151.333 81.003 C 151.333 80.913,151.851 79.532,152.483 77.935 C 153.116 76.339,153.689 74.781,153.758 74.474 L 153.883 73.917 154.045 74.417 C 154.134 74.692,154.389 75.404,154.613 76.000 M214.240 76.750 C 214.761 78.136,215.457 79.887,215.763 80.583 L 215.983 81.083 213.385 81.129 C 211.956 81.155,210.751 81.140,210.707 81.096 C 210.663 81.052,211.060 79.907,211.588 78.550 C 212.117 77.193,212.704 75.611,212.893 75.033 L 213.237 73.983 213.519 74.783 C 213.674 75.223,213.999 76.108,214.240 76.750 M284.750 77.500 C 285.263 78.829,285.792 80.163,285.925 80.464 C 286.058 80.765,286.167 81.046,286.167 81.089 C 286.167 81.132,284.967 81.167,283.500 81.167 C 282.033 81.167,280.833 81.118,280.833 81.058 C 280.833 80.892,282.336 77.015,283.102 75.203 C 283.229 74.902,283.338 74.527,283.344 74.369 C 283.358 73.989,283.612 74.555,284.750 77.500 M36.113 75.030 C 35.328 76.188,34.803 78.800,35.133 79.917 L 35.280 80.417 35.792 79.616 C 36.316 78.796,36.628 76.757,36.474 75.167 L 36.417 74.583 36.113 75.030 M37.735 78.750 C 37.735 80.308,37.760 80.968,37.791 80.217 C 37.821 79.465,37.821 78.190,37.791 77.383 C 37.760 76.577,37.735 77.192,37.735 78.750 M30.308 88.736 C 30.156 88.938,29.811 89.591,29.541 90.187 C 28.932 91.530,28.496 91.879,26.772 92.405 C 24.480 93.104,23.405 94.010,21.819 96.576 C 20.831 98.176,20.836 97.997,21.772 98.493 C 22.839 99.059,23.054 99.004,25.195 97.612 C 28.157 95.688,29.920 94.667,31.218 94.127 C 32.808 93.466,32.882 93.385,33.483 91.665 C 34.116 89.850,34.120 89.677,33.533 89.115 C 32.939 88.546,32.897 88.551,32.676 89.223 C 32.575 89.528,32.265 89.996,31.988 90.261 C 31.398 90.827,31.314 90.753,31.012 89.406 C 30.774 88.341,30.674 88.246,30.308 88.736 " stroke="none" fill="#fbfbfb" fill-rule="evenodd"></path><path id="path2" d="M74.627 62.285 C 74.834 62.324,75.134 62.323,75.294 62.281 C 75.453 62.239,75.283 62.207,74.917 62.209 C 74.550 62.211,74.420 62.245,74.627 62.285 M79.353 86.530 C 78.952 86.714,78.187 86.926,77.654 87.002 C 76.601 87.151,72.505 89.722,73.018 89.912 C 73.146 89.959,73.805 90.185,74.483 90.414 C 76.263 91.015,77.138 91.648,78.380 93.234 C 79.669 94.880,80.311 95.406,81.373 95.690 C 82.438 95.975,82.434 96.039,81.500 93.250 C 80.532 90.359,80.492 90.562,81.937 91.012 C 84.059 91.672,83.987 91.621,84.575 92.902 C 85.262 94.399,85.408 94.520,87.375 95.223 C 89.582 96.011,89.598 96.121,86.871 91.750 C 85.083 88.884,85.227 89.033,82.769 87.503 C 80.426 86.045,80.416 86.042,79.353 86.530 M71.154 93.718 C 71.688 95.121,72.156 95.790,72.679 95.894 C 73.753 96.109,73.829 96.008,73.495 94.805 C 73.228 93.842,72.861 93.525,71.871 93.400 L 70.991 93.289 71.154 93.718 " stroke="none" fill="#848384" fill-rule="evenodd"></path><path id="path3" d="M37.500 78.333 C 37.500 80.106,37.535 81.520,37.578 81.477 C 37.692 81.363,37.710 75.321,37.596 75.207 C 37.543 75.154,37.500 76.561,37.500 78.333 M37.889 78.667 C 37.889 79.354,37.919 79.635,37.955 79.292 C 37.991 78.948,37.991 78.385,37.955 78.042 C 37.919 77.698,37.889 77.979,37.889 78.667 " stroke="none" fill="#adabac" fill-rule="evenodd"></path><path id="path4" d="" stroke="none" fill="#8f8c8c" fill-rule="evenodd"></path></g></svg>