<?xml version="1.0" encoding="UTF-8"?>
<svg version="1.1" xmlns="http://www.w3.org/2000/svg" width="1024" height="1024">
<path d="M0 0 C2.87386749 1.29119841 4.59534863 2.78042975 6.82081604 5.01452637 C7.66130997 5.84886703 8.50180389 6.6832077 9.36776733 7.54283142 C10.70710579 8.90372643 10.70710579 8.90372643 12.07350159 10.29211426 C12.99866074 11.21818985 13.92381989 12.14426544 14.87701416 13.09840393 C16.83069932 15.05521166 18.77749737 17.01853844 20.71925354 18.98718262 C23.21200777 21.5140101 25.71782129 24.02737601 28.22842121 26.53645992 C30.61990082 28.92861278 33.00281867 31.3291945 35.38600159 33.72961426 C36.28901505 34.63485336 37.1920285 35.54009247 38.12240601 36.47276306 C38.94713913 37.31025589 39.77187225 38.14774872 40.62159729 39.01062012 C41.35264175 39.74928818 42.08368622 40.48795624 42.83688354 41.24900818 C44.39772034 43.07727051 44.39772034 43.07727051 44.39772034 45.07727051 C45.05772034 45.07727051 45.71772034 45.07727051 46.39772034 45.07727051 C47.72975159 46.46789551 47.72975159 46.46789551 49.21022034 48.32727051 C51.01987943 50.51722028 52.59795158 52.23642868 54.83522034 54.01477051 C56.98355506 55.74391797 58.45668465 57.25437371 60.20240784 59.34289551 C65.26341459 65.18892329 70.7676084 70.59655476 76.24171448 76.05163574 C78.09502068 77.8995423 79.94287104 79.75278554 81.79029846 81.60656738 C82.97552451 82.79113327 84.16106038 83.97538925 85.34693909 85.15930176 C85.89492661 85.70931351 86.44291412 86.25932526 87.00750732 86.82600403 C89.17772307 88.9830049 91.30592394 91.00991922 93.77589417 92.82214355 C94.3110968 93.23633545 94.84629944 93.65052734 95.39772034 94.07727051 C95.39772034 94.73727051 95.39772034 95.39727051 95.39772034 96.07727051 C96.05772034 96.07727051 96.71772034 96.07727051 97.39772034 96.07727051 C98.56136887 97.48049374 99.72068746 98.88751884 100.85865784 100.31164551 C103.08440175 102.86503701 105.64075665 104.95755761 108.21412659 107.15148926 C112.99634242 111.36907853 117.38604143 116.01401009 121.83522034 120.57727051 C125.01532715 123.67981374 128.35053352 126.58767555 131.70240784 129.50305176 C133.76265703 131.47073903 135.54870799 133.38539479 137.38087463 135.54675293 C142.12044238 140.99423278 147.24645701 146.05082935 152.36256409 151.13977051 C153.40653099 152.18186791 154.45027406 153.2241896 155.49380493 154.26672363 C158.21557956 156.98471496 160.94034557 159.6996874 163.66578674 162.41400146 C166.45653107 165.19444069 169.24437904 167.9777808 172.03248596 170.76086426 C177.48476392 176.20247893 182.94021143 181.64090154 188.39772034 187.07727051 C188.46765198 186.52788818 188.53758362 185.97850586 188.6096344 185.41247559 C188.93884574 182.90237146 189.29302651 180.39639542 189.64772034 177.88977051 C189.75729065 177.0254541 189.86686096 176.1611377 189.97975159 175.27062988 C190.51618295 171.58619343 191.24531104 168.43394902 192.71217346 165.00109863 C197.34805644 161.68012064 202.57410119 162.408646 208.11647034 162.48352051 C209.99151245 162.48346008 209.99151245 162.48346008 211.9044342 162.48339844 C214.54808457 162.48876148 217.18952654 162.50371194 219.83277893 162.53527832 C223.21576459 162.57495726 226.59763787 162.57932305 229.98081207 162.57181549 C233.2136251 162.56800282 236.44622755 162.58883089 239.67897034 162.60852051 C241.49938843 162.60882263 241.49938843 162.60882263 243.35658264 162.60913086 C244.48455261 162.62504272 245.61252258 162.64095459 246.77467346 162.65734863 C247.76632507 162.66576782 248.75797668 162.67418701 249.77967834 162.68286133 C252.82570325 163.14174632 254.19735588 163.94875839 256.39772034 166.07727051 C257.27980042 168.86608887 257.27980042 168.86608887 257.85475159 172.47961426 C257.96865738 173.16385971 258.08256317 173.84810516 258.19992065 174.55308533 C258.46222292 176.14187515 258.71651954 177.73199843 258.9646759 179.32305908 C259.44740887 182.39329517 259.95894502 185.45799402 260.47340393 188.52307129 C261.49275517 194.62062576 262.48586954 200.72211163 263.46925354 206.82556152 C264.08907216 210.6636219 264.71697142 214.50030942 265.34498596 218.33703613 C265.74196609 220.79333627 266.13846775 223.24971379 266.53443909 225.70617676 C266.72189194 226.84478653 266.90934479 227.9833963 267.10247803 229.1565094 C267.95970024 234.53095166 268.63019919 239.63375623 268.39772034 245.07727051 C269.05772034 245.07727051 269.71772034 245.07727051 270.39772034 245.07727051 C270.39772034 244.41727051 270.39772034 243.75727051 270.39772034 243.07727051 C271.61817932 241.87585449 271.61817932 241.87585449 273.45631409 240.38586426 C279.78717745 234.99982268 285.56998959 229.05388234 291.43409729 223.17126465 C293.45536301 221.14464071 295.48191607 219.12341503 297.50904846 217.10266113 C306.02502464 208.62183143 306.02502464 208.62183143 313.96852112 199.60974121 C315.45714845 198.01354822 316.95347749 197.05531974 318.79225159 195.89758301 C323.05360835 191.28484 322.16743124 185.99641601 322.08522034 179.95227051 C322.07630288 177.59551331 322.07962991 175.23866851 322.09693909 172.88195801 C322.08493469 171.84023438 322.0729303 170.79851074 322.06056213 169.72521973 C322.39772034 167.07727051 322.39772034 167.07727051 323.72901917 165.27697754 C327.0251819 162.90721255 330.0264694 162.9589041 333.94068909 162.97961426 C335.01383362 162.98283691 336.08697815 162.98605957 337.19264221 162.98937988 C338.31219299 162.99775879 339.43174377 163.0061377 340.58522034 163.01477051 C342.28194885 163.02153809 342.28194885 163.02153809 344.01295471 163.02844238 C346.8079296 163.04023553 349.60279854 163.05669401 352.39772034 163.07727051 C352.67171746 162.47863717 352.94571458 161.88000383 353.22801465 161.26323009 C354.35634982 159.15458421 355.43646189 157.78528756 357.11301136 156.10191727 C357.94514911 155.25918113 357.94514911 155.25918113 358.79409772 154.39942002 C359.40352222 153.79241061 360.01294672 153.1854012 360.64083862 152.55999756 C361.28830447 151.90729503 361.93577031 151.25459251 362.60285634 150.58211112 C364.77751316 148.39243115 366.95928181 146.20997999 369.14112854 144.02746582 C370.70018845 142.4607862 372.25884369 140.89370379 373.81712341 139.32624817 C378.05393104 135.06747494 382.29731313 130.81531217 386.54257607 126.56496906 C389.19264023 123.91126491 391.8414006 121.25626646 394.4897213 118.60082245 C401.82189867 111.24919133 409.15554208 103.89903281 416.49599934 96.55566788 C417.20028254 95.85110332 417.20028254 95.85110332 417.91879369 95.13230513 C418.87062402 94.18010855 419.82245563 93.22791324 420.77428851 92.2757192 C421.48302032 91.56671317 421.48302032 91.56671317 422.20606995 90.84338379 C422.91566774 90.13351518 422.91566774 90.13351518 423.63960084 89.40930578 C431.31174713 81.73361467 438.97207367 74.04624383 446.62728725 66.3536686 C454.48625137 58.45665569 462.35473644 50.56921502 470.23237866 42.69082904 C474.65557468 38.26683821 479.07466112 33.83891858 483.48404884 29.40116119 C487.6287536 25.23038755 491.78513714 21.07162488 495.95093918 16.9219265 C497.48031748 15.39437137 499.00540508 13.86250692 500.52591896 12.32612801 C502.59718061 10.23457335 504.68314232 8.15889954 506.77365112 6.08660889 C507.37638346 5.47067659 507.97911579 4.85474429 508.60011274 4.22014737 C511.03594044 1.83276347 512.72623265 0.20402688 516.13262177 -0.43899536 C519.77804818 0.39187764 521.91676943 2.92759035 524.44142151 5.52160645 C525.02415329 6.10039551 525.60688507 6.67918457 526.20727539 7.2755127 C528.1307759 9.19229942 530.03573612 11.12643839 531.94068909 13.06164551 C533.27301768 14.39822427 534.60630896 15.73384406 535.94052124 17.06854248 C538.73469994 19.86888936 541.52040625 22.67730871 544.29981995 25.49230957 C547.86239404 29.100134 551.44002476 32.69253913 555.02343273 36.27965927 C557.77715042 39.03780702 560.52539162 41.80135517 563.27173805 44.56684113 C564.58918676 45.89316835 565.90771288 47.21842626 567.22733116 48.54259491 C569.07081545 50.39512684 570.90746164 52.25417002 572.74220276 54.11535645 C573.28820129 54.66201965 573.83419983 55.20868286 574.39674377 55.77191162 C576.92192673 58.34743509 579.15241213 60.64986845 580.39772034 64.07727051 C580.11895283 67.71185099 578.3953527 69.44384364 575.86256409 71.94055176 C574.77105042 73.02433105 574.77105042 73.02433105 573.65748596 74.13000488 C572.50796448 75.24858887 572.50796448 75.24858887 571.33522034 76.38977051 C570.22630432 77.49095215 570.22630432 77.49095215 569.09498596 78.61437988 C565.66745619 81.99393023 562.2091 85.27004932 558.52662659 88.37023926 C554.6924207 91.6768539 551.34747424 95.33698394 547.96162415 99.09555054 C542.24690341 105.40819435 536.21952157 111.40529299 530.18995667 117.41540527 C528.19879257 119.40116727 526.21308813 121.39227791 524.22779846 123.38391113 C512.64574013 134.96994428 512.64574013 134.96994428 506.72462463 139.86706543 C505.25622586 141.0606893 505.25622586 141.0606893 504.39772034 143.07727051 C503.73772034 143.07727051 503.07772034 143.07727051 502.39772034 143.07727051 C502.17729065 143.62512207 501.95686096 144.17297363 501.72975159 144.73742676 C499.97901905 147.81276045 497.60824968 150.07885771 495.08522034 152.51477051 C494.37462463 153.21183105 494.37462463 153.21183105 493.64967346 153.92297363 C492.23505648 155.31049809 490.81640522 156.69390558 489.39772034 158.07727051 C487.72968487 159.74256725 486.06281162 161.40902995 484.39772034 163.07727051 C485.22671089 163.06727776 485.22671089 163.06727776 486.07244873 163.05708313 C491.83128535 162.99064568 497.59001285 162.94543509 503.34913635 162.91247559 C505.49761885 162.89740136 507.64607064 162.87693862 509.79444885 162.85095215 C512.88493942 162.81450937 515.97502264 162.79753032 519.06568909 162.78430176 C520.02420273 162.7688179 520.98271637 162.75333405 521.97027588 162.73738098 C526.90459354 162.73613944 530.43949063 162.75933525 534.39772034 166.07727051 C535.630711 168.54325184 535.52641709 170.16046824 535.53194141 172.91931725 C535.53639926 173.94843424 535.5408571 174.97755124 535.54545003 176.0378536 C535.54517349 177.74676698 535.54517349 177.74676698 535.54489136 179.49020386 C535.55040639 181.29550566 535.55040639 181.29550566 535.55603284 183.1372782 C535.56517173 186.48851504 535.56977199 189.83970287 535.57242215 193.19094753 C535.57632074 196.80111899 535.58589929 200.41127621 535.59463501 204.0214386 C535.61441064 212.74446203 535.62446641 221.46748665 535.6333628 230.1905269 C535.63774336 234.29533968 535.64311072 238.40015117 535.64835167 242.50496292 C535.66536403 256.14462453 535.67985959 269.78428533 535.68710041 283.42395592 C535.68901039 286.96464412 535.69093071 290.50533233 535.69288635 294.04602051 C535.69337009 294.92607162 535.69385383 295.80612273 535.69435223 296.71284206 C535.70265775 310.97844337 535.72800341 325.24396097 535.76046703 339.5095257 C535.793503 354.14553064 535.81154598 368.78149299 535.81474465 383.41753542 C535.81691282 391.63930426 535.82570631 399.86095098 535.85120583 408.08268356 C535.87286551 415.082623 535.88098665 422.08241066 535.87123904 429.0823798 C535.86668067 432.65557807 535.86866893 436.22846289 535.88800049 439.80161858 C535.90875627 443.6713341 535.89869089 447.54061299 535.88546753 451.41036987 C535.9019214 453.11259109 535.9019214 453.11259109 535.91870767 454.84920061 C535.91012678 455.8835331 535.90154588 456.91786559 535.89270496 457.98354149 C535.89368177 458.87707844 535.89465858 459.77061539 535.89566499 460.69122922 C535.23488974 463.85751894 533.87388245 465.06645399 531.39772034 467.07727051 C529.15258789 467.57847595 529.15258789 467.57847595 526.67677307 467.57897949 C525.28028786 467.59305092 525.28028786 467.59305092 523.85559082 467.60740662 C522.35857384 467.59055565 522.35857384 467.59055565 520.83131409 467.57336426 C519.80087479 467.57481949 518.77043549 467.57627472 517.70877075 467.57777405 C515.53254872 467.57611535 513.35631493 467.56455742 511.18019104 467.54382324 C507.84399279 467.5148467 504.50938111 467.5232197 501.17311096 467.53625488 C499.05917093 467.53001819 496.94523592 467.52162779 494.83131409 467.51086426 C493.83127853 467.5137999 492.83124298 467.51673553 491.80090332 467.51976013 C490.87306534 467.50707596 489.94522736 467.49439178 488.98927307 467.48132324 C488.17304977 467.47592026 487.35682648 467.47051727 486.51586914 467.46495056 C483.87346605 466.98131741 483.01716078 466.18769822 481.39772034 464.07727051 C480.31084709 460.81665077 480.27459911 458.45337837 480.27746582 455.02192688 C480.27609116 453.75567978 480.27471649 452.48943268 480.27330017 451.18481445 C480.27683932 449.77893043 480.28047413 448.37304664 480.28419495 446.96716309 C480.28447697 445.48890688 480.28431878 444.01065053 480.28375244 442.53239441 C480.28346508 438.51615899 480.289352 434.49995333 480.2963264 430.48372483 C480.30257004 426.28766928 480.30316454 422.09161307 480.30435181 417.89555359 C480.30746213 409.94830384 480.31567152 402.00106782 480.3257013 394.05382413 C480.33687168 385.00677017 480.34237522 375.95971556 480.34739673 366.91265643 C480.35785436 348.30085333 480.37544805 329.68906302 480.39772034 311.07727051 C475.79275674 332.48318621 471.19202376 353.88844052 466.78715515 375.33657837 C463.98165543 388.96784929 461.17388876 402.59786457 457.96022034 416.13977051 C457.62631287 417.56398315 457.62631287 417.56398315 457.28565979 419.01696777 C454.19206826 431.68079974 454.19206826 431.68079974 450.60084534 434.47570801 C447.77119709 435.24834246 445.07426766 435.51140873 442.14772034 435.70227051 C441.07006409 435.77703613 439.99240784 435.85180176 438.88209534 435.92883301 C438.06225159 435.97781738 437.24240784 436.02680176 436.39772034 436.07727051 C436.89272034 436.69602051 437.38772034 437.31477051 437.89772034 437.95227051 C439.39772034 440.07727051 439.39772034 440.07727051 439.39772034 442.07727051 C439.95846252 442.30027832 440.51920471 442.52328613 441.09693909 442.75305176 C444.10219733 444.4827335 445.92078065 446.65881842 448.21022034 449.26477051 C452.69662551 454.28355311 457.32696384 459.12793682 462.08522034 463.88977051 C462.69019348 464.49909424 463.29516663 465.10841797 463.91847229 465.73620605 C466.85519813 468.66418572 469.83605401 471.48305334 472.99320984 474.17254639 C478.06511875 478.59327061 482.79520569 483.33482345 487.54566956 488.0958252 C488.53845994 489.08725755 489.53146228 490.0784777 490.5246582 491.06950378 C493.19804928 493.73837136 495.86831044 496.41034935 498.53784704 499.08307171 C501.33941643 501.88718758 504.14344149 504.6888462 506.94706726 507.49090576 C511.64758593 512.1896109 516.34600477 516.89040799 521.04322815 521.59240723 C526.47303371 527.02766969 531.90645364 532.45929907 537.34173381 537.88908648 C542.01719009 542.56000723 546.69069801 547.23287069 551.36257756 551.9073689 C554.1493494 554.69569905 556.93679095 557.48335069 559.72599411 560.26924896 C562.34336115 562.88373038 564.95827557 565.50064016 567.57130623 568.11945534 C568.98859053 569.53869439 570.40834026 570.95547006 571.82815552 572.37217712 C572.66917313 573.21601456 573.51019073 574.05985199 574.37669373 574.92926025 C575.47555562 576.02868769 575.47555562 576.02868769 576.59661674 577.15032578 C578.39772034 579.07727051 578.39772034 579.07727051 580.39772034 582.07727051 C580.21816234 586.80008626 578.00691954 589.04045858 574.83131409 592.37023926 C574.31717453 592.91206345 573.80303497 593.45388763 573.27331543 594.01213074 C571.32858778 596.04758539 569.36438877 598.06300418 567.39772034 600.07727051 C566.55896362 600.93999573 565.72020691 601.80272095 564.85603333 602.69158936 C559.36287115 608.33312706 553.84035659 613.94431729 548.28820229 619.52780342 C545.58327076 622.2480742 542.88368973 624.97319852 540.19630432 627.71081543 C537.5610296 630.39527625 534.91380904 633.06737428 532.25739861 635.73091698 C531.25521049 636.73980797 530.25727391 637.75294142 529.26379585 638.77041054 C527.88410984 640.18160204 526.48710518 641.57579882 525.08937073 642.96911621 C524.30171829 643.7648555 523.51406586 644.56059479 522.70254517 645.38044739 C519.98268196 647.38282376 518.70103535 647.56827855 515.39772034 647.07727051 C513.18678284 645.60852051 513.18678284 645.60852051 511.02272034 643.57727051 C509.95924377 642.60273926 509.95924377 642.60273926 508.87428284 641.60852051 C506.92530525 639.61650556 505.11475276 637.60781875 503.30397034 635.49523926 C498.56725362 630.02665837 493.40746366 624.97938258 488.27272034 619.88977051 C487.28680656 618.90888856 486.30112813 617.92777002 485.31568909 616.94641113 C483.50316593 615.14196483 481.68906252 613.33916599 479.87379456 611.53747559 C477.37638844 609.05607533 474.88713555 606.56668572 472.39772034 604.07727051 C470.83835092 602.52246234 469.27860597 600.96803073 467.71852112 599.41394043 C463.26259168 594.97402729 458.80888267 590.53189851 454.35678291 586.08814526 C451.67400148 583.41057788 448.99029239 580.73395412 446.30445862 578.05944824 C443.68991676 575.45585587 441.07790141 572.84975232 438.46754074 570.24196815 C437.48059247 569.25684898 436.49277367 568.27260106 435.50401688 567.2892971 C430.43005136 562.24221587 425.49057481 557.15483692 420.83030701 551.72227478 C419.14103827 549.78252877 417.35276289 548.00199305 415.46022034 546.26086426 C414.45861877 545.33177246 414.45861877 545.33177246 413.43678284 544.38391113 C412.76389221 543.76709473 412.09100159 543.15027832 411.39772034 542.51477051 C398.61087076 530.72000409 398.61087076 530.72000409 393.41676331 524.60949707 C385.14553972 515.1178187 376.01631862 506.35002344 367.14723206 497.42175293 C364.72618468 494.98283413 362.31396332 492.53566305 359.90895081 490.08093262 C356.98350416 487.09512718 354.04344298 484.12447115 351.09251022 481.16385841 C349.97828243 480.04111576 348.86916301 478.91327757 347.765522 477.78012657 C341.76025032 471.62285723 337.0019986 467.15456101 328.39772034 465.07727051 C326.88990784 462.84289551 326.88990784 462.84289551 326.27272034 460.32727051 C324.46740903 454.72429984 321.80582602 451.85817077 317.39772034 448.07727051 C316.66166565 447.42242676 315.92561096 446.76758301 315.16725159 446.09289551 C313.25828427 444.4035439 311.33560324 442.73327954 309.39772034 441.07727051 C309.46990784 441.7205127 309.54209534 442.36375488 309.61647034 443.02648926 C310.1678275 448.39456384 310.52754565 453.74392694 310.64772034 459.13977051 C310.67350159 460.22387207 310.69928284 461.30797363 310.72584534 462.42492676 C310.56342346 463.73783691 310.56342346 463.73783691 310.39772034 465.07727051 C307.16328463 467.23356098 306.26418972 467.33214615 302.53077698 467.35192871 C301.54287674 467.36146072 300.5549765 467.37099274 299.53713989 467.3808136 C298.471483 467.37990219 297.40582611 467.37899078 296.30787659 467.37805176 C295.21180588 467.38233688 294.11573517 467.38662201 292.9864502 467.39103699 C290.66724844 467.39678282 288.34802867 467.3972787 286.02882385 467.39294434 C282.4776488 467.38978601 278.92730787 467.41323559 275.37623596 467.43859863 C273.12428389 467.44087172 270.87232957 467.44157508 268.62037659 467.44055176 C267.55674393 467.44976151 266.49311127 467.45897125 265.39724731 467.46846008 C264.40619492 467.46223129 263.41514252 467.4560025 262.39405823 467.44958496 C261.52374466 467.45021439 260.65343109 467.45084381 259.75674438 467.45149231 C256.84362054 466.98937135 255.49515824 466.13417095 253.39772034 464.07727051 C252.69462725 461.19007701 252.23846779 458.57925754 251.91334534 455.64758301 C251.8080249 454.82023651 251.70270447 453.99289001 251.5941925 453.14047241 C251.2620606 450.4961579 250.95500957 447.84957449 250.64772034 445.20227051 C250.42662236 443.42733612 250.20398341 441.65259296 249.97975159 439.87805176 C248.25014961 425.92412231 248.25014961 425.92412231 248.39772034 421.07727051 C234.23889835 419.83727612 234.23889835 419.83727612 221.47975159 424.56945801 C218.44758412 427.46358771 215.96978619 430.77694378 213.39772034 434.07727051 C211.88835967 435.32572392 210.35006575 436.54089761 208.77272034 437.70227051 C204.35148293 441.50234233 203.9542351 445.47347604 203.39772034 451.07727051 C203.12324063 453.39187341 202.83110695 455.70444079 202.52272034 458.01477051 C202.40154846 459.09629395 202.28037659 460.17781738 202.15553284 461.29211426 C201.39772034 464.07727051 201.39772034 464.07727051 199.88990784 465.96008301 C196.73197628 467.3757075 194.31751395 467.20310828 190.8986969 467.08532715 C182.26774636 466.82869773 182.26774636 466.82869773 174.72584534 470.52258301 C172.16535362 472.94640614 169.91716469 475.58371117 167.74562073 478.3572998 C161.94657443 485.75709716 155.27727704 492.35353501 148.62794495 498.97741699 C146.96345756 500.63654371 145.30438587 502.30095102 143.64576721 503.96594238 C138.62861222 508.98600405 133.57845027 513.90967621 128.17921448 518.52282715 C125.09429804 521.21457211 122.21923332 524.1111606 119.33522034 527.01477051 C118.76223206 527.5838916 118.18924377 528.1530127 117.59889221 528.73937988 C114.66443707 531.68043673 111.84930964 534.67797417 109.14601135 537.83337402 C105.58118082 541.92438813 101.82069922 545.76670116 97.96022034 549.57727051 C97.27645325 550.25725098 96.59268616 550.93723145 95.88819885 551.63781738 C93.0003426 554.50952194 90.10648958 557.37515488 87.21315002 560.24133301 C85.08506309 562.35119838 82.96009117 564.46416696 80.83522034 566.57727051 C80.19334778 567.21084473 79.55147522 567.84441895 78.89015198 568.49719238 C75.9249626 571.446521 73.06512577 574.42438797 70.35548401 577.61071777 C64.47346354 584.41692829 57.98469707 590.67623933 51.63600159 597.04211426 C50.93029715 597.75064608 50.2245927 598.45917789 49.49750328 599.18918037 C45.77382204 602.92776727 42.04734139 606.66353581 38.31837463 610.39685059 C34.46810994 614.25263347 30.62723425 618.11763166 26.78840351 621.98479366 C23.82949587 624.96228825 20.86393735 627.93308938 17.8964901 630.902071 C16.47661142 632.32497812 15.05923636 633.75038807 13.64441872 635.17832756 C11.67244076 637.16730676 9.6912772 639.14666523 7.70753479 641.12390137 C7.1251152 641.71553574 6.54269562 642.3071701 5.94262695 642.91673279 C3.1966084 645.63455122 1.27100708 647.53694349 -2.60227966 648.07727051 C-4.47264099 646.93151855 -4.47264099 646.93151855 -6.37181091 645.15148926 C-7.06871033 644.50099609 -7.76560974 643.85050293 -8.48362732 643.18029785 C-11.851383 639.83737927 -15.08642249 636.38974961 -18.28977966 632.88977051 C-23.37442667 627.4120592 -28.52814021 622.18803135 -34.07859802 617.18371582 C-39.74865903 612.02267264 -45.23143015 606.66991818 -50.68528748 601.28237915 C-51.79103332 600.19280735 -52.90038407 599.10688115 -54.01341248 598.02474976 C-55.58945595 596.49080778 -57.15186679 594.94412401 -58.71165466 593.39367676 C-60.08789001 592.03931519 -60.08789001 592.03931519 -61.4919281 590.65759277 C-63.68539008 587.97565158 -64.48498811 586.51952275 -64.60227966 583.07727051 C-63.00662004 581.15507294 -61.46958293 579.71260737 -59.60227966 578.07727051 C-58.1280658 576.63102183 -56.66275409 575.17567244 -55.20384216 573.71398926 C-54.39431091 572.90896973 -53.58477966 572.1039502 -52.75071716 571.27453613 C-51.5016156 570.03220215 -51.5016156 570.03220215 -50.22727966 568.76477051 C-48.98977966 567.53983887 -48.98977966 567.53983887 -47.72727966 566.29016113 C-46.91517029 565.48127441 -46.10306091 564.6723877 -45.26634216 563.83898926 C-44.53882751 563.11671143 -43.81131287 562.39443359 -43.06175232 561.65026855 C-41.74920466 560.27713575 -40.4469917 558.89049512 -39.23258591 557.42984676 C-34.57349899 551.83732403 -29.32186191 547.14619216 -23.80563593 542.41383696 C-20.90589035 539.92149651 -18.02807539 537.40409597 -15.15046692 534.88626099 C-14.53842911 534.35076158 -13.9263913 533.81526217 -13.29580688 533.2635355 C-0.36752607 521.92272003 12.24961644 510.2372953 24.77272034 498.45227051 C25.79921031 497.48749503 25.79921031 497.48749503 26.84643745 496.50322914 C73.24033311 454.40134665 73.24033311 454.40134665 90.88976479 396.54015541 C90.90036526 391.27779489 90.59240855 386.06914311 90.14772034 380.82727051 C90.06084709 379.80200005 89.97397385 378.77672958 89.88446808 377.72039032 C88.72908496 365.22979292 86.52555158 353.21660884 83.39772034 341.07727051 C72.50772034 341.07727051 61.61772034 341.07727051 50.39772034 341.07727051 C50.40819397 344.72177246 50.4186676 348.36627441 50.42945862 352.12121582 C50.46256163 364.14724896 50.48477711 376.17327889 50.50134468 388.19934464 C50.51165898 395.49249849 50.52572223 402.78560919 50.54859924 410.07873535 C50.56852844 416.43513351 50.58143566 422.79150042 50.58589733 429.14792895 C50.58850551 432.51387319 50.59463902 435.87972802 50.60918045 439.24564362 C50.62364598 443.00239925 50.62570033 446.75896818 50.62477112 450.51574707 C50.63555695 452.19133446 50.63555695 452.19133446 50.64656067 453.90077209 C50.64381134 454.92438339 50.64106201 455.94799469 50.63822937 457.00262451 C50.64099475 458.33553717 50.64099475 458.33553717 50.64381599 459.69537735 C50.37643621 462.28327382 49.7891756 463.88932037 48.39772034 466.07727051 C45.93548219 467.30838958 44.29024128 467.21733754 41.53663635 467.23840332 C40.52541214 467.24801086 39.51418793 467.25761841 38.47232056 467.26751709 C37.37649155 467.27176697 36.28066254 467.27601685 35.15162659 467.28039551 C34.02957321 467.28609558 32.90751984 467.29179565 31.75146484 467.29766846 C29.37501471 467.30712639 26.99855141 467.31365558 24.62208557 467.31750488 C20.97870658 467.32722121 17.33588897 467.35824217 13.69264221 467.38977051 C11.38730703 467.39629925 9.08196781 467.40155022 6.77662659 467.40539551 C5.68282181 467.41774231 4.58901703 467.43008911 3.46206665 467.44281006 C2.44769028 467.43980896 1.4333139 467.43680786 0.38819885 467.43371582 C-0.50511642 467.43736145 -1.3984317 467.44100708 -2.31881714 467.44476318 C-5.15652416 466.98807229 -5.8618746 466.33360137 -7.60227966 464.07727051 C-7.97947782 461.7973423 -7.97947782 461.7973423 -7.9825964 459.06253052 C-7.99103634 458.02035559 -7.99947628 456.97818066 -8.00817198 455.90442467 C-8.00216193 454.75570696 -7.99615188 453.60698925 -7.98995972 452.42346191 C-7.99534525 451.20611673 -8.00073079 449.98877155 -8.00627953 448.73453712 C-8.01813999 445.34926831 -8.0164741 441.96448972 -8.00911272 438.57923985 C-8.0043957 434.93091584 -8.01687779 431.2826454 -8.02713013 427.63433838 C-8.04435193 420.48486347 -8.04515122 413.33547631 -8.03991722 406.18598604 C-8.03588084 400.37705371 -8.03731273 394.56814739 -8.04266548 388.75921631 C-8.0434139 387.9334313 -8.04416233 387.10764629 -8.04493343 386.25683749 C-8.04646485 384.57943328 -8.0480032 382.90202907 -8.04954839 381.22462487 C-8.06328548 365.4841733 -8.0578271 349.74377138 -8.04636318 334.00332093 C-8.03642778 319.59160151 -8.04937461 305.18001041 -8.07329737 290.76831079 C-8.09765774 275.98197568 -8.10730391 261.19570041 -8.10064465 246.40934563 C-8.09714582 238.10324243 -8.09942815 229.79723798 -8.11689568 221.4911499 C-8.13157939 214.42092178 -8.13230349 207.35086195 -8.11482476 200.28063726 C-8.10628086 196.67111435 -8.10424705 193.06189257 -8.11947632 189.45238495 C-8.13575825 185.54512682 -8.12124862 181.63833914 -8.10348511 177.7310791 C-8.11789262 176.00800254 -8.11789262 176.00800254 -8.13259119 174.25011635 C-8.11786975 172.68685395 -8.11786975 172.68685395 -8.10285091 171.0920105 C-8.10274358 170.18952261 -8.10263624 169.28703472 -8.10252565 168.35719872 C-7.60227966 166.07727051 -7.60227966 166.07727051 -5.80018097 164.29087257 C-2.51027919 162.47430712 0.77748781 162.59700748 4.44459534 162.56555176 C5.21579712 162.54760056 5.9869989 162.52964935 6.78157043 162.51115417 C9.23689866 162.45711282 11.6920332 162.42317631 14.14772034 162.38977051 C15.815716 162.35659186 17.48368613 162.32210169 19.15162659 162.28625488 C23.23351794 162.20139028 27.31535248 162.13455024 31.39772034 162.07727051 C30.69976664 161.3806995 30.69976664 161.3806995 29.98771286 160.67005634 C18.65899346 149.36343428 7.33305388 138.05403615 -3.98981094 126.7415514 C-9.46555715 121.27095851 -14.94223527 115.80130473 -20.42112732 110.3338623 C-25.1972738 105.56769212 -29.97165187 100.79975875 -34.74392676 96.0297119 C-37.2701754 93.50476536 -39.79729262 90.98070232 -42.32653046 88.45874977 C-45.1519795 85.64137309 -47.9734785 82.8200609 -50.79466248 79.99841309 C-51.63119858 79.16547226 -52.46773468 78.33253143 -53.32962036 77.47434998 C-55.44016167 75.36004656 -57.52708699 73.22618965 -59.60227966 71.07727051 C-60.46456177 70.19202194 -61.32684387 69.30677338 -62.21525574 68.3946991 C-63.60227966 66.07727051 -63.60227966 66.07727051 -63.69865417 63.15257263 C-62.29030358 59.20218566 -59.98850295 56.75509733 -57.06028748 53.87243652 C-56.48295868 53.28473984 -55.90562988 52.69704315 -55.31080627 52.09153748 C-53.40485041 50.15854453 -51.48113817 48.24445255 -49.55540466 46.33117676 C-48.22293606 44.99279963 -46.89113779 43.65375482 -45.5599823 42.31407166 C-42.77045144 39.51266698 -39.97183588 36.72074532 -37.16673279 33.93493652 C-33.56870298 30.35983124 -29.99615699 26.7604236 -26.43021011 23.15335178 C-23.68706556 20.38467021 -20.93003109 17.63016299 -18.16864777 14.87968254 C-16.84518 13.55770404 -15.52630713 12.23110912 -14.21212006 10.89990425 C-12.37606348 9.0439465 -10.52198581 7.20812279 -8.66184998 5.37634277 C-8.12035309 4.82112946 -7.5788562 4.26591614 -7.02095032 3.69387817 C-3.31300584 0.09837438 -3.31300584 0.09837438 0 0 Z M2.39772034 172.07727051 C2.39772034 266.45727051 2.39772034 360.83727051 2.39772034 458.07727051 C15.26772034 458.07727051 28.13772034 458.07727051 41.39772034 458.07727051 C41.42277649 454.3261792 41.44783264 450.57508789 41.47364807 446.71032715 C41.55693728 434.3489528 41.64559613 421.98762194 41.73705959 409.62630558 C41.79240882 402.12796166 41.84589355 394.62961298 41.89503479 387.13122559 C41.93785587 380.59793563 41.98412852 374.06468095 42.03459889 367.53144544 C42.06121663 364.07007318 42.08607003 360.60870798 42.10679436 357.147295 C42.12995733 353.28935199 42.16082412 349.43149222 42.19239807 345.5736084 C42.19815353 344.4177121 42.203909 343.2618158 42.20983887 342.07089233 C42.22452209 340.50379768 42.22452209 340.50379768 42.23950195 338.90504456 C42.2459545 337.99154771 42.25240705 337.07805086 42.25905514 336.13687229 C42.39772034 334.07727051 42.39772034 334.07727051 43.39772034 333.07727051 C52.39239242 331.75357355 61.59228313 331.8909932 70.66456604 331.89196777 C72.98790353 331.88974401 75.31079218 331.87140689 77.63404846 331.85266113 C79.1190729 331.84973288 80.60409956 331.84774429 82.08912659 331.84680176 C82.77970657 331.83961624 83.47028656 331.83243073 84.18179321 331.82502747 C87.82306046 331.84248425 89.2769859 331.99678088 92.39772034 334.07727051 C92.71364902 336.97507073 92.83508535 339.66365821 92.83009338 342.56604004 C92.84538086 343.88321014 92.84538086 343.88321014 92.86097717 345.22698975 C92.89124321 348.13808458 92.90039379 351.04885114 92.90943909 353.96008301 C92.9262757 355.97505804 92.94442454 357.9900225 92.96383667 360.00497437 C93.01145337 365.31500954 93.04118714 370.62500189 93.067276 375.93518066 C93.09702279 381.35111962 93.1435732 386.76691079 93.18873596 392.18273926 C93.27490178 402.81417256 93.34218785 413.44563617 93.39772034 424.07727051 C93.82064928 423.70112799 94.24357822 423.32498547 94.6793232 422.93744469 C97.64751746 420.33953815 100.60886545 417.85969076 103.88084412 415.65188599 C116.39007801 407.17678938 128.62260812 396.70701272 132.25917053 381.47558594 C135.30404381 364.83150742 134.94029725 347.79192221 134.59403014 330.94306016 C134.50544212 325.89785244 134.58664728 320.87517673 134.76148987 315.8326416 C136.50807217 277.99168856 136.50807217 277.99168856 119.73241234 245.36384773 C112.11931639 237.47797105 103.65410179 229.99898367 94.39772034 224.07727051 C94.06772034 224.07727051 93.73772034 224.07727051 93.39772034 224.07727051 C93.06772034 247.83727051 92.73772034 271.59727051 92.39772034 296.07727051 C67.64772034 295.58227051 67.64772034 295.58227051 42.39772034 295.07727051 C41.90272034 234.19227051 41.90272034 234.19227051 41.39772034 172.07727051 C28.52772034 172.07727051 15.65772034 172.07727051 2.39772034 172.07727051 Z M200.39772034 173.07727051 C198.41772034 184.46227051 198.41772034 184.46227051 196.39772034 196.07727051 C198.37772034 197.72727051 200.35772034 199.37727051 202.39772034 201.07727051 C203.52891658 202.28380314 204.62895436 203.52098681 205.68263245 204.79577637 C209.82349649 209.6427585 214.31122357 214.09790523 218.83912659 218.58117676 C219.72502975 219.4632933 220.61093292 220.34540985 221.52368164 221.2542572 C224.33343405 224.05187733 227.14630636 226.84633801 229.96022034 229.63977051 C233.67292878 233.32549244 237.38196377 237.01487662 241.08912659 240.70617676 C241.93302444 241.54177628 242.7769223 242.37737579 243.64639282 243.23829651 C248.11957894 247.69296187 252.36599378 252.21843963 256.39772034 257.07727051 C258.37772034 256.08727051 258.37772034 256.08727051 260.39772034 255.07727051 C256.52220591 227.72395031 252.58901412 200.38418454 248.39772034 173.07727051 C232.55772034 173.07727051 216.71772034 173.07727051 200.39772034 173.07727051 Z M331.39772034 173.07727051 C331.39772034 176.37727051 331.39772034 179.67727051 331.39772034 183.07727051 C332.49084534 182.16977051 333.58397034 181.26227051 334.71022034 180.32727051 C335.32510315 179.81680176 335.93998596 179.30633301 336.57350159 178.78039551 C338.7572785 176.8413361 338.7572785 176.8413361 341.39772034 173.07727051 C338.09772034 173.07727051 334.79772034 173.07727051 331.39772034 173.07727051 Z M473.39772034 173.07727051 C469.48189238 177.85024899 469.48189238 177.85024899 467.90553284 183.15148926 C467.66480042 184.21802734 467.42406799 185.28456543 467.17604065 186.38342285 C466.91919495 187.60239258 466.66234924 188.8213623 466.39772034 190.07727051 C466.09935087 191.45311319 465.80084083 192.82892539 465.50221252 194.20471191 C464.38350928 199.42458407 463.32462444 204.65608379 462.27272034 209.88977051 C462.07017639 210.89420197 461.86763245 211.89863342 461.65895081 212.9335022 C454.30244262 249.60346499 447.99866283 286.48543856 441.48538399 323.31212234 C441.18549113 325.00464964 440.88458342 326.69699752 440.58253288 328.38914108 C439.97009007 331.821261 439.3688463 335.25297182 438.80348206 338.69326782 C438.63735413 339.68825287 438.4712262 340.68323792 438.30006409 341.70837402 C438.16978821 342.52475845 438.03951233 343.34114288 437.9052887 344.18226624 C437.39772034 346.07727051 437.39772034 346.07727051 435.39772034 348.07727051 C432.77272034 348.20227051 432.77272034 348.20227051 430.39772034 348.07727051 C427.44075979 340.1293771 425.94454376 332.04157432 424.47193909 323.72180176 C424.19979535 322.2145773 423.92697883 320.70747418 423.65353394 319.20048523 C422.93509567 315.23300467 422.22406519 311.26423621 421.51515198 307.29504395 C420.25929523 300.26909237 418.99154097 293.24528048 417.72193909 286.22180176 C417.51622095 285.08160269 417.51622095 285.08160269 417.30634689 283.91836929 C414.53829433 268.59660496 411.52355591 253.32994506 408.39772034 238.07727051 C404.48337343 241.3769024 400.65730334 244.69232225 397.06568909 248.34680176 C396.33027893 249.08994629 395.59486877 249.83309082 394.83717346 250.59875488 C394.09402893 251.35479004 393.3508844 252.1108252 392.58522034 252.88977051 C391.08102586 254.41939515 389.57462584 255.94685506 388.06568909 257.47180176 C387.40850891 258.1405835 386.75132874 258.80936523 386.07423401 259.49841309 C384.39772034 261.07727051 384.39772034 261.07727051 382.39772034 262.07727051 C383.84880025 274.25998925 386.45045345 286.12802231 389.08912659 298.09680176 C389.55838814 300.24292144 390.02720468 302.38913846 390.49560547 304.53544617 C391.72887878 310.18078424 392.9681914 315.82477954 394.20881653 321.46850586 C395.68052511 328.16943614 397.14492666 334.87196781 398.60928917 341.57450676 C399.80769502 347.05652044 401.0111834 352.53732081 402.22575378 358.01577759 C404.30542138 367.41093518 406.36639562 376.80499623 408.24810505 386.24212742 C409.00882217 390.05219955 409.7901194 393.85792619 410.57259941 397.66357994 C410.92713991 399.42025216 411.27091095 401.17913917 411.60283089 402.9402256 C413.85326127 415.14341657 413.85326127 415.14341657 421.25210571 424.87458801 C425.5715192 427.29575113 430.09716453 426.90229316 434.89772034 426.57727051 C436.77063063 426.48525427 438.64369081 426.39625757 440.51686096 426.30969238 C441.43809753 426.26582397 442.35933411 426.22195557 443.30848694 426.17675781 C444.34265747 426.1275116 444.34265747 426.1275116 445.39772034 426.07727051 C451.08497093 401.29270359 456.71401267 376.49513256 462.29660988 351.68678284 C463.49852827 346.34568801 464.70207227 341.00497205 465.90968323 335.66516113 C467.33871686 329.34523687 468.76325867 323.02431656 470.18287659 316.70227051 C470.41101673 315.68630798 470.63915688 314.67034546 470.87421036 313.62359619 C474.26328658 298.49626935 477.45294788 283.33892896 480.37796021 268.11486816 C480.50996637 267.4336087 480.64197254 266.75234924 480.7779789 266.05044556 C481.12733681 264.24302632 481.47147177 262.43459969 481.81518555 260.62609863 C482.39772034 258.07727051 482.39772034 258.07727051 483.39772034 257.07727051 C485.06389149 257.03663219 486.73160129 257.03454951 488.39772034 257.07727051 C489.94927091 260.18037166 489.55160278 263.46595633 489.55593872 266.87258911 C489.56334569 268.09409277 489.56334569 268.09409277 489.57090229 269.34027326 C489.58632837 272.08414651 489.5946517 274.82799628 489.6030426 277.57189941 C489.61261711 279.53276274 489.62262694 281.49362399 489.63304138 283.45448303 C489.66014279 288.79095798 489.68112395 294.12744183 489.70104337 299.46394777 C489.7228707 305.0360302 489.75027526 310.60808506 489.77709961 316.18014526 C489.82707059 326.73756345 489.87199304 337.2949969 489.91512197 347.85244501 C489.96445676 359.86920962 490.0193888 371.88594657 490.07480156 383.90268445 C490.18868922 408.62752087 490.29531489 433.3523841 490.39772034 458.07727051 C502.27772034 458.07727051 514.15772034 458.07727051 526.39772034 458.07727051 C526.39772034 364.02727051 526.39772034 269.97727051 526.39772034 173.07727051 C508.90772034 173.07727051 491.41772034 173.07727051 473.39772034 173.07727051 Z M50.39772034 181.07727051 C50.39772034 215.72727051 50.39772034 250.37727051 50.39772034 286.07727051 C61.28772034 286.07727051 72.17772034 286.07727051 83.39772034 286.07727051 C83.54321648 273.42693549 83.54321648 273.42693549 83.64186096 260.77648926 C83.67171944 255.61460588 83.70699293 250.4531671 83.7749176 245.29162598 C83.8293534 241.12891401 83.85916501 236.96667896 83.87210655 232.80363846 C83.88132583 231.21760172 83.89932949 229.63159029 83.92637062 228.04575729 C83.9628178 225.81920285 83.9676596 223.59460391 83.96534729 221.36779785 C83.97645035 220.10204926 83.98755341 218.83630066 83.99899292 217.53219604 C83.2027467 212.9569477 81.68292381 211.30515468 78.39772034 208.07727051 C77.73772034 208.07727051 77.07772034 208.07727051 76.39772034 208.07727051 C76.15408752 207.50492676 75.91045471 206.93258301 75.65943909 206.34289551 C74.17254736 203.67293512 72.41688126 201.93898044 70.21022034 199.82727051 C66.6972769 196.4097265 63.46365959 192.91539006 60.39381409 189.09680176 C57.39087386 186.05860196 53.8151634 183.64035281 50.39772034 181.07727051 Z M452.83522034 192.45227051 C451.87422424 193.39199707 451.87422424 193.39199707 450.89381409 194.35070801 C449.17943186 195.94842202 449.17943186 195.94842202 449.39772034 198.07727051 C448.73772034 198.07727051 448.07772034 198.07727051 447.39772034 198.07727051 C445.6972423 199.84668685 444.1896628 201.74170475 442.63990784 203.64367676 C438.83853391 207.76955821 434.49056726 211.29818635 430.22047424 214.92810059 C428.03366882 216.81460699 425.9024058 218.75168108 423.77272034 220.70227051 C423.02893127 221.3248877 422.28514221 221.94750488 421.51881409 222.58898926 C418.33977845 225.56674517 416.45200614 227.53411302 416.29469299 232.00598145 C416.80321554 235.43110677 417.55725145 238.71871323 418.39772034 242.07727051 C418.81920435 244.3040837 419.22788124 246.53335581 419.62428284 248.76477051 C420.0889879 251.2025456 420.55521352 253.64003118 421.02272034 256.07727051 C423.71434716 270.22479289 426.26019498 284.39694429 428.77272034 298.57727051 C428.95361206 299.59804688 429.13450378 300.61882324 429.32087708 301.67053223 C430.34855687 307.47241449 431.37405553 313.27467857 432.39772034 319.07727051 C432.72772034 319.07727051 433.05772034 319.07727051 433.39772034 319.07727051 C433.4915802 318.4722168 433.58544006 317.86716309 433.68214417 317.24377441 C439.60352107 279.55357758 446.67743249 241.93406762 455.11183167 204.72546387 C455.26866425 204.026651 455.42549683 203.32783813 455.58708191 202.60784912 C455.99898783 200.77774936 456.41810862 198.94927742 456.83790588 197.12097168 C457.34740207 194.35085001 457.51206857 191.88355301 457.39772034 189.07727051 C455.46430087 189.07727051 454.12307907 191.17742045 452.83522034 192.45227051 Z M139.39772034 269.07727051 C139.39772034 305.04727051 139.39772034 341.01727051 139.39772034 378.07727051 C145.32739457 372.9984562 145.32739457 372.9984562 150.94850159 367.65930176 C151.72902893 366.88006348 152.50955627 366.1008252 153.31373596 365.29797363 C154.10457581 364.5032666 154.89541565 363.70855957 155.71022034 362.88977051 C156.52039612 362.08346191 157.3305719 361.27715332 158.16529846 360.44641113 C158.93938049 359.67104004 159.71346252 358.89566895 160.51100159 358.09680176 C161.21007629 357.39659912 161.909151 356.69639648 162.62940979 355.97497559 C165.37158621 353.03214288 166.6544735 350.66874371 167.37501526 346.77697754 C167.5382579 345.9124295 167.70150055 345.04788147 167.86968994 344.15713501 C168.03749466 343.22585785 168.20529938 342.29458069 168.37818909 341.33508301 C168.55529922 340.37456024 168.73240936 339.41403748 168.91488647 338.42440796 C169.28730334 336.39251275 169.65608235 334.35994791 170.02149963 332.32678223 C170.58217588 329.21914487 171.1600979 326.11505457 171.73951721 323.01086426 C172.09929347 321.03579524 172.45805125 319.06054036 172.81568909 317.08508301 C173.0765052 315.69423996 173.0765052 315.69423996 173.34259033 314.27529907 C174.48199464 308.14608516 174.48199464 308.14608516 173.39772034 302.07727051 C172.04650844 300.49437711 172.04650844 300.49437711 170.27272034 299.26477051 C167.63175133 297.19435112 165.42638201 295.07297585 163.27272034 292.50305176 C158.92570902 287.45586236 154.24164819 282.77455191 149.52272034 278.07727051 C148.65647034 277.20715332 147.79022034 276.33703613 146.89772034 275.44055176 C146.07529846 274.61941895 145.25287659 273.79828613 144.40553284 272.95227051 C143.65932678 272.20719238 142.91312073 271.46211426 142.14430237 270.69445801 C140.67214349 268.96403652 140.67214349 268.96403652 139.39772034 269.07727051 Z M349.58424377 293.74133301 C340.77585709 302.85944584 333.60392064 310.9334125 333.14772034 324.07727051 C333.71309266 340.36654847 345.57951899 350.82445848 356.77723694 361.37902832 C363.92026744 369.22243043 363.92026744 369.22243043 372.39772034 374.07727051 C372.39772034 341.07727051 372.39772034 308.07727051 372.39772034 274.07727051 C366.00871674 274.07727051 353.93002922 289.40794542 349.58424377 293.74133301 Z M382.39772034 306.07727051 C381.95375947 316.04760692 381.61810046 326.01552807 381.41328907 335.99380207 C381.31487793 340.62995668 381.18196998 345.25926706 380.96437073 349.89147949 C379.10941422 371.97376693 379.10941422 371.97376693 386.71168518 391.85998535 C391.0979458 396.62512372 395.93824262 400.60131917 401.39772034 404.07727051 C402.60735109 400.44837825 402.10400391 398.75224138 401.30543518 395.03063965 C401.04120758 393.77985123 400.77697998 392.52906281 400.50474548 391.2403717 C400.20606244 389.86438727 399.90736617 388.4884057 399.60865784 387.11242676 C399.30451413 385.68180732 399.00119459 384.25101245 398.69865417 382.8200531 C397.8949801 379.02684848 397.0827602 375.23553055 396.26795959 371.44470215 C394.83010783 364.75268415 393.40298514 358.05839676 391.98365784 351.36242676 C391.82960228 350.63690235 391.67554672 349.91137794 391.51682281 349.16386795 C388.4861557 334.85606531 385.84601506 320.49642635 383.39772034 306.07727051 C383.06772034 306.07727051 382.73772034 306.07727051 382.39772034 306.07727051 Z M182.39772034 313.07727051 C181.69649018 316.65805831 181.01414454 320.24219221 180.33522034 323.82727051 C180.13606018 324.84305176 179.93690002 325.85883301 179.73170471 326.90539551 C179.54801331 327.88508301 179.3643219 328.86477051 179.17506409 329.87414551 C178.91584167 331.22524414 178.91584167 331.22524414 178.65138245 332.6036377 C178.39751334 335.0792891 178.62901394 336.730441 179.39772034 339.07727051 C181.74318731 336.81868918 184.0718406 334.54350403 186.39772034 332.26477051 C187.06545471 331.62217285 187.73318909 330.9795752 188.42115784 330.31750488 C189.05279846 329.69553223 189.68443909 329.07355957 190.33522034 328.43273926 C190.92174377 327.86192627 191.50826721 327.29111328 192.11256409 326.70300293 C193.70779261 325.03041831 193.70779261 325.03041831 193.39772034 322.07727051 C191.73903661 320.23679909 191.73903661 320.23679909 189.58522034 318.51477051 C188.87752502 317.91535645 188.16982971 317.31594238 187.44068909 316.69836426 C185.28865209 314.94485418 185.28865209 314.94485418 182.39772034 313.07727051 Z M324.33522034 321.07727051 C323.69584534 321.73727051 323.05647034 322.39727051 322.39772034 323.07727051 C323.05772034 324.39727051 323.71772034 325.71727051 324.39772034 327.07727051 C325.05772034 327.07727051 325.71772034 327.07727051 326.39772034 327.07727051 C326.72772034 327.73727051 327.05772034 328.39727051 327.39772034 329.07727051 C327.39772034 325.77727051 327.39772034 322.47727051 327.39772034 319.07727051 C326.03854353 318.9612462 326.03854353 318.9612462 324.33522034 321.07727051 Z M254.56593323 390.6661377 C253.47913269 391.75910156 253.47913269 391.75910156 252.37037659 392.87414551 C251.57824768 393.66820801 250.78611877 394.46227051 249.96998596 395.28039551 C249.14176331 396.12086426 248.31354065 396.96133301 247.46022034 397.82727051 C246.63586487 398.65227051 245.8115094 399.47727051 244.96217346 400.32727051 C241.50442171 403.81030233 238.35115294 407.13936038 235.39772034 411.07727051 C242.32772034 411.40727051 249.25772034 411.73727051 256.39772034 412.07727051 C256.74705627 414.9789502 257.09639221 417.88062988 257.45631409 420.87023926 C257.79674989 423.68678354 258.13785237 426.50324633 258.47901917 429.31970215 C258.71539372 431.274045 258.95107731 433.22847155 259.18605042 435.1829834 C259.5243113 437.99562624 259.86507255 440.80795668 260.20631409 443.62023926 C260.3105217 444.49125778 260.41472931 445.36227631 260.52209473 446.25968933 C260.67213707 447.49039909 260.67213707 447.49039909 260.82521057 448.74597168 C260.91181442 449.46322922 260.99841827 450.18048676 261.08764648 450.91947937 C261.43265533 453.32038169 261.92202801 455.69880885 262.39772034 458.07727051 C275.26772034 458.07727051 288.13772034 458.07727051 301.39772034 458.07727051 C300.77897034 453.56039551 300.16022034 449.04352051 299.52272034 444.38977051 C299.33210022 442.97349365 299.1414801 441.5572168 298.94508362 440.09802246 C298.78765686 438.97355713 298.6302301 437.8490918 298.46803284 436.69055176 C298.31092834 435.54368896 298.15382385 434.39682617 297.99195862 433.21520996 C296.64392453 426.09677031 293.42990523 422.6887831 288.37818909 417.72961426 C287.33481133 416.68904625 287.33481133 416.68904625 286.27035522 415.62745667 C284.80027701 414.16408959 283.32661093 412.7043192 281.84962463 411.2479248 C279.59681365 409.02620383 277.35478503 406.79405375 275.11451721 404.55969238 C273.68219387 403.13654271 272.24927069 401.71399644 270.81568909 400.29211426 C270.14780869 399.62848373 269.47992828 398.96485321 268.79180908 398.28111267 C262.38015494 390.53939738 262.38015494 390.53939738 254.56593323 390.6661377 Z M191.39772034 454.07727051 C189.91272034 456.05727051 189.91272034 456.05727051 188.39772034 458.07727051 C189.71772034 458.07727051 191.03772034 458.07727051 192.39772034 458.07727051 C192.06772034 456.75727051 191.73772034 455.43727051 191.39772034 454.07727051 Z " fill="#020202" transform="translate(255.60227966308594,167.9227294921875)"/>
<path d="M0 0 C15.90568845 13.07584204 22.7366552 33.56226775 24.8059082 53.46801758 C25.18496473 58.41291729 25.22568443 63.35516305 25.25 68.3125 C25.2809375 69.91834961 25.2809375 69.91834961 25.3125 71.55664062 C25.32023437 73.10061523 25.32023437 73.10061523 25.328125 74.67578125 C25.3374707 75.60302002 25.34681641 76.53025879 25.35644531 77.4855957 C24.91800087 80.57843085 24.28665342 81.8671749 22 84 C17.01200185 85.41616569 11.70751398 85.17753613 6.55078125 85.203125 C5.20913155 85.21167511 5.20913155 85.21167511 3.84037781 85.22039795 C1.9586199 85.22980658 0.07684581 85.23636539 -1.80493164 85.24023438 C-4.68860029 85.25000373 -7.57157452 85.28109089 -10.45507812 85.3125 C-12.28645412 85.31902472 -14.11783518 85.32427727 -15.94921875 85.328125 C-16.81173752 85.3404718 -17.67425629 85.3528186 -18.56291199 85.36553955 C-19.36417007 85.36253845 -20.16542816 85.35953735 -20.9909668 85.35644531 C-21.69456833 85.36009094 -22.39816986 85.36373657 -23.12309265 85.36749268 C-25.57778804 84.88687088 -26.46499849 83.93591274 -28 82 C-28.4765625 79.83032227 -28.4765625 79.83032227 -28.625 77.31640625 C-28.68993652 76.39400146 -28.75487305 75.47159668 -28.82177734 74.52124023 C-28.88059082 73.54485596 -28.9394043 72.56847168 -29 71.5625 C-29.70603453 56.09029589 -29.70603453 56.09029589 -37 43 C-37 42.34 -37 41.68 -37 41 C-43.82265762 39.46020755 -50.93930255 38.74292783 -57.5 41.4375 C-64.39419981 48.5040548 -65.26134494 57.51436157 -65.24658203 66.92993164 C-65.1582737 72.2616982 -64.67500014 76.38967779 -62 81 C-61.39671875 82.04994141 -61.39671875 82.04994141 -60.78125 83.12109375 C-56.88408787 89.3673786 -51.99569659 94.62548281 -47 100 C-46.15308594 100.95003906 -45.30617188 101.90007812 -44.43359375 102.87890625 C-39.37873957 108.54373271 -34.11637695 113.83459348 -28.48291016 118.92822266 C-23.04402667 123.88174646 -17.82984764 129.05228164 -12.625 134.25 C-11.78074463 135.08982422 -10.93648926 135.92964844 -10.06665039 136.79492188 C13.70425479 160.61997491 26.92391091 184.03634005 27.3125 217.9375 C27.23009731 239.48786358 21.65744529 259.52901687 6.25 275.25 C-10.1359346 291.30913503 -30.67651549 296.06702311 -53 296 C-73.7039127 295.24539372 -92.44387816 287.94811794 -107 273 C-123.84340318 254.65340981 -126.05681525 227.91106569 -126.36328125 204.1953125 C-126 201 -126 201 -124.96875 199.09765625 C-121.85868048 197.36366908 -118.66644073 197.41377493 -115.1875 197.3125 C-114.38304443 197.28124023 -113.57858887 197.24998047 -112.74975586 197.21777344 C-109.83332142 197.11990471 -106.91752165 197.05707617 -104 197 C-102.75702148 196.97276855 -101.51404297 196.94553711 -100.23339844 196.91748047 C-96.85399729 196.84818132 -93.47483723 196.80222598 -90.09487915 196.77084351 C-88.74356801 196.75698484 -87.3922952 196.73863717 -86.04110718 196.71572876 C-84.12263413 196.68583148 -82.20385096 196.6784565 -80.28515625 196.671875 C-79.17019775 196.6625293 -78.05523926 196.65318359 -76.90649414 196.64355469 C-73.6038364 197.04858453 -72.24367134 197.55073327 -70 200 C-69.39404297 202.40087891 -69.39404297 202.40087891 -69.2421875 205.2265625 C-69.13970703 206.77537109 -69.13970703 206.77537109 -69.03515625 208.35546875 C-68.98230469 209.43441406 -68.92945313 210.51335937 -68.875 211.625 C-68.68587768 225.99875974 -68.68587768 225.99875974 -62 238 C-56.56406509 241.94105281 -50.44831486 241.68109773 -44 241 C-40.52903143 239.72746144 -40.52903143 239.72746144 -38 238 C-37.01 237.67 -36.02 237.34 -35 237 C-29.67172434 226.65687665 -29.84933633 214.94074929 -32.90625 203.97265625 C-36.17390684 195.09163177 -42.24051143 188.28953913 -48.66796875 181.5078125 C-51 179 -51 179 -52.80078125 176.6171875 C-55.26451413 173.68521409 -57.96420427 171.32449099 -60.86767578 168.83886719 C-88.10994678 145.34576149 -119.79916695 117.05822212 -123.1824646 78.94448853 C-123.43388376 74.58615475 -123.47125476 70.23377159 -123.44604492 65.86914062 C-123.43753113 63.6331763 -123.46643714 61.39977728 -123.49804688 59.1640625 C-123.59115059 40.29197822 -118.34880881 23.4138326 -106.48046875 8.4765625 C-105 7 -105 7 -103 7 C-103 6.34 -103 5.68 -103 5 C-97.34921606 -0.34406081 -90.98587242 -4.62711561 -84 -8 C-83.11957031 -8.43183594 -82.23914063 -8.86367188 -81.33203125 -9.30859375 C-54.40305888 -21.55564326 -23.2243561 -17.97261728 0 0 Z M-96.71484375 12.5234375 C-110.48985576 27.45225393 -114.89967609 47.65964818 -114.27734375 67.421875 C-113.03347153 91.59738315 -103.53902354 109.67567978 -88 128 C-87.08248705 129.12430991 -86.16564082 130.2491649 -85.25 131.375 C-83.43372023 133.49399306 -81.56233438 135.46247767 -79.58349609 137.42529297 C-77.66434862 139.33378837 -75.76032532 141.25692895 -73.85546875 143.1796875 C-72.29954101 144.74485315 -70.7435498 146.3099557 -69.1875 147.875 C-68.41857422 148.65230469 -67.64964844 149.42960938 -66.85742188 150.23046875 C-62.69491682 154.41053712 -58.45438371 158.40845733 -53.98510742 162.25732422 C-39.1888199 175.24661217 -24.20507447 189.71099649 -21 210 C-20.27534554 221.61823045 -20.32025229 232.29506786 -27.75 241.9375 C-32.27255709 246.73624378 -38.66517154 249.7534248 -45.22265625 250.23828125 C-54.71164382 250.42168996 -61.5441011 249.15229714 -69.8125 244.375 C-77.15002132 236.40854829 -78.09682494 227.1279267 -78.60546875 216.79492188 C-78.79271495 213.3566942 -79.16010557 210.35957772 -80 207 C-91.88 207 -103.76 207 -116 207 C-116 214.73614871 -115.9205199 221.8146901 -114.8125 229.375 C-114.68012939 230.27839111 -114.54775879 231.18178223 -114.41137695 232.11254883 C-111.77171723 248.76419228 -105.2780715 263.73166872 -91.39453125 273.91015625 C-74.59982697 285.06714598 -53.53268059 288.87009216 -33.66015625 285.30859375 C-17.10511498 281.8028203 -4.15209266 273.62448493 5.9375 260.0625 C18.08642662 241.29226057 20.10311547 217.13527418 15.5 195.5625 C9.33773357 170.12852308 -8.28786783 152.53960884 -26.34765625 134.6953125 C-27.30027789 133.75299621 -28.25287881 132.81065898 -29.20545959 131.86830139 C-33.14756145 127.97091082 -37.09103282 124.07502343 -41.05102539 120.19580078 C-74.8425055 87.07101824 -74.8425055 87.07101824 -75.29248047 66.09448242 C-75.37692265 54.88735734 -74.81392974 44.9920157 -66.70703125 36.43359375 C-60.35831399 31.10183349 -53.15362048 29.46533636 -45 30 C-37.49392245 31.33686675 -31.9341134 34.11195801 -27 40 C-21.69029099 48.4664763 -20.84327637 56.11848834 -20.39453125 65.84960938 C-20.21282316 69.40544879 -19.86773255 72.52906981 -19 76 C-7.78 76 3.44 76 15 76 C15.33057852 51.86776825 13.70455211 28.77153312 -3.55078125 10.234375 C-29.34162884 -13.29411753 -71.6782874 -11.20375854 -96.71484375 12.5234375 Z " fill="#0B0B0B" transform="translate(206,344)"/>
<path d="M0 0 C0.9856192 0.00270401 1.9712384 0.00540802 2.98672485 0.00819397 C4.06166702 0.01642685 5.13660919 0.02465973 6.24412537 0.03314209 C7.94952484 0.04032509 7.94952484 0.04032509 9.68937683 0.0476532 C13.45174225 0.06535408 17.21399364 0.09109134 20.9763031 0.11810303 C23.58656803 0.13479132 26.19683313 0.15145358 28.80709839 0.16809082 C33.57955286 0.19950166 38.35196561 0.23463725 43.12437111 0.27274251 C50.15043068 0.32883371 57.1764085 0.37182776 64.20262009 0.40342355 C70.2896101 0.43165228 76.37638074 0.47619457 82.46322441 0.52672577 C85.05363237 0.54596506 87.644082 0.56023838 90.23454475 0.56952667 C93.8499868 0.58379534 97.4647985 0.61666236 101.08006287 0.65423584 C102.15702927 0.6543718 103.23399567 0.65450775 104.34359741 0.65464783 C105.32639679 0.66863113 106.30919617 0.68261444 107.32177734 0.69702148 C108.17661492 0.70292927 109.0314525 0.70883705 109.91219425 0.71492386 C112.57897657 1.18788806 113.45182396 1.99266648 115.09739685 4.10247803 C116.07042327 6.86070297 116.22730268 9.4230919 116.24266052 12.33270264 C116.24904037 13.15713364 116.25542023 13.98156464 116.26199341 14.83097839 C116.26366264 16.15453087 116.26366264 16.15453087 116.2653656 17.50482178 C116.268694 18.41953751 116.2720224 19.33425323 116.27545166 20.27668762 C116.28050866 22.20909117 116.28286036 24.14150342 116.28269958 26.07391357 C116.28488623 29.02563896 116.30305536 31.9769906 116.32200623 34.9286499 C116.32494039 36.80820592 116.32692503 38.68776371 116.3278656 40.56732178 C116.33505112 41.44766586 116.34223663 42.32800995 116.34963989 43.23503113 C116.31981192 51.25846312 116.31981192 51.25846312 114.09739685 55.10247803 C110.53185725 57.47950443 109.01868324 57.34588726 104.7900238 57.32952881 C102.81105103 57.32916626 102.81105103 57.32916626 100.792099 57.32879639 C99.38995678 57.31872529 97.98781641 57.30839213 96.5856781 57.29779053 C94.67353516 57.29476929 94.67353516 57.29476929 92.72276306 57.29168701 C87.95177116 57.28120723 83.18083047 57.25328476 78.40989685 57.22747803 C67.74677185 57.18622803 57.08364685 57.14497803 46.09739685 57.10247803 C46.09739685 79.21247803 46.09739685 101.32247803 46.09739685 124.10247803 C61.99822207 124.02340704 61.99822207 124.02340704 77.89891052 123.92230225 C79.89606004 123.91645963 81.89321195 123.91136352 83.8903656 123.90716553 C85.43899292 123.89181763 85.43899292 123.89181763 87.01890564 123.87615967 C88.01313538 123.87591797 89.00736511 123.87567627 90.03172302 123.87542725 C90.8910997 123.87098602 91.75047638 123.8665448 92.63589478 123.86196899 C95.47893453 124.1397574 97.55230195 124.80885926 100.09739685 126.10247803 C102.15604453 129.19044954 102.35475038 129.90004085 102.40379333 133.402771 C102.41978073 134.26731903 102.43576813 135.13186707 102.45223999 136.02261353 C102.45760269 136.95389069 102.46296539 137.88516785 102.4684906 138.84466553 C102.47751907 139.80518829 102.48654755 140.76571106 102.49584961 141.75534058 C102.51035973 143.78785074 102.51924073 145.8204077 102.52293396 147.85296631 C102.53482639 150.95907519 102.5840012 154.06319501 102.63450623 157.16888428 C102.64397094 159.144135 102.65120574 161.11939792 102.6559906 163.09466553 C102.67552292 164.02189423 102.69505524 164.94912292 102.71517944 165.90444946 C102.68594449 170.09340426 102.43247567 172.52860688 100.29026794 176.19744873 C95.4349393 179.09438476 91.00315958 178.72275571 85.4528656 178.59075928 C83.95656616 178.58320618 83.95656616 178.58320618 82.43003845 178.57550049 C78.71469761 178.5494007 74.99976745 178.47959342 71.28489685 178.41497803 C62.97302185 178.31185303 54.66114685 178.20872803 46.09739685 178.10247803 C46.09739685 201.86247803 46.09739685 225.62247803 46.09739685 250.10247803 C68.3412801 249.9837147 68.3412801 249.9837147 90.58494568 249.83221436 C94.88780212 249.81866455 94.88780212 249.81866455 96.90237427 249.81614685 C98.30893805 249.81154107 99.71549001 249.80099171 101.12197876 249.78575134 C103.25307278 249.76381437 105.38344329 249.76075912 107.51463318 249.76190186 C108.71598404 249.75524002 109.9173349 249.74857819 111.15509033 249.74171448 C114.09739685 250.10247803 114.09739685 250.10247803 115.98455811 251.34925842 C117.38062841 253.54869463 117.47760382 254.89556971 117.48558044 257.49456787 C117.49976517 258.82142105 117.49976517 258.82142105 117.51423645 260.17507935 C117.50512741 261.60480576 117.50512741 261.60480576 117.49583435 263.06341553 C117.50013962 264.53749374 117.50013962 264.53749374 117.50453186 266.04135132 C117.50657397 268.12097753 117.50103391 270.20062289 117.48851013 272.2802124 C117.47249307 275.45838632 117.48833648 278.63528186 117.5075531 281.81341553 C117.50557002 283.83425166 117.50172501 285.855087 117.49583435 287.87591553 C117.50190704 288.82501801 117.50797974 289.77412048 117.51423645 290.75198364 C117.4566898 296.17331914 117.13031806 300.06955682 113.09739685 304.10247803 C111.52288648 304.20709873 109.9437023 304.24211327 108.36573792 304.24964905 C106.83038895 304.260382 106.83038895 304.260382 105.26402283 304.27133179 C104.13154114 304.27402069 102.99905945 304.27670959 101.83226013 304.27947998 C100.64699738 304.28605118 99.46173462 304.29262238 98.24055481 304.2993927 C94.98018467 304.31576377 91.71984818 304.32736039 88.45944834 304.33559823 C86.42400639 304.34074336 84.38856905 304.34681929 82.35313034 304.35310936 C75.98914849 304.37216718 69.62517829 304.38639737 63.26117337 304.39472133 C55.90665184 304.40449877 48.5524309 304.4308286 41.19801533 304.47122222 C35.51901175 304.50134703 29.84009449 304.5161867 24.16101253 304.51950234 C20.76651435 304.52185695 17.37233706 304.53086959 13.97792435 304.55596352 C10.19214342 304.58016544 6.4071563 304.57942443 2.62132263 304.57244873 C1.4928894 304.58525879 0.36445618 304.59806885 -0.798172 304.61126709 C-2.34198044 304.60085136 -2.34198044 304.60085136 -3.91697693 304.59022522 C-4.81258268 304.59261357 -5.70818844 304.59500193 -6.63093376 304.59746265 C-8.90260315 304.10247803 -8.90260315 304.10247803 -10.52098727 302.39070106 C-12.15735757 299.68055544 -12.27841561 298.14356703 -12.28012657 294.99592495 C-12.29186143 293.44012617 -12.29186143 293.44012617 -12.30383337 291.85289711 C-12.2971412 290.71487414 -12.29044904 289.57685117 -12.28355408 288.40434265 C-12.28823405 287.19431015 -12.29291402 285.98427765 -12.29773581 284.7375775 C-12.30764431 281.37736356 -12.30406109 278.01765136 -12.29477715 274.65746772 C-12.28800025 271.03438885 -12.29846108 267.4113544 -12.30671692 263.7882843 C-12.3200706 256.69040924 -12.31716938 249.59262925 -12.308479 242.49475043 C-12.30170981 236.72779587 -12.30078241 230.96086799 -12.30405045 225.1939106 C-12.30451014 224.3738118 -12.30496984 223.553713 -12.30544347 222.70876272 C-12.30640263 221.04287405 -12.30737526 219.37698537 -12.30836125 217.71109671 C-12.31691979 202.08318393 -12.30707345 186.4553239 -12.29096015 170.82741977 C-12.27755404 157.40955795 -12.27988657 143.99177399 -12.29371643 130.57391357 C-12.30975974 115.00120164 -12.31609842 99.42853595 -12.30687964 83.8558169 C-12.30592397 82.19628784 -12.30498085 80.53675877 -12.30405045 78.87722969 C-12.30358762 78.06065514 -12.30312479 77.24408059 -12.30264794 76.40276135 C-12.30005448 70.64029641 -12.30443664 64.87786073 -12.31148911 59.11540031 C-12.31989034 52.09645318 -12.31765298 45.07760673 -12.30164687 38.05867117 C-12.29374588 34.47551885 -12.29070346 30.89253459 -12.30059433 27.30938339 C-12.31113932 23.43070316 -12.29857475 19.5523 -12.28355408 15.67362976 C-12.29024624 14.53337607 -12.29693841 13.39312238 -12.30383337 12.21831554 C-12.29601012 11.1837241 -12.28818688 10.14913266 -12.28012657 9.08318996 C-12.27963951 8.18731967 -12.27915246 7.29144938 -12.27865064 6.36843151 C-11.82553399 3.63808152 -11.0655571 2.77326497 -8.90260315 1.10247803 C-5.93054758 0.02637032 -3.14144066 -0.01616125 0 0 Z M-1.90260315 10.10247803 C-1.90260315 103.82247803 -1.90260315 197.54247803 -1.90260315 294.10247803 C34.06739685 294.10247803 70.03739685 294.10247803 107.09739685 294.10247803 C107.09739685 282.55247803 107.09739685 271.00247803 107.09739685 259.10247803 C72.44739685 258.60747803 72.44739685 258.60747803 37.09739685 258.10247803 C37.26674516 236.72002612 37.26674516 236.72002612 37.35520935 227.62982178 C37.41559868 221.41875402 37.47379849 215.2077182 37.51927185 208.996521 C37.55605324 203.99086911 37.60239336 198.98538991 37.65546036 193.9798851 C37.67404242 192.06688327 37.68913617 190.15384438 37.70074081 188.24078751 C37.7175383 185.56836379 37.7465569 182.89633887 37.77854919 180.22406006 C37.78070938 179.4270871 37.78286957 178.63011414 37.78509521 177.80899048 C37.86929253 172.33058235 37.86929253 172.33058235 40.09739685 170.10247803 C42.31202698 169.82400513 42.31202698 169.82400513 45.09788513 169.78363037 C46.13881317 169.76376068 47.17974121 169.74389099 48.25221252 169.72341919 C49.94288345 169.70609238 49.94288345 169.70609238 51.66770935 169.68841553 C52.81907379 169.66904938 53.97043823 169.64968323 55.1566925 169.62973022 C58.84518455 169.5698043 62.53370757 169.52349676 66.22239685 169.47747803 C68.71850444 169.43931026 71.2145987 169.40025925 73.7106781 169.36029053 C79.83946622 169.26409214 85.96833423 169.17908296 92.09739685 169.10247803 C92.93115483 157.30159581 93.15481915 145.89680366 92.09739685 134.10247803 C91.47987549 134.09439117 90.86235413 134.08630432 90.22612 134.07797241 C83.80214247 133.99195216 77.37847442 133.89244946 70.95481873 133.78509521 C68.55708511 133.74679898 66.15929392 133.71194727 63.76145935 133.68060303 C60.31593743 133.63496698 56.87081213 133.57696933 53.42552185 133.51654053 C52.35247803 133.50498932 51.2794342 133.49343811 50.1738739 133.48153687 C49.17313843 133.46166718 48.17240295 133.44179749 47.14134216 133.42132568 C46.26197998 133.40800201 45.3826178 133.39467834 44.47660828 133.38095093 C42.09739685 133.10247803 42.09739685 133.10247803 38.09739685 131.10247803 C38.09739685 104.04247803 38.09739685 76.98247803 38.09739685 49.10247803 C60.53739685 48.77247803 82.97739685 48.44247803 106.09739685 48.10247803 C106.09739685 35.56247803 106.09739685 23.02247803 106.09739685 10.10247803 C70.45739685 10.10247803 34.81739685 10.10247803 -1.90260315 10.10247803 Z " fill="#050505" transform="translate(827.9026031494141,330.89752197265625)"/>
</svg>
