<?xml version="1.0" encoding="UTF-8"?>
<svg version="1.1" xmlns="http://www.w3.org/2000/svg" width="1024" height="1024">
<path d="M0 0 C1.22235352 0.41000244 2.44470703 0.82000488 3.70410156 1.24243164 C4.9206543 1.71028076 6.13720703 2.17812988 7.390625 2.66015625 C8.07574158 2.92145325 8.76085815 3.18275024 9.46673584 3.45196533 C11.73002544 4.3165113 13.98991842 5.18960609 16.25 6.0625 C17.87994002 6.68649234 19.51015574 7.3097649 21.140625 7.93237305 C24.62131883 9.261885 28.10097573 10.59406391 31.58007812 11.92773438 C39.77140483 15.06390992 47.97948665 18.15575093 56.18634033 21.25100708 C59.98013459 22.68226964 63.77314823 24.11559502 67.56619263 25.54884338 C75.25215746 28.45298499 82.93905494 31.35463511 90.62745667 34.25231934 C113.60035589 42.91076386 136.54699547 51.63230991 159.4485321 60.47789001 C164.33697056 62.36413082 169.23255893 64.23063398 174.1328125 66.0859375 C175.35782471 66.55136963 176.58283691 67.01680176 177.8449707 67.49633789 C180.08405014 68.34622012 182.32467195 69.19205499 184.56713867 70.03295898 C186.01310425 70.58318726 186.01310425 70.58318726 187.48828125 71.14453125 C188.31884033 71.45753174 189.14939941 71.77053223 190.00512695 72.09301758 C192 73 192 73 194 75 C194.25 77.5 194.25 77.5 194 80 C192 82 192 82 188.890625 82.32421875 C184.29464957 81.9412208 180.93928649 80.63773718 176.75 78.8125 C168.56271211 75.40100216 160.31074666 72.21219581 151.98675537 69.15158081 C135.15716765 62.96263722 118.38750512 56.61804945 101.625 50.25 C100.36855164 49.77272273 99.11210226 49.29544815 97.85565186 48.81817627 C96.59826618 48.34053659 95.34088093 47.8628958 94.08349609 47.38525391 C92.20339279 46.67106221 90.32328888 45.95687209 88.44318008 45.24269485 C86.57374793 44.53255501 84.70433915 43.82235361 82.83493042 43.1121521 C72.00523512 38.99911633 61.1681756 34.90574645 50.32919312 30.81726074 C37.3125613 25.90697729 24.29903003 20.98944543 11.3125 16 C10.260625 15.59620117 9.20875 15.19240234 8.125 14.77636719 C1.25643174 12.12821587 1.25643174 12.12821587 -1 11 C-1.00146521 12.15043674 -1.00146521 12.15043674 -1.00296003 13.32411462 C-1.06118458 58.74243494 -1.13494524 104.16070712 -1.22898628 149.57896813 C-1.24025495 155.02782422 -1.25139332 160.47668058 -1.26245117 165.92553711 C-1.26465486 167.01034334 -1.26685854 168.09514957 -1.269129 169.21282872 C-1.30453762 186.79651324 -1.32938161 204.38019772 -1.35034702 221.96390472 C-1.37208072 239.9955557 -1.40510789 258.02716027 -1.44870156 276.05877179 C-1.47526027 287.19248899 -1.49292452 298.32614831 -1.49934604 309.45989563 C-1.50458705 317.08634444 -1.52076048 324.71272031 -1.54566566 332.33913008 C-1.55972497 336.74449201 -1.56883505 341.14972324 -1.56500816 345.55510902 C-1.56161451 349.58374905 -1.5718661 353.61210925 -1.59323552 357.6406919 C-1.5985328 359.102368 -1.59870779 360.56407296 -1.59339563 362.02574901 C-1.586934 364.00441918 -1.60051128 365.98312507 -1.61523914 367.96175098 C-1.61713775 369.06331966 -1.61903635 370.16488834 -1.62099248 371.29983789 C-2 374 -2 374 -3.35998505 375.89301556 C-5 377 -5 377 -7.625 376.75 C-10 376 -10 376 -11 375 C-11.09771753 373.06089794 -11.12371298 371.11817444 -11.12304783 369.1766119 C-11.12503888 367.90318147 -11.12702993 366.62975103 -11.12908131 365.3177318 C-11.12622771 363.88613234 -11.1232821 362.45453306 -11.12025452 361.02293396 C-11.12069009 359.51651859 -11.12156473 358.01010329 -11.12284368 356.5036884 C-11.12509145 352.34436372 -11.12106353 348.18506455 -11.11606562 344.02574313 C-11.11176533 339.54787292 -11.11320724 335.07000426 -11.1139679 330.59213257 C-11.1144934 322.82733759 -11.11134385 315.06255098 -11.10573006 307.2977581 C-11.09761862 296.07103582 -11.0950002 284.8443176 -11.09374207 273.6175927 C-11.09155098 255.40497161 -11.08488938 237.19235499 -11.07543945 218.97973633 C-11.06626679 201.28312197 -11.05918524 183.58650883 -11.05493164 165.88989258 C-11.05466892 164.79990192 -11.05440619 163.70991125 -11.05413551 162.58689057 C-11.05283051 157.1189752 -11.0515668 151.65105983 -11.05032361 146.18314445 C-11.03994924 100.78875987 -11.02232941 55.39438017 -11 10 C-11.69399147 10.27840257 -12.38798294 10.55680513 -13.10300446 10.84364414 C-16.3164227 12.13225527 -19.53027938 13.41976956 -22.74414062 14.70727539 C-23.83519104 15.14498512 -24.92624146 15.58269485 -26.050354 16.03366852 C-35.40065638 19.77804826 -44.7865319 23.42578615 -54.1940918 27.02368164 C-60.87717988 29.58170139 -67.55800197 32.14559218 -74.23828125 34.7109375 C-75.38899612 35.15270828 -76.539711 35.59447906 -77.72529602 36.04963684 C-89.38889124 40.52938304 -101.03973666 45.04177647 -112.6875 49.5625 C-113.68465027 49.94946045 -114.68180054 50.3364209 -115.70916748 50.73510742 C-120.75436237 52.69308109 -125.79935727 54.65156933 -130.84423828 56.61035156 C-137.1859404 59.07246735 -143.52841839 61.53258012 -149.87109375 63.9921875 C-150.93371429 64.4042746 -151.99633484 64.81636169 -153.09115601 65.24093628 C-158.32322023 67.26982 -163.55548522 69.29818392 -168.78808594 71.32568359 C-170.77930697 72.09730469 -172.77051808 72.86895138 -174.76171875 73.640625 C-175.72220123 74.01285187 -176.68268372 74.38507874 -177.67227173 74.76858521 C-182.96636633 76.82112656 -188.25840345 78.87882382 -193.54779053 80.94346619 C-196.50405154 82.09726451 -199.4611749 83.24884204 -202.418396 84.400177 C-203.74899542 84.91902671 -205.07912672 85.43907878 -206.40875244 85.9604187 C-208.18671563 86.65754368 -209.96635133 87.35039873 -211.74609375 88.04296875 C-213.21067017 88.61567505 -213.21067017 88.61567505 -214.70483398 89.19995117 C-217 90 -217 90 -219 90 C-219 260.94 -219 431.88 -219 608 C-193.894867 598.47638375 -193.894867 598.47638375 -168.9730835 588.52603149 C-151.20141303 581.20522868 -133.30121777 574.22404488 -115.38606262 567.26402283 C-105.1693494 563.29265364 -94.96640918 559.28623783 -84.76303101 555.28076172 C-78.32129158 552.75233547 -71.87853897 550.2264922 -65.43592834 547.70028687 C-60.22541085 545.65715244 -55.01506824 543.61357542 -49.80517578 541.56884766 C-44.95972056 539.66737777 -40.11329089 537.76841261 -35.26611328 535.87133789 C-33.47882349 535.17136716 -31.69187058 534.47053558 -29.90527344 533.76879883 C-27.45986771 532.80843567 -25.01329766 531.85110148 -22.56640625 530.89453125 C-21.49520287 530.4726226 -21.49520287 530.4726226 -20.40235901 530.04219055 C-17.29195778 528.82964512 -14.24772716 527.76504384 -11 527 C-11.00666183 525.72657745 -11.01332367 524.45315491 -11.02018738 523.1411438 C-11.08090105 511.16285131 -11.1259257 499.18458989 -11.15543652 487.20617867 C-11.17111815 481.0473809 -11.19240198 474.88870696 -11.22631836 468.72998047 C-11.25882272 462.7907476 -11.27683418 456.85163411 -11.28463173 450.91231918 C-11.29019131 448.6420084 -11.30104719 446.37170444 -11.31719017 444.10144424 C-11.33884571 440.93092784 -11.3419719 437.76091003 -11.34057617 434.59033203 C-11.351362 433.64374725 -11.36214783 432.69716248 -11.3732605 431.72189331 C-11.36913651 430.86090027 -11.36501251 429.99990723 -11.36076355 429.11282349 C-11.36352893 428.362484 -11.36629431 427.61214451 -11.36914349 426.83906746 C-11 425 -11 425 -8 423 C-5.03923709 423.35888035 -4.15341979 423.84658021 -2 426 C-1.73828697 427.82345009 -1.73828697 427.82345009 -1.7215271 430.07485962 C-1.71036362 430.92743851 -1.69920013 431.7800174 -1.68769836 432.65843201 C-1.68553818 433.59566605 -1.68337799 434.53290009 -1.68115234 435.49853516 C-1.67110672 436.48393784 -1.6610611 437.46934052 -1.65071106 438.48460388 C-1.61973645 441.75275063 -1.60280431 445.02081495 -1.5859375 448.2890625 C-1.56723734 450.5506563 -1.54766481 452.81224303 -1.5272522 455.07382202 C-1.47580335 461.03486987 -1.43624599 466.99594038 -1.39910889 472.95709229 C-1.35914902 479.03655662 -1.30802021 485.11592569 -1.2578125 491.1953125 C-1.16090228 503.13014154 -1.07654597 515.06502421 -1 527 C-0.08903061 527.35813278 0.82193878 527.71626556 1.76051331 528.08525085 C32.1879487 540.04942758 32.1879487 540.04942758 41.40234375 543.76953125 C42.03685455 544.02569214 42.67136536 544.28185303 43.32510376 544.54577637 C44.56321205 545.04589952 45.80128069 545.54612082 47.03930664 546.04644775 C60.30036306 551.39820078 73.62707657 556.55987957 87 561.625 C117.15634349 573.04897244 147.25567102 584.66938195 177.0690918 596.96411133 C189.37256456 602.01712778 201.78408251 606.79841113 214.18408203 611.60839844 C215.04544769 611.9429303 215.90681335 612.27746216 216.79428101 612.62213135 C218.41071781 613.24970424 220.02757144 613.87620504 221.64492798 614.50140381 C222.37924042 614.7864679 223.11355286 615.07153198 223.87011719 615.36523438 C224.50149597 615.60963257 225.13287476 615.85403076 225.78338623 616.10583496 C228.87712587 617.35382587 231.9350036 618.6832495 235 620 C235.00219984 618.39756628 235.00219984 618.39756628 235.00444412 616.76276016 C235.04100919 590.79101181 235.10041937 564.81939271 235.18390274 538.84775162 C235.22374331 526.28814728 235.25611029 513.72860606 235.27099609 501.16894531 C235.28398661 490.22429422 235.31088462 479.27978171 235.35461307 468.33520865 C235.37728641 462.53798882 235.39290717 456.74094029 235.39188385 450.94367218 C235.39114071 445.4902659 235.4089521 440.03723911 235.44116783 434.58393097 C235.44970627 432.57960744 235.4513902 430.57524153 235.44580269 428.57090759 C235.4392005 425.83932457 235.45699197 423.10896244 235.48101807 420.37750244 C235.46937744 419.18100362 235.46937744 419.18100362 235.45750165 417.96033311 C235.51492161 414.28613387 235.69031217 412.38452683 238.03243637 409.4764061 C238.68173237 408.98919209 239.33102837 408.50197807 240 408 C243.875 409.875 243.875 409.875 245 411 C245.11025622 413.7055696 245.15496698 416.38616041 245.15821838 419.09266663 C245.16562535 420.38026726 245.16562535 420.38026726 245.17318195 421.69388002 C245.18863622 424.59287433 245.1969389 427.49184637 245.20532227 430.39086914 C245.21489457 432.45995787 245.22490426 434.52904462 245.23532104 436.59812927 C245.2624464 442.23424132 245.28341451 447.8703618 245.30332303 453.50650334 C245.32513569 459.38955948 245.35254739 465.27258939 245.37937927 471.15562439 C245.42937019 482.30452327 245.4742852 493.45343665 245.51740164 504.602364 C245.56671944 517.29140131 245.62165774 529.9804123 245.67708123 542.66942418 C245.79099948 568.77959158 245.89781697 594.88978422 246 621 C247.0038121 620.6369577 248.00762421 620.27391541 249.04185486 619.89987183 C252.85140496 618.5222495 256.66119714 617.14529767 260.47105408 615.76852417 C262.10399128 615.17832757 263.73686718 614.58796134 265.36967468 613.99740601 C279.24612072 608.97877183 293.14138385 604.01522674 307.06640625 599.1328125 C307.77583878 598.88387238 308.4852713 598.63493225 309.21620178 598.37844849 C311.47733079 597.58524081 313.73864647 596.79256733 316 596 C317.16097198 595.59291809 317.16097198 595.59291809 318.34539795 595.1776123 C336.47066909 588.82310874 354.60703326 582.50166832 372.7734375 576.265625 C399.01114013 567.25571415 425.20571176 558.15094542 451.29052734 548.70605469 C468.13824095 542.61855788 485.0509639 536.82623116 502 531 C502.33 370.29 502.66 209.58 503 44 C493.1 47.96 493.1 47.96 483 52 C478.69274041 53.6855535 474.38627506 55.35924268 470.0625 57 C469.04994141 57.39316406 468.03738281 57.78632813 466.99414062 58.19140625 C466.01767578 58.56136719 465.04121094 58.93132812 464.03515625 59.3125 C462.75717163 59.80169922 462.75717163 59.80169922 461.45336914 60.30078125 C458.80658949 61.05512267 456.73714796 61.27304953 454 61 C452 59 452 59 451.5625 56.0625 C451.706875 55.051875 451.85125 54.04125 452 53 C455.53398231 50.44355396 459.33294928 49.01303517 463.41796875 47.546875 C464.028647 47.3256044 464.63932526 47.1043338 465.26850891 46.87635803 C467.2398348 46.16284032 469.21357271 45.45628539 471.1875 44.75 C473.90080723 43.77247127 476.61279255 42.79132695 479.32421875 41.80859375 C479.98956635 41.56779587 480.65491394 41.32699799 481.34042358 41.0789032 C487.48414559 38.84519891 493.56938664 36.46739864 499.59448242 33.93066406 C503.53545132 32.33102712 506.7449285 31.51817573 511 32 C513.54941094 34.54941094 513.24324903 36.18989151 513.26972538 39.66636166 C513.26561475 40.46723585 513.26150411 41.26811003 513.25726891 42.09325314 C513.26077498 42.943914 513.26428105 43.79457486 513.26789337 44.67101333 C513.27727845 47.55278789 513.27226589 50.4343635 513.26742554 53.31614685 C513.27115822 55.39051116 513.2757582 57.46487406 513.28115618 59.5392347 C513.29344876 65.26393176 513.2931184 70.98857067 513.29076743 76.71327794 C513.29036084 82.87764785 513.30138322 89.04199872 513.31088257 95.20635986 C513.32752748 107.29230625 513.33301953 119.37822782 513.33410732 131.46418267 C513.3350253 141.28295403 513.33913615 151.10171905 513.34550858 160.92048836 C513.34730357 163.74357304 513.3490832 166.56665774 513.35085833 169.38974243 C513.35152148 170.44238618 513.35152148 170.44238618 513.35219802 171.51629546 C513.36451153 191.26352792 513.37239862 211.01075818 513.37151146 230.75799465 C513.3714803 231.50296568 513.37144914 232.2479367 513.37141704 233.0154826 C513.37125082 236.79158135 513.37105274 240.5676801 513.37084763 244.34377884 C513.37078779 245.46876441 513.37078779 245.46876441 513.37072675 246.61647696 C513.37064587 248.13314085 513.37056228 249.64980473 513.37047596 251.16646861 C513.36925007 274.77059028 513.3842685 298.37465453 513.41162109 321.97875977 C513.44231532 348.47767903 513.45955522 374.97656056 513.45769465 401.47549874 C513.45754538 404.29889778 513.45744797 407.12229683 513.45738602 409.94569588 C513.45735105 410.98854001 513.45735105 410.98854001 513.45731538 412.0524517 C513.45725374 423.25997936 513.47004719 434.46745732 513.48725055 445.67497019 C513.50417098 456.93064259 513.50586474 468.18624279 513.4930319 479.44192725 C513.48647351 485.54450669 513.48648802 491.64690528 513.5037384 497.74946785 C513.51934787 503.32868159 513.51673082 508.90756925 513.49917014 514.48677445 C513.4960733 516.51232806 513.49983217 518.53790529 513.51089029 520.56343108 C513.52486387 523.30299237 513.51454261 526.04138623 513.49777794 528.78090572 C513.5077143 529.57943874 513.51765066 530.37797177 513.52788812 531.20070276 C513.45827651 536.52865822 513.45827651 536.52865822 511.09713233 538.95711762 C508.99177972 540.00408786 506.95594874 540.90253206 504.73022461 541.66308594 C503.88652817 541.95541611 503.04283173 542.24774628 502.17356873 542.54893494 C501.25906448 542.85763016 500.34456024 543.16632538 499.40234375 543.484375 C498.43833145 543.81631363 497.47431915 544.14825226 496.48109436 544.49024963 C493.30209537 545.5833614 490.11979228 546.66651736 486.9375 547.75 C484.70089297 548.51766117 482.46456821 549.28614523 480.22851562 550.05541992 C475.66352893 551.6254516 471.09753059 553.19248434 466.53076172 554.75732422 C457.34216224 557.90895163 448.1703458 561.10823482 439 564.3125 C437.27581418 564.91427297 435.5516115 565.51599764 433.82739258 566.11767578 C412.55560037 573.54316704 391.2980803 581.00947582 370.04048157 588.47547913 C363.81497418 590.66166248 357.58860843 592.84535615 351.36065674 595.02456665 C347.98548052 596.2056105 344.61072849 597.38786348 341.23602295 598.57025146 C339.74327907 599.09288425 338.25032999 599.61493146 336.75714111 600.1362915 C329.42963562 602.69495043 322.13239525 605.31071905 314.875 608.0625 C307.66899084 610.7907001 300.39072882 613.24345207 293.0625 615.625 C284.64496999 618.36979917 276.28900685 621.22337231 268.00390625 624.34765625 C267.25994095 624.62639587 266.51597565 624.9051355 265.74946594 625.19232178 C262.1290591 626.5498539 258.51681787 627.92428483 254.91430664 629.32861328 C253.59158833 629.82789015 252.26860307 630.32646057 250.9453125 630.82421875 C249.79562988 631.26854248 248.64594727 631.71286621 247.46142578 632.1706543 C240.63279308 633.80677119 235.1271656 631.92644014 228.79296875 629.33203125 C228.12416687 629.06138855 227.45536499 628.79074585 226.76629639 628.51190186 C224.56970759 627.62080369 222.37878682 626.71654814 220.1875 625.8125 C218.6124806 625.1714117 217.0370319 624.53137724 215.46118164 623.89233398 C212.20873614 622.57235539 208.95815069 621.24795116 205.70898438 619.91992188 C199.47698646 617.37533185 193.22816018 614.87331779 186.97674561 612.37689209 C184.89388842 611.5450833 182.81142192 610.71230211 180.72900391 609.87939453 C139.2438339 593.29278944 97.69558953 576.88530063 55.96461487 560.9258728 C52.45435954 559.58302923 48.94487679 558.23817234 45.43539429 556.89331055 C43.05600112 555.98284404 40.67519171 555.07617007 38.29418945 554.16992188 C28.82738549 550.5533228 19.46608832 546.7266441 10.14208984 542.75634766 C-2.52418407 537.36358408 -8.2538715 536.69487298 -21.125 541.83984375 C-22.12309692 542.23326965 -23.12119385 542.62669556 -24.14953613 543.03204346 C-27.43517632 544.32848772 -30.71753682 545.6330353 -34 546.9375 C-36.30378824 547.84804039 -38.60782819 548.75794415 -40.91210938 549.66723633 C-45.64280421 551.53441156 -50.37248952 553.40411179 -55.1015625 555.27539062 C-64.28228403 558.90511198 -73.47843082 562.49512714 -82.67495728 566.08456421 C-99.29437102 572.57301342 -115.89329404 579.11211375 -132.48074341 585.68179321 C-147.49003736 591.62539705 -162.51743356 597.52145836 -177.56494141 603.36767578 C-185.25172931 606.35560629 -192.92949393 609.36085494 -200.578125 612.4453125 C-201.88867444 612.9710624 -203.19930019 613.49662212 -204.51000977 614.02197266 C-206.87857865 614.97392884 -209.24393966 615.93392586 -211.60522461 616.90380859 C-213.15222046 617.52376709 -213.15222046 617.52376709 -214.73046875 618.15625 C-216.05147583 618.69475586 -216.05147583 618.69475586 -217.39916992 619.24414062 C-220.42494815 620.12349943 -222.8633573 620.26364196 -226 620 C-226.99 619.34 -227.98 618.68 -229 618 C-229.30196152 615.08385498 -229.40535298 612.37891641 -229.38311005 609.45942974 C-229.38806956 608.56040523 -229.39302908 607.66138073 -229.39813888 606.73511305 C-229.4112079 603.68872226 -229.40267473 600.64276171 -229.39440918 597.59635925 C-229.39929275 595.40379962 -229.40548006 593.21124256 -229.41286707 591.01868993 C-229.4293577 584.96718617 -229.42693019 578.9158119 -229.4214921 572.86429346 C-229.41883306 566.34813653 -229.4333325 559.832015 -229.44558716 553.31587219 C-229.46733543 540.53943267 -229.47119792 527.76303303 -229.46939927 514.98657771 C-229.46802796 504.6057498 -229.47183524 494.2249357 -229.47932434 483.84411049 C-229.48037466 482.35443616 -229.48142228 480.86476183 -229.4824672 479.3750875 C-229.48298655 478.63565422 -229.48350589 477.89622093 -229.48404097 477.13438058 C-229.48456112 476.39361702 -229.48508126 475.65285347 -229.48561716 474.88964254 C-229.48614115 474.14766821 -229.48666514 473.40569387 -229.48720502 472.64123547 C-229.50179618 451.76156971 -229.51006738 430.88190903 -229.50545502 410.00223827 C-229.50528306 409.21451474 -229.50511111 408.42679121 -229.50493394 407.61519726 C-229.50404501 403.6224145 -229.5031002 399.62963175 -229.50213593 395.63684901 C-229.5019449 394.84382577 -229.50175387 394.05080254 -229.50155704 393.23374829 C-229.50116995 391.63006068 -229.50077963 390.02637308 -229.50038607 388.42268547 C-229.494416 363.46917105 -229.50985137 338.51574936 -229.54199219 313.56225586 C-229.57804658 285.54637051 -229.5974048 257.53054397 -229.59245348 229.51463395 C-229.59198348 226.52886824 -229.59157323 223.54310253 -229.59120178 220.55733681 C-229.5910994 219.82213087 -229.59099701 219.08692493 -229.59089152 218.32944002 C-229.58969525 207.21685009 -229.60168282 196.10432356 -229.62034607 184.99175072 C-229.64155594 172.35650855 -229.64546095 159.72139961 -229.62604648 147.08615156 C-229.61685865 140.63494905 -229.61583872 134.18401221 -229.63640213 127.73283005 C-229.65500152 121.83271507 -229.650733 115.9330854 -229.62785631 110.03298954 C-229.62364251 107.89300078 -229.62796286 105.7529756 -229.64145225 103.61302521 C-229.65848818 100.71411962 -229.64501582 97.81693249 -229.62361908 94.91809368 C-229.63589661 94.07828867 -229.64817413 93.23848366 -229.6608237 92.37323001 C-229.59392369 88.06391734 -229.39497969 86.48913257 -226.58951426 83.01491719 C-224.32400526 81.25211051 -222.56128531 80.07268166 -219.89550781 79.08154297 C-219.11108307 78.78210281 -218.32665833 78.48266266 -217.51846313 78.17414856 C-216.67190155 77.86660141 -215.82533997 77.55905426 -214.953125 77.2421875 C-213.60001724 76.73149971 -213.60001724 76.73149971 -212.21957397 76.210495 C-210.26265725 75.47371688 -208.30339575 74.74314318 -206.34210205 74.01809692 C-203.19140663 72.85333904 -200.04698605 71.67292256 -196.90380859 70.48803711 C-193.60338068 69.2440954 -190.30260475 68.00117828 -186.99996948 66.7631073 C-176.52036211 62.83383713 -166.08283353 58.79989672 -155.6529541 54.74078369 C-151.5713359 53.15248215 -147.48832367 51.56777951 -143.40539551 49.98284912 C-140.32251423 48.78601101 -137.2398523 47.58860938 -134.15722656 46.39111328 C-123.93999724 42.42264991 -113.71978174 38.46188432 -103.5 34.5 C-99.45309529 32.93106621 -95.40622138 31.36205299 -91.359375 29.79296875 C-90.35452057 29.40335968 -89.34966614 29.01375061 -88.31436157 28.61233521 C-81.90791069 26.12816736 -75.50200061 23.64260949 -69.09643555 21.15615845 C-64.70333368 19.45094551 -60.31004722 17.74620842 -55.91674805 16.04150391 C-53.85106407 15.23981914 -51.78546747 14.43790917 -49.7199707 13.63574219 C-48.74825928 13.25836914 -47.77654785 12.88099609 -46.77539062 12.4921875 C-45.34428955 11.93608292 -45.34428955 11.93608292 -43.88427734 11.3687439 C-42.0108725 10.64298489 -40.13621699 9.92044501 -38.26025391 9.20132446 C-33.55640793 7.39663263 -28.88144114 5.54502895 -24.23242188 3.60302734 C-23.29327942 3.22047287 -22.35413696 2.8379184 -21.38653564 2.44377136 C-19.61607553 1.72192586 -17.85286368 0.98190858 -16.0993042 0.21992493 C-10.07163572 -2.20224866 -6.11371412 -2.09119351 0 0 Z " fill="#060606" transform="translate(371,238)"/>
<path d="M0 0 C17.90047427 16.52351471 24.08439743 40.79105584 25.22265625 64.25390625 C25.25918808 64.99447769 25.29571991 65.73504913 25.33335876 66.49806213 C25.48460477 69.59049364 25.63509945 72.68280142 25.76708984 75.77612305 C26.53173294 93.40580895 29.29970632 109.48199736 42.79296875 122.140625 C53.96798987 131.60316745 67.43779581 133.29225927 81.57470703 132.36376953 C96.56856752 130.85547232 109.76181998 121.9641236 119.79296875 111.140625 C131.76009837 95.50870333 136.01581424 78.12823947 135.8203125 58.8203125 C135.80767295 56.40494931 135.7953115 53.98958466 135.78320312 51.57421875 C135.75833745 47.78429544 135.7302829 43.99444912 135.69702148 40.20458984 C135.66684797 36.53482569 135.64905968 32.86516098 135.6328125 29.1953125 C135.61262306 27.49518509 135.61262306 27.49518509 135.59202576 25.76071167 C135.58695763 24.17348801 135.58695763 24.17348801 135.58178711 22.55419922 C135.57432968 21.62711151 135.56687225 20.7000238 135.55918884 19.74484253 C135.84084388 16.60731459 136.49474412 13.43884963 138.79296875 11.140625 C142.29296875 11.453125 142.29296875 11.453125 145.79296875 12.140625 C147.09612457 14.74693663 146.941525 16.68671853 146.9699707 19.60571289 C146.98280594 20.75193619 146.99564117 21.89815948 147.00886536 23.07911682 C147.01994576 24.95227821 147.01994576 24.95227821 147.03125 26.86328125 C147.03932175 28.1518956 147.04739349 29.44050995 147.05570984 30.76817322 C147.07075851 33.50959135 147.08057885 36.25098349 147.08813477 38.99243164 C147.09690861 41.77293401 147.11756764 44.55292247 147.1496582 47.33325195 C147.46075372 74.87201669 144.79193985 99.85927679 125.0625 120.83203125 C124.31355469 121.59386719 123.56460937 122.35570312 122.79296875 123.140625 C121.87064453 124.08228516 121.87064453 124.08228516 120.9296875 125.04296875 C106.21973756 138.93394932 87.81105585 143.69263216 68.11328125 143.41796875 C61.5186774 143.18452117 55.83580403 141.78851573 49.79296875 139.140625 C48.85453125 138.73972656 47.91609375 138.33882812 46.94921875 137.92578125 C33.89587215 131.60077482 23.9574797 119.76846876 19.0859375 106.16650391 C15.79496202 95.79639788 14.69392625 85.5825898 14.35546875 74.765625 C13.33904256 48.35455089 9.93859858 25.18703892 -10.20703125 6.140625 C-26.46091555 -8.53809355 -44.08427569 -11.69159285 -65.27001953 -11.03857422 C-78.22618779 -10.24806487 -90.85519311 -4.78367366 -100.41796875 4.01171875 C-106.680005 11.46326844 -109.98170134 20.47917347 -109.20703125 30.140625 C-106.58598345 50.844498 -95.29559462 65.22672526 -82.4909668 80.94067383 C-67.43324005 99.46865178 -60.52382528 116.12627493 -62.20703125 140.140625 C-64.04240628 152.99720326 -71.57791051 162.87146125 -81.20703125 171.140625 C-96.23315566 182.18482644 -113.99969659 185.73278034 -132.20703125 183.140625 C-150.1135078 179.78914543 -166.34864589 171.88676479 -181.96606445 162.80151367 C-203.58494275 150.30697378 -229.80472768 143.57810291 -254.64453125 149.640625 C-272.41743697 154.80695583 -288.05810552 165.55774432 -297.33984375 181.7734375 C-307.77884207 200.96810984 -309.30345932 221.80505356 -309.77807617 243.29492188 C-309.82025269 244.77895508 -309.82025269 244.77895508 -309.86328125 246.29296875 C-309.88197266 247.17976318 -309.90066406 248.06655762 -309.91992188 248.98022461 C-310.20703125 251.140625 -310.20703125 251.140625 -312.20703125 253.140625 C-314.70703125 253.390625 -314.70703125 253.390625 -317.20703125 253.140625 C-319.77250494 250.57515131 -319.46502458 248.85171736 -319.51057434 245.35261536 C-319.50966293 244.55691635 -319.50875153 243.76121735 -319.5078125 242.94140625 C-319.51209763 242.1141655 -319.51638275 241.28692474 -319.52079773 240.43461609 C-319.52655337 238.67346103 -319.52703225 236.91228219 -319.52270508 235.15112305 C-319.5195964 232.50851172 -319.54280551 229.8670778 -319.56835938 227.22460938 C-319.6668603 201.24518251 -311.75943248 178.58508634 -294.20703125 159.140625 C-277.74338407 142.81061132 -254.95743389 136.851722 -232.49267578 136.82373047 C-208.63036237 137.09036689 -188.09916261 146.53398431 -167.46875 157.69921875 C-146.92987674 168.7823511 -126.39032882 176.89210474 -103.0859375 170.40234375 C-97.88587245 168.81346998 -93.55687414 166.38736025 -89.20703125 163.140625 C-88.4903125 162.61597656 -87.77359375 162.09132813 -87.03515625 161.55078125 C-79.70176226 155.69233681 -75.32631072 148.25352672 -73.20703125 139.140625 C-71.00403197 113.26819158 -84.4829683 96.28834745 -100.02661133 77.18017578 C-113.54518036 60.54030475 -122.15073295 42.08015789 -120.20703125 20.140625 C-117.49696694 7.34480999 -110.19355679 -3.20176265 -99.5546875 -10.73828125 C-66.84809343 -31.06466119 -28.58799642 -24.0847545 0 0 Z " fill="#0A0A0B" transform="translate(549.20703125,483.859375)"/>
<path d="M0 0 C1.00981934 0.23348145 1.00981934 0.23348145 2.04003906 0.47167969 C32.39318429 7.56777197 60.94655909 29.09563728 77.55859375 55.38867188 C97.9242262 88.96730115 101.99857245 123.46060604 92.82202148 161.60107422 C84.89881441 191.88453745 68.614608 219.45336584 51 245 C50.52481934 245.69270996 50.04963867 246.38541992 49.56005859 247.09912109 C35.08178803 268.14352328 19.24809565 288.29918402 3 308 C1.91634667 309.32265456 0.83303858 310.64559201 -0.25 311.96875 C-7.29230205 320.56145336 -14.35991305 329.13414388 -21.71533203 337.46240234 C-23.0394288 338.99693475 -23.0394288 338.99693475 -24.20263672 340.76025391 C-25.40234375 342.45703125 -25.40234375 342.45703125 -28 345 C-31.484375 345.23046875 -31.484375 345.23046875 -35 344 C-37.08336035 342.11233101 -38.58018142 340.51096738 -40.25 338.3125 C-40.71470703 337.73306641 -41.17941406 337.15363281 -41.65820312 336.55664062 C-43.12489113 334.7188391 -44.56371198 332.86162026 -46 331 C-46.92069076 329.82589331 -47.84254676 328.65269933 -48.765625 327.48046875 C-50.13892132 325.73444157 -51.51010561 323.98700887 -52.87402344 322.23364258 C-55.98907036 318.23813616 -59.20508789 314.34805973 -62.5 310.5 C-67.67302586 304.44758717 -72.60751729 298.23255184 -77.48730469 291.94238281 C-79.11039835 289.85824253 -80.74583896 287.78419084 -82.3828125 285.7109375 C-89.6959289 276.42256121 -96.69057938 266.97530409 -103.42431641 257.25976562 C-105.11560474 254.83420554 -106.82745778 252.42410784 -108.54296875 250.015625 C-115.05054233 240.85617158 -121.34517621 231.67012255 -126.91259766 221.90576172 C-127.66403129 220.5888127 -128.42194521 219.27554772 -129.18505859 217.96533203 C-151.42332664 179.76835441 -166.64041079 135.05495692 -155.44628906 90.81152344 C-147.03547055 59.77850343 -126.99054976 33.2437505 -100 16 C-98.90300781 15.29230469 -97.80601562 14.58460938 -96.67578125 13.85546875 C-68.23603587 -3.41977728 -32.1864414 -8.09597606 0 0 Z M-61 10 C-61.66322266 10.19867676 -62.32644531 10.39735352 -63.00976562 10.60205078 C-94.67257741 20.28808509 -120.6339978 41.16678634 -136.55078125 70.21484375 C-151.94168469 99.51822859 -152.30813 132.94262729 -142.74658203 164.14624023 C-134.72057836 188.64954865 -122.39683589 211.70070234 -108 233 C-107.49597656 233.75249023 -106.99195313 234.50498047 -106.47265625 235.28027344 C-90.67105616 258.85460574 -73.41252911 281.31397159 -55.42822266 303.25585938 C-54.13995352 304.82908924 -52.85677275 306.40648248 -51.57421875 307.984375 C-49.39325109 310.66506705 -47.20075383 313.33552947 -45 316 C-44.54318848 316.55381348 -44.08637695 317.10762695 -43.61572266 317.67822266 C-42.14489831 319.45658744 -40.66715912 321.22898228 -39.1875 323 C-38.73101074 323.55260498 -38.27452148 324.10520996 -37.80419922 324.67456055 C-35.41755093 327.51503296 -33.08626564 329.92810139 -30 332 C-24.23491603 325.7170125 -18.71492815 319.29105671 -13.35302734 312.66210938 C-11.81416884 310.77171805 -10.26165405 308.89307293 -8.70703125 307.015625 C-1.84212318 298.72467322 4.93180184 290.3782966 11.53564453 281.87792969 C13.13949036 279.82111373 14.75485197 277.77365012 16.37109375 275.7265625 C50.00676106 233.00230591 84.03633224 183.76660336 88 128 C88.0721875 127.05511719 88.144375 126.11023438 88.21875 125.13671875 C89.26516266 97.10157951 77.21015717 68.15506728 58.4375 47.6875 C56.64022117 45.77271706 54.83274065 43.87967858 53 42 C52.19864624 41.15707397 52.19864624 41.15707397 51.38110352 40.29711914 C38.31537311 26.80233715 21.38429107 17.65900977 3.75 11.625 C3.05398682 11.38604004 2.35797363 11.14708008 1.64086914 10.90087891 C-9.18746095 7.41389654 -19.99189203 6.63532443 -31.3125 6.6875 C-33.23497559 6.69595947 -33.23497559 6.69595947 -35.19628906 6.70458984 C-44.18005218 6.82000069 -52.36276825 7.36305713 -61 10 Z " fill="#0B0B0B" transform="translate(721,128)"/>
<path d="M0 0 C12.76621373 11.13873284 21.89180111 26.89490377 23.3359375 43.97265625 C23.75176836 62.81070833 18.10007175 80.09884473 5 94 C-8.40517178 107.06763148 -25.98393997 113.54158704 -44.44848633 113.42016602 C-60.98640816 112.9352602 -75.63016024 106.18742519 -87.49609375 94.71875 C-100.39768165 80.71016158 -105.69942687 62.38655078 -104.9375 43.5 C-103.40247524 29.12017035 -97.13226798 14.42176135 -87 4 C-86.34 4 -85.68 4 -85 4 C-84.67 3.01 -84.34 2.02 -84 1 C-60.57815487 -19.33748693 -23.71719935 -20.19279036 0 0 Z M-63 0 C-63.76054688 0.350625 -64.52109375 0.70125 -65.3046875 1.0625 C-78.20151219 7.4885995 -86.76585965 18.35384163 -91.3828125 31.8125 C-96.0450253 47.72270873 -94.75175905 63.4835478 -86.78515625 78.18359375 C-78.16309937 91.78644497 -65.93797815 99.01431273 -50.4609375 102.5859375 C-36.25586642 104.97599708 -22.84673521 100.77254074 -11 93 C0.34262917 84.27369552 9.04418167 72.92040025 11.71875 58.5703125 C13.45518531 42.70122311 10.63391472 28.55614444 1.18359375 15.48828125 C-7.48484193 5.17371839 -18.84885459 -1.13665441 -32 -4 C-42.70518902 -4.89570249 -53.28668631 -5.00482604 -63 0 Z " fill="#0B0B0B" transform="translate(731,205)"/>
<path d="M0 0 C0.7425 0.391875 1.485 0.78375 2.25 1.1875 C2.31999306 27.62085183 2.3729405 54.05418984 2.40543652 80.48761559 C2.42092411 92.76032987 2.44204969 105.03298667 2.47631836 117.30566406 C2.50616288 127.99898745 2.52556122 138.69226923 2.53226548 149.38563311 C2.53618615 155.05089697 2.54543935 160.71604175 2.56719017 166.38126755 C2.58747724 171.70815348 2.59384963 177.03487071 2.58932304 182.36179161 C2.59015174 184.32183052 2.5961635 186.28187479 2.60761642 188.24188042 C2.622439 190.9082396 2.61899142 193.57395327 2.61076355 196.24032593 C2.61950207 197.02436275 2.6282406 197.80839957 2.63724393 198.61619508 C2.61914349 200.77107811 2.61914349 200.77107811 2.25 204.1875 C-0.75 206.1875 -0.75 206.1875 -2.8125 205.9375 C-4.75 205.1875 -4.75 205.1875 -6.75 203.1875 C-6.95198039 200.5363874 -7.02803753 197.98912172 -7.01742554 195.33644104 C-7.02422221 194.10586177 -7.02422221 194.10586177 -7.03115618 192.85042232 C-7.04387384 190.08585346 -7.0421751 187.32147974 -7.04052734 184.55688477 C-7.04650797 182.58118433 -7.05331243 180.60548624 -7.06088257 178.62979126 C-7.0785964 173.25176818 -7.08324019 167.87380868 -7.08451414 162.49575925 C-7.08640951 158.01240262 -7.09376279 153.52906093 -7.10085833 149.04571003 C-7.11716007 138.47211609 -7.12202563 127.89855623 -7.12060547 117.32495117 C-7.11940332 106.40266679 -7.14051576 95.48057979 -7.1720928 84.55834538 C-7.19820642 75.19357035 -7.20897485 65.82885998 -7.20769465 56.4640488 C-7.2071836 50.86527543 -7.21294543 45.26667739 -7.23405075 39.66794014 C-7.25335072 34.40415815 -7.25361434 29.14072023 -7.23901749 23.87692642 C-7.23691806 21.94149844 -7.24169721 20.00604939 -7.2537384 18.07065773 C-7.26907715 15.43520903 -7.25995909 12.80096367 -7.24447632 10.1655426 C-7.25476344 9.39356476 -7.26505057 8.62158692 -7.27564943 7.8262158 C-7.23308324 4.56394846 -7.11800179 2.64228154 -5.03159523 0.06387234 C-2.75 -0.8125 -2.75 -0.8125 0 0 Z " fill="#010101" transform="translate(613.75,400.8125)"/>
</svg>
