<?xml version="1.0" encoding="UTF-8"?>
<svg version="1.1" xmlns="http://www.w3.org/2000/svg" width="1024" height="1024">
<path d="M0 0 C0.70837509 0.00718552 1.41675018 0.01437103 2.14659119 0.02177429 C3.23749306 0.02246162 3.23749306 0.02246162 4.35043335 0.02316284 C5.88788993 0.02618468 7.42534346 0.03406899 8.9627533 0.0464325 C11.32427229 0.06469731 13.68539954 0.06694214 16.04698181 0.06669617 C17.53852168 0.07161101 19.03005888 0.07743918 20.52159119 0.08427429 C21.23199051 0.08538712 21.94238983 0.08649994 22.67431641 0.08764648 C27.65163129 0.13618939 27.65163129 0.13618939 28.76768494 1.25224304 C28.85516701 3.17891812 28.87465828 5.10876165 28.86534119 7.03739929 C28.8605072 8.79213562 28.8605072 8.79213562 28.85557556 10.58232117 C28.8430072 12.42987 28.8430072 12.42987 28.83018494 14.31474304 C28.82567322 15.55030945 28.8211615 16.78587585 28.81651306 18.05888367 C28.80468101 21.12338421 28.78819667 24.18779026 28.76768494 27.25224304 C29.70870056 27.43093933 30.64971619 27.60963562 31.61924744 27.79374695 C53.62827572 32.05574115 72.25700269 41.76153702 85.08799744 60.50224304 C89.44989104 67.64357582 95.94098622 78.92708247 94.33799744 87.56864929 C94.05569275 88.4020282 94.05569275 88.4020282 93.76768494 89.25224304 C88.24942092 91.07193868 83.18442221 91.66425766 77.39268494 91.87724304 C76.5265155 91.91156433 75.66034607 91.94588562 74.76792908 91.98124695 C72.98205974 92.04739629 71.19599333 92.10842131 69.40977478 92.16435242 C66.86739628 92.24892609 64.32813391 92.36680654 61.78721619 92.48661804 C60.25994904 92.53592577 58.73260478 92.58291687 57.20518494 92.62724304 C56.49765076 92.66543152 55.79011658 92.70362 55.06114197 92.7429657 C53.07627869 92.77568054 53.07627869 92.77568054 49.76768494 92.25224304 C47.90049744 89.92021179 47.90049744 89.92021179 46.76768494 87.25224304 C46.25205994 86.24161804 45.73643494 85.23099304 45.20518494 84.18974304 C44.36925367 82.48153568 43.5616374 80.75772895 42.83018494 79.00224304 C41.68605381 76.76771821 41.68605381 76.76771821 37.76768494 75.25224304 C35.12768494 73.93224304 32.48768494 72.61224304 29.76768494 71.25224304 C29.43768494 90.39224304 29.10768494 109.53224304 28.76768494 129.25224304 C31.73768494 129.58224304 34.70768494 129.91224304 37.76768494 130.25224304 C57.45215495 134.78472805 75.6127967 143.49698895 87.76768494 160.25224304 C93.67122761 170.36816528 97.83891157 181.54969863 98.76768494 193.25224304 C98.84696228 194.20937195 98.84696228 194.20937195 98.92784119 195.18583679 C99.70300773 213.01466724 92.55641127 232.34206331 80.56065369 245.47880554 C67.29355429 258.60138316 47.92296706 269.25224304 28.76768494 269.25224304 C28.78339539 270.05967957 28.79910583 270.86711609 28.81529236 271.69902039 C28.87748173 275.3416906 28.91662502 278.98424938 28.95518494 282.62724304 C28.98032166 283.89825867 29.00545837 285.16927429 29.03135681 286.47880554 C29.04102478 287.69052429 29.05069275 288.90224304 29.06065369 290.15068054 C29.07636414 291.27135925 29.09207458 292.39203796 29.10826111 293.54667664 C28.99587097 294.43951355 28.88348083 295.33235046 28.76768494 296.25224304 C23.98081226 299.44349149 18.48597253 298.58550582 12.88877869 298.56791687 C10.77497444 298.56475395 8.66256647 298.58823317 6.54893494 298.61357117 C5.2051867 298.61584399 3.8614347 298.61654774 2.51768494 298.61552429 C1.29565369 298.61850525 0.07362244 298.62148621 -1.18544006 298.6245575 C-4.23231506 298.25224304 -4.23231506 298.25224304 -6.13587952 297.10331726 C-7.71694217 294.43406385 -7.57046736 292.35931646 -7.52528381 289.27177429 C-7.51561584 288.10839539 -7.50594788 286.94501648 -7.49598694 285.74638367 C-7.47085022 284.53144226 -7.4457135 283.31650085 -7.41981506 282.06474304 C-7.40627991 280.83820007 -7.39274475 279.6116571 -7.37879944 278.34794617 C-7.34340248 275.3156064 -7.29402266 272.28414308 -7.23231506 269.25224304 C-7.79281555 269.20470886 -8.35331604 269.15717468 -8.93080139 269.10820007 C-26.63821986 267.40581441 -43.8159089 260.06989752 -56.23231506 247.25224304 C-56.87813538 246.6038446 -57.52395569 245.95544617 -58.18934631 245.28739929 C-68.18825965 234.63496221 -74.45559858 219.57104299 -74.29481506 204.93974304 C-74.28579163 203.87111023 -74.27676819 202.80247742 -74.26747131 201.70146179 C-74.25586975 200.8932196 -74.24426819 200.08497742 -74.23231506 199.25224304 C-71.02748262 197.3932323 -68.40293809 196.89954572 -64.72450256 196.61943054 C-63.65458069 196.53564148 -62.58465881 196.45185242 -61.48231506 196.36552429 C-60.36856506 196.28689148 -59.25481506 196.20825867 -58.10731506 196.12724304 C-57.01676819 196.04087585 -55.92622131 195.95450867 -54.80262756 195.86552429 C-39.70806459 194.72801536 -39.70806459 194.72801536 -35.23231506 195.25224304 C-32.655187 197.8293711 -32.3249242 199.99965791 -31.35731506 203.50224304 C-28.80126381 212.01305108 -25.36753173 217.0424023 -18.23231506 222.25224304 C-14.60231506 223.57224304 -10.97231506 224.89224304 -7.23231506 226.25224304 C-7.23231506 205.79224304 -7.23231506 185.33224304 -7.23231506 164.25224304 C-11.19231506 163.26224304 -15.15231506 162.27224304 -19.23231506 161.25224304 C-37.14770015 155.10835018 -54.46603958 145.97431017 -63.85731506 128.75224304 C-71.19519818 112.84162269 -73.78958256 92.01258373 -68.38465881 75.02568054 C-60.47639512 55.99223233 -48.24356256 41.74728226 -29.13856506 33.40458679 C-27.75758282 32.84277957 -26.37219211 32.29166969 -24.98231506 31.75224304 C-24.35744202 31.5086908 -23.73256897 31.26513855 -23.08876038 31.01420593 C-17.88686476 29.15745211 -12.72328569 28.6274547 -7.23231506 28.25224304 C-7.2427887 27.47509949 -7.25326233 26.69795593 -7.26405334 25.89726257 C-7.30551789 22.39062204 -7.33161084 18.88403299 -7.35731506 15.37724304 C-7.37407288 14.15392273 -7.39083069 12.93060242 -7.40809631 11.67021179 C-7.41454163 10.50361023 -7.42098694 9.33700867 -7.42762756 8.13505554 C-7.4381012 7.05627136 -7.44857483 5.97748718 -7.45936584 4.86601257 C-7.02618282 -0.12071588 -4.38752115 0.02053652 0 0 Z M0.76768494 8.25224304 C0.69420837 10.81618835 0.69420837 10.81618835 0.61924744 13.43193054 C0.54422936 15.66371833 0.46868112 17.89548834 0.39268494 20.12724304 C0.36174744 21.25517273 0.33080994 22.38310242 0.29893494 23.54521179 C0.26026306 24.62157898 0.22159119 25.69794617 0.18174744 26.80693054 C0.13461609 28.29942322 0.13461609 28.29942322 0.08653259 29.82206726 C-0.23231506 32.25224304 -0.23231506 32.25224304 -2.23231506 34.25224304 C-4.85703565 34.9245708 -7.45716332 35.5151645 -10.10731506 36.06474304 C-21.92544781 38.70439542 -31.60671854 42.79745413 -41.23231506 50.25224304 C-41.84590881 50.68923523 -42.45950256 51.12622742 -43.09169006 51.57646179 C-53.82487738 59.77405669 -60.65068745 73.4875061 -62.91590881 86.56864929 C-64.67520237 101.49006499 -62.32575514 118.67677709 -53.18934631 131.01005554 C-50.97481261 133.56382074 -48.68579338 135.92833513 -46.23231506 138.25224304 C-45.65094788 138.80396179 -45.06958069 139.35568054 -44.47059631 139.92411804 C-34.15386191 148.54844433 -13.7501138 158.25224304 -0.23231506 158.25224304 C-0.20919061 168.01375292 -0.19139945 177.77525634 -0.18050289 187.53678799 C-0.17527429 192.06898399 -0.16817706 196.60116131 -0.15687561 201.13334656 C-0.14604592 205.50347135 -0.14003806 209.87357812 -0.13743782 214.24371529 C-0.13558372 215.91475267 -0.13196339 217.58578902 -0.12658501 219.25681877 C-0.11937348 221.58921856 -0.11832417 223.92154297 -0.11878967 226.25395203 C-0.1151944 226.95166214 -0.11159912 227.64937225 -0.1078949 228.3682251 C-0.1182629 233.13819088 -0.1182629 233.13819088 -1.23231506 234.25224304 C-13.59396239 233.65409882 -23.44617069 229.30139398 -31.98231506 220.37724304 C-36.21081571 214.50432547 -38.22591508 209.27464297 -40.23231506 202.25224304 C-49.14231506 202.91224304 -58.05231506 203.57224304 -67.23231506 204.25224304 C-64.68570961 219.53187575 -61.21628839 229.4624728 -51.23231506 241.25224304 C-50.66641663 241.93157898 -50.10051819 242.61091492 -49.51747131 243.31083679 C-38.5564608 255.34382878 -21.80825819 259.86701557 -6.2469635 262.26493835 C-4.56477926 262.53445959 -2.89612902 262.88603463 -1.23231506 263.25224304 C0.10874899 265.93437115 -0.01781088 268.13622336 0.08409119 271.13505554 C0.12598572 272.3016571 0.16788025 273.46825867 0.21104431 274.67021179 C0.25036072 275.8935321 0.28967712 277.11685242 0.33018494 278.37724304 C0.37336853 279.60829773 0.41655212 280.83935242 0.46104431 282.10771179 C0.56737116 285.15574817 0.66805466 288.20398043 0.76768494 291.25224304 C7.69768494 291.25224304 14.62768494 291.25224304 21.76768494 291.25224304 C22.09768494 282.34224304 22.42768494 273.43224304 22.76768494 264.25224304 C26.79368329 262.91024359 30.51311682 261.82919434 34.62852478 260.960495 C48.63305489 257.96043759 60.19836374 253.28164535 70.76768494 243.25224304 C71.55916931 242.51361023 72.35065369 241.77497742 73.16612244 241.01396179 C84.73154451 229.27091378 90.58563571 213.53699526 91.14268494 197.18974304 C90.65334357 182.41163363 85.268134 167.93085148 74.92002869 157.20536804 C61.17360567 144.73129997 44.34080803 139.38835431 26.47080994 135.86552429 C23.76768494 135.25224304 23.76768494 135.25224304 22.76768494 134.25224304 C22.67335508 132.04356474 22.65026062 129.83182783 22.65415955 127.62113953 C22.65401352 126.92848999 22.65386749 126.23584045 22.65371704 125.52220154 C22.65441619 123.22254858 22.66220865 120.92297567 22.67002869 118.62333679 C22.67189286 117.03292892 22.67331677 115.44252047 22.67431641 113.85211182 C22.67814165 109.65828375 22.68797198 105.46449009 22.69902039 101.27067566 C22.70923437 96.9943539 22.713814 92.7180266 22.71885681 88.44169617 C22.72959425 80.04519596 22.74667074 71.64872378 22.76768494 63.25224304 C26.01907797 61.62654653 28.70963083 63.17723711 32.04502869 64.25224304 C42.81900175 68.20939814 49.87568724 74.82298416 54.76768494 85.25224304 C65.15826434 85.37512769 75.40715402 85.08584898 85.76768494 84.25224304 C82.55919515 71.99216014 77.74601216 63.26015289 68.76768494 54.25224304 C68.0780365 53.53939148 67.38838806 52.82653992 66.67784119 52.09208679 C56.56396523 42.31722344 44.11469479 38.33344554 30.76768494 35.25224304 C28.12768494 34.59224304 25.48768494 33.93224304 22.76768494 33.25224304 C22.27268494 20.87724304 22.27268494 20.87724304 21.76768494 8.25224304 C14.83768494 8.25224304 7.90768494 8.25224304 0.76768494 8.25224304 Z " fill="#0F0F0F" transform="translate(466.23231506347656,327.7477569580078)"/>
<path d="M0 0 C0.87881836 0.22574707 1.75763672 0.45149414 2.66308594 0.68408203 C35.05650997 9.26076361 66.57976944 26.67567435 86.375 54.4375 C87.21635498 55.6138501 87.21635498 55.6138501 88.07470703 56.81396484 C106.70357308 83.27814794 117.47937887 113.18181656 117.3125 145.6875 C117.31034485 146.44178284 117.3081897 147.19606567 117.30596924 147.97320557 C117.25561793 158.94426048 116.85277278 169.34820202 114 180 C113.71793701 181.12873535 113.71793701 181.12873535 113.43017578 182.28027344 C106.90264833 208.13073616 94.03841628 233.17211913 75 252 C73.74316406 253.26457031 73.74316406 253.26457031 72.4609375 254.5546875 C64.33359669 262.63042614 55.86827741 269.23118341 46 275 C45.29198242 275.41427246 44.58396484 275.82854492 43.85449219 276.25537109 C10.97365663 295.17871535 -28.83484824 301.64126248 -66 293 C-66.69915527 292.83902832 -67.39831055 292.67805664 -68.11865234 292.51220703 C-93.23013816 286.46803206 -115.03837091 273.27380675 -134 256 C-135.15822266 254.96552734 -135.15822266 254.96552734 -136.33984375 253.91015625 C-152.49863119 238.68641618 -164.5922634 218.79950067 -172 198 C-172.43957031 196.84628906 -172.87914062 195.69257812 -173.33203125 194.50390625 C-182.65281671 168.79430767 -184.64191399 138.62597522 -178 112 C-177.82839355 111.29278809 -177.65678711 110.58557617 -177.47998047 109.85693359 C-174.84315699 99.29314479 -170.92850774 89.68596098 -166 80 C-165.47792969 78.93523437 -164.95585938 77.87046875 -164.41796875 76.7734375 C-151.33832805 51.1233392 -132.38566553 31.00739933 -108 16 C-107.36191406 15.60651367 -106.72382812 15.21302734 -106.06640625 14.80761719 C-75.95559796 -3.37218803 -34.0578492 -8.84973537 0 0 Z M-123 37 C-123.94230469 37.79792969 -124.88460937 38.59585938 -125.85546875 39.41796875 C-152.88203353 62.79634382 -169.89428225 98.54138596 -173 134 C-175.40339032 173.38076951 -163.14778763 211.27191308 -137 241 C-112.59271458 267.84004955 -79.06542941 286.23387718 -42.35351562 288.13720703 C-2.19399301 289.73582893 34.2085257 278.14027107 63.9375 250.875 C87.68844449 228.48762748 102.22516274 200.00359028 108 168 C108.19335938 166.95972656 108.38671875 165.91945313 108.5859375 164.84765625 C112.61787253 127.38109016 103.39018583 89.56990006 79.91381836 59.75756836 C78.62351079 58.15924402 77.31705146 56.57634443 76 55 C75.57348145 54.48695313 75.14696289 53.97390625 74.70751953 53.4453125 C53.85481431 28.70774123 22.68857829 12.46135818 -9 7 C-9.97791504 6.83081055 -9.97791504 6.83081055 -10.97558594 6.65820312 C-50.58760304 0.07243737 -92.55536283 10.43984604 -123 37 Z " fill="#0D0D0D" transform="translate(862,333)"/>
<path d="M0 0 C8.23850438 7.32695932 14.36235349 16.2143066 20.44897461 25.34423828 C20.86147461 24.73837891 21.27397461 24.13251953 21.69897461 23.50830078 C35.17511499 3.95586496 50.66305174 -12.75849385 75.07592773 -17.32617188 C96.29248065 -20.27291534 117.57414298 -17.03545192 135.29272461 -4.67138672 C137.7672351 -2.74842375 140.11907309 -0.75057408 142.44897461 1.34423828 C143.38290039 2.13894531 143.38290039 2.13894531 144.33569336 2.94970703 C156.15531112 13.70688724 163.35780512 31.22129929 164.67016602 47.00439453 C165.94460349 78.11151527 156.75859141 103.05791612 137.44897461 127.34423828 C136.38549805 128.69775391 136.38549805 128.69775391 135.30053711 130.07861328 C130.21293553 136.43352355 124.77632269 142.40859447 119.22241211 148.35205078 C117.07265415 150.65690149 114.99139497 153.00564898 112.94897461 155.40673828 C106.32586645 163.05003181 99.00498742 170.15192986 91.30834961 176.70361328 C89.26596633 178.50571617 87.3599575 180.40362775 85.44897461 182.34423828 C82.34264275 185.4926288 79.12424168 188.42156249 75.77319336 191.30517578 C72.82486325 193.89177799 69.95001012 196.5527924 67.07397461 199.21923828 C58.73312426 206.94012834 50.29135698 214.5125994 41.64086914 221.88525391 C37.233373 225.64895847 32.90863812 229.49380096 28.63256836 233.40673828 C26.30258949 235.47412561 23.8960199 237.41756642 21.44897461 239.34423828 C11.62019537 235.95075994 3.74760566 226.87812465 -3.78930664 219.89501953 C-9.43159092 214.68368765 -15.28113635 209.71500103 -21.11352539 204.71923828 C-42.82302762 186.12365979 -42.82302762 186.12365979 -52.67211914 176.97705078 C-54.81565028 175.01675229 -56.9797563 173.11634409 -59.18383789 171.22705078 C-64.15440772 166.89108423 -68.82519128 162.25613571 -73.48681641 157.59375 C-74.97744154 156.10530591 -76.47589556 154.62506551 -77.97485352 153.14501953 C-84.2816412 146.87541817 -90.06228593 140.35582099 -95.55102539 133.34423828 C-96.06834229 132.69148926 -96.58565918 132.03874023 -97.11865234 131.36621094 C-108.58158185 116.72562215 -117.16686259 101.15920502 -122.55102539 83.34423828 C-122.8049707 82.53083984 -123.05891602 81.71744141 -123.32055664 80.87939453 C-128.96551684 59.72094659 -124.44742452 35.10573386 -114.20336914 16.05126953 C-104.31355185 -0.15119709 -88.72381075 -10.29480391 -70.55102539 -15.09326172 C-45.46666093 -21.03085372 -20.04666147 -16.99699265 0 0 Z M-100.71508789 11.14892578 C-112.57600562 25.33155506 -118.98102099 45.84367016 -117.55102539 64.34423828 C-114.4813555 95.84672556 -96.96532583 120.27435405 -75.95678711 142.82080078 C-74.59830676 144.29299901 -73.26362474 145.78704795 -71.92993164 147.28173828 C-62.79895697 157.48455098 -52.80477539 166.79050175 -42.42602539 175.71533203 C-40.16351358 177.68088917 -37.95411857 179.70097137 -35.73852539 181.71923828 C-32.27572457 184.84846655 -28.74423536 187.84924177 -25.11352539 190.78173828 C-20.28153611 194.69237368 -15.67709585 198.80188213 -11.10180664 203.00830078 C-8.32161115 205.55432973 -5.48886967 208.03105633 -2.64086914 210.50048828 C-0.09703101 212.74477164 2.39114177 215.04617863 4.88647461 217.34423828 C9.55571882 221.60916246 14.38071441 225.56494302 19.44897461 229.34423828 C23.36922332 227.16867684 26.48550146 224.64738837 29.76147461 221.59423828 C32.93852975 218.65863933 36.11328218 215.73483132 39.38647461 212.90673828 C46.27959847 206.90304976 52.98787128 200.69210207 59.61303711 194.39501953 C66.59723058 187.76104974 73.55265729 181.28432576 81.09741211 175.28955078 C84.12485172 172.785124 86.83603341 170.04393528 89.57006836 167.22705078 C91.37878932 165.41456949 93.24872942 163.75214692 95.19897461 162.09423828 C103.61962774 154.81508823 111.27500555 146.88695641 118.18334961 138.16455078 C120.18760025 135.66960429 122.26578924 133.26291559 124.38110352 130.86230469 C145.32702883 106.87859042 158.62462986 80.39202407 156.69262695 48.05126953 C155.15079567 30.92118412 146.78783469 15.16942758 133.69897461 4.09423828 C117.17637464 -8.43055036 97.32219045 -11.62463171 77.10131836 -9.26513672 C60.44454312 -5.6909181 44.53993339 4.72752282 34.44897461 18.34423828 C31.55118776 22.87990466 29.01316413 27.61449374 26.44897461 32.34423828 C25.12669725 34.6840943 23.78880653 37.01435356 22.44897461 39.34423828 C21.12897461 39.34423828 19.80897461 39.34423828 18.44897461 39.34423828 C17.7393457 37.91144531 17.7393457 37.91144531 17.01538086 36.44970703 C12.67497985 27.88456008 7.95207878 20.48644062 1.44897461 13.34423828 C0.76319336 12.55404297 0.07741211 11.76384766 -0.62915039 10.94970703 C-12.2795791 -1.71474047 -29.80411167 -8.79761104 -46.80493164 -9.85888672 C-66.69141409 -10.14063145 -86.87253937 -3.71062631 -100.71508789 11.14892578 Z " fill="#0E0E0E" transform="translate(167.551025390625,371.65576171875)"/>
<path d="M0 0 C2.5502173 0.86196662 3.72233855 1.51741143 5.07739258 3.87255859 C5.34704834 4.62359863 5.6167041 5.37463867 5.89453125 6.1484375 C6.36221924 7.40068115 6.36221924 7.40068115 6.83935547 8.67822266 C7.16049316 9.56815918 7.48163086 10.4580957 7.8125 11.375 C15.35588988 31.0901207 25.60084069 44.2921944 45.19140625 53.5 C68.76139359 63.21719724 93.84763308 62.15993586 117.26171875 52.671875 C122.5806814 50.38246142 127.33784315 47.42205452 132 44 C132.64195312 43.54109375 133.28390625 43.0821875 133.9453125 42.609375 C144.40773671 34.44586911 150.61202573 21.63640954 155.0625 9.4375 C156.33945955 6.08076667 156.80810015 5.14828625 159.75 2.875 C160.4925 2.58625 161.235 2.2975 162 2 C164 4 164 4 164.15234375 5.92578125 C162.64043882 22.72167056 153.12655693 37.63834896 141 49 C122.8628611 63.38382352 103.56601138 69.23335951 80.625 69.3125 C79.90479675 69.31511841 79.18459351 69.31773682 78.44256592 69.32043457 C67.77135878 69.32460359 58.10252618 68.72877403 48 65 C46.62521484 64.54947266 46.62521484 64.54947266 45.22265625 64.08984375 C26.6408677 57.47598681 11.73513618 42.12616288 2.625 25 C-0.95682892 17.39734362 -4.14284797 9.40190107 -2 1 C-1.34 0.67 -0.68 0.34 0 0 Z " fill="#0D0D0D" transform="translate(750,500)"/>
<path d="M0 0 C7.88921472 0.09780018 16.01761875 4.70996783 22.1875 9.375 C23.0125 9.91125 23.8375 10.4475 24.6875 11 C31.29685777 17.27888988 34.98773417 25.31010938 35.28515625 34.33984375 C35.01156375 43.54349557 32.63991262 51.82400998 26.0703125 58.5390625 C17.84959546 65.22372861 8.02821221 70.16822284 -2.8125 69.375 C-4.64933222 67.53816778 -3.94024193 64.58844528 -3.94189453 62.12695312 C-3.94364685 61.47492416 -3.94539917 60.8228952 -3.94720459 60.15110779 C-3.95162204 57.98612847 -3.94868551 55.82123021 -3.9453125 53.65625 C-3.94598557 52.15791813 -3.94695562 50.65958637 -3.94821167 49.16125488 C-3.9496885 46.01716067 -3.94753458 42.87309483 -3.94287109 39.72900391 C-3.9371738 35.69013461 -3.94045289 31.65133176 -3.94644356 27.6124649 C-3.95004958 24.5173492 -3.94891039 21.42224935 -3.94631577 18.32713318 C-3.94564661 16.83751925 -3.94647452 15.3479039 -3.94879532 13.85829163 C-3.95132253 11.77983765 -3.94748033 9.70149269 -3.94189453 7.62304688 C-3.94109894 6.43803589 -3.94030334 5.2530249 -3.93948364 4.03210449 C-3.7642749 0.36590059 -3.65096249 0.486795 0 0 Z M3.1875 9.375 C3.1875 26.535 3.1875 43.695 3.1875 61.375 C13.84751777 58.17699467 19.81976458 55.58666732 25.27734375 46.20703125 C28.27339558 40.17635181 28.29681305 32.94171504 26.31640625 26.57421875 C22.35383279 18.01246166 16.7213826 13.70250895 8.203125 10.0390625 C6.06630866 9.21854368 6.06630866 9.21854368 3.1875 9.375 Z " fill="#090909" transform="translate(491.8125,493.625)"/>
<path d="M0 0 C1.33550141 2.67100283 1.12714001 4.71231224 1.12939453 7.703125 C1.13254669 8.89776367 1.13569885 10.09240234 1.13894653 11.32324219 C1.1369223 12.61907227 1.13489807 13.91490234 1.1328125 15.25 C1.13348589 16.58756528 1.13445621 17.92513045 1.13571167 19.26269531 C1.13718698 22.06706913 1.13503943 24.87141112 1.13037109 27.67578125 C1.12467389 31.2739719 1.12795378 34.87208797 1.13394356 38.47027588 C1.13755366 41.23259037 1.13640851 43.99488713 1.13381577 46.75720215 C1.13282237 48.73038786 1.1358642 50.70357426 1.13894653 52.67675781 C1.13421829 54.46871582 1.13421829 54.46871582 1.12939453 56.296875 C1.12859894 57.35229492 1.12780334 58.40771484 1.12698364 59.49511719 C1 62 1 62 0 64 C-10.28496689 63.95537975 -18.92472 59.65674481 -26.5 52.7734375 C-32.10613107 46.14535545 -34.39041593 38.30716684 -34.27734375 29.7890625 C-33.46852783 21.65533618 -30.12820727 14.42162905 -24 9 C-16.61656145 3.20557605 -9.4979308 -0.59362067 0 0 Z M-19.75 16.375 C-24.14773052 21.5056856 -26.75725883 26.0818767 -27 33 C-25.98130753 41.05550658 -21.99731385 46.36803692 -16.07421875 51.703125 C-13.36321428 53.53124193 -13.36321428 53.53124193 -7 55 C-7 39.82 -7 24.64 -7 9 C-11.70521825 9 -16.35061819 13.43917026 -19.75 16.375 Z " fill="#171717" transform="translate(466,391)"/>
<path d="M0 0 C4.70588235 0.70588235 4.70588235 0.70588235 6 2 C6.0883967 4.3756852 6.11530305 6.72208674 6.09765625 9.09765625 C6.0962413 9.80651474 6.09482635 10.51537323 6.09336853 11.24571228 C6.08775443 13.51801712 6.07519963 15.79022475 6.0625 18.0625 C6.05748681 19.59960796 6.05292359 21.13671745 6.04882812 22.67382812 C6.03778042 26.44925642 6.02050641 30.22461171 6 34 C6.71655762 33.98952637 7.43311523 33.97905273 8.17138672 33.96826172 C11.40588905 33.92678701 14.64033553 33.90070108 17.875 33.875 C19.00292969 33.85824219 20.13085938 33.84148437 21.29296875 33.82421875 C22.36933594 33.81777344 23.44570313 33.81132812 24.5546875 33.8046875 C25.54968262 33.79421387 26.54467773 33.78374023 27.56982422 33.77294922 C30 34 30 34 32 36 C31.44444444 40.55555556 31.44444444 40.55555556 30 42 C28.21928754 42.08726223 26.4351686 42.10699041 24.65234375 42.09765625 C23.57275391 42.09443359 22.49316406 42.09121094 21.38085938 42.08789062 C20.24455078 42.07951172 19.10824219 42.07113281 17.9375 42.0625 C16.79732422 42.05798828 15.65714844 42.05347656 14.48242188 42.04882812 C11.65489649 42.03699747 8.8274736 42.0205141 6 42 C6.01571045 43.25659424 6.01571045 43.25659424 6.03173828 44.53857422 C6.06580019 47.64338164 6.09088911 50.74809392 6.10986328 53.85302734 C6.12488107 55.8591136 6.15028981 57.86511324 6.17578125 59.87109375 C6.18544922 61.75634766 6.18544922 61.75634766 6.1953125 63.6796875 C6.21102295 65.42354736 6.21102295 65.42354736 6.22705078 67.20263672 C6 70 6 70 4 72 C2.35 71.67 0.7 71.34 -1 71 C-1 61.43 -1 51.86 -1 42 C-8.7641838 42.19760198 -8.7641838 42.19760198 -16.52661133 42.45043945 C-17.4936499 42.46292725 -18.46068848 42.47541504 -19.45703125 42.48828125 C-20.44678955 42.51446533 -21.43654785 42.54064941 -22.45629883 42.56762695 C-25 42 -25 42 -26.84643555 39.46948242 C-27.22711182 38.65455322 -27.60778809 37.83962402 -28 37 C-26.22497802 34.72008288 -25.3699213 34.04952877 -22.45629883 33.65942383 C-21.46654053 33.67513428 -20.47678223 33.69084473 -19.45703125 33.70703125 C-17.84731445 33.7215332 -17.84731445 33.7215332 -16.20507812 33.73632812 C-15.08552734 33.76146484 -13.96597656 33.78660156 -12.8125 33.8125 C-11.68134766 33.82603516 -10.55019531 33.83957031 -9.38476562 33.85351562 C-6.58936683 33.88890042 -3.79492108 33.93827052 -1 34 C-1.00785522 32.50835327 -1.00785522 32.50835327 -1.01586914 30.98657227 C-1.03392041 27.30966079 -1.04543246 23.63275325 -1.05493164 19.95581055 C-1.05997157 18.36205386 -1.0668035 16.76830181 -1.07543945 15.17456055 C-1.08751999 12.88849747 -1.09323155 10.60249533 -1.09765625 8.31640625 C-1.10281754 7.59973282 -1.10797882 6.88305939 -1.11329651 6.14466858 C-1.11349263 4.42936328 -1.06192007 2.71418734 -1 1 C-0.67 0.67 -0.34 0.34 0 0 Z " fill="#151515" transform="translate(357,437)"/>
<path d="M0 0 C3.39914084 1.68569638 5.43461399 4.09046598 7.4375 7.3125 C8.36580077 11.74771481 8.26882007 15.84584652 5.953125 19.77734375 C2.75291709 23.81711238 0.2245907 25.70338791 -4.8125 26.375 C-8.94022425 25.88938538 -11.7820298 24.62475852 -15 22 C-17.9741633 17.68266618 -18.6486549 14.18923924 -18 9 C-13.68558224 0.98750988 -8.90455063 -1.50281848 0 0 Z " fill="#080808" transform="translate(787,427)"/>
<path d="M0 0 C3.10605182 2.6492795 4.82033521 4.80245545 5.4453125 8.92578125 C5.71970241 14.36784784 4.83047145 17.60628917 1.125 21.8125 C-1.25848362 23.92358549 -2.82649973 24.76666392 -6.01953125 24.90625 C-11.08151078 24.57046363 -14.28811373 23.61677332 -17.875 19.8125 C-20.3981935 15.55962615 -20.56223132 11.64826188 -19.875 6.8125 C-15.70297273 -1.38255357 -8.43709194 -3.4848858 0 0 Z " fill="#080808" transform="translate(882.875,428.1875)"/>
<path d="M0 0 C8.06652174 -0.02312737 16.13302972 -0.04091709 24.19957638 -0.05181217 C27.94483037 -0.05704014 31.69006176 -0.06413622 35.43530273 -0.07543945 C39.04681687 -0.08627141 42.65830921 -0.09227749 46.26983833 -0.09487724 C47.65060329 -0.09673094 49.031367 -0.10035049 50.41212273 -0.10573006 C52.33975952 -0.11294447 54.26741807 -0.11340809 56.19506836 -0.11352539 C57.29427109 -0.115746 58.39347382 -0.11796661 59.52598572 -0.12025452 C62 0 62 0 63 1 C63.125 3.5 63.125 3.5 63 6 C61.23510748 7.76489252 58.71105142 7.13678359 56.31860352 7.14526367 C55.10386856 7.15164352 53.88913361 7.15802338 52.6375885 7.16459656 C51.30136149 7.16612513 49.96513394 7.16723914 48.62890625 7.16796875 C47.26749129 7.17117973 45.90607669 7.17454368 44.54466248 7.17805481 C41.68723755 7.18405216 38.82984289 7.1858941 35.97241211 7.18530273 C32.30575749 7.18520109 28.63929644 7.19885258 24.97268772 7.21607494 C22.15975549 7.22717819 19.34687029 7.22922246 16.53391838 7.22869301 C15.18188752 7.22987569 13.82985553 7.23431353 12.47784615 7.24202538 C10.58885299 7.25179073 8.69980339 7.24769195 6.81079102 7.24291992 C5.19648949 7.24505745 5.19648949 7.24505745 3.54957581 7.24723816 C1 7 1 7 -1 5 C-0.625 2.375 -0.625 2.375 0 0 Z " fill="#030303" transform="translate(588,486)"/>
<path d="M0 0 C1.61430153 0.00213753 1.61430153 0.00213753 3.26121521 0.00431824 C4.47910233 0.00124161 5.69698944 -0.00183502 6.95178223 -0.00500488 C8.28596688 0.00189233 9.62014967 0.00915926 10.95433044 0.01676941 C12.31671098 0.01796114 13.67909235 0.01841439 15.04147339 0.01815796 C17.89716227 0.01972293 20.75272582 0.02801436 23.60838318 0.04142761 C27.27618307 0.05843363 30.94384533 0.06224151 34.61168003 0.06148243 C37.42457401 0.0617538 40.23743766 0.06722935 43.05032158 0.07448387 C44.40316984 0.07767464 45.75602155 0.0796389 47.10887337 0.08037758 C48.99560398 0.08253589 50.88232188 0.09206541 52.76902771 0.10197449 C53.84443314 0.10578629 54.91983856 0.10959808 56.02783203 0.11352539 C58.45042419 0.24723816 58.45042419 0.24723816 59.45042419 1.24723816 C59.57542419 3.74723816 59.57542419 3.74723816 59.45042419 6.24723816 C58.45042419 7.24723816 58.45042419 7.24723816 55.97640991 7.36749268 C54.87720718 7.36527206 53.77800446 7.36305145 52.64549255 7.36076355 C50.78367592 7.36065025 50.78367592 7.36065025 48.88424683 7.36053467 C47.5195868 7.35542727 46.15492717 7.35021126 44.79026794 7.34489441 C43.40164236 7.34303016 42.01301612 7.34160629 40.62438965 7.34060669 C36.96321305 7.33678202 33.30207589 7.32695219 29.64091492 7.31590271 C25.90750156 7.30568748 22.17408186 7.30110883 18.44065857 7.29606628 C11.11056243 7.28532987 3.78049883 7.26825407 -3.54957581 7.24723816 C-4.17457581 4.87223816 -4.17457581 4.87223816 -4.54957581 2.24723816 C-2.54957581 0.24723816 -2.54957581 0.24723816 0 0 Z " fill="#131313" transform="translate(591.5495758056641,456.7527618408203)"/>
</svg>
