<?xml version="1.0" encoding="UTF-8"?>
<svg version="1.1" xmlns="http://www.w3.org/2000/svg" width="1024" height="1024">
<path d="M0 0 C0.79637878 0.00021149 1.59275757 0.00042297 2.41326904 0.00064087 C23.84707652 0.0569403 44.61826678 3.0279022 65.125 9.375 C65.80046875 9.57786621 66.4759375 9.78073242 67.171875 9.98974609 C91.97944792 17.56783462 115.49734976 30.42226846 135.125 47.375 C136.29482422 48.38046875 136.29482422 48.38046875 137.48828125 49.40625 C140.07759175 51.68583437 142.60823744 54.0155351 145.125 56.375 C145.61871094 56.83471191 146.11242187 57.29442383 146.62109375 57.76806641 C155.91579973 66.49199399 163.70273431 76.02646245 171.125 86.375 C171.58003906 87.00664062 172.03507813 87.63828125 172.50390625 88.2890625 C188.73986606 111.06787178 199.57668318 136.98330974 205.125 164.375 C205.28726074 165.13619141 205.44952148 165.89738281 205.61669922 166.68164062 C216.00119105 217.2216442 203.95336593 271.87241896 176.125 314.8125 C168.17198978 326.21559408 159.17457034 336.83758927 150.125 347.375 C153.15502714 350.99625195 156.19282581 354.50381539 159.5625 357.8125 C169.5582135 367.67464049 169.5582135 367.67464049 171.125 372.375 C171.7540625 372.08625 172.383125 371.7975 173.03125 371.5 C181.13368335 367.98569156 187.43545587 367.08571655 195.90625 370.21875 C203.01898122 373.92538458 207.85948335 381.39819661 212.7734375 387.51953125 C215.13989388 390.39308542 217.60258303 393.13782617 220.125 395.875 C223.39918423 399.43170244 226.53142433 403.04661811 229.5625 406.8125 C232.78445075 410.80726434 236.13177983 414.62031667 239.625 418.375 C243.83898755 422.9088995 247.8072525 427.58740684 251.69140625 432.40625 C255.62220942 437.2014513 259.713229 441.85594255 263.78515625 446.53125 C267.00554565 450.22987799 270.19212644 453.95659553 273.375 457.6875 C276.79926605 461.69859256 280.26227275 465.66155706 283.8125 469.5625 C286.84212868 472.89727114 289.73108092 476.30787639 292.5625 479.8125 C295.63836588 483.61587503 298.81253166 487.27582652 302.125 490.875 C307.01959555 496.2021412 311.60487648 501.72904646 316.125 507.375 C316.77726563 508.15875 317.42953125 508.9425 318.1015625 509.75 C324.88460366 518.06283342 328.8518584 526.47212402 328.125 537.375 C325.99704542 549.93227041 314.90960155 557.6427641 305.6875 565.33984375 C302.79397941 567.76911712 300.04866948 570.31323357 297.32568359 572.93066406 C290.24117288 579.69283983 284.67262844 583.44757547 274.6875 583.9375 C264.53690398 583.55936371 258.15273786 579.11356201 251.33203125 571.88671875 C248.28936215 568.42399976 245.3883356 564.85986346 242.5078125 561.26171875 C239.97804422 558.19696668 237.33290408 555.28121492 234.625 552.375 C231.19259748 548.6878858 227.89939754 544.93386286 224.75 541 C221.21782391 536.60693511 217.4860408 532.47582942 213.625 528.375 C208.97838341 523.43980688 204.60573943 518.38024596 200.3671875 513.0859375 C197.88593371 510.08595469 195.27634044 507.2234797 192.625 504.375 C188.35576595 499.78745234 184.36741039 495.0405672 180.4375 490.15625 C177.92528867 487.13480664 175.30097543 484.25059922 172.625 481.375 C168.3354224 476.76498361 164.32089103 471.99716764 160.37109375 467.08984375 C158.0366941 464.26826505 155.60509402 461.56909288 153.125 458.875 C148.99756757 454.38977157 145.11702016 449.75980697 141.296875 445.01171875 C139.18797843 442.45145762 136.99264589 440.00567444 134.75 437.5625 C130.00441697 432.25084344 127.49277909 427.60798882 127.125 420.375 C127.85682377 414.0401505 130.20579244 408.97351559 133.125 403.375 C131.98224609 402.05048828 131.98224609 402.05048828 130.81640625 400.69921875 C124.48031329 393.34004645 118.22939882 385.92842278 112.125 378.375 C111.3 378.7875 110.475 379.2 109.625 379.625 C107.81848842 380.52825579 106.01178992 381.4311522 104.20239258 382.32861328 C100.94834954 383.94588023 97.71269733 385.58452317 94.51171875 387.3046875 C81.10830021 394.41052444 66.79610735 399.1564111 52.43357849 403.93998718 C51.62590247 404.20904216 50.81822645 404.47809713 49.9860754 404.75530529 C49.06484308 405.06205417 49.06484308 405.06205417 48.125 405.375 C48.12868717 406.35898584 48.13237434 407.34297169 48.13617325 408.35677528 C48.22494852 432.29288109 48.29069211 456.22896556 48.33224869 480.16520119 C48.352879 491.74056472 48.38100868 503.31581953 48.42675781 514.89111328 C48.46661107 524.9794568 48.4924294 535.06772159 48.50135398 545.15614164 C48.50657126 550.49852771 48.51884371 555.84068855 48.54792023 561.18300247 C48.57506532 566.21117783 48.58344676 571.23903509 48.57743073 576.26727676 C48.57853136 578.11276477 48.5864906 579.95826339 48.6018219 581.80368805 C48.62173586 584.32431935 48.61693444 586.84375111 48.60601807 589.3644104 C48.61766943 590.09399542 48.6293208 590.82358045 48.64132524 591.57527411 C48.57281707 597.43117073 46.43589344 600.72627949 42.68041992 605.03076172 C42.24318604 605.45115723 41.80595215 605.87155273 41.35546875 606.3046875 C40.86320801 606.78534668 40.37094727 607.26600586 39.86376953 607.76123047 C39.35185059 608.25252441 38.83993164 608.74381836 38.3125 609.25 C35.00079104 612.49025465 31.73846959 615.70358085 28.75 619.25 C24.8490497 623.84274444 20.52260403 628.00228028 16.24316406 632.23730469 C12.64820782 635.80922864 9.23389733 639.44924834 5.9609375 643.3203125 C3.45990163 646.11934414 0.79455797 648.73758087 -1.875 651.375 C-5.73156344 655.18973392 -9.44186948 659.04689003 -12.96484375 663.17578125 C-15.56559507 666.1701023 -18.24868783 669.08479182 -20.9375 672 C-21.68 672.80812134 -21.68 672.80812134 -22.4375 673.63256836 C-22.92347656 674.15858643 -23.40945313 674.68460449 -23.91015625 675.2265625 C-24.3369165 675.68885254 -24.76367676 676.15114258 -25.20336914 676.62744141 C-25.75500732 677.20413574 -26.30664551 677.78083008 -26.875 678.375 C-27.57250429 679.38560675 -28.27000858 680.39621349 -28.98864937 681.43744469 C-33.24075653 685.62017749 -38.45056108 685.14974805 -44.08143699 685.16813624 C-45.63037679 685.15378277 -47.17931144 685.13886498 -48.72824097 685.1234436 C-50.37764834 685.12892514 -52.02704873 685.13702961 -53.67643178 685.14753091 C-58.20833439 685.1687191 -62.7394489 685.15243862 -67.27131724 685.13002992 C-72.15897099 685.11235767 -77.04652094 685.12922955 -81.93417358 685.14175415 C-91.50939325 685.16074213 -101.08431172 685.14751972 -110.65950905 685.12322827 C-121.80856983 685.09599713 -132.95755871 685.09926327 -144.10664429 685.10349493 C-164.00003176 685.10987661 -183.89327608 685.08652969 -203.78662109 685.04736328 C-223.092004 685.00936441 -242.39721909 684.99518526 -261.70263672 685.00634766 C-282.71949513 685.01846365 -303.7362797 685.01810758 -324.75313199 684.99537599 C-326.99435814 684.9929614 -329.2355843 684.99054942 -331.47681046 684.98814011 C-333.13093318 684.98632949 -333.13093318 684.98632949 -334.81847253 684.9844823 C-342.59038417 684.97672319 -350.36226833 684.97751158 -358.13418198 684.9813118 C-367.60684567 684.98555642 -377.07936237 684.97510249 -386.55198465 684.94608469 C-391.38536873 684.9315981 -396.21853874 684.92344132 -401.05194092 684.93257141 C-405.47726774 684.94072729 -409.90215269 684.93038552 -414.3274125 684.90531926 C-415.92762376 684.89946599 -417.52787671 684.90032565 -419.12807725 684.90860541 C-428.8781219 684.95447055 -435.81785039 684.6088927 -443.5625 678.125 C-448.98316959 671.67879833 -451.99577583 666.25927088 -452.00380117 657.70028764 C-452.00707336 656.78282692 -452.01034555 655.8653662 -452.01371691 654.92010364 C-452.01223328 653.91894217 -452.01074966 652.91778071 -452.00922108 651.88628101 C-452.01157331 650.81307884 -452.01392554 649.73987667 -452.01634905 648.63415322 C-452.02304221 645.01340104 -452.02258073 641.39268473 -452.02217102 637.77192688 C-452.02546943 635.15961454 -452.02919495 632.54730271 -452.0333125 629.93499154 C-452.04263835 623.49265039 -452.04656052 617.05031611 -452.04883147 610.60796906 C-452.05179354 602.89274479 -452.06049092 595.17752964 -452.06924575 587.46231015 C-452.09008993 568.81466018 -452.10055952 550.16700862 -452.10937535 531.5193497 C-452.11358151 522.69905644 -452.11880351 513.87876386 -452.12405988 505.05847118 C-452.14194918 474.86980212 -452.15694593 444.68113286 -452.16438007 414.4924593 C-452.16485483 412.59723272 -452.16533072 410.70200615 -452.16580774 408.80677957 C-452.16604411 407.86691351 -452.16628049 406.92704745 -452.16652403 405.9587006 C-452.16772523 401.1968323 -452.16894068 396.434964 -452.17016602 391.6730957 C-452.17040617 390.72808746 -452.17064632 389.78307921 -452.17089374 388.80943435 C-452.17878857 358.16258169 -452.20222464 327.51576771 -452.23472196 296.86893194 C-452.26901193 264.47242884 -452.28873039 232.07594839 -452.29202431 199.67942685 C-452.29244186 196.12377527 -452.29292142 192.56812371 -452.29344749 189.01247215 C-452.29357069 188.13696148 -452.29369388 187.26145081 -452.2938208 186.35940951 C-452.29615374 172.26443884 -452.31181876 158.16951307 -452.33228934 144.07455841 C-452.35253489 129.90995826 -452.35803064 115.74541209 -452.34851871 101.58080015 C-452.34329898 93.16446553 -452.34920346 84.74831052 -452.37105338 76.33200171 C-452.38613239 70.04928587 -452.38033416 63.76675258 -452.36638286 57.48403778 C-452.36399441 54.94095444 -452.36839393 52.39785393 -452.38021151 49.85479692 C-452.39527115 46.40053054 -452.38569772 42.94716851 -452.36998463 39.49292469 C-452.38020683 38.50346905 -452.39042904 37.51401342 -452.40096101 36.49457428 C-452.3229669 28.64928394 -450.23255391 22.36470661 -446.25 15.625 C-440.91323143 10.56911399 -434.14467027 6.26031714 -426.65610695 6.23912811 C-425.35810266 6.2318415 -425.35810266 6.2318415 -424.03387606 6.22440767 C-423.08197339 6.22411169 -422.13007072 6.2238157 -421.14932251 6.22351074 C-419.63150022 6.21716213 -419.63150022 6.21716213 -418.08301485 6.21068525 C-414.67073893 6.19760957 -411.25848645 6.19162106 -407.84619141 6.18554688 C-405.40194557 6.17760319 -402.95770115 6.16921513 -400.51345825 6.16041565 C-395.21807853 6.14229062 -389.92270287 6.12717585 -384.62730789 6.11463928 C-376.85238275 6.09616209 -369.07748622 6.07147683 -361.30258374 6.04526538 C-348.5313223 6.00231592 -335.76005213 5.96332467 -322.98876953 5.92724609 C-321.84094675 5.92400189 -321.84094675 5.92400189 -320.66993563 5.92069215 C-317.58000403 5.91196473 -314.4900724 5.90324612 -311.40014074 5.89453927 C-210.73320691 5.6292846 -210.73320691 5.6292846 -110.06791306 5.02342224 C-105.39451207 4.98661964 -100.72111228 4.95377874 -96.04765701 4.92469788 C-90.64736827 4.89073554 -85.24722968 4.84756751 -79.84706926 4.79724693 C-77.90923218 4.78052898 -75.97136667 4.76674943 -74.03348494 4.75643349 C-58.61587685 4.67072457 -43.43297597 3.5092953 -28.14448678 1.52624083 C-18.75192645 0.31773545 -9.46514085 -0.02351171 0 0 Z M-140.5 70.125 C-175.74591191 109.36235346 -194.17853224 160.72283462 -191.875 213.375 C-189.25683609 259.92013617 -171.05835707 303.5501425 -138.875 337.375 C-138.36984863 337.90738281 -137.86469727 338.43976563 -137.34423828 338.98828125 C-129.10489025 347.6146474 -120.52974144 355.36601619 -110.875 362.375 C-110.30765137 362.79201172 -109.74030273 363.20902344 -109.15576172 363.63867188 C-69.64441339 392.36197698 -17.97383489 404.08169121 30.16674805 396.84936523 C61.7850538 391.51506893 90.32780715 379.35855556 116.27587891 360.70410156 C117.97078743 359.48584411 119.67817033 358.28499064 121.38671875 357.0859375 C136.30448198 346.19241404 149.42712261 332.41008547 160.125 317.375 C160.5468457 316.78686523 160.96869141 316.19873047 161.40332031 315.59277344 C177.07919366 293.51858444 188.73246609 267.95248857 194.125 241.375 C194.28581055 240.59366699 194.44662109 239.81233398 194.61230469 239.00732422 C202.83868346 197.01886926 195.00486742 152.65020629 175.03759766 115.09863281 C174.21872232 113.55201433 173.42597538 111.99162844 172.63671875 110.4296875 C155.79743118 77.88954306 127.07172074 51.32933592 94.97900391 34.36132812 C93.25873947 33.44614926 91.55621703 32.49783103 89.85546875 31.546875 C15.93137998 -8.14151123 -83.52810429 9.71019836 -140.5 70.125 Z M-436.625 23.1875 C-441.11333999 29.54598165 -441.1629845 35.34968641 -441.12947559 42.86462116 C-441.13268207 43.92576979 -441.13588855 44.98691841 -441.13919219 46.08022305 C-441.14752692 49.65398504 -441.14155568 53.22758094 -441.13569641 56.80134583 C-441.13871551 59.38223608 -441.14260377 61.96312544 -441.14728898 64.5440132 C-441.15605733 70.16472473 -441.15736084 75.78539982 -441.15378571 81.40611649 C-441.14848331 89.7644002 -441.15456935 98.12264859 -441.16286864 106.48092846 C-441.17812143 122.27681917 -441.17981237 138.07269387 -441.17734561 153.86859039 C-441.17551395 166.06564658 -441.17726989 178.26269751 -441.18157005 190.45975304 C-441.18217245 192.21123252 -441.18277365 193.96271201 -441.18337366 195.71419149 C-441.1842809 198.35341533 -441.18518956 200.99263918 -441.18610601 203.63186301 C-441.19453758 228.1753332 -441.19886984 252.7188014 -441.19469929 277.26227283 C-441.19446472 278.65059403 -441.19446472 278.65059403 -441.19422542 280.06696211 C-441.19341962 284.75814534 -441.19257385 289.44932857 -441.19171212 294.14051179 C-441.19154103 295.0722172 -441.19136994 296.00392262 -441.19119367 296.96386153 C-441.19084702 298.84799715 -441.19049849 300.73213277 -441.19014808 302.61626839 C-441.18479076 331.93405085 -441.19272078 361.25180323 -441.21118164 390.56958008 C-441.23189229 423.49892251 -441.24262611 456.42824631 -441.23860615 489.35759562 C-441.2382108 492.86799697 -441.23784926 496.37839832 -441.23750877 499.88879967 C-441.23741804 500.75316606 -441.23732731 501.61753245 -441.23723383 502.50809176 C-441.23606727 515.56346012 -441.24272066 528.61880969 -441.25332069 541.67417336 C-441.2653624 556.52041455 -441.26694357 571.3666143 -441.25453053 586.21285609 C-441.24789376 594.5227276 -441.24955178 602.83250006 -441.26311904 611.14236368 C-441.27231683 617.34401192 -441.26586601 623.54555059 -441.25327124 629.7471908 C-441.25060935 632.25859499 -441.25303728 634.77001068 -441.26100711 637.28140364 C-441.27107641 640.69040212 -441.26272195 644.09887809 -441.24973011 647.50785542 C-441.25703946 648.48681745 -441.2643488 649.46577949 -441.27187964 650.47440705 C-441.22150923 656.83470156 -440.86308691 664.02960841 -436.42309465 669.00051897 C-431.92137554 672.84228483 -429.28862485 673.49989294 -423.49127769 673.49804783 C-422.82543915 673.49920167 -422.1596006 673.50035552 -421.47358513 673.50154433 C-419.22059593 673.50421179 -416.9676768 673.49968777 -414.71469116 673.49525452 C-413.09191834 673.49569019 -411.46914558 673.49656503 -409.8463732 673.49784368 C-405.37006448 673.50008937 -400.89377949 673.49606635 -396.41747379 673.49106562 C-391.59674134 673.48676236 -386.77601032 673.48820746 -381.95527649 673.4889679 C-373.59736181 673.48949321 -365.23945492 673.48634563 -356.88154221 673.48073006 C-344.79728144 673.47261607 -332.71302445 673.46999994 -320.62876125 673.46874207 C-301.02464078 673.46655139 -281.42052446 673.45989087 -261.81640625 673.45043945 C-242.7685549 673.44126575 -223.72070468 673.43418471 -204.67285156 673.42993164 C-203.49948775 673.42966892 -202.32612393 673.42940619 -201.11720364 673.42913551 C-195.23100491 673.42783051 -189.34480618 673.42656679 -183.45860744 673.42532361 C-134.59740209 673.4149505 -85.73620125 673.39733175 -36.875 673.375 C-36.87286247 672.00436905 -36.87286247 672.00436905 -36.87068176 670.60604858 C-36.85283344 661.98400215 -36.81116563 653.3624679 -36.74290943 644.74066734 C-36.70865556 640.30832563 -36.68353199 635.87632799 -36.67944336 631.44384766 C-36.6751569 627.16413633 -36.64666614 622.88520099 -36.60156822 618.60573196 C-36.58860419 616.97516021 -36.58428169 615.34449553 -36.58884621 613.71387863 C-36.59376045 611.42477969 -36.56762889 609.13794161 -36.53442383 606.84912109 C-36.52776199 605.54784271 -36.52110016 604.24656433 -36.51423645 602.90585327 C-35.67839582 598.28904737 -34.155234 596.66993714 -30.875 593.375 C-10.89056161 583.3827808 13.78436234 591.71870212 36.125 591.375 C36.125 530.655 36.125 469.935 36.125 407.375 C30.845 407.705 25.565 408.035 20.125 408.375 C14.22925869 408.57341871 8.33609506 408.61966425 2.4375 408.625 C1.26119522 408.62651062 1.26119522 408.62651062 0.06112671 408.62805176 C-12.47354394 408.61722336 -24.56806959 407.91691663 -36.875 405.375 C-37.58994629 405.23578125 -38.30489258 405.0965625 -39.04150391 404.953125 C-71.28469071 398.57972912 -103.22090105 384.32945527 -127.875 362.375 C-128.76832031 361.58996094 -129.66164063 360.80492187 -130.58203125 359.99609375 C-134.11197913 356.85893656 -137.59774858 353.71432531 -140.875 350.3125 C-142.65031613 348.14306826 -142.65031613 348.14306826 -144.875 348.375 C-145.1328125 347.78589844 -145.390625 347.19679688 -145.65625 346.58984375 C-146.97652454 344.19049867 -148.36498306 342.78688034 -150.375 340.9375 C-169.96188381 321.77564803 -183.45441108 295.13873086 -191.875 269.375 C-192.10912598 268.68019531 -192.34325195 267.98539063 -192.58447266 267.26953125 C-196.71180146 254.91402092 -198.98899018 242.24640469 -200.875 229.375 C-200.98102539 228.66359863 -201.08705078 227.95219727 -201.19628906 227.21923828 C-202.1482203 219.92962864 -202.11866126 212.59058498 -202.125 205.25 C-202.12567474 204.54491302 -202.12634949 203.83982605 -202.12704468 203.1133728 C-202.04271088 147.28991382 -180.16092559 95.65415436 -141.5 55.6875 C-135.38302154 49.69409686 -128.72985847 44.48677787 -121.875 39.375 C-121.04484375 38.74980469 -120.2146875 38.12460938 -119.359375 37.48046875 C-114.20218669 33.73536772 -108.78593381 30.44375645 -103.3125 27.1875 C-102.61600342 26.77105225 -101.91950684 26.35460449 -101.2019043 25.92553711 C-96.24428245 23.02239378 -91.16637803 20.60851933 -85.875 18.375 C-85.875 18.045 -85.875 17.715 -85.875 17.375 C-129.34163557 17.30636035 -172.8082654 17.25348467 -216.27494446 17.22180401 C-221.4044878 17.21805181 -226.53403104 17.21416885 -231.66357422 17.21020508 C-232.68479061 17.20941815 -233.706007 17.20863122 -234.75816934 17.20782044 C-251.30197373 17.19476012 -267.8457469 17.17110283 -284.38953276 17.14354161 C-301.36008601 17.11550484 -318.3306229 17.0988274 -335.30119836 17.09273452 C-345.77621803 17.08861449 -356.25114946 17.07559328 -366.72614197 17.0512506 C-373.90545794 17.03541474 -381.08472817 17.03059476 -388.26406033 17.03449587 C-392.40855954 17.03642077 -396.55290437 17.03343272 -400.69737625 17.01738358 C-404.49113936 17.00279959 -408.28464408 17.00203776 -412.07841901 17.01230332 C-414.10206399 17.01417381 -416.12570586 17.00122159 -418.14930689 16.98775607 C-419.95420826 16.99671579 -419.95420826 16.99671579 -421.79557228 17.00585651 C-422.83220878 17.00471735 -423.86884528 17.00357819 -424.93689501 17.00240451 C-429.96149396 17.63959852 -433.12134803 19.60421958 -436.625 23.1875 Z M135.578125 359.33984375 C134.73378906 359.97470703 133.88945313 360.60957031 133.01953125 361.26367188 C132.14683594 361.93978516 131.27414062 362.61589844 130.375 363.3125 C129.48683594 363.98474609 128.59867188 364.65699219 127.68359375 365.34960938 C125.4885249 367.01361318 123.30310956 368.68889514 121.125 370.375 C124.98165778 375.63049004 128.98562256 380.69533605 133.25 385.625 C133.76175781 386.223125 134.27351562 386.82125 134.80078125 387.4375 C137.46916968 390.53804389 140.18068957 393.52930284 143.125 396.375 C145.71140209 394.29545364 148.29355739 392.21069844 150.875 390.125 C151.96941406 389.24521484 151.96941406 389.24521484 153.0859375 388.34765625 C156.60468591 385.5006689 160.01697702 382.67931917 163.125 379.375 C160.16947409 375.91960682 157.21134003 372.46658629 154.24609375 369.01953125 C152.44786237 366.92707322 150.66956283 364.82478049 148.91015625 362.69921875 C148.32105469 361.99410156 147.73195313 361.28898437 147.125 360.5625 C146.63 359.95792969 146.135 359.35335938 145.625 358.73046875 C141.8251744 355.29677218 139.34339223 356.46501134 135.578125 359.33984375 Z M171.0625 387.375 C169.93424966 388.36161856 168.80396992 389.34592028 167.671875 390.328125 C167.09244141 390.83150391 166.51300781 391.33488281 165.91601562 391.85351562 C162.95378443 394.36995848 159.88394383 396.74415461 156.8125 399.125 C144.64596021 407.73034723 144.64596021 407.73034723 138.5625 420.6875 C139.83592754 429.03552497 146.02572213 434.48162172 151.87963867 440.14526367 C155.92049736 444.07685459 159.43551621 448.28854791 162.9453125 452.69140625 C165.09317855 455.33582198 167.32811173 457.8595497 169.625 460.375 C172.70153672 463.74960948 175.63618217 467.19315864 178.5 470.75 C182.66463369 475.89754549 187.07805141 480.75852388 191.57421875 485.61328125 C195.7871597 490.17461242 199.83932894 494.86522292 203.8671875 499.58984375 C204.89044735 500.78921409 205.91389037 501.98842817 206.9375 503.1875 C207.45473633 503.79360107 207.97197266 504.39970215 208.50488281 505.02416992 C211.7098938 508.76551541 214.97701503 512.4360693 218.3125 516.0625 C221.52145044 519.55759889 224.58565837 523.1178384 227.5625 526.8125 C230.78443317 530.80724254 234.13157611 534.62052109 237.625 538.375 C241.92852581 543.00056343 245.96240115 547.78312114 249.9296875 552.703125 C253.51268195 557.06392251 257.29929273 561.22736433 261.125 565.375 C261.85009766 566.19871094 261.85009766 566.19871094 262.58984375 567.0390625 C266.40008659 571.20233104 270.13584375 572.16187612 275.625 572.75 C282.05841266 572.06070579 286.25909978 567.49241999 290.8125 563.1875 C294.7123974 559.53088774 298.67891204 556.07068713 302.875 552.75 C311.71213912 546.06912721 311.71213912 546.06912721 316.75390625 536.64453125 C317.26274036 524.74437857 310.12299466 517.60790035 302.72509766 509.19726562 C301.0605041 507.30154907 299.40966757 505.39457294 297.76171875 503.484375 C293.38188188 498.40966623 288.98586716 493.34932684 284.5625 488.3125 C278.85244358 481.80078542 273.24901863 475.19571568 267.61914062 468.61474609 C261.95522013 461.99499225 256.27573473 455.3897655 250.5625 448.8125 C243.12767313 440.24659859 235.74807913 431.64057147 228.625 422.8125 C224.98048394 418.32844363 221.14241994 414.08032597 217.20874023 409.85302734 C214.23761881 406.64204032 211.42535294 403.34867663 208.6875 399.9375 C205.19578777 395.62161786 201.59620656 391.43051363 197.875 387.3125 C197.37943604 386.75183838 196.88387207 386.19117676 196.37329102 385.61352539 C193.53414535 382.51076183 191.21693715 380.48037228 187.125 379.375 C180.51308316 379.375 175.78411359 383.12096951 171.0625 387.375 Z M-25.875 603.375 C-25.875 621.855 -25.875 640.335 -25.875 659.375 C-21.35242035 655.49850316 -17.61447949 652.1676109 -13.75 647.8125 C-9.6755922 643.27228129 -5.46612619 638.91056677 -1.125 634.625 C2.82040241 630.72565951 6.59117481 626.78374751 10.171875 622.54296875 C13.47668501 618.87462964 17.04119532 615.45469656 20.59570312 612.02929688 C21.13646484 611.50013672 21.67722656 610.97097656 22.234375 610.42578125 C22.71874023 609.95825439 23.20310547 609.49072754 23.70214844 609.0090332 C25.48766183 606.95851139 26.77892965 604.73112128 28.125 602.375 C20.75602956 602.3497092 13.38707026 602.33215821 6.01806641 602.32006836 C3.50959861 602.31502997 1.00113376 602.30819916 -1.50732422 602.29956055 C-5.1064527 602.28747339 -8.70554247 602.28176685 -12.3046875 602.27734375 C-13.43180145 602.27218246 -14.55891541 602.26702118 -15.72018433 602.26170349 C-17.28157639 602.26159019 -17.28157639 602.26159019 -18.87451172 602.26147461 C-20.25351151 602.25814369 -20.25351151 602.25814369 -21.66036987 602.25474548 C-23.91650588 602.22989471 -23.91650588 602.22989471 -25.875 603.375 Z " fill="#080808" transform="translate(594.875,157.625)"/>
<path d="M0 0 C0.81809143 0.00248749 1.63618286 0.00497498 2.47906494 0.00753784 C14.47441012 0.06395791 26.13437158 0.31242908 37.8125 3.3125 C38.6890625 3.53292969 39.565625 3.75335938 40.46875 3.98046875 C82.89781259 14.99570615 118.8807916 41.3380799 141.3984375 79.0546875 C154.19466372 101.22861622 162.85105097 126.53853398 163.015625 152.3359375 C163.02263931 153.07532059 163.02965363 153.81470367 163.03688049 154.57649231 C163.05427663 156.94689093 163.06073174 159.31703991 163.0625 161.6875 C163.06317474 162.49651764 163.06384949 163.30553528 163.06454468 164.1390686 C163.04905803 175.80514517 162.69908588 186.95314181 159.8125 198.3125 C159.65152832 198.99119141 159.49055664 199.66988281 159.32470703 200.36914062 C149.40857331 241.63397376 119.44084167 279.9561262 83.5625 301.9375 C57.16949491 317.4903391 28.49901297 325.53131465 -2.125 325.5625 C-3.15620972 325.56401062 -3.15620972 325.56401062 -4.20825195 325.56555176 C-15.14058742 325.55474026 -25.52393071 324.81838454 -36.1875 322.3125 C-37.42371094 322.04566406 -38.65992188 321.77882813 -39.93359375 321.50390625 C-62.16728057 316.21017129 -85.76349723 305.1215682 -103.1875 290.3125 C-104.01894531 289.60738281 -104.85039062 288.90226562 -105.70703125 288.17578125 C-108.25544616 285.94039999 -110.72947947 283.6468701 -113.1875 281.3125 C-113.661875 280.86535645 -114.13625 280.41821289 -114.625 279.95751953 C-144.55821074 251.5735863 -162.11140108 211.83552543 -163.53515625 170.59765625 C-164.12469964 144.23704744 -160.43669292 119.36359135 -149.1875 95.3125 C-148.79038818 94.43295654 -148.79038818 94.43295654 -148.38525391 93.53564453 C-140.6854381 76.57694136 -129.70036891 62.02095247 -117.1875 48.3125 C-116.44113281 47.49394531 -115.69476563 46.67539063 -114.92578125 45.83203125 C-85.04470521 14.62536219 -42.5458378 -0.2067848 0 0 Z M-35.1875 14.3125 C-35.868125 14.47347168 -36.54875 14.63444336 -37.25 14.80029297 C-61.4541991 20.67635903 -82.74946738 32.80119301 -101.1875 49.3125 C-102.05890625 50.05113281 -102.9303125 50.78976563 -103.828125 51.55078125 C-133.2093887 76.82051591 -149.11713154 115.03793242 -152.04248047 153.16748047 C-154.6213388 191.31200793 -142.96358968 230.74677157 -117.84570312 259.86816406 C-114.70455914 263.42563078 -111.45874628 266.87475316 -108.1875 270.3125 C-107.20523438 271.39144531 -107.20523438 271.39144531 -106.203125 272.4921875 C-88.16763347 291.68380028 -60.33318624 304.82903186 -35.1875 311.3125 C-33.98480469 311.63089844 -32.78210938 311.94929688 -31.54296875 312.27734375 C2.77998563 319.82352521 39.3200618 312.95981265 69.8125 296.3125 C71.41738281 295.44625 71.41738281 295.44625 73.0546875 294.5625 C85.2915956 287.69711779 95.70790469 278.94141536 105.8125 269.3125 C106.52019531 268.65765625 107.22789062 268.0028125 107.95703125 267.328125 C117.97069809 257.78353013 126.01894023 246.30261428 132.8125 234.3125 C133.21355957 233.6205957 133.61461914 232.92869141 134.02783203 232.21582031 C140.85538369 220.35104127 145.6269863 208.62778347 148.8125 195.3125 C148.98894043 194.59868164 149.16538086 193.88486328 149.34716797 193.14941406 C158.42866611 154.82531188 148.61676761 113.60415676 128.8125 80.3125 C124.17825749 73.13734589 118.57815221 66.73706227 112.7890625 60.48046875 C110.8125 58.3125 110.8125 58.3125 108.4375 55.25 C104.36051035 50.68765444 99.64479795 47.04682264 94.8125 43.3125 C93.76964844 42.50425781 92.72679687 41.69601563 91.65234375 40.86328125 C71.23670918 25.45216302 47.14343475 15.79550353 21.8125 12.3125 C20.65492188 12.13074219 19.49734375 11.94898438 18.3046875 11.76171875 C11.88209544 10.98319936 5.39805434 11.06817069 -1.0625 11.0625 C-2.09845306 11.06148788 -2.09845306 11.06148788 -3.15533447 11.06045532 C-14.0841753 11.07739362 -24.54798361 11.67618282 -35.1875 14.3125 Z " fill="#0A0A0A" transform="translate(598.1875,198.6875)"/>
<path d="M0 0 C3.4375 0.9375 3.4375 0.9375 4.64013672 2.69824219 C5.52693928 5.18867486 5.66664031 7.06455621 5.6328125 9.703125 C5.62636719 10.59257812 5.61992188 11.48203125 5.61328125 12.3984375 C5.59652344 13.31882812 5.57976563 14.23921875 5.5625 15.1875 C5.55347656 16.12335938 5.54445313 17.05921875 5.53515625 18.0234375 C5.51163636 20.32838657 5.47876853 22.6328116 5.4375 24.9375 C6.33210937 25.03546875 7.22671875 25.1334375 8.1484375 25.234375 C23.18528029 27.09394191 34.0492955 31.8915131 43.875 43.71875 C49.40972669 51.5780619 54.36580528 63.28398825 53.25 73.0625 C52.4375 75.9375 52.4375 75.9375 50.4375 77.9375 C46.9375 78.25 46.9375 78.25 43.4375 77.9375 C41.39074727 74.86737091 41.09853253 73.54368849 40.625 70 C39.15081945 61.3161552 36.14236673 51.92908304 29.4375 45.9375 C21.80414537 41.22483441 14.10815473 38.95226893 5.4375 36.9375 C5.46779297 37.80511963 5.49808594 38.67273926 5.52929688 39.56665039 C6.23939757 60.3657729 6.58070686 81.12623882 6.4375 101.9375 C7.06076172 102.11200684 7.68402344 102.28651367 8.32617188 102.46630859 C24.1730512 107.03983073 39.22820467 113.8414738 48.1875 128.42578125 C54.43642938 140.98222373 54.77640464 151.99494039 50.76171875 165.24609375 C46.18969314 177.9911209 37.77012626 185.90341788 25.7578125 191.6484375 C20.14023056 193.82938108 14.37553931 194.93611467 8.4375 195.9375 C8.46106567 196.81486816 8.46106567 196.81486816 8.48510742 197.70996094 C8.54760267 200.36904164 8.58653569 203.02796764 8.625 205.6875 C8.65013672 206.60789062 8.67527344 207.52828125 8.70117188 208.4765625 C8.71083984 209.36601562 8.72050781 210.25546875 8.73046875 211.171875 C8.7461792 211.98881836 8.76188965 212.80576172 8.77807617 213.64746094 C8.35186827 216.51328897 7.43763381 217.86510744 5.4375 219.9375 C2.30616294 220.39415332 0.38031078 220.62768107 -2.23168945 218.71557617 C-3.98755771 216.36958672 -3.90836772 214.96022485 -3.85546875 212.05078125 C-3.8409668 210.6440918 -3.8409668 210.6440918 -3.82617188 209.20898438 C-3.80103516 208.23251953 -3.77589844 207.25605469 -3.75 206.25 C-3.72969727 204.76790039 -3.72969727 204.76790039 -3.70898438 203.25585938 C-3.67362203 200.81585769 -3.62427033 198.37695281 -3.5625 195.9375 C-5.06876953 195.73447266 -5.06876953 195.73447266 -6.60546875 195.52734375 C-18.91909677 193.67031062 -30.0716323 189.79480183 -38.77734375 180.38671875 C-45.66156669 170.94162513 -49.82996074 160.71952938 -48.5625 148.9375 C-46.9375 146.1875 -46.9375 146.1875 -44.5625 144.9375 C-41.4375 145 -41.4375 145 -38.5625 145.9375 C-36.5625 148.9375 -36.5625 148.9375 -36.6875 151.9375 C-36.88244371 159.01545633 -33.50660215 166.87421541 -29.14453125 172.3828125 C-22.09904173 179.30652813 -12.88081529 181.65491556 -3.5625 183.9375 C-3.72326523 183.41750427 -3.88403046 182.89750854 -4.04966736 182.36175537 C-4.70609675 179.25869141 -4.72729427 176.32217749 -4.76782227 173.14941406 C-4.77772186 172.47583359 -4.78762146 171.80225311 -4.79782104 171.10826111 C-4.82931658 168.88991771 -4.85414597 166.67155293 -4.87890625 164.453125 C-4.89948611 162.91183934 -4.92048285 161.3705592 -4.94187927 159.82928467 C-4.9969934 155.77858962 -5.04644954 151.72784453 -5.09472656 147.67706299 C-5.14501956 143.54117394 -5.20066487 139.40535728 -5.25585938 135.26953125 C-5.36331052 127.15891543 -5.46478428 119.04823893 -5.5625 110.9375 C-6.13268356 110.71774002 -6.70286713 110.49798004 -7.29032898 110.27156067 C-9.90874395 109.25749302 -12.52269414 108.23236036 -15.13671875 107.20703125 C-16.0335437 106.86160278 -16.93036865 106.51617432 -17.85437012 106.16027832 C-29.79212857 101.45454558 -38.95110419 94.86591625 -44.5625 82.9375 C-47.99506015 72.98771416 -48.14386844 61.27549262 -43.94140625 51.5234375 C-37.35216245 39.16627208 -28.41492021 31.18070951 -15.16796875 26.53125 C-12.23144092 25.86205625 -9.56463135 25.83231584 -6.5625 25.9375 C-6.57821045 25.25647217 -6.5939209 24.57544434 -6.61010742 23.8737793 C-6.67243222 20.79093719 -6.71148258 17.70822756 -6.75 14.625 C-6.77513672 13.55314453 -6.80027344 12.48128906 -6.82617188 11.37695312 C-6.83583984 10.34892578 -6.84550781 9.32089844 -6.85546875 8.26171875 C-6.8711792 7.31385498 -6.88688965 6.36599121 -6.90307617 5.3894043 C-6.5625 2.9375 -6.5625 2.9375 -5.2668457 1.10083008 C-3.5625 -0.0625 -3.5625 -0.0625 0 0 Z M-26.015625 46.05859375 C-32.53759573 53.02744026 -35.52987403 60.37809009 -35.5625 69.9375 C-34.92591129 78.04708656 -31.42905377 83.56630543 -25.3671875 88.8515625 C-20.8864427 92.23733429 -16.58255337 94.44148307 -11.2265625 96.140625 C-10.16131348 96.48254883 -9.09606445 96.82447266 -7.99853516 97.17675781 C-7.19464355 97.42780273 -6.39075195 97.67884766 -5.5625 97.9375 C-5.53689939 91.48202371 -5.51952922 85.02656076 -5.50756836 78.57104492 C-5.50257582 76.38028474 -5.49577945 74.18952782 -5.48706055 71.9987793 C-5.38534025 54.94242006 -5.38534025 54.94242006 -6.5625 37.9375 C-14.04356566 37.73700901 -20.40316291 41.20578019 -26.015625 46.05859375 Z M6.4375 113.9375 C6.36771875 129.5704383 6.57478319 145.18403061 6.9375 160.8125 C6.98590057 162.97655751 7.03407859 165.14062002 7.08203125 167.3046875 C7.19797045 172.51568575 7.3168686 177.72660835 7.4375 182.9375 C17.50171581 183.06263104 24.93638634 179.60128004 32.4375 172.9375 C39.59282006 165.58342104 41.81575403 156.05228781 41.71875 146.109375 C41.07737638 138.87610582 37.99776595 131.74673477 32.4375 126.9375 C26.39882668 122.40330715 14.43480965 113.9375 6.4375 113.9375 Z " fill="#0A0A0A" transform="translate(595.5625,248.0625)"/>
<path d="M0 0 C1.09819061 -0.00953201 2.19638123 -0.01906403 3.32785034 -0.02888489 C5.09359909 -0.02751778 5.09359909 -0.02751778 6.89501953 -0.02612305 C8.11432159 -0.03040817 9.33362366 -0.0346933 10.58987427 -0.03910828 C13.16700622 -0.04484687 15.74415437 -0.04535532 18.32128906 -0.04101562 C22.25630461 -0.03785907 26.19056583 -0.06131033 30.12548828 -0.08666992 C32.63199775 -0.08894334 35.13850924 -0.08964621 37.64501953 -0.08862305 C39.40469559 -0.10243767 39.40469559 -0.10243767 41.19992065 -0.11653137 C48.03827811 -0.07796651 53.78618189 0.08778935 59.14501953 4.80981445 C62.3477073 9.12792107 63.52197123 11.27309338 63.67163086 16.60717773 C63.70448685 17.722388 63.73734283 18.83759827 63.77119446 19.98660278 C63.81508553 21.8036824 63.81508553 21.8036824 63.85986328 23.6574707 C63.90526497 25.52252762 63.90526497 25.52252762 63.95158386 27.42526245 C64.01246336 30.0631951 64.07052387 32.70105729 64.12524414 35.33911133 C64.18233694 38.0358541 64.25167865 40.7318374 64.33227539 43.42797852 C64.44512236 47.31678517 64.53050797 51.20535304 64.60986328 55.0949707 C64.64924515 56.29421173 64.68862701 57.49345276 64.72920227 58.72903442 C64.83544368 65.77726759 64.24494499 70.30388401 60.40283203 76.2746582 C55.83221529 80.72807965 51.34733597 82.51769435 45.00512695 82.54931641 C43.95020554 82.55884842 42.89528412 82.56838043 41.80839539 82.57820129 C40.67811417 82.57728989 39.54783295 82.57637848 38.38330078 82.57543945 C37.21076248 82.57972458 36.03822418 82.5840097 34.83015442 82.58842468 C32.35137578 82.59416286 29.87258031 82.59467203 27.39379883 82.59033203 C23.61461389 82.58717847 19.83621675 82.61061671 16.05712891 82.63598633 C13.64502052 82.6382601 11.23291003 82.63896246 8.82080078 82.63793945 C7.69659225 82.6471492 6.57238373 82.65635895 5.41410828 82.66584778 C-1.63206751 82.62461322 -8.05228191 82.29487422 -13.65576172 77.52075195 C-14.33832031 76.62549805 -14.33832031 76.62549805 -15.03466797 75.7121582 C-15.74429688 74.81303711 -15.74429688 74.81303711 -16.46826172 73.89575195 C-18.66848443 70.7362626 -18.73239499 68.64234422 -18.75830078 64.81860352 C-18.76790833 63.67691711 -18.77751587 62.53523071 -18.78741455 61.35894775 C-18.79166443 60.11941345 -18.79591431 58.87987915 -18.80029297 57.6027832 C-18.80599304 56.33247253 -18.81169312 55.06216187 -18.81756592 53.75335693 C-18.82702795 51.05990007 -18.83391827 48.36655494 -18.83740234 45.6730957 C-18.84287423 42.2320912 -18.86687315 38.79148497 -18.8953743 35.35060501 C-18.91855691 32.05969477 -18.92045475 28.76876366 -18.92529297 25.4777832 C-18.93763977 24.24634583 -18.94998657 23.01490845 -18.96270752 21.74615479 C-18.93482499 11.02185964 -18.93482499 11.02185964 -15.59716797 6.2746582 C-10.8631337 1.78978364 -6.48366744 0.03103288 0 0 Z M1.77587891 11.33032227 C0.57801758 11.39944824 0.57801758 11.39944824 -0.64404297 11.4699707 C-1.33852539 11.50364746 -2.03300781 11.53732422 -2.74853516 11.57202148 C-4.76273784 12.18493361 -4.76273784 12.18493361 -6.33300781 14.1015625 C-8.27642224 18.97961529 -7.91090351 23.65184658 -7.77685547 28.84887695 C-7.7575296 29.96905716 -7.73820374 31.08923737 -7.71829224 32.24336243 C-7.67346575 34.60624552 -7.62086693 36.96899221 -7.56103516 39.33154297 C-7.47224523 42.95900162 -7.4158625 46.58597371 -7.36279297 50.21411133 C-7.31525417 52.50907422 -7.26583976 54.80399919 -7.21435547 57.09887695 C-7.19855438 58.18843185 -7.1827533 59.27798676 -7.16647339 60.40055847 C-7.13699615 61.4053273 -7.10751892 62.41009613 -7.07714844 63.4453125 C-7.05699677 64.33179977 -7.03684509 65.21828705 -7.01608276 66.13163757 C-6.80871994 67.19243279 -6.80871994 67.19243279 -6.59716797 68.2746582 C-3.29612191 70.47535557 -2.27778072 70.53021252 1.56103516 70.54931641 C3.13782043 70.56361443 3.13782043 70.56361443 4.74645996 70.57820129 C6.44808289 70.57683418 6.44808289 70.57683418 8.18408203 70.57543945 C9.34911255 70.57972458 10.51414307 70.5840097 11.71447754 70.58842468 C14.17911122 70.59417093 16.64376187 70.59466609 19.10839844 70.59033203 C22.88782529 70.58717076 26.66647069 70.61063326 30.44580078 70.63598633 C32.83772687 70.63825907 35.22965508 70.63896293 37.62158203 70.63793945 C39.32320496 70.65175407 39.32320496 70.65175407 41.0592041 70.66584778 C42.11039429 70.65961899 43.16158447 70.6533902 44.24462891 70.64697266 C45.17045776 70.64760208 46.09628662 70.64823151 47.0501709 70.64888 C49.42846349 70.43833872 49.42846349 70.43833872 51.20195007 69.07476807 C52.82194233 66.64641612 52.77711878 65.01110899 52.77514648 62.10058594 C52.78137527 61.04616806 52.78760406 59.99175018 52.79402161 58.90538025 C52.78481186 57.76782791 52.77560211 56.63027557 52.76611328 55.45825195 C52.76661179 54.29084976 52.76711029 53.12344757 52.7676239 51.92066956 C52.76528223 49.45181578 52.75554832 46.98295967 52.73901367 44.51416016 C52.71540469 40.72382394 52.71845432 36.93418994 52.72509766 33.14379883 C52.7195217 30.74861232 52.71241235 28.35342879 52.70361328 25.95825195 C52.70452469 24.81867538 52.7054361 23.67909882 52.70637512 22.50498962 C52.6920771 20.92809105 52.6920771 20.92809105 52.67749023 19.31933594 C52.67288284 18.39128647 52.66827545 17.463237 52.66352844 16.50706482 C52.61303331 14.07131496 52.61303331 14.07131496 50.40283203 12.2746582 C47.3557681 11.95199209 44.39704801 11.75569394 41.34033203 11.6496582 C40.4209082 11.61243652 39.50148438 11.57521484 38.55419922 11.53686523 C31.08862465 11.26604784 23.62292355 11.17304226 16.15283203 11.1496582 C14.60196899 11.14264893 14.60196899 11.14264893 13.01977539 11.13549805 C9.26949089 11.14341325 5.52496363 11.25088069 1.77587891 11.33032227 Z " fill="#101010" transform="translate(216.59716796875,409.725341796875)"/>
<path d="M0 0 C1.14231079 -0.00145523 2.28462158 -0.00291046 3.46154785 -0.00440979 C5.86517907 -0.00275742 8.2688216 0.00872904 10.67236328 0.02954102 C14.33281816 0.05850724 17.99182326 0.05013177 21.65234375 0.03710938 C23.99740281 0.04334751 26.34245733 0.05173904 28.6875 0.0625 C30.31443787 0.05809654 30.31443787 0.05809654 31.97424316 0.05360413 C38.63487915 0.13551905 46.23548609 0.26370765 51.4642334 4.94776917 C55.05478537 9.14036053 55.96992033 11.72413632 56.03662109 17.11987305 C56.05268402 18.29837326 56.06874695 19.47687347 56.08529663 20.69108582 C56.12970652 26.09313487 56.17126632 31.49503745 56.19384766 36.8972168 C56.2071617 39.74617809 56.23496464 42.59441879 56.27587891 45.44311523 C56.33483342 49.54813657 56.35252813 53.65238963 56.3671875 57.7578125 C56.38985687 59.02783615 56.41252625 60.2978598 56.43588257 61.60636902 C56.4183651 68.94677618 55.97804537 73.09758236 50.84375 78.49609375 C46.15932085 82.00941561 41.55634051 82.61569357 35.81323242 82.64135742 C34.83839401 82.64773727 33.8635556 82.65411713 32.85917664 82.66069031 C31.81639053 82.66180313 30.77360443 82.66291595 29.69921875 82.6640625 C28.61546463 82.6673909 27.53171051 82.6707193 26.41511536 82.67414856 C24.12464827 82.67920519 21.83417384 82.68155728 19.54370117 82.68139648 C16.0544 82.68357927 12.56541699 82.7017385 9.07617188 82.72070312 C6.84635524 82.72363811 4.61653712 82.7256222 2.38671875 82.7265625 C1.35000534 82.73374802 0.31329193 82.74093353 -0.75483704 82.74833679 C-15.52895867 82.70215703 -15.52895867 82.70215703 -21.03125 77.62109375 C-21.58554688 77.12867188 -22.13984375 76.63625 -22.7109375 76.12890625 C-25.85878566 72.57268859 -26.41263067 69.53309958 -26.46264648 64.84472656 C-26.47863388 63.70964661 -26.49462128 62.57456665 -26.51109314 61.40509033 C-26.51645584 60.18215271 -26.52181854 58.95921509 -26.52734375 57.69921875 C-26.53637222 56.43648132 -26.5454007 55.1737439 -26.55470276 53.8727417 C-26.56921476 51.19952137 -26.57888908 48.52672859 -26.58178711 45.85351562 C-26.58715781 42.44606048 -26.6247876 39.03979828 -26.67053127 35.63267899 C-26.70763362 32.36326437 -26.70882534 29.09381547 -26.71484375 25.82421875 C-26.73437607 24.60937805 -26.75390839 23.39453735 -26.77403259 22.1428833 C-26.74183045 16.0619872 -26.5474688 11.05706143 -22.80006409 6.07246399 C-16.37752882 -0.08656186 -8.43297085 -0.08734428 0 0 Z M-2.90625 11.87109375 C-3.71392822 11.90170898 -4.52160645 11.93232422 -5.35375977 11.96386719 C-9.08833612 12.16225759 -10.97757506 12.37697712 -14.15625 14.49609375 C-15.28916681 20.39390125 -15.32982369 26.29711483 -15.359375 32.2890625 C-15.36507507 33.19811844 -15.37077515 34.10717438 -15.37664795 35.04377747 C-15.38603732 36.95226904 -15.39260759 38.86077638 -15.39648438 40.76928711 C-15.40625695 43.68566708 -15.43736382 46.60136103 -15.46875 49.51757812 C-15.47527503 51.3789021 -15.48052746 53.24023106 -15.484375 55.1015625 C-15.4967218 55.96935837 -15.5090686 56.83715424 -15.52178955 57.73124695 C-15.50259971 62.9404829 -15.02701258 66.62533117 -11.15625 70.49609375 C-9.55122324 70.60512275 -7.94144399 70.64514937 -6.33276367 70.65722656 C-5.30467087 70.66683411 -4.27657806 70.67644165 -3.21733093 70.68634033 C-2.09760391 70.69059021 -0.97787689 70.69484009 0.17578125 70.69921875 C1.89072029 70.70776886 1.89072029 70.70776886 3.64030457 70.7164917 C6.0656135 70.72595955 8.4909354 70.73248273 10.91625977 70.73632812 C14.62994854 70.74602507 18.34308212 70.77702887 22.05664062 70.80859375 C24.40885087 70.81512425 26.76106508 70.82037453 29.11328125 70.82421875 C30.22693558 70.83656555 31.3405899 70.84891235 32.48799133 70.8616333 C33.52554062 70.8586322 34.5630899 70.8556311 35.63208008 70.85253906 C36.54395584 70.85618469 37.4558316 70.85983032 38.39533997 70.86358643 C41.41111907 70.41093482 42.7452726 69.70824259 44.84375 67.49609375 C45.4556548 65.08800794 45.4556548 65.08800794 45.37719727 62.33789062 C45.40095177 60.76110535 45.40095177 60.76110535 45.42518616 59.15246582 C45.42022629 58.01805054 45.41526642 56.88363525 45.41015625 55.71484375 C45.41635483 54.54981323 45.42255341 53.38478271 45.42893982 52.18444824 C45.43604783 49.71981646 45.43284702 47.25513676 45.42016602 44.79052734 C45.40630283 41.01049849 45.44035801 37.23294449 45.47851562 33.453125 C45.47946677 31.06119731 45.47760824 28.6692665 45.47265625 26.27734375 C45.48591446 25.14292847 45.49917267 24.00851318 45.51283264 22.83972168 C45.50029953 21.78853149 45.48776642 20.73734131 45.47485352 19.65429688 C45.47389175 18.72846802 45.47292999 17.80263916 45.47193909 16.84875488 C45.03859188 14.26700588 45.03859188 14.26700588 42.49780273 12.69598389 C39.23637533 11.22150129 36.85201826 11.138798 33.27734375 11.16796875 C31.35486816 11.17449463 31.35486816 11.17449463 29.39355469 11.18115234 C28.02277375 11.20197901 26.65200528 11.22364152 25.28125 11.24609375 C23.88314472 11.2593527 22.48503233 11.27188147 21.08691406 11.28369141 C13.08714443 11.36622788 5.08701991 11.53453502 -2.90625 11.87109375 Z " fill="#0F0F0F" transform="translate(224.15625,521.50390625)"/>
<path d="M0 0 C1.0750177 -0.01283524 2.1500354 -0.02567047 3.25762939 -0.03889465 C4.41494568 -0.04628159 5.57226196 -0.05366852 6.76464844 -0.0612793 C7.96079773 -0.06935104 9.15694702 -0.07742279 10.38934326 -0.08573914 C12.92116857 -0.09956743 15.45301243 -0.11029519 17.98486328 -0.11816406 C21.84541369 -0.13537053 25.70510628 -0.17926928 29.56542969 -0.22338867 C32.02766299 -0.23351658 34.48990355 -0.24203237 36.95214844 -0.2487793 C38.1013678 -0.26628738 39.25058716 -0.28379547 40.43463135 -0.30183411 C48.01229264 -0.28145122 53.37165653 0.52421367 59.19818115 5.52920532 C64.02983398 10.96234616 63.30909659 17.67349104 63.21777344 24.5559082 C63.21781372 25.84134018 63.217854 27.12677216 63.21789551 28.45115662 C63.21624865 31.16211406 63.19766881 33.87223816 63.16601562 36.58300781 C63.12629883 40.04529416 63.12197868 43.50649355 63.12947845 46.96896458 C63.13329763 50.2897432 63.11245651 53.61018316 63.09277344 56.9309082 C63.09247131 58.78734703 63.09247131 58.78734703 63.09216309 60.68128967 C62.99994234 67.39376334 62.8599912 72.62923521 58.12402344 77.8215332 C53.65533148 81.30106157 50.7632474 82.29800255 45.17797852 82.35400391 C43.50527641 82.37325676 43.50527641 82.37325676 41.79878235 82.39289856 C39.98944466 82.40397896 39.98944466 82.40397896 38.14355469 82.4152832 C36.28062019 82.42739082 36.28062019 82.42739082 34.38005066 82.43974304 C31.74803946 82.45358503 29.11615353 82.46460039 26.48413086 82.47216797 C23.7944463 82.48101401 21.10528072 82.50185466 18.41577148 82.53369141 C14.53320749 82.57639365 10.65132447 82.5925429 6.76855469 82.6027832 C5.57245071 82.62029129 4.37634674 82.63779938 3.14399719 82.65583801 C-3.43561217 82.63881691 -9.12541657 82.4961646 -14.37597656 78.17700195 C-19.4142206 73.08038079 -19.96702072 67.72640774 -20.0450592 60.78527832 C-20.03180099 59.60485962 -20.01854279 58.42444092 -20.00488281 57.20825195 C-20.00850075 55.35592957 -20.00850075 55.35592957 -20.01219177 53.46618652 C-20.01121543 50.86406227 -19.99787319 48.26191671 -19.97290039 45.65991211 C-19.93858567 41.68962644 -19.95225818 37.7215676 -19.97167969 33.7512207 C-19.96478086 31.21605503 -19.95510815 28.68089507 -19.94238281 26.14575195 C-19.94734268 24.96533325 -19.95230255 23.78491455 -19.95741272 22.56872559 C-19.85920236 15.65546587 -19.14672723 11.03225268 -15.37597656 5.17700195 C-10.30413174 1.05612803 -6.38732811 0.06660422 0 0 Z M-6.37597656 13.17700195 C-8.41113225 16.04620443 -8.63138855 18.49610786 -8.65063477 21.95800781 C-8.66016678 22.90256332 -8.66969879 23.84711884 -8.67951965 24.82029724 C-8.67860825 25.83390823 -8.67769684 26.84751923 -8.67675781 27.8918457 C-8.68104294 28.9397377 -8.68532806 29.9876297 -8.68974304 31.067276 C-8.69548284 33.28214801 -8.69598919 35.49703887 -8.69165039 37.71191406 C-8.68849159 41.0983907 -8.71195062 44.48399275 -8.73730469 47.87036133 C-8.73957784 50.02335502 -8.7402811 52.17635106 -8.73925781 54.3293457 C-8.74846756 55.34093246 -8.75767731 56.35251923 -8.76716614 57.39476013 C-8.7588772 64.29167334 -8.7588772 64.29167334 -5.37597656 70.17700195 C-2.92090721 71.40453663 -1.27621645 71.32361973 1.46923828 71.35400391 C2.98123306 71.37325676 2.98123306 71.37325676 4.52377319 71.39289856 C5.61646515 71.40028549 6.7091571 71.40767242 7.83496094 71.4152832 C9.51448349 71.42739082 9.51448349 71.42739082 11.22793579 71.43974304 C13.60018359 71.45359029 15.97245137 71.46430957 18.34472656 71.47216797 C21.97727019 71.48939877 25.60890816 71.53328252 29.24121094 71.57739258 C31.54328756 71.58751761 33.84537194 71.5960343 36.14746094 71.6027832 C37.23610443 71.62029129 38.32474792 71.63779938 39.44638062 71.65583801 C40.46068146 71.65291245 41.4749823 71.64998688 42.52001953 71.64697266 C43.85666153 71.65577202 43.85666153 71.65577202 45.2203064 71.66474915 C48.48442917 71.00241382 49.64759182 69.82520651 51.62402344 67.17700195 C52.21738932 64.70828129 52.21738932 64.70828129 52.12573242 61.99707031 C52.13980385 60.45042946 52.13980385 60.45042946 52.15415955 58.87254333 C52.14292557 57.76516312 52.13169159 56.6577829 52.12011719 55.5168457 C52.12230003 53.80471642 52.12230003 53.80471642 52.12452698 52.05799866 C52.12286766 49.64638718 52.11130283 47.23476516 52.09057617 44.82324219 C52.06160529 41.12495134 52.06997071 37.42809196 52.08300781 33.72973633 C52.07677106 31.38793246 52.06838063 29.04613314 52.05761719 26.7043457 C52.06055283 25.59494125 52.06348846 24.4855368 52.06651306 23.34251404 C52.05382889 22.3145723 52.04114471 21.28663055 52.02807617 20.22753906 C52.02267319 19.3224913 52.0172702 18.41744354 52.01170349 17.48497009 C51.54795803 14.72416321 50.802879 13.87520041 48.62402344 12.17700195 C46.23252148 10.98125098 44.73965662 11.04395146 42.07006836 11.03173828 C41.12536179 11.02535843 40.18065521 11.01897858 39.20732117 11.0124054 C38.1833876 11.01129257 37.15945404 11.01017975 36.10449219 11.0090332 C35.05377029 11.0057048 34.0030484 11.0023764 32.92048645 10.99894714 C30.69365884 10.99387709 28.46682361 10.99153884 26.23999023 10.99169922 C22.83597221 10.98951762 19.43228074 10.97137606 16.02832031 10.95239258 C13.86621205 10.94945769 11.70410224 10.94747353 9.54199219 10.9465332 C8.52413132 10.93934769 7.50627045 10.93216217 6.45756531 10.92475891 C5.02632072 10.92937386 5.02632072 10.92937386 3.56616211 10.93408203 C2.73058273 10.93265701 1.89500336 10.93123199 1.03410339 10.92976379 C-1.81063201 11.2215911 -3.84934331 11.82994916 -6.37597656 13.17700195 Z " fill="#0D0D0D" transform="translate(217.3759765625,635.822998046875)"/>
<path d="M0 0 C0.8092271 0.0030972 1.6184542 0.00619441 2.45220333 0.00938547 C3.73791056 0.0025888 3.73791056 0.0025888 5.04959166 -0.00434518 C7.9385339 -0.01706468 10.82728944 -0.01536398 13.71625668 -0.01371634 C15.78062582 -0.01969685 17.84499273 -0.02650128 19.90935665 -0.03407156 C25.52910703 -0.05178657 31.14879656 -0.05642923 36.76857215 -0.05770314 C41.45324008 -0.05959839 46.1378937 -0.06695154 50.82255614 -0.07404733 C61.87078916 -0.09034951 72.91898957 -0.09521458 83.96723324 -0.09379447 C95.38029824 -0.0925923 106.79317436 -0.11370498 118.20619154 -0.14528179 C127.99134484 -0.17139424 137.77643627 -0.18216389 147.56162417 -0.18088365 C153.4119056 -0.18037256 159.26201926 -0.18613626 165.11226612 -0.20723975 C170.6124268 -0.22653771 176.11225818 -0.22680468 181.61243016 -0.21220648 C183.63493601 -0.21010681 185.65746202 -0.21488763 187.67993313 -0.2269274 C190.43359905 -0.24226251 193.18611276 -0.23315022 195.93975216 -0.21766531 C197.15024673 -0.233096 197.15024673 -0.233096 198.38519573 -0.24883842 C203.76145358 -0.18167587 203.76145358 -0.18167587 206.28726441 2.14365327 C207.57647966 4.97237665 207.3244088 6.38626167 206.25946957 9.276811 C202.4595331 11.81010198 199.42467426 11.55834262 195.02240902 11.53750741 C193.74767082 11.54324574 193.74767082 11.54324574 192.44718033 11.54909998 C189.58897491 11.55944946 186.73096965 11.55543417 183.87275082 11.55146921 C181.82793894 11.55581457 179.7831287 11.56099712 177.73832089 11.56695688 C172.17647274 11.5803761 166.61469242 11.58092237 161.05283123 11.57839358 C156.41533536 11.57732599 151.77785333 11.58220172 147.14036041 11.586999 C136.20381601 11.598104 125.26730595 11.59852581 114.33075863 11.59248483 C103.03415074 11.58644111 91.73766728 11.59876393 80.44108063 11.6200549 C70.75357189 11.63764436 61.06610285 11.64367652 51.37857872 11.64041716 C45.58759006 11.63860014 39.79669017 11.64128221 34.00571591 11.6551317 C28.56221556 11.66766253 23.1189099 11.66581111 17.67541271 11.65272081 C15.67387347 11.6503452 13.67232071 11.65312465 11.67079693 11.66134393 C8.94581206 11.67173009 6.22149039 11.66377671 3.49653012 11.65103281 C2.29873157 11.66209423 2.29873157 11.66209423 1.07673508 11.67337912 C-4.2250246 11.6209447 -4.2250246 11.6209447 -6.73581547 9.94482839 C-8.29779336 7.35164886 -8.05422866 5.2255744 -7.74053043 2.276811 C-5.17845168 -0.28526775 -3.49328329 0.03070668 0 0 Z " fill="#040404" transform="translate(317.7405304312706,577.723188996315)"/>
<path d="M0 0 C0.8130735 -0.00467997 1.62614699 -0.00935994 2.46385908 -0.01418173 C5.19779066 -0.02618094 7.93122552 -0.0166554 10.66516113 -0.00723267 C12.62130527 -0.01129618 14.57744712 -0.01663682 16.53358459 -0.02316284 C21.85374362 -0.0368684 27.1737286 -0.03152442 32.49389076 -0.02202559 C38.05387476 -0.01444576 43.61384356 -0.02146992 49.17382812 -0.02618408 C58.5119495 -0.03164653 67.84999976 -0.02443718 77.18811035 -0.01016235 C87.99394349 0.00616507 98.79960683 0.00087691 109.60543585 -0.01564157 C118.87257262 -0.0292425 128.13965818 -0.03118292 137.4068017 -0.02332556 C142.9462732 -0.01864138 148.48566482 -0.01804463 154.02513123 -0.02793503 C159.23226329 -0.03658215 164.43917582 -0.0306241 169.6462841 -0.01325226 C171.56074089 -0.00927534 173.47521606 -0.01044195 175.3896656 -0.01704025 C177.99643855 -0.02519837 180.60250123 -0.01500407 183.20922852 0 C184.35449926 -0.01003825 184.35449926 -0.01003825 185.52290678 -0.02027929 C188.47443678 0.01283402 190.59550951 0.05222713 193.11370087 1.67819786 C194.80845795 4.59041284 193.80465442 7.23077021 193.10461426 10.38095093 C191.35920978 12.12635541 189.08159709 11.51119284 186.75489628 11.52401853 C185.98166582 11.52315204 185.20843537 11.52228556 184.41177368 11.52139282 C183.59632548 11.52436394 182.78087728 11.52733507 181.94071853 11.53039622 C179.18690928 11.53912199 176.4331433 11.54059472 173.67932129 11.54208374 C171.71362209 11.54670916 169.7479238 11.55173344 167.78222656 11.55712891 C162.42688358 11.57028121 157.07155315 11.57670332 151.71619654 11.58113956 C148.37417969 11.58406564 145.03216632 11.58816953 141.69015121 11.59264374 C131.24475912 11.6063259 120.7993749 11.61598913 110.35397446 11.61984563 C98.27581685 11.62432881 86.19777228 11.64188577 74.11964905 11.67084622 C64.7973638 11.69242679 55.47511042 11.70254796 46.15280044 11.70388675 C40.57863076 11.70493735 35.00456723 11.71089918 29.43042374 11.72870636 C24.18886997 11.74512456 18.94750285 11.74737311 13.70593262 11.73856735 C11.77856829 11.73779362 9.85119418 11.74218361 7.92385483 11.7520256 C5.29948497 11.76464446 2.67578627 11.75892364 0.05142212 11.7484436 C-0.7173469 11.75650001 -1.48611591 11.76455641 -2.27818096 11.77285695 C-7.39895928 11.7247894 -7.39895928 11.7247894 -9.86862373 10.01423264 C-11.35226741 7.65418419 -11.30487379 6.11087122 -10.89538574 3.38095093 C-8.33329116 -0.67979183 -4.31124976 -0.03778791 0 0 Z " fill="#010101" transform="translate(208.8953857421875,225.61904907226563)"/>
<path d="M0 0 C0.68577781 -0.00467997 1.37155562 -0.00935994 2.07811457 -0.01418173 C4.38133773 -0.02616977 6.68397005 -0.01666003 8.98719788 -0.00723267 C10.63630522 -0.01129673 12.28540984 -0.01663768 13.93450928 -0.02316284 C18.41799594 -0.03686304 22.90127597 -0.03152641 27.38476634 -0.02202559 C32.07277031 -0.01444169 36.76075634 -0.02147118 41.44876099 -0.02618408 C49.32325931 -0.03164588 57.19767329 -0.02443947 65.07215881 -0.01016235 C74.17955157 0.00615932 83.28674279 0.00088088 92.39413065 -0.01564157 C100.20821927 -0.02925111 108.02224718 -0.03117853 115.83634382 -0.02332556 C120.50562408 -0.01864539 125.17480959 -0.01803352 129.84408379 -0.02793503 C134.23456195 -0.03659449 138.62478013 -0.03060153 143.01523018 -0.01325226 C144.62771803 -0.0092817 146.24022772 -0.01043118 147.85270691 -0.01704025 C150.05192204 -0.02522378 152.2503012 -0.01497374 154.44946289 0 C156.2964221 0.00169662 156.2964221 0.00169662 158.18069363 0.00342751 C161.54007532 0.41154759 162.95504419 0.96068561 165.28822327 3.38095093 C165.78822327 6.38095093 165.78822327 6.38095093 165.28822327 9.38095093 C162.96537373 11.78213708 161.55483517 12.34817275 158.21751499 12.75847435 C156.39657526 12.76017097 156.39657526 12.76017097 154.53884888 12.76190186 C153.52220953 12.76892181 153.52220953 12.76892181 152.48503202 12.77608359 C150.21488411 12.78804577 147.94533851 12.77857197 145.67518616 12.76913452 C144.04725797 12.77319973 142.41933254 12.77854133 140.79141235 12.7850647 C136.36989821 12.79875123 131.94859386 12.79343387 127.52707601 12.78392744 C122.90093876 12.77633648 118.27481958 12.78337501 113.64868164 12.78808594 C105.8785123 12.79354568 98.10842846 12.78634672 90.33827209 12.77206421 C81.35527757 12.75574301 72.37248737 12.76102145 63.38949782 12.77754343 C55.67813241 12.79115892 47.9668285 12.79307747 40.25545496 12.78522742 C35.64931447 12.78055051 31.04327001 12.77992642 26.4371357 12.78983688 C22.10573582 12.79850498 17.77459921 12.79248754 13.44322777 12.77515411 C11.85373497 12.77118818 10.26422 12.77232516 8.67473602 12.77894211 C6.50438564 12.78714391 4.33487803 12.77685348 2.1645813 12.76190186 C0.34307603 12.76020524 0.34307603 12.76020524 -1.51522732 12.75847435 C-5.03273667 12.34304446 -6.94422037 11.57196042 -9.71177673 9.38095093 C-10.23000504 6.27158111 -10.38420022 4.38719384 -8.60001278 1.71726036 C-5.76562714 -0.28864154 -3.44630932 0.00316675 0 0 Z " fill="#121212" transform="translate(207.71177673339844,319.6190490722656)"/>
<path d="M0 0 C0.72238092 -0.00367669 1.44476184 -0.00735338 2.18903309 -0.01114148 C4.62188385 -0.02219927 7.05469193 -0.02602565 9.48756409 -0.02983093 C11.22681312 -0.03609386 12.9660608 -0.0427405 14.70530701 -0.04974365 C19.43870546 -0.0671659 24.17209381 -0.07770811 28.90551639 -0.08594918 C31.86008872 -0.09109529 34.81465788 -0.0971711 37.76922798 -0.10346031 C47.00578314 -0.12251326 56.24233029 -0.13674585 65.47890133 -0.14507228 C76.15571039 -0.15485506 86.83231271 -0.18120123 97.50904888 -0.22157317 C105.75280642 -0.25168047 113.9965045 -0.2665359 122.24031597 -0.26985329 C127.16841581 -0.27220938 132.09629479 -0.28124236 137.02433586 -0.30631447 C141.65775952 -0.32950708 146.29081553 -0.33386421 150.92428207 -0.32355309 C152.62750912 -0.3230555 154.33075373 -0.32944098 156.03392601 -0.34310913 C158.35411886 -0.36069155 160.6729725 -0.35379101 162.99316406 -0.34057617 C164.29305991 -0.34296453 165.59295576 -0.34535288 166.93224239 -0.34781361 C170.06007385 0.14717102 170.06007385 0.14717102 172.01347446 2.01359272 C173.06007385 4.14717102 173.06007385 4.14717102 172.87257385 6.77217102 C172.06007385 9.14717102 172.06007385 9.14717102 170.06007385 11.14717102 C167.05808353 11.40164661 167.05808353 11.40164661 163.12014771 11.40786743 C162.39776679 11.41169298 161.67538586 11.41551853 160.93111461 11.41946 C158.49819801 11.42982079 156.06551605 11.42579209 153.63258362 11.42182922 C151.89333374 11.42617401 150.15408579 11.43135637 148.4148407 11.43731689 C143.68141613 11.45074343 138.94807123 11.45128151 134.21463132 11.4487536 C130.26810589 11.44768634 126.32159675 11.45256095 122.3750748 11.45735902 C113.06718132 11.46846688 103.75932819 11.46888445 94.45143127 11.46284485 C84.83793004 11.45680302 75.22457509 11.46911847 65.61109883 11.49041492 C57.36733361 11.50800795 49.12361504 11.51403591 40.87983173 11.51077718 C35.95178468 11.50896047 31.02384196 11.51163889 26.09581184 11.52549171 C21.46241899 11.53802812 16.8292548 11.53616587 12.19586563 11.52308083 C10.49265022 11.52070631 8.78941892 11.52348086 7.08622169 11.53170395 C4.76620693 11.54209968 2.44696969 11.53412945 0.12698364 11.52139282 C-1.82286013 11.52164443 -1.82286013 11.52164443 -3.81209469 11.52190113 C-6.93992615 11.14717102 -6.93992615 11.14717102 -8.89332676 9.85034466 C-9.93992615 8.14717102 -9.93992615 8.14717102 -9.75242615 4.52217102 C-9.48430115 3.40842102 -9.21617615 2.29467102 -8.93992615 1.14717102 C-5.97511057 -0.33523677 -3.309824 0.01088439 0 0 Z " fill="#010101" transform="translate(207.93992614746094,272.8528289794922)"/>
<path d="M0 0 C1.93922836 -0.00639748 1.93922836 -0.00639748 3.91763306 -0.01292419 C5.36380008 -0.01257463 6.80996708 -0.01211307 8.25613403 -0.0115509 C9.76863692 -0.01454078 11.28113903 -0.01794291 12.79364014 -0.02172852 C16.91348973 -0.03059088 21.03331858 -0.03290758 25.15317678 -0.0335443 C28.58767007 -0.03449169 32.02215848 -0.03816807 35.4566499 -0.0417164 C43.55778252 -0.04986971 51.65890403 -0.05229986 59.76004028 -0.05158997 C68.12664877 -0.05098916 76.49319279 -0.06153948 84.85978496 -0.07733363 C92.03346876 -0.09039506 99.20713146 -0.09577444 106.38082707 -0.09513456 C110.66947449 -0.09487913 114.95806467 -0.09775493 119.24670029 -0.10831261 C123.28005143 -0.11796997 127.31329034 -0.11808909 131.34664536 -0.11079597 C132.82894046 -0.10974713 134.31124247 -0.1121307 135.7935257 -0.11815643 C137.81334557 -0.12583685 139.83320341 -0.12005015 141.85302734 -0.11352539 C142.9846121 -0.11407016 144.11619686 -0.11461493 145.28207207 -0.1151762 C148.05349731 0.13371277 148.05349731 0.13371277 151.05349731 2.13371277 C151.92849731 3.94621277 151.92849731 3.94621277 152.05349731 6.13371277 C150.94799805 8.73159027 150.94799805 8.73159027 149.05349731 11.13371277 C146.28765869 11.75733185 146.28765869 11.75733185 142.8664856 11.75517273 C141.57091736 11.76638153 140.27534912 11.77759033 138.94052124 11.78913879 C137.50161299 11.77622718 136.06270918 11.76281304 134.62380981 11.74894714 C133.11100644 11.75244742 131.59820674 11.75810494 130.0854187 11.76576233 C125.97371227 11.78003382 121.86267269 11.76292625 117.75102997 11.73947716 C113.45227785 11.71940088 109.15355431 11.72524603 104.85476685 11.72758484 C97.63509086 11.72753123 90.41567629 11.70775347 83.19607544 11.67570496 C74.84413055 11.63881054 66.49252821 11.63002899 58.14051247 11.63700247 C50.112742 11.64330342 42.08508925 11.63256077 34.05734253 11.61303711 C30.63793259 11.60485324 27.21858274 11.60215537 23.79916382 11.60372925 C19.7738925 11.60460693 15.74894771 11.59042367 11.72376251 11.56450272 C10.24470858 11.55732847 8.76561995 11.55526334 7.28655243 11.55862045 C5.27118239 11.5623229 3.25580514 11.5457769 1.24050903 11.52812195 C0.11152191 11.52439323 -1.01746521 11.52066452 -2.18066406 11.51682281 C-4.94650269 11.13371277 -4.94650269 11.13371277 -6.84881592 9.83562469 C-7.94650269 8.13371277 -7.94650269 8.13371277 -7.69650269 4.50871277 C-6.5019511 -0.86676937 -5.20595763 0.00771501 0 0 Z " fill="#010101" transform="translate(317.9465026855469,544.8662872314453)"/>
<path d="M0 0 C1.28577942 -0.00708481 2.57155884 -0.01416962 3.89630127 -0.02146912 C5.32939183 -0.01917508 6.76248205 -0.01666535 8.1955719 -0.01396179 C9.69837193 -0.01830693 11.20116974 -0.02348941 12.70396423 -0.02944946 C16.79278465 -0.04287232 20.88151282 -0.04341448 24.97035098 -0.04088616 C28.38004654 -0.03981864 31.78972326 -0.04469421 35.19941479 -0.04949158 C43.2416051 -0.06059821 51.28374871 -0.06101774 59.32594299 -0.05497742 C67.63069544 -0.04893592 75.93527854 -0.06125041 84.2400021 -0.08254749 C91.36275898 -0.10014383 98.48546188 -0.10616795 105.60823971 -0.10290974 C109.86559688 -0.10109354 114.12283327 -0.10376644 118.38017082 -0.11762428 C122.38322001 -0.13016608 126.38600458 -0.12829341 130.38904953 -0.11521339 C131.86005682 -0.11284003 133.33108252 -0.11560937 134.80206871 -0.12383652 C136.80649831 -0.13424062 138.81100278 -0.12443621 140.81542969 -0.11352539 C141.93834128 -0.11369313 143.06125288 -0.11386087 144.2181921 -0.1140337 C146.97120667 0.26069641 146.97120667 0.26069641 148.86766148 1.55752277 C149.97120667 3.26069641 149.97120667 3.26069641 149.78370667 6.88569641 C149.51558167 7.99944641 149.24745667 9.11319641 148.97120667 10.26069641 C146.23390794 11.62934577 144.05241826 11.39610694 140.98710632 11.40786743 C139.71118622 11.41502274 138.43526611 11.42217804 137.12068176 11.42955017 C135.6986239 11.43239055 134.27656578 11.43510226 132.85450745 11.43769836 C131.36318299 11.44396188 129.87186011 11.45060858 128.38053894 11.45761108 C124.32267241 11.47502923 120.26481767 11.4855747 116.20692301 11.49381661 C113.67312699 11.49896424 111.13933465 11.50504002 108.60554123 11.51132774 C100.681933 11.53038068 92.75833411 11.54461253 84.83470738 11.55293971 C75.68039641 11.56271853 66.52632683 11.58905429 57.37210095 11.62944061 C50.30114156 11.65956851 43.23025151 11.67440535 36.15922916 11.67772073 C31.93363614 11.68007471 27.70830097 11.68908017 23.48277664 11.7141819 C19.50841498 11.73741024 15.5344819 11.74171727 11.56007004 11.73142052 C10.10075711 11.73092379 8.64142346 11.7372846 7.18217468 11.75097656 C5.19128582 11.76861293 3.20021204 11.75923101 1.20927429 11.7484436 C0.09465883 11.75083196 -1.01995663 11.75322031 -2.16834831 11.75568104 C-5.68998167 11.14628133 -6.90423431 10.08968575 -9.02879333 7.26069641 C-8.72073462 0.79146332 -5.92106737 0.01082833 0 0 Z " fill="#010102" transform="translate(318.02879333496094,690.7393035888672)"/>
<path d="M0 0 C1.08383972 -0.00571014 2.16767944 -0.01142029 3.28436279 -0.01730347 C4.47870438 -0.01842133 5.67304596 -0.01953918 6.90357971 -0.02069092 C8.15726349 -0.02565582 9.41094727 -0.03062073 10.70262146 -0.03573608 C14.14682506 -0.04785759 17.59096786 -0.055306 21.03518558 -0.05974674 C23.18571216 -0.06267599 25.33623339 -0.06678048 27.48675728 -0.07125092 C34.21167999 -0.08492635 40.93659049 -0.09459324 47.66152614 -0.09845281 C55.43141224 -0.10293632 63.20112265 -0.12049745 70.97095531 -0.1494534 C76.97269505 -0.17104601 82.97438527 -0.18115576 88.97616345 -0.18249393 C92.5628462 -0.18354354 96.14936383 -0.18948443 99.73600578 -0.20731354 C103.73468119 -0.22680422 107.73298716 -0.22251499 111.73170471 -0.21600342 C112.92402206 -0.2252182 114.11633942 -0.23443298 115.3447876 -0.243927 C116.43144714 -0.23835785 117.51810669 -0.2327887 118.63769531 -0.22705078 C120.05658633 -0.22925062 120.05658633 -0.22925062 121.50414181 -0.2314949 C123.88233948 0.14044189 123.88233948 0.14044189 125.69059849 1.47200394 C127.51522528 4.02648232 127.20608944 6.09719221 126.88233948 9.14044189 C124.2964245 11.72635687 123.279613 11.39345798 119.68202209 11.40113831 C118.02885231 11.41176552 118.02885231 11.41176552 116.34228516 11.42260742 C115.12767105 11.42013 113.91305695 11.41765259 112.66163635 11.4151001 C111.38683914 11.42021103 110.11204193 11.42532196 108.7986145 11.43058777 C105.2966152 11.44400525 101.79472363 11.44455348 98.29270363 11.44202447 C95.3725222 11.44095676 92.45236276 11.44583291 89.53218603 11.45062989 C82.64546924 11.46173427 75.75880699 11.46215706 68.87208557 11.45611572 C61.75904431 11.45007198 54.64620065 11.46239484 47.53319311 11.48368579 C41.43294685 11.5012763 35.33276363 11.50730726 29.23249292 11.50404805 C25.58605231 11.50223118 21.9397527 11.50491137 18.29333496 11.51876259 C14.2297727 11.53362023 10.16661527 11.52439329 6.1030426 11.51275635 C4.8884285 11.52040009 3.67381439 11.52804382 2.4223938 11.53591919 C0.76922401 11.52539772 0.76922401 11.52539772 -0.91734314 11.5146637 C-1.87894096 11.51483144 -2.84053879 11.51499918 -3.83127594 11.515172 C-4.58578285 11.39151107 -5.34028976 11.26785013 -6.11766052 11.14044189 C-8.11766052 8.14044189 -8.11766052 8.14044189 -7.86766052 4.51544189 C-7.62016052 3.40169189 -7.37266052 2.28794189 -7.11766052 1.14044189 C-4.58741901 -0.12467886 -2.83320285 0.00891314 0 0 Z " fill="#020202" transform="translate(318.11766052246094,657.8595581054688)"/>
<path d="M0 0 C1.875 1.6875 1.875 1.6875 3 4 C2.80130262 9.01046699 -0.05597003 11.63636137 -3.43432617 14.98364258 C-4.0002951 15.55983337 -4.56626404 16.13602417 -5.14938354 16.72967529 C-7.02034777 18.62840553 -8.90577134 20.5119442 -10.79296875 22.39453125 C-12.1004029 23.70973984 -13.40738829 25.02539468 -14.71394348 26.34147644 C-17.45363696 29.09608806 -20.20094709 31.84282596 -22.95336914 34.5847168 C-26.48006071 38.09981009 -29.9834809 41.63712419 -33.48108959 45.18112659 C-36.17383851 47.90333183 -38.88030647 50.61156432 -41.59093666 53.31595421 C-42.88860065 54.61464524 -44.18154156 55.91807343 -45.46962547 57.22626686 C-47.27199753 59.05330394 -49.09241265 60.86024258 -50.91870117 62.66333008 C-51.44725204 63.20716843 -51.97580292 63.75100677 -52.52037048 64.31132507 C-55.11424526 66.83289111 -56.61634513 67.95142855 -60.25166321 68.41166687 C-63.43433323 67.93494225 -64.57611633 67.21008559 -66.875 65 C-67.55175781 64.35933594 -68.22851562 63.71867188 -68.92578125 63.05859375 C-69.61027344 62.37925781 -70.29476562 61.69992187 -71 61 C-71.67417969 60.35160156 -72.34835937 59.70320312 -73.04296875 59.03515625 C-77.01650141 55.15385259 -80.73337237 51.11095616 -84.3203125 46.87109375 C-85.94483981 45.06144589 -87.6666518 43.53006284 -89.5 41.9375 C-92 39 -92 39 -91.875 35.125 C-91.58625 34.09375 -91.2975 33.0625 -91 32 C-87.875 31.1875 -87.875 31.1875 -84 31 C-79.5458592 33.8766326 -76.429232 37.71393071 -73.01171875 41.73046875 C-69.21253508 46.0165381 -65.08523307 49.988745 -61 54 C-56.62542563 50.4146845 -52.54897454 46.62346389 -48.57421875 42.6015625 C-48.09695343 42.11878845 -47.61968811 41.6360144 -47.12796021 41.13861084 C-45.13661759 39.11953295 -43.14911468 37.09676087 -41.16577148 35.06982422 C-39.70206235 33.57608907 -38.23233505 32.08849319 -36.76171875 30.6015625 C-35.89506592 29.71807129 -35.02841309 28.83458008 -34.13549805 27.92431641 C-32 26 -32 26 -30 26 C-29.505 24.515 -29.505 24.515 -29 23 C-27.44018555 21.47241211 -27.44018555 21.47241211 -25.44921875 19.83984375 C-22.43941815 17.28906291 -19.62478129 14.66487736 -16.89453125 11.81640625 C-16.22099609 11.11708984 -15.54746094 10.41777344 -14.85351562 9.69726562 C-13.47356522 8.25392994 -12.10134182 6.80317306 -10.73632812 5.34570312 C-10.06666016 4.65541016 -9.39699219 3.96511719 -8.70703125 3.25390625 C-8.1138208 2.62814697 -7.52061035 2.0023877 -6.90942383 1.35766602 C-4.44035921 -0.39792385 -2.96759485 -0.3841989 0 0 Z " fill="#090909" transform="translate(589,640)"/>
<path d="M0 0 C1.23700905 -0.00788544 1.23700905 -0.00788544 2.49900818 -0.01593018 C5.22804644 -0.02914616 7.95650256 -0.02038655 10.68554688 -0.01025391 C12.57979444 -0.01227418 14.47404124 -0.01518524 16.36828613 -0.01895142 C20.33951213 -0.02337693 24.31053579 -0.01693639 28.28173828 -0.00292969 C33.37647863 0.01416232 38.47074489 0.00432235 43.56546783 -0.01364708 C47.47735172 -0.02447877 51.38912289 -0.02104141 55.30101013 -0.0132637 C57.17972367 -0.01125999 59.05844739 -0.01372695 60.93714905 -0.02070236 C63.56124039 -0.02830674 66.18456001 -0.01672716 68.80859375 0 C69.58790756 -0.00607269 70.36722137 -0.01214539 71.17015076 -0.0184021 C76.36774081 0.04309355 76.36774081 0.04309355 78.92199707 1.68588257 C80.62277528 4.63328872 79.66637273 7.22263774 78.90429688 10.38818359 C75.75479629 11.96293389 72.38016547 11.53544895 68.92211914 11.53344727 C67.68532913 11.53848518 67.68532913 11.53848518 66.42355347 11.54362488 C63.68925483 11.55314868 60.95501733 11.55507867 58.22070312 11.55615234 C56.3250272 11.55936382 54.42935154 11.56272781 52.53367615 11.5662384 C48.55654322 11.57223317 44.57943205 11.57407794 40.60229492 11.57348633 C35.49978532 11.57338466 30.39741472 11.58704011 25.29493809 11.60425854 C21.37879289 11.61536302 17.46268147 11.61740602 13.54652214 11.6168766 C11.6650132 11.61805894 9.78350346 11.62249486 7.90200996 11.63020897 C5.27319656 11.63997804 2.64468717 11.63714313 0.01586914 11.63110352 C-1.15545815 11.63953278 -1.15545815 11.63953278 -2.35044861 11.64813232 C-6.14151537 11.62593694 -7.86158006 11.54426563 -11.09570312 9.38818359 C-11.47672651 6.40350044 -11.67768431 4.34178438 -10.07824707 1.72103882 C-6.95160346 -0.38098938 -3.64115323 -0.02837317 0 0 Z " fill="#020202" transform="translate(321.095703125,466.61181640625)"/>
<path d="M0 0 C1.15136948 -0.01283524 2.30273895 -0.02567047 3.48899841 -0.03889465 C4.73794388 -0.04628159 5.98688934 -0.05366852 7.27368164 -0.0612793 C8.55110733 -0.06935104 9.82853302 -0.07742279 11.14466858 -0.08573914 C13.85071449 -0.09958833 16.5566382 -0.11060298 19.26269531 -0.11816406 C22.73101375 -0.129243 26.19869312 -0.16366117 29.66678524 -0.20333576 C32.97318762 -0.23573638 36.27964467 -0.24027458 39.58618164 -0.2487793 C40.83310287 -0.26628738 42.08002411 -0.28379547 43.36473083 -0.30183411 C45.09651329 -0.29744576 45.09651329 -0.29744576 46.86328125 -0.29296875 C47.88095078 -0.29883499 48.8986203 -0.30470123 49.9471283 -0.31074524 C52.49633789 0.17700195 52.49633789 0.17700195 54.36012268 2.04231262 C55.49633789 4.17700195 55.49633789 4.17700195 55.30883789 6.80200195 C54.49633789 9.17700195 54.49633789 9.17700195 52.49633789 11.17700195 C50.07411194 11.43769836 50.07411194 11.43769836 46.99267578 11.45166016 C45.8413063 11.46119217 44.68993683 11.47072418 43.50367737 11.48054504 C42.2547319 11.47963364 41.00578644 11.47872223 39.71899414 11.4777832 C37.80285561 11.48421089 37.80285561 11.48421089 35.8480072 11.49076843 C33.14185911 11.49652107 30.43609127 11.49793636 27.72998047 11.49267578 C24.26174296 11.48688234 20.7940397 11.50380603 17.32589054 11.52702045 C14.01942888 11.54529438 10.71299724 11.54157257 7.40649414 11.5402832 C6.15957291 11.54949295 4.91265167 11.5587027 3.62794495 11.56819153 C2.47342331 11.56196274 1.31890167 11.55573395 0.12939453 11.54931641 C-0.88827499 11.54994583 -1.90594452 11.55057526 -2.95445251 11.55122375 C-5.50366211 11.17700195 -5.50366211 11.17700195 -7.3674469 9.8802948 C-8.50366211 8.17700195 -8.50366211 8.17700195 -8.31616211 4.55200195 C-8.04803711 3.43825195 -7.77991211 2.32450195 -7.50366211 1.17700195 C-4.88836541 -0.1306464 -2.92883479 0.02835362 0 0 Z " fill="#030303" transform="translate(318.503662109375,433.822998046875)"/>
<path d="M0 0 C2.3125 1.1875 2.3125 1.1875 3.3125 2.1875 C3.70909951 5.67757572 3.67327121 7.60124679 1.8125 10.625 C-0.76045007 13.26227382 -3.45821116 15.62921176 -6.26171875 18.015625 C-9.84727243 21.22587918 -13.20070807 24.65769374 -16.5625 28.09985352 C-22.49442695 34.13200823 -22.49442695 34.13200823 -26.375 34.3125 C-31.38891803 32.60965991 -34.17315449 29.02197819 -37.6875 25.1875 C-38.41839844 24.49398437 -39.14929688 23.80046875 -39.90234375 23.0859375 C-41.6875 21.1875 -41.6875 21.1875 -42.125 18.625 C-41.6875 16.1875 -41.6875 16.1875 -40.625 14.3125 C-38.6875 13.1875 -38.6875 13.1875 -35.3125 13.1875 C-31.12349028 14.34308889 -29.45901051 15.91207849 -26.6875 19.1875 C-23.46418002 17.7755147 -21.3730185 16.08859564 -18.9375 13.5625 C-18.2465625 12.85609375 -17.555625 12.1496875 -16.84375 11.421875 C-16.1321875 10.68453125 -15.420625 9.9471875 -14.6875 9.1875 C-13.27565351 7.72449965 -11.8591489 6.26597686 -10.4375 4.8125 C-9.50164062 3.84183594 -9.50164062 3.84183594 -8.546875 2.8515625 C-5.59835726 0.21276301 -3.90721102 -1.18124984 0 0 Z " fill="#0C0C0C" transform="translate(259.6875,663.8125)"/>
</svg>
