<?xml version="1.0" encoding="UTF-8"?>
<svg version="1.1" xmlns="http://www.w3.org/2000/svg" width="1024" height="1024">
<path d="M0 0 C15.77047781 12.88533613 28.81128203 29.18011782 34.51953125 49.05859375 C34.51953125 50.37859375 34.51953125 51.69859375 34.51953125 53.05859375 C35.34710937 52.84203125 36.1746875 52.62546875 37.02734375 52.40234375 C63.55331957 46.21485911 89.59602733 51.07469203 112.7421875 65.2109375 C135.89351855 80.61259655 149.2477914 103.01677382 155.1328125 129.85546875 C156.98833753 145.22446393 155.71660807 160.21892927 151.51953125 175.05859375 C152.5353125 175.58066406 153.55109375 176.10273438 154.59765625 176.640625 C164.21807925 181.72944282 171.85433666 187.36981394 179.51953125 195.05859375 C180.17179688 195.6515625 180.8240625 196.24453125 181.49609375 196.85546875 C199.90120546 213.83187316 208.11820253 239.56161489 209.703125 263.875 C210.41098671 291.81471798 199.89588698 318.34404745 180.94042969 338.67626953 C161.38393538 358.82599083 136.92162449 368.43054481 109.51953125 372.05859375 C109.84953125 374.69859375 110.17953125 377.33859375 110.51953125 380.05859375 C111.71578125 380.45046875 112.91203125 380.84234375 114.14453125 381.24609375 C119.09037072 383.10516816 122.65697532 385.60340639 125.89453125 389.87109375 C126.87083533 393.28815803 126.63767944 396.51414818 126.51953125 400.05859375 C124.20703125 400.05859375 124.20703125 400.05859375 121.51953125 399.05859375 C120.73046875 397.3515625 120.73046875 397.3515625 120.08203125 395.24609375 C118.97946737 391.73049005 118.57163395 391.10092719 115.51953125 388.62109375 C112.58690903 386.99340712 112.58690903 386.99340712 109.51953125 386.05859375 C109.51953125 394.63859375 109.51953125 403.21859375 109.51953125 412.05859375 C111.49953125 412.38859375 113.47953125 412.71859375 115.51953125 413.05859375 C120.88538028 415.45508504 125.05946175 418.62594028 127.51953125 424.05859375 C128.42938513 429.21443239 128.12041486 433.71008865 125.64453125 438.37109375 C122.4049752 442.96046482 117.72706647 445.22271693 112.51953125 447.05859375 C111.52953125 447.05859375 110.53953125 447.05859375 109.51953125 447.05859375 C109.51953125 449.69859375 109.51953125 452.33859375 109.51953125 455.05859375 C108.19953125 455.71859375 106.87953125 456.37859375 105.51953125 457.05859375 C103.51953125 455.05859375 103.51953125 455.05859375 103.32421875 453.11328125 C103.38932292 451.09505208 103.45442708 449.07682292 103.51953125 447.05859375 C102.93945312 446.90003906 102.359375 446.74148438 101.76171875 446.578125 C95.50930923 444.71065615 91.18017493 442.56580587 87.14453125 437.24609375 C86.16822717 433.82902947 86.40138306 430.60303932 86.51953125 427.05859375 C87.83953125 426.72859375 89.15953125 426.39859375 90.51953125 426.05859375 C90.761875 426.661875 91.00421875 427.26515625 91.25390625 427.88671875 C93.8534189 434.19774375 93.8534189 434.19774375 98.51953125 439.05859375 C100.16953125 439.71859375 101.81953125 440.37859375 103.51953125 441.05859375 C103.18953125 432.80859375 102.85953125 424.55859375 102.51953125 416.05859375 C99.21953125 414.40859375 95.91953125 412.75859375 92.51953125 411.05859375 C88.38165678 406.83627287 86.65806173 404.17118358 86.26953125 398.24609375 C86.36742869 393.37792106 87.67326967 390.05274709 91.03125 386.42578125 C94.96081256 382.7699635 98.27813789 381.12826586 103.51953125 380.05859375 C103.51953125 377.41859375 103.51953125 374.77859375 103.51953125 372.05859375 C102.3078125 371.98382812 101.09609375 371.9090625 99.84765625 371.83203125 C75.79841639 370.06730525 52.64386588 362.54111476 34.51953125 346.05859375 C33.22982422 344.94484375 33.22982422 344.94484375 31.9140625 343.80859375 C27.01863686 339.52780796 22.50881081 335.20266476 18.51953125 330.05859375 C18.51953125 329.39859375 18.51953125 328.73859375 18.51953125 328.05859375 C18.05691895 328.42098145 17.59430664 328.78336914 17.11767578 329.15673828 C0.11539876 342.43329895 0.11539876 342.43329895 -8.48046875 347.05859375 C-7.55234375 347.47109375 -6.62421875 347.88359375 -5.66796875 348.30859375 C-2.55812935 350.01595656 -1.05163246 350.91626633 0.51953125 354.05859375 C0.20703125 356.80859375 0.20703125 356.80859375 -0.48046875 359.05859375 C-1.47046875 358.72859375 -2.46046875 358.39859375 -3.48046875 358.05859375 C-3.60421875 357.41921875 -3.72796875 356.77984375 -3.85546875 356.12109375 C-4.16484375 355.10015625 -4.16484375 355.10015625 -4.48046875 354.05859375 C-6.13046875 353.39859375 -7.78046875 352.73859375 -9.48046875 352.05859375 C-9.48046875 356.67859375 -9.48046875 361.29859375 -9.48046875 366.05859375 C-7.83046875 366.38859375 -6.18046875 366.71859375 -4.48046875 367.05859375 C-1.90248386 367.74100152 -0.83463271 368.46832048 0.5390625 370.7578125 C2.20510391 374.47981991 2.74590042 376.32289396 1.51953125 380.30859375 C-0.59489003 383.21592301 -2.44446688 385.13332427 -5.48046875 387.05859375 C-6.80046875 387.05859375 -8.12046875 387.05859375 -9.48046875 387.05859375 C-9.48046875 389.03859375 -9.48046875 391.01859375 -9.48046875 393.05859375 C-10.80046875 393.38859375 -12.12046875 393.71859375 -13.48046875 394.05859375 C-13.48046875 391.74859375 -13.48046875 389.43859375 -13.48046875 387.05859375 C-14.20234375 387.14109375 -14.92421875 387.22359375 -15.66796875 387.30859375 C-19.31595669 386.98432816 -20.82615173 385.48539788 -23.48046875 383.05859375 C-22.82046875 381.73859375 -22.16046875 380.41859375 -21.48046875 379.05859375 C-20.82046875 379.05859375 -20.16046875 379.05859375 -19.48046875 379.05859375 C-18.48046875 380.05859375 -17.48046875 381.05859375 -16.48046875 382.05859375 C-15.49046875 382.38859375 -14.50046875 382.71859375 -13.48046875 383.05859375 C-13.48046875 378.43859375 -13.48046875 373.81859375 -13.48046875 369.05859375 C-15.46046875 368.72859375 -17.44046875 368.39859375 -19.48046875 368.05859375 C-21.73772886 366.16737582 -23.16693299 364.68566526 -24.48046875 362.05859375 C-24.52212638 360.05902764 -24.52212638 358.05815986 -24.48046875 356.05859375 C-24.48046875 355.39859375 -24.48046875 354.73859375 -24.48046875 354.05859375 C-25.36734375 354.49171875 -26.25421875 354.92484375 -27.16796875 355.37109375 C-33.38697325 358.0528 -40.6968148 360.05859375 -47.48046875 360.05859375 C-47.39505024 368.80564049 -47.29980559 377.55251482 -47.19294167 386.29932594 C-47.14357775 390.36341765 -47.09725805 394.42749052 -47.05859375 398.49169922 C-48.54532372 444.23117035 -48.54532372 444.23117035 -29.1484375 483.6796875 C-6.31938836 504.03531111 26.94130769 509.58970997 56.51098633 510.34838867 C88.43082301 511.19935674 120.33428025 514.09926627 143.55078125 538.1640625 C152.58762498 548.06246972 152.58762498 548.06246972 152.45703125 553.80859375 C151.42215684 556.29229234 150.79422989 557.59628748 148.51953125 559.05859375 C146.18359375 558.98046875 146.18359375 558.98046875 143.51953125 558.05859375 C141.30859375 555.58203125 141.30859375 555.58203125 139.14453125 552.43359375 C126.28815431 534.51018306 109.58876881 528.53450551 88.44140625 524.671875 C81.09052263 523.52238423 73.75614466 522.88867337 66.328125 522.5234375 C65.49740982 522.48046036 64.66669464 522.43748322 63.81080627 522.39320374 C61.19300188 522.2583385 58.57502878 522.12715051 55.95703125 521.99609375 C54.16730518 521.90454144 52.37759149 521.81274675 50.58789062 521.72070312 C46.23190877 521.49720124 41.87577176 521.2769939 37.51953125 521.05859375 C38.25413574 521.51459961 38.98874023 521.97060547 39.74560547 522.44042969 C53.62478462 531.14560504 63.07928605 541.93239366 72.63037109 555.05175781 C87.35083338 575.25353632 102.8766882 590.60201825 127.875 597.13671875 C130.57476972 598.0778497 131.81876584 598.79090654 133.51953125 601.05859375 C133.89453125 603.55859375 133.89453125 603.55859375 133.51953125 606.05859375 C132.23828125 607.71484375 132.23828125 607.71484375 130.51953125 609.05859375 C115.88190638 609.05859375 100.32385646 600.4620601 89.51953125 591.05859375 C89.73887329 592.0784436 89.73887329 592.0784436 89.96264648 593.11889648 C90.63199495 596.24367317 91.29455304 599.36985361 91.95703125 602.49609375 C92.18712891 603.56537109 92.41722656 604.63464844 92.65429688 605.73632812 C94.45762035 614.28251331 95.64177427 622.63153515 95.89453125 631.37109375 C95.94351562 632.54285156 95.9925 633.71460938 96.04296875 634.921875 C95.51953125 638.05859375 95.51953125 638.05859375 92.99609375 640.4765625 C91.77019531 641.25966797 91.77019531 641.25966797 90.51953125 642.05859375 C85.64453125 640.18359375 85.64453125 640.18359375 84.51953125 639.05859375 C84.35135911 637.64685276 84.24313943 636.22789227 84.16015625 634.80859375 C81.7554824 599.07202726 72.33635643 565.36288459 45.51953125 540.05859375 C29.68243801 526.35064098 10.1699457 517.43921845 -8.94238281 509.33032227 C-28.31876041 501.03054953 -42.54341339 490.83402707 -51.23046875 471.12109375 C-62.3346351 442.99540924 -58.7468006 409.33430993 -58.83056641 379.62792969 C-58.84396888 375.32075073 -58.87199692 371.0140383 -58.91259766 366.70703125 C-58.96235794 361.41964999 -58.98673366 356.13269417 -58.99379349 350.84508896 C-59.00041392 348.86232667 -59.01538719 346.87957042 -59.0396843 344.89694595 C-59.3686482 316.48760214 -49.84133612 289.04278084 -31.48046875 267.05859375 C-28.48046875 265.05859375 -28.48046875 265.05859375 -25.91796875 265.30859375 C-23.48046875 266.05859375 -23.48046875 266.05859375 -21.48046875 268.05859375 C-21.68615429 273.48354983 -22.98058482 276.24970058 -26.48046875 280.30859375 C-39.27262983 296.62471003 -46.74527526 318.26720608 -46.54296875 338.93359375 C-46.53620117 340.25230469 -46.53620117 340.25230469 -46.52929688 341.59765625 C-46.51759212 343.75133178 -46.49965944 345.90497192 -46.48046875 348.05859375 C-26.31494457 343.88721103 -9.22149807 335.30354557 6.51953125 322.05859375 C8.1785748 320.69509838 9.84452462 319.33993077 11.51953125 317.99609375 C12.17953125 317.44824219 12.83953125 316.90039062 13.51953125 316.3359375 C15.89181912 314.82082396 17.72270179 314.31243889 20.51953125 314.05859375 C24.08857858 316.23484212 26.04253234 318.74002748 28.24609375 322.23046875 C41.16777405 340.78061102 62.87966101 352.80611067 84.58203125 357.93359375 C109.15971287 362.22697537 135.11711407 357.9800141 155.96484375 343.90625 C160.29160103 340.77695919 164.47228049 337.5431614 168.51953125 334.05859375 C169.19628906 333.47851562 169.87304688 332.8984375 170.5703125 332.30078125 C187.71583385 316.4265711 196.48014518 292.67664225 197.49584961 269.70458984 C198.04685258 246.9640849 190.22043756 225.34965974 175.51953125 208.05859375 C174.89304687 207.24261719 174.2665625 206.42664063 173.62109375 205.5859375 C165.66174278 196.01400428 154.26524823 189.82578706 143.2265625 184.45703125 C140.51953125 183.05859375 140.51953125 183.05859375 138.51953125 181.05859375 C137.7529729 174.41508801 139.56278131 168.84551379 141.546875 162.5234375 C147.170471 142.49078828 142.49368578 121.06876698 132.92578125 103.05859375 C119.96992764 81.54698775 99.34282472 69.15937367 75.51953125 63.05859375 C63.49211083 60.93928398 51.96808879 61.41522203 40.22900391 64.63549805 C36.2196477 65.73291388 32.67669119 66.53988578 28.51953125 66.05859375 C24.85915321 63.08661732 24.0798519 59.10091672 22.76953125 54.74609375 C15.2344553 31.22631223 2.1877045 13.67424245 -19.83203125 1.90625 C-44.16989687 -10.61352231 -72.13304025 -14.14769991 -98.48046875 -5.94140625 C-122.88989675 2.64490576 -142.17830828 18.62187147 -153.48046875 42.05859375 C-156.06099589 47.81692564 -158.33440281 53.70547505 -160.375 59.67578125 C-161.75645867 63.70934506 -162.744453 65.91038469 -166.48046875 68.05859375 C-168.56640625 68.01953125 -168.56640625 68.01953125 -170.85546875 67.43359375 C-171.73332031 67.22734375 -172.61117187 67.02109375 -173.515625 66.80859375 C-174.98322266 66.43734375 -174.98322266 66.43734375 -176.48046875 66.05859375 C-199.30509996 60.45348951 -221.08616656 63.86657931 -241.29296875 75.87109375 C-261.0027188 88.72633914 -273.91246197 105.69168454 -279.09375 128.79296875 C-280.86244626 143.72862604 -279.70702762 157.71545221 -275.48046875 172.05859375 C-274.77286031 175.24502926 -274.48046875 177.76582442 -274.48046875 181.05859375 C-277.4808687 184.98043633 -281.47329566 186.63556868 -285.85546875 188.62109375 C-306.41171995 198.48320558 -321.04402817 215.13041261 -328.79296875 236.62109375 C-329.03563477 237.29293701 -329.27830078 237.96478027 -329.52832031 238.65698242 C-332.72266026 248.05136904 -333.85192313 257.41773295 -333.79296875 267.30859375 C-333.78450928 268.81292969 -333.78450928 268.81292969 -333.77587891 270.34765625 C-333.38417162 294.48613296 -323.54449865 316.94661621 -306.48046875 334.05859375 C-293.49552789 346.17214075 -278.54524487 353.58881676 -261.48046875 358.05859375 C-260.13662109 358.42791016 -260.13662109 358.42791016 -258.765625 358.8046875 C-234.19107017 364.43392992 -208.20748501 357.94530531 -187.23046875 344.80859375 C-176.76447133 337.93253964 -168.45473361 329.67802539 -161.22265625 319.4921875 C-158.16220805 315.21716681 -158.16220805 315.21716681 -155.34765625 314.5625 C-150.85436377 315.33994979 -148.06660518 318.14798545 -144.60546875 320.99609375 C-127.71621036 334.394042 -109.48021558 343.92131663 -88.48046875 349.05859375 C-89.93066589 320.90059932 -93.96239482 299.25604908 -112.12890625 277.04296875 C-114.49653005 274.03438602 -115.50006715 272.58775059 -115.35546875 268.68359375 C-114.48046875 266.05859375 -114.48046875 266.05859375 -113.48046875 265.05859375 C-110.25390625 264.6484375 -110.25390625 264.6484375 -106.48046875 265.05859375 C-104.26734944 266.90701593 -102.82046869 268.38264517 -101.10546875 270.62109375 C-100.40611206 271.49640747 -100.40611206 271.49640747 -99.69262695 272.3894043 C-87.02475847 288.64402336 -78.13869945 307.36609563 -78.22167969 328.23779297 C-78.21642273 329.87866631 -78.21642273 329.87866631 -78.21105957 331.5526886 C-78.20228482 335.1562848 -78.2080806 338.75968316 -78.21484375 342.36328125 C-78.21349491 344.88705482 -78.21155256 347.41082814 -78.20904541 349.93460083 C-78.20609907 355.22530835 -78.21017925 360.51594603 -78.21972656 365.80664062 C-78.23055331 371.87540532 -78.22712484 377.94403499 -78.21607375 384.01279628 C-78.20579942 389.89567306 -78.20702197 395.77849971 -78.21283722 401.66138077 C-78.21415932 404.14173528 -78.21257727 406.62209329 -78.20787811 409.1024437 C-78.16299684 439.47605304 -79.49580739 469.74162163 -101.35546875 493.05859375 C-111.62943686 503.02122949 -124.96471373 508.41180183 -138.05444336 513.61962891 C-160.05821088 522.43175751 -179.92598006 534.06836643 -197.48046875 550.05859375 C-198.61548828 551.08726562 -198.61548828 551.08726562 -199.7734375 552.13671875 C-221.58440814 572.89300028 -229.23481972 602.27228989 -230.07421875 631.44140625 C-230.48046875 634.05859375 -230.48046875 634.05859375 -231.85546875 635.90234375 C-234.18834728 637.56227655 -235.68547541 637.47784275 -238.48046875 637.05859375 C-240.11328125 635.9453125 -240.11328125 635.9453125 -241.48046875 634.05859375 C-242.86012438 623.87348898 -242.11895903 608.3355743 -237.48046875 599.05859375 C-239.14722656 599.89003906 -239.14722656 599.89003906 -240.84765625 600.73828125 C-258.62997285 609.46247414 -258.62997285 609.46247414 -264.48046875 609.05859375 C-266.7109375 607.765625 -266.7109375 607.765625 -268.48046875 606.05859375 C-268.98046875 603.05859375 -268.98046875 603.05859375 -268.48046875 600.05859375 C-265.29565004 596.95943031 -261.74854541 596.12510025 -257.54296875 594.93359375 C-241.72435424 590.00248841 -232.22709718 579.58927751 -224.04296875 565.55859375 C-220.18942049 558.95309605 -215.87115305 553.51532013 -210.48046875 548.05859375 C-209.45175712 546.95961216 -208.42450816 545.85926026 -207.3984375 544.7578125 C-198.94278311 535.83725086 -189.7182304 528.82592773 -179.48046875 522.05859375 C-227.77528029 522.93859915 -227.77528029 522.93859915 -269.42578125 544.734375 C-272.6143968 548.34126902 -275.04715818 552.36509626 -277.4609375 556.51953125 C-279.9202411 559.61149903 -281.62303485 560.36189918 -285.48046875 561.05859375 C-288.35546875 559.18359375 -288.35546875 559.18359375 -290.48046875 557.05859375 C-289.43641455 547.02979147 -281.05356373 538.29902904 -273.48046875 532.05859375 C-249.6658676 515.16721447 -223.11411156 512.07217209 -194.80737305 511.02954102 C-179.10767247 510.43385907 -163.34130765 509.1210151 -148.29296875 504.30859375 C-147.47256104 504.05255371 -146.65215332 503.79651367 -145.80688477 503.53271484 C-126.89418312 497.45735963 -109.02216589 488.69832091 -99.09375 470.51953125 C-87.97791163 447.35318943 -90.13075374 419.54634553 -89.87957764 394.4206543 C-89.83879809 390.5310086 -89.78805332 386.6414923 -89.73828125 382.75195312 C-89.64288625 375.18759045 -89.55806993 367.6231622 -89.48046875 360.05859375 C-90.08964142 359.99614975 -90.69881409 359.93370575 -91.32644653 359.86936951 C-92.53214798 359.74151817 -92.53214798 359.74151817 -93.76220703 359.61108398 C-94.5570047 359.52801498 -95.35180237 359.44494598 -96.17068481 359.35935974 C-113.52734925 357.09928065 -130.51620796 345.97465009 -144.48046875 336.05859375 C-145.45371094 335.38183594 -146.42695313 334.70507812 -147.4296875 334.0078125 C-149.78673651 332.36741159 -152.13670721 330.71789396 -154.48046875 329.05859375 C-154.71636719 329.61417969 -154.95226562 330.16976563 -155.1953125 330.7421875 C-157.32913189 334.58825102 -160.48690956 337.52944678 -163.484375 340.71875 C-165.66042996 342.97326568 -165.66042996 342.97326568 -166.48046875 346.05859375 C-165.55234375 346.32671875 -164.62421875 346.59484375 -163.66796875 346.87109375 C-159.07162897 348.58345563 -159.07162897 348.58345563 -157.48046875 351.05859375 C-157.29296875 354.24609375 -157.29296875 354.24609375 -157.48046875 357.05859375 C-158.80046875 356.72859375 -160.12046875 356.39859375 -161.48046875 356.05859375 C-161.81046875 354.73859375 -162.14046875 353.41859375 -162.48046875 352.05859375 C-163.80046875 351.72859375 -165.12046875 351.39859375 -166.48046875 351.05859375 C-166.46790555 355.46199396 -166.33287215 359.73058422 -165.48046875 364.05859375 C-162.76302831 366.20908531 -162.76302831 366.20908531 -159.48046875 367.05859375 C-157.04296875 369.30859375 -157.04296875 369.30859375 -155.48046875 372.05859375 C-155.48046875 376.12599646 -156.08217601 378.41848042 -158.23046875 381.87109375 C-160.48046875 384.05859375 -160.48046875 384.05859375 -163.10546875 384.99609375 C-165.82341419 385.87784381 -165.82341419 385.87784381 -166.66796875 389.12109375 C-166.93609375 390.09046875 -167.20421875 391.05984375 -167.48046875 392.05859375 C-168.14046875 392.38859375 -168.80046875 392.71859375 -169.48046875 393.05859375 C-170.14046875 392.72859375 -170.80046875 392.39859375 -171.48046875 392.05859375 C-171.48046875 390.07859375 -171.48046875 388.09859375 -171.48046875 386.05859375 C-172.40859375 385.76984375 -173.33671875 385.48109375 -174.29296875 385.18359375 C-177.48046875 384.05859375 -177.48046875 384.05859375 -180.48046875 382.05859375 C-180.48046875 381.39859375 -180.48046875 380.73859375 -180.48046875 380.05859375 C-178.73046875 379.43359375 -178.73046875 379.43359375 -176.48046875 379.05859375 C-175.16046875 379.71859375 -173.84046875 380.37859375 -172.48046875 381.05859375 C-172.15046875 376.43859375 -171.82046875 371.81859375 -171.48046875 367.05859375 C-173.46046875 366.72859375 -175.44046875 366.39859375 -177.48046875 366.05859375 C-180.54429837 363.82282619 -181.36343474 362.66641552 -182.0859375 358.9140625 C-182.21613281 357.97175781 -182.34632813 357.02945312 -182.48046875 356.05859375 C-183.35445312 356.56648438 -184.2284375 357.074375 -185.12890625 357.59765625 C-200.86769885 366.50775957 -216.60202807 370.79901256 -234.48046875 373.05859375 C-234.15046875 375.69859375 -233.82046875 378.33859375 -233.48046875 381.05859375 C-232.28421875 381.45046875 -231.08796875 381.84234375 -229.85546875 382.24609375 C-224.90962928 384.10516816 -221.34302468 386.60340639 -218.10546875 390.87109375 C-217.12916467 394.28815803 -217.36232056 397.51414818 -217.48046875 401.05859375 C-219.79296875 401.05859375 -219.79296875 401.05859375 -222.48046875 400.05859375 C-223.26953125 398.3515625 -223.26953125 398.3515625 -223.91796875 396.24609375 C-225.02053263 392.73049005 -225.42836605 392.10092719 -228.48046875 389.62109375 C-231.41309097 387.99340712 -231.41309097 387.99340712 -234.48046875 387.05859375 C-234.48046875 395.63859375 -234.48046875 404.21859375 -234.48046875 413.05859375 C-232.50046875 413.38859375 -230.52046875 413.71859375 -228.48046875 414.05859375 C-223.11461972 416.45508504 -218.94053825 419.62594028 -216.48046875 425.05859375 C-215.57061487 430.21443239 -215.87958514 434.71008865 -218.35546875 439.37109375 C-221.5950248 443.96046482 -226.27293353 446.22271693 -231.48046875 448.05859375 C-232.47046875 448.05859375 -233.46046875 448.05859375 -234.48046875 448.05859375 C-234.48046875 450.69859375 -234.48046875 453.33859375 -234.48046875 456.05859375 C-235.80046875 456.71859375 -237.12046875 457.37859375 -238.48046875 458.05859375 C-240.48046875 456.05859375 -240.48046875 456.05859375 -240.67578125 454.11328125 C-240.61067708 452.09505208 -240.54557292 450.07682292 -240.48046875 448.05859375 C-241.06054688 447.90003906 -241.640625 447.74148438 -242.23828125 447.578125 C-248.49069077 445.71065615 -252.81982507 443.56580587 -256.85546875 438.24609375 C-257.83177283 434.82902947 -257.59861694 431.60303932 -257.48046875 428.05859375 C-256.16046875 427.72859375 -254.84046875 427.39859375 -253.48046875 427.05859375 C-253.11695313 427.96351563 -253.11695313 427.96351563 -252.74609375 428.88671875 C-250.1465811 435.19774375 -250.1465811 435.19774375 -245.48046875 440.05859375 C-243.83046875 440.71859375 -242.18046875 441.37859375 -240.48046875 442.05859375 C-240.97546875 429.68359375 -240.97546875 429.68359375 -241.48046875 417.05859375 C-244.78046875 415.40859375 -248.08046875 413.75859375 -251.48046875 412.05859375 C-255.61834322 407.83627287 -257.34193827 405.17118358 -257.73046875 399.24609375 C-257.63257131 394.37792106 -256.32673033 391.05274709 -252.96875 387.42578125 C-249.03918744 383.7699635 -245.72186211 382.12826586 -240.48046875 381.05859375 C-240.48046875 378.41859375 -240.48046875 375.77859375 -240.48046875 373.05859375 C-242.22457031 372.92904297 -242.22457031 372.92904297 -244.00390625 372.796875 C-262.08994253 371.28382971 -277.65537916 366.99859829 -293.48046875 358.05859375 C-294.47691406 357.50300781 -295.47335937 356.94742187 -296.5 356.375 C-304.05075847 351.87047027 -310.18231665 346.12079202 -316.48046875 340.05859375 C-317.12757813 339.48625 -317.7746875 338.91390625 -318.44140625 338.32421875 C-334.16225348 324.00570061 -344.36429579 299.18216355 -345.6574707 278.18457031 C-345.95530148 263.67510917 -345.95489252 249.96530855 -341.48046875 236.05859375 C-341.16698486 235.07826172 -341.16698486 235.07826172 -340.84716797 234.078125 C-336.06452717 219.71945511 -327.98438403 207.8854142 -317.48046875 197.05859375 C-316.88105469 196.38570312 -316.28164063 195.7128125 -315.6640625 195.01953125 C-308.22540512 186.9542915 -298.34804659 180.74948844 -288.48046875 176.05859375 C-288.66222656 175.1459375 -288.66222656 175.1459375 -288.84765625 174.21484375 C-294.25822694 145.91339708 -293.9578527 117.81752802 -277.48046875 93.05859375 C-261.35123183 70.77593845 -236.87314506 56.03426991 -209.79736328 51.36767578 C-198.73390784 49.89177119 -187.65766829 50.38463393 -176.9140625 53.40234375 C-174.41780066 54.188775 -174.41780066 54.188775 -171.48046875 54.05859375 C-171.14015625 53.06601563 -170.79984375 52.0734375 -170.44921875 51.05078125 C-165.54167686 37.13515826 -159.21084368 25.27452211 -149.48046875 14.05859375 C-148.46726562 12.82882813 -148.46726562 12.82882813 -147.43359375 11.57421875 C-111.1798212 -31.03057965 -43.1881866 -33.21670124 0 0 Z M-177.48046875 354.05859375 C-178.2306207 357.10167666 -178.2306207 357.10167666 -177.48046875 360.05859375 C-175.71268755 362.01017861 -175.71268755 362.01017861 -173.48046875 363.05859375 C-172.82046875 363.05859375 -172.16046875 363.05859375 -171.48046875 363.05859375 C-171.48046875 358.76859375 -171.48046875 354.47859375 -171.48046875 350.05859375 C-174.02091609 350.05859375 -175.81803772 352.43878915 -177.48046875 354.05859375 Z M-18.73046875 354.24609375 C-20.74301036 356.88782437 -20.74301036 356.88782437 -20.35546875 359.74609375 C-19.60502993 362.2081044 -19.60502993 362.2081044 -17.48046875 364.05859375 C-16.16046875 364.05859375 -14.84046875 364.05859375 -13.48046875 364.05859375 C-13.48046875 360.09859375 -13.48046875 356.13859375 -13.48046875 352.05859375 C-16.64498755 351.71005455 -16.64498755 351.71005455 -18.73046875 354.24609375 Z M-166.48046875 369.05859375 C-166.48046875 373.01859375 -166.48046875 376.97859375 -166.48046875 381.05859375 C-161.89627245 379.60570389 -161.89627245 379.60570389 -160.48046875 378.05859375 C-160.06344753 375.14282465 -160.06344753 375.14282465 -160.48046875 372.05859375 C-162.52087651 370.01818599 -163.56372119 369.05859375 -166.48046875 369.05859375 Z M-9.48046875 371.05859375 C-9.48046875 375.01859375 -9.48046875 378.97859375 -9.48046875 383.05859375 C-4.6774284 381.51816627 -4.6774284 381.51816627 -2.48046875 379.05859375 C-2.11084462 376.17552557 -2.06042935 374.66765088 -3.73046875 372.24609375 C-5.67964168 370.68425947 -5.67964168 370.68425947 -9.48046875 371.05859375 Z M94.51953125 390.05859375 C92.11035047 394.04879942 91.39051896 396.10712811 92.01953125 400.74609375 C94.58366549 406.40855686 97.83861029 407.78622537 103.51953125 410.05859375 C103.51953125 402.13859375 103.51953125 394.21859375 103.51953125 386.05859375 C99.35940104 386.05859375 97.72536357 387.45385499 94.51953125 390.05859375 Z M-249.48046875 391.05859375 C-251.88964953 395.04879942 -252.60948104 397.10712811 -251.98046875 401.74609375 C-249.41633451 407.40855686 -246.16138971 408.78622537 -240.48046875 411.05859375 C-240.48046875 403.13859375 -240.48046875 395.21859375 -240.48046875 387.05859375 C-244.64059896 387.05859375 -246.27463643 388.45385499 -249.48046875 391.05859375 Z M109.51953125 417.05859375 C109.51953125 424.97859375 109.51953125 432.89859375 109.51953125 441.05859375 C115.94979657 440.00095657 115.94979657 440.00095657 120.51953125 436.05859375 C122.3411597 432.99494591 122.51953125 431.14583601 122.51953125 427.55859375 C121.21697708 422.99965415 119.43670873 421.64540906 115.51953125 419.05859375 C113.53953125 418.39859375 111.55953125 417.73859375 109.51953125 417.05859375 Z M-234.48046875 418.05859375 C-234.48046875 425.97859375 -234.48046875 433.89859375 -234.48046875 442.05859375 C-228.05020343 441.00095657 -228.05020343 441.00095657 -223.48046875 437.05859375 C-221.6588403 433.99494591 -221.48046875 432.14583601 -221.48046875 428.55859375 C-222.78302292 423.99965415 -224.56329127 422.64540906 -228.48046875 420.05859375 C-230.46046875 419.39859375 -232.44046875 418.73859375 -234.48046875 418.05859375 Z " fill="#0A0A0A" transform="translate(582.48046875,152.94140625)"/>
<path d="M0 0 C3.125 0.25 3.125 0.25 4.6875 1.48046875 C6.32446183 3.49553317 7.2181696 5.4316469 8.25 7.8125 C11.21855866 13.92790913 15.3510813 18.46797618 20.125 23.25 C20.72957031 23.86617187 21.33414063 24.48234375 21.95703125 25.1171875 C28.75803291 31.54776423 37.23221535 35.88043455 45.30761719 40.49804688 C54.12973097 45.54480919 62.40775765 50.57246203 70.125 57.25 C70.73214844 57.7140625 71.33929687 58.178125 71.96484375 58.65625 C93.3561294 75.34242293 99.43286981 105.82945101 102.79296875 131.2265625 C104.55180083 144.36164392 106.48716235 156.20277641 115.8671875 166.25 C117.125 168.25 117.125 168.25 116.9453125 170.875 C116.125 173.25 116.125 173.25 114.125 175.25 C111.4375 175.875 111.4375 175.875 108.125 175.25 C94.66128239 164.66055919 92.26675538 145.59211962 90.3125 129.8125 C87.26834184 107.28811251 82.14558548 84.45577022 65.125 68.25 C64.50109375 67.62996094 63.8771875 67.00992188 63.234375 66.37109375 C56.25845603 59.82017824 47.75972558 55.30411264 39.484375 50.61328125 C18.4443554 38.66273497 18.4443554 38.66273497 9.96606445 30.11450195 C9.16517143 29.30853325 9.16517143 29.30853325 8.34809875 28.48628235 C7.94447617 28.07830917 7.54085358 27.670336 7.125 27.25 C7.02305018 34.47236996 6.95330461 41.6945523 6.90527344 48.91748047 C6.88523676 51.37132706 6.85799968 53.82512637 6.82324219 56.27880859 C6.77437502 59.81880403 6.7519508 63.35816468 6.734375 66.8984375 C6.71372986 67.98426117 6.69308472 69.07008484 6.67181396 70.18881226 C6.66867128 81.0102189 10.32095515 89.86361914 17.125 98.25 C18.94371943 100.01978528 20.83975527 101.63729606 22.7890625 103.26171875 C39.2736009 117.29287268 50.85113884 135.24000198 53.125 157.25 C53.36648462 161.16765056 53.4629191 165.07544627 53.5 169 C53.51393799 169.97767334 53.52787598 170.95534668 53.54223633 171.96264648 C53.53603271 172.87731689 53.5298291 173.7919873 53.5234375 174.734375 C53.52005371 175.55647461 53.51666992 176.37857422 53.51318359 177.22558594 C53.38508301 177.89364258 53.25698242 178.56169922 53.125 179.25 C50.125 181.25 50.125 181.25 47.5625 181 C45.125 180.25 45.125 180.25 43.125 178.25 C42.88956879 175.66621695 42.75693554 173.15117026 42.6875 170.5625 C41.88501668 152.87793755 38.11510826 135.74997374 26.125 122.25 C25.485625 121.38375 24.84625 120.5175 24.1875 119.625 C21.80828846 116.88530186 19.19678878 114.61524999 16.41796875 112.2890625 C14.36118607 110.46003258 12.42255298 108.57259778 10.48168945 106.62255859 C9.85269241 105.99127045 9.22369537 105.3599823 8.57563782 104.70956421 C8.09692734 104.22790802 7.61821686 103.74625183 7.125 103.25 C7.12135437 104.56909363 7.11770874 105.88818726 7.11395264 107.24725342 C7.07704286 119.66658261 7.01931411 132.08566293 6.94109726 144.5048027 C6.90155511 150.88993115 6.8693996 157.2749203 6.85400391 163.66015625 C6.83888187 169.82002124 6.80451525 175.97950341 6.75669098 182.1391983 C6.74183122 184.49153571 6.73395637 186.84392776 6.73311615 189.19631195 C6.73075862 192.48643516 6.70377574 195.7754899 6.67089844 199.06542969 C6.67844398 200.53062546 6.67844398 200.53062546 6.68614197 202.02542114 C6.58420277 208.60066549 6.58420277 208.60066549 4.25494385 211.89434814 C2.125 213.25 2.125 213.25 -0.5 213.125 C-2.875 212.25 -2.875 212.25 -4.875 210.25 C-5.1534729 207.61776733 -5.1534729 207.61776733 -5.19384766 204.23974609 C-5.21371735 202.97858978 -5.23358704 201.71743347 -5.25405884 200.4180603 C-5.26593614 199.03652115 -5.27759895 197.65498014 -5.2890625 196.2734375 C-5.3077671 194.86380876 -5.32733998 193.45419129 -5.3477478 192.04458618 C-5.39915012 188.33254638 -5.43873219 184.62047023 -5.47589111 180.90826416 C-5.51588022 177.12104241 -5.56699571 173.33397285 -5.6171875 169.546875 C-5.71404257 162.11468762 -5.79841637 154.68242683 -5.875 147.25 C-6.6580249 148.03536133 -7.4410498 148.82072266 -8.24780273 149.62988281 C-13.82259197 155.18964846 -19.61701523 160.09876628 -26.0625 164.625 C-34.13673617 170.61390545 -37.85187438 177.43770572 -40.13671875 187.12109375 C-40.98352347 189.56293805 -41.80521902 190.7114461 -43.875 192.25 C-49.30978261 191.81521739 -49.30978261 191.81521739 -50.875 190.25 C-51.81693572 179.88870705 -47.15556391 171.24602268 -40.875 163.25 C-35.82977474 157.32969285 -30.00558141 152.79379109 -23.75 148.25 C-15.62745124 142.32705502 -8.94195478 136.15562495 -5.875 126.25 C-5.47071609 122.94993355 -5.49464595 119.68866133 -5.53442383 116.36743164 C-5.53398575 115.40080597 -5.53354767 114.4341803 -5.53309631 113.43826294 C-5.53517648 110.26201768 -5.55847138 107.08630863 -5.58203125 103.91015625 C-5.58762994 101.70055937 -5.59189875 99.49095875 -5.59489441 97.28135681 C-5.60632162 91.47970204 -5.63577071 85.67827435 -5.66900635 79.87670898 C-5.69975293 73.95104036 -5.71340956 68.02533486 -5.72851562 62.09960938 C-5.76064229 50.48297342 -5.81181309 38.86650563 -5.875 27.25 C-6.35212433 27.73065918 -6.82924866 28.21131836 -7.3208313 28.70654297 C-7.94859467 29.33705566 -8.57635803 29.96756836 -9.22314453 30.6171875 C-10.15539352 31.55473877 -10.15539352 31.55473877 -11.10647583 32.51123047 C-18.76847616 40.04432103 -28.12731928 45.26599651 -37.3125 50.6875 C-59.03674662 63.5512744 -74.46944696 77.47309346 -81.8359375 102.3046875 C-82.09193726 103.16398865 -82.34793701 104.02328979 -82.61169434 104.90863037 C-85.87754552 116.25808747 -87.84003563 127.87375394 -89.90673828 139.48828125 C-95.63587239 171.42493388 -95.63587239 171.42493388 -102.56445312 177.67675781 C-103.32693359 178.19592773 -104.08941406 178.71509766 -104.875 179.25 C-108.04397296 178.33266572 -109.52199657 177.88028709 -111.16796875 174.94140625 C-111.875 172.25 -111.875 172.25 -111.15234375 170.1640625 C-110.71019531 169.40867187 -110.26804687 168.65328125 -109.8125 167.875 C-104.33952952 156.76590815 -102.89155931 143.79606626 -100.66015625 131.71484375 C-95.04170191 101.31479139 -87.83213625 70.24953993 -60.75756836 51.57250977 C-54.73364792 47.54067818 -48.53085834 43.86372206 -42.25 40.25 C-25.35483891 30.50705999 -12.35254582 19.14704117 -3.875 1.25 C-2.875 0.25 -2.875 0.25 0 0 Z " fill="#0A0A0A" transform="translate(513.875,643.75)"/>
</svg>
