<?xml version="1.0" encoding="UTF-8"?>
<svg version="1.1" xmlns="http://www.w3.org/2000/svg" width="1024" height="1024">
<path d="M0 0 C14.4992193 -0.06260432 28.99839261 -0.11068306 43.49771118 -0.14324951 C48.57423112 -0.1550399 53.65066464 -0.17332056 58.72714233 -0.19708252 C64.55066002 -0.22386006 70.37402361 -0.23661327 76.19760132 -0.23728561 C78.27418295 -0.23986368 80.35076566 -0.24749897 82.42730713 -0.26066971 C85.19416871 -0.27745581 87.96040526 -0.27604023 90.72729492 -0.26953125 C91.52799502 -0.27874918 92.32869513 -0.28796711 93.15365887 -0.29746437 C98.46285084 -0.25678267 98.46285084 -0.25678267 100.6403389 1.30708122 C102.34388176 3.63749212 102.3258999 5.05709163 102.34254456 7.93173218 C102.35533951 8.9299147 102.36813446 9.92809723 102.38131714 10.95652771 C102.37995758 12.05062454 102.37859802 13.14472137 102.37719727 14.27197266 C102.3872731 15.42505417 102.39734894 16.57813568 102.4077301 17.76615906 C102.43629681 21.58932104 102.4420912 25.41208941 102.4453125 29.23535156 C102.45251341 31.21715185 102.45971917 33.19895221 102.46769375 35.18074954 C102.49212367 41.41414869 102.49944688 47.64741786 102.49731445 53.88085938 C102.4955125 60.3084794 102.52715892 66.73534374 102.57454544 73.16277254 C102.61379196 78.68307145 102.62986533 84.20312359 102.62794822 89.72356093 C102.62718372 93.01989861 102.63846843 96.31541369 102.66748238 99.61164474 C102.69682285 103.28942594 102.68827558 106.96525489 102.67016602 110.64306641 C102.6954538 112.27813896 102.6954538 112.27813896 102.72125244 113.94624329 C102.63142783 121.1118316 102.63142783 121.1118316 100.67118645 123.88188553 C98.10241238 126.14497908 96.05794188 127.06674443 92.69140625 127.64941406 C88.54507935 127.02746503 85.18401992 125.75894156 81.37109375 124.05957031 C73.29990811 120.82850082 64.09109384 121.35627608 55.94140625 124.08691406 C45.2810785 128.93091042 37.5680029 136.18163766 33.06640625 147.08691406 C29.96508 157.67227909 30.76350095 170.36019477 35.94140625 180.08691406 C41.16870762 189.03211368 49.04589198 195.16692625 58.94140625 198.08691406 C68.49646953 200.32320547 79.22830647 199.5244197 88.046875 195.00878906 C90.14697561 193.98688443 91.61688879 193.75731479 93.94140625 193.71191406 C94.60140625 193.68355469 95.26140625 193.65519531 95.94140625 193.62597656 C99.03881847 194.33983328 100.02889072 195.54250692 101.94140625 198.08691406 C102.57346759 201.14157934 102.52153861 204.16010597 102.55078125 207.27050781 C102.56143742 208.16852899 102.57209358 209.06655016 102.58307266 209.9917841 C102.8467203 232.77068131 102.97765637 255.5453 102.95857239 278.32542801 C102.95594375 281.81627614 102.95485848 285.30712479 102.95361328 288.79797363 C102.95098848 295.56095496 102.94676378 302.32393436 102.94140625 309.08691406 C103.60162875 309.0823051 104.26185125 309.07769613 104.9420805 309.0729475 C121.00829575 308.96251576 137.07437896 308.87978085 153.14087963 308.8278532 C160.91054605 308.80207372 168.6799591 308.76692849 176.44946289 308.7097168 C183.22154783 308.6598735 189.99344928 308.62762117 196.76571256 308.61647159 C200.35153342 308.60995423 203.93682935 308.59464318 207.52248192 308.55826378 C211.5258854 308.51797559 215.52837689 308.51696519 219.53198242 308.51928711 C220.72025131 308.50131073 221.9085202 308.48333435 223.13279724 308.46481323 C231.16122676 308.51533234 231.16122676 308.51533234 235.15693665 311.44270325 C237.25829664 314.55647935 237.89441596 316.32769084 237.94140625 320.08691406 C236.98046875 323.46191406 236.98046875 323.46191406 235.56640625 327.08691406 C231.45518155 338.4789031 230.52197318 349.59320862 234.94140625 361.08691406 C236.70399135 364.60716084 238.7043365 367.85093883 240.94140625 371.08691406 C241.53953125 371.99441406 242.13765625 372.90191406 242.75390625 373.83691406 C249.6516997 380.93178733 258.79796866 385.17898127 268.66015625 386.07910156 C280.22611273 386.118711 291.35293525 382.75910483 299.87890625 374.71191406 C307.69968124 366.03484984 311.94140625 355.82829991 311.94140625 344.08691406 C311.29229352 336.61197524 309.36653422 329.84890312 306.6484375 322.87597656 C305.52433336 318.4416652 306.23323633 315.46932172 308.29769897 311.4393158 C312.47200718 307.72496741 316.69947523 308.41307474 322.10400391 308.48754883 C323.24254318 308.48360611 324.38108246 308.47966339 325.55412292 308.4756012 C329.32168401 308.46888198 333.08803714 308.49807198 336.85546875 308.52832031 C339.46812708 308.53256896 342.08078919 308.53489882 344.69345093 308.53538513 C350.16948858 308.54001172 355.64517829 308.56364638 361.12109375 308.59985352 C367.45594971 308.64162797 373.7904926 308.65917082 380.12547839 308.66247326 C386.21773875 308.66572324 392.30988835 308.68081801 398.40211105 308.70246696 C400.9961622 308.7113697 403.59022176 308.71808968 406.18428421 308.72262764 C409.80219952 308.73163116 413.41977394 308.7539871 417.03759766 308.78051758 C418.11815933 308.78118225 419.19872101 308.78184692 420.31202698 308.78253174 C421.29345169 308.79250687 422.2748764 308.80248199 423.28604126 308.8127594 C424.14180063 308.81740991 424.99756001 308.82206041 425.87925148 308.82685184 C427.94140625 309.08691406 427.94140625 309.08691406 429.94140625 311.08691406 C430.19440591 313.42760867 430.19440591 313.42760867 430.19867516 316.42922497 C430.20512405 317.56999373 430.21157294 318.71076249 430.21821725 319.88609999 C430.21512005 321.1501645 430.21202285 322.41422902 430.20883179 323.71659851 C430.21256539 325.06469615 430.21716574 326.41279162 430.22256243 327.76088363 C430.23484558 331.47854814 430.23452571 335.19612302 430.23217368 338.91380322 C430.23176681 342.91887826 430.24279284 346.92392406 430.25228882 350.9289856 C430.26893299 358.78378764 430.27440006 366.63855969 430.27551357 374.49337789 C430.27646321 380.88241326 430.28056929 387.27143872 430.28691483 393.66047096 C430.30454287 411.7787216 430.3137522 429.89694851 430.31225388 448.01520779 C430.31213401 449.48168262 430.31213401 449.48168262 430.31201172 450.9777832 C430.31192996 451.9566298 430.3118482 452.9354764 430.31176396 453.94398502 C430.31095243 469.77998848 430.33005239 485.61589649 430.35828845 501.45187237 C430.38705891 517.71628339 430.4008262 533.98064796 430.3991009 550.24508506 C430.39843804 559.37430933 430.40388357 568.5034338 430.425457 577.63263512 C430.44372443 585.41289469 430.44797133 593.19300931 430.43443815 600.97328111 C430.4279341 604.93870152 430.4276972 608.90384436 430.44514465 612.8692379 C430.46099719 616.50989359 430.45788952 620.15005447 430.44057639 623.79069898 C430.43610675 625.71016903 430.45106851 627.62965519 430.46705568 629.54906386 C430.34361537 645.31423091 425.92119341 659.43769847 414.94140625 671.08691406 C404.12856625 679.94942748 392.84710407 685.19030416 378.72014427 685.22557926 C377.48387128 685.23105363 376.24759828 685.23652799 374.97386247 685.24216825 C373.60874489 685.24324461 372.24362723 685.24422935 370.87850952 685.24513245 C369.42010955 685.24970292 367.96171088 685.25470427 366.50331372 685.26009816 C362.49106223 685.27367743 358.47881924 685.28110246 354.46655078 685.28752583 C350.1230455 685.29554617 345.77955754 685.30923284 341.43606472 685.32220078 C332.8722444 685.34686537 324.30841962 685.36623092 315.74458239 685.38392522 C305.62567561 685.40506451 295.50678565 685.43178395 285.3878927 685.45863601 C261.40842707 685.52197966 237.42894256 685.5753279 213.44945 685.62726738 C202.24156494 685.65160887 191.03368282 685.67719412 179.8258008 685.70289041 C132.43975157 685.81145796 85.053691 685.91211679 37.66760647 686.00398803 C11.51413219 686.05469731 -14.63932335 686.10985086 -40.79277098 686.17281856 C-65.02739853 686.23115996 -89.2620114 686.28114706 -113.49669647 686.3099184 C-115.75949607 686.31262753 -118.02229565 686.31534948 -120.28509521 686.31808472 C-121.93692244 686.32007776 -121.93692244 686.32007776 -123.6221199 686.32211107 C-131.2790458 686.33209881 -138.93593139 686.34968346 -146.59283447 686.37063599 C-155.66811208 686.39541371 -164.74333004 686.41025916 -173.81864303 686.41075271 C-178.26476787 686.4112296 -182.71074964 686.4160532 -187.15683937 686.434515 C-191.11219217 686.45085228 -195.06729871 686.45327339 -199.02267337 686.44449508 C-200.42329181 686.44375821 -201.82392489 686.44796313 -203.22450757 686.45799839 C-220.92829646 686.57792581 -236.71161752 683.09692263 -249.8046875 670.57128906 C-266.05390817 652.66053629 -265.35978495 630.92052778 -265.31929016 608.21313477 C-265.32231432 605.80199471 -265.32620513 603.39085562 -265.33088273 600.97971821 C-265.33900151 595.75762308 -265.34097302 590.53556376 -265.33737946 585.31346512 C-265.33204972 577.54773992 -265.33819041 569.78205239 -265.34646239 562.01633129 C-265.36166913 547.33786752 -265.36341097 532.65942106 -265.36093936 517.98095107 C-265.35910403 506.64514568 -265.36087133 495.30934594 -265.3651638 483.97354126 C-265.36576621 482.34278594 -265.36636741 480.71203061 -265.36696741 479.08127528 C-265.36787469 476.62366751 -265.36878336 474.16605974 -265.36969976 471.70845198 C-265.37812401 448.87219831 -265.38246854 426.03594677 -265.37829304 403.19969177 C-265.37813666 402.3395699 -265.37798029 401.47944802 -265.37781917 400.59326185 C-265.37701343 396.2341789 -265.37616766 391.87509596 -265.37530587 387.51601303 C-265.37513478 386.65033932 -265.37496369 385.78466561 -265.37478742 384.89275937 C-265.37444076 383.14216011 -265.37409223 381.39156086 -265.37374183 379.6409616 C-265.36838355 352.39604494 -265.37632026 325.15116063 -265.39477539 297.90625 C-265.41550227 267.27197321 -265.42621696 236.63771647 -265.4221999 206.00343227 C-265.42180458 202.73571714 -265.42144303 199.468002 -265.42110252 196.20028687 C-265.42101179 195.39573584 -265.42092106 194.59118481 -265.42082758 193.76225344 C-265.41966292 181.63109549 -265.42629974 169.49995782 -265.43691444 157.36880493 C-265.44897594 143.57038154 -265.45051429 129.77200276 -265.43812428 115.97357869 C-265.43150592 108.2581365 -265.43310311 100.54280106 -265.44671279 92.82736746 C-265.4559544 87.0579354 -265.44941545 81.28860536 -265.43686499 75.51918352 C-265.43421634 73.19165504 -265.43658984 70.86411405 -265.44460086 68.53659785 C-265.50906772 48.40303291 -264.9667609 30.70289696 -250.37890625 15.34472656 C-236.46557704 1.80616716 -220.06555134 0.79068096 -201.53833008 0.76806641 C-199.77850236 0.75875449 -198.01867897 0.74859392 -196.25886059 0.73765945 C-191.47372351 0.71039933 -186.68861567 0.69522924 -181.9034214 0.68224764 C-176.79813016 0.66632565 -171.69289653 0.63924575 -166.58764648 0.61361694 C-156.74422127 0.56606361 -146.90078517 0.5291193 -137.05730021 0.49649131 C-129.14864974 0.47018261 -121.24001927 0.44046102 -113.33139038 0.4083252 C-89.79769751 0.31299089 -66.26399857 0.22793806 -42.73022211 0.15607929 C-28.48677165 0.1125202 -14.24338388 0.0615744 0 0 Z M-147.38381481 10.09573078 C-160.08606905 10.13027513 -172.78771714 10.18871768 -185.48954582 10.29971504 C-188.83892845 10.32859392 -192.18817672 10.34895219 -195.5376606 10.36118889 C-199.34654206 10.37566444 -203.15477703 10.40890626 -206.96337056 10.45762134 C-208.9481899 10.4787309 -210.93318086 10.48126688 -212.9181118 10.48287392 C-225.13349569 10.68360183 -236.35108408 14.16688923 -245.03125 23.12207031 C-251.03667257 30.35152806 -255.18613465 39.21037455 -255.18164158 48.71770859 C-255.18363263 49.64877261 -255.18562368 50.57983663 -255.18767506 51.53911471 C-255.18476222 52.55856465 -255.18184938 53.57801458 -255.17884827 54.62835693 C-255.17970269 55.71391601 -255.18055712 56.79947508 -255.18143743 57.91792989 C-255.18308897 61.56769903 -255.17757614 65.21742256 -255.17211914 68.8671875 C-255.17183717 71.47858174 -255.17199519 74.08997605 -255.17256165 76.70137024 C-255.17308615 82.32983628 -255.16994698 87.95829072 -255.16432381 93.58675385 C-255.15619891 101.72457933 -255.15359257 109.86239921 -255.15233582 118.00022832 C-255.15014686 131.20311763 -255.14349099 144.40600076 -255.1340332 157.60888672 C-255.12485506 170.43473276 -255.11777619 183.26057712 -255.11352539 196.08642578 C-255.11326267 196.87692872 -255.11299994 197.66743165 -255.11272926 198.48188922 C-255.11142423 202.44758555 -255.11016052 206.4132819 -255.10891736 210.37897825 C-255.0985496 243.28162802 -255.08093551 276.18427021 -255.05859375 309.08691406 C-254.3407584 309.08838062 -253.62292305 309.08984718 -252.88333511 309.09135818 C-235.42364672 309.12839615 -217.96417086 309.18737066 -200.50464249 309.2708168 C-192.06135994 309.31064064 -183.61817105 309.34301607 -175.17480469 309.35791016 C-167.81628305 309.37090941 -160.4579672 309.39782964 -153.09956145 309.44152713 C-149.20262787 309.46418109 -145.30594846 309.47982241 -141.40894318 309.47879791 C-137.74146822 309.4780536 -134.07455596 309.49591123 -130.40722656 309.52808189 C-128.41847639 309.54067238 -126.42963195 309.53349905 -124.44085693 309.52577209 C-123.25737671 309.53968491 -122.07389648 309.55359772 -120.85455322 309.56793213 C-119.82583225 309.5716193 -118.79711128 309.57530647 -117.73721695 309.57910538 C-114.34456721 310.22227796 -113.17441553 311.40970601 -111.05859375 314.08691406 C-109.45268049 319.11412079 -110.55448991 322.26976389 -112.43359375 327.08691406 C-116.54669256 338.48409617 -117.47058127 349.58707657 -113.05859375 361.08691406 C-107.63376945 372.06091393 -100.25038299 380.71740442 -88.49609375 384.89941406 C-76.25631333 388.43862768 -65.02139126 386.95983303 -53.78515625 380.85253906 C-44.09397381 374.57687364 -37.76034599 365.24794574 -35.05859375 354.08691406 C-32.87492892 343.13249626 -35.35692773 333.12369685 -39.3515625 322.87597656 C-40.40006406 318.73989859 -39.94579837 315.64768329 -37.83717632 311.93819809 C-36.05859375 310.08691406 -36.05859375 310.08691406 -33.67480946 309.57910538 C-32.72628448 309.57541821 -31.77775949 309.57173103 -30.80049133 309.56793213 C-29.16616653 309.54706291 -29.16616653 309.54706291 -27.49882507 309.52577209 C-26.30336563 309.53080246 -25.10790619 309.53583282 -23.8762207 309.54101562 C-22.61757202 309.53067795 -21.35892334 309.52034027 -20.06213379 309.50968933 C-16.60985505 309.4817853 -13.15793417 309.47842558 -9.70555902 309.47940922 C-6.09799158 309.47628384 -2.49058622 309.45067355 1.11689758 309.4274292 C7.94853559 309.38683668 14.78007808 309.36652093 21.61181813 309.35345531 C30.84326559 309.33463149 40.07453977 309.28455574 49.30587101 309.23621178 C63.85104046 309.16086504 78.39600075 309.12733481 92.94140625 309.08691406 C92.94140625 274.43691406 92.94140625 239.78691406 92.94140625 204.08691406 C89.31140625 205.07691406 85.68140625 206.06691406 81.94140625 207.08691406 C68.68706329 210.4004998 55.31337182 208.56381691 43.62890625 201.64941406 C42.38932663 200.8104303 41.15923162 199.95717423 39.94140625 199.08691406 C38.93078125 198.38566406 37.92015625 197.68441406 36.87890625 196.96191406 C28.06485837 189.30065719 22.52996706 176.26887414 21.703125 164.77441406 C21.45682591 152.53723827 23.83873626 142.55552365 30.57421875 132.20800781 C31.9863317 130.14458269 31.9863317 130.14458269 32.87109375 127.93457031 C34.22756429 125.59292591 35.49958562 125.16861778 37.94140625 124.08691406 C39.10244858 123.16831677 40.24757709 122.22936674 41.37890625 121.27441406 C52.75204247 112.81213538 65.16832143 111.44223345 78.94140625 113.08691406 C82.1422244 113.8914347 84.95532749 114.83412897 87.9453125 116.21191406 C90.03609866 117.28765251 90.03609866 117.28765251 92.94140625 117.08691406 C92.94140625 81.77691406 92.94140625 46.46691406 92.94140625 10.08691406 C52.74707128 10.05763196 52.74707128 10.05763196 12.55273438 10.03808594 C7.0430501 10.03613005 1.53336585 10.03411013 -3.97631836 10.03198242 C-5.01118552 10.0315868 -5.01118552 10.0315868 -6.06695908 10.03118318 C-15.65416432 10.02743725 -25.2413653 10.02130027 -34.82856779 10.01317544 C-72.34715421 9.98147483 -109.86533279 9.99625171 -147.38381481 10.09573078 Z M-255.05859375 318.08691406 C-255.12729676 358.64874858 -255.18014127 399.2105755 -255.21178974 439.7724566 C-255.21554175 444.56379929 -255.21942473 449.35514186 -255.22338867 454.14648438 C-255.2241756 455.10033338 -255.22496253 456.05418238 -255.22577331 457.0369359 C-255.23881858 472.47091213 -255.26246758 487.90485476 -255.29005214 503.33881107 C-255.31813079 519.18164077 -255.33477521 535.02445291 -255.34085923 550.86730647 C-255.34497057 560.63906491 -255.35794458 570.41072835 -255.38234315 580.18245754 C-255.39823071 586.8880591 -255.40298728 593.59361172 -255.39909788 600.29923072 C-255.39718103 604.16499112 -255.40006906 608.03058578 -255.41621017 611.89631653 C-255.43361727 616.09612574 -255.4275315 620.29558507 -255.4193573 624.49542236 C-255.42809582 625.70557172 -255.43683435 626.91572108 -255.44583768 628.16254163 C-255.3722287 642.19361591 -252.07373399 654.844157 -242.05859375 665.08691406 C-233.46382726 671.90463142 -223.6299223 676.21440956 -212.58635235 676.20996189 C-210.94641545 676.21294846 -210.94641545 676.21294846 -209.27334851 676.21599537 C-208.0778278 676.21308253 -206.88230708 676.21016969 -205.65055847 676.20716858 C-203.73917311 676.20845022 -203.73917311 676.20845022 -201.7891739 676.20975775 C-198.25456983 676.21199369 -194.71999605 676.20799371 -191.18539584 676.20297968 C-187.37290551 676.19866248 -183.56041689 676.20012251 -179.7479248 676.20088196 C-173.1432829 676.20140639 -166.53865088 676.19826804 -159.93401146 676.19264412 C-150.38480393 676.18451815 -140.83560119 676.18191277 -131.28639058 676.18065613 C-115.79354479 676.17846734 -100.30070426 676.17181192 -84.80786133 676.16235352 C-69.75773139 676.15317494 -54.70760288 676.14609628 -39.6574707 676.1418457 C-38.7298287 676.14158298 -37.80218669 676.14132026 -36.84643432 676.14104957 C-32.19274134 676.13974454 -27.53904835 676.13848083 -22.88535535 676.13723767 C15.72356887 676.12687044 54.33248721 676.1092568 92.94140625 676.08691406 C92.94637147 675.07338851 92.94637147 675.07338851 92.951437 674.0393877 C93.032662 657.59751042 93.12475281 641.15573355 93.22893333 624.7139864 C93.27905233 616.76287573 93.32549533 608.81177533 93.36328125 600.8605957 C93.39622528 593.93024332 93.43606983 586.99997082 93.48419631 580.06970662 C93.50943736 576.40028334 93.53122568 572.73091289 93.54475021 569.06142616 C93.55997856 564.96474353 93.59061269 560.86831489 93.62255859 556.77172852 C93.62579887 554.94724686 93.62579887 554.94724686 93.62910461 553.08590698 C93.6402681 551.96836533 93.65143158 550.85082367 93.66293335 549.69941711 C93.66846411 548.73061269 93.67399487 547.76180826 93.67969322 546.76364613 C93.96390444 543.85680844 94.66609908 541.70671404 95.94140625 539.08691406 C97.62890625 537.71191406 97.62890625 537.71191406 99.94140625 537.08691406 C104.42641964 537.55049577 108.61590586 538.49881654 112.94067383 539.70068359 C125.17027591 543.00142609 134.88804081 542.03478199 146.15625 535.82910156 C155.78341105 529.80706253 160.84513582 522.59579831 164.94140625 512.08691406 C167.34414321 500.77578393 165.93453461 490.28394071 160.28125 480.09472656 C153.84556703 470.55352922 145.21670878 463.75073299 133.94140625 461.08691406 C133.09578125 460.86003906 132.25015625 460.63316406 131.37890625 460.39941406 C124.82153796 459.55872582 119.77270154 460.28686279 113.44140625 462.08691406 C103.15854469 464.97284323 103.15854469 464.97284323 97.94140625 464.08691406 C94.36282379 460.52737937 93.44021945 458.12872115 93.42242432 453.13273621 C93.4015551 451.34283264 93.4015551 451.34283264 93.38026428 449.51676941 C93.38529465 448.21629166 93.39032501 446.9158139 93.39550781 445.57592773 C93.38676928 444.18603357 93.37628251 442.79614947 93.36418152 441.40628052 C93.33633459 437.64008764 93.33291653 433.87422322 93.33390141 430.10794234 C93.33077115 426.16940575 93.30515063 422.23101685 93.28192139 418.29255676 C93.24136638 410.83766411 93.22102189 403.38285893 93.20794749 395.92787296 C93.18910732 385.85175899 93.13902871 375.77580335 93.09070396 365.69979572 C93.01540974 349.82884338 92.9818372 333.95808216 92.94140625 318.08691406 C52.02140625 318.08691406 11.10140625 318.08691406 -31.05859375 318.08691406 C-28.9907501 325.67871683 -28.9907501 325.67871683 -26.89453125 333.26269531 C-23.86880315 347.10469444 -26.04675734 360.82067172 -33.37109375 372.96191406 C-41.61647198 384.99807 -52.61457139 392.31341247 -67.05859375 395.08691406 C-80.83789044 396.63083141 -93.61763936 394.50763489 -104.84765625 385.93066406 C-115.47997898 377.06413344 -122.64461605 366.06747058 -124.30224609 352.02246094 C-125.24639468 340.26953013 -122.96773249 330.1162698 -119.05859375 319.08691406 C-120.08662074 317.8365202 -120.08662074 317.8365202 -122.28998661 317.96386623 C-123.28460124 317.96478803 -124.27921587 317.96570982 -125.30397034 317.96665955 C-127.00989853 317.96459755 -127.00989853 317.96459755 -128.75028992 317.9624939 C-130.00904434 317.96608917 -131.26779877 317.96968445 -132.56469727 317.97338867 C-133.88157532 317.97324265 -135.19845337 317.97309662 -136.55523682 317.97294617 C-140.17697643 317.9726582 -143.79868321 317.97855482 -147.42041516 317.98552012 C-151.20141259 317.99175376 -154.9824107 317.99235747 -158.76341248 317.99354553 C-165.92803665 317.99665882 -173.09264565 318.00487217 -180.25726312 318.01489502 C-188.41190537 318.02605624 -196.56654832 318.03156663 -204.72119629 318.03659046 C-221.50033768 318.04705479 -238.27946378 318.06465417 -255.05859375 318.08691406 Z M102.94140625 318.08691406 C102.94140625 363.29691406 102.94140625 408.50691406 102.94140625 455.08691406 C107.54413691 454.47714598 107.54413691 454.47714598 112.08227539 453.54150391 C123.87361909 450.6583152 138.45691334 452.06747409 148.94140625 458.08691406 C160.76434002 465.53166767 169.19442897 476.59411275 173.31640625 489.96191406 C176.12172753 504.07618678 173.01426983 517.17080298 165.2109375 529.06347656 C163.78719487 531.1556729 163.78719487 531.1556729 162.94140625 534.08691406 C161.63011007 534.79594477 160.29352923 535.45923128 158.94140625 536.08691406 C157.89454572 536.9952587 156.87411174 537.93475196 155.87890625 538.89941406 C147.60006351 546.13678192 135.12158569 550.42556882 124.16479492 550.25366211 C120.01077823 549.94212226 115.9960496 549.00870702 111.94140625 548.08691406 C111.07128906 547.89613281 110.20117188 547.70535156 109.3046875 547.50878906 C107.18194885 547.04225309 105.06143144 546.56562943 102.94140625 546.08691406 C101.67268073 548.6243651 101.83410042 550.34618481 101.8591156 553.1867981 C101.86967484 554.80643967 101.86967484 554.80643967 101.88044739 556.45880127 C101.8933934 557.64850525 101.90633942 558.83820923 101.91967773 560.06396484 C101.92928528 561.31271393 101.93889282 562.56146301 101.9487915 563.84805298 C101.97617249 567.2776301 102.00806819 570.70711029 102.0419414 574.13662577 C102.0762642 577.7187291 102.10485683 581.30087796 102.13404846 584.88302612 C102.19022151 591.66869859 102.25157321 598.45431402 102.3147698 605.23992431 C102.38645652 612.96409493 102.45239395 620.68831124 102.51784027 628.41253686 C102.65261619 644.30405563 102.79463874 660.19550125 102.94140625 676.08691406 C138.40747642 676.15563416 173.87353489 676.20847023 209.33965798 676.24011005 C213.5301497 676.24386201 217.72064129 676.24774499 221.91113281 676.25170898 C222.74535722 676.25249592 223.57958163 676.25328285 224.43908557 676.25409362 C237.93310646 676.26713485 251.42708886 676.2907816 264.92108694 676.31837245 C278.77509451 676.3464624 292.62908198 676.3630979 306.48311687 676.36917955 C315.0265027 676.37328855 323.56977975 676.38624978 332.11313209 676.41066346 C337.97774381 676.426565 343.84229957 676.43130446 349.70693126 676.42741819 C353.08667925 676.42550347 356.46608532 676.43002323 359.8458252 676.44453049 C363.52018941 676.45952564 367.19409368 676.45584166 370.86846924 676.44767761 C371.92298066 676.45641614 372.97749209 676.46515466 374.06395841 676.47415799 C387.30054449 676.39503407 398.48588874 673.06628088 408.265625 663.91113281 C419.06805027 652.349942 421.41426689 639.0071725 421.3021698 623.53338623 C421.30473307 622.22047993 421.30729635 620.90757363 421.3099373 619.55488229 C421.3165884 615.94479057 421.30472472 612.3349701 421.28960311 608.72491288 C421.27656853 604.8191575 421.28103742 600.91341569 421.28330994 597.00764465 C421.28487801 590.25194465 421.27551776 583.49633202 421.25859642 576.74065399 C421.23414748 566.9732614 421.22639514 557.20591077 421.22263245 547.4384909 C421.21607718 531.5890156 421.1961412 515.73958679 421.16772461 499.89013672 C421.14016004 484.49983959 421.11893821 469.10955513 421.10620117 453.71923828 C421.105413 452.76953937 421.10462483 451.81984047 421.10381278 450.8413628 C421.09989748 446.07669177 421.0961064 441.31202064 421.09237707 436.54734945 C421.06130998 397.06049635 421.00602248 357.57372931 420.94140625 318.08691406 C386.29140625 318.08691406 351.64140625 318.08691406 315.94140625 318.08691406 C318.0092499 325.67871683 318.0092499 325.67871683 320.10546875 333.26269531 C323.13119685 347.10469444 320.95324266 360.82067172 313.62890625 372.96191406 C305.38352802 384.99807 294.38542861 392.31341247 279.94140625 395.08691406 C266.16210956 396.63083141 253.38236064 394.50763489 242.15234375 385.93066406 C231.52002102 377.06413344 224.35538395 366.06747058 222.69775391 352.02246094 C221.75360532 340.26953013 224.03226751 330.1162698 227.94140625 319.08691406 C226.9335298 317.85781149 226.9335298 317.85781149 224.88180447 317.96386623 C223.5115592 317.96524892 223.5115592 317.96524892 222.1136322 317.96665955 C221.07108497 317.96528205 220.02853773 317.96390455 218.95439816 317.96248531 C217.79631932 317.96608342 216.63824049 317.96968153 215.44506836 317.97338867 C214.2158368 317.97326814 212.98660524 317.9731476 211.72012424 317.97302341 C208.38444959 317.97364846 205.04883647 317.97860751 201.71317291 317.98563385 C198.58714392 317.991314 195.46111655 317.99159616 192.33508301 317.99230957 C183.18301934 317.99756423 174.03096235 318.01152529 164.87890625 318.02441406 C144.43953125 318.04503906 124.00015625 318.06566406 102.94140625 318.08691406 Z " fill="#0B0B0B" transform="translate(411.05859375,181.9130859375)"/>
<path d="M0 0 C10.31754793 -0.78230802 19.32477761 1.57455672 29.12109375 4.36328125 C30.79698756 4.8280121 32.47326808 5.29135033 34.14990234 5.75340271 C38.64801007 6.99695467 43.14072508 8.25902996 47.63270187 9.52452087 C52.36597132 10.85428414 57.10419272 12.16615545 61.84204102 13.47949219 C69.558411 15.62037964 77.27225273 17.77013372 84.984375 19.92626953 C94.80599797 22.67125894 104.63483255 25.3892601 114.46875 28.08984375 C115.18586781 28.28679525 115.90298561 28.48374676 116.64183426 28.68666649 C119.48665747 29.46789652 122.33150562 30.2490355 125.17643166 31.02989101 C130.03454728 32.36362525 134.89140531 33.70186418 139.74755859 35.04272461 C152.9363795 38.68383069 166.12832963 42.31237954 179.33097839 45.90307617 C184.9273188 47.42515486 190.5222418 48.95241422 196.11687183 50.4807663 C200.66309434 51.72219175 205.21109618 52.95678693 209.76061249 54.18608284 C212.56959349 54.94690607 215.37670206 55.71446656 218.18336105 56.48380661 C220.08125292 57.00189826 221.98133566 57.51194389 223.88150024 58.02163696 C240.73960388 62.66185372 255.71883039 68.74527557 264.984375 84.33984375 C268.56269599 90.95533391 271.3637501 97.44179001 272 105 C272.17402344 106.59521484 272.17402344 106.59521484 272.3515625 108.22265625 C272.86136914 117.20091757 271.22297355 124.94914757 268.890625 133.56640625 C268.41759697 135.34936096 268.41759697 135.34936096 267.93501282 137.16833496 C265.11454033 147.73347653 262.15321954 158.25746116 259.12133789 168.76364136 C258.13553038 172.18010868 257.15423341 175.5978478 256.17382812 179.01586914 C255.05860831 182.903276 253.9431679 186.79061741 252.82614136 190.67750549 C247.7688928 208.27521302 242.73471716 225.87952218 237.7020874 243.48428345 C236.56886894 247.44828207 235.43509663 251.41212163 234.30084229 255.37582397 C228.77929088 274.67220049 223.26467929 293.96990198 217.87890625 313.3046875 C217.4965422 314.67589114 217.11416734 316.04709176 216.73178101 317.41828918 C215.02187271 323.55350192 213.32018452 329.69087224 211.63085938 335.83178711 C211.0470182 337.93607489 210.46304339 340.04032561 209.87890625 342.14453125 C209.5010775 343.53458878 209.5010775 343.53458878 209.11561584 344.95272827 C206.04823145 355.95176855 206.04823145 355.95176855 203 359 C196.66852218 358.54419409 190.86688342 357.3364616 184.7800293 355.59155273 C183.47096367 355.2255748 183.47096367 355.2255748 182.13545227 354.85220337 C180.25710596 354.32606269 178.37966257 353.79668964 176.50305748 353.26437187 C173.53316835 352.42194962 170.56098057 351.58812295 167.58808899 350.75636292 C162.35527434 349.29082373 157.12459836 347.81781228 151.89459229 346.34228516 C143.50695396 343.9759639 135.11764308 341.615704 126.72544289 339.26561165 C123.79710559 338.44352804 120.87065359 337.61496603 117.94425964 336.78599548 C116.15391783 336.28340075 114.36350132 335.78107197 112.57299805 335.27905273 C111.35342911 334.93075661 111.35342911 334.93075661 110.10922241 334.57542419 C106.57948236 333.59192628 103.6922908 333 100 333 C99.13516448 335.49841371 99.00146755 337.0085649 99.453125 339.64453125 C101.87223955 354.48752694 99.75375419 369.49463687 91 382 C82.27763294 393.35292221 71.72409062 399.42621825 57.875 402.75 C44.98518635 403.87085336 32.71207228 401.62711948 22 394 C10.86424916 384.51895912 2.46022885 372.89433429 1 358 C0.18135269 344.46236893 3.25500852 331.03322409 12.16796875 320.41796875 C13.56622415 318.92567139 14.99444633 317.46045384 16.4609375 316.03515625 C18.38033707 313.49706697 18.1258356 312.1040512 18 309 C17.41883926 308.89310349 16.83767853 308.78620697 16.23890686 308.67607117 C9.35252512 307.35987156 2.62777141 305.63230633 -4.12890625 303.76953125 C-5.27624741 303.45602219 -6.42358856 303.14251312 -7.60569763 302.81950378 C-11.258844 301.82034748 -14.91066103 300.81642285 -18.5625 299.8125 C-20.95499728 299.15790756 -23.34757483 298.50360843 -25.74023438 297.84960938 C-30.48316434 296.55277804 -35.22303229 295.24542906 -39.96142578 293.93212891 C-44.68986065 292.62452959 -49.4272382 291.36083739 -54.17529297 290.12646484 C-55.31820297 289.82302658 -56.46111298 289.51958832 -57.63865662 289.20695496 C-59.79497476 288.63469007 -61.95474196 288.07520785 -64.11830139 287.53096008 C-74.21762425 284.81625493 -74.21762425 284.81625493 -77 280 C-76.9701161 276.50131325 -75.97327268 273.34194386 -75 270 C-74.39992688 267.6814112 -73.79991514 265.36280651 -73.19995117 263.04418945 C-72.48465045 260.39947253 -71.76585987 257.75591324 -71.04296875 255.11328125 C-70.65406999 253.68381826 -70.26534566 252.25430781 -69.87678528 250.82475281 C-69.06455254 247.83966354 -68.24982088 244.85527052 -67.43334961 241.87133789 C-66.39957938 238.09225127 -65.37266641 234.31134163 -64.34775829 230.52984333 C-63.54683788 227.57831707 -62.74186146 224.62790781 -61.93578529 221.67778587 C-61.55623056 220.28662328 -61.17793242 218.89511709 -60.80104637 217.50322914 C-58.19215447 207.87892491 -55.2268402 198.43241215 -52 189 C-51.33163717 187.00056619 -50.66439845 185.00075464 -50 183 C-50.97710938 183.15855469 -51.95421875 183.31710938 -52.9609375 183.48046875 C-67.05619821 185.47334464 -81.15241165 184.81367012 -93.3125 176.75 C-94.90052896 175.53259692 -96.46431985 174.28280658 -98 173 C-99.08087891 172.10474609 -99.08087891 172.10474609 -100.18359375 171.19140625 C-109.02150792 163.15542002 -114.17012325 151.18396938 -115.234375 139.40625 C-115.89579779 125.44288003 -108.84356595 113.1412538 -101 102 C-100.34 102 -99.68 102 -99 102 C-98.92652344 101.4121875 -98.85304688 100.824375 -98.77734375 100.21875 C-96.94366867 94.98494375 -90.04136278 91.9824426 -85.2890625 89.6953125 C-73.04059873 84.65615473 -59.65512763 84.23986848 -47.1171875 88.5859375 C-41.63382307 91.07337851 -36.84027974 94.45046153 -32 98 C-30.515 98.99 -30.515 98.99 -29 100 C-22.17493524 80.84896707 -16.91193323 61.37920797 -11.75958252 41.73059082 C-10.07189718 35.29962827 -8.3719374 28.8719087 -6.66970444 22.44478416 C-6.08269761 20.22266517 -5.50016404 17.99941077 -4.91824341 15.7759552 C-4.56036698 14.41871899 -4.20237182 13.06151409 -3.84423828 11.7043457 C-3.53527618 10.5265303 -3.22631409 9.3487149 -2.9079895 8.13520813 C-2.09530741 5.32908814 -1.14205358 2.68621511 0 0 Z M7 10 C1.81790528 27.53938399 -3.09470162 45.1410089 -7.875 62.79370117 C-12.25539132 78.95250521 -16.70398093 95.11194279 -22 111 C-26.49383088 110.47746153 -29.20111555 109.3843492 -33 107 C-46.76024927 98.68923854 -59.11142087 92.28107609 -75.5625 96.125 C-86.33133798 99.37539679 -94.741222 106.72619245 -100.3125 116.375 C-105.63860556 126.79996394 -106.51046806 137.30909187 -103.4375 148.625 C-100.12543636 158.39906194 -93.83193686 165.68154816 -85 171 C-73.76509499 176.32594375 -62.69042167 175.56229635 -50.65625 173.92578125 C-47.31765207 174.0190656 -45.6569984 175.03064027 -43 177 C-39.61096669 183.77806662 -43.25812392 192.50479023 -45.21875 199.23046875 C-45.55273804 200.40747849 -45.88672607 201.58448822 -46.23083496 202.79716492 C-47.12694557 205.9489204 -48.03198007 209.09793787 -48.940979 212.24599457 C-49.87371225 215.48541969 -50.79397075 218.72837874 -51.71484375 221.97119141 C-53.15541253 227.04026163 -54.60102368 232.10786569 -56.05078125 237.17431641 C-58.40222275 245.39826471 -60.71635792 253.63199809 -63 261.875 C-63.31904297 263.01090576 -63.63808594 264.14681152 -63.96679688 265.31713867 C-64.38541992 266.82691284 -64.38541992 266.82691284 -64.8125 268.3671875 C-65.04582031 269.20362793 -65.27914062 270.04006836 -65.51953125 270.90185547 C-66.1116095 273.12864173 -66.1116095 273.12864173 -66 276 C-61.90887584 277.1801709 -57.81684037 278.35712784 -53.72402954 279.53143311 C-52.19852642 279.96914103 -50.67311552 280.4071705 -49.14779663 280.84552002 C-38.94819692 283.77404296 -28.73178944 286.63240416 -18.4921875 289.41796875 C-16.36791133 289.99777126 -14.24364373 290.57760517 -12.11938477 291.1574707 C-8.98009142 292.01404322 -5.84012839 292.86757842 -2.69747925 293.71176147 C0.25972528 294.50619595 3.21399427 295.31083899 6.16796875 296.1171875 C7.04377594 296.34919357 7.91958313 296.58119965 8.82192993 296.82023621 C21.64333554 300.34875248 21.64333554 300.34875248 26 305.25 C27.3584338 308.98569296 27.85182351 312.13188343 27 316 C25.34015654 319.26082722 23.21379323 322.09500058 21 325 C12.41406021 336.32112314 9.64278196 345.6195886 11 360 C13.48759997 371.11690158 19.80888131 380.3533153 29 387 C38.55842689 392.84836827 48.69782713 394.40534647 59.74609375 392.53515625 C69.9096204 389.8555369 79.18589403 383.21330167 84.6953125 374.23828125 C90.16390136 363.92193366 91.87277231 354.33193099 90.6640625 342.79296875 C89.47482209 331.23090916 89.47482209 331.23090916 93 326 C97.06594522 322.90213698 100.09265546 322.82603145 105.0501709 323.46026611 C111.89081978 324.71190812 118.57181758 326.72144695 125.265625 328.5859375 C126.94779296 329.04881846 128.63014928 329.51101538 130.31268311 329.9725647 C134.72824625 331.1854165 139.14164931 332.40593773 143.55450439 333.62860107 C150.60053104 335.57968818 157.64953687 337.51995933 164.69902802 339.45848465 C167.13949604 340.13090584 169.57887606 340.80715898 172.01812744 341.48397827 C180.63891877 343.86695358 189.26048526 346.08632981 198 348 C204.11631014 327.22724799 210.02404915 306.39597547 215.93391418 285.56380463 C217.3196103 280.6799014 218.70626214 275.79626951 220.09277344 270.91259766 C222.87676663 261.10592213 225.65953187 251.29889851 228.44189453 241.49176025 C229.89722298 236.36211508 231.35286168 231.23255799 232.80859375 226.10302734 C237.1645684 210.75359354 241.51835742 195.40354349 245.8677063 180.05223083 C247.92586739 172.78823231 249.98619198 165.52485284 252.04858398 158.26205444 C253.28937382 153.89136213 254.52862689 149.52023522 255.76745605 145.14898682 C256.33066731 143.16291553 256.89453028 141.17702893 257.45910645 139.19134521 C258.2166916 136.52649808 258.97192978 133.86099695 259.7265625 131.1953125 C259.94533051 130.42801819 260.16409851 129.66072388 260.38949585 128.87017822 C264.47219097 114.41098475 263.69455002 102.09445436 256.3125 88.6875 C248.9248858 77.24321099 238.21247055 72.34792915 225.54296875 68.80859375 C224.50391891 68.51214462 223.46486908 68.2156955 222.39433289 67.91026306 C208.84381317 64.06608638 195.24729065 60.38502554 181.65343475 56.69769669 C175.01401808 54.89613624 168.37582357 53.09007303 161.73758698 51.28417015 C159.91849326 50.7893035 158.09937571 50.29452444 156.28023529 49.79982948 C140.95278061 45.63109891 125.63327854 41.43365331 110.3164441 37.22609335 C105.65448833 35.94547934 100.9923055 34.66569494 96.32997131 33.38645935 C95.67010981 33.20540372 95.0102483 33.02434809 94.33039099 32.83780593 C91.66311125 32.10595983 88.99582549 31.37413571 86.3285166 30.64239585 C78.37862963 28.46141806 70.42951206 26.27768317 62.48158211 24.08958399 C56.82803976 22.53345658 51.17313433 20.98232346 45.51775932 19.43286896 C43.17351029 18.78970866 40.82971388 18.14489599 38.48640633 17.4983139 C35.24781828 16.60492725 32.00766477 15.71744705 28.76708984 14.83129883 C27.36656608 14.44266962 27.36656608 14.44266962 25.93774891 14.04618931 C19.67568106 12.34265259 13.40065847 11.06680451 7 10 Z " fill="#0C0D0C" transform="translate(646,61)"/>
<path d="M0 0 C10.60572509 8.19839384 18.59551102 19.3780018 20.4609375 32.90234375 C21.82753776 48.64861565 19.31050378 62.11379398 9.4609375 74.90234375 C6.07569424 78.71074242 2.70584829 82.07240322 -1.5390625 84.90234375 C-0.70503906 85.13308594 0.12898438 85.36382813 0.98828125 85.6015625 C9.34066083 88.02212611 17.09710473 90.51853319 23.3984375 96.71484375 C27.12229889 99.37474474 29.38557361 99.74532809 33.890625 99.5234375 C37.78533725 98.58231402 40.13450549 96.37907388 43.11328125 93.7890625 C49.72535106 88.47520274 57.11653204 86.31272435 65.4609375 85.90234375 C65.4609375 85.24234375 65.4609375 84.58234375 65.4609375 83.90234375 C64.88085938 83.64453125 64.30078125 83.38671875 63.703125 83.12109375 C54.25908444 77.98774766 48.57045143 67.61110309 45.0859375 57.83984375 C41.07097362 43.51755664 42.99613742 29.45014913 49.6484375 16.21484375 C57.16378933 3.76540075 67.9884788 -4.60045488 82.0078125 -8.4375 C96.19885346 -11.15049312 108.98644939 -8.34868448 121.14453125 -0.7578125 C132.00401901 7.02512561 139.73163691 17.69710498 142.4609375 30.90234375 C144.79929068 45.94629425 142.42870325 59.71994134 133.79296875 72.33984375 C130.4426256 76.83655156 127.01522444 80.6190206 122.4609375 83.90234375 C121.8009375 83.90234375 121.1409375 83.90234375 120.4609375 83.90234375 C120.4609375 84.56234375 120.4609375 85.22234375 120.4609375 85.90234375 C121.6159375 85.90234375 122.7709375 85.90234375 123.9609375 85.90234375 C137.05262426 87.43039552 148.37514779 95.99342417 156.4609375 105.90234375 C166.95499677 119.80642227 167.05523495 134.66905632 166.95703125 151.3203125 C166.95718645 153.47170562 166.9586789 155.62309901 166.96144104 157.77449036 C166.96281769 162.25514269 166.9503791 166.735472 166.92749023 171.21606445 C166.8989183 176.96752252 166.90190372 182.71845231 166.91458035 188.46995068 C166.92151639 192.89905854 166.91377521 197.32804325 166.90132332 201.75713539 C166.89680186 203.87949464 166.89647806 206.00186706 166.90038872 208.12422752 C166.90328532 211.07552941 166.88687542 214.02608695 166.86499023 216.97729492 C166.87174271 218.29640617 166.87174271 218.29640617 166.87863159 219.64216614 C166.84861755 222.06681824 166.84861755 222.06681824 166.4609375 225.90234375 C163.4609375 227.90234375 163.4609375 227.90234375 160.8359375 227.65234375 C159.6603125 227.28109375 159.6603125 227.28109375 158.4609375 226.90234375 C156.82753769 223.63554413 157.31681208 220.02651224 157.3190918 216.4362793 C157.31388016 215.12117119 157.31388016 215.12117119 157.30856323 213.77949524 C157.30119774 211.86973902 157.2958566 209.9599742 157.29227257 208.05020714 C157.28510591 205.01776088 157.26943361 201.98547634 157.25093079 198.95307922 C157.19850059 190.328688 157.15057666 181.7043808 157.13500977 173.07983398 C157.12486632 167.805908 157.09537199 162.5323825 157.05368996 157.25861549 C157.041455 155.2570176 157.03624483 153.2553629 157.03848839 151.25372887 C157.05198824 135.2640718 155.88419813 120.50879405 144.71875 107.94140625 C133.7833517 97.55050911 120.67402057 94.59863136 106.1015625 94.56640625 C105.03532654 94.55974945 103.96909058 94.55309265 102.87054443 94.54623413 C100.62497672 94.53615779 98.37937936 94.53141555 96.13378906 94.53173828 C92.73451298 94.52737402 89.33654629 94.49102343 85.9375 94.453125 C71.84019306 94.37932118 61.15877881 95.40939343 48.4609375 101.90234375 C51.1209402 103.95725575 53.83470395 105.7318613 56.7109375 107.46484375 C66.59825387 114.08349138 71.58611957 123.72504035 75.0703125 134.84765625 C77.29862896 146.56860082 74.92088317 157.79146886 68.5859375 167.77734375 C65.88527268 171.55965239 62.86262437 174.74363451 59.4609375 177.90234375 C60.1621875 178.24265625 60.8634375 178.58296875 61.5859375 178.93359375 C72.7270941 184.62527158 79.4595689 191.21246064 83.54296875 203.03515625 C84.64540257 207.67945193 84.79170377 211.9619593 84.7734375 216.71484375 C84.78955078 217.57271484 84.80566406 218.43058594 84.82226562 219.31445312 C84.82291016 220.13365234 84.82355469 220.95285156 84.82421875 221.796875 C84.82719971 222.53784424 84.83018066 223.27881348 84.83325195 224.04223633 C84.4609375 225.90234375 84.4609375 225.90234375 81.4609375 227.90234375 C78.50017459 227.5434634 77.61435729 227.05576354 75.4609375 224.90234375 C75.23118873 222.57577389 75.10116693 220.23893741 75.0234375 217.90234375 C74.5191339 208.24803846 73.27249989 200.77000452 66.4296875 193.59375 C61.0676908 188.98711395 54.93163529 186.75354274 47.8984375 186.77734375 C47.13402344 186.77476562 46.36960937 186.7721875 45.58203125 186.76953125 C43.27095255 186.82326991 43.27095255 186.82326991 40.4609375 187.90234375 C37.63801313 187.99919484 34.84560388 188.04156121 32.0234375 188.02734375 C31.25966797 188.03121094 30.49589844 188.03507813 29.70898438 188.0390625 C28.96841797 188.03777344 28.22785156 188.03648437 27.46484375 188.03515625 C26.79267822 188.03402832 26.1205127 188.03290039 25.42797852 188.03173828 C23.3340301 187.89399562 21.48892425 187.42797864 19.4609375 186.90234375 C11.39150213 186.19449854 4.34621322 188.42238053 -2.4765625 192.77734375 C-10.07365824 200.60465451 -10.92798567 208.92607225 -11.66210938 219.265625 C-11.73365234 220.08933594 -11.80519531 220.91304687 -11.87890625 221.76171875 C-11.93425537 222.50905273 -11.98960449 223.25638672 -12.04663086 224.02636719 C-12.5390625 225.90234375 -12.5390625 225.90234375 -15.5390625 227.90234375 C-17.6015625 227.71484375 -17.6015625 227.71484375 -19.5390625 226.90234375 C-22.14114138 222.99922543 -21.69501911 219.89673291 -21.4140625 215.40234375 C-21.36403076 214.59297363 -21.31399902 213.78360352 -21.26245117 212.94970703 C-20.49754862 203.01093434 -17.7052501 194.11598955 -10.5390625 186.90234375 C-5.90946111 183.245208 -0.88568387 180.37001515 4.4609375 177.90234375 C3.5946875 177.28359375 2.7284375 176.66484375 1.8359375 176.02734375 C-6.06698834 169.39186828 -10.98575927 158.11301704 -11.88671875 148 C-12.35820274 134.87909674 -9.35357928 124.12455414 -0.875 113.89453125 C2.98427021 109.82379418 7.36418091 106.30668327 12.4609375 103.90234375 C13.4509375 103.90234375 14.4409375 103.90234375 15.4609375 103.90234375 C12.92657452 100.91354327 10.18313926 99.73954796 6.5859375 98.27734375 C5.55726563 97.85195313 4.52859375 97.4265625 3.46875 96.98828125 C-0.82111772 95.43947186 -4.77077452 94.77979871 -9.32250977 94.74121094 C-10.2443959 94.73160339 -11.16628204 94.72199585 -12.11610413 94.71209717 C-13.10259445 94.70784729 -14.08908478 94.70359741 -15.10546875 94.69921875 C-16.13534409 94.69351868 -17.16521942 94.6878186 -18.2263031 94.6819458 C-20.40582253 94.67251087 -22.58535614 94.66596782 -24.76489258 94.66210938 C-28.0655277 94.65244922 -31.36552769 94.62142973 -34.66601562 94.58984375 C-52.07112408 94.50117823 -66.98009451 95.59042802 -80.3515625 108.08984375 C-89.74645849 118.10769879 -92.85137227 129.01088406 -92.81030273 142.42944336 C-92.81552948 143.33462708 -92.82075623 144.23981079 -92.82614136 145.17242432 C-92.83631504 147.12026695 -92.84215007 149.06813626 -92.84402275 151.01600456 C-92.84770619 154.0964553 -92.86448195 157.17658983 -92.88478088 160.25697327 C-92.94003824 169.00857697 -92.97100554 177.76022419 -92.99536133 186.51196289 C-93.01119097 191.87812855 -93.04134548 197.24406305 -93.08012581 202.61010933 C-93.09180022 204.6542981 -93.09770637 206.69852806 -93.09780693 208.74275017 C-93.09799793 211.58908355 -93.1161815 214.43477213 -93.13842773 217.28100586 C-93.13156197 218.55343895 -93.13156197 218.55343895 -93.1245575 219.85157776 C-93.15379333 222.1917572 -93.15379333 222.1917572 -93.5390625 225.90234375 C-96.5390625 227.90234375 -96.5390625 227.90234375 -99.1640625 227.65234375 C-100.3396875 227.28109375 -100.3396875 227.28109375 -101.5390625 226.90234375 C-103.18544277 223.60958321 -102.69539839 219.94853767 -102.70019531 216.32861328 C-102.70516022 215.44051468 -102.71012512 214.55241608 -102.71524048 213.6374054 C-102.72989295 210.68664787 -102.73667244 207.73594426 -102.7421875 204.78515625 C-102.74794043 202.73167927 -102.75369815 200.6782023 -102.75946045 198.62472534 C-102.76998194 194.30873362 -102.77581576 189.99276056 -102.77929688 185.67675781 C-102.78475631 180.17152195 -102.80872455 174.6665366 -102.83726883 169.16137886 C-102.85599189 164.91288562 -102.86110613 160.66445125 -102.86263275 156.41592026 C-102.86564265 154.38833129 -102.87361436 152.36074294 -102.88681793 150.33319473 C-102.99973893 131.64476887 -101.26630037 116.31839031 -87.85546875 102.22265625 C-87.09105469 101.45695313 -86.32664063 100.69125 -85.5390625 99.90234375 C-84.88808594 99.23976563 -84.23710937 98.5771875 -83.56640625 97.89453125 C-76.23552613 90.93997968 -67.03113689 87.85889151 -57.5390625 84.90234375 C-58.2403125 84.34289062 -58.9415625 83.7834375 -59.6640625 83.20703125 C-69.93649242 74.5257114 -77.68560524 63.57833905 -79.5390625 49.90234375 C-80.86842041 33.61350251 -77.04528688 19.63157709 -66.73046875 6.62109375 C-49.26721783 -12.25809643 -20.91718234 -14.50707808 0 0 Z M-61.5390625 14.90234375 C-65.61469839 20.0451661 -67.79854481 25.62187432 -69.5390625 31.90234375 C-69.7659375 32.70671875 -69.9928125 33.51109375 -70.2265625 34.33984375 C-71.70910032 46.49665385 -69.46792518 57.27578086 -62.484375 67.4296875 C-55.77451874 75.9584807 -46.25444622 81.8701158 -35.5390625 83.90234375 C-22.58502472 84.93424434 -12.85448351 81.79340314 -2.5390625 73.90234375 C5.29749861 66.78893046 10.77654157 56.62022401 11.71484375 46.0390625 C12.18662035 33.33153138 8.76762538 22.581747 0.4609375 12.90234375 C-7.56129976 4.31249537 -18.04432606 0.61023845 -29.5390625 -0.34765625 C-42.47603196 0.73042454 -52.59137272 5.36995345 -61.5390625 14.90234375 Z M64.27734375 11.953125 C55.56927332 21.29791456 52.02854274 32.17343873 52.18359375 44.8359375 C53.34545716 57.68189211 59.25056177 67.88104808 68.95703125 76.109375 C78.30622764 82.80404137 88.1465007 84.84068046 99.4609375 83.90234375 C110.40164779 81.7114107 119.70088986 76.0531575 126.3984375 67.08984375 C133.84555626 55.25680168 135.64655038 42.84267923 132.6484375 29.20703125 C128.50096833 17.02384055 119.79022235 8.71868186 108.5390625 2.91015625 C93.18157277 -3.75321739 76.15856297 0.88798952 64.27734375 11.953125 Z M5.61328125 120.890625 C-1.07036395 129.34781733 -3.35099414 138.22231985 -2.5390625 148.90234375 C-1.10522487 158.02155109 3.74946573 165.73319966 10.6328125 171.82421875 C17.81806626 176.97110265 26.56875597 180.11721485 35.4609375 178.90234375 C46.38249026 176.77130907 55.07618461 171.0234193 61.4609375 161.90234375 C66.64384117 152.48174681 67.73284016 143.84554066 64.8984375 133.46484375 C61.93383958 124.50885562 57.04794187 118.09307544 48.99609375 113.12109375 C33.84356173 105.83667158 17.156862 108.46846305 5.61328125 120.890625 Z " fill="#0C0C0C" transform="translate(304.5390625,590.09765625)"/>
<path d="M0 0 C0.75337922 -0.00226556 1.50675844 -0.00453111 2.28296733 -0.00686532 C4.80306078 -0.01318662 7.32310019 -0.01237715 9.84320068 -0.0115509 C11.65197316 -0.0145436 13.46074499 -0.01794639 15.26951599 -0.02172852 C20.18082801 -0.03056243 25.09212261 -0.0329064 30.00344181 -0.0335443 C33.07349135 -0.03425526 36.14353646 -0.03639048 39.2135849 -0.03904152 C49.92883078 -0.0482936 60.64406422 -0.05237666 71.35931396 -0.05158997 C81.33910794 -0.05098951 91.31884781 -0.0615353 101.29862809 -0.07733363 C109.87289886 -0.09042208 118.44715196 -0.0957733 127.02143264 -0.09513456 C132.13963584 -0.09487991 137.25779096 -0.0977125 142.37598419 -0.10831261 C147.19242123 -0.11801528 152.00876445 -0.11805788 156.82520485 -0.11079597 C158.58879293 -0.10975276 160.35238691 -0.11209732 162.11596489 -0.11815643 C176.55351688 -0.16452969 188.66594321 0.50462174 199.68597412 10.88371277 C206.54175702 18.14920381 210.23051125 26.32227163 210.81097412 36.32121277 C210.43597412 40.13371277 210.43597412 40.13371277 209.06097412 43.13371277 C205.99815324 45.46729058 205.00912856 45.35531288 201.27191162 45.25871277 C200.36747314 45.24066589 199.46303467 45.22261902 198.53118896 45.20402527 C197.83976807 45.18082214 197.14834717 45.15761902 196.43597412 45.13371277 C200.18007135 50.61034097 203.92634849 56.08547224 207.67425537 61.55949402 C209.27319479 63.89586004 210.8703714 66.23342038 212.46722412 68.57121277 C216.5272813 74.50552033 220.60538842 80.40831057 224.87347412 86.19621277 C229.5549479 92.58527329 233.50112402 98.19537726 233.61297607 106.3321991 C233.62581131 107.15017471 233.63864655 107.96815033 233.65187073 108.81091309 C233.66295113 110.1250544 233.66295113 110.1250544 233.67425537 111.46574402 C233.68232712 112.3757164 233.69039886 113.28568878 233.69871521 114.22323608 C233.7125292 116.14723317 233.72326333 118.07125448 233.73114014 119.99528503 C233.74266501 121.95727243 233.7631248 123.91922835 233.79266357 125.88102722 C233.83542961 128.72198203 233.85152106 131.5620069 233.86175537 134.40324402 C233.87926346 135.27326553 233.89677155 136.14328705 233.91481018 137.03967285 C233.89400504 142.92394797 232.82065164 146.29285034 229.43597412 151.13371277 C224.09574715 156.33701084 217.50275553 155.92401599 210.43597412 156.13371277 C210.22972412 157.41246277 210.02347412 158.69121277 209.81097412 160.00871277 C207.91837932 168.35453013 203.64400792 175.18572045 196.49066162 179.95011902 C188.10810849 184.77885209 179.25380596 185.65302034 169.81097412 183.19621277 C161.92192813 180.11231297 155.95159699 173.98456463 152.31097412 166.44621277 C150.45691756 162.13073628 150.43597412 160.17081811 150.43597412 155.13371277 C123.04597412 155.13371277 95.65597412 155.13371277 67.43597412 155.13371277 C67.10597412 158.43371277 66.77597412 161.73371277 66.43597412 165.13371277 C63.17834135 173.65540957 56.95745259 179.23139263 48.81097412 183.00871277 C40.46140923 185.75355004 30.62266338 185.23160709 22.68597412 181.52433777 C16.01864923 177.40356058 10.96726451 171.57442191 8.43597412 164.13371277 C8.18828982 162.55592634 7.98897901 160.96979354 7.83831787 159.37980652 C7.7202478 158.18182434 7.7202478 158.18182434 7.59979248 156.9596405 C7.51870239 156.05580627 7.51870239 156.05580627 7.43597412 155.13371277 C6.26502197 155.1441864 5.09406982 155.15466003 3.88763428 155.16545105 C-0.44713293 155.20158773 -4.78188677 155.22459009 -9.11676025 155.24357605 C-10.9947127 155.25364811 -12.87264941 155.26730639 -14.75054932 155.28459167 C-17.44622678 155.3087873 -20.14169734 155.3201836 -22.83746338 155.32902527 C-23.6802182 155.33934784 -24.52297302 155.34967041 -25.39126587 155.36030579 C-27.45023835 155.36070421 -29.50870522 155.25628864 -31.56402588 155.13371277 C-33.56402588 153.13371277 -33.56402588 153.13371277 -33.75933838 149.43840027 C-33.74603488 147.96171169 -33.72217423 146.48508918 -33.68902588 145.00871277 C-33.68000244 144.25461121 -33.670979 143.50050964 -33.66168213 142.72355652 C-33.63809458 140.86014023 -33.60222307 138.99688684 -33.56402588 137.13371277 C-30.92402588 137.13371277 -28.28402588 137.13371277 -25.56402588 137.13371277 C-25.56402588 140.43371277 -25.56402588 143.73371277 -25.56402588 147.13371277 C-14.34402588 147.13371277 -3.12402588 147.13371277 8.43597412 147.13371277 C8.76597412 145.48371277 9.09597412 143.83371277 9.43597412 142.13371277 C13.00127677 134.48746453 18.49897352 129.25327555 26.12347412 125.75871277 C34.55439931 122.71385663 42.98448979 123.07883794 51.11956787 126.81340027 C58.32311278 130.91929939 63.32035311 136.40457604 66.43597412 144.13371277 C66.43597412 145.12371277 66.43597412 146.11371277 66.43597412 147.13371277 C94.15597412 146.80371277 121.87597412 146.47371277 150.43597412 146.13371277 C152.08597412 142.83371277 153.73597412 139.53371277 155.43597412 136.13371277 C158.88332872 130.51580157 165.12506579 126.59129448 171.34222412 124.48918152 C181.92542859 122.69240613 190.55634801 124.0154338 199.43597412 130.13371277 C204.55478234 134.46818747 207.05802539 139.96503399 209.43597412 146.13371277 C210.83079491 146.21576105 212.2270614 146.27337481 213.62347412 146.32121277 C214.40077881 146.35601746 215.1780835 146.39082214 215.97894287 146.42668152 C219.33185505 146.02689072 220.85161666 145.35356544 223.43597412 143.13371277 C224.19325332 140.12834061 224.08835606 137.16742865 224.02972412 134.08293152 C224.02978455 132.74558708 224.02978455 132.74558708 224.02984619 131.38122559 C224.02448385 129.49404358 224.0068706 127.60686267 223.97796631 125.71989441 C223.93627756 122.84215869 223.9368832 119.96677628 223.94378662 117.08879089 C223.9332879 115.25348827 223.92034613 113.41819768 223.90472412 111.58293152 C223.904422 110.29826241 223.904422 110.29826241 223.90411377 108.98764038 C223.80243119 103.80688072 223.32912887 99.02686752 219.43597412 95.13371277 C216.53552523 95.02971482 213.65810655 94.99010217 210.75701904 94.99186707 C209.84646255 94.98839264 208.93590607 94.98491821 207.99775696 94.9813385 C206.01320702 94.97396684 204.02864876 94.96862901 202.04408836 94.96504784 C198.90497961 94.95790544 195.76602928 94.94225566 192.62696838 94.92370605 C183.69931211 94.87113182 174.77174084 94.82324695 165.84393311 94.80778503 C160.38965607 94.7977175 154.93577428 94.7684219 149.48165321 94.72646523 C147.4000478 94.71413037 145.31838661 94.70903848 143.23674583 94.71126366 C140.32510426 94.71360999 137.41460085 94.69150025 134.50311279 94.66374207 C133.20858688 94.67364418 133.20858688 94.67364418 131.88790894 94.68374634 C126.05822476 94.59232001 126.05822476 94.59232001 122.93177795 92.28808594 C120.76651805 89.16950999 120.30902017 86.64094736 120.27484131 82.94108582 C120.26523376 82.09978622 120.25562622 81.25848663 120.24572754 80.39169312 C120.23935272 79.03229362 120.23935272 79.03229362 120.23284912 77.64543152 C120.22714905 76.70947647 120.22144897 75.77352142 120.21557617 74.8092041 C120.20612929 72.8279483 120.19959343 70.8466768 120.19573975 68.86540222 C120.18604475 65.84322991 120.15502274 62.8217408 120.12347412 59.79972839 C120.11694274 57.87330013 120.1116928 55.94686702 120.10784912 54.02043152 C120.09550232 53.12023788 120.08315552 52.22004425 120.07043457 51.29257202 C120.08852711 46.16367039 120.5325428 42.55733691 123.43597412 38.13371277 C126.39574996 36.65382485 129.39575421 37.00360878 132.6395874 37.02018738 C133.75193253 37.01996834 133.75193253 37.01996834 134.88674927 37.01974487 C137.34329125 37.02044277 139.79975785 37.02822943 142.25628662 37.03605652 C143.95736652 37.03792113 145.65844696 37.03934483 147.35952759 37.04034424 C151.84103879 37.04416599 156.32251769 37.05399336 160.80401611 37.06504822 C165.37534142 37.07526969 169.94667194 37.07984344 174.51800537 37.08488464 C183.49067583 37.09561592 192.46332229 37.11268826 201.43597412 37.13371277 C201.13080378 35.69249 200.82149137 34.25214387 200.51043701 32.81217957 C200.25273277 31.60890266 200.25273277 31.60890266 199.98982239 30.38131714 C198.10323192 22.72523289 193.39794603 17.42085519 186.87738037 13.28996277 C181.23711783 10.61873443 175.79960758 9.83938861 169.62471008 9.87301636 C168.86891645 9.86919081 168.11312281 9.86536526 167.33442634 9.86142379 C164.8181547 9.85115802 162.30211399 9.85507362 159.78582764 9.85905457 C157.97513621 9.85470456 156.16444663 9.84952044 154.35375977 9.84356689 C149.44674802 9.83019738 144.53981339 9.8295959 139.63278699 9.83213019 C135.53239192 9.8332012 131.43201237 9.82831326 127.33162063 9.82352477 C117.65667648 9.81243687 107.98177116 9.81198829 98.30682373 9.81803894 C88.33375214 9.82408022 78.36082158 9.81176214 68.38777405 9.79046887 C59.81686905 9.77284377 51.2460089 9.76685291 42.67508644 9.77010661 C37.55971976 9.77191801 32.4444537 9.76929747 27.32910347 9.75539207 C22.5183443 9.74280344 17.7078048 9.74476768 12.89704895 9.75780296 C11.13465233 9.76016595 9.3722402 9.75744402 7.60986137 9.74917984 C5.19772835 9.73868705 2.78632902 9.74683282 0.3742218 9.75949097 C-0.31752606 9.75211668 -1.00927393 9.7447424 -1.72198385 9.73714465 C-8.13474385 9.8075883 -13.43554103 11.38362523 -18.37652588 15.44621277 C-22.29559673 20.26107124 -24.02801173 25.22596603 -25.56402588 31.13371277 C-28.20402588 31.13371277 -30.84402588 31.13371277 -33.56402588 31.13371277 C-34.24921377 22.63738297 -32.19305729 16.85235411 -26.98980713 10.08683777 C-19.65452711 2.08471412 -10.51726593 -0.02329644 0 0 Z M129.43597412 45.13371277 C129.43597412 58.66371277 129.43597412 72.19371277 129.43597412 86.13371277 C137.02597412 86.13371277 144.61597412 86.13371277 152.43597412 86.13371277 C152.43597412 72.60371277 152.43597412 59.07371277 152.43597412 45.13371277 C144.84597412 45.13371277 137.25597412 45.13371277 129.43597412 45.13371277 Z M161.43597412 45.13371277 C161.43597412 58.66371277 161.43597412 72.19371277 161.43597412 86.13371277 C178.26597412 86.13371277 195.09597412 86.13371277 212.43597412 86.13371277 C209.30200864 80.4925749 206.54866203 75.66521887 202.81097412 70.57121277 C201.94237865 69.3782262 201.07525228 68.18416896 200.20941162 66.98918152 C199.76049561 66.36962585 199.31157959 65.75007019 198.84906006 65.11174011 C195.83167541 60.88802719 192.92749271 56.58458714 190.01556396 52.2877655 C188.27367659 49.73186723 186.62863245 47.3263711 184.43597412 45.13371277 C182.00999461 44.85583609 182.00999461 44.85583609 179.20941162 44.93840027 C177.81601562 44.94589294 177.81601562 44.94589294 176.39447021 44.95353699 C175.2119165 44.971745 174.02936279 44.989953 172.81097412 45.00871277 C169.05722412 45.04996277 165.30347412 45.09121277 161.43597412 45.13371277 Z M21.65081787 139.07511902 C16.35740831 145.87020505 15.68860289 151.60934811 16.43597412 160.13371277 C18.18266339 166.84233461 22.61329311 170.67836408 28.43597412 174.13371277 C34.57483772 176.18000064 41.93614177 176.23943242 47.87347412 173.50871277 C52.77032919 170.6377915 56.3036738 166.4083504 58.43597412 161.13371277 C59.19441201 154.46651462 59.3373269 147.7587164 55.84613037 141.85246277 C52.51865421 137.79681316 48.40048975 134.78855131 43.43597412 133.13371277 C34.97719104 132.36928941 27.66171901 132.53809962 21.65081787 139.07511902 Z M162.56097412 140.94621277 C158.75646422 146.65297762 157.83586942 152.12020548 158.83050537 158.89543152 C160.47017576 164.95692268 164.19982732 169.73021735 169.43597412 173.13371277 C175.29463158 175.85134211 181.47555106 176.26623101 187.71722412 174.48136902 C193.85295951 171.73208758 197.98123597 167.24156245 200.81097412 161.19621277 C202.37026485 153.55568819 201.63118353 147.75064657 197.43597412 141.13371277 C193.5383868 136.89248666 189.30345829 133.49404477 183.48284912 132.76261902 C174.21524644 132.5759493 168.93047542 134.22694116 162.56097412 140.94621277 Z " fill="#0D0D0D" transform="translate(566.5640258789063,599.8662872314453)"/>
<path d="M0 0 C2.875 0.3125 2.875 0.3125 3.875 1.3125 C4.20412257 6.69502543 3.35699491 11.14813237 1.875 16.25 C1.68421875 16.93384766 1.4934375 17.61769531 1.296875 18.32226562 C0.83095063 19.98794526 0.35411589 21.65056675 -0.125 23.3125 C0.67550781 23.51552734 0.67550781 23.51552734 1.4921875 23.72265625 C12.03954821 26.77007708 20.50967386 33.40716391 26.875 42.3125 C28.23973546 44.99458427 29.0336332 47.39246228 29.875 50.3125 C30.060625 50.94027344 30.24625 51.56804687 30.4375 52.21484375 C30.95805484 54.71071831 30.97101947 57.01502034 30.9375 59.5625 C30.92847656 60.45453125 30.91945313 61.3465625 30.91015625 62.265625 C30.89855469 62.94109375 30.88695312 63.6165625 30.875 64.3125 C28.91733719 64.39332094 26.95873272 64.45160778 25 64.5 C23.36417969 64.55220703 23.36417969 64.55220703 21.6953125 64.60546875 C20.76460937 64.50878906 19.83390625 64.41210938 18.875 64.3125 C16.30066606 60.4509991 15.72888011 56.71867856 14.75390625 52.22265625 C13.87067812 49.29818977 12.76319647 47.66354128 10.875 45.3125 C10.875 44.6525 10.875 43.9925 10.875 43.3125 C10.33359375 43.04695313 9.7921875 42.78140625 9.234375 42.5078125 C6.49974418 41.12238695 3.81375859 39.65991542 1.125 38.1875 C0.14015625 37.64867187 -0.8446875 37.10984375 -1.859375 36.5546875 C-2.60703125 36.14476562 -3.3546875 35.73484375 -4.125 35.3125 C-4.24173065 35.86438995 -4.3584613 36.41627991 -4.47872925 36.9848938 C-5.62847149 42.30367747 -6.97491646 47.52219317 -8.5078125 52.7421875 C-8.95708596 54.294255 -9.40630313 55.84633879 -9.85546875 57.3984375 C-10.55649823 59.80831897 -11.2588506 62.2178068 -11.96240234 64.62695312 C-12.64756746 66.97690351 -13.32792274 69.3282064 -14.0078125 71.6796875 C-14.22027618 72.40155243 -14.43273987 73.12341736 -14.65164185 73.86715698 C-15.49382223 76.78574386 -16.125 79.25735917 -16.125 82.3125 C-13.73936333 84.00464494 -13.73936333 84.00464494 -10.6875 85.5625 C0.35465865 91.75909962 10.48429888 98.99020976 14.875 111.3125 C16.07497 121.91764026 15.26782867 131.09009997 9.02734375 139.9296875 C2.51222109 147.89918418 -6.29276592 153.2588129 -16.4921875 155.140625 C-23.45985548 155.5954876 -31.49586157 155.52221281 -38.125 153.3125 C-38.23457031 153.9415625 -38.34414063 154.570625 -38.45703125 155.21875 C-41.0547597 169.2422597 -41.0547597 169.2422597 -45.125 173.3125 C-48.25 172.9375 -48.25 172.9375 -51.125 172.3125 C-52.28269128 166.71335163 -51.8351036 162.80835944 -50.1875 157.375 C-49.99220703 156.69115234 -49.79691406 156.00730469 -49.59570312 155.30273438 C-49.11775675 153.63575067 -48.62310747 151.97357085 -48.125 150.3125 C-48.65867187 150.16554688 -49.19234375 150.01859375 -49.7421875 149.8671875 C-60.94602216 146.49440682 -72.11704397 139.98708051 -78.0625 129.625 C-80.85917126 124.287624 -81.24343633 120.10362339 -81.1875 114.0625 C-81.17847656 112.79921875 -81.16945313 111.5359375 -81.16015625 110.234375 C-81.14855469 109.27015625 -81.13695312 108.3059375 -81.125 107.3125 C-76.835 107.3125 -72.545 107.3125 -68.125 107.3125 C-66.8414011 109.8796978 -66.69125941 112.21649474 -66.3125 115.0625 C-65.49812957 120.24711786 -64.34175266 123.23794663 -61.125 127.3125 C-61.125 127.9725 -61.125 128.6325 -61.125 129.3125 C-60.61453125 129.56773437 -60.1040625 129.82296875 -59.578125 130.0859375 C-51.3515625 134.19921875 -51.3515625 134.19921875 -43.125 138.3125 C-43.01164307 137.34610596 -42.89828613 136.37971191 -42.78149414 135.3840332 C-42.13197271 130.85879985 -40.89426775 126.55160931 -39.62109375 122.16796875 C-39.3783522 121.31697098 -39.13561066 120.46597321 -38.88551331 119.58918762 C-38.11550416 116.89153022 -37.33946887 114.19566037 -36.5625 111.5 C-35.78266165 108.78629702 -35.00416804 106.07223065 -34.22877502 103.35725403 C-33.74743123 101.67261591 -33.26341219 99.98873944 -32.776474 98.30570984 C-31.56690174 94.37284557 -31.56690174 94.37284557 -31.125 90.3125 C-32.70724899 89.22658387 -34.34420412 88.2200854 -36 87.25 C-45.49167072 81.36198805 -57.06896689 72.70316887 -60.125 61.3125 C-62.11707658 51.81629028 -60.68693958 42.66623884 -55.59375 34.375 C-49.60377637 25.96354767 -41.32490813 20.73237496 -31.18359375 18.58984375 C-23.88539731 17.60659527 -17.19778988 18.39908824 -10.125 20.3125 C-9.87105469 19.20390625 -9.61710938 18.0953125 -9.35546875 16.953125 C-9.00831822 15.4894633 -8.66063385 14.02592813 -8.3125 12.5625 C-8.14685547 11.83289063 -7.98121094 11.10328125 -7.81054688 10.3515625 C-5.44800885 0.54480088 -5.44800885 0.54480088 0 0 Z M-41.03125 38.33203125 C-44.72083488 43.30078824 -46.58042062 48.09212075 -46.125 54.3125 C-44.41002438 63.64762504 -37.12246307 69.89001255 -29.82421875 75.28125 C-28.17131756 76.48544143 -28.17131756 76.48544143 -26.125 76.3125 C-22.7206634 65.27755024 -19.32458602 54.23944745 -16.1875 43.125 C-15.97649658 42.39039551 -15.76549316 41.65579102 -15.5480957 40.89892578 C-14.61087847 37.53257827 -14.125 34.8411357 -14.125 31.3125 C-24.35195611 30.69888263 -33.51504214 30.3691635 -41.03125 38.33203125 Z M-21.125 96.3125 C-26.68548017 114.26280576 -26.68548017 114.26280576 -32.125 132.25 C-32.33213623 132.93376709 -32.53927246 133.61753418 -32.75268555 134.32202148 C-33.57600539 137.10579763 -34.125 139.38938735 -34.125 142.3125 C-19.57619012 143.07053108 -19.57619012 143.07053108 -7.03125 136.4765625 C-1.62533137 130.694002 0.33629279 125.36433082 0.125 117.48046875 C-0.51969207 111.8897797 -4.05634053 107.05052348 -8.125 103.3125 C-14.1289732 98.49832754 -14.1289732 98.49832754 -21.125 96.3125 Z " fill="#0A0A0A" transform="translate(785.125,160.6875)"/>
<path d="M0 0 C3.55959428 3.11252282 6.82315654 6.50045235 10 10 C13.46006044 8.53908559 15.38513038 6.65551588 17.875 3.875 C28.67602701 -7.13920517 42.1102836 -12.19702844 57.375 -12.4375 C72.78690608 -12.33059835 86.03632092 -6.92437246 97.3125 3.6875 C108.76875061 15.87930442 113.68141963 30.26927254 113.46850586 46.82373047 C112.54465514 70.91138914 100.04857589 90.90630881 82.875 107.1328125 C80.93177983 108.96856165 80.93177983 108.96856165 79.375 111.2421875 C78.92125 111.82226562 78.4675 112.40234375 78 113 C77.34 113 76.68 113 76 113 C75.67 113.99 75.34 114.98 75 116 C73.3984375 117.578125 73.3984375 117.578125 71.375 119.25 C68.681942 121.52837474 66.13071089 123.83122111 63.6875 126.375 C60.05845629 130.06125836 56.09885202 133.25398816 52.0703125 136.4921875 C49.34839555 138.71543264 46.69210892 140.99094226 44.04541016 143.30175781 C36.59032516 149.80106268 28.8575569 155.86579069 20.83251953 161.64794922 C19.5781478 162.57343692 18.35043022 163.53585654 17.14794922 164.52783203 C15.33984375 165.97265625 15.33984375 165.97265625 12 168 C7.61735375 167.30519023 4.42647921 164.20691858 1 161.5 C-0.15732181 160.59085263 -1.31488046 159.68200667 -2.47265625 158.7734375 C-3.05934082 158.3103418 -3.64602539 157.84724609 -4.25048828 157.37011719 C-5.90330623 156.07572502 -7.5699007 154.80297643 -9.24609375 153.5390625 C-17.44895754 147.34521687 -25.25714792 140.75703145 -33 134 C-33.76183594 133.34 -34.52367187 132.68 -35.30859375 132 C-37.21466774 130.34321134 -39.10813042 128.67297558 -41 127 C-42.05960937 126.07960938 -42.05960937 126.07960938 -43.140625 125.140625 C-63.68135297 107.04846063 -88.95581824 83.12073401 -91.15893555 53.89135742 C-92.04638844 35.20564882 -89.16594775 20.41828348 -77.04296875 5.609375 C-56.59339536 -16.69925051 -23.62541402 -17.7566806 0 0 Z M20 15 C17.54265007 17.91782631 15.21638559 20.89559237 13 24 C9.82122044 23.69413805 8.37254833 23.39612734 6.1484375 21.03125 C5.27058594 19.77828125 5.27058594 19.77828125 4.375 18.5 C-3.7173891 7.9071536 -13.9016543 0.89521361 -27 -2 C-41.48519595 -2.87571551 -53.42567398 -1.59721695 -65 8 C-76.05350241 18.47364655 -81.61861202 30.67492178 -82.375 46 C-80.76424608 75.24137887 -58.53505164 98.96977433 -38.02734375 117.8125 C-36.03966636 119.56807069 -34.02210336 121.28417047 -32 123 C-30.96143394 123.90141637 -29.92375043 124.80385009 -28.88671875 125.70703125 C-21.36147063 132.24186238 -13.71690301 138.58882043 -5.78955078 144.63134766 C-4.55609493 145.57469739 -3.32820469 146.52535397 -2.10498047 147.48193359 C-0.22960974 148.94457979 1.66326401 150.3810388 3.5625 151.8125 C4.13419922 152.26383301 4.70589844 152.71516602 5.29492188 153.18017578 C7.1028285 154.57778618 7.1028285 154.57778618 10 156 C14.71854685 155.2211373 18.69350066 151.48310802 22.4375 148.625 C23.48877075 147.82968872 23.48877075 147.82968872 24.5612793 147.01831055 C30.3676317 142.58023828 35.93374041 137.90057671 41.42578125 133.08203125 C44.28326462 130.57868043 47.2332294 128.20941641 50.19921875 125.8359375 C56.31872579 120.8437492 61.94318723 115.41148248 67.5 109.8125 C68.25302902 109.05673676 68.25302902 109.05673676 69.02127075 108.28570557 C76.63145945 100.62902741 83.84946476 92.89650923 90 84 C90.74121094 82.94167969 91.48242188 81.88335937 92.24609375 80.79296875 C101.05161118 67.43120194 105.79487495 52.31773604 103.3125 36.25 C100.41601861 23.25394533 93.93902142 12.78962683 83 5 C61.05112121 -8.17539889 37.38777079 -3.62313638 20 15 Z " fill="#0C0C0C" transform="translate(310,271)"/>
<path d="M0 0 C1.04811356 -0.01283524 2.09622711 -0.02567047 3.17610168 -0.03889465 C4.88850288 -0.04997505 4.88850288 -0.04997505 6.63549805 -0.0612793 C7.80098679 -0.06935104 8.96647552 -0.07742279 10.1672821 -0.08573914 C12.63966373 -0.09959994 15.11206465 -0.11031311 17.58447266 -0.11816406 C21.3707294 -0.13537763 25.15611357 -0.17924756 28.94213867 -0.22338867 C31.33991869 -0.23351485 33.73770615 -0.24203118 36.13549805 -0.2487793 C37.27102615 -0.26628738 38.40655426 -0.28379547 39.57649231 -0.30183411 C41.16284737 -0.29744576 41.16284737 -0.29744576 42.78125 -0.29296875 C44.17571098 -0.30176811 44.17571098 -0.30176811 45.5983429 -0.31074524 C48.91371447 0.33962483 50.07862767 1.49239618 52.0847168 4.17700195 C52.59265137 6.49133301 52.59265137 6.49133301 52.60229492 9.06567383 C52.61490356 10.03347778 52.62751221 11.00128174 52.64050293 11.99841309 C52.63240601 13.03703491 52.62430908 14.07565674 52.6159668 15.14575195 C52.6197937 16.21821167 52.62362061 17.29067139 52.62756348 18.39562988 C52.63028396 20.66179341 52.62291332 22.92798826 52.60620117 25.1940918 C52.58479473 28.66436723 52.60599954 32.13257222 52.6315918 35.6027832 C52.62894855 37.80461069 52.62382363 40.00643689 52.6159668 42.20825195 C52.62406372 43.24687378 52.63216064 44.28549561 52.64050293 45.35559082 C52.62789429 46.32339478 52.61528564 47.29119873 52.60229492 48.28833008 C52.59752136 49.56262878 52.59752136 49.56262878 52.59265137 50.8626709 C51.89323163 54.04947665 50.66952951 55.22935184 48.0847168 57.17700195 C45.65649414 57.6782074 45.65649414 57.6782074 42.9206543 57.67871094 C41.89278809 57.68809189 40.86492188 57.69747284 39.8059082 57.70713806 C38.70166504 57.69590408 37.59742188 57.6846701 36.4597168 57.6730957 C34.75114502 57.67527855 34.75114502 57.67527855 33.00805664 57.67750549 C30.60064129 57.67584605 28.19321538 57.6642798 25.78588867 57.64355469 C22.09858183 57.61461079 18.41271325 57.6229437 14.7253418 57.63598633 C12.38679313 57.62974868 10.04824902 57.62135753 7.7097168 57.6105957 C6.60547363 57.61353134 5.50123047 57.61646698 4.36352539 57.61949158 C3.33565918 57.6068074 2.30779297 57.59412323 1.2487793 57.58105469 C-0.10546143 57.57295021 -0.10546143 57.57295021 -1.48706055 57.56468201 C-4.41807871 57.09672769 -5.78135608 56.21587035 -7.9152832 54.17700195 C-8.84408226 51.39060478 -9.05111354 49.66674464 -9.07641602 46.78491211 C-9.08602356 45.90034332 -9.0956311 45.01577454 -9.10552979 44.10440063 C-9.10977966 43.15124969 -9.11402954 42.19809875 -9.1184082 41.21606445 C-9.12410828 40.23334564 -9.12980835 39.25062683 -9.13568115 38.23812866 C-9.14512839 36.15851925 -9.15166404 34.07889488 -9.15551758 31.99926758 C-9.16522436 28.82126714 -9.19625106 25.64391313 -9.2277832 22.46606445 C-9.23431332 20.44523496 -9.23956375 18.42440084 -9.2434082 16.40356445 C-9.255755 15.45446198 -9.26810181 14.5053595 -9.28082275 13.52749634 C-9.25563085 6.0493037 -8.35846765 0.08873782 0 0 Z M0.0847168 8.17700195 C0.0847168 21.70700195 0.0847168 35.23700195 0.0847168 49.17700195 C14.2747168 49.17700195 28.4647168 49.17700195 43.0847168 49.17700195 C43.0847168 35.64700195 43.0847168 22.11700195 43.0847168 8.17700195 C28.8947168 8.17700195 14.7047168 8.17700195 0.0847168 8.17700195 Z " fill="#0A0A0A" transform="translate(604.915283203125,636.822998046875)"/>
<path d="M0 0 C1.2375 0.1546875 1.2375 0.1546875 2.5 0.3125 C4.95535534 3.995533 4.78888357 6.78095206 4.7746582 11.04101562 C4.77976913 11.82667404 4.78488007 12.61233246 4.79014587 13.42179871 C4.80405519 16.02085978 4.80308431 18.61965612 4.80078125 21.21875 C4.80466707 23.02331644 4.8090015 24.82788196 4.81376648 26.63244629 C4.82123129 30.41531336 4.82093525 34.19808711 4.81567383 37.98095703 C4.80987477 42.83354497 4.82681937 47.68575178 4.8500185 52.53827667 C4.86473401 56.26485434 4.8656306 59.99133971 4.86250877 63.71794128 C4.86302295 65.50734717 4.86827876 67.29675809 4.87832069 69.08613586 C4.89062751 71.58567252 4.88392882 74.08446014 4.87231445 76.58398438 C4.87995819 77.32589523 4.88760193 78.06780609 4.89547729 78.8321991 C4.86503853 81.78886689 4.83329081 83.82336767 3.14079285 86.30725098 C1.5 87.3125 1.5 87.3125 -1.125 87.125 C-3.5 86.3125 -3.5 86.3125 -4.5 84.3125 C-4.60340401 81.72951201 -4.64681145 79.17329306 -4.64526367 76.58984375 C-4.64862228 75.7929715 -4.6519809 74.99609924 -4.65544128 74.17507935 C-4.6649629 71.53337051 -4.66689488 68.89172494 -4.66796875 66.25 C-4.67118006 64.41918918 -4.67454403 62.58837863 -4.67805481 60.75756836 C-4.68404881 56.91747441 -4.68589439 53.07740298 -4.68530273 49.23730469 C-4.685201 44.30732906 -4.6988639 39.37749708 -4.71607494 34.44755554 C-4.72717083 30.66613089 -4.7292227 26.88474127 -4.72869301 23.103302 C-4.72987636 21.28516138 -4.7343179 19.46701994 -4.74202538 17.64889526 C-4.75177849 15.11087856 -4.74896611 12.57317759 -4.74291992 10.03515625 C-4.74853943 9.27872833 -4.75415894 8.52230042 -4.75994873 7.74295044 C-4.7164521 0.58955651 -4.7164521 0.58955651 0 0 Z " fill="#101010" transform="translate(235.5,730.6875)"/>
<path d="M0 0 C4.55555556 0.55555556 4.55555556 0.55555556 6 2 C6.10571371 4.57562419 6.14678123 7.12457175 6.14526367 9.70092773 C6.15030159 10.91064743 6.15030159 10.91064743 6.15544128 12.14480591 C6.16498015 14.8244173 6.16689586 17.50396641 6.16796875 20.18359375 C6.17117928 22.03825405 6.17454319 23.8929141 6.17805481 25.74757385 C6.18405343 29.64072253 6.18589396 33.53384898 6.18530273 37.42700195 C6.18520107 42.42538678 6.19885475 47.42362969 6.21607494 52.42198086 C6.22717182 56.25401977 6.22922266 60.08602413 6.22869301 63.91807747 C6.22987657 65.76133781 6.23431924 67.60459894 6.24202538 69.44784355 C6.25177886 72.02189052 6.24896576 74.59562618 6.24291992 77.16967773 C6.24853943 77.93702744 6.25415894 78.70437714 6.25994873 79.49497986 C6.22831554 84.77168446 6.22831554 84.77168446 4 87 C-0.55555556 86.44444444 -0.55555556 86.44444444 -2 85 C-2.10571371 82.42437581 -2.14678123 79.87542825 -2.14526367 77.29907227 C-2.14862228 76.49259247 -2.1519809 75.68611267 -2.15544128 74.85519409 C-2.16498015 72.1755827 -2.16689586 69.49603359 -2.16796875 66.81640625 C-2.17117928 64.96174595 -2.17454319 63.1070859 -2.17805481 61.25242615 C-2.18405343 57.35927747 -2.18589396 53.46615102 -2.18530273 49.57299805 C-2.18520107 44.57461322 -2.19885475 39.57637031 -2.21607494 34.57801914 C-2.22717182 30.74598023 -2.22922266 26.91397587 -2.22869301 23.08192253 C-2.22987657 21.23866219 -2.23431924 19.39540106 -2.24202538 17.55215645 C-2.25177886 14.97810948 -2.24896576 12.40437382 -2.24291992 9.83032227 C-2.24853943 9.06297256 -2.25415894 8.29562286 -2.25994873 7.50502014 C-2.22831554 2.22831554 -2.22831554 2.22831554 0 0 Z " fill="#030303" transform="translate(436,731)"/>
<path d="M0 0 C2.31 0 4.62 0 7 0 C7 24.42 7 48.84 7 74 C4.69 74 2.38 74 0 74 C0 49.58 0 25.16 0 0 Z " fill="#050505" transform="translate(534,645)"/>
<path d="M0 0 C3.62827919 1.35005737 5.76448165 3.45824492 8.6875 6 C14.33786184 7.88345395 19.66397515 7.80194272 25.0625 5.1875 C27.155018 4.06374034 28.6128694 3.07892185 30.25 1.34765625 C30.724375 0.90292969 31.19875 0.45820312 31.6875 0 C36.10855263 0.42105263 36.10855263 0.42105263 37.6875 2 C38.1875 4.6875 38.1875 4.6875 37.6875 8 C33.37925488 13.82543444 26.44737464 16.20943797 19.6875 18 C12.53747835 19.02143166 5.45786735 16.37682916 -0.57421875 12.57421875 C-3.46185773 10.30745144 -5.09295062 8.94406232 -5.9375 5.3125 C-4.96069945 1.69833797 -3.91585503 0 0 0 Z " fill="#10100F" transform="translate(259.3125,643)"/>
<path d="M0 0 C3.53881127 1.31676698 5.82737671 3.56585252 8.6875 6 C13.02349934 7.87893305 18.45984864 7.80211332 22.87890625 6.2109375 C25.71072628 4.8445713 28.07657605 3.64757938 30.25 1.34375 C30.724375 0.9003125 31.19875 0.456875 31.6875 0 C34.375 0.3125 34.375 0.3125 36.6875 1 C37.625 4.125 37.625 4.125 37.6875 8 C33.73840844 13.93061453 26.25428391 16.26058402 19.6875 18 C12.22619697 19.06590043 4.07716809 16.10339142 -1.9375 11.625 C-4.65730376 8.6189011 -5.40039409 7.04312794 -5.3125 3 C-3.79806637 0.39180875 -3.01183957 0 0 0 Z " fill="#0F0F0F" transform="translate(381.3125,643)"/>
<path d="M0 0 C3.88513159 0.61808912 5.76806777 2.94241385 8.75 5.4375 C13.54274722 7.1415879 17.05915985 5.99260306 21.69921875 4.421875 C23.82676748 3.54245326 23.82676748 3.54245326 25.35546875 1.8125 C25.81566406 1.35875 26.27585937 0.905 26.75 0.4375 C31.17105263 0.85855263 31.17105263 0.85855263 32.75 2.4375 C33.046875 4.80078125 33.046875 4.80078125 32.75 7.4375 C31.140625 9.16796875 31.140625 9.16796875 29 10.625 C28.30390625 11.11355469 27.6078125 11.60210938 26.890625 12.10546875 C20.56539193 16.04142583 15.16293061 16.16373693 7.75 15.4375 C3.01711296 13.99608699 -1.30785874 11.48294423 -4.25 7.4375 C-4.625 4.8125 -4.625 4.8125 -4.25 2.4375 C-2.25 0.4375 -2.25 0.4375 0 0 Z " fill="#0F0F0F" transform="translate(322.25,742.5625)"/>
</svg>
