<?xml version="1.0" encoding="UTF-8"?>
<svg version="1.1" xmlns="http://www.w3.org/2000/svg" width="1048" height="1048">
<path d="M0 0 C0.79550735 0.00092179 1.59101469 0.00184359 2.41062832 0.00279331 C3.32073162 0.00141865 4.23083492 0.00004398 5.16851711 -0.00137234 C6.1748016 0.00222294 7.18108608 0.00581821 8.21786404 0.00952244 C9.27139568 0.00937641 10.32492733 0.00923038 11.41038418 0.00907993 C14.91125415 0.00977957 18.41207166 0.01757435 21.9129324 0.02539158 C24.33288958 0.02725558 26.75284714 0.02867957 29.17280483 0.0296793 C35.55642639 0.03350591 41.94002536 0.04333742 48.32363796 0.05438328 C54.83191529 0.06459432 61.34019625 0.06917626 67.84847927 0.0742197 C80.62908789 0.08495956 93.40968082 0.10184671 106.19027615 0.12304783 C106.99575646 1.7191678 107.79953679 3.31614573 108.60259914 4.91348362 C109.0503866 5.80270826 109.49817406 6.69193291 109.95953083 7.60810375 C111.37746027 10.50554581 112.57770634 13.4344977 113.69808865 16.45898533 C114.12186794 17.591749 114.54564724 18.72451267 114.98226833 19.89160252 C115.42216091 21.08172947 115.86205349 22.27185642 116.31527615 23.49804783 C117.27837695 26.07471368 118.24599672 28.64967515 119.21371365 31.22461033 C119.45875637 31.87792332 119.7037991 32.53123631 119.95626736 33.20434666 C123.00107517 41.30819673 126.1043902 49.39255655 129.38680935 57.40332127 C131.40100396 62.34016273 133.29274739 67.07378297 134.3816824 72.30273533 C135.47273489 76.99197144 136.51244849 80.82632206 140.19027615 84.12304783 C147.84844205 88.1460489 156.29597806 90.30430493 164.60821438 92.55569553 C169.92469961 94.00289245 174.95808035 95.79496667 180.00277615 97.99804783 C180.71812527 98.30710056 181.43347439 98.6161533 182.17050076 98.93457127 C191.14871778 102.89487759 199.97783413 107.19981064 208.8035574 111.48632908 C209.751824 111.94475193 210.7000906 112.40317478 211.67709255 112.87548923 C213.68439046 113.8719233 215.65390312 114.94435165 217.6082449 116.04101658 C221.43985484 117.64669881 224.02316131 116.59601281 227.78866482 115.07006931 C229.18435696 114.41373508 229.18435696 114.41373508 230.6082449 113.74414158 C231.68122829 113.2428574 232.75421169 112.74157322 233.85970974 112.22509861 C235.02067165 111.67579685 236.18163357 111.12649509 237.37777615 110.56054783 C238.60494051 109.98441259 239.83232188 109.40873939 241.05990505 108.83349705 C243.69940712 107.59540877 246.33723606 106.35384166 248.97396755 105.10986423 C252.5965428 103.40138644 256.22297688 101.70127253 259.8506918 100.00373936 C262.85566604 98.59749404 265.85970975 97.1892693 268.86352444 95.78054905 C270.30865702 95.10286085 271.75394417 94.42550212 273.1994009 93.74850559 C275.25713413 92.78406619 277.31367771 91.81713109 279.36996365 90.84961033 C280.35362659 90.38915066 280.35362659 90.38915066 281.35716152 89.91938877 C284.65446584 88.36531805 287.91106212 86.76168749 291.13265896 85.05566502 C291.76471249 84.72472843 292.39676601 84.39379185 293.04797268 84.05282688 C294.77361641 83.14302016 296.49034658 82.21636367 298.20638943 81.28857517 C301.60177933 79.96231176 302.8355142 79.75247618 306.19027615 81.12304783 C308.78988552 83.28442478 308.78988552 83.28442478 311.53402615 86.11132908 C312.02560207 86.61093647 312.517178 87.11054386 313.02365017 87.62529087 C314.58895407 89.21950077 316.14000598 90.82672689 317.69027615 92.43554783 C319.24302746 94.03101549 320.79864712 95.62357737 322.35690212 97.21366978 C323.77352558 98.66170959 325.18231716 100.11739913 326.59066677 101.57348728 C329.13961238 104.16920465 329.13961238 104.16920465 332.02426052 106.33471775 C332.73904568 106.92486668 333.45383083 107.5150156 334.19027615 108.12304783 C334.19027615 108.78304783 334.19027615 109.44304783 334.19027615 110.12304783 C334.72169216 110.32776707 335.25310818 110.53248631 335.80062771 110.74340916 C339.18837614 112.69929048 341.71290245 115.42111422 344.42465115 118.19726658 C345.02150723 118.79932423 345.6183633 119.40138187 346.23330593 120.02168369 C348.14045179 121.94660698 350.04079681 123.8780613 351.94027615 125.81054783 C363.55965766 137.66613387 363.55965766 137.66613387 376.02743435 148.61010838 C377.75277615 150.12304783 377.75277615 150.12304783 380.19027615 153.12304783 C379.93302209 158.62264262 378.18145767 163.13294403 376.0144949 168.09961033 C375.69303997 168.85513187 375.37158504 169.61065342 375.04038906 170.38906956 C373.99361363 172.84531238 372.9356335 175.29656025 371.87777615 177.74804783 C371.15056561 179.45043176 370.42433728 181.15323558 369.69906521 182.85644627 C368.59777832 185.44248338 367.49596594 188.02827836 366.39111233 190.61279392 C363.01616443 198.50913253 359.71541161 206.434893 356.44027615 214.37304783 C355.96420925 215.52369724 355.48814236 216.67434666 354.99764919 217.85986423 C354.12361634 219.97601012 353.25451554 222.09420299 352.39144802 224.2148447 C351.60117941 226.12819424 350.78531326 228.03120404 349.94222927 229.92187595 C347.08902683 236.35094617 347.08902683 236.35094617 348.19027615 243.12304783 C349.8852365 246.60124772 351.77095816 249.95203375 353.69027615 253.31054783 C364.56335883 272.81547397 373.51800071 292.96882828 380.69027615 314.12304783 C380.94575222 314.87078465 381.20122829 315.61852146 381.46444607 316.38891697 C382.60155183 319.84180156 383.19027615 322.44760777 383.19027615 326.12304783 C383.75738308 326.25912449 384.32449001 326.39520115 384.90878201 326.53540134 C394.74856979 329.05050405 404.21366773 332.60826645 413.75277615 336.06054783 C417.49177498 337.40722621 421.23170371 338.75131491 424.97152615 340.09570408 C425.90888103 340.43315647 426.84623592 340.77060886 427.81199551 341.11828709 C434.0230636 343.35222429 440.24297904 345.55943524 446.47152615 347.74414158 C447.26711437 348.02339985 448.0627026 348.30265812 448.88239956 348.59037876 C451.91469771 349.65413876 454.94722671 350.71719253 457.98156643 351.77511692 C460.03244675 352.49027774 462.08214966 353.20872364 464.1316824 353.92773533 C465.28354031 354.3297617 466.43539822 354.73178806 467.62216091 355.14599705 C470.19027615 356.12304783 470.19027615 356.12304783 471.19027615 357.12304783 C471.2858565 358.56518782 471.31216009 360.01198862 471.31053066 361.4572916 C471.31190533 362.39263737 471.31327999 363.32798313 471.31469631 364.29167271 C471.31110104 365.32600941 471.30750576 366.36034611 471.30380154 367.42602634 C471.30394756 368.5088187 471.30409359 369.59161106 471.30424404 370.70721531 C471.30354438 374.30548157 471.29574948 377.9036968 471.2879324 381.50195408 C471.28606841 383.98917201 471.28464441 386.47639031 471.28364468 388.96360874 C471.28020964 394.85325974 471.27231892 400.74289173 471.26229519 406.63253492 C471.25003861 413.99330157 471.24465405 421.35407047 471.23910427 428.7148447 C471.22836429 441.85092181 471.21147704 454.98698365 471.19027615 468.12304783 C440.35100703 479.85117144 440.35100703 479.85117144 430.39364529 483.48925877 C428.07693581 484.3378703 425.76539932 485.20066456 423.45761013 486.07324314 C417.14219226 488.44649148 410.85011785 490.53742265 404.32308865 492.22851658 C392.11311504 495.06218373 392.11311504 495.06218373 382.48617458 502.3867197 C379.86042472 507.95186832 378.95788653 513.84468008 377.91195583 519.86572361 C376.61445876 525.72201793 374.16501403 531.08930396 371.75277615 536.56054783 C371.27445339 537.66479099 370.79613064 538.76903416 370.30331326 539.90673923 C365.7641612 550.28840281 361.01961333 560.48583757 355.1473074 570.18554783 C354.62717068 571.06678318 354.10703396 571.94801853 353.57113552 572.85595798 C352.55308327 574.57098935 351.50747657 576.27006913 350.43051052 577.94873142 C347.75586241 582.4088132 347.75586241 582.4088132 347.54264736 587.4539957 C347.81026379 588.24334003 348.07788021 589.03268436 348.35360622 589.84594822 C348.64569469 590.72005344 348.93778316 591.59415867 349.2387228 592.49475193 C350.67880751 596.47242565 352.16768636 600.42029043 353.74496365 604.34570408 C354.08327709 605.1977039 354.42159054 606.04970371 354.77015591 606.92752171 C355.86471776 609.6817315 356.96497917 612.43362484 358.06527615 615.18554783 C358.82475941 617.09397881 359.58378817 619.00259072 360.34237576 620.91137791 C361.87818687 624.77519393 363.41574625 628.63830715 364.9544363 632.50097752 C367.95559274 640.04065343 370.9295253 647.59100846 373.90005398 655.1427927 C374.74294354 657.28555179 375.58638484 659.42809285 376.43002224 661.57055759 C377.68378237 664.75458639 378.9371659 667.93876319 380.19027615 671.12304783 C376.08959538 676.00896534 371.84206764 680.63108737 367.31527615 685.12304783 C366.69668728 685.7397031 366.07809841 686.35635838 365.44076443 686.99170017 C361.82400998 690.57427159 358.13318401 693.99964504 354.24496365 697.28711033 C350.93642871 700.24340581 347.84868243 703.42184397 344.75228786 706.59814548 C342.07806818 709.31961608 339.33739008 711.88897624 336.44027615 714.37304783 C331.43522174 718.70251504 326.83202824 723.41096616 322.19027615 728.12304783 C317.46583961 732.91906674 312.73754544 737.71642982 307.81527615 742.31054783 C306.90648708 743.16712986 306.90648708 743.16712986 305.97933865 744.04101658 C304.19027615 745.12304783 304.19027615 745.12304783 302.27181911 744.92627048 C297.89786729 743.23845656 293.61133062 741.37480358 289.31527615 739.49804783 C288.35363552 739.08425877 287.3919949 738.6704697 286.40121365 738.24414158 C281.04885723 735.91487536 275.80103396 733.45038671 270.59652615 730.80664158 C262.05868159 726.49246155 253.32050174 722.65904742 244.56527615 718.81054783 C242.13220325 717.73784311 239.69956343 716.66416835 237.26733303 715.58955479 C235.76983776 714.92825445 234.27179931 714.26818227 232.77313137 713.6095438 C230.09645722 712.42992854 227.43952374 711.2528859 224.84457302 709.901124 C222.25968005 708.68535454 220.89128544 709.24311562 218.19027615 710.12304783 C215.42170413 711.47398689 212.75229974 712.99295016 210.06527615 714.49804783 C188.22381008 726.32157867 163.57086128 736.11231407 139.19027615 741.12304783 C139.06072536 741.69160496 138.93117458 742.26016209 138.79769802 742.84594822 C136.32981003 752.74674504 132.44142964 762.09465465 128.69027615 771.56054783 C127.97218934 773.38544248 127.25466471 775.21055845 126.53768826 777.03588963 C124.42864313 782.40095433 122.31019243 787.76227144 120.19027615 793.12304783 C118.52078558 797.34844136 116.8522322 801.57420099 115.1863699 805.80102634 C114.25304738 808.16723415 113.31698943 810.53236541 112.37777615 812.89624119 C111.96656521 813.93659519 111.55535427 814.9769492 111.1316824 816.04882908 C110.60103176 817.38554661 110.60103176 817.38554661 110.05966091 818.74926853 C109.05613697 821.35956742 109.05613697 821.35956742 108.19027615 825.12304783 C53.74027615 825.61804783 53.74027615 825.61804783 -1.80972385 826.12304783 C-7.4554297 812.5733538 -7.4554297 812.5733538 -9.90347385 806.30664158 C-10.17223331 805.61872028 -10.44099277 804.93079899 -10.71789646 804.22203159 C-11.58390254 802.00233402 -12.44720047 799.78160085 -13.30972385 797.56054783 C-13.60775913 796.79389805 -13.90579441 796.02724827 -14.21286106 795.23736668 C-18.95676011 783.02325134 -23.60810502 770.77578211 -28.18472385 758.49804783 C-28.47129856 757.7321735 -28.75787327 756.96629917 -29.05313206 756.17721653 C-29.85846384 754.02247674 -30.65916138 751.86607978 -31.45816135 749.70898533 C-31.91368382 748.48228123 -32.36920628 747.25557713 -32.83853245 745.99170017 C-33.80972385 743.12304783 -33.80972385 743.12304783 -33.80972385 741.12304783 C-34.68628635 740.93871189 -35.56284885 740.75437595 -36.46597385 740.56445408 C-59.48679129 735.30054765 -82.26264424 725.80707708 -102.8839426 714.35351658 C-103.65874973 713.92425877 -104.43355686 713.49500095 -105.23184299 713.05273533 C-106.65283993 712.25144613 -108.06330873 711.43104776 -109.45987034 710.58789158 C-112.517409 708.842759 -114.24775607 708.02208664 -117.7667551 708.65429783 C-118.77093479 709.13898533 -119.77511448 709.62367283 -120.80972385 710.12304783 C-121.39721409 710.39157566 -121.98470432 710.66010349 -122.58999729 710.93676853 C-124.69922333 711.90681103 -126.78496157 712.91913399 -128.87222385 713.93554783 C-138.31452748 718.4723566 -147.86120821 722.76274683 -157.43667698 727.0092783 C-163.920051 729.89127316 -170.36097208 732.84045811 -176.75503635 735.91601658 C-178.04540261 736.53239441 -179.33584741 737.14860783 -180.62637424 737.76464939 C-182.48892388 738.65415889 -184.34802861 739.54861974 -186.19934177 740.46130466 C-187.89742904 741.2984298 -189.60533936 742.11554013 -191.3136301 742.93164158 C-192.28115208 743.40400242 -193.24867405 743.87636326 -194.24551487 744.36303806 C-196.80972385 745.12304783 -196.80972385 745.12304783 -198.93594456 744.45141697 C-200.86003851 743.08737851 -202.57207592 741.68136038 -204.28628635 740.06054783 C-204.94830051 739.43720554 -205.61031467 738.81386326 -206.29238987 738.17163181 C-206.99936008 737.4955991 -207.7063303 736.81956638 -208.43472385 736.12304783 C-209.17456516 735.4218784 -209.91440647 734.72070896 -210.67666721 733.99829197 C-217.08765364 727.88896734 -223.3582362 721.64147991 -229.56802464 715.32812595 C-232.80070722 712.05599317 -236.04235197 708.87278999 -239.54409885 705.88867283 C-245.51952713 700.74746927 -250.96110906 695.03934326 -256.49722385 689.43554783 C-258.70650294 687.19951663 -260.91919098 684.96693846 -263.1339426 682.73632908 C-263.62988422 682.23208912 -264.12582584 681.72784916 -264.636796 681.2083292 C-266.90811536 678.92119208 -269.0221559 676.98371986 -271.72696018 675.20971775 C-273.80972385 673.12304783 -273.80972385 673.12304783 -273.90933323 670.13305759 C-272.64183092 664.56115953 -270.33152059 659.25278128 -268.21597385 653.96289158 C-267.75042088 652.78199451 -267.2848679 651.60109745 -266.80520725 650.38441563 C-265.56471164 647.24246878 -264.31758459 644.10332154 -263.06729221 640.96527195 C-261.82943491 637.85297637 -260.60149355 634.73679214 -259.37222385 631.6210947 C-258.40393717 629.17234374 -257.43519055 626.72377459 -256.46597385 624.27539158 C-255.99119602 623.07570744 -255.51641819 621.87602329 -255.02725315 620.63998508 C-252.7573726 614.92954331 -250.45197811 609.23989972 -248.0480051 603.58447361 C-247.62176853 602.57429676 -247.19553196 601.56411991 -246.75637913 600.52333164 C-245.96133887 598.64799419 -245.15544941 596.77720398 -244.33670139 594.91209507 C-243.98684177 594.08524708 -243.63698215 593.25839909 -243.27652073 592.40649509 C-242.8128812 591.33952145 -242.8128812 591.33952145 -242.33987522 590.25099277 C-241.13179871 585.40196199 -243.46821279 581.5640537 -245.80191135 577.42382908 C-246.41913059 576.31080418 -247.03634983 575.19777927 -247.67227268 574.05102634 C-248.00047001 573.46282108 -248.32866734 572.87461582 -248.66681004 572.26858616 C-254.12193294 562.4451127 -259.22985218 552.5371606 -263.62222385 542.18554783 C-264.06952854 541.14398533 -264.51683323 540.10242283 -264.9776926 539.02929783 C-267.39303427 533.20406205 -269.35480994 527.3875781 -270.9698801 521.29492283 C-273.83505074 508.63473415 -273.83505074 508.63473415 -280.90933323 498.3217783 C-285.95503844 495.60945004 -291.35377285 494.6643336 -296.95327854 493.70312595 C-301.70205953 492.73875812 -306.07121068 490.91389344 -310.55972385 489.12304783 C-312.53329083 488.36860292 -314.50868362 487.61892351 -316.4855051 486.87304783 C-318.15347141 486.24269627 -318.15347141 486.24269627 -319.85513401 485.59961033 C-324.69675611 483.78374554 -329.55636948 482.01724939 -334.4151926 480.24804783 C-335.34503971 479.90926609 -336.27488682 479.57048435 -337.23291111 479.2214365 C-341.01543103 477.84388603 -344.79819739 476.46704898 -348.58279514 475.0952158 C-351.25174552 474.12767292 -353.91948593 473.15685666 -356.5870676 472.18554783 C-357.40257587 471.89115818 -358.21808414 471.59676853 -359.05830479 471.29345798 C-364.69630802 469.23646366 -364.69630802 469.23646366 -365.80972385 468.12304783 C-365.90530421 466.68090784 -365.9316078 465.23410703 -365.92997837 463.78880405 C-365.93135303 462.85345829 -365.9327277 461.91811253 -365.93414402 460.95442295 C-365.93054874 459.92008625 -365.92695347 458.88574955 -365.92324924 457.82006931 C-365.92339527 456.73727695 -365.9235413 455.6544846 -365.92369175 454.53888035 C-365.92299208 450.94061409 -365.91519719 447.34239886 -365.9073801 443.74414158 C-365.90551611 441.25692365 -365.90409212 438.76970535 -365.90309238 436.28248692 C-365.89965735 430.39283592 -365.89176663 424.50320393 -365.88174289 418.61356074 C-365.86948632 411.25279409 -365.86410176 403.89202519 -365.85855198 396.53125095 C-365.847812 383.39517384 -365.83092475 370.259112 -365.80972385 357.12304783 C-355.35327964 352.89482062 -355.35327964 352.89482062 -350.28189182 351.15942478 C-349.31903263 350.8284026 -348.35617344 350.49738041 -347.3641367 350.15632725 C-346.35360233 349.81147785 -345.34306797 349.46662846 -344.30191135 349.11132908 C-342.07403553 348.34508571 -339.84617134 347.57880852 -337.6183176 346.81250095 C-334.17515714 345.63151003 -330.73162876 344.45160418 -327.2877512 343.27270603 C-313.83046364 338.66192407 -300.43294832 333.9490269 -287.15173435 328.84944248 C-286.21403202 328.4913802 -285.27632969 328.13331791 -284.31021214 327.76440525 C-283.48626957 327.44662617 -282.662327 327.12884708 -281.81341648 326.80143833 C-279.80972385 326.12304783 -279.80972385 326.12304783 -277.80972385 326.12304783 C-277.62409885 325.20652439 -277.62409885 325.20652439 -277.43472385 324.27148533 C-271.17279834 296.48419086 -257.97704054 269.75588667 -243.94790745 245.16821384 C-243.38450657 244.15585667 -243.38450657 244.15585667 -242.80972385 243.12304783 C-242.37530979 242.5247617 -241.94089573 241.92647556 -241.4933176 241.31005955 C-240.39676763 237.80188288 -242.04954747 235.07672787 -243.47378635 231.87695408 C-243.7771088 231.16198765 -244.08043125 230.44702122 -244.39294529 229.71038914 C-245.39270217 227.36242499 -246.4137051 225.02433448 -247.43472385 222.68554783 C-248.13102646 221.05954065 -248.82567404 219.4328238 -249.51870823 217.80542088 C-250.92871163 214.49772758 -252.34564424 211.19314086 -253.76773167 207.89062595 C-256.68464988 201.1009825 -259.49884693 194.26960378 -262.30972385 187.43554783 C-266.17302243 178.0423104 -266.17302243 178.0423104 -270.1417551 168.69336033 C-270.65222385 167.49779514 -270.65222385 167.49779514 -271.1730051 166.27807713 C-271.77942192 164.86138886 -272.39447754 163.44834695 -273.02066135 162.04028416 C-274.48634431 158.59473236 -275.14645248 156.6441873 -273.80972385 153.12304783 C-272.33863926 151.28447056 -272.33863926 151.28447056 -270.42666721 149.38354588 C-269.71179646 148.66567402 -268.9969257 147.94780216 -268.26039219 147.20817661 C-267.48132008 146.4414513 -266.70224796 145.67472599 -265.8995676 144.88476658 C-265.09870228 144.08577442 -264.29783695 143.28678226 -263.47270298 142.46357822 C-261.77383852 140.77144051 -260.07137804 139.08290666 -258.36563206 137.39770603 C-255.7748579 134.83785207 -253.19468235 132.26770699 -250.61636448 129.69531345 C-248.96138172 128.04951129 -247.30580125 126.40430992 -245.6495676 124.75976658 C-244.88466511 123.99911396 -244.11976261 123.23846134 -243.33168125 122.45475864 C-239.23464791 118.41113894 -235.04657491 114.54278624 -230.68904209 110.7824564 C-227.74193189 108.18020424 -224.9854117 105.40362295 -222.2276926 102.60351658 C-221.64683399 102.01887135 -221.06597538 101.43422611 -220.46751499 100.83186436 C-218.64158712 98.99388223 -216.81899763 97.15264688 -214.99722385 95.31054783 C-212.57693824 92.86364826 -210.15333579 90.42010386 -207.7276926 87.97851658 C-206.90267498 87.14105145 -206.90267498 87.14105145 -206.06099033 86.28666782 C-203.73581257 83.94656217 -201.56520404 81.96003462 -198.80972385 80.12304783 C-194.03684056 80.45042971 -189.73012181 82.78767998 -185.43472385 84.74804783 C-184.63163792 85.11067722 -183.82855198 85.47330662 -183.0011301 85.84692478 C-180.60141962 86.93340226 -178.20540401 88.02771867 -175.80972385 89.12304783 C-174.62120823 89.66058689 -173.4326926 90.19812595 -172.20816135 90.75195408 C-165.19617251 93.96779724 -158.29340649 97.37292038 -151.40445042 100.84472752 C-145.88322378 103.62512167 -140.35107786 106.38299796 -134.80972385 109.12304783 C-133.87402561 109.58582127 -132.93832737 110.0485947 -131.97427464 110.52539158 C-129.51343001 111.72816652 -127.0409701 112.9005698 -124.55972385 114.06054783 C-123.85227024 114.40851414 -123.14481663 114.75648045 -122.41592503 115.11499119 C-119.29487184 116.53795333 -117.29213826 117.21321875 -113.8839426 116.57617283 C-112.86945042 116.09664158 -111.85495823 115.61711033 -110.80972385 115.12304783 C-109.81754856 114.67360813 -109.81754856 114.67360813 -108.80532932 114.21508884 C-106.47890232 113.15208592 -104.17566633 112.04742636 -101.87222385 110.93554783 C-100.59955662 110.33009129 -100.59955662 110.33009129 -99.30117893 109.7124033 C-95.61393216 107.95782791 -91.9387187 106.18754525 -88.28628635 104.36132908 C-79.57857315 100.09020609 -70.59217785 96.70682595 -61.49722385 93.37304783 C-60.8472443 93.13434971 -60.19726475 92.89565159 -59.52758884 92.64972019 C-38.9631 85.12304783 -38.9631 85.12304783 -33.80972385 85.12304783 C-33.56536594 84.25450169 -33.56536594 84.25450169 -33.31607151 83.36840916 C-31.28845774 76.36975998 -28.80464831 69.60655582 -26.18472385 62.81054783 C-25.21532994 60.27823966 -24.24659647 57.74568544 -23.27847385 55.21289158 C-23.01501163 54.52470341 -22.75154942 53.83651524 -22.48010349 53.12747288 C-20.07747733 46.84422633 -17.70758065 40.54884184 -15.34097385 34.25195408 C-14.56447644 32.18789562 -13.78794643 30.12384941 -13.01138401 28.05981541 C-11.84752592 24.96618171 -10.68443284 21.87227184 -9.52377415 18.77743626 C-8.43145318 15.86566383 -7.33578028 12.95517303 -6.23941135 10.04492283 C-5.90759861 9.1577306 -5.57578587 8.27053837 -5.23391819 7.35646152 C-4.92877293 6.5482143 -4.62362766 5.73996708 -4.30923557 4.90722752 C-4.04263126 4.1974979 -3.77602695 3.48776829 -3.50134373 2.75653172 C-2.58058006 0.58185069 -2.3973536 0.1630023 0 0 Z M41.19027615 90.12304783 C41.19027615 111.24304783 41.19027615 132.36304783 41.19027615 154.12304783 C29.80527615 155.11304783 29.80527615 155.11304783 18.19027615 156.12304783 C13.75298811 156.78791835 9.44321496 157.47161084 5.06527615 158.37304783 C3.44311184 158.69946262 3.44311184 158.69946262 1.78817654 159.03247166 C-23.28688538 164.2296336 -47.2634974 172.94488076 -69.80972385 185.12304783 C-70.78014622 185.63835056 -70.78014622 185.63835056 -71.77017307 186.16406345 C-82.2947677 191.77376213 -92.14621333 198.14144719 -101.80972385 205.12304783 C-102.37256077 205.52604099 -102.93539768 205.92903416 -103.51529026 206.34423923 C-113.37381152 213.45622561 -122.08599674 221.68429433 -130.80972385 230.12304783 C-131.40349827 230.6895908 -131.99727268 231.25613377 -132.60904026 231.8398447 C-140.32893858 239.21132865 -147.1641363 246.93290848 -153.56607151 255.47363377 C-154.71589501 256.9986058 -155.8925582 258.50324083 -157.0714426 260.00586033 C-167.16777626 273.02052383 -175.87154812 287.09601149 -182.8268137 302.02587986 C-183.8671968 304.24567391 -184.94190115 306.44710405 -186.0167551 308.65039158 C-200.21056736 338.31154762 -205.33457791 369.67823975 -209.80972385 402.12304783 C-231.91972385 402.45304783 -254.02972385 402.78304783 -276.80972385 403.12304783 C-276.80972385 409.72304783 -276.80972385 416.32304783 -276.80972385 423.12304783 C-254.36972385 423.12304783 -231.92972385 423.12304783 -208.80972385 423.12304783 C-208.47972385 428.40304783 -208.14972385 433.68304783 -207.80972385 439.12304783 C-207.17992215 443.80492083 -206.50436905 448.41502504 -205.68472385 453.06054783 C-205.46735569 454.29982029 -205.24998753 455.53909275 -205.02603245 456.81591892 C-196.96169296 500.85789006 -178.43486733 543.29772208 -148.80972385 577.12304783 C-147.67470432 578.4320908 -147.67470432 578.4320908 -146.5167551 579.76757908 C-145.38057445 581.06774457 -144.23707667 582.36164737 -143.0792551 583.64257908 C-141.80972385 585.12304783 -141.80972385 585.12304783 -139.80972385 588.12304783 C-139.14972385 588.12304783 -138.48972385 588.12304783 -137.80972385 588.12304783 C-137.54417698 588.71472752 -137.2786301 589.3064072 -137.00503635 589.91601658 C-133.47382253 596.43606824 -126.38809325 601.37855839 -120.80972385 606.12304783 C-119.93573948 606.87457127 -119.0617551 607.6260947 -118.16128635 608.40039158 C-80.10293729 640.69387008 -35.27110981 660.55029383 13.81527615 668.99804783 C15.0478616 669.21364353 16.28044704 669.42923923 17.55038357 669.65136814 C18.74381374 669.84569431 19.93724392 670.04002048 21.16683865 670.24023533 C22.73039089 670.4971616 22.73039089 670.4971616 24.32553005 670.7592783 C29.92367588 671.28620422 35.56738653 671.12304783 41.19027615 671.12304783 C41.19027615 692.90304783 41.19027615 714.68304783 41.19027615 737.12304783 C48.12027615 737.12304783 55.05027615 737.12304783 62.19027615 737.12304783 C62.19027615 715.34304783 62.19027615 693.56304783 62.19027615 671.12304783 C67.47027615 671.12304783 72.75027615 671.12304783 78.19027615 671.12304783 C82.64200257 670.66056435 86.97093734 670.14131767 91.37777615 669.43554783 C92.53487087 669.25548191 93.6919656 669.07541599 94.8841238 668.88989353 C148.39737448 660.26098322 198.48899616 635.34250016 236.19027615 596.12304783 C238.59435482 593.69961264 241.00928816 591.29569678 243.47933865 588.93945408 C283.61768703 550.21064636 308.8196833 490.33053646 313.19027615 435.12304783 C313.19027615 431.16304783 313.19027615 427.20304783 313.19027615 423.12304783 C335.96027615 423.12304783 358.73027615 423.12304783 382.19027615 423.12304783 C382.52027615 416.52304783 382.85027615 409.92304783 383.19027615 403.12304783 C360.09027615 403.12304783 336.99027615 403.12304783 313.19027615 403.12304783 C313.19027615 400.15304783 313.19027615 397.18304783 313.19027615 394.12304783 C310.38304553 359.62006939 299.78222992 327.26606027 285.19027615 296.12304783 C285.67270779 295.82914158 286.15513943 295.53523533 286.65219021 295.23242283 C306.78700643 281.90495531 309.02403156 260.02247501 313.55795193 237.99170017 C315.24231522 229.80875945 317.02947212 221.64959002 318.82353115 213.49010181 C322.1792948 198.22301476 325.4792242 182.94467197 328.71723843 167.65217686 C330.26825 160.34469122 331.88390978 153.06143387 333.65254116 145.80302525 C334.32142815 142.92497461 334.32142815 142.92497461 334.19027615 139.12304783 C326.4003998 139.6363324 319.08177395 141.18039046 311.5223074 143.08007908 C309.70229717 143.52883144 309.70229717 143.52883144 307.84551907 143.98664951 C304.57326064 144.79524655 301.30268322 145.61005058 298.03283215 146.42829227 C295.30802424 147.10914736 292.58204427 147.78524222 289.85606384 148.46138477 C281.60986719 150.50701369 273.36783972 152.56908569 265.12724209 154.63713932 C263.25526815 155.10674389 261.38311468 155.57563262 259.51095486 156.04449558 C252.95219046 157.68708597 246.39511802 159.33611429 239.84100246 160.99716282 C237.89534989 161.49019345 235.94941503 161.98211172 234.00317287 162.47280979 C228.83235876 163.77874243 223.66989094 165.11021191 218.52014065 166.49704075 C216.97562991 166.91203255 215.42946045 167.32090275 213.88165188 167.72342014 C205.19984891 170.00469678 198.35202387 172.22584514 192.37777615 179.31054783 C191.24780249 180.55543405 190.11635232 181.79898206 188.9832449 183.04101658 C188.51426785 183.58524265 188.04529079 184.12946873 187.56210232 184.6901865 C186.19027615 186.12304783 186.19027615 186.12304783 183.19027615 188.12304783 C183.19027615 188.78304783 183.19027615 189.44304783 183.19027615 190.12304783 C182.37687771 189.63836033 181.56347927 189.15367283 180.7254324 188.65429783 C151.60091353 171.51485763 119.55872146 161.14142232 86.19027615 156.12304783 C85.36140896 155.99156345 84.53254177 155.86007908 83.6785574 155.72461033 C76.57048039 154.75234101 69.34751395 155.0381794 62.19027615 155.12304783 C62.19551296 154.5041367 62.20074978 153.88522556 62.20614529 153.24755955 C62.35686064 132.18938208 61.8155434 111.16999028 61.19027615 90.12304783 C54.59027615 90.12304783 47.99027615 90.12304783 41.19027615 90.12304783 Z " fill="#030303" transform="translate(470.80972385406494,113.87695217132568)"/>
<path d="M0 0 C0.74822021 -0.00467285 1.49644043 -0.0093457 2.26733398 -0.01416016 C7.56438216 0.00188216 7.56438216 0.00188216 8.6875 1.125 C8.77498207 3.05167507 8.79447334 4.98151861 8.78515625 6.91015625 C8.78193359 8.07998047 8.77871094 9.24980469 8.77539062 10.45507812 C8.76701172 11.68677734 8.75863281 12.91847656 8.75 14.1875 C8.74548828 15.42306641 8.74097656 16.65863281 8.73632812 17.93164062 C8.72449608 20.99614117 8.70801173 24.06054721 8.6875 27.125 C7.61943115 27.13901855 7.61943115 27.13901855 6.52978516 27.15332031 C-54.72079633 28.15245022 -107.64467565 47.97874638 -152.3125 90.125 C-153.59640625 91.32769531 -153.59640625 91.32769531 -154.90625 92.5546875 C-161.7844007 99.1934089 -167.598845 106.48905864 -173.3125 114.125 C-173.93898438 114.95644531 -174.56546875 115.78789062 -175.2109375 116.64453125 C-207.13928054 160.63968939 -220.46647517 217.47529485 -212.72314453 271.16113281 C-205.27687159 317.36621106 -182.92099038 362.19803915 -148.3125 394.125 C-147.74917969 394.64707031 -147.18585938 395.16914062 -146.60546875 395.70703125 C-123.89376049 416.12366162 -98.23542699 431.28458258 -69.3125 441.125 C-68.21542725 441.49963379 -68.21542725 441.49963379 -67.09619141 441.88183594 C-47.20581685 448.52578315 -26.61962245 451.08333392 -5.75 451.6875 C-4.34569297 451.73079176 -2.94139594 451.77440904 -1.53710938 451.81835938 C1.87100951 451.92376511 5.2791932 452.02588982 8.6875 452.125 C9.5325235 457.97980565 9.84154981 463.65086278 9.8125 469.5625 C9.81636719 470.37654297 9.82023438 471.19058594 9.82421875 472.02929688 C9.81426222 477.99823778 9.81426222 477.99823778 8.6875 479.125 C-23.55656529 481.26616944 -56.14736569 475.49208813 -86.3125 464.125 C-87.00569336 463.86638184 -87.69888672 463.60776367 -88.41308594 463.34130859 C-111.70598075 454.52967439 -132.8784011 441.63999034 -152.3125 426.125 C-153.34375 425.30257813 -154.375 424.48015625 -155.4375 423.6328125 C-168.56402852 412.75348859 -181.02678593 400.75597434 -191.3125 387.125 C-191.92520752 386.33488525 -191.92520752 386.33488525 -192.55029297 385.52880859 C-231.04133589 335.85330735 -248.82815855 272.29892801 -240.99609375 209.828125 C-237.71555039 186.37199628 -231.27741006 163.61537117 -221.3125 142.125 C-220.95881348 141.3427002 -220.60512695 140.56040039 -220.24072266 139.75439453 C-211.18431048 119.87062812 -199.09538624 101.23340339 -184.3125 85.125 C-183.41302604 84.11941571 -182.51460634 83.11288753 -181.6171875 82.10546875 C-178.89406308 79.06869875 -176.11684824 76.08676488 -173.3125 73.125 C-172.60722168 72.37669922 -172.60722168 72.37669922 -171.88769531 71.61328125 C-164.85786498 64.2074478 -157.42167669 57.67598428 -149.24023438 51.56982422 C-147.23408671 50.06622976 -145.25072538 48.53514821 -143.265625 47.00390625 C-109.08768035 21.06392351 -65.95903672 5.08569348 -23.3125 1.125 C-22.16007813 1.01414062 -21.00765625 0.90328125 -19.8203125 0.7890625 C-13.21242794 0.23465949 -6.62782411 0.02914549 0 0 Z " fill="#0A0A0A" transform="translate(523.3125,286.875)"/>
<path d="M0 0 C-0.67906895 8.01530261 -2.3601655 15.71565346 -4.1328125 23.55078125 C-4.45123953 24.97292498 -4.76933739 26.39514244 -5.08712769 27.81742859 C-5.75489808 30.80110101 -6.42599346 33.78399944 -7.09960938 36.76635742 C-7.94210606 40.49717144 -8.77736887 44.22955718 -9.61046219 47.96248055 C-11.23028772 55.21764791 -12.87505165 62.46655952 -14.55247879 69.70863533 C-15.51212394 73.85669827 -16.44741674 78.00920345 -17.36322975 82.16715336 C-18.07316093 85.35965584 -18.81657968 88.54438281 -19.5546875 91.73046875 C-19.92184372 93.44499992 -19.92184372 93.44499992 -20.29641724 95.19416809 C-21.98095434 102.27191655 -24.21855461 106.49046759 -30 111 C-33.42149433 109.39181349 -35.33452513 107.7586394 -37.8125 104.875 C-42.11991203 99.9769395 -46.49912938 95.15494669 -50.9375 90.375 C-51.60048096 89.6516748 -52.26346191 88.92834961 -52.9465332 88.18310547 C-53.57132568 87.51166504 -54.19611816 86.84022461 -54.83984375 86.1484375 C-55.40050537 85.54177246 -55.96116699 84.93510742 -56.53881836 84.31005859 C-57.92110792 82.77748182 -57.92110792 82.77748182 -60 83 C-61.33252309 84.27873959 -61.33252309 84.27873959 -62.75 86.0625 C-71.38805979 96.20907751 -80.65632053 105.81065747 -90.18359375 115.12109375 C-92.30836098 117.23983754 -94.27682485 119.45330598 -96.23046875 121.73046875 C-100.52918811 126.69658529 -105.19733997 131.26886383 -109.875 135.875 C-111.58300524 137.5575885 -113.28885251 139.24237133 -114.9921875 140.9296875 C-116.11149658 142.03159424 -116.11149658 142.03159424 -117.25341797 143.15576172 C-119.06693877 144.89194424 -119.06693877 144.89194424 -120 147 C-120.66 147 -121.32 147 -122 147 C-122.27270218 147.59834656 -122.54540436 148.19669312 -122.82637024 148.81317139 C-123.9700961 150.94427996 -125.06596894 152.30322739 -126.77807617 153.98925781 C-127.33593307 154.54373596 -127.89378998 155.09821411 -128.46855164 155.66949463 C-129.07060928 156.25809265 -129.67266693 156.84669067 -130.29296875 157.453125 C-130.91722244 158.07217712 -131.54147614 158.69122925 -132.18464661 159.32904053 C-134.1808997 161.30751147 -136.183688 163.27918743 -138.1875 165.25 C-140.17263766 167.20732784 -142.1562284 169.16615943 -144.13679504 171.12811279 C-145.36725678 172.34652827 -146.60037835 173.56226621 -147.8367157 174.77471924 C-150.79923682 177.70351063 -153.63051739 180.68541762 -156.34692383 183.84472656 C-160.47196566 188.61772478 -164.92528519 193.03211922 -169.40625 197.46875 C-170.28978149 198.34849487 -171.17331299 199.22823975 -172.08361816 200.13464355 C-175.3597232 203.39656945 -178.6403498 206.65392564 -181.92132568 209.91094971 C-185.14830538 213.1148726 -188.3713808 216.32269116 -191.59375 219.53125 C-192.43248657 220.36168823 -193.27122314 221.19212646 -194.13537598 222.04772949 C-198.43171444 226.32627773 -202.57122937 230.66946497 -206.50456238 235.28533936 C-209.66010183 238.90346373 -213.19315541 242.15201212 -216.64453125 245.484375 C-219.42270325 248.40664388 -219.42270325 248.40664388 -221 252 C-220.44628404 253.96350194 -220.44628404 253.96350194 -219.25 255.8125 C-213.41904331 265.77029575 -213.66972691 278.41407559 -215.6171875 289.51953125 C-219.42176986 302.36420534 -228.2517316 311.85926468 -239.8125 318.25 C-252.70431674 324.18432834 -265.66286151 324.46945496 -279 320 C-290.74916167 315.17770657 -298.7505047 307.71816227 -304.36328125 296.203125 C-309.27975173 284.11754667 -310.18080915 270.02548083 -305.3203125 257.73828125 C-298.69997566 244.00793769 -289.69148367 235.26395287 -275.34375 230.03125 C-264.32270378 226.61092531 -252.47914343 226.76042829 -242 232 C-241.02716064 231.026073 -241.02716064 231.026073 -240.03466797 230.0324707 C-236.96756448 226.96530005 -233.89321846 223.90542145 -230.81936646 220.84501648 C-227.46840845 217.50747643 -224.1201221 214.16726155 -220.77197266 210.8269043 C-219.01180501 209.07176942 -217.25074143 207.31753257 -215.48876953 205.56420898 C-212.93021422 203.01786006 -210.37497018 200.4682273 -207.8203125 197.91796875 C-207.04092316 197.14374069 -206.26153381 196.36951263 -205.45852661 195.57182312 C-201.30265613 191.41637447 -197.32905665 187.17093538 -193.49411011 182.71772766 C-191.76190947 180.7262754 -189.94706813 178.8474541 -188.0625 177 C-187.39476562 176.34 -186.72703125 175.68 -186.0390625 175 C-184.6796875 173.66666667 -183.3203125 172.33333333 -181.9609375 171 C-181.29320312 170.34 -180.62546875 169.68 -179.9375 169 C-179.05384766 168.13375 -179.05384766 168.13375 -178.15234375 167.25 C-176.27254953 165.28491566 -174.4952067 163.27635636 -172.71875 161.21875 C-169.16572569 157.13388104 -165.41414731 153.30185194 -161.5625 149.5 C-160.53684937 148.4800293 -160.53684937 148.4800293 -159.49047852 147.43945312 C-156.60262227 144.56774857 -153.70876925 141.70211562 -150.81542969 138.8359375 C-148.68734275 136.72607213 -146.56237083 134.61310355 -144.4375 132.5 C-143.79562744 131.86642578 -143.15375488 131.23285156 -142.49243164 130.58007812 C-138.72225265 126.83006578 -135.17881834 122.95270886 -131.70385742 118.92871094 C-129.07257221 115.95018204 -126.26784025 113.16297358 -123.4375 110.375 C-122.84251709 109.78380371 -122.24753418 109.19260742 -121.63452148 108.58349609 C-119.12900944 106.09408927 -116.61747735 103.61078987 -114.10644531 101.12695312 C-105.10135916 92.24187218 -105.10135916 92.24187218 -96.62841797 82.85546875 C-93.29546036 79.05779591 -89.6536985 75.55119372 -86.0625 72 C-85.28326172 71.22527344 -84.50402344 70.45054687 -83.70117188 69.65234375 C-81.8030758 67.76589243 -79.90266851 65.88183755 -78 64 C-78.72574219 63.27554688 -79.45148438 62.55109375 -80.19921875 61.8046875 C-81.93630042 60.06518313 -83.66895135 58.32122718 -85.39453125 56.5703125 C-90.42308355 51.4848945 -95.54475422 46.622899 -101 42 C-102.33354912 40.85441781 -103.66689367 39.70859743 -105 38.5625 C-105.99 37.716875 -106.98 36.87125 -108 36 C-105.40276923 30.39479214 -101.99888393 26.24351899 -96.18566895 23.83300781 C-92.73332975 22.80547719 -89.27363391 21.94267985 -85.765625 21.125 C-84.44213483 20.79731112 -83.11924968 20.46717028 -81.79693604 20.13476562 C-78.98798782 19.43212543 -76.17620724 18.74296918 -73.36157227 18.06347656 C-68.9982935 17.0061493 -64.64952653 15.89638678 -60.30273438 14.7734375 C-52.20659846 12.68391434 -44.10339478 10.62335131 -35.99798584 8.57012939 C-32.93714478 7.79384538 -29.87711044 7.01440509 -26.8170433 6.2350769 C-23.85105367 5.48022656 -20.88451017 4.72757241 -17.91779327 3.97558594 C-16.51254986 3.61906974 -15.10749238 3.26181978 -13.70262909 2.90380859 C-11.76945323 2.41146146 -9.83543145 1.92243935 -7.90136719 1.43359375 C-6.80604675 1.15572021 -5.71072632 0.87784668 -4.58221436 0.59155273 C-2 0 -2 0 0 0 Z " fill="#060606" transform="translate(781,277)"/>
<path d="M0 0 C1.093125 0.00257813 2.18625 0.00515625 3.3125 0.0078125 C4.405625 0.00523437 5.49875 0.00265625 6.625 0 C9.3125 0.1328125 9.3125 0.1328125 10.3125 1.1328125 C10.39976223 2.91352496 10.41949041 4.6976439 10.41015625 6.48046875 C10.40693359 7.56005859 10.40371094 8.63964844 10.40039062 9.75195312 C10.39201172 10.88826172 10.38363281 12.02457031 10.375 13.1953125 C10.37048828 14.33548828 10.36597656 15.47566406 10.36132812 16.65039062 C10.34949747 19.47791601 10.3330141 22.3053389 10.3125 25.1328125 C11.4365625 25.09929687 12.560625 25.06578125 13.71875 25.03125 C18.54751158 25.0376148 23.09077167 25.7984083 27.8125 26.7578125 C28.67601074 26.93094971 29.53952148 27.10408691 30.42919922 27.2824707 C39.35829174 29.18201575 48.12987753 32.04150126 56.3125 36.1328125 C54.02652806 41.17171443 50.41550943 44.92386592 46.75 49.0078125 C46.07130859 49.81734375 45.39261719 50.626875 44.69335938 51.4609375 C42.65989333 53.70714127 40.8858029 55.52879084 38.3125 57.1328125 C34.96411444 57.2681249 32.38776733 56.37295186 29.3125 55.1328125 C23.01332818 53.320165 16.84939843 52.58943408 10.3125 52.1328125 C10.39628906 53.38578125 10.48007812 54.63875 10.56640625 55.9296875 C10.66959509 57.58070893 10.77244178 59.23175177 10.875 60.8828125 C10.93107422 61.7078125 10.98714844 62.5328125 11.04492188 63.3828125 C11.09326172 64.18203125 11.14160156 64.98125 11.19140625 65.8046875 C11.2385376 66.5378418 11.28566895 67.27099609 11.33422852 68.02636719 C11.3125 70.1328125 11.3125 70.1328125 10.3125 74.1328125 C5.6925 74.1328125 1.0725 74.1328125 -3.6875 74.1328125 C-3.6875 66.5428125 -3.6875 58.9528125 -3.6875 51.1328125 C-20.60741886 54.21397452 -20.60741886 54.21397452 -36.6875 60.1328125 C-38.28271484 60.86951172 -38.28271484 60.86951172 -39.91015625 61.62109375 C-61.14639589 72.22655789 -76.38466563 91.07023269 -84.6875 113.1328125 C-87.22431016 121.01210462 -88.66012638 128.91382357 -89.6875 137.1328125 C-82.4275 137.1328125 -75.1675 137.1328125 -67.6875 137.1328125 C-67.6875 141.7528125 -67.6875 146.3728125 -67.6875 151.1328125 C-74.9475 151.1328125 -82.2075 151.1328125 -89.6875 151.1328125 C-85.77762147 178.04197651 -75.66136662 200.71221701 -54 217.8828125 C-38.65307834 228.82220944 -22.27285282 233.85705501 -3.6875 236.1328125 C-3.6875 228.8728125 -3.6875 221.6128125 -3.6875 214.1328125 C-0.6875 213.1328125 -0.6875 213.1328125 10.3125 213.1328125 C10.3125 220.7228125 10.3125 228.3128125 10.3125 236.1328125 C37.65642172 230.29721945 62.17664279 220.7445744 78.33984375 196.4128418 C87.01813761 182.70463255 92.01684882 168.20237078 94.3125 152.1328125 C82.9275 151.6378125 82.9275 151.6378125 71.3125 151.1328125 C71.3125 146.5128125 71.3125 141.8928125 71.3125 137.1328125 C79.2325 137.1328125 87.1525 137.1328125 95.3125 137.1328125 C93.07009627 126.25300182 90.66399932 116.360316 86.3125 106.1328125 C85.64269209 104.46740577 84.97497302 102.80115051 84.3125 101.1328125 C84.7156543 100.73489502 85.11880859 100.33697754 85.53417969 99.92700195 C87.37964477 98.10247193 89.22109013 96.2739348 91.0625 94.4453125 C92.01382813 93.50655273 92.01382813 93.50655273 92.984375 92.54882812 C95.70685333 89.84052937 98.26108179 87.19812053 100.640625 84.17578125 C101.19234375 83.50160156 101.7440625 82.82742188 102.3125 82.1328125 C102.9725 82.1328125 103.6325 82.1328125 104.3125 82.1328125 C113.3507797 98.9706229 121.3125 117.66940517 121.3125 137.1328125 C129.2325 137.1328125 137.1525 137.1328125 145.3125 137.1328125 C145.3125 141.7528125 145.3125 146.3728125 145.3125 151.1328125 C137.3925 151.1328125 129.4725 151.1328125 121.3125 151.1328125 C120.94125 154.5978125 120.94125 154.5978125 120.5625 158.1328125 C117.17599993 185.57640149 105.32725976 208.21773267 86.3125 228.1328125 C85.77625 228.73222656 85.24 229.33164062 84.6875 229.94921875 C68.11202223 247.80929604 42.19260607 259.06366696 18.3125 262.1328125 C15.6725 262.1328125 13.0325 262.1328125 10.3125 262.1328125 C10.3125 270.3828125 10.3125 278.6328125 10.3125 287.1328125 C0.25390625 287.23046875 0.25390625 287.23046875 -2.6875 287.1328125 C-3.6875 286.1328125 -3.6875 286.1328125 -3.80102539 283.81616211 C-3.79578857 282.81593018 -3.79055176 281.81569824 -3.78515625 280.78515625 C-3.78193359 279.70556641 -3.77871094 278.62597656 -3.77539062 277.51367188 C-3.76701172 276.37736328 -3.75863281 275.24105469 -3.75 274.0703125 C-3.74548828 272.93013672 -3.74097656 271.78996094 -3.73632812 270.61523438 C-3.72449747 267.78770899 -3.7080141 264.9602861 -3.6875 262.1328125 C-4.43628418 262.15601563 -5.18506836 262.17921875 -5.95654297 262.203125 C-12.87396583 262.32522923 -19.10638718 261.80999103 -25.8125 260.1328125 C-26.70775391 259.91278564 -27.60300781 259.69275879 -28.52539062 259.46606445 C-55.85454352 252.34648213 -82.90646307 234.56114627 -97.6875 210.1328125 C-98.0376416 209.56224121 -98.3877832 208.99166992 -98.74853516 208.40380859 C-109.71715629 190.36890917 -115.50993956 172.32890036 -116.6875 151.1328125 C-124.6075 151.1328125 -132.5275 151.1328125 -140.6875 151.1328125 C-140.6875 146.5128125 -140.6875 141.8928125 -140.6875 137.1328125 C-132.7675 137.1328125 -124.8475 137.1328125 -116.6875 137.1328125 C-116.48125 134.7403125 -116.275 132.3478125 -116.0625 129.8828125 C-113.5103401 106.79377618 -103.71892668 84.8277025 -88.6875 67.1328125 C-87.93210937 66.21628906 -87.17671875 65.29976563 -86.3984375 64.35546875 C-67.83144191 42.79477192 -39.93775783 28.31681946 -11.6875 25.1328125 C-9.01410906 25.0603916 -6.36278553 25.08587767 -3.6875 25.1328125 C-3.69273682 24.41101807 -3.69797363 23.68922363 -3.70336914 22.94555664 C-3.72407358 19.69548401 -3.73713918 16.44542522 -3.75 13.1953125 C-3.75837891 12.05900391 -3.76675781 10.92269531 -3.77539062 9.75195312 C-3.77861328 8.67236328 -3.78183594 7.59277344 -3.78515625 6.48046875 C-3.79039307 5.48023682 -3.79562988 4.48000488 -3.80102539 3.44946289 C-3.63694603 0.10118534 -3.37620918 0.16684755 0 0 Z " fill="#0B0B0B" transform="translate(517.6875,408.8671875)"/>
<path d="M0 0 C0.66 0.33 1.32 0.66 2 1 C1.57702637 1.39268066 1.15405273 1.78536133 0.71826172 2.18994141 C-1.23058323 4.0004572 -3.17779846 5.81271692 -5.125 7.625 C-5.79015625 8.24246094 -6.4553125 8.85992187 -7.140625 9.49609375 C-11.17605445 13.25458196 -15.12474285 17.07645304 -19 21 C-19.66 20.67 -20.32 20.34 -21 20 C-14.50974354 12.46792363 -7.89542071 6.07917374 0 0 Z " fill="#474847" transform="translate(450,456)"/>
<path d="M0 0 C0.66 0 1.32 0 2 0 C2.33 0.99 2.66 1.98 3 3 C2.01 3.495 2.01 3.495 1 4 C-3.20652198 6.80434799 -6.51503815 10.35938229 -10 14 C-10.66 13.67 -11.32 13.34 -12 13 C-11.46890625 12.48050781 -10.9378125 11.96101563 -10.390625 11.42578125 C-7.30172406 8.37633708 -4.32246909 5.40732938 -1.625 2 C-1.08875 1.34 -0.5525 0.68 0 0 Z " fill="#4B4B4B" transform="translate(620,491)"/>
<path d="M0 0 C-1.39750048 3.15835107 -3.05198234 5.32272825 -5.5 7.75 C-6.41265625 8.67039062 -6.41265625 8.67039062 -7.34375 9.609375 C-9 11 -9 11 -11 11 C-9.60249952 7.84164893 -7.94801766 5.67727175 -5.5 3.25 C-4.8915625 2.63640625 -4.283125 2.0228125 -3.65625 1.390625 C-2 0 -2 0 0 0 Z " fill="#4F4F4F" transform="translate(684,302)"/>
</svg>
