<?xml version="1.0" encoding="UTF-8"?>
<svg version="1.1" xmlns="http://www.w3.org/2000/svg" width="1048" height="1048">
<path d="M0 0 C0.96615234 0.78810059 1.93230469 1.57620117 2.92773438 2.38818359 C13.82017869 11.41535127 23.68093265 21.45514176 33.625 31.5 C35.35759888 33.24265893 37.09066899 34.98484948 38.82421875 36.7265625 C42.61067461 40.53245484 46.39268273 44.34269995 50.17056274 48.15710449 C52.10883773 50.10963839 54.05349198 52.05567653 56 54 C57.19096751 52.83687329 58.37752704 51.66923328 59.5625 50.5 C60.22378906 49.8503125 60.88507813 49.200625 61.56640625 48.53125 C63.44912182 46.57298405 65.20878439 44.59889155 66.96875 42.53515625 C71.78364049 36.9938675 76.9993697 31.85119064 82.19702148 26.67260742 C83.933936 24.941053 85.66543889 23.20421641 87.39648438 21.46679688 C93.09176463 15.76743314 98.80319146 10.16013895 105 5 C105.58531494 4.50798096 106.17062988 4.01596191 106.77368164 3.5090332 C136.56299464 -21.28442828 171.5055105 -39.15963425 209 -49 C209.87188965 -49.23267578 210.7437793 -49.46535156 211.64208984 -49.70507812 C218.05075056 -51.38220015 224.49026604 -52.77540702 231 -54 C232.04816895 -54.19754883 233.09633789 -54.39509766 234.17626953 -54.59863281 C267.18375136 -60.51721576 302.06785 -60.19865995 335 -54 C336.15193848 -53.78569336 337.30387695 -53.57138672 338.49072266 -53.35058594 C382.89177573 -44.83361722 424.04647619 -25.97269283 458 4 C458.50772949 4.44456543 459.01545898 4.88913086 459.53857422 5.34716797 C477.90954103 21.49921942 492.50348028 40.01354833 505 61 C505.5583252 61.93634277 505.5583252 61.93634277 506.12792969 62.89160156 C525.5612661 96.04915067 534.74686078 134.12277834 539 172 C539.09571289 172.80816162 539.19142578 173.61632324 539.29003906 174.44897461 C542.96999079 209.11504317 539.0092632 244.25895022 531 278 C530.74766602 279.06814941 530.49533203 280.13629883 530.23535156 281.23681641 C524.30497805 305.67193968 514.55759117 329.22501936 502 351 C501.36094727 352.1132666 501.36094727 352.1132666 500.70898438 353.24902344 C495.73588337 361.82854362 490.3787289 370.11097266 484.625 378.1875 C484.15666748 378.85080322 483.68833496 379.51410645 483.20581055 380.19750977 C472.92601465 394.32523058 460.5736707 406.71666938 448.22924805 419.01367188 C446.58473825 420.65925747 444.94066218 422.30527661 443.29698181 423.95169067 C438.87628583 428.37718818 434.44944075 432.79648528 430.02124381 437.21447563 C425.84227472 441.38549318 421.66767876 445.56088 417.4929019 449.73609287 C409.22650878 458.00298413 400.95532902 466.26506925 392.68139648 474.52441406 C384.67287373 482.5188246 376.66788711 490.51675415 368.66674805 498.51855469 C368.17287142 499.01247127 367.67899479 499.50638785 367.17015221 500.0152716 C366.67708271 500.50838146 366.18401321 501.00149132 365.6760022 501.5095439 C356.06682904 511.11944312 346.45380225 520.72547929 336.83967614 530.33042336 C334.07972953 533.08824346 331.32048984 535.84676916 328.56140709 538.60545349 C324.2241216 542.94173192 319.88428541 547.27544182 315.54249001 551.60720444 C313.9533857 553.19339771 312.3651148 554.78042644 310.77775574 556.36836624 C308.60497204 558.54164389 306.42912073 560.71180468 304.25248718 562.88122559 C303.32022364 563.81581203 303.32022364 563.81581203 302.3691265 564.769279 C298.62145473 568.49657693 294.75193248 572.02542464 290.73611861 575.46267176 C288.4567213 577.48107179 286.47735189 579.68801932 284.5 582 C281.1878656 585.76326995 277.77528689 589.12908846 273.921875 592.33203125 C271.4923049 594.44062156 269.26783645 596.71813494 267 599 C266.18036679 599.82147679 265.36073359 600.64295359 264.51626301 601.48932362 C263.63854835 602.36963592 262.76083368 603.24994822 261.85652161 604.15693665 C260.83260689 605.18378282 259.80868588 606.21062271 258.78475952 607.23745728 C258.24391598 607.77985172 257.70307243 608.32224617 257.14583969 608.88107681 C244.68707324 621.37523566 232.22255744 633.86364572 219.75479603 646.34882832 C212.54906958 653.56489459 205.34524866 660.78284479 198.14575195 668.00512695 C191.85715757 674.31361341 185.5650922 680.61861322 179.26877993 686.91939706 C175.93731713 690.25347203 172.60765091 693.58929855 169.28214455 696.92931557 C166.16002765 700.06494921 163.03331322 703.19592148 159.90292168 706.32329369 C158.7522461 707.47452186 157.60329797 708.6274795 156.45616913 709.78224182 C154.89616999 711.35211634 153.33021047 712.91578585 151.76252747 714.47798157 C150.44765209 715.79562232 150.44765209 715.79562232 149.10621357 717.13988209 C147 719 147 719 145 719 C145 719.66 145 720.32 145 721 C144.34 721 143.68 721 143 721 C143 721.66 143 722.32 143 723 C142.34 723 141.68 723 141 723 C141 723.66 141 724.32 141 725 C140.34 725 139.68 725 139 725 C139 725.66 139 726.32 139 727 C138.34 727 137.68 727 137 727 C137 727.66 137 728.32 137 729 C136.34 729 135.68 729 135 729 C135 729.66 135 730.32 135 731 C134.34 731 133.68 731 133 731 C133 731.66 133 732.32 133 733 C131.65209961 734.32666016 131.65209961 734.32666016 129.71484375 735.9140625 C124.59100309 740.27511258 119.8735743 745.01280267 115.1388855 749.78594971 C113.52546486 751.41233269 111.90876729 753.03539696 110.29125977 754.65771484 C106.85799254 758.10231484 103.42869316 761.55084781 100 765 C96.02141817 769.00232205 92.0411508 773.00293815 88.05661011 776.99932861 C86.47712934 778.58521006 84.90073203 780.17411096 83.32446289 781.76318359 C78.56652187 786.54496626 73.77557598 791.22460797 68.62408447 795.58483887 C65.25958104 798.51653027 62.32138011 801.88130816 59.296875 805.15625 C57 807 57 807 55.21875 806.96142578 C51.892171 805.51995702 49.68191495 803.02798631 47.203125 800.4609375 C46.65066101 799.90185699 46.09819702 799.34277649 45.5289917 798.76675415 C43.7620823 796.97646569 42.00560265 795.17637166 40.25 793.375 C37.94655325 791.02484447 35.63878168 788.67900371 33.328125 786.3359375 C32.7697847 785.76896149 32.2114444 785.20198547 31.63618469 784.61782837 C28.18291888 781.13173555 24.63322708 777.83637684 20.89111328 774.65966797 C17.01511552 771.25803709 13.43757071 767.53957274 9.8125 763.875 C9.03197266 763.08996094 8.25144531 762.30492187 7.44726562 761.49609375 C5.29641338 759.33247139 3.14811241 757.16634174 1 755 C-1.32433023 752.66598506 -3.64951914 750.33827843 -6.01953125 748.05078125 C-6.90705078 747.19033203 -6.90705078 747.19033203 -7.8125 746.3125 C-8.41707031 745.73113281 -9.02164062 745.14976562 -9.64453125 744.55078125 C-11 743 -11 743 -11 741 C-11.99 740.67 -12.98 740.34 -14 740 C-15.71230248 738.38025441 -17.37163262 736.7041054 -19 735 C-19.97652386 734.01819764 -20.95576672 733.03909331 -21.9375 732.0625 C-24.95833333 729.04166667 -27.97916667 726.02083333 -31 723 C-32.10062035 721.89958783 -32.10062035 721.89958783 -33.22347546 720.77694511 C-36.15469995 717.84527661 -39.08464 714.9123296 -42.01423645 711.97903442 C-43.23337485 710.75842979 -44.45251667 709.53782856 -45.67166138 708.31723022 C-46.64124723 707.34648119 -46.64124723 707.34648119 -47.63042068 706.35612106 C-62.5251448 691.44369884 -77.42273622 676.53414387 -92.32196522 661.62622261 C-100.93190504 653.01112427 -109.54090098 644.39508661 -118.14770508 635.77685547 C-125.66655561 628.24802756 -133.18717146 620.72096827 -140.70989817 613.19601333 C-144.68748165 609.21712891 -148.66418715 605.23737601 -152.63877296 601.25549698 C-156.37860854 597.5088534 -160.12080683 593.76458592 -163.86479759 590.02209473 C-165.2346074 588.65201083 -166.60356678 587.28107605 -167.97158813 585.90920639 C-176.95807522 576.8519332 -176.95807522 576.8519332 -186.45089245 568.33434868 C-188.05951631 566.94873467 -189.58535153 565.58509326 -191 564 C-191 563.34 -191 562.68 -191 562 C-191.66 562 -192.32 562 -193 562 C-193 561.34 -193 560.68 -193 560 C-193.84641367 559.64135376 -193.84641367 559.64135376 -194.70992661 559.27546215 C-197.49658795 557.72342409 -199.38859991 555.85397891 -201.64117432 553.59260559 C-202.56908279 552.66600128 -203.49699127 551.73939697 -204.45301819 550.78471375 C-205.47430157 549.75475735 -206.49549294 548.72470972 -207.51660156 547.69458008 C-208.59735611 546.61162379 -209.67855953 545.5291153 -210.76017761 544.44702148 C-213.08809959 542.11616648 -215.41282956 539.78218966 -217.73514557 537.44574928 C-221.41234266 533.74626306 -225.09663546 530.05389853 -228.78192139 526.36247253 C-234.61615134 520.51685799 -240.44569307 514.66659369 -246.27320933 508.81428689 C-256.69248042 498.350755 -267.11722204 487.892681 -277.54731536 477.43993682 C-281.20400049 473.77487917 -284.85785684 470.10703175 -288.5094142 466.43686545 C-290.790638 464.14493348 -293.0739447 461.85508474 -295.35775185 459.56572723 C-296.40991443 458.51011897 -297.46120573 457.45364138 -298.51151848 456.39619255 C-303.61813299 451.25567504 -308.73642977 446.19310177 -314.2961235 441.53682995 C-316.20448203 439.81556521 -317.84109933 437.96085759 -319.5 436 C-321.67968791 433.43523289 -323.85982634 431.17287909 -326.44140625 429.015625 C-331.79871099 424.38880582 -336.78828006 419.39776736 -341.7902832 414.39501953 C-343.42575882 412.76172552 -345.06907708 411.1366153 -346.71289062 409.51171875 C-353.25953284 403.00004937 -359.29922129 396.27983279 -365 389 C-365.49040771 388.38914551 -365.98081543 387.77829102 -366.48608398 387.14892578 C-372.91555399 379.13847928 -378.67356988 370.78073036 -384 362 C-384.45101074 361.26346191 -384.90202148 360.52692383 -385.36669922 359.76806641 C-413.4288834 313.57427119 -426.32367608 261.63799197 -429 208 C-429.03609375 207.27876953 -429.0721875 206.55753906 -429.109375 205.81445312 C-429.28913358 201.53170501 -429.20767081 197.27857492 -429 193 C-428.95359375 192.03078613 -428.9071875 191.06157227 -428.859375 190.06298828 C-427.48571218 163.61607648 -423.40288733 138.43628848 -416 113 C-415.61618164 111.68104736 -415.61618164 111.68104736 -415.22460938 110.33544922 C-404.78998458 75.5969589 -385.01632058 44.03209186 -360 18 C-359.43265137 17.40541992 -358.86530273 16.81083984 -358.28076172 16.19824219 C-350.26096098 7.83556747 -342.03003173 0.14368474 -332.703125 -6.74121094 C-331.03965069 -7.97069396 -329.39472448 -9.22216212 -327.75 -10.4765625 C-289.87861801 -38.90123572 -242.73504659 -53.65793644 -196 -58 C-195.30003906 -58.06912598 -194.60007812 -58.13825195 -193.87890625 -58.20947266 C-125.81614354 -64.80348775 -52.74543396 -43.46532727 0 0 Z M43 190 C42.67 198.58 42.34 207.16 42 216 C39.36 216.53625 36.72 217.0725 34 217.625 C9.83831583 222.89027405 -10.41281321 234.31855626 -24.96875 254.78125 C-33.08242979 267.63831182 -38.42841028 282.70997489 -39 298 C-39.07734375 299.86011719 -39.07734375 299.86011719 -39.15625 301.7578125 C-39.82960498 325.78156006 -32.95806227 347.85320925 -16.39086914 365.65234375 C-1.1613264 381.37183809 19.29463762 389.96128739 40 396 C40.99 396 41.98 396 43 396 C43 426.69 43 457.38 43 489 C24.16775523 478.95613613 15.12073858 471.82197736 9.03125 451.91015625 C7.62686926 446.91582723 6.94170578 441.88409616 6.359375 436.73046875 C6.15664111 434.04105322 6.15664111 434.04105322 5 432 C-7.28543822 432.47203908 -19.54919826 433.11755962 -31.8125 434 C-33.00464111 434.0829834 -34.19678223 434.1659668 -35.42504883 434.25146484 C-36.52872803 434.33348145 -37.63240723 434.41549805 -38.76953125 434.5 C-39.75542236 434.5721875 -40.74131348 434.644375 -41.75708008 434.71875 C-43.96747008 434.76292544 -43.96747008 434.76292544 -45 436 C-46.56018623 460.18288654 -38.09049957 484.97149903 -22.4699707 503.27099609 C-5.88276429 521.79827577 17.15071238 529.82022794 41 534 C41.66 534 42.32 534 43 534 C43 544.23 43 554.46 43 565 C52.24 565 61.48 565 71 565 C71 554.77 71 544.54 71 534 C73.495625 533.608125 75.99125 533.21625 78.5625 532.8125 C103.37766099 528.5807914 125.55279031 516.79957249 140.6875 496.25 C147.31998523 486.25434419 152.09161163 475.63355347 155 464 C155.22558594 463.11828125 155.45117188 462.2365625 155.68359375 461.328125 C160.76650647 437.07036221 156.32309448 410.86275477 143 390 C126.47340526 366.83098545 99.56612698 358.45585451 73 352 C72.01 352 71.02 352 70 352 C70 321.64 70 291.28 70 260 C84.32 267.16 84.32 267.16 86 271 C86.94670431 272.34161526 87.90593802 273.67444372 88.875 275 C96.04903534 285.78723562 97.26763346 298.45346661 99 311 C111.21358123 309.86540502 123.42138883 308.67479897 135.625 307.4375 C136.89947998 307.31076904 138.17395996 307.18403809 139.48706055 307.0534668 C140.67984619 306.93140869 141.87263184 306.80935059 143.1015625 306.68359375 C144.16713379 306.57587646 145.23270508 306.46815918 146.33056641 306.35717773 C149.0965548 306.07204797 149.0965548 306.07204797 152 305 C152.63454345 283.32790064 143.59288767 261.06555887 129.3671875 244.93359375 C117.24154836 232.22465127 102.83309839 224.20629153 86.125 219.125 C85.42342773 218.9094043 84.72185547 218.69380859 83.99902344 218.47167969 C83.32129883 218.27735352 82.64357422 218.08302734 81.9453125 217.8828125 C81.35250488 217.71152832 80.75969727 217.54024414 80.14892578 217.36376953 C77.13968547 216.85436621 74.05205161 217 71 217 C71 208.09 71 199.18 71 190 C61.76 190 52.52 190 43 190 Z " fill="#000000" transform="translate(468,165)"/>
<path d="M0 0 C14.31550939 4.29465282 25.01418778 9.3252753 32.73828125 22.33984375 C37.62477161 32.64232032 38.05513625 47.28761758 34.4375 58.125 C28.9939463 70.29182003 21.20513262 77.04761068 9.58984375 83.01953125 C7 84 7 84 0 85 C0 56.95 0 28.9 0 0 Z " fill="#050505" transform="translate(538,570)"/>
<path d="M0 0 C0 26.73 0 53.46 0 81 C-11.03744999 77.32085 -20.60924067 70.95186937 -26.34375 60.56640625 C-31.13672059 50.14169522 -32.12518628 36.89240101 -28.375 25.9375 C-23.62890171 15.12234919 -13.24965452 0 0 0 Z " fill="#070706" transform="translate(511,426)"/>
</svg>
