<?xml version="1.0" encoding="UTF-8"?>
<svg version="1.1" xmlns="http://www.w3.org/2000/svg" width="948" height="948">
<path d="M0 0 C2.65250987 1.48424142 5.23963153 3.01254543 7.8046875 4.64453125 C52.28001668 32.35878107 99.70758418 55.07739325 149.21972656 72.25878906 C151.445015 73.03109896 153.66825975 73.8093173 155.88964844 74.59277344 C186.51057257 85.36348064 217.72126323 93.10021452 249.51831055 99.52758789 C250.39968689 99.70600723 251.28106323 99.88442657 252.18914795 100.06825256 C253.82992177 100.39895109 255.47128018 100.72676901 257.11334229 101.05101013 C261.65054409 101.96048425 266.05960367 103.06347342 270.4921875 104.39453125 C277.865195 185.62927455 265.36906994 275.85061572 174.8046875 453.64453125 C174.0415625 454.55203125 173.2784375 455.45953125 172.4921875 456.39453125 C171.59592773 457.47751181 170.70011403 458.56086165 169.8046875 459.64453125 C164.94746736 465.49065159 159.98447301 471.0562388 154.52734375 476.359375 C152.62965776 478.25706099 150.90290488 480.21412739 149.1796875 482.26953125 C144.90009845 487.24762794 139.99730177 491.53616268 135.12451172 495.91503906 C133.47345233 497.41151228 131.84167013 498.92645892 130.21484375 500.44921875 C123.51933735 506.71542386 116.70855296 512.7251915 109.4921875 518.39453125 C108.89486816 518.86439453 108.29754883 519.33425781 107.68212891 519.81835938 C80.96552356 540.75316246 52.53141167 558.63174725 22.4921875 574.39453125 C21.50831055 574.91901855 20.52443359 575.44350586 19.51074219 575.98388672 C16.51396624 577.57703062 13.50555167 579.14552886 10.4921875 580.70703125 C9.57775879 581.19413574 8.66333008 581.68124023 7.72119141 582.18310547 C1.42698673 585.38508883 1.42698673 585.38508883 -2.6015625 585.42578125 C-6.52834365 584.03240729 -10.26134691 582.40321893 -14.0078125 580.58203125 C-14.83458496 580.18387207 -15.66135742 579.78571289 -16.51318359 579.37548828 C-41.16720114 567.35037485 -65.269566 553.47240286 -87.5078125 537.39453125 C-88.25192383 536.86005371 -88.99603516 536.32557617 -89.76269531 535.77490234 C-103.73803281 525.71093754 -117.4271712 515.27109245 -130.1015625 503.58984375 C-131.43432015 502.37391875 -132.77515078 501.16610098 -134.14672852 499.99414062 C-139.98365894 494.99814301 -145.44200635 489.64648536 -150.87084961 484.21679688 C-152.43389984 482.65592798 -154.00478615 481.10325237 -155.57617188 479.55078125 C-162.00572354 473.15661069 -167.86710587 466.50707871 -173.5078125 459.39453125 C-175.06707055 457.55843983 -176.62885183 455.72448161 -178.1953125 453.89453125 C-193.58918856 435.41709927 -206.65925858 415.28669535 -218.5078125 394.39453125 C-218.87583984 393.75177246 -219.24386719 393.10901367 -219.62304688 392.44677734 C-252.9020556 333.85003083 -267.26902671 263.97353042 -272.5078125 197.39453125 C-272.61222656 196.11578125 -272.71664062 194.83703125 -272.82421875 193.51953125 C-274.30210289 174.81213706 -274.69063461 156.1584311 -274.6953125 137.39453125 C-274.69630951 136.32269592 -274.69730652 135.2508606 -274.69833374 134.14654541 C-274.6980079 131.06247134 -274.6889478 127.97857504 -274.67578125 124.89453125 C-274.67457275 123.98226776 -274.67336426 123.07000427 -274.67211914 122.13009644 C-274.62914021 116.16766493 -274.20096222 110.3161934 -273.5078125 104.39453125 C-268.66740933 103.30188945 -263.82134038 102.24596244 -258.96403503 101.23085022 C-172.07667743 83.07173459 -86.08127436 53.92938567 -11.4375 4.73828125 C-10.83671631 4.34761475 -10.23593262 3.95694824 -9.61694336 3.55444336 C-8.08854953 2.5510652 -6.57653753 1.52284698 -5.06640625 0.4921875 C-2.5078125 -0.60546875 -2.5078125 -0.60546875 0 0 Z M-10.33984375 32.9453125 C-60.04985265 64.08790689 -115.45305959 87.44535763 -171.5078125 104.39453125 C-172.16440857 104.59391296 -172.82100464 104.79329468 -173.49749756 104.99871826 C-195.07970549 111.54319957 -216.78028078 116.95901439 -238.8503418 121.59179688 C-242.7593771 122.44974415 -246.62971539 123.40699951 -250.5078125 124.39453125 C-251.03097015 156.96310686 -250.29623705 189.02447749 -246.5078125 221.39453125 C-246.41822266 222.16224854 -246.32863281 222.92996582 -246.23632812 223.72094727 C-237.03262442 301.29623875 -209.64784571 379.35682335 -158.5078125 439.39453125 C-157.52844264 440.55972507 -156.5492896 441.72510117 -155.5703125 442.890625 C-150.67674289 448.68693671 -145.75077102 454.33088451 -140.29296875 459.609375 C-138.46234535 461.4399984 -136.80156811 463.35352982 -135.1328125 465.33203125 C-131.69657952 469.33312444 -127.86559699 472.76258926 -123.91015625 476.2421875 C-121.87585781 478.06478659 -119.96346722 479.9287375 -118.0703125 481.89453125 C-114.05087283 485.96979648 -109.61649428 489.49095325 -105.15332031 493.06542969 C-103.38151159 494.49654641 -101.62747004 495.94761902 -99.875 497.40234375 C-85.16871886 509.56876974 -69.84445123 520.52995553 -53.5078125 530.39453125 C-52.27443891 531.14924844 -51.04136227 531.90445114 -49.80859375 532.66015625 C-37.11177603 540.4034767 -24.07241464 547.53625873 -10.9453125 554.51953125 C-10.2126416 554.91011719 -9.4799707 555.30070313 -8.72509766 555.703125 C-5.76466863 557.56591954 -5.76466863 557.56591954 -2.5078125 558.39453125 C-2.5078125 383.82453125 -2.5078125 209.25453125 -2.5078125 29.39453125 C-5.6859767 29.39453125 -7.68533259 31.26240805 -10.33984375 32.9453125 Z " fill="#050505" transform="translate(475.5078125,194.60546875)"/>
<path d="M0 0 C3.79868169 2.13846649 6.96468008 4.57927167 10.25 7.4375 C17.77519766 13.84232972 25.85563391 19.41875844 34 25 C34.62777344 25.433125 35.25554687 25.86625 35.90234375 26.3125 C53.52174147 38.43767692 72.08412695 49.04411557 91 59 C92.0302832 59.54382324 93.06056641 60.08764648 94.12207031 60.64794922 C165.88793437 98.24527594 245.12887928 119.74356657 327.61767578 128.79589844 C328.3036937 128.87110214 328.98971161 128.94630585 329.69651794 129.02378845 C331.54357986 129.2247478 333.39127776 129.41983722 335.23901367 129.61450195 C338 130 338 130 340 131 C340.40815735 133.92433167 340.40815735 133.92433167 340.61450195 137.86547852 C340.65202985 138.57963456 340.68955774 139.29379061 340.72822285 140.02958775 C341.14547583 148.7332598 341.16425819 157.44057267 341.16796875 166.15234375 C341.17120052 167.98181684 341.17456583 169.81128971 341.17805481 171.64076233 C341.18400495 175.46892897 341.18589963 179.29707321 341.18530273 183.12524414 C341.1852225 186.95537138 341.19200585 190.78537641 341.20581055 194.61547852 C341.49767224 276.90247414 334.47369205 359.82199536 281 501 C280.60603027 501.79051758 280.21206055 502.58103516 279.80615234 503.39550781 C270.50520911 521.93175022 259.18818814 539.25099104 247 556 C246.04004759 557.33310513 245.08040953 558.66643667 244.12109375 560 C238.66465327 567.5507937 233.01696214 574.88273671 227 582 C226.54512207 582.53979492 226.09024414 583.07958984 225.62158203 583.63574219 C224.12690146 585.4065866 222.62706668 587.17291739 221.125 588.9375 C220.67970947 589.462229 220.23441895 589.98695801 219.77563477 590.52758789 C211.41800631 600.27693362 202.59883709 609.58792518 193.52050781 618.66479492 C191.99513287 620.19237416 190.47799328 621.72783582 188.9609375 623.26367188 C183.38100057 628.87467368 177.67044723 634.1007639 171.4543457 639.01928711 C168.93935413 641.0489426 166.5600762 643.18143749 164.1875 645.375 C158.64016553 650.4156488 152.79474893 655.01560477 146.85205078 659.57617188 C145.64661077 660.50289559 144.44428237 661.43368557 143.24560547 662.36914062 C101.9075423 694.62736686 54.4411121 721.10935225 6 741 C4.49360962 741.62672607 4.49360962 741.62672607 2.95678711 742.26611328 C-0.57663406 743.14312294 -1.79347801 742.74376385 -5.02734375 741.17578125 C-5.97254883 740.72968506 -6.91775391 740.28358887 -7.89160156 739.82397461 C-8.89674805 739.32518799 -9.90189453 738.82640137 -10.9375 738.3125 C-12.52062988 737.5556189 -12.52062988 737.5556189 -14.13574219 736.78344727 C-16.34106849 735.72687878 -18.54237183 734.66187576 -20.73974609 733.58886719 C-23.81247593 732.09138885 -26.89659768 730.62192955 -29.98828125 729.1640625 C-34.7677266 726.90728124 -39.5317883 724.62060174 -44.28759766 722.31445312 C-46.04350345 721.46352632 -47.8008999 720.61566581 -49.56005859 719.77148438 C-95.84598025 697.52511416 -139.52510467 667.28845674 -177.26953125 632.484375 C-179.39611534 630.54945729 -181.54738289 628.66700349 -183.7265625 626.79296875 C-188.54510884 622.58800098 -193.05273381 618.09386124 -197.5625 613.5625 C-198.37396484 612.75490234 -199.18542969 611.94730469 -200.02148438 611.11523438 C-204.34755303 606.78218256 -208.51769793 602.37416095 -212.50952148 597.73120117 C-214.37361729 595.56604091 -216.31160957 593.47365106 -218.25 591.375 C-223.25381625 585.81520416 -227.87258354 579.9909544 -232.42089844 574.05908203 C-233.51455247 572.63300316 -234.61180485 571.20967936 -235.71191406 569.78857422 C-250.83446595 550.22135714 -264.09276481 529.66675796 -276 508 C-276.40412109 507.27151855 -276.80824219 506.54303711 -277.22460938 505.79248047 C-316.23715073 435.23336568 -332.13102467 354.47932169 -338 268 C-338.04090413 267.28227732 -338.08180826 266.56455463 -338.12395191 265.82508278 C-338.98924689 250.1814405 -339.13232955 234.57858053 -339.09765625 218.9140625 C-339.0957855 216.38959786 -339.09436471 213.86513286 -339.09336853 211.34066772 C-339.08959498 204.77487136 -339.07981036 198.20909798 -339.06866455 191.64331055 C-339.05885192 185.57638127 -339.05481916 179.50944688 -339.05032361 173.4425118 C-339.03995943 159.62833068 -339.02244846 145.81416641 -339 132 C-334.0788863 130.54932552 -329.32347748 129.51692074 -324.234375 128.921875 C-322.70756127 128.73241553 -321.18078895 128.54262212 -319.65405273 128.35253906 C-318.85603241 128.25493286 -318.05801208 128.15732666 -317.23580933 128.0567627 C-284.94732458 124.07218411 -253.47769415 118.2308139 -222 110 C-221.3077533 109.82059875 -220.61550659 109.64119751 -219.90228271 109.45635986 C-188.06356653 101.20476337 -157.02025083 90.45651015 -127 77 C-125.98695801 76.54915039 -124.97391602 76.09830078 -123.93017578 75.63378906 C-100.86095665 65.33613984 -78.64311067 54.04413783 -57 41 C-56.22897949 40.53706543 -55.45795898 40.07413086 -54.66357422 39.59716797 C-35.43349421 27.99758371 -16.94522167 14.74454353 0 0 Z M-5.9375 52.25 C-14.67316821 58.622184 -23.80202569 64.3245269 -33 70 C-33.64549805 70.4007373 -34.29099609 70.80147461 -34.95605469 71.21435547 C-73.62337632 95.1606683 -115.16266061 113.91034118 -158 129 C-158.9600293 129.34192383 -159.92005859 129.68384766 -160.90917969 130.03613281 C-206.40399767 146.14201977 -253.58676358 155.63467993 -301 164 C-302.30630302 219.97122666 -302.28729045 275.49523178 -294 331 C-293.90136658 331.66074524 -293.80273315 332.32149048 -293.70111084 333.0022583 C-287.02943346 377.29370804 -275.48857339 421.12312881 -257 462 C-256.28553711 463.58723877 -256.28553711 463.58723877 -255.55664062 465.20654297 C-244.88942199 488.66959404 -232.24156996 511.18197712 -217 532 C-216.51047852 532.67063477 -216.02095703 533.34126953 -215.51660156 534.03222656 C-209.26269822 542.56243968 -202.82088174 550.91303486 -196 559 C-195.3198584 559.80751709 -195.3198584 559.80751709 -194.62597656 560.63134766 C-184.63167939 572.47161889 -174.2475186 583.83325696 -163.3125 594.8125 C-162.11838501 596.01362427 -162.11838501 596.01362427 -160.90014648 597.23901367 C-156.09444319 602.03173263 -151.16240233 606.59545521 -146 611 C-144.83560784 612.00873418 -143.67153425 613.01783623 -142.5078125 614.02734375 C-118.05315685 635.10636766 -91.78116273 653.56133747 -64 670 C-62.82679199 670.69875244 -62.82679199 670.69875244 -61.62988281 671.41162109 C-50.82061104 677.82217397 -39.79468128 683.74496102 -28.5625 689.375 C-27.42635254 689.94581299 -26.29020508 690.51662598 -25.11962891 691.10473633 C-21.76121125 692.76981573 -18.38809658 694.39620739 -15 696 C-14.38743347 696.29249634 -13.77486694 696.58499268 -13.14373779 696.88635254 C-11.27945929 697.76806286 -9.4057437 698.62541325 -7.52734375 699.4765625 C-5.86626587 700.23960693 -5.86626587 700.23960693 -4.17163086 701.01806641 C1.97349762 702.92059175 6.63152207 700.48716096 12.13671875 697.75390625 C12.80924683 697.42739075 13.4817749 697.10087524 14.17468262 696.76446533 C16.34974674 695.70534994 18.51882083 694.63462146 20.6875 693.5625 C22.19234591 692.82422175 23.69731074 692.08618583 25.20239258 691.34838867 C48.37203095 679.96163078 71.05092915 667.82002922 92.33691406 653.14550781 C93.96613282 652.02332719 95.60408531 650.91386031 97.2421875 649.8046875 C114.47040791 638.05242957 131.24935099 625.33735188 146.59375 611.1953125 C147.895954 610.00726275 149.2054259 608.82616565 150.55102539 607.6875 C157.20050675 602.03184389 163.3312405 595.85484369 169.49926758 589.68603516 C171.42444702 587.76303818 173.35749031 585.84819426 175.29101562 583.93359375 C181.60861412 577.64408024 187.64274611 571.3297115 193.15869141 564.31494141 C195.00264002 561.9966809 196.94135326 559.81284761 198.9375 557.625 C207.87906806 547.64550272 215.48748375 536.64982647 222.875 525.5 C223.30887024 524.84670715 223.74274048 524.19341431 224.1897583 523.52032471 C231.63671234 512.28421634 238.69563463 500.92406535 245 489 C245.83023682 487.43596436 245.83023682 487.43596436 246.67724609 485.84033203 C255.703433 468.68585116 263.38018703 451.23379417 270 433 C270.39525879 431.91992676 270.79051758 430.83985352 271.19775391 429.72705078 C288.15317951 382.83858644 296.54249049 332.92023889 300.75 283.375 C300.80916595 282.69200836 300.86833191 282.00901672 300.92929077 281.30532837 C302.93833081 257.66102392 303.16917576 233.93800309 303.13037109 210.22363281 C303.12458588 206.66179906 303.12803129 203.10003927 303.13394356 199.53820801 C303.13757775 196.7361191 303.13639901 193.93404746 303.13381577 191.13195801 C303.1328459 189.19181264 303.13582578 187.25166654 303.13894653 185.31152344 C303.12003486 178.15191431 302.79776767 171.11633783 302 164 C300.10507813 163.68530762 300.10507813 163.68530762 298.171875 163.36425781 C233.36504274 152.51616767 169.95193451 136.22651192 110 109 C108.22568604 108.20142578 108.22568604 108.20142578 106.41552734 107.38671875 C70.68648996 91.27410389 35.42778252 73.11279216 4.07421875 49.3984375 C-0.13752178 46.55888362 -2.41988068 49.62834565 -5.9375 52.25 Z " fill="#090908" transform="translate(473,110)"/>
</svg>
