<?xml version="1.0" encoding="UTF-8"?>
<svg version="1.1" xmlns="http://www.w3.org/2000/svg" width="1748" height="1748">
<path d="M0 0 C10.23 0 20.46 0 31 0 C31 324.39 31 648.78 31 983 C231.77053376 1003.50261873 231.77053376 1003.50261873 422 973 C436.25047343 968.48735008 450.7976056 966.84771427 465.59375 965.1015625 C467.59217312 964.85732659 469.59032342 964.61099657 471.58834839 964.36352539 C473.50532126 964.13190858 475.42465941 963.92013722 477.34399414 963.70898438 C491.04798174 962.0196395 501.37832759 956.62252105 512.61816406 948.88623047 C520.94791927 943.15384873 529.40834585 938.03825059 538.31420898 933.24487305 C544.1879613 930.059477 549.87345879 926.66542979 555.5 923.0625 C556.27698242 922.56596924 557.05396484 922.06943848 557.85449219 921.55786133 C558.63469727 921.05923584 559.41490234 920.56061035 560.21875 920.046875 C585.29658724 904.02263196 611.26173815 888.57415506 642 889 C642.8176389 856.47614142 637.0292516 825.39381603 614.75 800.484375 C609.98656639 795.48938559 604.90531862 791.55994385 599 788 C599.68964844 788.64324219 600.37929688 789.28648437 601.08984375 789.94921875 C613.10323151 801.50118695 623.50191629 816.08594866 629 832 C629 832.99 629 833.98 629 835 C614.3592006 839.03884121 600.08456524 837.75481281 586.8125 830.3125 C569.69846279 820.20821992 559.79286652 804.60580972 554.8125 785.53515625 C551.70043929 771.99469978 551.76767088 758.8289438 552 745 C578.51708625 747.03045118 606.62192898 752.21482855 625.7109375 772.2734375 C635.48473499 783.91526455 639.31292818 796.0361956 638.875 811 C638.65056634 819.07623178 639.3531117 824.47677122 643.33984375 831.66796875 C648.64550326 842.31673949 650.58989629 855.27719755 652 867 C655.39534711 861.84310646 656.47837626 858.14638836 656.4375 851.9375 C656.90253506 836.20181167 663.44127123 824.13990338 674.625 813.25 C693.50329206 797.11396749 722.01271763 793.85975946 746 795 C744.24328367 817.76796824 739.92471539 839.9672511 725 858 C724.50886719 858.65226562 724.01773438 859.30453125 723.51171875 859.9765625 C716.11040184 869.44190864 703.89303923 876.32780797 692 878 C688.91553948 878.18653164 685.83955482 878.23066006 682.75 878.25 C681.53763672 878.2809375 681.53763672 878.2809375 680.30078125 878.3125 C674.36180549 878.35050944 669.50833596 877.19340945 664 875 C669.92897969 856.08908374 683.02541437 842.11161848 699 831 C676.38185398 842.1559521 662.57769558 860.73033372 653.89453125 883.95703125 C653.22319486 885.95843318 652.60333334 887.9770588 652 890 C652.96486328 890.03867188 652.96486328 890.03867188 653.94921875 890.078125 C679.21262263 891.66384507 704.86428566 907.09834283 724.8840332 921.63525391 C735.52435157 929.35936495 746.43595244 935.70822197 758.125 941.6875 C758.86776184 942.06940491 759.61052368 942.45130981 760.37579346 942.8447876 C773.8345793 949.73271423 786.40092918 955.78611208 801.7578125 956.4296875 C803.27647775 956.50117315 804.79511292 956.57330002 806.3137207 956.64599609 C807.10009918 956.68295593 807.88647766 956.71991577 808.69668579 956.75799561 C822.57981603 957.42693179 836.35937915 958.15572928 850 961 C850.65581055 961.13631836 851.31162109 961.27263672 851.98730469 961.41308594 C868.73267741 965.05850896 886.70018065 972.4667871 901 982 C904.01063315 982.31073716 904.01063315 982.31073716 907.50418091 982.27174377 C908.1675741 982.27683061 908.83096729 982.28191745 909.51446331 982.28715843 C911.7416344 982.3018444 913.96858463 982.30235327 916.19580078 982.30297852 C917.79066398 982.31063794 919.38552312 982.31918397 920.9803772 982.32855225 C924.41637747 982.34684328 927.85232318 982.35887382 931.28836441 982.36609077 C936.71613765 982.37755815 942.14378982 982.40300483 947.57150269 982.43040466 C956.15148067 982.47207079 964.73146441 982.5044801 973.31149566 982.53287882 C988.68923697 982.58385593 1004.06692829 982.64587534 1019.44458377 982.71821922 C1024.84589084 982.74320161 1030.24718177 982.76260577 1035.64852548 982.77760136 C1039.00061129 982.78777214 1042.35267202 982.80191756 1045.70473862 982.81707764 C1047.26527061 982.82325715 1048.82581053 982.82770292 1050.38635254 982.83033562 C1052.50754413 982.83412011 1054.62862374 982.84390969 1056.74978638 982.85523987 C1057.93961184 982.85909478 1059.12943729 982.8629497 1060.35531807 982.86692142 C1063 983 1063 983 1064 984 C1064.08775605 986.14558827 1064.10695219 988.29404421 1064.09765625 990.44140625 C1064.09282227 992.39916992 1064.09282227 992.39916992 1064.08789062 994.39648438 C1064.07953401 995.7851569 1064.07106905 997.17382877 1064.0625 998.5625 C1064.05748666 999.95507656 1064.05292347 1001.34765481 1064.04882812 1002.74023438 C1064.03699434 1006.1601987 1064.0205088 1009.58007844 1064 1013 C1060.26601454 1014.18976332 1056.59015761 1014.13881851 1052.71401769 1014.12534916 C1051.60343772 1014.12745264 1051.60343772 1014.12745264 1050.47042178 1014.12959861 C1047.97086274 1014.13309905 1045.47136473 1014.12943121 1042.97180653 1014.12584114 C1041.16139864 1014.1268836 1039.35099097 1014.12836434 1037.54058376 1014.13024551 C1032.53255478 1014.13416194 1027.52454492 1014.13179791 1022.51651623 1014.12846755 C1017.08076512 1014.12594257 1011.64501705 1014.12918609 1006.20926636 1014.13171089 C996.67153413 1014.13533246 987.13380755 1014.13520696 977.59607506 1014.13266373 C963.41364384 1014.1288922 949.23121743 1014.13080925 935.04878625 1014.13387203 C911.19424445 1014.13884094 887.33970481 1014.13901376 863.48516273 1014.13629532 C862.75828474 1014.13621252 862.03140675 1014.13612973 861.28250215 1014.13604442 C860.55446819 1014.13596149 859.82643423 1014.13587856 859.07633863 1014.13579312 C836.91712026 1014.13327227 814.7579028 1014.13261746 792.59868431 1014.13381577 C791.11613769 1014.13389324 789.63359107 1014.1339704 788.15104444 1014.13404724 C782.19368375 1014.13435769 776.23632306 1014.13467635 770.27896236 1014.135007 C753.62485679 1014.1359241 736.97075122 1014.13649463 720.31664562 1014.13679314 C719.55820012 1014.13680678 718.79975462 1014.13682043 718.01832593 1014.13683449 C693.84352519 1014.13724389 669.66872478 1014.13611621 645.49392414 1014.13394356 C644.70959101 1014.13387331 643.92525787 1014.13380306 643.11715706 1014.13373068 C630.37919625 1014.13258566 617.64123543 1014.13136623 604.90327462 1014.13014051 C554.37195759 1014.12528325 503.8406432 1014.12551006 453.30932617 1014.13037109 C440.57429918 1014.13159222 427.83927219 1014.13280325 415.10424519 1014.13394356 C414.32016786 1014.13401401 413.53609054 1014.13408445 412.72825329 1014.13415704 C388.57649381 1014.1363122 364.42473455 1014.13722769 340.27297497 1014.13679314 C339.13619738 1014.13677276 339.13619738 1014.13677276 337.97645459 1014.13675197 C321.34285495 1014.13643954 304.70925532 1014.13580599 288.0756557 1014.13488263 C282.12449136 1014.13455347 276.17332701 1014.1342404 270.22216267 1014.13393192 C268.74159069 1014.13385453 267.26101872 1014.1337758 265.78044674 1014.13369573 C243.62341897 1014.13250067 221.46639222 1014.1335214 199.30936458 1014.13604442 C198.5822382 1014.13612722 197.85511182 1014.13621001 197.10595131 1014.13629532 C196.01726286 1014.13641934 196.01726286 1014.13641934 194.90658071 1014.13654587 C170.46493266 1014.13929982 146.02328736 1014.13829631 121.58163968 1014.13301457 C107.47571455 1014.13006727 93.36979573 1014.12990242 79.26387075 1014.13366075 C69.8601223 1014.1358909 60.45637895 1014.13452992 51.05263126 1014.13015598 C45.68252573 1014.12776059 40.31243282 1014.12699793 34.94232766 1014.13056196 C30.06847614 1014.13376391 25.19464856 1014.13246147 20.32079883 1014.1273813 C18.55761316 1014.12636428 16.79442556 1014.12706567 15.03124139 1014.12958724 C12.65744262 1014.13274429 10.28372945 1014.1298709 7.90993482 1014.12534916 C7.21476701 1014.12773991 6.51959921 1014.13013065 5.80336571 1014.13259384 C1.1141557 1014.1141557 1.1141557 1014.1141557 0 1013 C-0.09853359 1010.79528436 -0.12447085 1008.58733223 -0.1241985 1006.38041586 C-0.12547658 1005.67568289 -0.12675467 1004.97094993 -0.12807148 1004.24486142 C-0.13116973 1001.84873748 -0.1270498 999.45267764 -0.12304783 997.05655575 C-0.12378653 995.32779149 -0.12496412 993.59902736 -0.12654433 991.87026367 C-0.12963452 987.0749406 -0.12642082 982.27963849 -0.12226619 977.48431698 C-0.11884989 972.28437422 -0.12119935 967.08443372 -0.12284368 961.88449055 C-0.1249237 952.75615868 -0.123263 943.6278333 -0.11920547 934.49950218 C-0.11318871 920.92584918 -0.11286797 907.35220031 -0.11374746 893.77854621 C-0.1150637 870.94929594 -0.11171838 848.12004934 -0.10573006 825.29080009 C-0.09981199 802.67544987 -0.09595585 780.06010083 -0.09487724 757.44474983 C-0.09484283 756.74297086 -0.09480842 756.04119189 -0.09477296 755.3181469 C-0.09445977 748.90868283 -0.09417208 742.49921877 -0.09391499 736.08975471 C-0.09327551 720.15498803 -0.09231614 704.22022139 -0.09113979 688.28545475 C-0.09108648 687.55973926 -0.09103316 686.83402377 -0.09097823 686.0863169 C-0.08835532 650.76563335 -0.0820472 615.44495057 -0.07543945 580.12426758 C-0.07314784 567.86385092 -0.0708725 555.60343425 -0.06866455 543.34301758 C-0.0685276 542.58264794 -0.06839065 541.8222783 -0.06824955 541.03886715 C-0.06190804 505.70564195 -0.05818071 470.37241662 -0.05512976 435.039191 C-0.05493169 432.74594766 -0.0547325 430.45270432 -0.05453308 428.15946099 C-0.05321332 412.96229649 -0.05193867 397.76513198 -0.05069422 382.56796748 C-0.04821757 352.32816444 -0.04547589 322.08836143 -0.04255217 291.84855843 C-0.04241293 290.40838904 -0.04227388 288.96821966 -0.04213501 287.52805027 C-0.03393159 202.47355255 -0.02038368 117.41905569 0 0 Z " fill="#080808" transform="translate(325,343)"/>
<path d="M0 0 C-0.13560837 0.84543365 -0.27121674 1.69086731 -0.41093445 2.56192017 C-5.20464862 32.52173756 -9.73000579 62.52095161 -14.23425293 92.52545166 C-15.01469218 97.72104842 -15.79693295 102.91637332 -16.57916737 108.11170006 C-17.33742373 113.14904577 -18.09469884 118.18653861 -18.85165977 123.22407913 C-19.21060952 125.61226068 -19.56982865 128.00040176 -19.92933083 130.38850021 C-20.42757992 133.6994465 -20.92453797 137.01058405 -21.42114258 140.32177734 C-21.64005409 141.77403465 -21.64005409 141.77403465 -21.86338806 143.25563049 C-22.64788775 148.49671584 -23.36639458 153.73848048 -24 159 C-26.20321909 156.96001215 -27.63388411 155.09870871 -28.95776367 152.40917969 C-29.48928291 151.34095978 -29.48928291 151.34095978 -30.03153992 150.25115967 C-30.40656143 149.48249573 -30.78158295 148.71383179 -31.16796875 147.921875 C-31.56647537 147.11824524 -31.96498199 146.31461548 -32.37556458 145.4866333 C-33.65192558 142.91053522 -34.92014244 140.33053775 -36.1875 137.75 C-37.84446851 134.38904307 -39.50529006 131.03001031 -41.16796875 127.671875 C-41.57216034 126.8533606 -41.97635193 126.03484619 -42.39279175 125.19152832 C-45.35266091 119.22521772 -48.43574162 113.33475382 -51.65483093 107.50408936 C-54 103.20892018 -54 103.20892018 -54 101 C-57.90768448 104.80693386 -61.51002062 108.79922227 -65.0625 112.9375 C-65.62759277 113.59282715 -66.19268555 114.2481543 -66.77490234 114.92333984 C-68.51874885 116.94705695 -70.25963445 118.97328908 -72 121 C-73.04295298 122.21225315 -74.08592111 123.42449326 -75.12890625 124.63671875 C-87.41523204 138.9263188 -87.41523204 138.9263188 -99.4375 153.4375 C-103.39572956 158.30208624 -107.46649061 163.06062178 -111.56054688 167.81054688 C-114.57231987 171.31216351 -117.53051691 174.84777593 -120.4375 178.4375 C-124.03636198 182.87239526 -127.74735888 187.19564251 -131.5 191.5 C-136.01477284 196.67930172 -140.43237753 201.91835614 -144.7578125 207.2578125 C-147.30253683 210.37000148 -149.89618225 213.43726497 -152.5 216.5 C-155.87288602 220.46899152 -159.21176774 224.4601718 -162.5 228.5 C-168.04192098 235.30413786 -173.73308923 241.97975878 -179.41601562 248.66601562 C-184.1351961 254.22068034 -188.84075049 259.78059925 -193.4375 265.4375 C-198.33440008 271.44970829 -203.38622674 277.32341247 -208.44726562 283.19726562 C-210.98962325 286.14895881 -213.52656888 289.10528507 -216.0625 292.0625 C-216.55911133 292.64161133 -217.05572266 293.22072266 -217.56738281 293.81738281 C-222.2802724 299.31831925 -226.95950457 304.8473483 -231.63232422 310.38232422 C-233.02459417 312.02908979 -234.42005473 313.67310067 -235.81640625 315.31640625 C-240.04853633 320.30026248 -244.25737398 325.29559272 -248.375 330.375 C-252.54156423 335.49733524 -256.86201281 340.47417378 -261.20043945 345.45043945 C-265.1224954 349.95939957 -268.93031865 354.54698064 -272.69140625 359.19140625 C-275.41344091 362.5029848 -278.20139731 365.75313059 -281 369 C-284.55457492 373.124643 -288.06792298 377.27207904 -291.5 381.5 C-296.3717021 387.49526583 -301.40521571 393.34545111 -306.44726562 399.19726562 C-321.08059843 416.14378913 -321.08059843 416.14378913 -335.375 433.375 C-339.14738812 438.01003949 -343.02398361 442.54673871 -346.9375 447.0625 C-347.78997314 448.04645752 -347.78997314 448.04645752 -348.65966797 449.05029297 C-350.72704594 451.42718481 -352.77169812 453.77169812 -355 456 C-359.01046691 455.67816458 -361.65610576 454.18314005 -364.95703125 451.97265625 C-365.89611328 451.35068359 -366.83519531 450.72871094 -367.80273438 450.08789062 C-368.79595703 449.41951172 -369.78917969 448.75113281 -370.8125 448.0625 C-372.9015487 446.67718573 -374.99139451 445.29307277 -377.08203125 443.91015625 C-378.60884521 442.89719482 -378.60884521 442.89719482 -380.16650391 441.86376953 C-383.74025658 439.51308645 -387.35805794 437.24297998 -391 435 C-400.53800545 429.09968732 -409.89477272 422.92019221 -419.27880859 416.77929688 C-431.31228431 408.91100592 -443.42540103 401.17550129 -455.59277344 393.51611328 C-458.77469432 391.512084 -461.95401366 389.50395185 -465.13305664 387.49536133 C-466.70232402 386.50394692 -468.27182023 385.5128946 -469.84155273 384.5222168 C-473.99056589 381.90348901 -478.13615546 379.27952465 -482.27734375 376.6484375 C-483.57285156 375.82666016 -483.57285156 375.82666016 -484.89453125 374.98828125 C-486.55046155 373.93774482 -488.20545888 372.88573587 -489.859375 371.83203125 C-490.97892578 371.12240234 -490.97892578 371.12240234 -492.12109375 370.3984375 C-492.7752124 369.98255371 -493.42933105 369.56666992 -494.10327148 369.13818359 C-496.02550339 367.984696 -497.98257713 366.97578364 -500 366 C-509.22947455 375.85346936 -509.22947455 375.85346936 -518.1953125 385.9453125 C-520.58781847 388.66924787 -523.04409419 391.33339986 -525.5 394 C-529.14489638 397.95928098 -532.74260431 401.95128117 -536.265625 406.01953125 C-538.27264538 408.31133155 -540.32402851 410.55996752 -542.375 412.8125 C-545.44746773 416.21083552 -548.38442622 419.67590523 -551.25 423.25 C-555.3488722 428.32342922 -559.73239988 433.06069181 -564.19995117 437.80541992 C-568.23901348 442.11827696 -571.98925265 446.59811381 -575.68359375 451.2109375 C-579.36104415 455.63876142 -583.30675298 459.81071636 -587.23046875 464.01953125 C-591.05414491 468.12152508 -594.71990797 472.35053468 -598.37744141 476.60058594 C-604.57885882 483.80134877 -610.8132981 490.95346877 -617.2590332 497.93701172 C-621.85885756 502.92078766 -626.31248057 508.01477133 -630.70703125 513.1796875 C-636.53029366 520.01626982 -642.44629143 526.73430326 -648.54296875 533.328125 C-651.16530261 536.17975673 -653.71988319 539.08130071 -656.2578125 542.0078125 C-658.31500399 544.36020635 -660.40596915 546.68034966 -662.5 549 C-665.75463076 552.60648273 -668.96979743 556.2429674 -672.16015625 559.90625 C-675.73369663 563.97295412 -679.3702953 567.98345603 -683 572 C-688.95153073 567.8797095 -693.93951149 563.22869584 -698.96191406 558.05175781 C-701.69763307 555.15907479 -701.69763307 555.15907479 -705 553 C-704.4117968 549.89442211 -703.53196872 548.1110089 -701.4453125 545.75 C-700.91824707 545.14744385 -700.39118164 544.5448877 -699.84814453 543.92407227 C-698.99518799 542.97165649 -698.99518799 542.97165649 -698.125 542 C-697.54218262 541.33863037 -696.95936523 540.67726074 -696.35888672 539.99584961 C-691.77810897 534.81679415 -687.1137456 529.71505846 -682.421875 524.63671875 C-679.81253536 521.79590543 -677.26915945 518.90606424 -674.7421875 515.9921875 C-672.68499601 513.63979365 -670.59403085 511.31965034 -668.5 509 C-665.82951656 506.04130249 -663.17701942 503.07073528 -660.5625 500.0625 C-656.91062947 495.86835635 -653.15733816 491.76905708 -649.41015625 487.66015625 C-646.82691602 484.80896241 -644.29121068 481.92116663 -641.76953125 479.015625 C-639.74885044 476.71392236 -637.68687382 474.45235621 -635.625 472.1875 C-632.53363199 468.76770672 -629.57540968 465.28041476 -626.6875 461.6875 C-622.27861892 456.23623899 -617.5647602 451.12286502 -612.78515625 446 C-610.02653661 443.04123978 -607.35388674 440.01604915 -604.70703125 436.95703125 C-602.66366569 434.6144085 -600.58319141 432.30726578 -598.5 430 C-595.81016569 427.01937279 -593.13689636 424.02754767 -590.5 421 C-587.86310364 417.97245233 -585.18983431 414.98062721 -582.5 412 C-577.68985199 406.66437363 -572.94019763 401.28413119 -568.28515625 395.8125 C-562.94274332 389.53888089 -557.53720339 383.35902879 -551.92797852 377.32250977 C-549.05031436 374.20473841 -546.33628268 371.00092187 -543.6875 367.6875 C-538.83163455 361.65047809 -533.53039611 356.06955074 -528.22265625 350.43359375 C-524.71332024 346.70586343 -521.31283862 342.90338812 -518 339 C-517.55462891 338.47567383 -517.10925781 337.95134766 -516.65039062 337.41113281 C-513.42630416 333.61355102 -510.21079316 329.80882516 -507 326 C-502.06781287 326.50077762 -498.61778579 328.97391952 -494.625 331.6875 C-487.68202327 336.29773477 -480.63721414 340.6968881 -473.5 345 C-464.56112674 350.40558258 -455.7430123 355.96096732 -447.00634766 361.68652344 C-443.61560942 363.90630583 -440.21447974 366.10999762 -436.8125 368.3125 C-436.12220703 368.75948242 -435.43191406 369.20646484 -434.72070312 369.66699219 C-421.28253419 378.35472561 -407.76069508 386.91434821 -394.21704102 395.43652344 C-389.8173323 398.20786195 -385.43513693 401.00425475 -381.06640625 403.82421875 C-380.06738281 404.46681641 -379.06835938 405.10941406 -378.0390625 405.77148438 C-376.09211054 407.02473888 -374.14797354 408.28238007 -372.20703125 409.54492188 C-370.88445312 410.39473633 -370.88445312 410.39473633 -369.53515625 411.26171875 C-368.755354 411.76662842 -367.97555176 412.27153809 -367.17211914 412.79174805 C-365.08926372 413.95034662 -363.3292425 414.55376338 -361 415 C-355.54833536 409.0585877 -350.32404231 402.99198971 -345.25390625 396.72265625 C-343.04853296 394.05862647 -340.7682369 391.49211558 -338.4375 388.9375 C-334.85527464 385.00322836 -331.51884874 380.93938077 -328.2265625 376.76171875 C-325.57189694 373.469002 -322.82548962 370.26436826 -320.0625 367.0625 C-316.50495209 362.93965673 -312.98927917 358.79558015 -309.5625 354.5625 C-305.46278764 349.51384879 -301.21741345 344.60404779 -296.94873047 339.69873047 C-290.20948054 331.95144783 -283.4870592 324.18715017 -277.125 316.125 C-273.18470249 311.14905962 -269.02228661 306.38145124 -264.8503418 301.6003418 C-260.90731823 297.07274372 -257.0809655 292.46554244 -253.30078125 287.80078125 C-249.61993587 283.3200238 -245.82486807 278.93840814 -242.04296875 274.54296875 C-239.15769425 271.18857372 -236.29320938 267.81708011 -233.4375 264.4375 C-232.76291748 263.63916748 -232.76291748 263.63916748 -232.07470703 262.82470703 C-231.16931558 261.7528666 -230.26404183 260.68092674 -229.35888672 259.60888672 C-227.53290227 257.44696837 -225.70489675 255.2867642 -223.87670898 253.12670898 C-222.96068121 252.04433746 -222.04482764 250.96181847 -221.12915039 249.87915039 C-218.81543212 247.14363268 -216.49956105 244.40998789 -214.1796875 241.6796875 C-209.93034079 236.6747702 -205.70319309 231.65816375 -201.5625 226.5625 C-197.14737176 221.13999847 -192.59987523 215.83872545 -188.0390625 210.5390625 C-185.17402911 207.20834749 -182.3334206 203.85761621 -179.5 200.5 C-175.70488714 196.00580536 -171.89208975 191.52735622 -168.0625 187.0625 C-167.56580811 186.48330811 -167.06911621 185.90411621 -166.55737305 185.30737305 C-164.00489582 182.33243959 -161.44930018 179.3602292 -158.890625 176.390625 C-153.62457762 170.27255795 -148.43176514 164.11159473 -143.34375 157.84375 C-140.60697862 154.52313406 -137.80893615 151.25956291 -135 148 C-130.68065728 142.98685227 -126.44902723 137.91462485 -122.27734375 132.77734375 C-119.25580056 129.09240857 -116.16964049 125.46431679 -113.08349609 121.83349609 C-110.20442157 118.44026525 -107.36788508 115.0172328 -104.5625 111.5625 C-100.65767493 106.76354682 -96.65232822 102.05931145 -92.59985352 97.38500977 C-87.95856944 92.01203146 -83.48109681 86.50677008 -79 81 C-83.205568 79.9469641 -87.41440175 78.90773765 -91.625 77.875 C-92.26394196 77.71826813 -92.90288391 77.56153625 -93.56118774 77.40005493 C-105.18370825 74.56236976 -116.86372829 72.14042977 -128.62548828 69.95458984 C-129.82544434 69.72594238 -131.02540039 69.49729492 -132.26171875 69.26171875 C-133.32350342 69.06537842 -134.38528809 68.86903809 -135.47924805 68.66674805 C-138 68 -138 68 -140 66 C-120.06677428 55.88800705 -99.93233424 46.149482 -79.625 36.8125 C-67.70026125 31.32938161 -55.90926489 25.59032464 -44.125 19.8125 C-21.678457 8.81198591 -21.678457 8.81198591 -10.5625 3.75 C-9.68803223 3.35014893 -8.81356445 2.95029785 -7.91259766 2.53833008 C-2.2620644 0 -2.2620644 0 0 0 Z " fill="#080909" transform="translate(1139,498)"/>
<path d="M0 0 C3.70171804 1.39687473 5.36186137 2.72808422 7.14306641 6.27832031 C10.80935664 15.23550317 13.96477219 24.3351098 17.0625 33.5 C17.64186037 35.20434235 18.22145524 36.90860499 18.80126953 38.61279297 C22.59751502 49.78669947 26.34281384 60.97748154 30.05593872 72.17926025 C33.64481141 83.00593465 37.28681373 93.81407551 40.95381546 104.61449051 C41.72891054 106.89754118 42.50359445 109.18073099 43.27816772 111.46395874 C45.6225441 118.37381487 47.96816612 125.28322918 50.32109642 132.19017792 C51.31380781 135.10653552 52.30370739 138.02384251 53.29298019 140.9413681 C53.75505823 142.30211999 54.21830867 143.66247447 54.6828804 145.02237701 C64.87293735 174.85769615 64.87293735 174.85769615 63 181 C59.410782 186.13838845 56.16284911 188.23611971 50.16015625 190.12109375 C49.38142654 190.38296982 48.60269684 190.64484589 47.80036926 190.91465759 C45.22696523 191.77468044 42.64537327 192.60639178 40.0625 193.4375 C38.25421729 194.03379654 36.44644572 194.6316451 34.63916016 195.23095703 C30.79339391 196.5024011 26.94381813 197.76135011 23.09130859 199.01220703 C17.88056404 200.70690801 12.68233179 202.43703633 7.48710632 204.17866516 C3.30297306 205.58036253 -0.88448057 206.97193464 -5.07278442 208.3611145 C-7.09929014 209.03427952 -9.12491548 209.71010097 -11.14962769 210.38864136 C-13.99487266 211.33981789 -16.84432759 212.27712907 -19.6953125 213.2109375 C-20.53531296 213.49460678 -21.37531342 213.77827606 -22.24076843 214.07054138 C-26.9585479 215.59810215 -30.97706697 216.45648742 -36 216 C-42.82154178 212.32686212 -45.11895419 208.28219596 -47.47851562 201.0703125 C-47.70642288 200.38090576 -47.93433014 199.69149902 -48.16914368 198.98120117 C-48.92199463 196.69808178 -49.66408522 194.4116132 -50.40625 192.125 C-50.93782203 190.50611921 -51.47010242 188.88747086 -52.00305176 187.26904297 C-53.11731476 183.88121532 -54.22719497 180.49199834 -55.33349609 177.1015625 C-56.9230207 172.23141165 -58.52411253 167.36513766 -60.12890625 162.5 C-63.52360231 152.20432009 -66.90528022 141.90438036 -70.28643799 131.60424805 C-77.02459563 111.07857401 -83.79047773 90.56276814 -90.63555145 70.07246399 C-91.09106907 68.70809006 -91.5459429 67.343501 -92.0001297 65.97868347 C-93.12859 62.59070472 -94.2697979 59.20788929 -95.43334961 55.83178711 C-95.66407417 55.15627304 -95.89479874 54.48075897 -96.13251495 53.78477478 C-96.76444642 51.93594666 -97.40186455 50.08899646 -98.03967285 48.2421875 C-99.32899782 43.88926122 -100.30908577 39.42779009 -99 35 C-95.51532357 30.06708705 -92.46369686 27.84523783 -86.68310547 25.96020508 C-85.98219725 25.71496755 -85.28128902 25.46973001 -84.55914116 25.21706104 C-82.37864024 24.45937206 -80.19043383 23.72840169 -78 23 C-76.67991493 22.54795578 -75.36025884 22.09465648 -74.04107666 21.63998413 C-70.06027004 20.27664877 -66.06610476 18.95534525 -62.0703125 17.63671875 C-60.61813149 17.15475695 -59.16605644 16.6724758 -57.71408081 16.18989563 C-53.95119848 14.9399682 -50.18720558 13.69342425 -46.42285156 12.44793701 C-40.35098681 10.43855104 -34.28057556 8.42478828 -28.21075058 6.40925026 C-26.10062056 5.70927262 -23.98981953 5.01134822 -21.87893677 4.31364441 C-20.59651487 3.88844442 -19.31411418 3.46318047 -18.03173828 3.0378418 C-16.91195587 2.667332 -15.79217346 2.2968222 -14.63845825 1.91508484 C-9.40355794 0.09948745 -5.65207601 -0.56607849 0 0 Z M-8 160 C-10.32250299 163.90602776 -10.3997464 167.52284036 -10 172 C-8.4670823 175.21182757 -6.70456936 177.69540217 -4 180 C0.65746088 181.48151613 4.07551515 181.47064683 8.4375 179.25 C11.19257565 176.83090919 12.82126978 175.19843317 13.37109375 171.51171875 C13.60445419 164.9721582 13.60445419 164.9721582 10.625 159.375 C7.03165362 156.12387708 4.98112037 155.64777461 0.1015625 155.71875 C-3.37850484 156.18448392 -5.40913197 157.71756864 -8 160 Z " fill="#050505" transform="translate(1355,772)"/>
<path d="M0 0 C0.17380188 0.53393372 0.34760376 1.06786743 0.52667236 1.61798096 C2.7658697 8.49594421 5.00738767 15.37314952 7.25 22.25 C7.61414001 23.36676117 7.97828003 24.48352234 8.35345459 25.63412476 C12.66157617 38.84146071 16.99616825 52.03867126 21.41845703 65.20822144 C27.69401039 83.89853894 33.67119331 102.68040873 39.61779785 121.47761536 C42.02109011 129.07349353 44.44334091 136.66315616 46.875 144.25 C47.20274414 145.27311279 47.53048828 146.29622559 47.86816406 147.3503418 C48.57841829 149.56700952 49.28898236 151.78357705 50 154 C45.93274566 156.7115029 42.8452389 156.57867488 38 157 C37.01 153.37 36.02 149.74 35 146 C19.28185353 152.36170406 4.71617006 159.43168534 -9.4765625 168.70703125 C-20.55704624 175.94055396 -31.64736003 182.19376375 -44 187 C-44.67305176 187.26409668 -45.34610352 187.52819336 -46.03955078 187.80029297 C-69.37786166 196.75356668 -97.01423337 201.5692201 -122 201 C-121.50628906 201.96421875 -121.01257812 202.9284375 -120.50390625 203.921875 C-119.85655763 205.19780852 -119.20943401 206.47385621 -118.5625 207.75 C-118.23701172 208.38421875 -117.91152344 209.0184375 -117.57617188 209.671875 C-113.83033257 217.08631981 -112.24200133 224.63507301 -114.90625 232.765625 C-117.89105904 239.15617769 -121.17563427 242.88653473 -127.375 246.3125 C-134.07509132 248.06728582 -138.46826596 247.24131356 -144.3359375 243.875 C-145.98168489 242.84486538 -145.98168489 242.84486538 -148 243 C-149.41400565 244.88882917 -149.41400565 244.88882917 -150.8125 247.25 C-153.84409776 251.9526736 -156.5670462 255.1890154 -162 257 C-168.42350186 257.7264057 -173.65456439 257.60388258 -179.01171875 253.77734375 C-182.36721079 250.77783711 -185.30086975 247.43551324 -188.21484375 244.01171875 C-189.09849609 243.01591797 -189.09849609 243.01591797 -190 242 C-190.33 242 -190.66 242 -191 242 C-191.09796875 242.70125 -191.1959375 243.4025 -191.296875 244.125 C-192.80511351 253.69451332 -195.11659628 260.29583038 -202.79296875 266.51953125 C-208.08857599 270.07180584 -213.67260255 271.78860433 -220.01953125 270.6484375 C-225.30251178 268.91870423 -229.61050528 265.29837874 -234 262 C-234.60473145 262.35304199 -235.20946289 262.70608398 -235.83251953 263.06982422 C-238.59338366 264.67728886 -241.35911061 266.27619886 -244.125 267.875 C-245.07632813 268.43058594 -246.02765625 268.98617188 -247.0078125 269.55859375 C-256.4985617 275.02895614 -263.92491431 277.18182983 -275 276 C-280.35476375 274.35183626 -284.03352596 272.43590429 -287.1875 267.75 C-291.01766337 264.00495137 -293.99675307 264.51594826 -299.19335938 264.38818359 C-305.21030607 264.17160887 -310.34666419 262.95311956 -315 259 C-318.60986475 253.90593998 -319.62164008 250.01010028 -319.4375 243.75 C-319.42283691 242.9041333 -319.40817383 242.0582666 -319.39306641 241.18676758 C-318.65090535 214.00334633 -314.9655042 187.09428928 -310.39642334 160.32440186 C-310.00614939 158.03605655 -309.62135582 155.74683441 -309.23681641 153.45751953 C-308.63457222 149.89742371 -308.0073114 146.34260132 -307.35879517 142.79064941 C-307.01462622 140.89313891 -306.68508529 138.9929928 -306.35620117 137.09277344 C-304.40871576 126.86829725 -300.7791555 117.52144125 -293.8125 109.625 C-290.33609597 105.5672575 -286.96856241 101.46524566 -283.6875 97.25 C-279.80567404 92.28396817 -275.88514076 87.35134211 -271.9375 82.4375 C-261.82978506 69.82676792 -252.24248939 56.93354423 -242.984375 43.6875 C-221.25898119 12.63560002 -221.25898119 12.63560002 -203.40551758 8.41235352 C-198.42194174 7.55806958 -193.41913762 7.61933093 -188.375 7.625 C-187.72992493 7.62388214 -187.08484985 7.62276428 -186.42022705 7.62161255 C-166.07080449 7.6382374 -145.7352618 9.35372669 -125.44433594 10.76025391 C-105.5072313 12.14035973 -85.61403049 13.22828459 -65.625 13.25 C-64.37536972 13.25250763 -64.37536972 13.25250763 -63.10049438 13.25506592 C-45.72264748 13.25713735 -29.01749496 11.53840346 -12 8 C-12 6.68 -12 5.36 -12 4 C-11.67 3.01 -11.34 2.02 -11 1 C-6.85322684 -0.88489689 -4.35874988 -1.03779759 0 0 Z M-220.6015625 32.11328125 C-225.25062859 37.70881845 -229.30695349 43.72344487 -233.421875 49.71630859 C-245.70225859 67.48714834 -258.78326588 84.74053629 -272.47070312 101.44775391 C-275.8653558 105.59285968 -279.21721773 109.7655965 -282.5 114 C-283.2528125 114.969375 -284.005625 115.93875 -284.78125 116.9375 C-285.5134375 117.948125 -286.245625 118.95875 -287 120 C-287.42410156 120.55800293 -287.84820313 121.11600586 -288.28515625 121.69091797 C-292.49691895 127.68953672 -293.66770094 134.00921415 -295 141.125 C-295.24854736 142.39472656 -295.49709473 143.66445313 -295.75317383 144.97265625 C-296.53095449 148.9765972 -297.26802366 152.98747569 -298 157 C-298.23251465 158.2590918 -298.4650293 159.51818359 -298.70458984 160.81542969 C-302.0453243 179.12848941 -304.40945889 197.4545879 -306 216 C-306.07202637 216.83756836 -306.14405273 217.67513672 -306.21826172 218.53808594 C-306.58765699 223.02373995 -306.84159272 227.50219321 -307 232 C-307.02723145 232.74266113 -307.05446289 233.48532227 -307.08251953 234.25048828 C-307.15936056 236.60453016 -307.20956035 238.95757242 -307.25 241.3125 C-307.27151123 242.03727539 -307.29302246 242.76205078 -307.31518555 243.50878906 C-307.33279625 246.28795748 -307.3018107 248.46308314 -305.921875 250.91796875 C-303.06449844 252.52669499 -300.22814692 252.69545784 -297 253 C-297.03480469 251.96101563 -297.06960938 250.92203125 -297.10546875 249.8515625 C-297.45157225 235.2977354 -294.31895944 225.70991706 -285.6875 213.8125 C-282.64184224 210.62518374 -279.35704594 208.09710994 -275.79296875 205.515625 C-275.20128906 205.01546875 -274.60960937 204.5153125 -274 204 C-274 203.34 -274 202.68 -274 202 C-275.28913487 201.32845067 -276.58140204 200.66291141 -277.875 200 C-278.95394531 199.443125 -278.95394531 199.443125 -280.0546875 198.875 C-281.94848977 197.86326254 -281.94848977 197.86326254 -284 198 C-284 196.02 -284 194.04 -284 192 C-279.05 192.33 -274.1 192.66 -269 193 C-265.51146789 185.54175893 -262.79373755 177.93112212 -260.1875 170.125 C-259.76791016 168.90296875 -259.34832031 167.6809375 -258.91601562 166.421875 C-258.52478516 165.25398437 -258.13355469 164.08609375 -257.73046875 162.8828125 C-257.19522583 161.29557373 -257.19522583 161.29557373 -256.64916992 159.67626953 C-255.7306176 156.92323279 -255.7306176 156.92323279 -257 154 C-257.845625 153.566875 -258.69125 153.13375 -259.5625 152.6875 C-260.366875 152.130625 -261.17125 151.57375 -262 151 C-262.3125 147.8125 -262.3125 147.8125 -262 145 C-255.26985808 145.92374497 -255.26985808 145.92374497 -252.51171875 146.703125 C-250.00517232 147.23412429 -250.00517232 147.23412429 -248 145.98828125 C-247.34 145.43527344 -246.68 144.88226562 -246 144.3125 C-244.84371094 143.34570312 -244.84371094 143.34570312 -243.6640625 142.359375 C-242.78492188 141.58078125 -241.90578125 140.8021875 -241 140 C-240.48276367 139.54302734 -239.96552734 139.08605469 -239.43261719 138.61523438 C-232.86293264 132.77637406 -226.54024447 126.8497568 -221 120 C-221.48210937 119.27554688 -221.96421875 118.55109375 -222.4609375 117.8046875 C-223.09257813 116.83789062 -223.72421875 115.87109375 -224.375 114.875 C-225.00148438 113.92367187 -225.62796875 112.97234375 -226.2734375 111.9921875 C-227.97681069 109.04018781 -229.04193409 106.26129506 -230 103 C-226.76627558 100.84418372 -225.75464918 100.37134138 -222 101 C-220.11328125 103.01953125 -220.11328125 103.01953125 -218.3125 105.8125 C-210.72153271 116.82435012 -200.94491069 128.63505982 -187.5859375 132.7421875 C-187.06257813 132.82726562 -186.53921875 132.91234375 -186 133 C-186 129.5685857 -186.62483005 128.67124271 -188.45703125 125.8515625 C-188.98780273 125.02060059 -189.51857422 124.18963867 -190.06542969 123.33349609 C-190.64196289 122.43969238 -191.21849609 121.54588867 -191.8125 120.625 C-196.6196417 113.0316294 -201.10482264 105.34998355 -205.25 97.375 C-205.71510986 96.48119629 -206.18021973 95.58739258 -206.65942383 94.66650391 C-208.30766262 91.45836371 -209.85775043 88.42674871 -211 85 C-206.545 84.505 -206.545 84.505 -202 84 C-201.57178955 84.7206665 -201.1435791 85.44133301 -200.70239258 86.18383789 C-199.09269375 88.88956663 -197.48023507 91.59362622 -195.8659668 94.29663086 C-194.83237416 96.02918602 -193.80189812 97.76359923 -192.77148438 99.49804688 C-189.38553282 105.16332191 -186.03221983 110.76798594 -182 116 C-181.67 116 -181.34 116 -181 116 C-181 108.74 -181 101.48 -181 94 C-178.36 93.67 -175.72 93.34 -173 93 C-171.2149803 100.38938895 -170.66342435 107.41135596 -170.6875 115 C-170.67138672 116.01578125 -170.65527344 117.0315625 -170.63867188 118.078125 C-170.62924071 132.79073937 -176.40214127 144.96451261 -186.46875 155.6015625 C-197.25504263 165.82190768 -210.62459692 173.52731516 -223.06616211 181.57202148 C-253.83650537 201.00920526 -253.83650537 201.00920526 -281 225 C-280.34 225.33 -279.68 225.66 -279 226 C-276.61630858 224.80822393 -276.61630858 224.80822393 -274.0625 223.125 C-268.66588179 219.70740673 -264.4521635 218.32534412 -258 219 C-249.7156206 222.08633742 -244.28505136 229.55431083 -239.8359375 236.9296875 C-238.82512856 239.43309281 -238.76782609 241.36988143 -238.8125 244.0625 C-238.81894531 244.91972656 -238.82539062 245.77695313 -238.83203125 246.66015625 C-239 249 -239 249 -240 252 C-235.04402525 250.3441472 -231.04002184 247.51775767 -226.75390625 244.609375 C-225.9544458 244.07261642 -225.15498535 243.53585785 -224.33129883 242.98283386 C-222.62318395 241.83571082 -220.91636204 240.68666055 -219.21072388 239.53585815 C-214.78350263 236.55031405 -210.34468002 233.58212571 -205.90625 230.61328125 C-205.03811172 230.03224136 -204.16997345 229.45120148 -203.27552795 228.85255432 C-173.07409121 208.65956453 -146.52045184 193.15951622 -109.96121216 188.84765625 C-75.08722122 184.70187475 -41.90378491 178.41571935 -12.80444336 157.41552734 C-6.67677135 153.00961541 -0.39836843 149.32016374 6.3125 145.875 C7.31418213 145.35583008 8.31586426 144.83666016 9.34790039 144.30175781 C16.42234978 140.68416115 23.47747611 137.57219732 31 135 C28.50040652 125.19068233 25.33969302 115.61313419 22.1875 106 C21.61546392 104.24902656 21.04369215 102.49796676 20.47216797 100.74682617 C19.26920502 97.06180123 18.06492314 93.37721081 16.85986328 89.69287109 C14.99256807 83.98093503 13.1340714 78.26615976 11.27734375 72.55078125 C10.66057827 70.65298988 10.04379779 68.75520338 9.42700195 66.85742188 C8.54106604 64.13150176 7.65522055 61.40555266 6.76986694 58.67944336 C5.1382068 53.65675017 3.49921972 48.63653366 1.85412598 43.6182251 C0.92855096 40.78098116 0.01472605 37.94006838 -0.89941406 35.09912109 C-1.52898692 33.16363613 -2.15886188 31.2282494 -2.7890625 29.29296875 C-3.22634171 27.9207592 -3.22634171 27.9207592 -3.67245483 26.52082825 C-3.94763947 25.68146225 -4.2228241 24.84209625 -4.50634766 23.97729492 C-4.7469693 23.23203049 -4.98759094 22.48676605 -5.23550415 21.71891785 C-5.87100551 19.7997024 -5.87100551 19.7997024 -8 19 C-10.19402969 19.21963395 -10.19402969 19.21963395 -12.69140625 19.7421875 C-13.63693359 19.92136719 -14.58246094 20.10054687 -15.55664062 20.28515625 C-16.54857422 20.47980469 -17.54050781 20.67445313 -18.5625 20.875 C-20.50070883 21.25047132 -22.4395091 21.62290324 -24.37890625 21.9921875 C-25.2407251 22.16089355 -26.10254395 22.32959961 -26.99047852 22.50341797 C-34.42118031 23.72951089 -41.76396626 24.1861042 -49.2890625 24.2734375 C-50.30570984 24.28569366 -51.32235718 24.29794983 -52.36981201 24.31057739 C-55.78823342 24.34315229 -59.2064508 24.36160153 -62.625 24.375 C-63.81554993 24.38055908 -65.00609985 24.38611816 -66.23272705 24.3918457 C-95.53852315 24.45903992 -124.74524303 22.60756858 -153.98291016 20.77880859 C-154.9107431 20.72094744 -155.83857605 20.66308628 -156.79452515 20.60347176 C-161.17862303 20.32941112 -165.56233339 20.05089053 -169.94549561 19.76223755 C-197.71114436 17.84726035 -197.71114436 17.84726035 -220.6015625 32.11328125 Z M-215 129 C-216.64777106 130.69354248 -218.20164407 132.40635411 -219.75 134.1875 C-224.05721528 139.01826032 -228.55662761 143.54790342 -233.3125 147.9375 C-233.88645508 148.46819092 -234.46041016 148.99888184 -235.05175781 149.5456543 C-235.60831055 150.05523682 -236.16486328 150.56481934 -236.73828125 151.08984375 C-237.27710938 151.59088623 -237.8159375 152.09192871 -238.37109375 152.6081543 C-240 154 -240 154 -241.73828125 155.07348633 C-243.71533691 156.24710158 -243.71533691 156.24710158 -246 159 C-246.73018416 162.96260796 -246.5661425 166.80095803 -246.375 170.8125 C-246.34792969 171.88693359 -246.32085938 172.96136719 -246.29296875 174.06835938 C-246.22241045 176.71429568 -246.12388756 179.3561124 -246 182 C-242.13570743 180.59647423 -238.90952878 178.78393517 -235.48046875 176.5234375 C-234.45888672 175.853125 -233.43730469 175.1828125 -232.38476562 174.4921875 C-231.32966797 173.79351563 -230.27457031 173.09484375 -229.1875 172.375 C-227.57584961 171.31539062 -227.57584961 171.31539062 -225.93164062 170.234375 C-223.28511198 168.49354727 -220.64136945 166.7486418 -218 165 C-218.31710937 164.38640625 -218.63421875 163.7728125 -218.9609375 163.140625 C-219.95628485 161.09005979 -220.52411861 159.22077983 -221 157 C-219.78763672 155.93072266 -219.78763672 155.93072266 -218.55078125 154.83984375 C-210.33658367 147.71991658 -210.33658367 147.71991658 -204 139 C-204.20692302 136.22832063 -204.7589879 135.23094786 -206.77734375 133.296875 C-207.84662109 132.53117188 -207.84662109 132.53117188 -208.9375 131.75 C-209.64777344 131.22921875 -210.35804687 130.7084375 -211.08984375 130.171875 C-212.9106287 128.82569004 -212.9106287 128.82569004 -215 129 Z M-194 143 C-194.99 144.98 -195.98 146.96 -197 149 C-194.37812506 147.95125002 -193.20628639 147.35068687 -191.75 144.875 C-191.5025 144.25625 -191.255 143.6375 -191 143 C-191.99 143 -192.98 143 -194 143 Z M-142.5625 206.375 C-144.32787109 207.03628906 -144.32787109 207.03628906 -146.12890625 207.7109375 C-149.10540442 208.68348861 -149.10540442 208.68348861 -150 211 C-149.37834236 213.64056485 -148.68074577 216.16605668 -147.875 218.75 C-147.67390625 219.45382812 -147.4728125 220.15765625 -147.265625 220.8828125 C-145.33556183 227.13807746 -142.55515691 231.29656206 -137 235 C-133.54230809 235.58342353 -133.54230809 235.58342353 -130 235 C-126.79173416 232.3827305 -125.71832546 229.78441726 -125 225.8125 C-124.41927364 217.50258231 -128.87301021 210.20635607 -134 204 C-137.11142152 204 -139.66818811 205.27573336 -142.5625 206.375 Z M-167.44921875 218.625 C-168.29677734 219.16640625 -169.14433594 219.7078125 -170.01757812 220.265625 C-170.89865234 220.83796875 -171.77972656 221.4103125 -172.6875 222 C-174.02651367 222.85851563 -174.02651367 222.85851563 -175.39257812 223.734375 C-177.59900419 225.15026338 -179.80119726 226.57231286 -182 228 C-181.24610258 232.4997217 -179.80982873 235.0736469 -177.0625 238.75 C-176.35222656 239.71421875 -175.64195312 240.6784375 -174.91015625 241.671875 C-173.21253281 244.06365289 -173.21253281 244.06365289 -171 245 C-166.01009525 245.50034663 -166.01009525 245.50034663 -161.6875 243.3125 C-158.30900855 238.68271542 -157.72532175 234.74466744 -157.75 229.0625 C-157.74484375 227.87785156 -157.7396875 226.69320313 -157.734375 225.47265625 C-158.00006294 221.99917717 -158.75379447 219.23914532 -160 216 C-163.50468883 216 -164.54629919 216.75466257 -167.44921875 218.625 Z M-283.95703125 238 C-286.29897388 239.95571752 -286.29897388 239.95571752 -286.9375 243.4375 C-284.73506363 251.80675819 -281.437447 258.47279854 -274.5625 263.9375 C-271.18691429 265.3371331 -269.52703644 264.9096493 -266 264 C-261.74447327 261.33679157 -257.91364729 258.13928927 -254 255 C-253.24203125 254.4328125 -252.4840625 253.865625 -251.703125 253.28125 C-248.90960497 251.11107742 -247.18413244 249.60050399 -246.1328125 246.171875 C-245.89193416 240.41913345 -249.60965278 236.40209115 -253 232 C-263.11690825 221.14688482 -274.14569615 230.52469707 -283.95703125 238 Z M-209.03515625 245.40625 C-209.84404297 245.90253906 -210.65292969 246.39882812 -211.48632812 246.91015625 C-212.7615332 247.69712891 -212.7615332 247.69712891 -214.0625 248.5 C-215.34350586 249.28697266 -215.34350586 249.28697266 -216.65039062 250.08984375 C-218.76814929 251.39125969 -220.88461576 252.69472934 -223 254 C-222.309697 257.00281178 -222.309697 257.00281178 -220.375 258.25 C-216.77385157 259.38720477 -214.62698043 259.06308047 -211 258 C-207.75659292 255.49504721 -205.46524525 252.75691297 -204.40625 248.7578125 C-204.06243768 246.34185007 -204.06243768 246.34185007 -204 243 C-205.88144447 243 -207.48068239 244.4496507 -209.03515625 245.40625 Z " fill="#131313" transform="translate(1249,825)"/>
<path d="M0 0 C0.33 0 0.66 0 1 0 C1 9.57 1 19.14 1 29 C-2.95337248 29.98834312 -6.06449229 30.12316297 -10.12469482 30.12025452 C-11.20175387 30.12153615 -11.20175387 30.12153615 -12.30057168 30.12284368 C-14.7065914 30.1244908 -17.11254139 30.11898967 -19.51855469 30.11352539 C-21.24326068 30.11324333 -22.9679668 30.11340163 -24.69267273 30.1139679 C-29.37618129 30.11425512 -34.05966431 30.10837041 -38.74316692 30.10139394 C-43.63722797 30.09514802 -48.53128959 30.09455562 -53.425354 30.09336853 C-62.69358509 30.09025888 -71.9618044 30.0820504 -81.2300303 30.07201904 C-91.78131128 30.06084657 -102.33259281 30.05534459 -112.88387823 30.05032361 C-134.58925873 30.0398675 -156.29462862 30.02227511 -178 30 C-178 29.67 -178 29.34 -178 29 C-141.06560297 28.07641116 -104.1512441 27.86825062 -67.20849597 27.92797339 C-59.95967869 27.93947345 -52.71086002 27.9447281 -45.46203578 27.94967639 C-30.64134601 27.95992231 -15.82067791 27.97813613 -1 28 C-0.67 18.76 -0.34 9.52 0 0 Z " fill="#898989" transform="translate(1388,1327)"/>
<path d="M0 0 C0.33 0 0.66 0 1 0 C1 9.57 1 19.14 1 29 C-2.84301176 29.96075294 -5.84558152 30.12913336 -9.78515625 30.1328125 C-10.44148544 30.13376923 -11.09781464 30.13472595 -11.77403259 30.13571167 C-13.16340226 30.13639091 -14.55277514 30.13455447 -15.94213867 30.13037109 C-18.0311633 30.12507938 -20.11996694 30.13029329 -22.20898438 30.13671875 C-29.85660496 30.14013515 -37.39939431 29.8825991 -45 29 C-45 28.67 -45 28.34 -45 28 C-30.48 28 -15.96 28 -1 28 C-0.67 18.76 -0.34 9.52 0 0 Z " fill="#747475" transform="translate(1388,1327)"/>
<path d="M0 0 C5.34947395 0.63421598 7.12106701 2.85191366 10.4140625 6.87109375 C15.22062469 13.32325235 15.22062469 13.32325235 14.6875 17.375 C14.3471875 18.179375 14.3471875 18.179375 14 19 C8.02822029 16.42754105 4.27512451 11.18005158 1.0625 5.6875 C0 3 0 3 0 0 Z " fill="#303030" transform="translate(1025,1028)"/>
<path d="M0 0 C0.66 0.33 1.32 0.66 2 1 C-3.61 6.61 -9.22 12.22 -15 18 C-15.66 17.67 -16.32 17.34 -17 17 C-15.29657414 15.09955869 -13.58752883 13.20471126 -11.875 11.3125 C-11.400625 10.78205078 -10.92625 10.25160156 -10.4375 9.70507812 C-7.18500869 6.12294242 -3.77952775 3.02250068 0 0 Z " fill="#4A4A4A" transform="translate(1018,1178)"/>
<path d="M0 0 C0.66 0.33 1.32 0.66 2 1 C-2.95 5.95 -7.9 10.9 -13 16 C-13 11.93645091 -11.47015238 10.94829419 -8.75 8 C-7.96109375 7.13375 -7.1721875 6.2675 -6.359375 5.375 C-4.3351828 3.33740256 -2.34982916 1.63841299 0 0 Z " fill="#4C4C4C" transform="translate(1030,840)"/>
<path d="M0 0 C0.66 0.33 1.32 0.66 2 1 C-1.96 4.96 -5.92 8.92 -10 13 C-10.66 12.67 -11.32 12.34 -12 12 C-8.32167983 7.47384007 -4.58913637 3.60575001 0 0 Z " fill="#474747" transform="translate(972,1030)"/>
<path d="M0 0 C2.4375 0.375 2.4375 0.375 5 1 C5.33 1.66 5.66 2.32 6 3 C5.2575 2.9175 4.515 2.835 3.75 2.75 C0.21842973 3.07105184 -0.76630364 4.35265617 -3 7 C-3.66 6.67 -4.32 6.34 -5 6 C-3.35 4.02 -1.7 2.04 0 0 Z " fill="#4E4E4F" transform="translate(632,824)"/>
</svg>
