<?xml version="1.0" encoding="UTF-8"?>
<svg version="1.1" xmlns="http://www.w3.org/2000/svg" width="600" height="600">
<path d="M0 0 C5.48722294 3.04845719 10.60634621 5.94673823 15.7734375 9.40625 C16.37526855 9.80795914 16.97709961 10.20966827 17.59716797 10.62355042 C19.52551064 11.91215833 21.45035979 13.20587017 23.375 14.5 C24.71943892 15.40049573 26.06400386 16.30080333 27.40869141 17.20092773 C36.9585749 23.60018476 46.47155015 30.05244051 55.93554688 36.578125 C57.99074775 37.99362759 60.0494875 39.40382813 62.109375 40.8125 C70.27937824 46.40406207 78.38661451 52.07920389 86.46875 57.796875 C91.55582351 61.39493856 96.65045507 64.98213644 101.75 68.5625 C103.0189209 69.45642456 103.0189209 69.45642456 104.31347656 70.3684082 C108.13745471 73.0505147 111.93981708 75.68107439 116 78 C114.58440957 81.41540011 113.02788953 82.9930548 109.9921875 85.06640625 C109.17878906 85.6284375 108.36539062 86.19046875 107.52734375 86.76953125 C106.65207031 87.36121094 105.77679688 87.95289063 104.875 88.5625 C103.97136719 89.18382812 103.06773437 89.80515625 102.13671875 90.4453125 C99.42973378 92.30469428 96.71536142 94.15288126 94 96 C91.96212167 97.39757132 89.92632385 98.79812124 87.89086914 100.19921875 C86.6227202 101.07161353 85.35366531 101.94269274 84.08374023 102.8125 C78.67255029 106.52133107 73.30464703 110.29032136 67.9375 114.0625 C61.6278435 118.49234272 55.28480704 122.85623231 48.85424805 127.10839844 C43.28604939 130.79429497 37.76564447 134.54850319 32.25 138.3125 C31.3223584 138.94478516 30.3947168 139.57707031 29.43896484 140.22851562 C24.7607232 143.42040286 20.09182747 146.62489222 15.4375 149.8515625 C14.56319336 150.45572998 13.68888672 151.05989746 12.78808594 151.68237305 C11.12714958 152.83093706 9.46883219 153.98329991 7.81347656 155.13989258 C7.07581055 155.64931396 6.33814453 156.15873535 5.578125 156.68359375 C4.93262695 157.13275146 4.28712891 157.58190918 3.62207031 158.04467773 C2 159 2 159 0 159 C-0.33 142.17 -0.66 125.34 -1 108 C-150.59177395 101.82215341 -150.59177395 101.82215341 -288.44775391 169.37744141 C-304.02591899 185.66125473 -313.81188357 205.20991098 -319 227 C-319.66 226.67 -320.32 226.34 -321 226 C-319.57549005 178.49996149 -302.60270415 140.66990529 -268.12597656 107.96630859 C-197.93370452 43.04571156 -88.56213149 50.75122997 0 51 C0 34.17 0 17.34 0 0 Z " fill="#070707" transform="translate(401,274)"/>
<path d="M0 0 C4.50633202 0.9012664 5.72611703 1.21651528 9.125 3.75 C14.00759853 7.29440486 18.95220146 10.72753669 23.9375 14.125 C25.6029588 15.26288295 27.26832181 16.4009061 28.93359375 17.5390625 C29.77390137 18.11301758 30.61420898 18.68697266 31.47998047 19.27832031 C36.2802969 22.55790096 41.07763087 25.84184251 45.875 29.12573242 C49.81940073 31.82536383 53.76536309 34.52264854 57.71484375 37.21484375 C68.33948702 44.46176746 78.89746828 51.79898987 89.42236328 59.18994141 C93.90475966 62.33755333 98.38958248 65.48169543 102.875 68.625 C103.7012085 69.20499756 104.52741699 69.78499512 105.37866211 70.38256836 C109.55263885 73.30793063 113.74427435 76.19477891 118 79 C116.60028054 82.35013343 115.11932841 83.92845705 112.1328125 85.9609375 C111.33979736 86.50766113 110.54678223 87.05438477 109.72973633 87.61767578 C108.87017334 88.19759277 108.01061035 88.77750977 107.125 89.375 C105.29802269 90.6299836 103.47120419 91.88519842 101.64453125 93.140625 C100.70689941 93.78064453 99.76926758 94.42066406 98.80322266 95.08007812 C94.44965174 98.06183058 90.1318853 101.09404492 85.8125 104.125 C84.97178955 104.71265137 84.1310791 105.30030273 83.26489258 105.90576172 C79.5388353 108.51085486 75.81849651 111.12233632 72.125 113.7734375 C60.88305041 121.82473189 49.3725413 129.46189775 37.8371582 137.08398438 C30.87921238 141.68950048 24.01060155 146.36260966 17.29248047 151.31591797 C14.40860839 153.43444295 11.47550177 155.44983282 8.5 157.4375 C7.5203125 158.09621094 6.540625 158.75492188 5.53125 159.43359375 C3 161 3 161 0 162 C0 145.5 0 129 0 112 C-27.0775475 116.92319046 -50.83347429 122.57215752 -67.11328125 145.984375 C-75.68507625 159.68504941 -78.5661973 173.54798972 -78.4375 189.5625 C-78.43137695 190.87009277 -78.42525391 192.17768555 -78.41894531 193.52490234 C-78.18821063 207.96001896 -75.72440637 221.33295808 -70.734375 234.8828125 C-70 237 -70 237 -70 239 C-70.80667114 239.2333606 -70.80667114 239.2333606 -71.62963867 239.47143555 C-81.43350991 242.32170218 -91.07816295 245.17442011 -100.46875 249.21484375 C-103.30398712 250.0942923 -104.29163187 250.12089886 -107 249 C-108.27685547 247.10839844 -108.27685547 247.10839844 -109.3671875 244.609375 C-109.77509521 243.68278076 -110.18300293 242.75618652 -110.60327148 241.80151367 C-111.02294189 240.79451416 -111.4426123 239.78751465 -111.875 238.75 C-112.31336182 237.71528564 -112.75172363 236.68057129 -113.20336914 235.61450195 C-117.33392479 225.61753663 -120.5138653 215.51973705 -123 205 C-123.26466064 203.92250488 -123.26466064 203.92250488 -123.53466797 202.82324219 C-131.11890755 170.78753445 -126.11564287 136.06675335 -109 108 C-88.13952367 76.28181673 -56.68020868 59.08949565 -20.28515625 50.89453125 C-13.33194693 49.45925384 -7.20918906 49 0 49 C0 32.83 0 16.66 0 0 Z " fill="#070706" transform="translate(290,85)"/>
<path d="M0 0 C4.23843891 0.97900318 5.40676011 3.68816956 7.66918945 7.25634766 C8.23597412 8.19140137 8.80275879 9.12645508 9.38671875 10.08984375 C10.61634911 12.02645822 11.8508109 13.96001266 13.08984375 15.890625 C13.71052734 16.86209473 14.33121094 17.83356445 14.97070312 18.83447266 C22.08897605 29.65627272 30.51826897 39.73175225 38.82421875 49.65234375 C39.23849121 50.1515332 39.65276367 50.65072266 40.07958984 51.16503906 C50.49252165 63.70990397 61.56850018 75.48484967 73.07421875 87.02734375 C73.54598541 87.50178925 74.01775208 87.97623474 74.5038147 88.46505737 C80.10171356 94.08705416 85.79483569 99.49750362 91.82421875 104.65234375 C93.51552736 106.16894042 95.20364216 107.68911656 96.88671875 109.21484375 C100.81354838 112.7593082 104.78940427 116.23152278 108.82421875 119.65234375 C104.90580291 119.65234375 102.97711814 117.89143341 99.94921875 115.65234375 C99.05021851 114.99878906 99.05021851 114.99878906 98.13305664 114.33203125 C89.73367078 108.18444925 81.48334447 101.83312845 73.22705078 95.49560547 C71.14641902 93.89951019 69.06257571 92.30779959 66.9765625 90.71875 C55.77529237 82.1728836 44.99696152 73.16698778 34.33837891 63.95947266 C33.11086918 62.89980044 31.88013929 61.84385919 30.6484375 60.7890625 C21.8779726 53.22054568 12.95706774 45.5212914 5.52734375 36.609375 C3.40415119 34.16965144 1.12644471 31.9235517 -1.17578125 29.65234375 C-5.39139454 25.4748808 -9.35525091 21.19077072 -13.17578125 16.65234375 C-13.98917969 15.71648437 -14.80257812 14.780625 -15.640625 13.81640625 C-16.47722656 12.83414062 -17.31382812 11.851875 -18.17578125 10.83984375 C-18.95953125 9.92589844 -19.74328125 9.01195312 -20.55078125 8.0703125 C-21.08703125 7.27238281 -21.62328125 6.47445313 -22.17578125 5.65234375 C-21.84578125 4.66234375 -21.51578125 3.67234375 -21.17578125 2.65234375 C-18.30121333 2.31486827 -15.42622066 1.98223912 -12.55078125 1.65234375 C-11.33841797 1.50925781 -11.33841797 1.50925781 -10.1015625 1.36328125 C-8.51396075 1.18257861 -6.92417473 1.02003941 -5.33276367 0.87670898 C-2.9923774 0.6691644 -2.9923774 0.6691644 0 0 Z " fill="#151515" transform="translate(253.17578125,395.34765625)"/>
<path d="M0 0 C1.3921875 1.2065625 1.3921875 1.2065625 2.8125 2.4375 C6.93547585 5.98830777 11.18720251 9.37202349 15.44921875 12.75390625 C17.98291996 14.98496015 19.97745169 17.30484781 22 20 C16.68632037 18.04977577 12.67270276 15.07489957 8.1875 11.6875 C7.39923828 11.11837891 6.61097656 10.54925781 5.79882812 9.96289062 C5.05439453 9.40150391 4.30996094 8.84011719 3.54296875 8.26171875 C2.86258545 7.75600342 2.18220215 7.25028809 1.48120117 6.72924805 C0 5 0 5 -0.22143555 2.29614258 C-0.14836182 1.53841553 -0.07528809 0.78068848 0 0 Z " fill="#414141" transform="translate(340,496)"/>
<path d="M0 0 C0.66 0.33 1.32 0.66 2 1 C-4.6 7.6 -11.2 14.2 -18 21 C-18.66 20.67 -19.32 20.34 -20 20 C-13.76332984 12.76238278 -7.16527521 6.29472776 0 0 Z " fill="#444545" transform="translate(209,162)"/>
<path d="M0 0 C2.475 0.99 2.475 0.99 5 2 C4.01 2.33 3.02 2.66 2 3 C1.67 15.87 1.34 28.74 1 42 C0.67 42 0.34 42 0 42 C0 28.14 0 14.28 0 0 Z " fill="#0D0E0E" transform="translate(291,85)"/>
<path d="M0 0 C0.33 0 0.66 0 1 0 C1.0580966 3.9166043 1.09362893 7.83309763 1.125 11.75 C1.14175781 12.86117188 1.15851563 13.97234375 1.17578125 15.1171875 C1.18222656 16.18710937 1.18867187 17.25703125 1.1953125 18.359375 C1.20578613 19.34389648 1.21625977 20.32841797 1.22705078 21.34277344 C0.99489618 24.05973111 0.39036273 25.68112513 -1 28 C-2 27 -2 27 -2.03759766 25.16162109 C-1.99683105 24.37352051 -1.95606445 23.58541992 -1.9140625 22.7734375 C-1.87023437 21.90589844 -1.82640625 21.03835938 -1.78125 20.14453125 C-1.7296875 19.23058594 -1.678125 18.31664062 -1.625 17.375 C-1.58117187 16.48425781 -1.53734375 15.59351563 -1.4921875 14.67578125 C-1.2298682 9.7281478 -0.79064789 4.89129628 0 0 Z " fill="#787879" transform="translate(82,473)"/>
<path d="M0 0 C5.09210286 3.56320845 9.22660027 7.04741286 13 12 C8.13504342 10.47970107 3.54164866 7.67347181 0 4 C0 2.68 0 1.36 0 0 Z " fill="#595959" transform="translate(349,504)"/>
<path d="M0 0 C2.475 0.99 2.475 0.99 5 2 C4.01 2.33 3.02 2.66 2 3 C1.67 7.62 1.34 12.24 1 17 C0.67 17 0.34 17 0 17 C0 11.39 0 5.78 0 0 Z " fill="#2B2C2D" transform="translate(291,85)"/>
<path d="M0 0 C3.25543229 0.34879632 4.01873107 1.02133261 6.25 3.5625 C6.8275 4.366875 7.405 5.17125 8 6 C5.0280615 4.87548273 2.66559313 3.77706209 0 2 C0 1.34 0 0.68 0 0 Z " fill="#868686" transform="translate(354,510)"/>
</svg>
