<?xml version="1.0" encoding="UTF-8"?>
<svg version="1.1" xmlns="http://www.w3.org/2000/svg" width="1248" height="1248">
<path d="M0 0 C-0.46713815 3.80776473 -0.93179893 7.5907936 -1.5625 11.375 C-2.68805937 20.70106338 -2.60379592 31.44842849 2.04476929 39.89935303 C3.1403207 42.30857912 3.21091881 43.86002549 3.13525391 46.49316406 C3.10499619 47.81408051 3.10499619 47.81408051 3.0741272 49.16168213 C3.04193085 50.10348328 3.0097345 51.04528442 2.9765625 52.015625 C2.95153656 52.98659119 2.92651062 53.95755737 2.90072632 54.95794678 C2.81863039 58.05565845 2.722 61.15272269 2.625 64.25 C2.56674984 66.35153615 2.50944679 68.45309878 2.453125 70.5546875 C2.31306686 75.7034966 2.15997316 80.85177273 2 86 C4.38654831 84.27150382 6.77018425 82.53921433 9.15234375 80.8046875 C9.82116577 80.32088623 10.48998779 79.83708496 11.17907715 79.33862305 C15.15784347 76.4363496 18.89146039 73.40631095 22.5625 70.125 C25.79999163 67.76263535 27.226737 66.95740108 31.26171875 67.1796875 C33.63236644 67.73717464 35.98874012 68.35836914 38.328125 69.03515625 C51.25986781 72.43317803 65.0538479 69.68381668 76.5 63.0625 C78.01612169 62.06576747 79.51836745 61.04731355 81 60 C82.051875 59.2575 83.10375 58.515 84.1875 57.75 C94.86571705 47.30907667 99.76426147 34.33059695 100.5625 19.6875 C100.60568359 18.94693359 100.64886719 18.20636719 100.69335938 17.44335938 C100.79870432 15.62908536 100.89978316 13.8145645 101 12 C137.9632897 19.3617694 174.49880376 35.85263579 205.85400391 56.58300781 C207.86603979 57.91154664 209.88955961 59.22008773 211.91796875 60.5234375 C227.24218918 70.44769454 241.43759708 81.79781674 255 94 C255.62600098 94.56283691 256.25200195 95.12567383 256.89697266 95.70556641 C269.13447581 106.76294615 269.13447581 106.76294615 274.390625 113.0859375 C275.52771819 114.43830561 276.70999313 115.7532854 277.921875 117.0390625 C318.07030483 159.67845331 342.54019264 220.10064748 348 278 C348.11085938 279.093125 348.22171875 280.18625 348.3359375 281.3125 C354.41921407 351.02356119 332.58396095 418.92075247 288.14453125 472.48828125 C285.24088166 475.88909489 282.26837452 479.22062879 279.25390625 482.5234375 C277.7257804 484.20252205 276.21314142 485.89580823 274.71484375 487.6015625 C270.80717063 492.03874878 266.87202226 496.15577108 262.3515625 499.96484375 C259.84194764 502.13678618 257.42642501 504.38994622 255.00878906 506.66308594 C248.55132107 512.7327596 241.94249522 518.48519533 235 524 C233.80141103 524.96661487 232.60353699 525.93411667 231.40625 526.90234375 C223.72468231 533.10217772 215.94476292 539.13968849 208 545 C206.55464534 546.07025557 205.10933623 547.14057265 203.6640625 548.2109375 C195.74841822 554.06466097 187.80448605 559.87593735 179.8125 565.625 C167.99616952 574.13291284 156.24846228 582.7480952 145 592 C143.54787109 593.17369141 143.54787109 593.17369141 142.06640625 594.37109375 C106.06355183 623.82746641 86.43805891 659.68763254 81.59765625 705.8359375 C80.55715291 719.20569276 81 732.58992345 81 746 C31.5 746 -18 746 -69 746 C-71.35110598 714.26006922 -71.35110598 714.26006922 -71.25 701.5 C-71.24689819 700.77428802 -71.24379639 700.04857605 -71.24060059 699.3008728 C-71.05073574 660.75465707 -65.34985541 623.89792294 -51 588 C-50.49992432 586.74606445 -50.49992432 586.74606445 -49.98974609 585.46679688 C-41.6371794 564.92279636 -29.74179387 546.33700043 -16 529 C-15.27167969 528.06027344 -14.54335938 527.12054687 -13.79296875 526.15234375 C-9.12236369 520.19202526 -4.11789017 514.57729133 1 509 C1.96273746 507.93274057 2.92495276 506.86500996 3.88671875 505.796875 C9.12038725 500.0148289 14.42636663 494.51132673 20.30859375 489.375 C22.96370825 487.03202523 25.54701353 484.62794486 28.1262207 482.20239258 C33.70334568 476.9605416 39.37787239 471.96310952 45.35546875 467.17578125 C48.15839248 464.869683 50.83003275 462.45848469 53.5 460 C57.05670244 456.72581577 60.67161811 453.59357567 64.4375 450.5625 C69.56540126 446.42355113 74.40111655 442.03195675 79.23046875 437.5546875 C81.45918393 435.49886278 83.70767919 433.48383043 86 431.5 C97.01236823 421.9330051 107.66291746 412.17718686 116.7890625 400.76171875 C118.15439313 399.05626159 119.54104806 397.36734021 120.9609375 395.70703125 C145.92477938 366.10704731 156.46319476 328.31367144 153.71875 290.08203125 C150.90159519 264.80890205 141.57193378 242.30613614 125 223 C124.49339844 222.40832031 123.98679687 221.81664062 123.46484375 221.20703125 C103.9143601 200.15651049 72.80186433 188.14853331 45 184 C43.75347656 183.79890625 42.50695312 183.5978125 41.22265625 183.390625 C-3.82396305 176.87766797 -55.29979151 184.18586995 -93 211 C-117.80616197 229.55069504 -134.16866468 254.20807481 -145 283 C-145.27150879 283.71945801 -145.54301758 284.43891602 -145.82275391 285.18017578 C-150.73923412 298.46590828 -153.87197386 312.20382896 -157 326 C-163.49201647 325.34113268 -169.45259792 323.45852384 -175.66015625 321.5 C-176.78936996 321.14855423 -177.91858368 320.79710846 -179.08201599 320.43501282 C-181.49370658 319.68387284 -183.90466236 318.93037025 -186.31494141 318.17471313 C-191.35619245 316.59447798 -196.40114477 315.02623288 -201.4460144 313.45759583 C-203.93424252 312.68388297 -206.42230129 311.9096253 -208.91018677 311.1348114 C-221.52850379 307.20651599 -234.17967162 303.3985053 -246.84924316 299.63879395 C-251.17888778 298.35285091 -255.50731896 297.06282926 -259.8359375 295.7734375 C-261.81591795 295.18367508 -263.79589842 294.59391271 -265.77587891 294.00415039 C-266.77983704 293.70509796 -267.78379517 293.40604553 -268.81817627 293.09793091 C-271.85576579 292.19322863 -274.89345016 291.28884539 -277.93115234 290.38452148 C-291.33296727 286.39421489 -304.73109385 282.39177343 -318.125 278.375 C-318.94562927 278.12906097 -319.76625854 277.88312195 -320.61175537 277.62973022 C-324.38853392 276.49765268 -328.16451665 275.36312031 -331.93847656 274.22167969 C-334.60795215 273.41494648 -337.28154056 272.625125 -339.95996094 271.84863281 C-341.73935059 271.32414551 -341.73935059 271.32414551 -343.5546875 270.7890625 C-344.58835449 270.4895166 -345.62202148 270.1899707 -346.68701172 269.88134766 C-349 269 -349 269 -350 267 C-343.17897087 206.8834885 -307.13944339 149.66218651 -266 107 C-265.43635742 106.41444336 -264.87271484 105.82888672 -264.29199219 105.22558594 C-256.91853336 97.60783803 -249.4007063 90.49245187 -241 84 C-239.79388948 83.04214666 -238.58818775 82.08377844 -237.3828125 81.125 C-219.07595214 66.70454995 -199.50077143 54.06322027 -179 43 C-178.33726074 42.64035156 -177.67452148 42.28070313 -176.99169922 41.91015625 C-122.64941531 12.74603834 -61.41407157 -0.87753674 0 0 Z M-96.625 32.25 C-97.07875 32.8275 -97.5325 33.405 -98 34 C-97.34 35.32 -96.68 36.64 -96 38 C-95.401875 37.2575 -94.80375 36.515 -94.1875 35.75 C-89.68427125 31.31037618 -83.48725634 29.01461141 -77.203125 28.98828125 C-72.7244149 29.64418702 -70.59398089 30.34662102 -67.5 33.75 C-66.09410845 36.79609835 -65.03272422 39.8127994 -64 43 C-62.71416016 42.94779297 -62.71416016 42.94779297 -61.40234375 42.89453125 C-49.35932132 42.60940896 -49.35932132 42.60940896 -44 46 C-40.82356655 49.06066367 -38.40443303 51.78670092 -37 56 C-36.96045766 58.33299825 -36.95598268 60.66708189 -37 63 C-36.34 63 -35.68 63 -35 63 C-32.71375193 59.20006189 -32.71375193 59.20006189 -32 55 C-35.37168884 48.72491243 -41.13615783 42.28794739 -48 40 C-50.57265818 39.92970879 -53.11641431 39.90629168 -55.6875 39.9375 C-56.38939453 39.94201172 -57.09128906 39.94652344 -57.81445312 39.95117188 C-59.54300538 39.96293073 -61.27151365 39.98086546 -63 40 C-63.08636719 39.39671875 -63.17273438 38.7934375 -63.26171875 38.171875 C-64.19978269 32.77686683 -64.19978269 32.77686683 -67.5 28.5 C-76.62116424 23.02730146 -88.74002568 25.49145058 -96.625 32.25 Z M-182.3125 55.5 C-183.38113281 55.7784375 -184.44976562 56.056875 -185.55078125 56.34375 C-186.35902344 56.5603125 -187.16726563 56.776875 -188 57 C-187.505 58.485 -187.505 58.485 -187 60 C-183.7 59.67 -180.4 59.34 -177 59 C-181.12450351 64.53044287 -185.31446257 70.00160555 -189.5625 75.4375 C-196.43063468 84.2496877 -203.23911383 93.10531424 -210 102 C-210.76957031 103.00909424 -210.76957031 103.00909424 -211.5546875 104.03857422 C-219.01087707 113.82482303 -226.1131033 123.80522378 -233 134 C-238.08990301 130.75659177 -242.71731485 127.08227259 -247.375 123.25 C-248.47908203 122.34701172 -248.47908203 122.34701172 -249.60546875 121.42578125 C-251.40563403 119.95291875 -253.20373982 118.47762035 -255 117 C-258.82447434 120.72659017 -262.35370801 124.62108993 -265.8125 128.6875 C-266.34093506 129.30689453 -266.86937012 129.92628906 -267.41381836 130.56445312 C-270.98641072 134.76814358 -274.50199691 139.00969734 -277.90625 143.3515625 C-279.56863006 145.45434922 -281.25739622 147.52345369 -282.96875 149.5859375 C-284.00018865 150.84880428 -285.0314395 152.11182447 -286.0625 153.375 C-286.81575562 154.26832031 -286.81575562 154.26832031 -287.58422852 155.1796875 C-289.15924719 157.07059712 -289.15924719 157.07059712 -291 160 C-290.69484524 162.15756308 -290.69484524 162.15756308 -290 164 C-286.09383998 160.33797498 -282.82069071 156.34546236 -279.5078125 152.14453125 C-276.37754059 148.19318302 -273.15082865 144.32131138 -269.9375 140.4375 C-265.19486422 134.69793641 -260.49780037 128.9350674 -256 123 C-250.53643485 126.05788578 -245.72284937 129.95664233 -240.79492188 133.79296875 C-240.10849609 134.31761719 -239.42207031 134.84226562 -238.71484375 135.3828125 C-238.09730225 135.86121582 -237.47976074 136.33961914 -236.84350586 136.83251953 C-234.89476851 138.06664243 -233.25366917 138.57111502 -231 139 C-230.44054687 138.13761719 -229.88109375 137.27523437 -229.3046875 136.38671875 C-219.83483648 121.91905867 -209.45820112 108.13422428 -198.9128418 94.4387207 C-194.09679736 88.16941374 -189.41025776 81.80799386 -184.75585938 75.41796875 C-181.63583686 71.15039389 -178.43542392 67.01867686 -175 63 C-174.505 67.95 -174.505 67.95 -174 73 C-173.01 73 -172.02 73 -171 73 C-171 66.73 -171 60.46 -171 54 C-175.29623863 54 -178.23347522 54.42421325 -182.3125 55.5 Z M-71 57 C-71 57.99 -71 58.98 -71 60 C-70.25234375 60.17015625 -69.5046875 60.3403125 -68.734375 60.515625 C-67.74953125 60.75796875 -66.7646875 61.0003125 -65.75 61.25 C-64.77546875 61.48203125 -63.8009375 61.7140625 -62.796875 61.953125 C-59.61093348 63.14562825 -58.0835454 64.32603541 -56 67 C-54.26188714 73.78822032 -57.15167789 81.49786688 -59 88 C-57.35 88.33 -55.7 88.66 -54 89 C-52.12215444 75.53814018 -52.12215444 75.53814018 -54.4375 62.5 C-58.58637696 58.45231516 -63.34624783 57.16247462 -69.0625 56.8125 C-69.701875 56.874375 -70.34125 56.93625 -71 57 Z M126.32421875 72.83984375 C122.79684541 77.29691239 120.15406013 82.19611042 117.5 87.20703125 C114.70999726 92.40195823 111.60053492 97.41163493 108.5 102.42578125 C99.15824238 117.67911987 93.56152325 132.06759928 97.8359375 150.125 C105.2452943 173.99406888 122.60811107 190.70252248 143.90234375 202.625 C162.01904954 212.1475786 183.82144125 216.43217937 203.8984375 211.1015625 C213.22841541 207.78789276 220.07192648 202.81892456 226 195 C226.78375 194.02546875 227.5675 193.0509375 228.375 192.046875 C231.30220793 188.40429635 234.15637322 184.70802715 237 181 C237.58861816 180.2359082 238.17723633 179.47181641 238.78369141 178.68457031 C252.93718796 160.40719136 252.93718796 160.40719136 257.0625 138.1875 C257.05573242 137.14819336 257.05573242 137.14819336 257.04882812 136.08789062 C257.03713156 134.39188932 257.01919924 132.69593297 257 131 C256.67 131 256.34 131 256 131 C255.85304688 132.01578125 255.70609375 133.0315625 255.5546875 134.078125 C253.68489878 145.92204536 250.48529808 158.0782428 240.625 165.87890625 C232.1200747 171.33370209 223.18726585 175.24538771 213 176 C212.31292969 176.0515625 211.62585938 176.103125 210.91796875 176.15625 C188.49486956 177.04871166 165.39853305 166.71571854 149.00390625 151.8515625 C134.06556183 137.83522015 123.66945363 121.25767393 122.8671875 100.3515625 C123.30612149 89.27493413 127.09037554 79.44028341 135.125 71.75 C149.41833832 59.79124028 167.80054182 59.18553884 185.5 60.74609375 C186.325 60.82988281 187.15 60.91367188 188 61 C169.39858647 50.53395645 140.0986798 57.71683407 126.32421875 72.83984375 Z M-108 66 C-108 68.97 -108 71.94 -108 75 C-109.175625 75.0825 -110.35125 75.165 -111.5625 75.25 C-118.6832432 76.17933862 -123.37823292 79.6498452 -127.7109375 85.17578125 C-132.95565804 92.59785547 -132.86909167 100.08698205 -132 109 C-130.21975589 115.30742404 -126.30392002 120.07543933 -120.6328125 123.37890625 C-116.29636609 125.63720401 -112.86005479 127.02798904 -108 128 C-108 137.9 -108 147.8 -108 158 C-114.89168179 154.55415911 -117.34990056 152.2984923 -119.75 145.1875 C-120.17711618 143.79482862 -120.59739857 142.39995496 -121 141 C-122.41655793 140.9727585 -123.83327045 140.95349533 -125.25 140.9375 C-126.43335938 140.92009766 -126.43335938 140.92009766 -127.640625 140.90234375 C-129.90691002 140.99614694 -131.8288895 141.36758937 -134 142 C-133.65611479 150.39079916 -132.14612644 156.46060776 -126.5 162.8125 C-120.64018132 167.93984135 -116.02231543 170.38201502 -108 170 C-108 173.3 -108 176.6 -108 180 C-105.36 180 -102.72 180 -100 180 C-100 176.7 -100 173.4 -100 170 C-99.05125 169.938125 -98.1025 169.87625 -97.125 169.8125 C-90.213717 168.77510661 -83.92708742 165.70294877 -79.5625 160.1875 C-74.44374981 152.4006194 -72.94130181 145.33579313 -74 136 C-75.43339678 129.92512795 -77.78442747 125.14112164 -82.796875 121.31640625 C-87.92955597 118.24953837 -93.94164881 115 -100 115 C-100 105.43 -100 95.86 -100 86 C-94.00670034 89.99553311 -91.88446249 91.85445812 -90.42578125 98.69140625 C-90.28527344 99.45324219 -90.14476562 100.21507812 -90 101 C-88.06183265 100.8858134 -86.12444901 100.75826577 -84.1875 100.625 C-83.10855469 100.55539063 -82.02960938 100.48578125 -80.91796875 100.4140625 C-77.81373814 100.18804267 -77.81373814 100.18804267 -75 98 C-76.69869178 89.75985479 -78.71973121 83.57484036 -85.88671875 78.72265625 C-90.52297172 76.16315314 -94.74778949 75.37515789 -100 75 C-100 72.03 -100 69.06 -100 66 C-102.64 66 -105.28 66 -108 66 Z M139.11328125 79.95703125 C131.98377285 88.9854402 132.03672873 98.97288434 133 110 C135.64987463 123.89994117 143.76590757 134.69253566 154 144 C154.99 143.505 154.99 143.505 156 143 C155.443125 142.46375 154.88625 141.9275 154.3125 141.375 C149.32163742 136.24924924 145.74153025 131.25691814 142.5625 124.875 C142.23314453 124.21886719 141.90378906 123.56273437 141.56445312 122.88671875 C136.56211856 112.42254499 135.17212665 101.46510564 138.96484375 90.3515625 C142.49014659 82.3431387 148.03090515 77.51605556 156.00634766 74.15429688 C161.89364162 72.05237789 167.33868988 71.47231904 173.5625 71.3125 C174.47580078 71.27833984 175.38910156 71.24417969 176.33007812 71.20898438 C178.55326229 71.12750642 180.77610197 71.05804262 183 71 C183 70.67 183 70.34 183 70 C168.24175345 66.46713789 150.03067123 68.63278201 139.11328125 79.95703125 Z M187 82 C187 83.98 187 85.96 187 88 C186.41992188 88.06316406 185.83984375 88.12632812 185.2421875 88.19140625 C179.47677882 89.09522444 176.67638037 90.63843303 173.09375 95.24609375 C170.26085231 99.78884755 170.34143651 104.83870008 171 110 C173.72406438 117.35751969 179.28250073 120.64125036 186 124 C186.33 130.6 186.66 137.2 187 144 C180.64311453 139.76207635 180.21182898 139.38972815 178 133 C173.545 133.495 173.545 133.495 169 134 C169.42003438 139.60045845 171.44571671 143.73667809 175 148 C178.26240429 150.54715681 181.88308713 152.34129394 186 153 C186.33 154.98 186.66 156.96 187 159 C188.65 159 190.3 159 192 159 C192 156.69 192 154.38 192 152 C193.19625 151.9175 194.3925 151.835 195.625 151.75 C199.98407103 151.17238458 202.64923994 149.96999187 206 147 C210.12683671 141.45055808 210.91088993 135.76335776 210 129 C208.22961544 123.58470604 204.68002802 120.09401852 200 117 C197.69 116.01 195.38 115.02 193 114 C192.67 108.06 192.34 102.12 192 96 C197 99 197 99 198.3125 102.1875 C198.539375 103.115625 198.76625 104.04375 199 105 C201.97 104.67 204.94 104.34 208 104 C207.71077498 99.17958292 206.92478071 95.9232251 203.6015625 92.2890625 C200.36567454 89.68456731 196.17651035 88 192 88 C192 86.02 192 84.04 192 82 C190.35 82 188.7 82 187 82 Z M219 88 C219.99 89.32 220.98 90.64 222 92 C222.66 91.67 223.32 91.34 224 91 C222.62514468 89.45833358 222.62514468 89.45833358 221 88 C220.34 88 219.68 88 219 88 Z M224 92 C224.35191406 92.44988281 224.70382812 92.89976562 225.06640625 93.36328125 C235.22431441 106.59773601 243.02086749 119.38204634 241.81640625 136.62890625 C240.66141398 144.23756666 237.45191187 150.92906837 231.6640625 156.078125 C224.94943952 160.99529506 218.31992419 163.96000948 210 165 C210 165.33 210 165.66 210 166 C219.90773864 166.64968778 228.48414506 164.03928346 236.21875 157.68359375 C243.43125982 150.86650661 246.88491558 142.96504997 247.375 133 C246.56351059 116.96496917 237.62810884 102.52893437 226 92 C225.34 92 224.68 92 224 92 Z M-191 97 C-191 147.49 -191 197.98 -191 250 C-180.77 250 -170.54 250 -160 250 C-160 199.51 -160 149.02 -160 97 C-170.23 97 -180.46 97 -191 97 Z M-26 107 C-26.75003545 109.56672802 -26.75003545 109.56672802 -26.64697266 112.42358398 C-26.66273346 113.50828476 -26.67849426 114.59298553 -26.69473267 115.71055603 C-26.68461151 116.87728348 -26.67449036 118.04401093 -26.6640625 119.24609375 C-26.66884613 120.44935806 -26.67362976 121.65262238 -26.67855835 122.89234924 C-26.68196057 125.43679104 -26.67273588 127.98127637 -26.65185547 130.52563477 C-26.62512168 134.41977567 -26.65158448 138.31102762 -26.68359375 142.20507812 C-26.68028926 144.6770897 -26.67388221 147.14909947 -26.6640625 149.62109375 C-26.67418365 150.78579697 -26.68430481 151.95050018 -26.69473267 153.15049744 C-26.67897186 154.23835037 -26.66321106 155.32620331 -26.64697266 156.44702148 C-26.64299469 157.4009227 -26.63901672 158.35482391 -26.63491821 159.33763123 C-25.72497083 163.1532652 -24.08872962 164.64163305 -21 167 C-17.8814073 167.73059643 -17.8814073 167.73059643 -14.453125 167.59936523 C-13.14827148 167.60544296 -11.84341797 167.61152069 -10.49902344 167.61778259 C-9.08267106 167.59887669 -7.66632973 167.57912658 -6.25 167.55859375 C-4.78939232 167.55434002 -3.32877786 167.55201467 -1.86816406 167.55152893 C1.18846422 167.54537253 4.24435708 167.52271905 7.30078125 167.48706055 C11.21146652 167.44178857 15.12148653 167.42703389 19.03240967 167.42332363 C22.04710402 167.4188867 25.06165988 167.40356823 28.07629395 167.3844471 C29.5179328 167.37559093 30.95958628 167.36884836 32.40124512 167.36428642 C34.41861026 167.35520512 36.43589082 167.33111215 38.453125 167.30639648 C39.59942383 167.29575668 40.74572266 167.28511688 41.92675781 167.27415466 C45.03022725 166.99730352 47.23568144 166.41963194 50 165 C50.495 164.01 50.495 164.01 51 163 C52.0003125 162.62488281 53.000625 162.24976563 54.03125 161.86328125 C59.14024799 159.78449253 62.62643553 156.00909357 66.5 152.1875 C67.94650066 150.7836957 69.39440064 149.38133174 70.84375 147.98046875 C71.53710449 147.30491943 72.23045898 146.62937012 72.94482422 145.93334961 C75.41942893 143.60543387 78.01345457 141.46136915 80.68212891 139.36035156 C82.33347973 137.88130734 82.33347973 137.88130734 82.875 134.5625 C80.98994987 126.88765304 73.14849732 122.26796854 67.12353516 117.66064453 C64.85540933 115.84302104 63.45834852 114.30202364 61.62548828 111.94018555 C56.88350064 106.11651645 51.98818014 102.94293339 44.3883028 102.12291431 C35.08024511 101.4177137 25.73864399 101.68640323 16.41723633 101.94287109 C13.09712773 102.01936075 9.77791018 102.03547822 6.45703793 102.04972839 C2.4800718 102.07035136 -1.49611069 102.12842265 -5.47265625 102.1875 C-6.22429613 102.19502289 -6.97593601 102.20254578 -7.75035286 102.21029663 C-9.88030141 102.2378837 -12.00780436 102.29242804 -14.13696289 102.35546875 C-15.34494034 102.38278076 -16.55291779 102.41009277 -17.79750061 102.43823242 C-21.66098006 103.11594605 -23.35345286 104.11882304 -26 107 Z M-230 148 C-230 181.66 -230 215.32 -230 250 C-220.1 250 -210.2 250 -200 250 C-200 216.34 -200 182.68 -200 148 C-209.9 148 -219.8 148 -230 148 Z M-270 170 C-270.15300094 180.28298159 -270.30176219 190.56600014 -270.4429636 200.84915066 C-270.5086936 205.62351695 -270.5763155 210.39784113 -270.64819336 215.17211914 C-270.71743145 219.77560691 -270.78178845 224.37913894 -270.84269524 228.98274422 C-270.86685616 230.7431189 -270.89280547 232.50346994 -270.92053413 234.26379204 C-270.95893568 236.72066419 -270.99109895 239.17754193 -271.02172852 241.63452148 C-271.03467453 242.36963455 -271.04762054 243.10474762 -271.06095886 243.86213684 C-271.07905867 245.57478279 -271.04516689 247.28785406 -271 249 C-270.67 249.33 -270.34 249.66 -270 250 C-260.1 250 -250.2 250 -240 250 C-240 223.6 -240 197.2 -240 170 C-249.9 170 -259.8 170 -270 170 Z M262 192 C261.67 197.28 261.34 202.56 261 208 C258.545625 208.53625 256.09125 209.0725 253.5625 209.625 C246.72706363 211.26517422 241.40165208 213.35761628 236 218 C235.31679688 218.55171875 234.63359375 219.1034375 233.9296875 219.671875 C226.71175046 226.09391784 220.57949314 236.52493811 219.82299805 246.28320312 C219.45786058 261.16801032 219.2806293 274.48212088 230 286 C230.60199219 286.65484375 231.20398438 287.3096875 231.82421875 287.984375 C240.19858731 296.21518296 251.36679753 300.44291323 262 305 C262 321.83 262 338.66 262 356 C252.94425408 352.11896603 248.46950253 348.87620409 244.140625 340.05078125 C242.43067809 335.47725886 241.28473053 330.71067861 240 326 C228.12 326.99 228.12 326.99 216 328 C216 340.73813486 219.55606953 353.86485207 228.2578125 363.5 C237.47723968 372.28591179 249.06541161 378 262 378 C262 383.94 262 389.88 262 396 C266.62 396 271.24 396 276 396 C276.33 390.06 276.66 384.12 277 378 C278.7325 377.773125 280.465 377.54625 282.25 377.3125 C297.18769421 374.74673135 307.52345015 367.49064119 316.53125 355.40234375 C323.94612952 343.27428283 324.77797504 328.05734072 322.3515625 314.33203125 C320.27710911 307.47924293 316.8651715 302.20970081 312 297 C311.52304687 296.47019531 311.04609375 295.94039063 310.5546875 295.39453125 C303.02548308 288.04271646 287.54717387 280 277 280 C277 263.5 277 247 277 230 C288.45237446 237.15773404 290.61931108 242.44045737 294 255 C296.66688629 254.85756403 299.33345767 254.71113422 302 254.5625 C302.74378906 254.52318359 303.48757813 254.48386719 304.25390625 254.44335938 C309.20733918 254.16338273 314.08313469 253.66489429 319 253 C319.89632815 242.60259347 316.57160541 232.89104595 310.3125 224.5625 C301.49936535 214.51156554 291.06218102 209.86602586 278 208 C277.67 202.72 277.34 197.44 277 192 C272.05 192 267.1 192 262 192 Z M-311 221 C-311 230.57 -311 240.14 -311 250 C-300.77 250 -290.54 250 -280 250 C-280 240.43 -280 230.86 -280 221 C-290.23 221 -300.46 221 -311 221 Z M-312 257 C-311.67 258.32 -311.34 259.64 -311 261 C-261.17 261 -211.34 261 -160 261 C-159.67 259.68 -159.34 258.36 -159 257 C-209.49 257 -259.98 257 -312 257 Z M156.875 388.625 C155.92496094 389.12128906 154.97492188 389.61757813 153.99609375 390.12890625 C144.94330152 395.06336859 138.89310213 400.96490455 135.71875 410.8984375 C130.27184416 434.40302032 137.61602261 458.99275841 150 479 C152.74093203 483.21179196 155.78644045 487.13828183 159 491 C160.17175781 492.41732422 160.17175781 492.41732422 161.3671875 493.86328125 C172.21805086 506.39550842 187.92990864 518.40154841 204.95703125 520.3359375 C212.27676164 520.43607061 217.46969072 519.21561436 224 516 C225.28742482 515.39902015 226.57521387 514.79882019 227.86328125 514.19921875 C239.1270302 508.86723532 248.51388259 504.18934661 253.84375 492.30078125 C259.87131891 475.09370108 256.93196726 455.92039378 249.16455078 439.76000977 C247.51301298 436.46740657 245.77601592 433.22683317 244 430 C243.49339844 429.0615625 242.98679687 428.123125 242.46484375 427.15625 C231.40009831 407.67736667 212.34506731 388.89032498 190.5625 382.2578125 C177.87018361 379.12761285 167.98765074 382.49860021 156.875 388.625 Z M114 489 C113.67 490.65 113.34 492.3 113 494 C112.01 493.67 111.02 493.34 110 493 C103.78325771 492.49251083 98.23210587 492.2280167 93 496 C87.88768574 500.75974086 84.36605314 506.11057585 83.8359375 513.19140625 C84.12292484 519.53824159 86.91846815 524.23980594 91 529 C92.3018991 530.04059431 93.62807462 531.05363933 95 532 C93.54884678 536.57888152 91.79418096 540.97649435 89.875 545.375 C89.59785156 546.01566406 89.32070313 546.65632812 89.03515625 547.31640625 C88.35899615 548.87856925 87.67981293 550.43942315 87 552 C84.39454297 549.81141609 83.12597012 548.57817054 82.390625 545.203125 C82.34421875 544.22859375 82.2978125 543.2540625 82.25 542.25 C82.16492188 540.77273438 82.16492188 540.77273438 82.078125 539.265625 C82.05234375 538.51796875 82.0265625 537.7703125 82 537 C79.03 536.34 76.06 535.68 73 535 C70.97827051 540.58948741 70.53530341 545.1836686 72 551 C74.29976359 555.35312393 76.9392021 558.22155933 81 561 C81.66 561 82.32 561 83 561 C82.67 561.763125 82.34 562.52625 82 563.3125 C80.82563314 565.99069135 80.82563314 565.99069135 81 569 C82.65 569.66 84.3 570.32 86 571 C87.4606285 568.35261084 88 567.10551666 88 564 C89.485 564.495 89.485 564.495 91 565 C97.50609496 565.48819183 103.47966944 565.90462405 109 562 C114.71104152 556.95303307 117.66913194 552.3012848 118.25 544.75 C117.73942848 537.09142724 115.1702033 532.58649301 109.62109375 527.34765625 C108.02767631 525.91888629 108.02767631 525.91888629 106 525 C107.73778194 519.43119878 109.74422801 514.12742591 112.23046875 508.84765625 C113.12815893 507.02587219 113.12815893 507.02587219 113 505 C116 507 116 507 116.75 509.8125 C117 513 117 513 116 518 C119.63 518.99 123.26 519.98 127 521 C128.97762732 517.04474536 128.42863836 512.31019688 128 508 C126.65799108 504.00314734 124.65253758 501.46402672 121.1875 499 C120.465625 498.34 119.74375 497.68 119 497 C119.1875 493.25 119.1875 493.25 120 490 C118.02 489.67 116.04 489.34 114 489 Z M-35.4375 578.625 C-41.74022382 588.2051402 -38.95535062 600.99207789 -38.1875 611.875 C-38.11724609 613.05835938 -38.04699219 614.24171875 -37.97460938 615.4609375 C-37.40273797 623.58608646 -36.34861397 629.32547801 -30.1875 635.0625 C-15.30912072 647.71517051 7.63027689 647.12221311 26 646 C37.15472301 644.78805143 47.98147475 642.13693498 58 637 C58.89074219 636.55914063 59.78148437 636.11828125 60.69921875 635.6640625 C67.02386713 632.2417565 73.28805059 627.30868585 75.58520508 620.18530273 C76.06256575 617.67037903 76.03133046 615.44413367 75.9140625 612.88671875 C75.87112061 611.892771 75.82817871 610.89882324 75.78393555 609.87475586 C75.73148682 608.82296143 75.67903809 607.77116699 75.625 606.6875 C75.5731958 605.61185791 75.5213916 604.53621582 75.46801758 603.42797852 C75.36262523 601.27542455 75.25467781 599.12299401 75.14404297 596.97070312 C75.02051358 594.42306657 74.92540754 591.87745914 74.84765625 589.328125 C74.52252044 581.42970376 74.29658275 575.98551793 68.2734375 570.3984375 C42.17254434 549.2889502 -12.74955843 554.19183215 -35.4375 578.625 Z M-29.0625 670.6875 C-32.96733334 677.3635054 -33.30659486 684.8438436 -33.5625 692.4375 C-33.76227781 697.5603384 -34.01631623 702.55330939 -34.8125 707.625 C-35.34612475 712.82558015 -34.00948428 716.75038702 -31 721 C-22.37023642 729.71588896 -10.60644547 734.13648852 1.54614258 734.38037109 C14.49458782 734.38821315 14.49458782 734.38821315 25.73828125 728.50390625 C29.90573127 723.79644863 30.30225874 718.93089128 30.9375 712.9375 C31.47080156 708.08731099 32.05140705 703.32894811 33.125 698.5625 C34.88659466 690.09133442 34.88659466 690.09133442 33.0078125 681.83984375 C26.39253879 672.14117975 15.75328415 667.1993918 4.68359375 664.41796875 C-6.19526916 662.72358981 -20.81743053 662.15729845 -29.0625 670.6875 Z " fill="#080808" transform="translate(631,152)"/>
<path d="M0 0 C1.12599811 3.37799433 0.97378173 3.69055151 -0.40625 6.75390625 C-0.73455811 7.51203613 -1.06286621 8.27016602 -1.40112305 9.05126953 C-1.76375244 9.87997559 -2.12638184 10.70868164 -2.5 11.5625 C-13.51822652 37.99556753 -18.08205792 66.77807574 -22 95 C-19.03 95.33 -16.06 95.66 -13 96 C-14.27152251 99.32470368 -15.69754711 102.42127441 -17.43359375 105.52734375 C-17.9119165 106.38996826 -18.39023926 107.25259277 -18.88305664 108.14135742 C-19.39602295 109.06408447 -19.90898926 109.98681152 -20.4375 110.9375 C-72.64696387 206.08926758 -90.4516961 318.26725422 -59.6875 443.6875 C-45.94420908 490.5838284 -25.15799202 535.6504831 4 575 C4.48533203 575.66257812 4.97066406 576.32515625 5.47070312 577.0078125 C20.37211884 597.3475578 36.7136391 615.75701736 54.46060181 633.63482666 C55.5944843 634.77742562 56.72699684 635.92138604 57.85800171 637.0668335 C64.91619474 644.20445007 72.13224836 650.75248484 80 657 C81.09009144 657.92306736 82.17471588 658.85269391 83.25 659.79296875 C97.50012667 672.20110462 112.93769772 683.07398718 129 693 C129.64517578 693.40105957 130.29035156 693.80211914 130.95507812 694.21533203 C161.78638792 713.2476769 196.02326879 730.44672858 231.08984375 739.98046875 C232.79926147 740.46253784 232.79926147 740.46253784 234.54321289 740.9543457 C236.69876387 741.54997718 238.86616632 742.10486997 241.04467773 742.61010742 C245.43662167 743.83132467 248.16287674 744.66392993 250.64624023 748.62744141 C251.92437984 751.71536426 252.97348935 754.82075278 254 758 C258.44502488 767.8691566 263.79391006 776.90035491 271 785 C271.62390625 785.76570313 272.2478125 786.53140625 272.890625 787.3203125 C277.32266877 792.63516174 282.16913246 796.56147114 287.875 800.46875 C288.57625 800.9740625 289.2775 801.479375 290 802 C290 802.33 290 802.66 290 803 C238.82010657 799.55241638 186.65541383 778.42435739 141.5625 755.25 C140.88779663 754.90395721 140.21309326 754.55791443 139.51794434 754.2013855 C129.77086072 749.18072635 120.34389584 743.73301323 111 738 C110.20166748 737.51466797 109.40333496 737.02933594 108.58081055 736.52929688 C88.55074428 724.31842796 69.38381599 710.79571226 51.65039062 695.42382812 C49.88571319 693.90140227 48.10828705 692.39490853 46.328125 690.890625 C35.54799944 681.76147142 35.54799944 681.76147142 30.68579102 676.68481445 C28.96030528 674.96032828 27.16331616 673.38104334 25.30859375 671.796875 C21.00615376 668.05538729 16.95629062 664.10467835 12.9375 660.0625 C12.26912109 659.39798828 11.60074219 658.73347656 10.91210938 658.04882812 C6.9744617 654.1035271 3.2243034 650.04852655 -0.41674805 645.82836914 C-2.5188642 643.40080586 -4.69609684 641.04614433 -6.875 638.6875 C-11.32523261 633.79625335 -15.5874048 628.79914594 -19.70263672 623.62304688 C-20.60691742 622.49176006 -21.51794093 621.3658442 -22.43408203 620.24414062 C-39.9344643 598.80603349 -54.92734472 575.36058492 -68 551 C-68.89820549 549.35404004 -69.7966371 547.70820345 -70.6953125 546.0625 C-97.9124177 495.7657824 -114.45562491 439.38235421 -121.75 382.8125 C-121.85727417 381.98070221 -121.96454834 381.14890442 -122.07507324 380.29190063 C-124.40088337 362.05613225 -125.24011171 344.06782336 -125.25 325.6875 C-125.25067474 324.5575058 -125.25134949 323.4275116 -125.25204468 322.26327515 C-125.23415211 303.32675453 -124.47422083 284.78959509 -122 266 C-121.91514343 265.34612305 -121.83028687 264.69224609 -121.74285889 264.01855469 C-110.17092107 175.33350165 -73.91842086 93.31062485 -19 23 C-17.94466013 21.63461857 -16.88992913 20.26876621 -15.8359375 18.90234375 C-10.79002038 12.38763021 -5.5932279 6.05799469 0 0 Z " fill="#070706" transform="translate(272,346)"/>
<path d="M0 0 C0.66 0 1.32 0 2 0 C3.48828125 1.625 3.48828125 1.625 5.3125 4 C6.02535156 4.91652344 6.73820312 5.83304687 7.47265625 6.77734375 C7.87242676 7.29151855 8.27219727 7.80569336 8.68408203 8.33544922 C10.09629964 10.12181279 11.54142608 11.87695439 12.99609375 13.62890625 C20.84065883 23.09162202 28.07468206 32.84788042 35 43 C35.4935498 43.71913574 35.98709961 44.43827148 36.49560547 45.17919922 C51.54773772 67.16716592 64.14426286 90.1726091 76 114 C76.81114258 115.62494385 76.81114258 115.62494385 77.63867188 117.28271484 C86.35200741 134.93213718 92.84088328 153.33858165 99 172 C99.58225342 173.76150391 99.58225342 173.76150391 100.17626953 175.55859375 C109.49903755 204.24923281 115.44623457 234.06994247 119 264 C119.11037598 264.91426758 119.22075195 265.82853516 119.33447266 266.77050781 C121.23930578 282.81910188 122.21294003 298.83568899 122.1875 315 C122.18689575 315.72411072 122.1862915 316.44822144 122.18566895 317.1942749 C122.06764717 370.17309959 114.08147974 422.78062183 97 473 C96.66629395 473.98581055 96.33258789 474.97162109 95.98876953 475.98730469 C88.58510408 497.67020743 79.6574432 518.71342564 69 539 C68.26789307 540.40838135 68.26789307 540.40838135 67.52099609 541.84521484 C48.57188068 578.19785006 25.3457473 612.34204987 -2.62109375 642.41015625 C-3.89732566 643.79955158 -5.16715235 645.1957928 -6.39208984 646.63061523 C-11.64654363 652.78438591 -17.31353085 658.49964914 -23.03222656 664.2175293 C-24.73794598 665.92543056 -26.43549027 667.64118045 -28.1328125 669.35742188 C-34.04186184 675.29608137 -40.02167405 680.88444383 -46.60791016 686.07543945 C-49.04845116 688.03898148 -51.33834901 690.11030735 -53.625 692.25 C-78.06813355 714.42561016 -107.22058541 732.10051878 -136 748 C-137.30517578 748.72654785 -137.30517578 748.72654785 -138.63671875 749.46777344 C-177.065058 770.71120913 -234.3771895 798 -279 798 C-279 797.34 -279 796.68 -279 796 C-277.60641129 794.82104209 -276.15680727 793.70812853 -274.6875 792.625 C-256.98142683 778.71486917 -246.04664475 760.13993426 -239 739 C-236.49450555 737.94451995 -234.09126279 737.0881912 -231.50390625 736.28515625 C-229.90886426 735.76503499 -228.31398147 735.24442535 -226.71923828 734.72338867 C-225.87750061 734.45287689 -225.03576294 734.18236511 -224.16851807 733.90365601 C-207.13622368 728.40606683 -191.04301853 721.97172371 -175 714 C-173.55719511 713.30737898 -172.11329638 712.61702867 -170.66796875 711.9296875 C-143.2115936 698.74216777 -117.79374497 681.96032802 -94 663 C-92.96746094 662.18015625 -91.93492187 661.3603125 -90.87109375 660.515625 C-85.62430196 656.28316431 -80.55718136 651.88414828 -75.58203125 647.3359375 C-74.18167165 646.06904636 -72.77529593 644.80816092 -71.33911133 643.58203125 C-65.50969586 638.5920456 -60.05902277 633.24516967 -54.63696289 627.82226562 C-53.07391266 626.26139673 -51.50302635 624.70872112 -49.93164062 623.15625 C-44.23749218 617.49298495 -38.93658444 611.72340711 -33.95361328 605.41503906 C-32.00269507 603.00333162 -29.94638481 600.75015923 -27.8125 598.5 C24.61620053 540.55724649 57.1682306 460.06297641 72.67480469 299.38623047 C69.33169195 237.28288748 55.15662736 166.3060642 20.90771484 113.30981445 C17.247968 107.24464982 17.48849139 101.20094807 17.50061035 94.26461792 C17.49600156 78.58020119 15.87983294 63.42938782 13 48 C12.80889648 46.97519531 12.61779297 45.95039063 12.42089844 44.89453125 C10.05419493 32.551323 6.87275317 20.72551192 2.64697266 8.89453125 C1.64510558 5.96076201 0.8211752 2.98892206 0 0 Z " fill="#070706" transform="translate(989,351)"/>
<path d="M0 0 C18.63945872 15.88103308 30.57045047 38.32243131 33.3125 62.6875 C34.84503863 89.41208321 28.40557578 114.56116256 10.65283203 135.06567383 C-6.96322446 154.60408173 -29.51693752 164.94891755 -55.55078125 166.90234375 C-79.35975282 167.72561386 -103.3373836 159.41346776 -121 143.375 C-138.808457 126.43913086 -151.11433473 104.78453404 -151.890625 79.75390625 C-152.26877545 53.37192917 -145.95462593 31.14017536 -128.6875 10.6875 C-127.90375 9.65625 -127.12 8.625 -126.3125 7.5625 C-93.5419961 -28.32900427 -37.03029777 -29.24258891 0 0 Z M-63.6875 10.6875 C-63.6875 13.9875 -63.6875 17.2875 -63.6875 20.6875 C-64.986875 20.72875 -66.28625 20.77 -67.625 20.8125 C-74.25057691 21.57298288 -79.06195439 24.81510822 -83.515625 29.6875 C-89.54961765 37.42038379 -91.30187339 45.40603765 -90.4765625 55.1875 C-88.94203706 63.52605336 -84.80381988 69.5578547 -77.87890625 74.3671875 C-73.43786557 77.04289472 -68.94642266 79.6875 -63.6875 79.6875 C-63.6875 90.5775 -63.6875 101.4675 -63.6875 112.6875 C-73.65081261 106.46042962 -74.75114903 104.31429398 -77.6875 93.6875 C-82.6375 94.0175 -87.5875 94.3475 -92.6875 94.6875 C-92.1932252 103.46087762 -90.51836166 111.51904468 -84.4296875 118.26953125 C-79.49993205 122.28186584 -72.92954525 126.0625 -66.4375 126.0625 C-65.53 125.93875 -64.6225 125.815 -63.6875 125.6875 C-63.6875 129.6475 -63.6875 133.6075 -63.6875 137.6875 C-60.7175 137.6875 -57.7475 137.6875 -54.6875 137.6875 C-54.3575 134.0575 -54.0275 130.4275 -53.6875 126.6875 C-51.46 126.0996875 -51.46 126.0996875 -49.1875 125.5 C-39.32695755 122.50562623 -32.75067887 117.30332793 -27.8125 108.25 C-25.39453159 100.8953461 -25.39748603 90.39594135 -27.875 83.0625 C-31.41942978 76.46252731 -34.87190314 73.12323226 -41.625 69.875 C-42.51735352 69.42737305 -42.51735352 69.42737305 -43.42773438 68.97070312 C-47.35417598 67.06970462 -50.23996038 66.4287566 -54.6875 65.6875 C-54.6875 55.1275 -54.6875 44.5675 -54.6875 33.6875 C-48.6875 35.6875 -48.6875 35.6875 -47.4453125 37.484375 C-47.19523438 38.21140625 -46.94515625 38.9384375 -46.6875 39.6875 C-46.33429688 40.53828125 -45.98109375 41.3890625 -45.6171875 42.265625 C-44.640625 44.73958333 -43.6640625 47.21354167 -42.6875 49.6875 C-35.7575 48.6975 -35.7575 48.6975 -28.6875 47.6875 C-28.6875 39.63273934 -30.16938304 34.62514136 -35.5546875 28.59765625 C-40.51027113 24.03736237 -45.2428072 20.87539233 -52.125 20.5 C-52.970625 20.561875 -53.81625 20.62375 -54.6875 20.6875 C-54.6875 17.3875 -54.6875 14.0875 -54.6875 10.6875 C-57.6575 10.6875 -60.6275 10.6875 -63.6875 10.6875 Z " fill="#060606" transform="translate(694.6875,980.3125)"/>
<path d="M0 0 C15.84 0 31.68 0 48 0 C48 61.05 48 122.1 48 185 C32.16 185 16.32 185 0 185 C0 123.95 0 62.9 0 0 Z " fill="#060605" transform="translate(480,713)"/>
<path d="M0 0 C-0.74394421 20.70217171 -2.43756011 41.34727851 -4 62 C-6.93230193 60.67879172 -8.98664899 59.25361803 -11.234375 56.9609375 C-11.80800781 56.38085938 -12.38164063 55.80078125 -12.97265625 55.203125 C-13.55917969 54.59984375 -14.14570312 53.9965625 -14.75 53.375 C-15.35199219 52.76398437 -15.95398438 52.15296875 -16.57421875 51.5234375 C-18.05405305 50.02011376 -19.52764676 48.51065144 -21 47 C-24.39117378 48.13039126 -24.85639668 48.80393667 -26.86328125 51.62109375 C-27.68868408 52.76384766 -27.68868408 52.76384766 -28.53076172 53.9296875 C-29.11873535 54.75726562 -29.70670898 55.58484375 -30.3125 56.4375 C-31.56950449 58.17730773 -32.82867748 59.91555048 -34.08984375 61.65234375 C-34.73550293 62.54163574 -35.38116211 63.43092773 -36.04638672 64.34716797 C-39.07595204 68.4610466 -42.21951435 72.48236684 -45.375 76.5 C-49.72729548 82.05270297 -53.98083742 87.64913353 -58.09375 93.3828125 C-60.66635799 96.91487675 -63.33903731 100.36683273 -66.01538086 103.8203125 C-68.82378118 107.45103279 -71.58188105 111.11523637 -74.31787109 114.80078125 C-79.46814762 121.7328751 -84.77793535 128.49903393 -90.25585938 135.17504883 C-95.31103256 141.34429496 -100.18011573 147.64602164 -105 154 C-108.86243448 152.40206611 -111.58214575 149.77849039 -114.5625 146.9375 C-118.45783782 143.2907372 -122.40210162 139.78494697 -126.5625 136.4375 C-130.32838189 133.40642433 -133.94329756 130.27418423 -137.5 127 C-141.85967196 122.99131858 -146.34970148 119.21814391 -150.9609375 115.50390625 C-155.32191445 111.91086483 -159.56060565 108.17951282 -163.78613281 104.4284668 C-167.03687288 101.57345015 -170.17550987 99.07947562 -174 97 C-179.23884317 101.55106209 -184.41494887 106.16676511 -189.56640625 110.81640625 C-191.67511146 112.70848685 -193.79919801 114.57905758 -195.9375 116.4375 C-199.16559512 119.24822525 -202.33738443 122.115799 -205.5 125 C-210.98457422 129.99688978 -216.53268831 134.90313066 -222.18359375 139.7109375 C-229.01401481 145.52796554 -235.72366152 151.43792521 -242.3125 157.52734375 C-245.81832678 160.75290821 -249.39072191 163.89133766 -253 167 C-253.56589844 167.50660156 -254.13179688 168.01320313 -254.71484375 168.53515625 C-258.66225627 172 -258.66225627 172 -262 172 C-264.04296875 169.953125 -264.04296875 169.953125 -266.1875 167.25 C-267.26064453 165.92742187 -267.26064453 165.92742187 -268.35546875 164.578125 C-270 162 -270 162 -270 158 C-268.3125 155.88671875 -268.3125 155.88671875 -266 153.6875 C-265.17113281 152.89472656 -264.34226562 152.10195313 -263.48828125 151.28515625 C-260.76974755 148.78854367 -258.02106988 146.33948847 -255.21875 143.9375 C-253.0160873 142.01404807 -250.86703514 140.03910099 -248.72363281 138.05004883 C-243.5386565 133.24001915 -238.2271118 128.68279731 -232.71484375 124.24609375 C-228.93006122 121.11479885 -225.34694276 117.77995294 -221.734375 114.453125 C-219.13692058 112.12283732 -216.47594286 109.92752832 -213.75 107.75 C-207.6996465 102.87152271 -202.0971113 97.55735983 -196.4453125 92.23046875 C-193.33234391 89.29918768 -190.15841712 86.45385249 -186.91796875 83.6640625 C-182.89139656 80.17053958 -178.95500191 76.57408984 -175 73 C-170.30322699 74.44716069 -167.32230007 77.21062692 -163.875 80.5625 C-159.84111376 84.39054654 -155.78152267 88.082238 -151.4375 91.5625 C-146.94264607 95.17012586 -142.69407795 98.99261465 -138.47802734 102.91650391 C-134.42303148 106.66793119 -130.1892329 110.13516653 -125.87890625 113.5859375 C-121.8675279 116.94961704 -118.07765997 120.540608 -114.32641602 124.19116211 C-111.22424858 127.33933061 -111.22424858 127.33933061 -107 128 C-105.05397253 125.70983934 -103.30448416 123.43905788 -101.5625 121 C-100.47547392 119.51416669 -99.3882286 118.02849377 -98.30078125 116.54296875 C-97.7485791 115.78161621 -97.19637695 115.02026367 -96.62744141 114.23583984 C-94.20150175 110.90299325 -91.72728863 107.60725592 -89.25 104.3125 C-88.7645874 103.66450439 -88.2791748 103.01650879 -87.77905273 102.34887695 C-83.59479521 96.7691954 -79.36034631 91.22844137 -75.125 85.6875 C-69.34965402 78.12762156 -63.65519056 70.51417106 -58.03027344 62.84179688 C-53.70316459 56.94096718 -49.32583147 51.07995062 -44.90527344 45.2487793 C-42.13446728 41.57770591 -39.51322811 37.85243652 -37 34 C-37.67417969 33.76539063 -38.34835937 33.53078125 -39.04296875 33.2890625 C-42.7377779 31.67837951 -45.95451188 29.58829804 -49.3125 27.375 C-49.95767578 26.95476563 -50.60285156 26.53453125 -51.26757812 26.1015625 C-52.84760724 25.07161759 -54.42416047 24.03634372 -56 23 C-54.56847803 20.13695606 -52.90206379 20.05826441 -49.91015625 19.00390625 C-48.28581665 18.42068604 -48.28581665 18.42068604 -46.62866211 17.82568359 C-45.45182861 17.40883301 -44.27499512 16.99198242 -43.0625 16.5625 C-31.88491783 12.52922006 -20.95306125 8.14025466 -10.05297852 3.40454102 C-9.02358154 2.95908936 -7.99418457 2.5136377 -6.93359375 2.0546875 C-5.5731897 1.45889893 -5.5731897 1.45889893 -4.18530273 0.85107422 C-2 0 -2 0 0 0 Z " fill="#0D0E0E" transform="translate(542,600)"/>
<path d="M0 0 C0 46.86 0 93.72 0 142 C-16.17 142 -32.34 142 -49 142 C-49.04010881 114.67253124 -49.04010881 114.67253124 -49.04882812 102.84375 C-49.0547598 94.83527879 -49.06170472 86.82682196 -49.07543945 78.81835938 C-49.08646543 72.34734217 -49.09231764 65.87633748 -49.09487724 59.40531158 C-49.09669658 56.96113132 -49.10024707 54.51695159 -49.10573006 52.07277679 C-49.14309873 34.6915508 -48.73534988 17.3652635 -48 0 C-41.80710802 -0.16686265 -35.61412686 -0.32826375 -29.42089844 -0.48217773 C-27.31407677 -0.53554579 -25.20730373 -0.59087104 -23.10058594 -0.64819336 C-20.07237228 -0.7302491 -17.04405349 -0.80526393 -14.015625 -0.87890625 C-13.07382385 -0.90594131 -12.13202271 -0.93297638 -11.16168213 -0.96083069 C-9.84076569 -0.99097511 -9.84076569 -0.99097511 -8.49316406 -1.02172852 C-7.33400482 -1.05170677 -7.33400482 -1.05170677 -6.15142822 -1.08229065 C-4 -1 -4 -1 0 0 Z " fill="#080807" transform="translate(406,756)"/>
<path d="M0 0 C0.85851562 0.43570313 1.71703125 0.87140625 2.6015625 1.3203125 C13.75528386 7.48687144 21.76236821 16.72460462 25.8125 28.875 C29.29974093 42.13896998 28.31585697 53.96566042 21.8203125 66.078125 C13.86541637 78.84692823 2.52895744 86.30173337 -11.9375 89.6875 C-21.40046244 90.65310841 -31.16596119 90.05379293 -39.984375 86.11328125 C-43.49766559 85.91582887 -45.79999175 88.49498166 -48.375 90.625 C-48.92671875 91.06457031 -49.4784375 91.50414062 -50.046875 91.95703125 C-52.29027104 93.75280132 -54.50619775 95.57333879 -56.68066406 97.45214844 C-60.80438426 101 -60.80438426 101 -63 101 C-63.09962586 94.51324969 -63.11678695 88.09669049 -62.6015625 81.62890625 C-61.84097186 71.57259413 -61.45495088 64.07555799 -65.77734375 54.8046875 C-70.04425075 45.01670275 -67.80167443 33.52804604 -64.3125 23.8125 C-58.8608178 11.2595491 -49.17322456 3.57913031 -36.953125 -1.8359375 C-25.62587507 -6.30091168 -10.72931548 -5.59035531 0 0 Z M-22 9 C-22.020625 9.598125 -22.04125 10.19625 -22.0625 10.8125 C-23 13 -23 13 -26.25 14.375 C-26.87519531 14.62121094 -27.50039063 14.86742187 -28.14453125 15.12109375 C-31.46610365 16.69447015 -33.54310369 18.69297431 -35 22 C-35.86893729 27.55662529 -35.72382415 32.31107698 -33.5 37.5 C-30.98021671 40.01978329 -30.02152402 40.37166617 -26.8125 41.4375 C-24.70703125 42.32421875 -24.70703125 42.32421875 -23 44 C-21.9637764 49.02760337 -21.89813727 53.88139786 -22 59 C-26.04737636 56.77034679 -27.65996903 55.50737689 -29 51 C-31.31 51 -33.62 51 -36 51 C-35.77115734 55.42429137 -35.56082993 58.8182341 -32.875 62.4375 C-29.49813325 65.44731602 -27.45478832 65.82530242 -23 66 C-23 67.98 -23 69.96 -23 72 C-21.35 72 -19.7 72 -18 72 C-18 70.02 -18 68.04 -18 66 C-17.319375 65.95875 -16.63875 65.9175 -15.9375 65.875 C-11.66175242 64.60137306 -8.81474088 62.45707919 -6 59 C-4.05037047 54.63314686 -3.8722274 50.9582945 -4.5 46.25 C-6.80038053 41.26584219 -10.04646722 38.73924007 -15.1484375 36.80859375 C-18 35 -18 35 -18.8046875 31.64453125 C-18.82789063 30.37996094 -18.85109375 29.11539063 -18.875 27.8125 C-18.91367187 26.54019531 -18.95234375 25.26789063 -18.9921875 23.95703125 C-18.99605469 22.49330078 -18.99605469 22.49330078 -19 21 C-15.63251488 22.51947499 -14.39159663 23.52100842 -13 27 C-10.69 27 -8.38 27 -6 27 C-6.0691895 23.54052509 -6.22952538 20.93470737 -8.484375 18.19921875 C-12.54755563 14.54553815 -12.54755563 14.54553815 -18 14 C-18 12.35 -18 10.7 -18 9 C-19.32 9 -20.64 9 -22 9 Z " fill="#0C0C0C" transform="translate(700,129)"/>
<path d="M0 0 C22.77665612 11.59438948 41.33812944 33.6401019 49.95410156 57.64257812 C51.23818835 61.59938012 52.30088191 65.5969658 53.23828125 69.6484375 C53.4290625 70.46828125 53.61984375 71.288125 53.81640625 72.1328125 C55.74244702 83.61772226 53.90556716 93.92508 48.36328125 104.0859375 C43.75059111 109.64829914 39.06406989 113.24639113 31.70703125 114.01953125 C13.33264257 114.32697673 0.03590862 106.29266256 -13.01171875 93.8984375 C-30.56863481 75.42050289 -42.22415244 51.10916029 -41.97265625 25.40625 C-41.4782461 16.59842482 -38.48620485 9.38234574 -32.76171875 2.6484375 C-23.12446932 -5.92482686 -11.29185969 -4.89539306 0 0 Z M-18.76171875 -1.3515625 C-18.76171875 -1.0215625 -18.76171875 -0.6915625 -18.76171875 -0.3515625 C-16.78171875 -0.3515625 -14.80171875 -0.3515625 -12.76171875 -0.3515625 C-12.76171875 -0.6815625 -12.76171875 -1.0115625 -12.76171875 -1.3515625 C-14.74171875 -1.3515625 -16.72171875 -1.3515625 -18.76171875 -1.3515625 Z M-32.38671875 6.2734375 C-40.13910444 16.53468588 -39.86409759 28.29990201 -38.76171875 40.6484375 C-36.06864752 59.52510502 -26.00570635 76.43114705 -13.76171875 90.6484375 C-13.17003906 91.33679688 -12.57835937 92.02515625 -11.96875 92.734375 C-3.11076712 102.29117529 9.84027266 110.71453497 22.97265625 112.01953125 C30.5211217 112.26567686 35.87558571 111.80366724 42.23828125 107.6484375 C41.57828125 107.3184375 40.91828125 106.9884375 40.23828125 106.6484375 C39.15546875 107.09896484 39.15546875 107.09896484 38.05078125 107.55859375 C29.16256407 111.00277791 18.74179661 108.93397421 10.30078125 105.26171875 C5.18225827 102.56535397 0.70747913 99.30567424 -3.76171875 95.6484375 C-4.95087891 94.70484375 -4.95087891 94.70484375 -6.1640625 93.7421875 C-23.18586718 79.54280172 -34.58187008 55.6578773 -36.76171875 33.6484375 C-37.3971522 24.55897644 -36.48350857 16.14572467 -31.32421875 8.4375 C-28.63305355 5.35611585 -25.32274927 3.5705 -21.76171875 1.6484375 C-20.77171875 0.9884375 -19.78171875 0.3284375 -18.76171875 -0.3515625 C-24.86620703 -1.06973759 -28.24859714 2.13531589 -32.38671875 6.2734375 Z M15.23828125 23.6484375 C15.23828125 24.9684375 15.23828125 26.2884375 15.23828125 27.6484375 C14.24828125 27.3184375 13.25828125 26.9884375 12.23828125 26.6484375 C7.4549402 26.15388868 3.52609408 25.95087222 -0.76171875 28.2734375 C-3.88067465 31.97719764 -4.59885969 35.20984917 -5.13671875 39.9609375 C-4.53717483 45.85645267 -2.42712453 50.80298786 1.55078125 55.2109375 C3.23828125 57.6484375 3.23828125 57.6484375 3.11328125 61.5234375 C2.41519789 65.30892046 1.38571072 68.9766632 0.23828125 72.6484375 C-0.75171875 72.3184375 -1.74171875 71.9884375 -2.76171875 71.6484375 C-3.42171875 68.3484375 -4.08171875 65.0484375 -4.76171875 61.6484375 C-7.40171875 60.9884375 -10.04171875 60.3284375 -12.76171875 59.6484375 C-13.35367944 68.86240183 -13.35367944 68.86240183 -8.76171875 76.6484375 C-8.01921875 77.3084375 -7.27671875 77.9684375 -6.51171875 78.6484375 C-4.76171875 80.6484375 -4.76171875 80.6484375 -4.51171875 83.8984375 C-4.59421875 84.8059375 -4.67671875 85.7134375 -4.76171875 86.6484375 C-3.11171875 86.9784375 -1.46171875 87.3084375 0.23828125 87.6484375 C0.56828125 86.6584375 0.89828125 85.6684375 1.23828125 84.6484375 C1.89054688 84.75542969 2.5428125 84.86242187 3.21484375 84.97265625 C7.39736275 85.54636461 10.52438024 85.85996373 14.61328125 84.6484375 C18.63311262 81.58570884 20.71536383 78.37054034 21.65625 73.47265625 C22.04945296 67.31956122 19.95655754 63.41707433 16.23828125 58.6484375 C15.45453125 57.7821875 14.67078125 56.9159375 13.86328125 56.0234375 C12.23828125 53.6484375 12.23828125 53.6484375 12.30078125 50.8984375 C13.49165135 46.77008782 14.80692344 42.69945017 16.23828125 38.6484375 C18.23828125 40.6484375 18.23828125 40.6484375 18.61328125 44.1484375 C18.84178851 47.65977661 18.84178851 47.65977661 21.05078125 49.0859375 C23.50749923 49.81446486 23.50749923 49.81446486 27.23828125 49.6484375 C27.20999828 42.74739258 26.05954778 38.45325535 21.7109375 33.046875 C20.33504143 31.4189049 20.33504143 31.4189049 18.23828125 31.6484375 C18.56828125 30.8853125 18.89828125 30.1221875 19.23828125 29.3359375 C20.41264811 26.65774615 20.41264811 26.65774615 20.23828125 23.6484375 C18.58828125 23.6484375 16.93828125 23.6484375 15.23828125 23.6484375 Z " fill="#0B0B0B" transform="translate(828.76171875,543.3515625)"/>
<path d="M0 0 C15.84 0 31.68 0 48 0 C48 38.28 48 76.56 48 116 C31.83 116 15.66 116 -1 116 C-1.02254768 101.02313407 -1.04097956 86.04627679 -1.05181217 71.06939793 C-1.05697496 64.11583919 -1.06401734 57.16229173 -1.07543945 50.20874023 C-1.08644694 43.50442791 -1.09227621 36.80012975 -1.09487724 30.09580803 C-1.09673202 27.53162387 -1.10035364 24.96744038 -1.10573006 22.40326118 C-1.11293659 18.82554842 -1.11399111 15.24788481 -1.11352539 11.67016602 C-1.11712067 10.59842636 -1.12071594 9.52668671 -1.12442017 8.42247009 C-1.1230455 7.45346771 -1.12167084 6.48446533 -1.12025452 5.48609924 C-1.12117631 4.63897149 -1.1220981 3.79184374 -1.12304783 2.91904545 C-1 1 -1 1 0 0 Z " fill="#060605" transform="translate(296,782)"/>
<path d="M0 0 C15.84 0 31.68 0 48 0 C48 35.64 48 71.28 48 108 C32.16 108 16.32 108 0 108 C0 72.36 0 36.72 0 0 Z " fill="#070606" transform="translate(419,790)"/>
<path d="M0 0 C2.37655667 2.1023386 3.82244855 4.03897258 5 7 C4.76266424 13.4080655 2.80060746 17.38571154 -1.87890625 21.75390625 C-19.87293354 36.65772492 -44.97780247 38.80478369 -67.42138672 36.78173828 C-78.18186535 35.38290064 -88.23855827 31.76144173 -96 24 C-98.51653617 19.84224459 -98.14147164 16.64742023 -97 12 C-92.55929603 2.73244388 -82.57991214 -1.63762584 -73.375 -4.9375 C-51.70332911 -11.76006306 -19.01071066 -15.4656806 0 0 Z M-95 17 C-94.56802365 21.7517398 -93.67230705 23.92000054 -90 27 C-89.34 26.67 -88.68 26.34 -88 26 C-88.61875 25.443125 -89.2375 24.88625 -89.875 24.3125 C-92.06106379 21.93354822 -92.98785699 20.03642904 -94 17 C-94.33 17 -94.66 17 -95 17 Z M-68 34 C-68 34.33 -68 34.66 -68 35 C-66.35 35 -64.7 35 -63 35 C-63 34.67 -63 34.34 -63 34 C-64.65 34 -66.3 34 -68 34 Z M-41 34 C-37 35 -37 35 -37 35 Z M-61 35 C-61 35.33 -61 35.66 -61 36 C-55.39 36 -49.78 36 -44 36 C-44 35.67 -44 35.34 -44 35 C-49.61 35 -55.22 35 -61 35 Z " fill="#060606" transform="translate(695,725)"/>
<path d="M0 0 C1.11696762 0.00222061 2.23393524 0.00444122 3.38475037 0.00672913 C4.64598221 0.00680466 5.90721405 0.00688019 7.20666504 0.00695801 C8.59341979 0.01206542 9.98017414 0.01728142 11.3669281 0.02259827 C12.77797394 0.0244625 14.18902042 0.02588638 15.60006714 0.02688599 C19.3204272 0.03071072 23.04074845 0.04054062 26.76109314 0.05158997 C31.22141976 0.06359991 35.68175933 0.06820654 40.14209747 0.07404327 C46.92409929 0.08375241 53.70601588 0.10290923 60.48802185 0.12025452 C60.48802185 17.28025452 60.48802185 34.44025452 60.48802185 52.12025452 C44.8054774 52.16036333 44.8054774 52.16036333 38.14231873 52.16908264 C33.5881891 52.17507025 29.0340795 52.18216835 24.47996521 52.19569397 C20.81009641 52.20652572 17.14024907 52.21253196 13.47036552 52.21513176 C12.06727193 52.21698549 10.66417956 52.22060512 9.26109505 52.22598457 C7.30232505 52.23319871 5.34353365 52.2336626 3.38475037 52.23377991 C2.26778275 52.23600052 1.15081512 52.23822113 0 52.24050903 C-2.51197815 52.12025452 -2.51197815 52.12025452 -3.51197815 51.12025452 C-3.61044782 49.56026404 -3.63996433 47.99584907 -3.64137268 46.43275452 C-3.64452484 45.43502014 -3.647677 44.43728577 -3.65092468 43.40931702 C-3.64890045 42.32392639 -3.64687622 41.23853577 -3.64479065 40.12025452 C-3.64574738 39.01423889 -3.6467041 37.90822327 -3.64768982 36.76869202 C-3.64837182 34.42494144 -3.64651619 32.08118899 -3.64234924 29.73744202 C-3.63700129 26.13583664 -3.64229361 22.53435598 -3.6486969 18.93275452 C-3.64803612 16.66192091 -3.64675497 14.39108737 -3.64479065 12.12025452 C-3.64681488 11.03486389 -3.64883911 9.94947327 -3.65092468 8.83119202 C-3.64777252 7.83345764 -3.64462036 6.83572327 -3.64137268 5.80775452 C-3.64057709 4.9247467 -3.63978149 4.04173889 -3.63896179 3.13197327 C-3.44774719 0.10268551 -3.04958902 0.14599126 0 0 Z M32.48802185 16.12025452 C30.12820372 17.05604447 27.79170921 18.05373259 25.48802185 19.12025452 C25.46739685 20.37837952 25.44677185 21.63650452 25.42552185 22.93275452 C25.41392029 23.64044983 25.40231873 24.34814514 25.3903656 25.07728577 C25.57012444 28.83784068 26.80369137 30.66934408 29.48802185 33.12025452 C32.5036608 30.37876456 34.3401281 27.90681097 34.68333435 23.76087952 C34.66013123 22.97197327 34.6369281 22.18306702 34.61302185 21.37025452 C34.58595154 20.17142639 34.58595154 20.17142639 34.55833435 18.94837952 C34.53513123 18.34509827 34.5119281 17.74181702 34.48802185 17.12025452 C33.82802185 16.79025452 33.16802185 16.46025452 32.48802185 16.12025452 Z " fill="#0E0E0E" transform="translate(614.5119781494141,260.87974548339844)"/>
<path d="M0 0 C0.66 0 1.32 0 2 0 C2.13535156 1.1859375 2.27070312 2.371875 2.41015625 3.59375 C5.48471994 27.69201993 16.71732951 46.61510638 35.921875 61.76953125 C55.91219865 76.25490537 77.28076371 82.92715961 102 81 C106.14081114 80.31056121 110.02110848 79.31719737 114 78 C115.33050594 77.6555543 116.66293951 77.31805365 118 77 C115.09033958 83.63402576 109.38490156 87.68316438 102.8125 90.375 C88.21478959 95.7990281 69.2982569 94.75666163 55 89 C54.3615918 88.75330566 53.72318359 88.50661133 53.06542969 88.25244141 C38.22222096 82.47061763 26.30332916 74.13879744 15 63 C14.33097656 62.34386719 13.66195312 61.68773437 12.97265625 61.01171875 C1.84529038 49.2283177 -5.41638137 32.41310672 -5.2265625 16.18359375 C-4.63641863 10.49582787 -2.65594853 5.0347546 0 0 Z " fill="#151515" transform="translate(747,251)"/>
<path d="M0 0 C0.66 0 1.32 0 2 0 C2.08636719 0.93199219 2.17273438 1.86398437 2.26171875 2.82421875 C4.44786762 22.66000991 13.04619314 38.0267859 27 52 C28.18916016 53.2065625 28.18916016 53.2065625 29.40234375 54.4375 C47.50470716 71.78685328 71.32167089 79.48242691 96.01953125 79.234375 C102.86982242 79.0271527 109.36540943 77.66608552 116 76 C113.10958751 82.73945424 106.09733648 86.49944287 99.52734375 89.18359375 C79.60941765 95.61766879 58.12787047 90.25464927 40 81 C19.07163898 69.47626181 3.95065776 51.89652878 -3.609375 29.16796875 C-5.39248759 19.2716939 -4.88613655 8.8779356 0 0 Z " fill="#131313" transform="translate(736,269)"/>
<path d="M0 0 C0.66 0.33 1.32 0.66 2 1 C1.525625 2.155 1.05125 3.31 0.5625 4.5 C-0.97241796 8.61966188 -1.73125446 12.61608832 -2 17 C-2.04125 17.65226563 -2.0825 18.30453125 -2.125 18.9765625 C-2.8680361 43.77539245 7.31124581 67.29072699 23 86 C23.78246094 86.9590625 24.56492187 87.918125 25.37109375 88.90625 C37.07829761 102.59348998 51.54358071 110.84692539 69 115 C69 115.66 69 116.32 69 117 C61.18266616 120.67874534 53.32559463 121.45795747 44.91796875 119.15625 C26.14621725 111.87389293 11.19647461 97.0972611 1 80 C0.42209717 79.03537842 0.42209717 79.03537842 -0.16748047 78.05126953 C-11.10321701 59.4494264 -17.21217547 38.18868784 -13.38671875 16.52734375 C-11.26453173 9.88031744 -7.38514633 5.35940417 -2 1 C-1.34 0.67 -0.68 0.34 0 0 Z " fill="#131313" transform="translate(784,548)"/>
<path d="M0 0 C1.15924334 4.3208161 1.07804034 7.17625481 -0.9609375 11.21875 C-1.30382812 11.8065625 -1.64671875 12.394375 -2 13 C-2.32226562 13.5671875 -2.64453125 14.134375 -2.9765625 14.71875 C-11.08081514 26.2215602 -30.26457288 30.8915658 -43.1875 33.25 C-61.99219233 35.76181811 -82.85888446 34.99560119 -99 24 C-102.17730331 20.76116252 -104.85743526 17.45600249 -106 13 C-105.625 10.1875 -105.625 10.1875 -105 8 C-104.58492187 8.37511719 -104.16984375 8.75023437 -103.7421875 9.13671875 C-89.350712 21.08947141 -68.53380003 22.43070346 -50.58251953 20.77734375 C-34.24243426 18.97622432 -15.47183093 15.8214581 -4 3 C-1.10344828 0 -1.10344828 0 0 0 Z " fill="#171717" transform="translate(702,744)"/>
<path d="M0 0 C5.23710397 3.35556165 10.04281199 6.9025193 12.734375 12.63671875 C13.296875 15.57421875 13.296875 15.57421875 12.859375 17.69921875 C9.84662361 21.31452042 5.93510064 23.13735858 1.484375 24.32421875 C-0.0934375 24.44796875 -0.0934375 24.44796875 -1.703125 24.57421875 C-2.38632812 24.63738281 -3.06953125 24.70054687 -3.7734375 24.765625 C-15.86721809 25.38428374 -28.47998552 21.45697118 -37.703125 13.57421875 C-40.67375165 10.22110798 -42.62209636 7.35684877 -42.828125 2.82421875 C-40.84741175 -1.13720776 -37.98633322 -2.92082343 -33.93359375 -4.515625 C-22.78257535 -7.65732668 -10.12569069 -5.34086286 0 0 Z " fill="#0D0E0D" transform="translate(647.703125,825.42578125)"/>
<path d="M0 0 C0.33 0 0.66 0 1 0 C1.34671602 4.87328629 1.58645757 8.78016825 -0.5625 13.25 C-12.4540206 26.66607453 -30.55547567 31.59034147 -48 33 C-65.48307238 33.85171992 -84.83049629 33.66508281 -99.1875 22.3125 C-103.55956153 18.12460956 -104.62343728 13.92782608 -105 8 C-102.33746489 9.27009333 -99.97601698 10.68715071 -97.5625 12.375 C-79.66792354 23.72278019 -52.46881692 22.20344694 -32.62695312 17.76806641 C-20.37518934 14.76151433 -7.66867409 10.6199517 0 0 Z " fill="#191919" transform="translate(702,761)"/>
<path d="M0 0 C9.23090242 4.00157346 16.23763215 7.89977099 20.5 17.3125 C21.64980116 25.79228356 20.64928686 32.5582881 15.875 39.765625 C11.13700047 45.41174111 6.18106578 47.9082175 -1 49 C-1.0252689 42.18238106 -1.04283244 35.36477411 -1.05493164 28.54711914 C-1.05997333 26.22582549 -1.06680651 23.90453503 -1.07543945 21.58325195 C-1.08751225 18.25471205 -1.09322979 14.92621398 -1.09765625 11.59765625 C-1.10281754 10.55287613 -1.10797882 9.50809601 -1.11329651 8.43165588 C-1.11337204 7.47073532 -1.11344757 6.50981476 -1.11352539 5.51977539 C-1.115746 4.66928116 -1.11796661 3.81878693 -1.12025452 2.94252014 C-1 1 -1 1 0 0 Z " fill="#161616" transform="translate(908,460)"/>
<path d="M0 0 C0.66 0 1.32 0 2 0 C3.05767578 1.35351562 3.05767578 1.35351562 4.13671875 2.734375 C7.13130104 6.46691184 10.53651678 8.23871909 14.8125 10.25 C15.48603516 10.58773437 16.15957031 10.92546875 16.85351562 11.2734375 C24.86797187 15.16946025 32.12529731 16.3461163 41 16.3125 C41.85078125 16.32861328 42.7015625 16.34472656 43.578125 16.36132812 C49.39130437 16.36578608 53.67428531 15.3361642 59 13 C58.72777707 16.90186194 58.27669035 18.67844094 55.6875 21.6875 C47.34038897 28.86989786 40.9898053 29.74798835 30.17578125 29.1953125 C21.22855242 28.39215013 11.9896617 24.67112511 5 19 C3.83203125 16.98046875 3.83203125 16.98046875 3 15 C2.46375 14.113125 1.9275 13.22625 1.375 12.3125 C-0.38316187 8.07692821 -0.27110351 4.51839191 0 0 Z M5 16 C5.99 17.485 5.99 17.485 7 19 C7.66 18.67 8.32 18.34 9 18 C7.68 17.34 6.36 16.68 5 16 Z M11 20 C13.39509338 22.89932357 15.31245243 23.50168276 19 24 C16.37801226 21.84622436 14.35595828 20.59927826 11 20 Z M19 24 C19.66 24.66 20.32 25.32 21 26 C23.10820797 25.6814823 23.10820797 25.6814823 25 25 C22.03 24.505 22.03 24.505 19 24 Z M25 26 C25 26.33 25 26.66 25 27 C26.65 27 28.3 27 30 27 C30 26.67 30 26.34 30 26 C28.35 26 26.7 26 25 26 Z M30 27 C30 27.33 30 27.66 30 28 C34.29 28 38.58 28 43 28 C43 27.67 43 27.34 43 27 C38.71 27 34.42 27 30 27 Z " fill="#1B1B1A" transform="translate(601,839)"/>
<path d="M0 0 C2.93356627 1.3812756 5.48668613 2.99605322 8.125 4.875 C18.96384994 12.13632104 32.37389998 15.70714394 45.3828125 13.6171875 C49.42786572 12.77613683 53.22161329 11.70636819 57 10 C57.32473542 13.4909058 57.26370325 15.51845494 55.5625 18.625 C49.03937956 24.67081894 42.20314566 25.58613608 33.51855469 25.47021484 C22.32631134 25.01103329 12.36621448 21.62754679 4 14 C1.05681392 10.55226773 0.04113319 7.64784777 -0.25 3.0625 C-0.1675 2.051875 -0.085 1.04125 0 0 Z " fill="#1D1D1D" transform="translate(600,857)"/>
<path d="M0 0 C0.66 0.33 1.32 0.66 2 1 C2 15.19 2 29.38 2 44 C-5.0603736 41.64654213 -9.65435451 38.82271856 -13.4375 32.3125 C-15.97903885 26.54727768 -15.93856275 20.54321323 -14.33984375 14.5078125 C-11.84923036 8.10337807 -7.76994835 4.20148103 -1.90625 0.77734375 C-1.2771875 0.52082031 -0.648125 0.26429688 0 0 Z " fill="#171717" transform="translate(892,382)"/>
<path d="M0 0 C3.55713883 1.77856942 5.11389431 2.91523182 7.75 5.6875 C12.82272095 10.89271739 18.14597465 15.68718929 24 20 C21.56493591 29.98376277 12.79117602 36.22822313 5.0625 42.3125 C2.91019125 43.83873758 2.91019125 43.83873758 2 46 C1.34 46 0.68 46 0 46 C0 30.82 0 15.64 0 0 Z M4 19 C3.6823754 20.91006306 3.6823754 20.91006306 3.75 23 C3.74484375 23.70125 3.7396875 24.4025 3.734375 25.125 C3.84294485 27.2435669 3.84294485 27.2435669 6 29 C10.05261287 29.34490322 11.54754176 29.30163882 15 27 C15.43827201 25.09542071 15.43827201 25.09542071 15.3125 23 C15.30863281 22.29875 15.30476562 21.5975 15.30078125 20.875 C15.14912946 18.7583423 15.14912946 18.7583423 13 17 C7.97000426 16.41355715 7.97000426 16.41355715 4 19 Z " fill="#292929" transform="translate(681,264)"/>
<path d="M0 0 C-3.77984446 2.51989631 -4.66910619 1.8288792 -9 1 C-11.41629808 0.95779392 -13.83368334 0.95887121 -16.25 1 C-22.77959184 1.11020408 -22.77959184 1.11020408 -25 0 C-31.5422721 4.01457606 -35.5293693 8.43213517 -38.234375 15.61328125 C-42.84050665 35.9883636 -36.32941877 57.388847 -25.625 74.75 C-22.05904437 80.09107891 -18.17840212 85.12519753 -14 90 C-13.22269531 90.92232422 -13.22269531 90.92232422 -12.4296875 91.86328125 C-3.94341166 101.13848223 9.15931467 109.12148001 21.734375 110.37109375 C29.96166538 110.63937496 36.18904334 110.22308415 42.56640625 104.625 C44.18026466 102.7956673 45.14163636 101.01242006 46.1875 98.8125 C46.53167969 98.09707031 46.87585938 97.38164063 47.23046875 96.64453125 C47.48441406 96.10183594 47.73835937 95.55914063 48 95 C48.66 95.33 49.32 95.66 50 96 C48.68520783 101.84352076 45.5017504 106.15424237 41 110 C32.69754243 114.34511851 23.54710296 114.24809817 14.5625 112.2265625 C-7.78390989 104.50390614 -24.14186851 84.74354106 -34.29760742 64.125 C-41.47934456 48.80000082 -46.93531333 29.8364407 -41.0390625 13.27734375 C-37.73941733 6.04541468 -33.80899024 1.11108845 -27 -3 C-17.78953815 -6.07015395 -8.58282825 -3.85281268 0 0 Z M-20 -2 C-20 -1.67 -20 -1.34 -20 -1 C-18.02 -1 -16.04 -1 -14 -1 C-14 -1.33 -14 -1.66 -14 -2 C-15.98 -2 -17.96 -2 -20 -2 Z " fill="#565655" transform="translate(830,544)"/>
<path d="M0 0 C5.96749021 1.45548542 10.97746008 4.68564426 14.2109375 9.984375 C15.48782201 13.2461196 14.80931773 15.64711228 14 19 C9.32111716 28.35776568 -0.52143123 33.55433161 -10 37 C-30.60933699 43.25227077 -55.41066799 46.06093906 -75.5625 36.625 C-80.29990614 33.99223186 -84.57237447 31.35868565 -87.4375 26.625 C-88.46118809 21.8477889 -87.63822644 18.25092382 -85.4375 13.9375 C-82.38651719 10.26067456 -78.92435478 7.6860875 -75 5 C-74.34 5.33 -73.68 5.66 -73 6 C-73.62648438 6.68707031 -74.25296875 7.37414062 -74.8984375 8.08203125 C-75.71570313 8.98308594 -76.53296875 9.88414062 -77.375 10.8125 C-78.18710937 11.70582031 -78.99921875 12.59914063 -79.8359375 13.51953125 C-82.51811454 16.59386775 -83.91832982 18.26496837 -84.375 22.375 C-83.92743114 26.70149893 -83.13089385 28.02966481 -80 31 C-75.85514042 33.98068594 -72.14326848 35.49821771 -67 36 C-67 36.66 -67 37.32 -67 38 C-65.02 37.505 -65.02 37.505 -63 37 C-63 37.66 -63 38.32 -63 39 C-60.525 38.505 -60.525 38.505 -58 38 C-58 38.66 -58 39.32 -58 40 C-57.28142822 39.83773926 -56.56285645 39.67547852 -55.82250977 39.50830078 C-53.09090598 39.0163711 -50.61104468 38.87078013 -47.83984375 38.8671875 C-46.88142578 38.86589844 -45.92300781 38.86460937 -44.93554688 38.86328125 C-43.94619141 38.86714844 -42.95683594 38.87101563 -41.9375 38.875 C-40.94427734 38.87113281 -39.95105469 38.86726562 -38.92773438 38.86328125 C-37.97060547 38.86457031 -37.01347656 38.86585938 -36.02734375 38.8671875 C-35.15843506 38.86831543 -34.28952637 38.86944336 -33.39428711 38.87060547 C-31.12715117 38.99312837 -29.17382348 39.36595503 -27 40 C-27 39.34 -27 38.68 -27 38 C-26.17242188 37.79503906 -26.17242188 37.79503906 -25.328125 37.5859375 C-18.05447738 35.75532149 -10.9767043 33.76662412 -4 31 C-3.05125 30.649375 -2.1025 30.29875 -1.125 29.9375 C1.56999308 28.74853246 2.99155529 27.0089725 5 24.875 C7 23 7 23 9 23 C9.6345733 15.18604511 9.6345733 15.18604511 7.3125 7.9375 C5.0248111 5.91389586 5.0248111 5.91389586 2.25 4.375 C1.5075 3.92125 0.765 3.4675 0 3 C0 2.01 0 1.02 0 0 Z M-51 40 C-51 40.33 -51 40.66 -51 41 C-45.39 41 -39.78 41 -34 41 C-34 40.67 -34 40.34 -34 40 C-39.61 40 -45.22 40 -51 40 Z " fill="#8E8E8D" transform="translate(685,720)"/>
<path d="M0 0 C8.17977528 3.50561798 8.17977528 3.50561798 12 8 C13.676194 13.02858199 13.60642735 17.34030411 11.8125 22.25 C9.81524552 25.28031714 8.04991093 27.03934298 5 29 C3.35 29.33 1.7 29.66 0 30 C0 20.1 0 10.2 0 0 Z " fill="#151515" transform="translate(640,1063)"/>
<path d="M0 0 C9.37152485 4.0716091 9.37152485 4.0716091 12 9 C12.84048641 13.72773603 12.46591479 17.06817042 10.3125 21.375 C7.98499737 24.01703001 6.20127785 25.55942497 3 27 C1.68 27 0.36 27 -1 27 C-1.02886537 22.68751391 -1.04675255 18.37505238 -1.0625 14.0625 C-1.07087891 12.83080078 -1.07925781 11.59910156 -1.08789062 10.33007812 C-1.09111328 9.16025391 -1.09433594 7.99042969 -1.09765625 6.78515625 C-1.10289307 5.70113525 -1.10812988 4.61711426 -1.11352539 3.50024414 C-1 1 -1 1 0 0 Z " fill="#222222" transform="translate(531,283)"/>
<path d="M0 0 C0.33 9.24 0.66 18.48 1 28 C-3.96955529 27.00608894 -5.46267535 26.34611791 -9 23 C-11.55196749 18.7496848 -11.66104014 14.83946672 -11 10 C-9.62879087 6.13837862 -7.70506084 3.52040204 -4.375 1.0625 C-2 0 -2 0 0 0 Z " fill="#191919" transform="translate(631,1014)"/>
<path d="M0 0 C0 8.58 0 17.16 0 26 C-7.63636364 22.18181818 -7.63636364 22.18181818 -10 18 C-10.85486928 13.28077262 -10.46140157 9.92280314 -8.3125 5.625 C-3.35714286 0 -3.35714286 0 0 0 Z " fill="#0B0B0B" transform="translate(523,238)"/>
<path d="M0 0 C3.95038085 1.31679362 4.79858832 3.18419835 7.1875 6.5625 C16.3082175 19.02999927 29.32956593 30.8365835 45 34 C53.61718323 34.85631005 60.69790783 34.91486973 68 30 C70.44860378 27.85060217 71.7924039 25.74701248 73.1875 22.8125 C73.53167969 22.09707031 73.87585938 21.38164063 74.23046875 20.64453125 C74.48441406 20.10183594 74.73835937 19.55914063 75 19 C75.66 19.33 76.32 19.66 77 20 C75.68520783 25.84352076 72.5017504 30.15424237 68 34 C59.69754243 38.34511851 50.54710296 38.24809817 41.5625 36.2265625 C24.10324991 30.19285107 9.87919079 16.20512326 0 1 C0 0.67 0 0.34 0 0 Z " fill="#848383" transform="translate(803,620)"/>
<path d="M0 0 C4.828125 1.7890625 4.828125 1.7890625 6.375 3.6875 C7.31263269 7.15674096 6.91168904 9.53558163 6 13 C3.81008403 15.58297781 2.03168312 17.48415844 -1 19 C-2.99960012 19.039992 -5.00047242 19.04346799 -7 19 C-6.4253379 14.21357393 -5.01754357 10.46211213 -2.9375 6.125 C-2.38964844 4.97257813 -1.84179688 3.82015625 -1.27734375 2.6328125 C-0.85582031 1.76398437 -0.43429687 0.89515625 0 0 Z " fill="#242424" transform="translate(731,689)"/>
<path d="M0 0 C5.96749021 1.45548542 10.97746008 4.68564426 14.2109375 9.984375 C15.48782201 13.2461196 14.80931773 15.64711228 14 19 C10.34382845 26.3123431 2.58059538 32.11215414 -5 35 C-5.99 34.67 -6.98 34.34 -8 34 C-5.45316295 30.88719916 -2.75704438 30.19905672 1 29 C2.35432691 27.64567309 3.68731586 26.2697269 5 24.875 C7 23 7 23 9 23 C9.6345733 15.18604511 9.6345733 15.18604511 7.3125 7.9375 C5.0248111 5.91389586 5.0248111 5.91389586 2.25 4.375 C1.5075 3.92125 0.765 3.4675 0 3 C0 2.01 0 1.02 0 0 Z " fill="#787877" transform="translate(685,720)"/>
<path d="M0 0 C-3.77984446 2.51989631 -4.66910619 1.8288792 -9 1 C-11.41629808 0.95779392 -13.83368334 0.95887121 -16.25 1 C-22.77959184 1.11020408 -22.77959184 1.11020408 -25 0 C-31.44669971 3.95592937 -34.96075877 8.79687955 -39 15 C-39.97994822 12.42763593 -40.16752314 11.37760255 -39.03125 8.81640625 C-29.12522115 -5.76466172 -15.6685585 -7.03358137 0 0 Z M-20 -2 C-20 -1.67 -20 -1.34 -20 -1 C-18.02 -1 -16.04 -1 -14 -1 C-14 -1.33 -14 -1.66 -14 -2 C-15.98 -2 -17.96 -2 -20 -2 Z " fill="#626261" transform="translate(830,544)"/>
<path d="M0 0 C-0.68416434 4.17576168 -2.01365009 7.88080407 -3.5625 11.8125 C-4.01753906 12.97394531 -4.47257813 14.13539063 -4.94140625 15.33203125 C-5.29074219 16.21246094 -5.64007812 17.09289062 -6 18 C-9.8359375 16.21875 -9.8359375 16.21875 -11.3125 14.25 C-12.27437674 11.10203975 -11.90172216 9.15602755 -11 6 C-7.62074078 1.09462372 -5.88506542 -0.15487014 0 0 Z " fill="#262626" transform="translate(739,654)"/>
<path d="M0 0 C6.40186916 2.56074766 6.40186916 2.56074766 8 5 C8.42316087 8.80844784 8.27896509 11.32461082 6.8125 14.875 C5 17 5 17 0 18 C0 12.06 0 6.12 0 0 Z " fill="#2C2C2C" transform="translate(823,278)"/>
<path d="M0 0 C0.28101563 0.59039063 0.56203125 1.18078125 0.8515625 1.7890625 C5.62349111 10.97583662 13.79454167 14.84317996 23.29296875 18.14453125 C27.72424206 19.16713278 31.84211344 19.38220292 36.375 19.375 C37.21264893 19.37628906 38.05029785 19.37757813 38.91333008 19.37890625 C45.14093601 19.27206751 49.59908399 18.26093042 55 15 C54 18 54 18 52.20703125 19.16796875 C41.08853443 23.90194537 29.24486081 23.03778877 18 19 C10.82653289 15.94604384 3.94494197 11.98779824 0 5 C-0.17578125 2.25390625 -0.17578125 2.25390625 0 0 Z " fill="#969594" transform="translate(604,831)"/>
<path d="M0 0 C0.66 0.33 1.32 0.66 2 1 C1.06027344 2.03060547 1.06027344 2.03060547 0.1015625 3.08203125 C-0.71570313 3.98308594 -1.53296875 4.88414062 -2.375 5.8125 C-3.18710937 6.70582031 -3.99921875 7.59914063 -4.8359375 8.51953125 C-7.51811454 11.59386775 -8.91832982 13.26496837 -9.375 17.375 C-8.93418178 21.63624275 -7.94582018 22.97235148 -5 26 C-4.2575 26.763125 -3.515 27.52625 -2.75 28.3125 C-2.1725 28.869375 -1.595 29.42625 -1 30 C-5.87191846 28.32962796 -9.68898741 26.2048848 -12.375 21.6875 C-13.49100391 16.8886832 -12.65474573 13.28330163 -10.4375 8.9375 C-7.38651719 5.26067456 -3.92435478 2.6860875 0 0 Z " fill="#7D7D7B" transform="translate(610,725)"/>
<path d="M0 0 C3.40860196 1.4150229 3.87517532 1.71236052 5.4375 5.3125 C6 9 6 9 4.6875 11.875 C3 14 3 14 2 15 C0.00041636 15.04080783 -2.00045254 15.04254356 -4 15 C-3.34728444 11.48294042 -2.48606976 8.10674923 -1.4375 4.6875 C-1.16808594 3.80449219 -0.89867187 2.92148437 -0.62109375 2.01171875 C-0.41613281 1.34785156 -0.21117187 0.68398438 0 0 Z " fill="#2E2E2E" transform="translate(836,606)"/>
<path d="M0 0 C0 4.95 0 9.9 0 15 C-4 14 -4 14 -5.8125 11.8125 C-7.2911912 8.31033664 -7.17234486 6.5951909 -6 3 C-2.9 0 -2.9 0 0 0 Z " fill="#272727" transform="translate(818,248)"/>
<path d="M0 0 C0.99966797 0.68835938 0.99966797 0.68835938 2.01953125 1.390625 C13.25619219 8.87125522 21.67177694 11.51362213 35.09545898 11.02905273 C36.34564819 10.98760132 36.34564819 10.98760132 37.62109375 10.9453125 C38.3680249 10.90937988 39.11495605 10.87344727 39.88452148 10.83642578 C42.32867457 11.02541396 43.89258615 11.7834163 46 13 C34.075106 16.80977133 19.89457555 13.90551754 9.046875 8.5390625 C1.79676661 4.45828721 1.79676661 4.45828721 0 0 Z M27 12 C27 12.33 27 12.66 27 13 C31.29 13 35.58 13 40 13 C40 12.67 40 12.34 40 12 C35.71 12 31.42 12 27 12 Z " fill="#B2B1B0" transform="translate(604,854)"/>
<path d="M0 0 C-0.56820748 5.45479185 -1.94637945 9.91059256 -4 15 C-6.72643883 12.39210199 -7.89359716 10.97890617 -8.3125 7.125 C-8 4 -8 4 -6.25 1.625 C-4 0 -4 0 0 0 Z " fill="#343333" transform="translate(841,577)"/>
<path d="M0 0 C0.66 0.33 1.32 0.66 2 1 C-7.9 10.9 -17.8 20.8 -28 31 C-28.66 30.67 -29.32 30.34 -30 30 C-27.50649333 27.30641391 -25.00401126 24.62132058 -22.5 21.9375 C-21.80390625 21.18533203 -21.1078125 20.43316406 -20.390625 19.65820312 C-16.38003406 15.36909893 -12.27617206 11.34728069 -7.79296875 7.55273438 C-5.04748859 5.17511267 -2.53540012 2.59878512 0 0 Z " fill="#464646" transform="translate(659,634)"/>
<path d="M0 0 C2.475 0.495 2.475 0.495 5 1 C7 4 7 4 6.8125 7 C5.99359827 10.02363717 5.54426706 11.23858434 3 13 C2.01 13 1.02 13 0 13 C0 8.71 0 4.42 0 0 Z " fill="#474747" transform="translate(681,175)"/>
<path d="M0 0 C0.66 0.33 1.32 0.66 2 1 C0.65097948 6.99564674 -2.58738187 10.90386063 -7 15 C-13.03050262 18.78384478 -19.11378999 18.30529995 -26 18 C-26 17.67 -26 17.34 -26 17 C-24.72125 16.938125 -23.4425 16.87625 -22.125 16.8125 C-15.45720344 16.08452854 -8.40744888 13.22506258 -4 8 C-2.80400932 5.96767758 -2.80400932 5.96767758 -1.8125 3.8125 C-1.46832031 3.09707031 -1.12414062 2.38164063 -0.76953125 1.64453125 C-0.38861328 0.83048828 -0.38861328 0.83048828 0 0 Z " fill="#585858" transform="translate(878,639)"/>
<path d="M0 0 C0.66 0.33 1.32 0.66 2 1 C1.67 5.29 1.34 9.58 1 14 C-4 11 -4 11 -5.125 8.125 C-5 5 -5 5 -2.5625 2.125 C-1.716875 1.42375 -0.87125 0.7225 0 0 Z " fill="#454544" transform="translate(677,149)"/>
<path d="M0 0 C0.66 0 1.32 0 2 0 C3.27400375 1.47000433 4.5435008 2.94515781 5.7578125 4.46484375 C7.07336124 6.09066342 8.48213245 7.56202021 10 9 C9.01 9.33 8.02 9.66 7 10 C6.67 10.66 6.34 11.32 6 12 C5.01 13.485 5.01 13.485 4 15 C-0.11888494 9.98010898 -0.51211281 6.40141012 0 0 Z " fill="#383736" transform="translate(601,839)"/>
<path d="M0 0 C5.50930954 1.34373403 9.08621081 4.03230187 13 8 C14.35439668 10.70879335 14.06501451 13.00933268 14 16 C13.34 16 12.68 16 12 16 C11.67 14.35 11.34 12.7 11 11 C10.01 10.67 9.02 10.34 8 10 C6.31237149 8.3545622 4.6459651 6.68711423 3 5 C2.01 4.34 1.02 3.68 0 3 C0 2.01 0 1.02 0 0 Z " fill="#252525" transform="translate(685,720)"/>
<path d="M0 0 C0.66 0.99 1.32 1.98 2 3 C-0.06152389 3.64894237 -2.12426258 4.2940264 -4.1875 4.9375 C-5.33605469 5.29714844 -6.48460937 5.65679688 -7.66796875 6.02734375 C-12.95960999 7.57203152 -17.47272506 8.10837794 -23 8 C-23 7.67 -23 7.34 -23 7 C-21.35 7 -19.7 7 -18 7 C-18 6.34 -18 5.68 -18 5 C-17.18208984 4.79890625 -17.18208984 4.79890625 -16.34765625 4.59375 C-13.70259578 3.92478296 -11.07011894 3.2163589 -8.4375 2.5 C-7.48746094 2.2421875 -6.53742187 1.984375 -5.55859375 1.71875 C-3.69144913 1.19423914 -1.8398931 0.6132977 0 0 Z " fill="#949494" transform="translate(676,753)"/>
<path d="M0 0 C3.90023451 1.25364681 5.51890315 3.64523806 7.37109375 7.1171875 C8 9 8 9 7.4375 12.375 C6 15 6 15 3 16 C3 15.01 3 14.02 3 13 C2.7907512 7.49959093 2.7907512 7.49959093 0 3 C0 2.01 0 1.02 0 0 Z " fill="#3E3E3D" transform="translate(653,830)"/>
<path d="M0 0 C0 8.58 0 17.16 0 26 C-0.99 25.34 -1.98 24.68 -3 24 C-2.34 24 -1.68 24 -1 24 C-1.33 17.07 -1.66 10.14 -2 3 C-4.31 4.98 -6.62 6.96 -9 9 C-7.88165913 4.97397286 -4.81302385 0 0 0 Z " fill="#4E4E4E" transform="translate(523,238)"/>
<path d="M0 0 C0.66 0.33 1.32 0.66 2 1 C0.59419724 2.65512248 -0.82506266 4.29882206 -2.25 5.9375 C-3.03890625 6.85402344 -3.8278125 7.77054688 -4.640625 8.71484375 C-6.91251033 10.91526249 -7.92319022 11.66832555 -11 12 C-9.65422692 7.71866696 -7.97986553 5.81390203 -4.375 3.1875 C-3.55773437 2.58292969 -2.74046875 1.97835937 -1.8984375 1.35546875 C-0.95871094 0.68451172 -0.95871094 0.68451172 0 0 Z " fill="#4E4E4E" transform="translate(610,725)"/>
<path d="M0 0 C2.10509029 3.15763543 3.49865526 6.38842911 4.9375 9.875 C6.38332566 13.35829354 7.7613918 16.61631376 9.75390625 19.8203125 C10.16511719 20.53960938 10.57632813 21.25890625 11 22 C10.67 22.66 10.34 23.32 10 24 C6.96849247 19.36357672 4.19886192 14.65717599 1.625 9.75 C0.83996094 8.25726562 0.83996094 8.25726562 0.0390625 6.734375 C-1.05060274 3.8668349 -1.13002652 2.79183022 0 0 Z " fill="#6F6F6D" transform="translate(793,596)"/>
<path d="M0 0 C2 2 2 2 2 5 C2.66 5 3.32 5 4 5 C4.33 3.68 4.66 2.36 5 1 C4.54996653 6.62541841 3.31558515 9.61487125 0 14 C-0.66 13.67 -1.32 13.34 -2 13 C-1.34 8.71 -0.68 4.42 0 0 Z " fill="#656565" transform="translate(695,731)"/>
<path d="M0 0 C2.41696872 -0.05411124 4.83271787 -0.09372278 7.25 -0.125 C7.93191406 -0.14175781 8.61382813 -0.15851562 9.31640625 -0.17578125 C13.0608235 -0.21213482 15.82352727 -0.07944349 19 2 C15.13276369 3.26582219 11.26848738 3.1118765 7.25 3.0625 C6.55261719 3.05798828 5.85523438 3.05347656 5.13671875 3.04882812 C3.42444197 3.0371002 1.71220967 3.01916653 0 3 C0 2.01 0 1.02 0 0 Z " fill="#9D9D9C" transform="translate(631,865)"/>
<path d="M0 0 C1.98 0.99 1.98 0.99 4 2 C3.01 2.495 3.01 2.495 2 3 C2 11.58 2 20.16 2 29 C1.34 29 0.68 29 0 29 C0 19.43 0 9.86 0 0 Z " fill="#454545" transform="translate(531,238)"/>
<path d="M0 0 C0.99 0 1.98 0 3 0 C1.61735163 2.86867231 0.07851447 5.56024032 -1.625 8.25 C-2.07101562 8.95640625 -2.51703125 9.6628125 -2.9765625 10.390625 C-3.48316406 11.18726563 -3.48316406 11.18726563 -4 12 C-4.93134261 9.47856025 -5.16007332 8.38473764 -4.109375 5.859375 C-3.43648437 4.81523438 -3.43648437 4.81523438 -2.75 3.75 C-2.31171875 3.04359375 -1.8734375 2.3371875 -1.421875 1.609375 C-0.95265625 1.07828125 -0.4834375 0.5471875 0 0 Z " fill="#535353" transform="translate(795,547)"/>
<path d="M0 0 C6.75 0.875 6.75 0.875 9 2 C9 2.66 9 3.32 9 4 C10.32 3.67 11.64 3.34 13 3 C13 3.66 13 4.32 13 5 C13.99 5.33 14.98 5.66 16 6 C9.69732561 5.63223832 4.66748157 4.83374078 -1 2 C-0.67 1.34 -0.34 0.68 0 0 Z " fill="#7E7E7E" transform="translate(609,754)"/>
<path d="M0 0 C0.66 0.33 1.32 0.66 2 1 C-2.29 5.29 -6.58 9.58 -11 14 C-11.66 13.67 -12.32 13.34 -13 13 C-9.0580583 8.11950075 -4.88049925 3.9419417 0 0 Z " fill="#4C4C4C" transform="translate(578,979)"/>
<path d="M0 0 C4.43090471 1.20842856 6.98112756 2.51668565 10 6 C9.34 6 8.68 6 8 6 C7.67 6.66 7.34 7.32 7 8 C5.82512964 7.24172908 4.66027408 6.46792245 3.5 5.6875 C2.52546875 5.04361328 2.52546875 5.04361328 1.53125 4.38671875 C1.0259375 3.92910156 0.520625 3.47148438 0 3 C0 2.01 0 1.02 0 0 Z " fill="#555555" transform="translate(685,720)"/>
<path d="M0 0 C0.99 0.33 1.98 0.66 3 1 C2.84660156 1.66386719 2.69320312 2.32773437 2.53515625 3.01171875 C1.89226979 6.60155922 1.64966009 10.17795419 1.4375 13.8125 C1.39431641 14.50537109 1.35113281 15.19824219 1.30664062 15.91210938 C1.20138547 17.60788686 1.10027137 19.30392052 1 21 C0.67 21 0.34 21 0 21 C-0.19461488 18.06281233 -0.38097593 15.12550068 -0.5625 12.1875 C-0.61857422 11.35412109 -0.67464844 10.52074219 -0.73242188 9.66210938 C-0.78076172 8.85966797 -0.82910156 8.05722656 -0.87890625 7.23046875 C-0.9260376 6.49207764 -0.97316895 5.75368652 -1.02172852 4.99291992 C-1 3 -1 3 0 0 Z " fill="#878787" transform="translate(789,557)"/>
<path d="M0 0 C0 0.33 0 0.66 0 1 C-0.61488281 1.19335938 -1.22976563 1.38671875 -1.86328125 1.5859375 C-3.07564453 1.97652344 -3.07564453 1.97652344 -4.3125 2.375 C-5.51326172 2.75785156 -5.51326172 2.75785156 -6.73828125 3.1484375 C-9.22724528 3.98831811 -9.22724528 3.98831811 -12 6 C-12.66 5.34 -13.32 4.68 -14 4 C-8.95770421 -0.21906383 -6.71250505 -1.78086869 0 0 Z " fill="#6B6B6B" transform="translate(810,542)"/>
<path d="M0 0 C0.66 0.33 1.32 0.66 2 1 C-1.3 4.3 -4.6 7.6 -8 11 C-8 7.45459812 -7.40614728 6.93992636 -5.125 4.375 C-4.59132813 3.76398438 -4.05765625 3.15296875 -3.5078125 2.5234375 C-2 1 -2 1 0 0 Z " fill="#494949" transform="translate(888,384)"/>
<path d="M0 0 C1.39195915 4.17587745 -0.17676781 6.13474776 -2 10 C-2.66 9.34 -3.32 8.68 -4 8 C-4.99 8 -5.98 8 -7 8 C-4.69 5.36 -2.38 2.72 0 0 Z " fill="#575757" transform="translate(272,346)"/>
<path d="M0 0 C-0.33 0.66 -0.66 1.32 -1 2 C-4.28519475 3.09506492 -6.73663415 3.09960608 -10.1875 3.0625 C-11.81751953 3.04896484 -11.81751953 3.04896484 -13.48046875 3.03515625 C-14.31191406 3.02355469 -15.14335938 3.01195312 -16 3 C-16 2.67 -16 2.34 -16 2 C-15.06027344 1.90912109 -15.06027344 1.90912109 -14.1015625 1.81640625 C-12.87566406 1.69072266 -12.87566406 1.69072266 -11.625 1.5625 C-10.81289063 1.48128906 -10.00078125 1.40007813 -9.1640625 1.31640625 C-0.13601322 -0.0035793 -0.13601322 -0.0035793 0 0 Z " fill="#3C3C3C" transform="translate(868,654)"/>
<path d="M0 0 C0.66 0.33 1.32 0.66 2 1 C1.67 1.33 1.34 1.66 1 2 C2.32 2.66 3.64 3.32 5 4 C1.7 4.66 -1.6 5.32 -5 6 C-5 5.34 -5 4.68 -5 4 C-3.37373596 2.61767557 -1.7074998 1.28062485 0 0 Z " fill="#6E6E6E" transform="translate(715,1143)"/>
<path d="M0 0 C1.32 1.32 2.64 2.64 4 4 C2.68 5.32 1.36 6.64 0 8 C-0.38063221 5.6739143 -0.71269945 3.33944736 -1 1 C-0.67 0.67 -0.34 0.34 0 0 Z " fill="#5B5B5A" transform="translate(597,752)"/>
<path d="M0 0 C7.75 0.75 7.75 0.75 10 3 C6.52176885 4.15941038 4.54104422 3.70820884 1 3 C0.67 2.01 0.34 1.02 0 0 Z " fill="#414141" transform="translate(820,542)"/>
<path d="M0 0 C1.31611677 0.95336021 2.62778961 1.91285774 3.9375 2.875 C4.66839844 3.40867187 5.39929688 3.94234375 6.15234375 4.4921875 C8 6 8 6 9 8 C5.56801397 6.76067171 2.69674368 5.49698489 0 3 C0 2.01 0 1.02 0 0 Z " fill="#525251" transform="translate(600,747)"/>
<path d="M0 0 C0.66 0.33 1.32 0.66 2 1 C1.01 3.64 0.02 6.28 -1 9 C-1.33 9 -1.66 9 -2 9 C-2 7.35 -2 5.7 -2 4 C-2.66 3.67 -3.32 3.34 -4 3 C-2.68 2.01 -1.36 1.02 0 0 Z " fill="#646464" transform="translate(784,548)"/>
<path d="M0 0 C0.33 0 0.66 0 1 0 C1 1.98 1 3.96 1 6 C0.01 6 -0.98 6 -2 6 C-4.15028304 6.94978897 -4.15028304 6.94978897 -6 8 C-5.02471263 6.66382648 -4.04466681 5.3311249 -3.0625 4 C-2.24458984 2.88625 -2.24458984 2.88625 -1.41015625 1.75 C-0.94480469 1.1725 -0.47945313 0.595 0 0 Z " fill="#505050" transform="translate(456,214)"/>
<path d="M0 0 C0 0.99 0 1.98 0 3 C-2 4.6875 -2 4.6875 -4 6 C-4.33 5.34 -4.66 4.68 -5 4 C-4.67 3.34 -4.34 2.68 -4 2 C-4.66 1.67 -5.32 1.34 -6 1 C-4.02 0.67 -2.04 0.34 0 0 Z " fill="#4B4B4A" transform="translate(454,210)"/>
<path d="M0 0 C1.68496298 0.96885372 3.35178756 1.96986723 5 3 C5 3.33 5 3.66 5 4 C1.37 3.67 -2.26 3.34 -6 3 C-6 2.67 -6 2.34 -6 2 C-4.02 2 -2.04 2 0 2 C0 1.34 0 0.68 0 0 Z " fill="#7D7D7D" transform="translate(557,1145)"/>
<path d="M0 0 C0.66 0.33 1.32 0.66 2 1 C-0.31 3.31 -2.62 5.62 -5 8 C-5 5 -5 5 -2.5 2.3125 C-1.675 1.549375 -0.85 0.78625 0 0 Z " fill="#535353" transform="translate(627,1015)"/>
<path d="M0 0 C0.66 0.33 1.32 0.66 2 1 C0.68 2.65 -0.64 4.3 -2 6 C-2.99 5.67 -3.98 5.34 -5 5 C-3.35 3.35 -1.7 1.7 0 0 Z " fill="#353535" transform="translate(610,725)"/>
<path d="M0 0 C0.66 0 1.32 0 2 0 C2 2.64 2 5.28 2 8 C1.34 7.01 0.68 6.02 0 5 C-0.99 5.495 -0.99 5.495 -2 6 C-1.34 4.02 -0.68 2.04 0 0 Z " fill="#7B7B7A" transform="translate(736,269)"/>
<path d="M0 0 C3 1 3 1 3 1 Z " fill="#D3D3D3" transform="translate(650,865)"/>
</svg>
