<?xml version="1.0" encoding="UTF-8"?>
<svg version="1.1" xmlns="http://www.w3.org/2000/svg" width="1017" height="1017">
<path d="M0 0 C29.82771658 0.51833315 57.48363259 10.12422496 79 31 C79.68449219 31.61101562 80.36898437 32.22203125 81.07421875 32.8515625 C101.79927298 51.98864597 108.71353698 82.16055204 112 109 C114.70823302 106.29176698 115.99485814 103.0389817 117.625 99.625 C130.54191274 73.32387324 150.24260106 53.16985621 178 43 C195.21022262 37.28345892 214.58685109 39.07327649 232 43 C232.33 43.99 232.66 44.98 233 46 C232.18660156 46.37769531 231.37320312 46.75539063 230.53515625 47.14453125 C225.0090829 49.79878695 219.6815328 52.46237407 214.6015625 55.9140625 C213.86671631 56.41317139 213.13187012 56.91228027 212.37475586 57.42651367 C210.94602608 58.41349979 209.52938211 59.41827934 208.12719727 60.44262695 C203.01143674 63.97812961 199.17067417 64.6533655 193 64 C194.32 64.66 195.64 65.32 197 66 C195.5354102 70.39376939 192.61248115 71.44198938 188.72265625 73.703125 C185.02816507 75.46291133 182.06631049 75.84939591 178 76 C178.66 77.32 179.32 78.64 180 80 C179.49662109 80.3623877 178.99324219 80.72477539 178.47460938 81.09814453 C176.14915924 82.77295887 173.82457637 84.44897315 171.5 86.125 C170.70851563 86.69476563 169.91703125 87.26453125 169.1015625 87.8515625 C168.31523437 88.41875 167.52890625 88.9859375 166.71875 89.5703125 C165.93177734 90.13766113 165.14480469 90.70500977 164.33398438 91.28955078 C161.43057356 93.41730142 158.58692596 95.61833858 155.7578125 97.84375 C153.27587604 99.47631265 150.9325021 99.85337489 148 100 C148.99 100.66 149.98 101.32 151 102 C149.6975667 104.90542812 148.29113732 106.8092961 146 109 C146.54188965 108.77860352 147.0837793 108.55720703 147.64208984 108.32910156 C176.31624588 96.72418939 205.6725139 91.35423137 235.32250977 103.4284668 C238.6051184 104.84232737 241.81087018 106.3876163 245 108 C246.05832031 108.53496094 247.11664063 109.06992187 248.20703125 109.62109375 C261.83724145 117.07036983 275.60540189 128.83400418 284 142 C284 142.99 284 143.98 284 145 C283.45400146 144.91959473 282.90800293 144.83918945 282.34545898 144.75634766 C279.71040791 144.37244018 277.07412753 143.997928 274.4375 143.625 C273.45765137 143.48416992 272.47780273 143.34333984 271.46826172 143.19824219 C266.2116567 142.47175349 260.99886937 141.89419646 255.69921875 141.6015625 C254.682229 141.5401709 253.66523926 141.4787793 252.61743164 141.41552734 C250.66872123 141.30773378 248.71833931 141.22598763 246.76733398 141.17431641 C239.55175402 140.75461824 235.87213731 138.26446621 231 133 C231.33 134.98 231.66 136.96 232 139 C229.77144426 139.0814222 227.54202345 139.13938079 225.3125 139.1875 C224.07113281 139.22230469 222.82976562 139.25710938 221.55078125 139.29296875 C215.75570889 138.81482747 212.36486949 135.61660615 208 132 C208.185625 132.804375 208.37125 133.60875 208.5625 134.4375 C208.706875 135.283125 208.85125 136.12875 209 137 C206.07947817 139.92052183 195.83328461 138.64176393 191.70141602 138.77734375 C189.8709091 138.84202026 188.04075576 138.91772123 186.21118164 139.00488281 C183.56686675 139.13047159 180.92328322 139.22114617 178.27734375 139.3046875 C177.4686937 139.34923065 176.66004364 139.3937738 175.82688904 139.43966675 C169.63139969 139.5765832 165.89569106 137.72387942 161 134 C161.185625 134.804375 161.37125 135.60875 161.5625 136.4375 C161.706875 137.283125 161.85125 138.12875 162 139 C161.67 139.33 161.34 139.66 161 140 C161.73935791 140.15557373 162.47871582 140.31114746 163.24047852 140.47143555 C197.18414089 147.66680544 230.02068353 157.89472228 250.3515625 188.44140625 C261.56018592 206.04630563 266.93617874 225.33463188 269 246 C264.54210438 245.11731983 261.78152871 242.60792854 258.375 239.75 C252.47850559 234.91120592 246.44706119 230.32243553 240.25 225.875 C239.47575684 225.3190918 238.70151367 224.76318359 237.90380859 224.19042969 C234.95955903 222.08562115 232.01172919 220.00781946 229 218 C228.05078125 215.8359375 228.05078125 215.8359375 227.3125 213.375 C227.06113281 212.55773437 226.80976563 211.74046875 226.55078125 210.8984375 C226.27814453 209.95871094 226.27814453 209.95871094 226 209 C225.34 210.65 224.68 212.3 224 214 C217.43570747 211.62491961 210.05597092 207.7683093 206.62109375 201.47265625 C205.91447189 199.3118271 205.35827648 197.24312233 205 195 C204.34 196.65 203.68 198.3 203 200 C198.35917543 199.42651407 194.83134498 197.399937 190.875 195.0625 C186.27054306 192.3772911 181.66105318 189.79567088 176.8671875 187.4609375 C176.01527832 187.0393335 175.16336914 186.61772949 174.28564453 186.18334961 C172.63181869 185.37076793 170.96891422 184.57633526 169.29638672 183.80297852 C163.4131596 180.87503243 161.40790361 178.11685192 159 172 C158.67 172 158.34 172 158 172 C157.01 174.97 157.01 174.97 156 178 C153.36 177.01 150.72 176.02 148 175 C148.76183594 175.68964844 149.52367187 176.37929688 150.30859375 177.08984375 C176.03668233 200.45694275 196.0899352 226.7857156 197.99584961 262.7824707 C198.57553117 283.12228635 192.93835587 302.28885804 184.375 320.5 C183.89546875 321.52270996 183.4159375 322.54541992 182.921875 323.59912109 C182.46039063 324.54609863 181.99890625 325.49307617 181.5234375 326.46875 C181.11013184 327.31888672 180.69682617 328.16902344 180.27099609 329.04492188 C179 331 179 331 176 332 C175.75354736 331.07888428 175.50709473 330.15776855 175.25317383 329.20874023 C174.3165086 325.71287067 173.37378528 322.21865642 172.42944336 318.72485352 C172.02550685 317.22723533 171.62310351 315.72920258 171.22241211 314.23071289 C170.63822521 312.04715858 170.04917214 309.86500406 169.45703125 307.68359375 C169.26127502 306.96068649 169.0655188 306.23777924 168.86383057 305.4929657 C167.86408402 301.87312131 166.78924093 298.30640617 165.54394531 294.76293945 C165.18933479 293.75210045 165.18933479 293.75210045 164.82756042 292.72084045 C164.17093823 290.8832534 163.49351094 289.05313845 162.81469727 287.22363281 C161.53483872 282.15942775 162.91170841 278.60652557 165 274 C165.36065446 272.67379593 165.70314068 271.34192527 166 270 C164.824375 271.2375 164.824375 271.2375 163.625 272.5 C161 275 161 275 159 275 C154.97818125 265.74564198 153.08605836 260.20248793 156.5625 250.5625 C157.036875 249.386875 157.51125 248.21125 158 247 C157.2575 247.845625 156.515 248.69125 155.75 249.5625 C153 252 153 252 150.97387695 251.94213867 C148.20370864 250.61992723 147.81384662 249.181352 146.66796875 246.36328125 C146.26497559 245.39970703 145.86198242 244.43613281 145.44677734 243.44335938 C145.03121582 242.41017578 144.6156543 241.37699219 144.1875 240.3125 C143.31201379 238.20300444 142.43310905 236.09492438 141.55078125 233.98828125 C140.90616943 232.44648193 140.90616943 232.44648193 140.24853516 230.87353516 C138.1650596 226.0783636 135.71015746 221.50867154 133.1796875 216.9375 C131.31887912 212.3039639 131.4852661 207.73354344 133 203 C130.03 203.99 130.03 203.99 127 205 C123.16636185 199.51092719 119.74170054 193.86747577 116.47265625 188.02587891 C112.61018401 181.19213456 108.41437251 174.5640806 104.21655273 167.93261719 C103.67071533 167.06282227 103.12487793 166.19302734 102.5625 165.296875 C102.06878906 164.51666992 101.57507813 163.73646484 101.06640625 162.93261719 C100 161 100 161 100 159 C99.34 159 98.68 159 98 159 C97.76023437 159.68964844 97.52046875 160.37929688 97.2734375 161.08984375 C95.76535123 164.53623723 93.75896547 167.48661481 91.625 170.5625 C85.349485 179.80338096 79.62772161 189.35411575 74 199 C73.566875 199.74088867 73.13375 200.48177734 72.6875 201.24511719 C40.59166591 256.53520638 21.70727768 319.42411003 16 383 C15.92942383 383.75152344 15.85884766 384.50304687 15.78613281 385.27734375 C12.55434338 421.45970588 15.3876412 458.02082897 21.45922852 493.7121582 C22.02226485 497.1353683 22.5206005 500.5641675 23 504 C13.59556397 507.95346393 4.13660685 511.75648714 -5.34765625 515.51367188 C-6.40855469 515.93583984 -7.46945313 516.35800781 -8.5625 516.79296875 C-9.51253906 517.1696167 -10.46257812 517.54626465 -11.44140625 517.93432617 C-13.96500981 518.91562105 -13.96500981 518.91562105 -16.02734375 520.20043945 C-18.65190778 521.26423242 -20.32238029 520.74378325 -23 520 C-25.03732996 504.00418077 -26.6717135 488.12707455 -27 472 C-27.02191406 470.98953613 -27.04382813 469.97907227 -27.06640625 468.93798828 C-28.74887183 377.5100047 -3.27813861 287.6180687 84 159 C72.72288164 162.41902583 61.88819776 166.81272831 51.01831055 171.34106445 C49.88176025 171.8124585 48.74520996 172.28385254 47.57421875 172.76953125 C46.54901123 173.19854736 45.52380371 173.62756348 44.4675293 174.06958008 C42 175 42 175 40 175 C39.34 173.02 38.68 171.04 38 169 C37.79930908 169.56557617 37.59861816 170.13115234 37.3918457 170.71386719 C33.72843685 179.02327497 27.02299059 181.70797003 19.1875 185.25 C17.30769253 186.12829253 15.43164811 187.01418466 13.556427 187.90222168 C11.771445 188.7462494 9.98219985 189.58124251 8.19287109 190.41601562 C5.41519354 191.79402235 2.88059405 193.27354557 0.30078125 194.984375 C-1.33310547 195.98210937 -1.33310547 195.98210937 -3 197 C-3.99 196.67 -4.98 196.34 -6 196 C-7.1875 192.9375 -7.1875 192.9375 -8 190 C-8.08121094 191.03447266 -8.08121094 191.03447266 -8.1640625 192.08984375 C-8.97708778 197.11268635 -10.08794623 200.58080304 -14.17578125 203.734375 C-23.37541617 210 -23.37541617 210 -29 210 C-29.33 208.02 -29.66 206.04 -30 204 C-30.18433594 204.71285156 -30.36867187 205.42570313 -30.55859375 206.16015625 C-32.98760376 214.18128707 -36.11634999 217.48934615 -43 222 C-45.25508436 223.59757784 -47.50431939 225.20187095 -49.75 226.8125 C-50.33990723 227.23088135 -50.92981445 227.6492627 -51.53759766 228.08032227 C-55.84061808 231.13687435 -60.06636261 234.28213468 -64.25 237.5 C-64.79881836 237.92128174 -65.34763672 238.34256348 -65.91308594 238.77661133 C-68.05662391 240.43591633 -70.08095346 242.08095346 -72 244 C-72.99 244 -73.98 244 -75 244 C-74.38124626 215.81857987 -60.77621267 188.58068515 -41 169 C-40.14921875 168.12730469 -39.2984375 167.25460937 -38.421875 166.35546875 C-12.70298864 141.29110494 26.7153846 136 61 136 C53.08 132.535 53.08 132.535 45 129 C45.33 127.02 45.66 125.04 46 123 C42.97467554 122.87542812 42.97467554 122.87542812 40.0390625 123.76171875 C34.44497387 124.58748485 29.45218241 121.88325296 24.375 119.8125 C22.23693433 118.96946069 20.09761748 118.12958733 17.95703125 117.29296875 C16.42103271 116.6904126 16.42103271 116.6904126 14.85400391 116.07568359 C10.34210644 114.37513439 5.76297743 113.06860281 1.09765625 111.8515625 C0.40542969 111.57054687 -0.28679687 111.28953125 -1 111 C-2.2077558 107.37673261 -1.54311128 106.35853631 0 103 C-0.42925781 103.40734375 -0.85851562 103.8146875 -1.30078125 104.234375 C-4.51372745 106.65500243 -7.15653177 108.12533384 -11.29101562 107.84423828 C-16.95161918 106.9454704 -22.47609554 105.51162798 -28 104 C-28 101 -28 101 -27 98 C-28.11375 98.680625 -29.2275 99.36125 -30.375 100.0625 C-33.61422292 101.65983369 -35.72723662 102.23047578 -39.30859375 101.77734375 C-40.18161133 101.6683374 -41.05462891 101.55933105 -41.95410156 101.44702148 C-48.20955735 100.52895964 -54.45023359 99.53281081 -60.6875 98.5 C-62.75937779 98.15956992 -64.83139746 97.82002421 -66.90351868 97.4810791 C-68.77537128 97.17448765 -70.6468532 96.86563553 -72.51831055 96.55664062 C-76.00736746 95.99882212 -79.50081256 95.48985828 -83 95 C-83 94.01 -83 93.02 -83 92 C-81.11193208 90.42864025 -79.29317436 89.09155924 -77.25 87.75 C-76.65872314 87.35449951 -76.06744629 86.95899902 -75.45825195 86.55151367 C-73.64817714 85.35260785 -71.82639435 84.17385929 -70 83 C-69.01902344 82.36191406 -68.03804687 81.72382813 -67.02734375 81.06640625 C-44.97028005 67.44381808 -16.84612118 61.93985287 8.5625 67.6875 C32.80823297 73.62301237 54.00521472 86.94888339 72 104 C73.53531536 105.36136337 75.07658634 106.71605334 76.625 108.0625 C77.27726563 108.63097656 77.92953125 109.19945312 78.6015625 109.78515625 C79.06304687 110.18605469 79.52453125 110.58695312 80 111 C78.84442853 107.53328558 77.07781224 104.95774748 75.05859375 101.9375 C74 100 74 100 74 97 C76.475 96.01 76.475 96.01 79 95 C78.42064697 94.81638916 77.84129395 94.63277832 77.24438477 94.44360352 C70.24548655 91.84818177 67.51903298 88.32121645 63.9375 81.9375 C62.92372987 80.2259907 61.9068068 78.516345 60.88671875 76.80859375 C60.15654541 75.57085205 60.15654541 75.57085205 59.41162109 74.30810547 C56.98517819 70.34069087 54.1838623 66.69959548 51.328125 63.03125 C50 61 50 61 50 58 C51.98 57.01 51.98 57.01 54 56 C53.43152344 55.86464844 52.86304688 55.72929687 52.27734375 55.58984375 C43.41282981 53.11843502 38.67806712 47.67203008 34 40 C35.32 39.01 36.64 38.02 38 37 C37.14728516 36.79697266 37.14728516 36.79697266 36.27734375 36.58984375 C29.80257316 34.78469068 26.3315053 32.043255 22 27 C21.20722656 26.1028125 21.20722656 26.1028125 20.3984375 25.1875 C19.26866496 23.90245067 18.14526668 22.61177727 17.02734375 21.31640625 C14.49562786 18.42371353 11.90933507 15.58420337 9.3125 12.75 C8.84875977 12.24251221 8.38501953 11.73502441 7.90722656 11.2121582 C5.88419982 9.00816597 3.85819848 6.86793695 1.66796875 4.828125 C0 3 0 3 0 0 Z " fill="#232322" transform="translate(227,234)"/>
<path d="M0 0 C10.13604487 0.21566053 16.79915032 8.58695441 23.73828125 15.1796875 C25.9706962 16.97641525 27.17927608 17.7266515 30 18 C31.60572381 17.49821131 33.21135949 16.99613766 34.81640625 16.4921875 C42.0948323 14.85161204 50.54208345 15.00164151 57 19 C60.56046226 21.78717436 63.80174157 24.80711679 67 28 C67.59167969 28.58007812 68.18335938 29.16015625 68.79296875 29.7578125 C75.78288572 37.19695293 79.4522047 47.14717383 79.34765625 57.2734375 C78.57207059 63.35612053 75.51384889 68.67055652 71.125 72.875 C67.82093314 77.73392186 69.08465845 82.39919726 70 88 C70.51949219 87.54109375 71.03898437 87.0821875 71.57421875 86.609375 C83.50833844 76.10911442 83.50833844 76.10911442 87 76 C89.77285967 77.2543889 91.53104729 78.38183507 93.375 80.8125 C94 83 94 83 93.51907349 85.38414001 C92.76562929 90.63262369 93.09349215 95.75456494 93.31982422 101.04125977 C93.36807783 102.26470124 93.41633144 103.48814272 93.46604729 104.74865818 C94.0714868 119.58888231 94.8435857 134.421578 95.6178627 149.25376701 C95.88965722 154.46178785 96.15708914 159.6700277 96.42379761 164.87831116 C97.18137573 179.66206902 97.94271854 194.44562691 98.71240234 209.22875977 C99.14038581 217.44963512 99.56392294 225.670727 99.98249519 233.89208704 C100.24623887 239.06761356 100.51542531 244.24281857 100.78867745 249.41785133 C100.95650329 252.62131831 101.11909915 255.82503466 101.28018951 259.02884674 C101.35581303 260.51204937 101.43358207 261.9951444 101.51366043 263.47811317 C101.62264107 265.5020687 101.72316887 267.52647408 101.82327271 269.55088806 C101.91119929 271.24820525 101.91119929 271.24820525 102.00090218 272.97981167 C102.00005479 275.81657631 101.66975137 278.25186465 101 281 C91.89656033 279.44369123 82.8898847 277.49337663 73.875 275.5 C71.76413982 275.03560108 69.65317415 274.57171758 67.54180908 274.10961914 C66.1872641 273.80999852 64.83398388 273.50459515 63.4821167 273.19311523 C60.71456895 272.55974523 58.00432218 272.00047908 55.18066406 271.6875 C51.82549742 271.28771184 49.78289302 270.97242685 47.61035156 268.27392578 C46.18815109 265.57793334 45.0994673 262.84392126 44 260 C43.44795204 258.69809886 42.8906364 257.39842342 42.32910156 256.10058594 C40.37052207 251.5483554 38.49037 246.96609409 36.625 242.375 C36.29162628 241.55696899 35.95825256 240.73893799 35.61477661 239.89611816 C30.4948734 227.28148457 26.24120037 214.65962802 22.703125 201.50732422 C19.54250809 190.23665213 15.1487055 179.49824704 10 169 C4.15505259 173.6598498 -1.53015804 178.40859166 -7 183.5 C-11.63106223 187.80881686 -16.41804842 191.84867312 -21.34765625 195.81640625 C-23.99267637 197.99397068 -26.53212525 200.25318763 -29.0625 202.5625 C-32.94203196 206.09044938 -36.93190216 209.40045579 -41.046875 212.6484375 C-44.83433487 215.66437777 -48.57516222 218.73478955 -52.3125 221.8125 C-53.04839355 222.41835938 -53.78428711 223.02421875 -54.54248047 223.6484375 C-58.95659465 227.29103029 -63.33486391 230.97181857 -67.6875 234.6875 C-74.30041107 240.32639219 -81.12101321 245.69053431 -88 251 C-88.58920227 251.53632553 -89.17840454 252.07265106 -89.78546143 252.62522888 C-92.78940742 254.49005899 -94.90615304 254.34773706 -98.42871094 254.30883789 C-99.74223038 254.30225159 -101.05574982 254.29566528 -102.40907288 254.28887939 C-103.85084151 254.26688735 -105.29260885 254.24481054 -106.734375 254.22265625 C-108.23403319 254.21114159 -109.73370439 254.20122418 -111.23338318 254.19281006 C-114.4183447 254.17298988 -117.60309195 254.14523598 -120.78793335 254.11123657 C-129.05761445 254.02546052 -137.32759506 254.00384565 -145.59765625 253.984375 C-146.816958 253.9810337 -146.816958 253.9810337 -148.06089211 253.97762489 C-166.03524304 253.93444387 -183.91315085 254.5339872 -201.840271 255.84503174 C-204.03836459 256.0027528 -206.23696004 256.14913451 -208.43603516 256.29248047 C-257.90289202 259.54106023 -307.18276256 266.88827757 -355.93554688 275.72827148 C-363.60883274 277.1129687 -371.21708485 278.39466215 -379 279 C-379.33 278.34 -379.66 277.68 -380 277 C-381.14855469 277.01160156 -382.29710937 277.02320313 -383.48046875 277.03515625 C-419.86595808 277.30255204 -419.86595808 277.30255204 -429.76171875 267.65234375 C-431.8623399 264.84930669 -432.46813399 262.45712909 -433 259 C-432.67 258.34 -432.34 257.68 -432 257 C-429.83203125 256.5078125 -429.83203125 256.5078125 -426.8125 256.125 C-411.20006013 253.91180797 -395.87330271 251.35767589 -381 246 C-379.94683594 245.62101563 -378.89367187 245.24203125 -377.80859375 244.8515625 C-365.42107108 240.03867886 -355.00099918 232.63044163 -345 224 C-343.86360658 223.0256621 -342.72687136 222.05172274 -341.58984375 221.078125 C-339.78882243 219.53474465 -337.98875932 217.99031787 -336.19165039 216.44238281 C-331.79919756 212.66317958 -327.33231857 208.98624376 -322.83203125 205.3359375 C-319.57328113 202.6480305 -316.38115255 199.88954946 -313.1875 197.125 C-307.99602313 192.63783728 -302.6832815 188.35352276 -297.25952148 184.15161133 C-292.9850135 180.82140876 -288.84781116 177.35729044 -284.75 173.8125 C-254.76709637 147.88746393 -254.76709637 147.88746393 -239 149 C-234.70634995 149.70674357 -230.56448845 150.76977816 -226.375 151.9375 C-225.20533691 152.25468994 -224.03567383 152.57187988 -222.83056641 152.89868164 C-200.57190167 159.05479405 -179.15297522 167.10982072 -157.73388672 175.67944336 C-156.8698674 176.02289291 -156.00584808 176.36634247 -155.11564636 176.72019958 C-153.48883579 177.36734597 -151.86395033 178.01936143 -150.2414093 178.67713928 C-143.24184114 181.72407639 -143.24184114 181.72407639 -135.92382812 181.27832031 C-135.29927734 180.88225586 -134.67472656 180.48619141 -134.03125 180.078125 C-133.30607178 179.63509033 -132.58089355 179.19205566 -131.83374023 178.7355957 C-131.06360596 178.24534912 -130.29347168 177.75510254 -129.5 177.25 C-122.31106789 172.85656652 -115.02870781 168.96442377 -107.4375 165.3125 C-99.83573783 161.59423262 -93.20279831 157.83474396 -87 152 C-85.95410637 151.0768336 -84.90574862 150.15645438 -83.85546875 149.23828125 C-82.75638437 148.26463057 -81.65871332 147.28938202 -80.5625 146.3125 C-80.05315918 145.86068359 -79.54381836 145.40886719 -79.01904297 144.94335938 C-73.98033608 140.32976692 -71.85287423 136.08622411 -70.0625 129.5625 C-67.8272789 122.08083542 -64.84779774 116.2011581 -58 112 C-49.10492054 108.20817477 -39.64150356 105.6827907 -30.3894043 102.92724609 C-23.22083396 100.78663769 -16.6049918 98.51414316 -10 95 C-9.34 95 -8.68 95 -8 95 C-6.38032003 91.3287254 -5.21209652 88.02478391 -5 84 C-6.75466964 81.43611014 -6.75466964 81.43611014 -9.3125 79.3125 C-11.96104366 76.90511102 -14.0053477 74.99197845 -16 72 C-16.134777 64.85681891 -12.89347628 59.54185194 -9.49609375 53.46484375 C-7.86430234 49.68573414 -7.71476971 47.07101411 -8 43 C-6.3962669 42.35309078 -4.79199694 41.70751236 -3.1875 41.0625 C-1.84751953 40.52302734 -1.84751953 40.52302734 -0.48046875 39.97265625 C1.3270909 39.26386514 3.15807409 38.6139753 5 38 C6.83963416 35.13834686 7.71099395 32.37805435 8 29 C6.9913037 26.58086303 5.96094553 24.454442 4.6875 22.1875 C0.63577963 14.5217328 -1.80945701 8.68539363 0 0 Z M43.0625 91.8125 C41.85722656 92.33457031 40.65195312 92.85664062 39.41015625 93.39453125 C36.47104272 94.77823762 33.74305336 96.2667234 31 98 C31.6099126 102.98844309 32.63474435 107.60155346 34.0625 112.4375 C34.60583984 114.29181641 34.60583984 114.29181641 35.16015625 116.18359375 C35.57587891 117.57771484 35.57587891 117.57771484 36 119 C45.08858753 112.58452645 53.19943121 104.91416931 61 97 C59.93119777 95.65499045 58.84437492 94.32428562 57.75 93 C57.14671875 92.2575 56.5434375 91.515 55.921875 90.75 C51.82856178 87.02275544 47.46367707 89.88199437 43.0625 91.8125 Z M73.99609375 109.94140625 C73.15175781 110.80636719 72.30742188 111.67132812 71.4375 112.5625 C67.82847635 116.20720608 64.16948862 119.68019749 60.2734375 123.01171875 C56.65949801 126.17236342 53.16115849 129.4583821 49.6550293 132.73779297 C49.12562744 133.23037598 48.59622559 133.72295898 48.05078125 134.23046875 C47.28435303 134.95242432 47.28435303 134.95242432 46.50244141 135.68896484 C45 137 45 137 42.10546875 138.86328125 C39.68298925 140.89796154 39.68298925 140.89796154 39.53515625 144.27734375 C39.9875884 151.08887416 41.26882048 157.84330428 42.4375 164.5625 C42.63232468 165.69872803 42.63232468 165.69872803 42.83108521 166.85791016 C45.24103252 180.81953466 48.31844103 194.58594345 51.59350586 208.36645508 C54.65592943 221.28128126 57.34843564 234.24693835 59.88061523 247.27539062 C60.01749252 247.97774841 60.15436981 248.6801062 60.2953949 249.40374756 C60.66196222 251.29043448 61.02449201 253.17790461 61.38671875 255.06542969 C61.9498087 258.04188027 61.9498087 258.04188027 63 261 C65.32428887 261.92971555 67.54204111 262.68458536 69.9375 263.375 C74.61851052 264.74129701 78.90675771 266.37720731 83.26391602 268.59228516 C84.15393814 269.04302399 85.04396027 269.49376282 85.96095276 269.9581604 C86.97028114 270.473871 86.97028114 270.473871 88 271 C87.95774292 270.37268982 87.91548584 269.74537964 87.87194824 269.09906006 C86.74891834 252.39886265 85.6517553 235.69705077 84.56588745 218.99440002 C84.34170472 215.54667048 84.11729931 212.09895551 83.89282227 208.65124512 C83.81734665 207.49196251 83.74187103 206.3326799 83.66410828 205.13826752 C83.50990605 202.76978282 83.35570071 200.40129832 83.20149231 198.03281403 C82.8108581 192.03152514 82.42077476 186.03020128 82.03173828 180.02880859 C81.6482188 174.11316028 81.26316211 168.19761364 80.87715149 162.28212738 C80.7331182 160.07078312 80.58960945 157.85940461 80.44670105 155.64798737 C79.41930833 139.7553454 78.25394761 123.87637306 77 108 C75.65468518 107.88403037 75.65468518 107.88403037 73.99609375 109.94140625 Z M-244 191 C-245.6446674 193.46326712 -245.6446674 193.46326712 -247 196 C-243.37 196 -239.74 196 -236 196 C-236 195.34 -236 194.68 -236 194 C-239.80427492 191.7986134 -239.80427492 191.7986134 -244 191 Z M-272.21875 237.7734375 C-273.39824219 238.3509375 -274.57773437 238.9284375 -275.79296875 239.5234375 C-277.02884304 240.14023001 -278.26451843 240.75742122 -279.5 241.375 C-281.92554406 242.57345922 -284.3534935 243.76695889 -286.78125 244.9609375 C-287.85439453 245.49509277 -288.92753906 246.02924805 -290.03320312 246.57958984 C-292.65714018 247.83584937 -295.28501925 248.95833648 -298 250 C-294.52345234 251.15884922 -292.56269976 250.86623201 -288.93969727 250.41088867 C-287.69152725 250.25710251 -286.44335724 250.10331635 -285.15736389 249.94487 C-283.79366474 249.76959849 -282.43001326 249.59395567 -281.06640625 249.41796875 C-279.66784904 249.24158671 -278.2692429 249.0655922 -276.87059021 248.88996887 C-273.93877498 248.52021269 -271.00764762 248.14548931 -268.0769043 247.76733398 C-264.32432987 247.28357987 -260.57028878 246.81254374 -256.81562901 246.34528637 C-253.92645157 245.98423757 -251.03819299 245.61622968 -248.15015984 245.24614906 C-246.76657731 245.06974114 -245.38271189 244.89553724 -243.99856758 244.72359276 C-242.06137883 244.48192435 -240.12549912 244.22983214 -238.18969727 243.97729492 C-236.53781151 243.76625374 -236.53781151 243.76625374 -234.85255432 243.5509491 C-232.20850216 243.0402706 -230.31251587 242.34598359 -228 241 C-232.60711552 240.13981192 -237.21526763 239.28549707 -241.82446289 238.43652344 C-243.39116536 238.14710676 -244.95757656 237.85610859 -246.52368164 237.56347656 C-248.77935627 237.14228359 -251.03602926 236.72685478 -253.29296875 236.3125 C-253.98899704 236.18125732 -254.68502533 236.05001465 -255.40214539 235.91479492 C-262.22688108 234.67322419 -265.94596744 234.66436014 -272.21875 237.7734375 Z " fill="#20201F" transform="translate(687,440)"/>
<path d="M0 0 C0.66837891 0.45874512 1.33675781 0.91749023 2.02539062 1.39013672 C22.80699085 15.7283063 41.76375609 31.5505991 60 49 C60.88945313 49.84691406 61.77890625 50.69382812 62.6953125 51.56640625 C67.37830007 56.12701609 71.54907034 60.96521453 75.62890625 66.0703125 C77.6824712 68.60766622 79.79400876 71.07891533 81.93823242 73.53955078 C88.36568907 80.95470507 94.03241355 88.81456184 99.56982422 96.90966797 C100.91407174 98.87440803 102.27075555 100.83001624 103.62890625 102.78515625 C113.44739401 117.06296106 121.53237014 132.3835591 129 148 C129.52327881 149.0842627 129.52327881 149.0842627 130.05712891 150.19042969 C151.00430683 193.92836293 163.98116176 243.68580177 164.203125 292.34375 C164.21018463 293.38307175 164.21724426 294.42239349 164.22451782 295.49320984 C164.45275018 338.97268987 164.45275018 338.97268987 161 360 C160.69400879 361.90869873 160.69400879 361.90869873 160.38183594 363.85595703 C157.49276344 381.60395737 153.60697097 398.89185073 148 416 C147.52409424 417.46687256 147.52409424 417.46687256 147.03857422 418.96337891 C141.14202141 436.97621662 133.66598771 453.7877534 125.25 470.75 C124.69481689 471.86995361 124.13963379 472.98990723 123.56762695 474.14379883 C120.97116217 479.31513373 118.38491325 484.30055733 115 489 C112.36 488.67 109.72 488.34 107 488 C105.86888788 485.22284174 105.94943996 484.13364695 107.02880859 481.28051758 C107.56328613 480.24564209 108.09776367 479.2107666 108.6484375 478.14453125 C109.53184814 476.39450806 109.53184814 476.39450806 110.43310547 474.60913086 C110.75003357 473.99101532 111.06696167 473.37289978 111.39349365 472.73605347 C133.84096021 428.74356966 144.70166092 379.25032916 146 330 C146.02191406 329.27425781 146.04382813 328.54851562 146.06640625 327.80078125 C147.19693906 285.21737884 139.35049312 243.28061453 126 203 C125.72075684 202.15421387 125.44151367 201.30842773 125.15380859 200.43701172 C115.52373279 171.74704277 101.22897825 144.7988385 84 120 C83.14709194 118.7526339 82.29422535 117.50523943 81.44140625 116.2578125 C75.88541367 108.22292455 69.76006173 100.79652562 63.29980469 93.47460938 C61.66509753 91.62005806 60.05334898 89.74598302 58.4375 87.875 C48.25755853 76.31137716 37.85199084 64.88303107 26 55 C25.46697266 54.55317871 24.93394531 54.10635742 24.38476562 53.64599609 C-31.81675107 6.69494525 -98.25128878 -20.63147283 -171 -28 C-172.22976563 -28.13277344 -173.45953125 -28.26554687 -174.7265625 -28.40234375 C-241.29381877 -34.43138805 -317.85639512 -17.53040688 -373.7175293 19.98730469 C-376.60260698 21.26736696 -378.03673443 20.96542316 -381 20 C-383.10546875 18.36328125 -383.10546875 18.36328125 -385.1875 16.3125 C-389.19185598 12.55083226 -393.28792438 9.89576011 -398.12890625 7.32421875 C-398.74636719 6.88722656 -399.36382812 6.45023437 -400 6 C-400 5.01 -400 4.02 -400 3 C-397.68169921 1.21381925 -395.4148502 -0.33486887 -392.9375 -1.875 C-391.79498779 -2.59465942 -391.79498779 -2.59465942 -390.62939453 -3.32885742 C-388.0979541 -4.90587434 -385.55206135 -6.45659467 -383 -8 C-382.15421387 -8.5141748 -381.30842773 -9.02834961 -380.43701172 -9.55810547 C-334.57513328 -37.15800637 -282.32388113 -53.61803306 -229 -58 C-228.32936523 -58.05784668 -227.65873047 -58.11569336 -226.96777344 -58.17529297 C-148.6741775 -64.69653415 -65.01946578 -44.66945066 0 0 Z " fill="#272726" transform="translate(692,236)"/>
<path d="M0 0 C1.1844017 -0.00088371 1.1844017 -0.00088371 2.39273071 -0.00178528 C31.32854473 -0.01697286 60.08855416 0.87006544 88.9375 3.25 C89.80632812 3.32025391 90.67515625 3.39050781 91.5703125 3.46289062 C162.40623976 9.22234672 232.52270278 21.43527792 299.9375 44.25 C301.62093506 44.81533447 301.62093506 44.81533447 303.33837891 45.39208984 C316.33130037 49.79416036 329.034296 54.83866955 341.6875 60.125 C342.36647339 60.40817078 343.04544678 60.69134155 343.74499512 60.98309326 C345.68121101 61.7933979 347.61458226 62.61007714 349.546875 63.4296875 C350.66030273 63.90132324 351.77373047 64.37295898 352.92089844 64.85888672 C355.74900744 66.16307619 358.37300819 67.48132329 360.9375 69.25 C360.9375 69.91 360.9375 70.57 360.9375 71.25 C355.36243458 69.73748393 349.79160097 68.2110815 344.22773743 66.6578064 C267.19695583 45.18975139 187.70102639 31.87733433 107.9375 26.25 C107.25270569 26.20121704 106.56791138 26.15243408 105.86236572 26.10217285 C50.27707898 22.16483437 -5.43163139 22.27603403 -61.0625 25.25 C-61.95144958 25.29620483 -62.84039917 25.34240967 -63.75628662 25.39001465 C-162.08032508 30.52972735 -262.65896746 47.29570309 -384.92198181 86.89039612 C-389.60853303 88.46280361 -394.29687069 89.93564968 -399.0625 91.25 C-397.74346261 87.29288784 -396.28756482 86.99601961 -392.6484375 85.0625 C-391.50721436 84.45188721 -390.36599121 83.84127441 -389.19018555 83.2121582 C-387.93974197 82.55724248 -386.6888346 81.90321164 -385.4375 81.25 C-384.15074843 80.57195188 -382.86404645 79.89380965 -381.57739258 79.21557617 C-377.74987266 77.20594635 -373.90878217 75.22343771 -370.0625 73.25 C-369.04623535 72.72744629 -368.0299707 72.20489258 -366.98291016 71.66650391 C-297.78408697 36.45924042 -218.39210967 19.71607402 -142.0625 9.25 C-140.922435 9.09334869 -140.922435 9.09334869 -139.75933838 8.93353271 C-111.33514306 5.06414244 -82.67480775 3.13702159 -54.0625 1.25 C-52.82293045 1.16567719 -52.82293045 1.16567719 -51.55831909 1.07965088 C-34.39533522 -0.05880729 -17.19290368 0.0058879 0 0 Z " fill="#2A2A2A" transform="translate(550.0625,706.75)"/>
<path d="M0 0 C8.73932638 1.36051784 17.36612338 3.08419898 26 5 C26 9.23265163 25.65420138 10.00895456 23.40234375 13.34375 C22.85175293 14.17221436 22.30116211 15.00067871 21.73388672 15.85424805 C20.84467529 17.16389526 20.84467529 17.16389526 19.9375 18.5 C16.16774006 24.13036456 12.53206669 29.69140037 9.375 35.6875 C6.41323675 40.87963753 2.79730795 43.94889212 -1.91015625 47.55859375 C-26.32744007 66.85164354 -39.86991072 96.56134931 -43.73046875 127.12109375 C-44.30580726 135.40096542 -44.15434034 143.70598773 -44 152 C-43.37351563 151.566875 -42.74703125 151.13375 -42.1015625 150.6875 C-41.28429687 150.130625 -40.46703125 149.57375 -39.625 149 C-38.81289062 148.443125 -38.00078125 147.88625 -37.1640625 147.3125 C-35 146 -35 146 -33 146 C-33.44419167 152.45964583 -33.95239662 158.89419152 -34.75390625 165.3203125 C-43.46619488 236.9241039 -31.47982133 311.24343281 2.3046875 375.265625 C4.66402303 379.94178551 5.71472178 383.04093263 5.375 388.25 C5.32085937 389.34828125 5.26671875 390.4465625 5.2109375 391.578125 C5.14132813 392.37734375 5.07171875 393.1765625 5 394 C3.68 394 2.36 394 1 394 C0.68885254 393.42781738 0.37770508 392.85563477 0.05712891 392.26611328 C-0.88070516 390.5422194 -1.81906832 388.81861329 -2.7578125 387.09521484 C-3.85039868 385.08851142 -4.94150742 383.08100297 -6.03125 381.07275391 C-8.50538907 376.52364646 -10.98529702 371.98482203 -13.6015625 367.515625 C-34.86887271 331.01139224 -46.401034 289.47492198 -53 248 C-53.16661133 246.97181152 -53.33322266 245.94362305 -53.50488281 244.88427734 C-66.49253098 160.62590149 -44.60222711 71.83476247 0 0 Z " fill="#30302F" transform="translate(186,345)"/>
<path d="M0 0 C8.73673107 1.37953146 17.36493441 3.08393515 26 5 C26 9.23265163 25.65420138 10.00895456 23.40234375 13.34375 C22.85175293 14.17221436 22.30116211 15.00067871 21.73388672 15.85424805 C21.1410791 16.72734619 20.54827148 17.60044434 19.9375 18.5 C16.16774006 24.13036456 12.53206669 29.69140037 9.375 35.6875 C6.41323675 40.87963753 2.79730795 43.94889212 -1.91015625 47.55859375 C-17.45665604 59.84249055 -28.13230565 75.10268328 -34.72045898 93.7824707 C-35.46484375 95.81640625 -35.46484375 95.81640625 -37 99 C-39.19140625 99.96484375 -39.19140625 99.96484375 -41 100 C-39.84585304 89.80503521 -38.06701195 80.24913492 -34.4375 70.625 C-34.08381348 69.67584717 -33.73012695 68.72669434 -33.36572266 67.7487793 C-27.68844548 52.69539284 -21.25599225 38.17225901 -13.875 23.875 C-13.30120605 22.7610083 -12.72741211 21.6470166 -12.13623047 20.49926758 C-8.43112946 13.42777222 -4.397719 6.66235279 0 0 Z " fill="#2E2E2E" transform="translate(186,345)"/>
<path d="M0 0 C4.84081555 0.82742374 6.71066345 3.9954162 9.5 7.75 C10.44784143 8.99484896 11.39575683 10.23964159 12.34375 11.484375 C13.01664062 12.38289185 13.01664062 12.38289185 13.703125 13.29956055 C14.87583278 14.83719414 16.10677922 16.3299797 17.34375 17.81640625 C19 20 19 20 19 22.1875 C17.68059288 24.5789254 16.53851282 25.05315921 14 26 C11.94458008 25.70800781 11.94458008 25.70800781 9.76953125 24.953125 C8.96580078 24.685 8.16207031 24.416875 7.33398438 24.140625 C6.50189453 23.84671875 5.66980469 23.5528125 4.8125 23.25 C-1.42397456 21.1134758 -7.53640163 19.32520007 -14 18 C-14 14 -14 14 -12.20703125 12.0703125 C-11.41683594 11.42835938 -10.62664062 10.78640625 -9.8125 10.125 C-6.07494377 6.97696368 -2.98828211 3.85584789 0 0 Z " fill="#303030" transform="translate(246,273)"/>
<path d="M0 0 C1.45606519 4.52092968 0.27032841 7.51648796 -1 12 C-0.01 11.67 0.98 11.34 2 11 C0.65679601 17.85824155 -0.79619181 24.68653944 -2.31640625 31.5078125 C-3.8010029 39.09198052 -4.13159718 46.29300739 -4.0625 54 C-4.05798828 54.96550781 -4.05347656 55.93101562 -4.04882812 56.92578125 C-4.03715417 59.28392089 -4.02078021 61.64192602 -4 64 C-3.34 64.33 -2.68 64.66 -2 65 C-3.98 65.495 -3.98 65.495 -6 66 C-6 55.11 -6 44.22 -6 33 C-8.97 47.355 -8.97 47.355 -12 62 C-12.33 62 -12.66 62 -13 62 C-13.38939774 54.52727196 -11.93217387 47.66347198 -10.375 40.375 C-10.10792236 39.10350098 -9.84084473 37.83200195 -9.56567383 36.52197266 C-6.9314756 24.23110095 -3.97838784 11.93516352 0 0 Z " fill="#757575" transform="translate(146,433)"/>
<path d="M0 0 C8.17737716 1.94629357 15.81911364 4.76642012 23.56079102 8.02368164 C25.42843061 8.80868795 27.30065029 9.58183207 29.17382812 10.35351562 C36.95268783 13.58246902 44.52176609 17.12479733 52 21 C52 21.66 52 22.32 52 23 C37.33333333 19 22.66666667 15 8 11 C8 10.67 8 10.34 8 10 C16.57142857 9.85714286 16.57142857 9.85714286 20 11 C20 10.01 20 9.02 20 8 C19.32453125 7.88527344 18.6490625 7.77054688 17.953125 7.65234375 C14.44022002 6.8763449 11.14271456 5.75846737 7.75 4.5625 C5.88601563 3.91474609 5.88601563 3.91474609 3.984375 3.25390625 C1 2 1 2 0 0 Z " fill="#828282" transform="translate(859,755)"/>
<path d="M0 0 C3.00857458 0.66151427 6.03598008 1.15102402 9.07470703 1.65576172 C13.94967053 2.48723539 18.82063327 3.33180039 23.68017578 4.24951172 C24.71174805 4.442146 25.74332031 4.63478027 26.80615234 4.83325195 C29.28955078 5.50341797 29.28955078 5.50341797 31.28955078 7.50341797 C28.52705043 8.88466815 26.34223979 8.69421103 23.28955078 8.50341797 C22.62955078 7.84341797 21.96955078 7.18341797 21.28955078 6.50341797 C16.95593288 5.33101264 12.51685163 4.62173965 8.10205078 3.81591797 C6.88195312 3.57808594 5.66185547 3.34025391 4.40478516 3.09521484 C-6.28130257 1.11587975 -12.50130627 2.0111767 -21.96044922 7.12841797 C-23.54409741 7.98389352 -25.13246694 8.8307034 -26.72607422 9.66748047 C-27.76683105 10.23136475 -27.76683105 10.23136475 -28.82861328 10.80664062 C-30.71044922 11.50341797 -30.71044922 11.50341797 -33.71044922 10.50341797 C-10.85495344 -2.5386817 -10.85495344 -2.5386817 0 0 Z " fill="#949494" transform="translate(431.71044921875,674.49658203125)"/>
<path d="M0 0 C0 0.66 0 1.32 0 2 C-0.99 2 -1.98 2 -3 2 C-3 2.66 -3 3.32 -3 4 C-0.525 4.495 -0.525 4.495 2 5 C-0.63958118 6.75972078 -2.64748769 7.69589746 -5.59765625 8.7265625 C-6.48130859 9.0359375 -7.36496094 9.3453125 -8.27539062 9.6640625 C-9.19513672 9.98117187 -10.11488281 10.29828125 -11.0625 10.625 C-11.98611328 10.94984375 -12.90972656 11.2746875 -13.86132812 11.609375 C-20.73688616 14 -20.73688616 14 -23 14 C-21.77603406 10.32810219 -20.91117215 10.09965865 -17.59765625 8.30078125 C-16.70755859 7.81416016 -15.81746094 7.32753906 -14.90039062 6.82617188 C-13.96388672 6.32666016 -13.02738281 5.82714844 -12.0625 5.3125 C-11.12986328 4.80138672 -10.19722656 4.29027344 -9.23632812 3.76367188 C-2.28685122 0 -2.28685122 0 0 0 Z " fill="#7C7C7C" transform="translate(174,784)"/>
<path d="M0 0 C1.32 0.33 2.64 0.66 4 1 C4 1.99 4 2.98 4 4 C3.44828125 4.06445312 2.8965625 4.12890625 2.328125 4.1953125 C-0.99470188 5.34380636 -2.78849145 7.39189927 -5.25 9.875 C-6.14203125 10.75929688 -7.0340625 11.64359375 -7.953125 12.5546875 C-10.32093483 14.85191917 -10.32093483 14.85191917 -10 18 C-11.65 17.67 -13.3 17.34 -15 17 C-13.59122859 13.6911933 -11.96249555 11.88532142 -9.1875 9.625 C-5.67380444 6.66171941 -2.82445704 3.61883558 0 0 Z " fill="#6A6A6A" transform="translate(246,273)"/>
<path d="M0 0 C0.33 0 0.66 0 1 0 C2.32 14.52 3.64 29.04 5 44 C4.01 44 3.02 44 2 44 C1.93941406 42.77925781 1.87882813 41.55851563 1.81640625 40.30078125 C1.2551178 29.17342631 1.2551178 29.17342631 0.4375 18.0625 C-0.05841031 12.0340903 -0.0980334 6.04539331 0 0 Z " fill="#929292" transform="translate(772,669)"/>
<path d="M0 0 C1.63229325 2.9345922 2.38361915 5.44748121 2.8515625 8.765625 C2.98046875 9.65507812 3.109375 10.54453125 3.2421875 11.4609375 C3.36851562 12.38132812 3.49484375 13.30171875 3.625 14.25 C3.7590625 15.18585938 3.893125 16.12171875 4.03125 17.0859375 C4.36037599 19.38981945 4.68306149 21.69441524 5 24 C5.66 24 6.32 24 7 24 C6.67 25.98 6.34 27.96 6 30 C5.01 30.33 4.02 30.66 3 31 C2.92652344 29.64068359 2.92652344 29.64068359 2.8515625 28.25390625 C2.4684657 22.01207053 1.94549843 16.10472713 0.41015625 10.04296875 C-0.26676297 6.67126633 -0.12463599 3.42748981 0 0 Z " fill="#8C8C8C" transform="translate(334,319)"/>
<path d="M0 0 C1.45606519 4.52092968 0.27032841 7.51648796 -1 12 C-0.01 11.67 0.98 11.34 2 11 C1.34 14.3 0.68 17.6 0 21 C-0.33 21 -0.66 21 -1 21 C-1.33 19.02 -1.66 17.04 -2 15 C-2.33 16.98 -2.66 18.96 -3 21 C-3.66 21 -4.32 21 -5 21 C-4.42351925 13.64987044 -2.28953836 6.98575424 0 0 Z " fill="#7E7E7E" transform="translate(146,433)"/>
<path d="M0 0 C0.66 0.99 1.32 1.98 2 3 C1.67 3.99 1.34 4.98 1 6 C7.27 7.32 13.54 8.64 20 10 C20 10.33 20 10.66 20 11 C-0.80327869 9.59836066 -0.80327869 9.59836066 -6 7 C-6 6.34 -6 5.68 -6 5 C-4.02 5 -2.04 5 0 5 C0 3.35 0 1.7 0 0 Z " fill="#949494" transform="translate(387,368)"/>
<path d="M0 0 C0.66 0.33 1.32 0.66 2 1 C0.02 3.97 0.02 3.97 -2 7 C2.455 7.99 2.455 7.99 7 9 C7 9.33 7 9.66 7 10 C1.84828377 10.09038099 -2.91913204 9.84681133 -8 9 C-8 8.01 -8 7.02 -8 6 C-6.25 4.39453125 -6.25 4.39453125 -4 2.8125 C-3.2575 2.28269531 -2.515 1.75289063 -1.75 1.20703125 C-1.1725 0.80871094 -0.595 0.41039062 0 0 Z " fill="#757575" transform="translate(152,320)"/>
<path d="M0 0 C0.93972656 0.12568359 0.93972656 0.12568359 1.8984375 0.25390625 C3.12433594 0.40666016 3.12433594 0.40666016 4.375 0.5625 C5.59316406 0.71912109 5.59316406 0.71912109 6.8359375 0.87890625 C9.04899186 1.18237328 9.04899186 1.18237328 11 0 C13.3828125 0.99609375 13.3828125 0.99609375 16.125 2.4375 C17.03507813 2.91058594 17.94515625 3.38367188 18.8828125 3.87109375 C19.93082031 4.42990234 19.93082031 4.42990234 21 5 C21 5.66 21 6.32 21 7 C13.96354423 5.11380178 6.96640656 3.13072305 0 1 C0 0.67 0 0.34 0 0 Z " fill="#9F9F9F" transform="translate(890,771)"/>
<path d="M0 0 C0 0.66 0 1.32 0 2 C-10.23 2 -20.46 2 -31 2 C-31 1.67 -31 1.34 -31 1 C-30.31897217 0.97494385 -29.63794434 0.9498877 -28.9362793 0.92407227 C-25.85316245 0.80809048 -22.77034954 0.68537384 -19.6875 0.5625 C-18.61564453 0.52318359 -17.54378906 0.48386719 -16.43945312 0.44335938 C-15.41142578 0.40146484 -14.38339844 0.35957031 -13.32421875 0.31640625 C-12.37635498 0.27974854 -11.42849121 0.24309082 -10.4519043 0.20532227 C-2.04878852 -0.49835396 -2.04878852 -0.49835396 0 0 Z " fill="#ACACAC" transform="translate(293,370)"/>
<path d="M0 0 C1.65 0.33 3.3 0.66 5 1 C4.67 2.32 4.34 3.64 4 5 C4.99 5.33 5.98 5.66 7 6 C0.51527007 5.26309887 -5.69239743 3.64681249 -12 2 C-12 1.67 -12 1.34 -12 1 C-3.42857143 0.85714286 -3.42857143 0.85714286 0 2 C0 1.34 0 0.68 0 0 Z " fill="#676767" transform="translate(879,764)"/>
<path d="M0 0 C0.66 0 1.32 0 2 0 C2.66 3.3 3.32 6.6 4 10 C1.75026553 10.054138 -0.49984383 10.09285491 -2.75 10.125 C-4.00296875 10.14820313 -5.2559375 10.17140625 -6.546875 10.1953125 C-9.72820492 10.01537302 -11.36521896 9.68998582 -14 8 C-11.31694346 6.65847173 -9.53391979 7.08298796 -6.5625 7.375 C-5.59441406 7.46523438 -4.62632812 7.55546875 -3.62890625 7.6484375 C-1 8 -1 8 2 9 C1.34 6.03 0.68 3.06 0 0 Z " fill="#989897" transform="translate(455,363)"/>
<path d="M0 0 C0.66 0.33 1.32 0.66 2 1 C0.27840626 2.94470746 -1.45166256 4.88057309 -3.1875 6.8125 C-3.67025391 7.35970703 -4.15300781 7.90691406 -4.65039062 8.47070312 C-7.51496216 11.64287965 -10.15659006 13.99749208 -14 16 C-12.34136495 11.67495164 -9.128959 8.90581175 -5.875 5.75 C-5.31167969 5.19570313 -4.74835938 4.64140625 -4.16796875 4.0703125 C-2.78313972 2.70895515 -1.39216796 1.35385141 0 0 Z " fill="#6A6A6A" transform="translate(192,397)"/>
<path d="M0 0 C0.33 0 0.66 0 1 0 C1.50250245 3.12460299 2.00157557 6.24974412 2.5 9.375 C2.64308594 10.26445312 2.78617187 11.15390625 2.93359375 12.0703125 C3.06894531 12.92109375 3.20429688 13.771875 3.34375 14.6484375 C3.53227539 15.82672119 3.53227539 15.82672119 3.72460938 17.02880859 C4 19 4 19 4 21 C2.125 20.6875 2.125 20.6875 0 20 C-0.66 19.01 -1.32 18.02 -2 17 C-1.01 17.33 -0.02 17.66 1 18 C0.67 12.06 0.34 6.12 0 0 Z " fill="#939392" transform="translate(492,459)"/>
<path d="M0 0 C4.95 0.33 9.9 0.66 15 1 C15 1.33 15 1.66 15 2 C9.06 2.495 9.06 2.495 3 3 C4.65 4.65 6.3 6.3 8 8 C7.67 8.66 7.34 9.32 7 10 C5.82438854 8.90536178 4.6597511 7.79892814 3.5 6.6875 C2.52546875 5.76517578 2.52546875 5.76517578 1.53125 4.82421875 C0 3 0 3 0 0 Z " fill="#9D9D9D" transform="translate(227,234)"/>
<path d="M0 0 C4.95 0 9.9 0 15 0 C12.22957891 2.77042109 10.23466195 2.39796106 6.375 2.625 C5.18648438 2.69976562 3.99796875 2.77453125 2.7734375 2.8515625 C1.40058594 2.92503906 1.40058594 2.92503906 0 3 C0 2.01 0 1.02 0 0 Z " fill="#767676" transform="translate(400,307)"/>
<path d="M0 0 C0.33 0 0.66 0 1 0 C1 4.62 1 9.24 1 14 C1.66 14.33 2.32 14.66 3 15 C2.34 15.66 1.68 16.32 1 17 C0.01 17 -0.98 17 -2 17 C-1.85786703 15.10388566 -1.71113093 13.20811606 -1.5625 11.3125 C-1.48128906 10.25675781 -1.40007812 9.20101563 -1.31640625 8.11328125 C-1.03548319 5.34913703 -0.59843148 2.71054259 0 0 Z " fill="#9B9B9B" transform="translate(154,461)"/>
<path d="M0 0 C3.3 0 6.6 0 10 0 C10 0.33 10 0.66 10 1 C8.02 1.33 6.04 1.66 4 2 C4.99 2.66 5.98 3.32 7 4 C6.34 5.32 5.68 6.64 5 8 C4.34 7.67 3.68 7.34 3 7 C3 6.01 3 5.02 3 4 C2.01 3.34 1.02 2.68 0 2 C0 1.34 0 0.68 0 0 Z " fill="#979797" transform="translate(371,332)"/>
<path d="M0 0 C0.66 0 1.32 0 2 0 C2 3.3 2 6.6 2 10 C2.99 10.33 3.98 10.66 5 11 C3.68 11 2.36 11 1 11 C0.67 9.02 0.34 7.04 0 5 C-0.66 5.99 -1.32 6.98 -2 8 C-1.125 1.125 -1.125 1.125 0 0 Z " fill="#9A9999" transform="translate(197,433)"/>
<path d="M0 0 C0.99 0 1.98 0 3 0 C2.71872579 1.48117801 2.42466268 2.95993249 2.125 4.4375 C1.96257812 5.26121094 1.80015625 6.08492188 1.6328125 6.93359375 C1.42398437 7.61550781 1.21515625 8.29742187 1 9 C0.01 9.495 0.01 9.495 -1 10 C-2.32 9.01 -3.64 8.02 -5 7 C-3.68 7 -2.36 7 -1 7 C-0.67 4.69 -0.34 2.38 0 0 Z " fill="#7A7979" transform="translate(383,402)"/>
<path d="M0 0 C-0.33 4.29 -0.66 8.58 -1 13 C-1.33 13 -1.66 13 -2 13 C-2 9.7 -2 6.4 -2 3 C-3.32 3.33 -4.64 3.66 -6 4 C-2.25 0 -2.25 0 0 0 Z " fill="#939393" transform="translate(153,491)"/>
<path d="M0 0 C0.66 0.33 1.32 0.66 2 1 C0.38405168 3.04119788 -1.2856382 5.04072937 -3 7 C-3.66 7 -4.32 7 -5 7 C-5 7.99 -5 8.98 -5 10 C-5.66 10 -6.32 10 -7 10 C-5.6062718 5.56541027 -3.39417765 3.12621626 0 0 Z " fill="#636363" transform="translate(627,553)"/>
<path d="M0 0 C4.46840411 0.49648935 5.68987756 0.68987756 9 4 C6.03 3.67 3.06 3.34 0 3 C0 2.01 0 1.02 0 0 Z " fill="#212121" transform="translate(883,766)"/>
<path d="M0 0 C0.66 0.33 1.32 0.66 2 1 C1.34 4.63 0.68 8.26 0 12 C-0.99 11.67 -1.98 11.34 -3 11 C-2.34 10.67 -1.68 10.34 -1 10 C-1.0309375 8.3603125 -1.0309375 8.3603125 -1.0625 6.6875 C-1 3 -1 3 0 0 Z " fill="#A09E9C" transform="translate(451,436)"/>
<path d="M0 0 C1.32 0.33 2.64 0.66 4 1 C3.67 2.98 3.34 4.96 3 7 C2.01 7.33 1.02 7.66 0 8 C0 5.36 0 2.72 0 0 Z " fill="#858585" transform="translate(337,342)"/>
<path d="M0 0 C-3.28463659 2.18975773 -6.20696275 2.99806563 -10 4 C-9 1 -9 1 -7.25 -0.25 C-4.47275102 -1.17574966 -2.78428335 -0.77341204 0 0 Z " fill="#A5A5A5" transform="translate(161,794)"/>
<path d="M0 0 C1.65 0.33 3.3 0.66 5 1 C5 1.66 5 2.32 5 3 C0.38 3 -4.24 3 -9 3 C-9 2.67 -9 2.34 -9 2 C-4.545 1.505 -4.545 1.505 0 1 C0 0.67 0 0.34 0 0 Z " fill="#7A7A7A" transform="translate(288,369)"/>
<path d="M0 0 C-1.39332574 3.36720387 -2.9789286 4.9859524 -6 7 C-5.67 5.68 -5.34 4.36 -5 3 C-5.66 2.67 -6.32 2.34 -7 2 C-4.35261084 0.5393715 -3.10551666 0 0 0 Z " fill="#939392" transform="translate(315,390)"/>
<path d="M0 0 C0.66 0.33 1.32 0.66 2 1 C2 1.99 2 2.98 2 4 C-2.62 3.34 -7.24 2.68 -12 2 C-12 1.67 -12 1.34 -12 1 C-3.42857143 0.85714286 -3.42857143 0.85714286 0 2 C0 1.34 0 0.68 0 0 Z " fill="#A0A0A0" transform="translate(509,375)"/>
<path d="M0 0 C0.66 0 1.32 0 2 0 C5.22265625 5.17578125 5.22265625 5.17578125 6 7 C5.67 7.99 5.34 8.98 5 10 C3.0625 8.9375 3.0625 8.9375 1 7 C0.25 3.3125 0.25 3.3125 0 0 Z " fill="#818181" transform="translate(307,342)"/>
<path d="M0 0 C-5.625 3 -5.625 3 -9 3 C-8.67 2.01 -8.34 1.02 -8 0 C-2.25 -1.125 -2.25 -1.125 0 0 Z " fill="#4C4C4C" transform="translate(167,791)"/>
</svg>
