<?xml version="1.0" encoding="UTF-8"?>
<svg version="1.1" xmlns="http://www.w3.org/2000/svg" width="1648" height="1648">
<path d="M0 0 C1.13569212 -0.00205263 2.27138424 -0.00410527 3.44149128 -0.0062201 C7.26279495 -0.01189316 11.08406261 -0.01043247 14.90536976 -0.00901413 C17.66647634 -0.01104796 20.42758058 -0.01457189 23.18868572 -0.01801753 C29.99136361 -0.02559115 36.79403365 -0.02779027 43.59671532 -0.02834659 C51.74492455 -0.02926084 59.89312653 -0.03593019 68.04133264 -0.04269341 C87.73379231 -0.05874866 107.42625119 -0.06465595 127.11871623 -0.06944216 C136.43444869 -0.07177837 145.75018053 -0.07538103 155.06591251 -0.07913754 C186.95500001 -0.09197202 218.84408716 -0.10269177 250.73317719 -0.10614014 C252.73472764 -0.10636177 254.73627809 -0.10658355 256.73782854 -0.10680549 C258.74420525 -0.10702613 260.75058196 -0.10724661 262.75695866 -0.10746694 C266.78208109 -0.10790949 270.80720351 -0.1083566 274.83232594 -0.10880661 C275.83032123 -0.108916 276.82831652 -0.10902539 277.85655409 -0.1091381 C310.22211804 -0.11276935 342.58765959 -0.12869248 374.95321496 -0.15199697 C409.17284357 -0.17659143 443.39245938 -0.19031278 477.61209708 -0.19150805 C481.36827966 -0.19167951 485.12446223 -0.19189494 488.8806448 -0.19214249 C489.80552104 -0.19219826 490.73039728 -0.19225402 491.68330008 -0.19231148 C506.56811395 -0.19346219 521.45290484 -0.2044858 536.33771094 -0.21902954 C551.29744299 -0.23339381 566.25714556 -0.2366319 581.21688261 -0.22858956 C590.10379274 -0.22413316 598.99060776 -0.22799441 607.8775054 -0.24382807 C613.81633694 -0.25358022 619.75510188 -0.25239757 625.69393282 -0.24239184 C629.0760518 -0.23700149 632.45783964 -0.23794673 635.83996721 -0.24890056 C639.48943872 -0.25997228 643.13842937 -0.25251828 646.78788757 -0.24050903 C647.82927392 -0.24810423 648.87066027 -0.25569942 649.94360378 -0.26352477 C662.31872535 -0.17565382 673.74684753 2.62741821 682.96635914 11.24080276 C693.50693165 22.52038221 695.02217091 33.67881379 694.90385914 48.69392776 C694.90012255 50.09496736 694.89727863 51.4960096 694.8952837 52.89705276 C694.88769804 56.55982733 694.86809401 60.22243978 694.84587574 63.88515091 C694.82530726 67.63258548 694.8162586 71.3800466 694.80620289 75.12752151 C694.78484256 82.46223032 694.75076897 89.79680621 694.70854664 97.13142776 C696.32901905 97.09662308 696.32901905 97.09662308 697.98222828 97.06111526 C699.42354618 97.04234352 700.86487163 97.02414484 702.30620289 97.00642776 C703.01538868 96.98966995 703.72457447 96.97291214 704.45525074 96.95564651 C714.62586865 96.86215046 722.56154123 101.03411603 729.80620289 108.02986526 C737.42370269 116.44509092 740.16544652 125.81508517 740.11958981 137.00236225 C740.12754529 137.96019606 740.13550077 138.91802988 740.14369732 139.90488896 C740.16664615 143.10924075 740.16844872 146.3132452 740.17024708 149.51767349 C740.1822995 151.840432 740.1956156 154.16318424 740.21008575 156.48592895 C740.24590304 162.86518831 740.2629088 169.24437969 740.27662921 175.62371981 C740.29125576 181.79846129 740.32261705 187.97313078 740.35165759 194.14781765 C740.43205562 211.46959702 740.47728993 228.79142652 740.51768094 246.11333767 C740.52869904 250.80667217 740.54070701 255.50000381 740.55293894 260.19333529 C740.62871846 289.34586982 740.6948378 318.49840969 740.73212337 347.651021 C740.74088676 354.40010535 740.74978948 361.1491895 740.75883961 367.89827347 C740.75995233 368.73672663 740.76106506 369.57517978 740.76221151 370.43904061 C740.79867633 397.6223627 740.89151437 424.80510201 741.01660418 451.98815042 C741.14504887 479.95136078 741.22485605 507.91426332 741.24054752 535.87777663 C741.24276871 539.82958033 741.24550072 543.78138355 741.24852085 547.73318672 C741.24937862 548.89973612 741.24937862 548.89973612 741.25025371 550.08985218 C741.26078027 562.58813772 741.32160514 575.08569099 741.40091076 587.58370791 C741.47946409 600.15294517 741.50247779 612.72133916 741.46960689 625.29078675 C741.45328754 632.09662568 741.46265679 638.90000578 741.53700352 645.70553207 C741.60457092 651.94262311 741.60221025 658.17572957 741.5453919 664.41289174 C741.53700291 666.66261091 741.5537313 668.91260189 741.59883071 671.16188461 C741.79583155 681.63155288 741.74369973 689.89379547 734.55694138 698.03369602 C732.02383361 700.60124631 729.38349643 703.00035196 726.65352117 705.35607588 C723.934441 707.83802309 721.58038828 710.57956637 719.20278884 713.38497362 C717.47172389 715.40822364 715.62896803 717.28782323 713.70854664 719.13142776 C711.7731453 717.19602643 712.58261351 714.27282398 712.57449088 711.6964485 C712.57665693 710.75875398 712.57882299 709.82105946 712.58105469 708.85494995 C712.57941086 707.86421874 712.57776702 706.87348752 712.57607338 705.85273415 C712.5717158 702.48848531 712.5745466 699.12427891 712.57724476 695.76002884 C712.57554444 693.34147109 712.5733956 690.92291362 712.5708335 688.50435662 C712.56621949 683.22294956 712.56469009 677.94155472 712.56579876 672.66014671 C712.56740469 664.80653562 712.56325539 656.95293518 712.55771828 649.09932624 C712.54905484 636.7003387 712.54370127 624.30135257 712.54051677 611.90236251 C712.5353814 592.22131968 712.51992643 572.54029506 712.50094029 552.8592612 C712.49691848 548.67420619 712.49299768 544.48915109 712.48907393 540.30409598 C712.48829128 539.46976164 712.48750862 538.6354273 712.48670225 537.77581011 C712.48511665 536.08505618 712.48353183 534.39430226 712.48194776 532.70354834 C712.48035648 531.00650587 712.47876223 529.3094634 712.47716503 527.61242094 C712.4583238 507.58734511 712.44124272 487.56226805 712.42558765 467.53718948 C712.42489873 466.6606535 712.42420981 465.78411752 712.42350002 464.88101985 C712.4012337 436.45209035 712.38939886 408.0231661 712.3819211 379.59422928 C712.37416197 350.38474029 712.3531251 321.17528724 712.31637849 291.96581978 C712.3112045 287.84311785 712.3061972 283.72041574 712.3012991 279.59771347 C712.30033214 278.78628775 712.29936518 277.97486204 712.29836892 277.13884766 C712.28320613 264.06177727 712.28233865 250.98474275 712.28695623 237.90766598 C712.29133333 224.77099681 712.28146797 211.63440148 712.25686916 198.49775401 C712.24269606 190.68694512 712.23977089 182.87631685 712.25271168 175.06550485 C712.26114574 169.24225062 712.24889363 163.41916221 712.22842274 157.59593359 C712.22339871 155.23317595 712.22521232 152.87039242 712.23435541 150.50764713 C712.24576684 147.30849776 712.23283643 144.1103598 712.21356201 140.91127014 C712.22275157 139.98294028 712.23194112 139.05461043 712.24140915 138.09814936 C712.19364609 134.09346863 712.00174901 131.67268586 710.06760818 128.10221887 C707.16264786 125.67537673 705.19411655 125.26557199 701.45854664 124.81892776 C700.38089039 124.67841995 699.30323414 124.53791214 698.19292164 124.39314651 C696.96315601 124.26359573 696.96315601 124.26359573 695.70854664 124.13142776 C695.70911622 125.910068 695.70911622 125.910068 695.70969731 127.72464037 C695.72640169 180.09611598 695.74182437 232.46759182 695.75088978 284.83906937 C695.75102784 285.63458329 695.75116589 286.43009721 695.75130813 287.24971762 C695.75430251 304.54714629 695.75707248 321.844575 695.75961197 339.14200374 C695.76085907 347.62724796 695.76215566 356.11249216 695.76347828 364.59773636 C695.76367442 365.86416995 695.76367442 365.86416995 695.76387452 367.15618805 C695.76811983 394.41820929 695.775619 421.68022844 695.78484386 448.94224841 C695.79432286 477.00694859 695.80044275 505.07164761 695.80246163 533.13634936 C695.80274969 537.11948565 695.80307533 541.10262193 695.80342388 545.08575821 C695.8034913 545.86953453 695.80355873 546.65331085 695.80362819 547.46083796 C695.80480024 559.97063324 695.80941173 572.48042489 695.81537867 584.9902187 C695.82133239 597.63147081 695.82349831 610.2727194 695.82204802 622.91397285 C695.82136421 629.73697137 695.82229764 636.55995885 695.82775211 643.38295555 C695.83734274 656.5992429 695.82363564 669.81467805 695.74571408 683.03076816 C695.70912731 689.88002827 695.72502742 696.72698895 695.77569838 703.57613799 C695.8003067 708.03530729 695.78805435 712.49386983 695.76701259 716.95303422 C695.76500369 719.02572049 695.77833585 721.09849013 695.80854125 723.17095727 C696.05320978 740.81036859 696.05320978 740.81036859 690.33691978 747.24692917 C688.83122804 748.58472166 687.29163136 749.88618115 685.70854664 751.13142776 C684.6580795 752.17480226 683.61943571 753.23037557 682.59917164 754.30330276 C681.29206226 755.57947464 681.29206226 755.57947464 679.95854664 756.88142776 C677.03502402 759.76406196 674.20677607 762.60857376 671.64604664 765.81892776 C671.00667164 766.58205276 670.36729664 767.34517776 669.70854664 768.13142776 C669.04854664 768.13142776 668.38854664 768.13142776 667.70854664 768.13142776 C667.70814646 767.49776452 667.70774627 766.86410127 667.70733396 766.21123611 C667.66367291 697.24469511 667.61631693 628.27815703 667.54956532 559.31163406 C667.54856975 558.28194426 667.54757418 557.25225446 667.54654845 556.19136194 C667.52489148 533.81510066 667.5025689 511.43884009 667.47956036 489.06258016 C667.46828153 478.08976126 667.45714984 467.11694221 667.44609547 456.14412308 C667.4449929 455.05217762 667.44389034 453.96023217 667.44275436 452.83519746 C667.40706605 417.42231697 667.38109916 382.00943743 667.36015695 346.5965454 C667.33859046 310.21462611 667.30724967 273.83272809 667.26355551 237.45082832 C667.25739298 232.3157984 667.25134256 227.18076835 667.24536037 222.04573822 C667.24417949 221.03505976 667.24299861 220.02438129 667.24178195 218.98307621 C667.22303782 202.69358447 667.21464159 186.40410293 667.2100854 170.11460173 C667.20528857 153.75048737 667.18966075 137.38641206 667.16288098 121.02231865 C667.14728936 111.2921404 667.14009825 101.56203909 667.14477735 91.83184903 C667.14708306 85.33830982 667.13859916 78.84484353 667.12122253 72.3513273 C667.11162326 68.64740139 667.10682853 64.94363658 667.11515101 61.23970388 C667.12399529 57.25504186 667.10984132 53.27065468 667.0933075 49.28601265 C667.10272254 47.550491 667.10272254 47.550491 667.11232778 45.7799083 C667.12440915 37.9792445 667.12440915 37.9792445 663.70854664 31.13142776 C658.46737631 27.23312689 652.79509449 27.71338768 646.5389986 27.75669765 C645.40435112 27.75263693 644.26970364 27.7485762 643.1006729 27.74439242 C639.2768473 27.73440143 635.45338485 27.74590011 631.62956715 27.75720596 C628.86916727 27.75613224 626.10878068 27.75054073 623.34838629 27.74516231 C617.33553359 27.73585879 611.32276442 27.73773226 605.30991268 27.74689484 C596.36870185 27.76048238 587.42755532 27.75693332 578.48633985 27.74993623 C562.5186674 27.73800026 546.55103439 27.7431017 530.58336411 27.75521451 C516.60995682 27.76574258 502.63656297 27.77029104 488.66315174 27.76891899 C487.73696893 27.76883496 486.81078612 27.76875093 485.85653717 27.76866435 C482.09704474 27.76831212 478.33755233 27.76792811 474.57805991 27.76749878 C439.29700643 27.76353196 404.01597673 27.77625989 368.73493005 27.79702534 C337.37635744 27.81539536 306.01780764 27.82120777 274.65923023 27.81575394 C272.64576429 27.8154075 270.63229835 27.81506141 268.61883241 27.81471565 C267.6234225 27.81454465 266.62801258 27.81437366 265.60243873 27.81419748 C260.59188163 27.81334396 255.58132452 27.81252017 250.5707674 27.81172848 C249.08807148 27.81149286 249.08807148 27.81149286 247.5754221 27.81125248 C221.38764776 27.8072642 195.19987561 27.8127356 169.0121026 27.82123977 C166.19492044 27.82214683 163.37773828 27.82305248 160.56055611 27.823955 C158.69164001 27.82455611 156.8227239 27.82516473 154.9538078 27.82578091 C141.91378031 27.83000564 128.87375712 27.83057914 115.83372916 27.82867541 C99.03077142 27.82623462 82.2278368 27.8302866 65.42488539 27.84588542 C56.53452078 27.853948 47.64419467 27.85652812 38.75382775 27.85124306 C32.82030883 27.84827299 26.88682405 27.85254568 20.9533133 27.86279164 C17.56934806 27.86843472 14.18552683 27.86980912 10.80155092 27.86462506 C7.16031867 27.8595512 3.51931109 27.86666221 -0.12190533 27.87695217 C-1.70565023 27.87035744 -1.70565023 27.87035744 -3.32138997 27.86362949 C-8.33096292 27.89078638 -12.65496928 27.98195959 -17.29145336 30.13142776 C-18.68383383 31.99890039 -18.68383383 31.99890039 -19.29145336 34.13142776 C-19.62145336 35.12142776 -19.95145336 36.11142776 -20.29145336 37.13142776 C-20.38621777 39.48531909 -20.41742584 41.8418918 -20.41795319 44.19768983 C-20.41947974 44.92645526 -20.42100629 45.65522068 -20.4225791 46.40606991 C-20.42650626 48.87205448 -20.42325212 51.33797871 -20.42008781 53.80396366 C-20.42143321 55.58781702 -20.42321639 57.37167009 -20.42540005 59.15552261 C-20.43015506 64.09451741 -20.42862035 69.0334939 -20.42612228 73.97248963 C-20.42449635 79.3317435 -20.42862405 84.69099334 -20.43203145 90.05024594 C-20.43719845 99.45536532 -20.43860041 108.86047955 -20.43757534 118.2656002 C-20.43605474 132.25112332 -20.44020252 146.23664071 -20.44544997 160.22216272 C-20.45513817 186.64959584 -20.45793537 213.07702678 -20.45850702 239.50446144 C-20.45857177 242.42094821 -20.45863971 245.33743498 -20.45871043 248.25392175 C-20.45873594 249.33947397 -20.45873594 249.33947397 -20.45876196 250.44695653 C-20.45917013 266.47237221 -20.46135912 282.49778749 -20.46386628 298.52320295 C-20.46489461 305.11850509 -20.46588463 311.71380724 -20.46688253 318.30910939 C-20.46699312 319.03779824 -20.46710371 319.76648708 -20.46721765 320.51725741 C-20.47354332 362.28490199 -20.47766659 404.0525463 -20.47720909 445.82019138 C-20.47719331 447.38386776 -20.47717758 448.94754414 -20.47716188 450.51122051 C-20.4770885 457.57135718 -20.47700033 464.63149385 -20.476908 471.69163052 C-20.47686687 474.84003409 -20.47682673 477.98843766 -20.47678669 481.13684124 C-20.47676629 482.71267551 -20.47674527 484.28850979 -20.47672363 485.86434406 C-20.4760433 535.70003841 -20.48336149 585.53572565 -20.49726391 635.371418 C-20.50076481 647.9278898 -20.50423421 660.48436161 -20.50752831 673.04083347 C-20.50783262 674.20049342 -20.50783262 674.20049342 -20.50814307 675.38358083 C-20.51435605 699.20355546 -20.51812325 723.0235295 -20.51938629 746.84350491 C-20.51942624 747.591133 -20.51946619 748.3387611 -20.51950735 749.10904459 C-20.52036055 765.51967981 -20.52062185 781.93031499 -20.52033698 798.34095022 C-20.52024049 804.21269388 -20.52018845 810.08443755 -20.52015825 815.95618122 C-20.52015033 817.41697595 -20.52014013 818.87777067 -20.52012763 820.3385654 C-20.51995115 843.63465164 -20.5256553 866.93073181 -20.53428144 890.2268163 C-20.54316354 914.33667785 -20.5447613 938.44652832 -20.53796931 962.55639092 C-20.53426258 976.46575015 -20.53613937 990.37508277 -20.54591165 1004.28443921 C-20.55188217 1013.56357943 -20.55064904 1022.84270025 -20.54344116 1032.12183956 C-20.53953472 1037.41670245 -20.53885501 1042.71151359 -20.54689851 1048.00637297 C-20.55414404 1052.81782824 -20.55228044 1057.62918837 -20.54297464 1062.44063932 C-20.54124519 1064.17562417 -20.54290796 1065.91061635 -20.54827585 1067.64559375 C-20.55505697 1069.99355204 -20.54958721 1072.34117316 -20.54100102 1074.68911821 C-20.54113335 1076.64270458 -20.54113335 1076.64270458 -20.54126836 1078.63575735 C-20.20475446 1083.34460862 -19.40387797 1086.84518681 -16.29145336 1090.44392776 C-11.21969329 1094.72322533 -4.37013256 1093.52091007 1.97154713 1093.68484879 C2.74567641 1093.70580116 3.5198057 1093.72675353 4.31739345 1093.74834082 C29.1470491 1094.39988156 53.98957251 1094.28165386 78.82581979 1094.27715345 C86.45632921 1094.27597054 94.08683265 1094.28068692 101.71734029 1094.28542437 C117.51622044 1094.29501184 133.3150973 1094.29790516 149.11398003 1094.29848143 C161.30508175 1094.2989432 173.49618221 1094.30101302 185.68728352 1094.30418205 C189.21189952 1094.3050797 192.73651552 1094.30596952 196.26113153 1094.30685693 C197.13757042 1094.30707798 198.01400931 1094.30729903 198.91700696 1094.30752677 C223.5033975 1094.31366441 248.0897876 1094.31762892 272.67617893 1094.31718349 C273.59980258 1094.31716792 274.52342622 1094.31715234 275.47503846 1094.31713629 C280.15521104 1094.31705319 284.83538361 1094.31695415 289.51555619 1094.31685158 C290.44489436 1094.31683163 291.37423254 1094.31681169 292.33173248 1094.31679114 C294.2110594 1094.3167507 296.09038632 1094.3167089 297.96971324 1094.31666575 C327.28565744 1094.3160514 356.60159011 1094.32359572 385.91753101 1094.33723831 C418.92142493 1094.35259118 451.92531128 1094.36120536 484.92920899 1094.36027509 C488.44502306 1094.36020046 491.96083713 1094.36015175 495.47665119 1094.36012077 C496.3422226 1094.36010912 497.207794 1094.36009746 498.09959484 1094.36008546 C512.024941 1094.36005469 525.95027711 1094.36643774 539.87562028 1094.37505304 C553.84707777 1094.38351879 567.81852056 1094.38452758 581.78997919 1094.37794372 C590.08908649 1094.37424376 598.38814914 1094.37609408 606.68725172 1094.38588606 C612.87784569 1094.39257416 619.06839181 1094.38884669 625.25898352 1094.38101283 C627.76678182 1094.37946909 630.27458493 1094.38132664 632.78237757 1094.38687291 C636.18359178 1094.39389907 639.58457362 1094.38866599 642.98577976 1094.38031673 C643.96521077 1094.38528491 644.94464178 1094.39025309 645.95375252 1094.39537182 C652.69870643 1094.36022842 658.29444421 1093.26946191 664.70854664 1091.13142776 C666.7841091 1086.57653859 666.9864692 1082.24081628 666.93991566 1077.31979752 C666.9407691 1076.55190208 666.94162254 1075.78400665 666.94250184 1074.99284166 C666.94311391 1072.42964136 666.92962091 1069.86670977 666.91631031 1067.30354691 C666.91414814 1065.4618272 666.91296236 1063.62010612 666.91267872 1061.77838516 C666.91062552 1057.81695316 666.9029336 1053.85558583 666.89124584 1049.89417076 C666.87407765 1043.62861276 666.8773397 1037.36317005 666.88489246 1031.09759903 C666.90407241 1013.28239589 666.91072142 995.46734278 666.86308765 977.65217972 C666.83693768 967.80941832 666.8356123 957.96698496 666.86223489 948.12422079 C666.87522831 942.91755007 666.87518166 937.71159084 666.84437084 932.50498009 C666.81545217 927.60858546 666.81887033 922.71328179 666.84697819 917.81689262 C666.85147355 916.02181521 666.84402489 914.22666143 666.82364941 912.43169403 C666.67921929 898.85453647 666.67921929 898.85453647 669.22401333 894.59451485 C670.96055967 892.84989909 672.69515002 891.5329571 674.70854664 890.13142776 C675.69312723 889.00757201 676.64684158 887.85511329 677.55229664 886.66658401 C677.99065845 886.09762405 678.42902027 885.52866409 678.88066578 884.94246292 C679.5379668 884.07693802 679.5379668 884.07693802 680.20854664 883.19392776 C681.15364215 881.97269858 682.10025385 880.75264122 683.04839039 879.53377151 C683.7268401 878.66147903 683.7268401 878.66147903 684.41899586 877.77156448 C689.99737624 870.67660814 689.99737624 870.67660814 692.70854664 868.13142776 C693.36854664 868.13142776 694.02854664 868.13142776 694.70854664 868.13142776 C694.70854664 915.98142776 694.70854664 963.83142776 694.70854664 1013.13142776 C698.99854664 1012.80142776 703.28854664 1012.47142776 707.70854664 1012.13142776 C711.84705555 1006.95829162 712.207822 1006.45613597 712.16696644 1000.37137222 C712.1681176 999.70445317 712.16926876 999.03753412 712.1704548 998.3504054 C712.16968166 996.12237747 712.14051995 993.89563171 712.11162281 991.66780472 C712.10562096 990.06755523 712.10150817 988.46729772 712.09914112 986.86703873 C712.09076886 983.42330663 712.07054256 979.9799183 712.04157543 976.53629875 C711.9973242 971.08490091 711.98883137 965.63381074 711.98694324 960.18225479 C711.97640038 944.68110273 711.92298197 929.18035072 711.82207203 913.67952347 C711.76663789 905.11635707 711.7436246 896.55370951 711.75539857 887.99036568 C711.76096524 882.57730375 711.72672049 877.16644855 711.66259611 871.75378668 C711.63211159 868.37588551 711.63952433 864.99883356 711.65734959 861.6208744 C711.65810182 860.06242991 711.64360084 858.50388621 711.61215496 856.94575882 C711.46330752 849.16250834 711.68500878 843.38504425 717.11157703 837.31616592 C718.62210111 835.89767626 720.15189116 834.49913373 721.70854664 833.13142776 C722.60077762 832.13107841 723.47372622 831.11251308 724.31010914 830.06502151 C725.72656227 828.31769805 727.14466982 826.57171503 728.56401539 824.82674026 C731.20757929 821.50422826 733.77103718 818.12508711 736.29839039 814.71345901 C736.99641773 813.93035355 736.99641773 813.93035355 737.70854664 813.13142776 C738.36854664 813.13142776 739.02854664 813.13142776 739.70854664 813.13142776 C739.7786748 838.51392621 739.83155351 863.89641011 739.86398315 889.27898598 C739.87944204 901.06495658 739.90051291 912.85086693 739.934865 924.63679886 C739.96479724 934.91122752 739.98412876 945.18561255 739.99081212 955.4600836 C739.99471788 960.89868614 740.0038767 966.33716385 740.02573681 971.77572632 C740.04616232 976.89908653 740.05236817 982.02227096 740.04786968 987.14566803 C740.04869217 989.02171917 740.05462154 990.89777645 740.06616306 992.77379227 C740.15662752 1008.2425304 738.72991676 1019.34267969 727.82573414 1031.17439651 C720.32743347 1038.29322853 711.15138538 1041.29585615 700.95854664 1041.19392776 C699.78807789 1041.18490433 698.61760914 1041.17588089 697.41167164 1041.16658401 C696.51964039 1041.15498245 695.62760914 1041.14338089 694.70854664 1041.13142776 C694.71520847 1041.68551315 694.72187031 1042.23959854 694.72873402 1042.8104744 C694.79551313 1048.61873398 694.84052243 1054.4268831 694.87334156 1060.23543167 C694.88835432 1062.39823721 694.9087708 1064.56101269 694.934865 1066.72371292 C694.97158029 1069.84667288 694.9883486 1072.96922756 695.00151539 1076.09236526 C695.02474117 1077.52423676 695.02474117 1077.52423676 695.04843616 1078.98503494 C695.05154806 1091.62252841 690.54323671 1102.13588 682.02104664 1111.44392776 C676.04582207 1117.14230795 667.44184404 1121.2251288 659.1309427 1121.28851587 C658.18656228 1121.29806183 657.24218186 1121.30760779 656.26918385 1121.31744302 C655.22983418 1121.32293471 654.19048451 1121.32842641 653.1196394 1121.33408451 C652.01701231 1121.34371533 650.91438522 1121.35334615 649.77834519 1121.36326881 C646.06893281 1121.394317 642.35951032 1121.41819116 638.65004444 1121.44192886 C636.00772637 1121.46216502 633.36541264 1121.48274076 630.72309995 1121.50364482 C624.27745881 1121.55358734 617.83178951 1121.59759246 611.38608993 1121.63924113 C606.09025805 1121.67347601 600.79444224 1121.70962546 595.49863029 1121.74680769 C534.66283476 1122.17184884 473.82771452 1122.29575248 412.99052314 1122.29848985 C402.97795503 1122.29894481 392.9653884 1122.30107625 382.95282078 1122.30418205 C379.99781907 1122.30508022 377.04281736 1122.30597007 374.08781564 1122.30685693 C373.35213743 1122.30707798 372.61645921 1122.30729903 371.85848772 1122.30752677 C351.45801631 1122.3135935 331.05754538 1122.317636 310.65707302 1122.31718349 C309.90287526 1122.31716792 309.1486775 1122.31715234 308.37162526 1122.31713629 C304.55452617 1122.31705326 300.73742707 1122.31695422 296.92032798 1122.31685158 C295.78438235 1122.31682166 295.78438235 1122.31682166 294.62548833 1122.31679114 C293.09413677 1122.3167507 291.56278521 1122.3167089 290.03143365 1122.31666575 C265.92233389 1122.31604576 241.81324793 1122.32372658 217.70415211 1122.33723831 C190.27867847 1122.3526045 162.8532139 1122.36120585 135.42773569 1122.36027509 C132.50982785 1122.3602005 129.59192002 1122.36015177 126.67401218 1122.36012077 C125.95611965 1122.36010912 125.23822711 1122.36009746 124.49858025 1122.36008546 C113.02566023 1122.36005488 101.55275253 1122.3663918 90.07983617 1122.37505304 C78.61826081 1122.38352941 67.1567097 1122.38434589 55.69513173 1122.37794372 C49.50703772 1122.3746835 43.31898823 1122.37460621 37.13089848 1122.38329697 C31.46445131 1122.39117483 25.79808394 1122.38971788 20.13163869 1122.38101283 C18.09095793 1122.37948174 16.05027116 1122.38127917 14.0095975 1122.38687291 C-23.45454551 1122.48273511 -23.45454551 1122.48273511 -37.18207836 1109.63142776 C-45.8839433 1099.31810636 -48.63856174 1086.99453428 -48.48676586 1073.84627151 C-48.48393597 1072.90457611 -48.48110607 1071.96288071 -48.47819042 1070.99264908 C-48.46709543 1068.01793986 -48.44201139 1065.04354426 -48.41645336 1062.06892776 C-48.40640973 1060.03833319 -48.39728632 1058.00773384 -48.38910961 1055.97713089 C-48.3671912 1051.02844441 -48.33273636 1046.07998905 -48.29145336 1041.13142776 C-48.97603115 1041.13618622 -49.66060894 1041.14094467 -50.36593151 1041.14584732 C-51.7146056 1041.15139885 -51.7146056 1041.15139885 -53.09052563 1041.15706253 C-53.98135342 1041.16182098 -54.87218121 1041.16657944 -55.79000378 1041.17148209 C-66.36515334 1041.0021481 -75.92282857 1036.4202217 -83.39301586 1029.06111526 C-93.60739664 1016.93425468 -93.44326332 1002.51881708 -93.42288113 987.45478725 C-93.42453277 985.96250095 -93.42661996 984.47021508 -93.42910123 982.97792992 C-93.43465176 978.87641346 -93.43399843 974.77491795 -93.43232364 970.67339895 C-93.43159131 966.21146631 -93.43661836 961.74953953 -93.44089866 957.2876094 C-93.44847259 948.43772628 -93.45067141 939.58784919 -93.45122771 930.73796317 C-93.45214193 920.13788354 -93.4588111 909.53780948 -93.46557454 898.93773225 C-93.48162945 873.32103038 -93.48753684 847.70432911 -93.49232328 822.08762311 C-93.49465932 809.97100839 -93.49826194 797.85439414 -93.50201866 785.73777979 C-93.51485252 744.26555288 -93.5255728 702.79332623 -93.52902126 661.32109737 C-93.5292429 658.71811296 -93.52946468 656.11512855 -93.52968661 653.51214414 C-93.52990726 650.90287011 -93.53012774 648.29359609 -93.53034806 645.68432206 C-93.53079062 640.44964961 -93.53123773 635.21497716 -93.53168774 629.98030472 C-93.53179713 628.68241182 -93.53190652 627.38451892 -93.53201922 626.04729593 C-93.5356513 583.94623678 -93.55157786 541.84519483 -93.5748781 499.74414226 C-93.59946506 455.23681411 -93.61319353 410.72949578 -93.61438918 366.22216064 C-93.61456064 361.33811907 -93.61477607 356.4540775 -93.61502361 351.57003593 C-93.61507938 350.36743945 -93.61513515 349.16484296 -93.61519261 347.92580415 C-93.61634391 328.56116655 -93.6273724 309.1965466 -93.64191067 289.83191497 C-93.65626521 270.37591616 -93.65951851 250.91994001 -93.65147069 231.46393736 C-93.64700985 219.90199621 -93.65089327 208.34012811 -93.6667092 196.77819654 C-93.67644586 189.05633498 -93.67529351 181.3345247 -93.66527297 173.61266362 C-93.65987156 169.21224823 -93.65920103 164.8119733 -93.67178169 160.41156944 C-93.68314156 156.40474277 -93.68057336 152.39817054 -93.66711462 148.39135258 C-93.66468831 146.95440256 -93.66723737 145.51743281 -93.67551109 144.08050456 C-93.74874767 130.46081923 -92.10615684 117.84635444 -82.69770336 107.35408401 C-74.89444681 100.12134858 -65.9966994 96.94046066 -55.54145336 97.06892776 C-54.84407055 97.07343948 -54.14668774 97.0779512 -53.42817211 97.08259964 C-51.71589534 97.09432756 -50.00366303 97.11226124 -48.29145336 97.13142776 C-48.29589458 96.42922607 -48.30033581 95.72702438 -48.30491161 95.00354385 C-48.34521881 88.34057561 -48.37555377 81.67764209 -48.39507771 75.01457882 C-48.40545303 71.59017743 -48.41949577 68.16587795 -48.44233227 64.74153519 C-48.46850161 60.79208531 -48.47797777 56.84267468 -48.48676586 52.89314651 C-48.49708843 51.68124146 -48.507411 50.4693364 -48.51804638 49.22070694 C-48.51986082 35.28323696 -46.43501157 22.53859118 -36.79145336 11.81892776 C-26.05274597 1.92855757 -13.97563823 -0.02348274 0 0 Z M-62.29145336 126.13142776 C-65.40911581 129.41741856 -65.66714519 131.78448776 -65.66980219 136.24466741 C-65.67782519 137.50922612 -65.6858482 138.77378483 -65.69411433 140.07666349 C-65.68786145 141.48554127 -65.68133431 142.89441785 -65.67456341 144.30329323 C-65.67829802 145.80180353 -65.68334592 147.30031104 -65.68959224 148.79881299 C-65.70300065 152.94093004 -65.69759177 157.08284641 -65.68925875 161.22496903 C-65.68347657 165.72208298 -65.69498466 170.21915719 -65.70432043 174.71626055 C-65.71826865 182.60610161 -65.72095614 190.49588533 -65.71636105 198.38573647 C-65.70954571 210.11804927 -65.71976507 221.85030374 -65.7333186 233.58260844 C-65.75827034 255.75263462 -65.76274562 277.92263676 -65.76085263 300.09267472 C-65.75948126 317.20876168 -65.76328888 334.32484027 -65.7707777 351.4409256 C-65.77182802 353.89720591 -65.77287564 356.35348622 -65.77392057 358.80976654 C-65.77443991 360.02899339 -65.77495925 361.24822025 -65.77549434 362.50439338 C-65.77601448 363.72581183 -65.77653462 364.94723028 -65.77707052 366.20566142 C-65.77759451 367.42907511 -65.77811851 368.6524888 -65.77865838 369.91297563 C-65.79324855 404.33827805 -65.80152112 438.76357738 -65.79690838 473.18888283 C-65.79673642 474.4875359 -65.79656447 475.78618897 -65.7963873 477.12419517 C-65.79549837 483.70675781 -65.79455356 490.28932045 -65.79358929 496.87188308 C-65.79339826 498.17927462 -65.79320723 499.48666617 -65.79301041 500.83367564 C-65.79262332 503.47754086 -65.79223299 506.12140607 -65.79183943 508.76527129 C-65.78586829 549.91143496 -65.80130992 591.0575424 -65.83344555 632.20369339 C-65.86949326 678.39836131 -65.88885917 724.59299358 -65.88390684 770.78767645 C-65.88343684 775.70988377 -65.88302659 780.63209108 -65.88265514 785.5542984 C-65.88255276 786.76633083 -65.88245037 787.97836326 -65.88234488 789.22712395 C-65.88114827 807.55226027 -65.89314047 825.87735817 -65.91179943 844.20248413 C-65.93300059 865.03480823 -65.93692306 885.86705153 -65.91749984 906.69937919 C-65.90714517 918.3670242 -65.91071588 930.03447237 -65.93403069 941.70209974 C-65.94821199 949.48694504 -65.94435983 957.27164396 -65.92558493 965.05647926 C-65.91538777 969.49794286 -65.91322769 973.93902203 -65.93290561 978.38046233 C-65.95063201 982.41765701 -65.94552634 986.45414134 -65.92187722 990.49129978 C-65.91741161 991.94592357 -65.92139969 993.40060295 -65.93468557 994.85517292 C-66.24269349 1003.27797618 -66.24269349 1003.27797618 -63.50247717 1011.0328995 C-59.25660301 1014.22556587 -59.25660301 1014.22556587 -48.29145336 1013.13142776 C-48.29145336 719.76142776 -48.29145336 426.39142776 -48.29145336 124.13142776 C-55.96733041 123.71135229 -55.96733041 123.71135229 -62.29145336 126.13142776 Z " fill="#0D0E0D" transform="translate(472.29145336151123,262.8685722351074)"/>
<path d="M0 0 C1.63382976 1.38548764 3.25882714 2.78145555 4.875 4.1875 C5.70902344 4.86554688 6.54304688 5.54359375 7.40234375 6.2421875 C25.15731892 21.17934689 34.72155491 44.09090868 36.8125 66.875 C37.64986056 90.52409218 29.8301958 113.57462152 13.875 131.1875 C13.14925781 132.00605469 12.42351562 132.82460938 11.67578125 133.66796875 C3.32518856 142.57066675 -6.78402158 149.65984366 -18.125 154.1875 C-17.37742432 154.3326001 -16.62984863 154.4777002 -15.85961914 154.62719727 C35.69677909 164.72603544 85.64309719 181.51772511 126.875 215.1875 C127.42188477 215.6314209 127.96876953 216.0753418 128.53222656 216.53271484 C143.20809007 228.53139633 156.81811106 241.74660909 167.875 257.1875 C168.34856934 257.84379395 168.82213867 258.50008789 169.31005859 259.17626953 C183.25949269 278.72017539 201.875 307.192846 201.875 332.1875 C213.54462551 326.78383104 222.03239185 321.68653483 226.9921875 309.42578125 C228.00810666 305.69924592 228.21670374 302.20799135 228.1875 298.375 C228.18621094 297.67375 228.18492187 296.9725 228.18359375 296.25 C228.0801711 290.65483477 227.06528639 286.29816824 224.875 281.1875 C231.06262856 281.96229871 234.09240617 285.47112778 237.875 290.1875 C243.33168715 299.72890725 244.27009565 309.82542896 242.2265625 320.609375 C240.05950419 328.35151494 236.55326044 334.68569489 231.875 341.1875 C231.35035156 341.94933594 230.82570313 342.71117187 230.28515625 343.49609375 C229.58712891 344.33333984 229.58712891 344.33333984 228.875 345.1875 C228.215 345.1875 227.555 345.1875 226.875 345.1875 C226.875 345.8475 226.875 346.5075 226.875 347.1875 C212.74512987 359.1875 212.74512987 359.1875 205.875 359.1875 C205.89594727 359.91001953 205.91689453 360.63253906 205.93847656 361.37695312 C206.48506649 383.28206324 204.97006476 404.32519039 197.875 425.1875 C197.63942383 425.89648438 197.40384766 426.60546875 197.16113281 427.3359375 C191.18649914 445.14739247 182.71751725 460.88503295 171.875 476.1875 C171.13378906 477.23679687 170.39257812 478.28609375 169.62890625 479.3671875 C164.95243062 485.78587954 159.86919068 491.65581476 154.44140625 497.43359375 C152.28929903 499.74293255 150.2253428 502.09079633 148.1875 504.5 C144.04407851 509.26052681 139.43596967 513.50815587 134.15052795 516.97406006 C128.32682857 521.02099297 125.25564781 524.05945851 123.92358398 531.15332031 C123.60438422 533.8649991 123.3400596 536.54744817 123.12109375 539.265625 C122.96664709 540.7242481 122.80770824 542.18240173 122.64454651 543.64007568 C122.22873575 547.45875803 121.87162768 551.28064027 121.527771 555.10638428 C121.17155445 558.96376408 120.76322595 562.81554331 120.35742188 566.66796875 C119.90078232 571.02055678 119.44856734 575.37296656 119.03916931 579.73028564 C116.15669395 610.08889336 116.15669395 610.08889336 105.77734375 619.71875 C99.97521971 624.19841866 94.01896776 626.30028267 86.72631836 626.36450195 C85.45747299 626.37733719 84.18862762 626.39017242 82.8813324 626.40339661 C81.49250684 626.411568 80.10367684 626.41901096 78.71484375 626.42578125 C78.01295992 626.42985678 77.31107609 626.4339323 76.58792305 626.43813133 C72.86761903 626.45898588 69.14735175 626.47328613 65.42700195 626.48266602 C61.60630907 626.49368569 57.78620581 626.52803472 53.96572018 626.56783772 C51.01006583 626.59414662 48.05454841 626.60237073 45.09878731 626.60594749 C43.69193129 626.61078246 42.28508009 626.62230703 40.87833977 626.64098549 C28.14560776 626.79944139 19.35381464 624.66203765 10.05859375 615.71484375 C6.49016071 611.58465381 4.69631175 607.28962585 2.875 602.1875 C2.33246919 600.72900369 1.7894672 599.27068259 1.24609375 597.8125 C-3.125 585.87391869 -3.125 585.87391869 -3.125 582.1875 C-4.19234375 582.38085938 -5.2596875 582.57421875 -6.359375 582.7734375 C-42.97683393 589.2579095 -81.42351686 589.46011712 -118.125 583.1875 C-120.02285467 587.83166202 -121.88149029 592.48414567 -123.5859375 597.203125 C-123.84036621 597.90179687 -124.09479492 598.60046875 -124.35693359 599.3203125 C-124.85866638 600.70334706 -125.35407306 602.08869748 -125.84228516 603.4765625 C-129.08449251 612.37449834 -134.79366389 619.71892562 -143.20703125 624.328125 C-151.49107224 627.66134859 -160.54557892 627.35684373 -169.33203125 627.390625 C-170.49320969 627.39632507 -171.65438812 627.40202515 -172.85075378 627.40789795 C-175.29901224 627.41731034 -177.74728315 627.4238669 -180.19555664 627.42773438 C-183.91510363 627.43744155 -187.63409797 627.46850245 -191.35351562 627.5 C-193.74218425 627.50653115 -196.13085679 627.51178118 -198.51953125 627.515625 C-199.61884476 627.5279718 -200.71815826 627.5403186 -201.8507843 627.55303955 C-212.74955933 627.52202079 -221.98061994 625.75908849 -230.125 618.1875 C-230.68058594 617.67316406 -231.23617187 617.15882813 -231.80859375 616.62890625 C-240.13162758 607.97378129 -240.99958319 595.86831292 -242.1953125 584.484375 C-242.36281107 582.99213649 -242.53169138 581.50005249 -242.70187378 580.00811768 C-243.14331826 576.11262391 -243.569651 572.21564379 -243.99157715 568.31799316 C-244.67012113 562.0675037 -245.36900838 555.81929923 -246.07354355 549.57169342 C-246.3153614 547.40376235 -246.54883878 545.23505478 -246.78128052 543.06610107 C-246.92961822 541.72730762 -247.07819576 540.38854072 -247.22705078 539.04980469 C-247.35266388 537.89051453 -247.47827698 536.73122437 -247.60769653 535.5368042 C-248.56140442 528.75690563 -248.56140442 528.75690563 -252.0859375 523.140625 C-252.88257813 522.57859375 -253.67921875 522.0165625 -254.5 521.4375 C-260.76424615 516.75504341 -266.46274831 511.5669882 -272.125 506.1875 C-272.66060547 505.68057617 -273.19621094 505.17365234 -273.74804688 504.65136719 C-301.27404042 478.41821162 -301.27404042 478.41821162 -305.94750977 463.57519531 C-306.87077239 461.0198796 -306.87077239 461.0198796 -309.15966797 460.41333008 C-310.01189941 460.32462646 -310.86413086 460.23592285 -311.7421875 460.14453125 C-318.7149678 459.16806919 -325.36872698 457.36366846 -332.13232422 455.46606445 C-334.25047279 454.87486804 -336.37296238 454.30152122 -338.49609375 453.72851562 C-348.34716577 451.01271155 -357.20672497 448.09410004 -364.125 440.1875 C-364.805625 439.506875 -365.48625 438.82625 -366.1875 438.125 C-373.00243324 427.79268187 -372.72001144 416.41148314 -372.65625 404.53515625 C-372.65895188 402.7449879 -372.66284006 400.95482098 -372.66784668 399.16465759 C-372.67371056 395.43034764 -372.66528109 391.69642299 -372.64648438 387.9621582 C-372.62371327 383.2104191 -372.63682601 378.45958496 -372.66077423 373.70787907 C-372.6753312 370.01604071 -372.67058098 366.32441163 -372.66026306 362.63256645 C-372.65762215 360.88213426 -372.66077108 359.13168216 -372.67018127 357.38127327 C-372.73016614 343.09036529 -371.7279936 329.9067545 -361.125 319.1875 C-354.09060018 313.37647406 -345.69926105 311.99119452 -336.9375 310.5 C-336.1650293 310.36843506 -335.39255859 310.23687012 -334.59667969 310.10131836 C-330.3936028 309.42753922 -326.39768333 309.04439577 -322.125 309.1875 C-321.96572021 308.65310303 -321.80644043 308.11870605 -321.64233398 307.56811523 C-319.72513753 301.45593708 -317.18040404 295.90515634 -314.1875 290.25 C-313.70949951 289.34338623 -313.23149902 288.43677246 -312.73901367 287.50268555 C-305.78875273 274.57089223 -297.62581004 262.38617343 -288.125 251.1875 C-287.25173615 250.13092515 -286.37940258 249.073581 -285.5078125 248.015625 C-284.56876402 246.88453938 -283.62864505 245.75434172 -282.6875 244.625 C-281.99466919 243.79150024 -281.99466919 243.79150024 -281.2878418 242.94116211 C-277.73461412 238.73793098 -273.87007185 235.07483483 -269.609375 231.578125 C-267.24547046 227.77099453 -268.28869506 224.4389978 -269.125 220.1875 C-269.27453125 219.40455566 -269.4240625 218.62161133 -269.578125 217.81494141 C-273.57419086 198.35394208 -280.45327708 180.11192526 -288.38818359 161.95483398 C-290.58370696 156.68863332 -291.3766191 151.38670578 -289.25390625 145.9609375 C-286.52343156 141.1803687 -283.31235194 138.24934365 -278.125 136.1875 C-275.20541527 135.66271388 -272.39679013 135.66396333 -269.4375 135.75 C-268.6129834 135.76466309 -267.7884668 135.77932617 -266.93896484 135.79443359 C-237.77299919 136.65987616 -200.8647742 145.89977831 -178.44824219 165.66601562 C-175.99363865 167.78141156 -174.29110816 169.18512342 -170.96875 169.19189453 C-168.28798626 168.68595531 -165.73833102 167.9715881 -163.125 167.1875 C-160.84670726 166.58460162 -158.56803497 165.98313638 -156.2890625 165.3828125 C-153.77582768 164.69348803 -151.26281516 164.00335269 -148.75 163.3125 C-129.33329928 158.05324916 -110.10609998 154.54781502 -90.125 152.1875 C-90.81464844 151.83558594 -91.50429688 151.48367188 -92.21484375 151.12109375 C-98.74602077 147.68976207 -104.46994367 143.91224208 -110.125 139.1875 C-110.79144531 138.66671875 -111.45789063 138.1459375 -112.14453125 137.609375 C-129.18322902 123.76333263 -138.4015706 101.97640629 -140.80859375 80.66015625 C-142.89938452 57.71308221 -136.48730801 34.3632988 -121.859375 16.40625 C-119.67237713 13.93657894 -117.42360999 11.55310045 -115.125 9.1875 C-114.55136719 8.55199219 -113.97773437 7.91648437 -113.38671875 7.26171875 C-85.62279184 -22.62260353 -31.44511322 -24.60921904 0 0 Z M-108.4375 29 C-121.15122382 45.71324944 -124.4555398 64.89664681 -121.83203125 85.48681641 C-118.84735199 102.44412722 -108.73521565 117.52418749 -95.3046875 128.015625 C-77.85017208 139.93787386 -57.74174968 144.37495772 -36.796875 140.49609375 C-19.21642823 136.17332957 -3.88859849 126.33282642 5.9375 110.9609375 C17.24833678 92.21496896 20.36726657 73.41516559 15.36669922 52.09179688 C10.90220701 34.80131067 -1.04521591 20.34910067 -16.125 11.1875 C-48.60605332 -6.23638162 -84.6576863 1.24927691 -108.4375 29 Z M-259.125 163.1875 C-258.88378418 163.78884766 -258.64256836 164.39019531 -258.39404297 165.00976562 C-250.12302656 185.82299378 -243.96416972 206.93207282 -241.125 229.1875 C-240.98578125 230.19296875 -240.8465625 231.1984375 -240.703125 232.234375 C-240.33902801 236.85560606 -240.88308197 239.47219837 -243.875 243.0625 C-245.26675642 244.46270838 -246.68729738 245.83451049 -248.125 247.1875 C-250.08798173 249.1205748 -252.04656173 251.05734909 -254 253 C-254.51965332 253.51361084 -255.03930664 254.02722168 -255.57470703 254.55639648 C-260.49489434 259.46047467 -264.84316014 264.71921784 -269.125 270.1875 C-269.90230469 271.12464844 -270.67960938 272.06179688 -271.48046875 273.02734375 C-280.74100737 284.46683263 -288.15901835 297.25728962 -294.05078125 310.734375 C-294.52588135 311.82000732 -295.00098145 312.90563965 -295.49047852 314.02416992 C-296.39339389 316.12789429 -297.27151314 318.24248724 -298.12084961 320.3684082 C-301.53370512 328.40574011 -301.53370512 328.40574011 -305.46875 330.65234375 C-312.62063354 333.44757473 -320.5063292 334.61719083 -328.01806641 336.11474609 C-330.09301011 336.53259354 -332.16354129 336.96855777 -334.234375 337.40625 C-336.07467285 337.7765332 -336.07467285 337.7765332 -337.95214844 338.15429688 C-341.57402638 339.33372035 -343.01262691 340.01451588 -345.125 343.1875 C-346.74970744 351.32318555 -346.21290712 359.75253676 -346.109375 368.01953125 C-346.09265146 369.54408197 -346.07598992 371.06863338 -346.05938721 372.59318542 C-346.02312017 375.77109388 -345.98192381 378.94889788 -345.93798828 382.12670898 C-345.88271968 386.19635752 -345.84633676 390.26594649 -345.81435776 394.33583546 C-345.78650804 397.4766739 -345.74546229 400.61723973 -345.70075226 403.75787926 C-345.68158672 405.25891444 -345.66727551 406.76001988 -345.65795135 408.26114845 C-345.6436194 410.35530146 -345.6107209 412.44838716 -345.57324219 414.54223633 C-345.55912292 415.73198563 -345.54500366 416.92173492 -345.53045654 418.14753723 C-345.08589844 421.48066897 -344.50713052 422.85001229 -342.125 425.1875 C-339.30741455 426.24978935 -336.65642134 427.08921268 -333.7578125 427.84375 C-332.92724335 428.07276001 -332.09667419 428.30177002 -331.24093628 428.53771973 C-328.5808459 429.26817619 -325.9158476 429.9783749 -323.25 430.6875 C-321.49441266 431.16397029 -319.73919941 431.64182124 -317.984375 432.12109375 C-317.12745056 432.35489746 -316.27052612 432.58870117 -315.38763428 432.82958984 C-312.05579588 433.7401957 -308.72462497 434.65321298 -305.39416504 435.56884766 C-303.9454997 435.96380359 -302.49534418 436.3533602 -301.04333496 436.73583984 C-299.23027268 437.21395481 -297.42344149 437.71552511 -295.6171875 438.21875 C-294.14934814 438.61416992 -294.14934814 438.61416992 -292.65185547 439.01757812 C-287.57573726 441.36779633 -285.23811876 446.52687233 -282.5 451.1875 C-275.38750415 462.97310286 -266.63035642 473.27558159 -257.125 483.1875 C-256.62097656 483.71875488 -256.11695313 484.25000977 -255.59765625 484.79736328 C-246.93012812 493.89448524 -237.67202053 501.94062477 -227.34375 509.12109375 C-222.98144946 513.18387013 -222.75651658 518.97239402 -222.10351562 524.65820312 C-222.01865402 525.38095932 -221.93379242 526.10371552 -221.84635925 526.84837341 C-221.66405355 528.4079827 -221.48466259 529.96793493 -221.3079071 531.52818298 C-221.02759271 534.00101327 -220.73925356 536.47279324 -220.44885254 538.94445801 C-219.72949205 545.08130081 -219.02388888 551.21971084 -218.31781006 557.35809326 C-217.71981843 562.55215597 -217.11661134 567.74556188 -216.5065155 572.93821716 C-216.22331013 575.36713983 -215.94775333 577.79685151 -215.67248535 580.22668457 C-215.49752762 581.72343266 -215.32221276 583.22013907 -215.14648438 584.71679688 C-214.92236877 586.66821594 -214.92236877 586.66821594 -214.69372559 588.65905762 C-214.14550285 592.06029783 -213.46627697 595.0146259 -212.125 598.1875 C-208.80673836 600.39967443 -207.75652439 600.4432224 -203.89086914 600.4621582 C-202.82288589 600.47169022 -201.75490265 600.48122223 -200.65455627 600.49104309 C-198.92482826 600.48967598 -198.92482826 600.48967598 -197.16015625 600.48828125 C-195.38287392 600.49470894 -195.38287392 600.49470894 -193.56968689 600.50126648 C-191.06217081 600.50701343 -188.55463806 600.50750738 -186.04711914 600.50317383 C-182.20625415 600.50001542 -178.36616025 600.52346432 -174.52539062 600.54882812 C-172.09114681 600.55110118 -169.65690091 600.55180458 -167.22265625 600.55078125 C-165.49596458 600.56459587 -165.49596458 600.56459587 -163.73439026 600.57868958 C-162.66325485 600.57246078 -161.59211945 600.56623199 -160.48852539 600.55981445 C-159.07646568 600.56075859 -159.07646568 600.56075859 -157.63587952 600.5617218 C-154.62910091 600.11359114 -153.30262043 599.28439642 -151.125 597.1875 C-150.00389897 594.58926767 -149.09206403 592.13479572 -148.25 589.44921875 C-147.99879395 588.69083206 -147.74758789 587.93244537 -147.48876953 587.15107727 C-146.68801661 584.72970482 -145.90507563 582.30310577 -145.125 579.875 C-144.34343427 577.45817683 -143.55784058 575.04296629 -142.76123047 572.63105774 C-142.26674531 571.1325659 -141.78088137 569.63119161 -141.30517578 568.12663269 C-139.4270923 562.41394826 -137.28252635 557.6258509 -132.125 554.1875 C-129.91577148 554.140625 -129.91577148 554.140625 -127.30859375 554.4375 C-126.32874512 554.54707031 -125.34889648 554.65664063 -124.33935547 554.76953125 C-117.41177338 555.67033791 -110.50403581 556.68974911 -103.59570312 557.7265625 C-89.56563134 559.78912928 -75.84445015 560.39268964 -61.6875 560.375 C-60.79627441 560.37439575 -59.90504883 560.3737915 -58.98681641 560.37316895 C-40.31143312 560.33877134 -22.50543983 558.8214809 -4.11328125 555.50878906 C9.53122056 553.07029533 9.53122056 553.07029533 14.875 556.1875 C16.869874 560.42247837 18.13554503 564.990101 19.5546875 569.4453125 C20.07608784 571.05622769 20.59824612 572.66689772 21.12109375 574.27734375 C21.9397085 576.80111874 22.75423192 579.32584681 23.55615234 581.85498047 C24.33479234 584.30600791 25.13059982 586.75088708 25.9296875 589.1953125 C26.1652536 589.95159943 26.4008197 590.70788635 26.64352417 591.48709106 C28.0264107 595.65889319 29.0628743 597.96603909 32.875 600.1875 C35.38477932 600.63835102 35.38477932 600.63835102 38.13085938 600.57568359 C39.17874634 600.58514008 40.2266333 600.59459656 41.30627441 600.6043396 C42.43239136 600.59826691 43.5585083 600.59219421 44.71875 600.5859375 C46.46061584 600.59024277 46.46061584 600.59024277 48.2376709 600.59463501 C50.69214363 600.59667594 53.14663262 600.59114414 55.60107422 600.57861328 C59.36072109 600.56256097 63.11929286 600.57846199 66.87890625 600.59765625 C69.26302321 600.59567382 71.6471395 600.59183017 74.03125 600.5859375 C75.72042542 600.59504654 75.72042542 600.59504654 77.44372559 600.6043396 C78.49161255 600.59488312 79.53949951 600.58542664 80.61914062 600.57568359 C81.53973267 600.57329681 82.46032471 600.57091003 83.40881348 600.56845093 C86.41307863 600.10438319 87.7435699 599.3455368 89.875 597.1875 C90.72405339 595.06517782 90.72405339 595.06517782 91.00073242 592.58154297 C91.14811859 591.59764587 91.29550476 590.61374878 91.44735718 589.60003662 C92.21177505 583.50007689 92.93671855 577.39922966 93.60039711 571.28760147 C94.05542738 567.12511461 94.53275132 562.96515118 95.00585938 558.8046875 C95.6031919 553.53899663 96.19392302 548.27279246 96.76245117 543.00390625 C97.22571094 538.71606107 97.71017941 534.43107811 98.20885277 530.14721298 C98.39404218 528.52223188 98.57142841 526.89634112 98.74071693 525.26962662 C98.97801616 522.99872446 99.24230993 520.73246939 99.51293945 518.46533203 C99.65568802 517.1772464 99.79843658 515.88916077 99.94551086 514.56204224 C101.4960565 508.93273303 105.76402109 506.15776994 110.25 502.75 C147.46688685 473.27511041 173.51734229 433.04311696 179.5625 385.4375 C182.90803822 342.72850145 169.71103093 300.18923328 142.19726562 267.17431641 C139.71614014 264.35772513 137.15495746 261.63284926 134.53125 258.94921875 C132.66577387 257.00967224 130.94982905 255.10919588 129.25390625 253.03515625 C126.12216545 249.28632366 122.60281829 246.32409502 118.875 243.1875 C118.01003906 242.4346875 117.14507813 241.681875 116.25390625 240.90625 C67.37904867 198.99456752 2.06183215 178.62236155 -61.6875 178.875 C-62.64855652 178.87682281 -63.60961304 178.87864563 -64.59979248 178.88052368 C-79.97636962 178.92944698 -94.93141187 179.65987857 -110.125 182.1875 C-111.63876221 182.42098145 -111.63876221 182.42098145 -113.18310547 182.65917969 C-128.52112544 185.06016329 -143.17319424 189.04621076 -157.92211914 193.79711914 C-175.49908671 199.43733213 -175.49908671 199.43733213 -180.04956055 197.27148438 C-182.05491873 195.898866 -183.85569311 194.40881917 -185.6875 192.8125 C-187.08277654 191.6881206 -188.48397352 190.57105338 -189.890625 189.4609375 C-190.59509766 188.90374023 -191.29957031 188.34654297 -192.02539062 187.77246094 C-206.35882256 176.9523865 -224.18285742 170.23856268 -241.375 165.6875 C-242.33929932 165.43202393 -243.30359863 165.17654785 -244.29711914 164.91333008 C-249.37768008 163.64441639 -253.88977001 162.89826077 -259.125 163.1875 Z " fill="#0C0C0C" transform="translate(860.125,374.8125)"/>
<path d="M0 0 C4.44785525 3.65094785 6.66669395 6.64350205 7.25 12.4765625 C6.87069265 22.32049134 -0.61306936 29.11489659 -6.73193359 36.11572266 C-8.74671106 38.44546358 -10.68611131 40.8335197 -12.625 43.2265625 C-15.91323868 47.2663986 -19.25236481 51.25735131 -22.625 55.2265625 C-28.87396503 62.58549113 -34.99716202 70.04017835 -41 77.6015625 C-44.57947791 82.09192147 -48.27516521 86.47386039 -51.99438477 90.84814453 C-55.59098548 95.08242286 -59.12425923 99.36422063 -62.6328125 103.671875 C-65.68103688 107.40809986 -68.74604748 111.1302946 -71.8125 114.8515625 C-72.40546875 115.57134277 -72.9984375 116.29112305 -73.609375 117.03271484 C-76.06518576 120.01354738 -78.52137567 122.9940674 -80.97753906 125.97460938 C-84.51930299 130.27277546 -88.05987736 134.57191516 -91.59863281 138.87255859 C-92.93690711 140.49809522 -94.27690666 142.12221116 -95.6171875 143.74609375 C-100.05617801 149.14080997 -104.38992499 154.60745087 -108.68823242 160.11401367 C-113.00653777 165.6225496 -117.46190338 171.01317671 -121.92797852 176.40209961 C-125.60759874 180.8526111 -129.20978606 185.3521241 -132.75 189.9140625 C-136.96197756 195.33555803 -141.35987983 200.56699478 -145.85375977 205.75634766 C-149.36773545 209.81961474 -152.74888981 213.96702109 -156.078125 218.18359375 C-158.47594119 221.16256005 -160.95334033 224.06978825 -163.4375 226.9765625 C-167.7643149 232.04635826 -171.91004431 237.23266678 -175.99926758 242.49511719 C-179.55133041 247.04629619 -183.24849014 251.45298621 -187.00439453 255.83642578 C-190.27935946 259.67751997 -193.41045751 263.6103917 -196.5 267.6015625 C-200.95597544 273.34776362 -205.63751704 278.85933418 -210.42700195 284.3293457 C-214.32284165 288.78214834 -218.09272604 293.31973612 -221.81640625 297.91796875 C-224.53844185 301.22954843 -227.32643139 304.4796625 -230.125 307.7265625 C-233.69810902 311.8735209 -237.23226155 316.04264244 -240.6875 320.2890625 C-242.16659245 322.10162307 -243.64576367 323.91411935 -245.125 325.7265625 C-245.57262695 326.27795898 -246.02025391 326.82935547 -246.48144531 327.39746094 C-247.91699308 329.1598478 -249.36369125 330.91256893 -250.8125 332.6640625 C-251.25215088 333.20812744 -251.69180176 333.75219238 -252.14477539 334.31274414 C-255.82086471 338.72639059 -259.64354166 341.89940972 -265.125 343.7265625 C-271.67382305 344.29111621 -276.61949044 343.45926234 -282.125 339.7265625 C-289.07264435 333.25771475 -294.82317393 325.72146149 -300.51953125 318.15625 C-303.35869295 314.39329483 -306.29823623 310.71398992 -309.25 307.0390625 C-309.76369141 306.3992041 -310.27738281 305.7593457 -310.80664062 305.10009766 C-311.79962326 303.86398124 -312.79293692 302.62813066 -313.78662109 301.39257812 C-315.55114292 299.19609929 -317.30651137 296.99236613 -319.0625 294.7890625 C-321.93904371 291.1903989 -324.84264807 287.61461698 -327.75317383 284.04345703 C-332.51075521 278.20526542 -337.23682076 272.34770766 -341.875 266.4140625 C-345.75138325 261.45588183 -349.68632311 256.55388444 -353.6875 251.6953125 C-355.52947914 249.45187636 -357.36217834 247.20223731 -359.1875 244.9453125 C-364.35934985 238.55179618 -369.54784091 232.17914162 -374.875 225.9140625 C-395.125 202.06625406 -395.125 202.06625406 -395.125 192.7265625 C-393.91555674 186.51808709 -391.26986614 183.26365797 -386.125 179.7265625 C-380.79189794 177.94886181 -375.05954383 177.76403212 -369.68359375 179.52734375 C-364.48608076 182.15773728 -360.96014724 185.73488227 -357.33984375 190.25 C-355.48162774 192.32779357 -353.66495424 194.02392189 -351.55102539 195.82080078 C-346.84957942 199.90515441 -342.47260238 204.27027017 -338.09375 208.6953125 C-337.25839722 209.5344519 -336.42304443 210.37359131 -335.56237793 211.23815918 C-332.02163871 214.7951077 -328.48692676 218.3580237 -324.95166016 221.92041016 C-322.3552794 224.53496414 -319.75583434 227.14644434 -317.15625 229.7578125 C-316.36955933 230.55280151 -315.58286865 231.34779053 -314.77233887 232.16687012 C-310.60303303 236.35443211 -306.358025 240.37474327 -301.8626709 244.21154785 C-299.14496347 246.58102217 -296.64036869 249.14621488 -294.125 251.7265625 C-290.2223165 255.68321146 -286.25083155 259.45510919 -282.015625 263.05859375 C-278.55490183 266.11175242 -275.34815813 269.42625431 -272.125 272.7265625 C-269.22278672 271.41385336 -267.15787708 270.00757268 -264.91796875 267.75 C-264.33080078 267.16089844 -263.74363281 266.57179688 -263.13867188 265.96484375 C-262.53603516 265.34996094 -261.93339844 264.73507812 -261.3125 264.1015625 C-260.72146484 263.50988281 -260.13042969 262.91820312 -259.52148438 262.30859375 C-255.81765955 258.56841732 -252.31250865 254.69757155 -248.86889648 250.71777344 C-246.01377095 247.45774209 -243.03762128 244.31428455 -240.0625 241.1640625 C-238.74335123 239.76184889 -237.4243442 238.35950193 -236.10546875 236.95703125 C-235.44337402 236.25368652 -234.7812793 235.5503418 -234.09912109 234.82568359 C-225.99582719 226.20929465 -217.94518734 217.54673808 -209.96484375 208.81640625 C-206.13538617 204.63893975 -202.25936334 200.50491851 -198.38891602 196.36547852 C-194.10980002 191.78709912 -189.85045548 187.19111902 -185.60498047 182.58154297 C-182.98914853 179.74241894 -180.36684874 176.90964656 -177.734375 174.0859375 C-177.16340088 173.47306885 -176.59242676 172.8602002 -176.00415039 172.22875977 C-174.9210181 171.06684285 -173.83695726 169.9057904 -172.75170898 168.74584961 C-170.02033898 165.81459119 -167.34515347 162.84616897 -164.71875 159.8203125 C-161.06467956 155.62333436 -157.26737501 151.57532391 -153.4375 147.5390625 C-148.09265569 141.88347859 -142.77225533 136.20829734 -137.50439453 130.48095703 C-134.92545344 127.6772257 -132.33992403 124.88009134 -129.7421875 122.09375 C-124.73023885 116.71765807 -119.73134677 111.34735254 -114.9296875 105.78125 C-112.53718226 103.05731547 -110.08094058 100.39312981 -107.625 97.7265625 C-104.58607665 94.4263142 -101.56343844 91.1170684 -98.625 87.7265625 C-95.21755081 83.79489036 -91.69370327 79.97295006 -88.16967773 76.14624023 C-85.63759884 73.39182822 -83.13464732 70.61913751 -80.6875 67.7890625 C-77.57535705 64.19697461 -74.35624165 60.71107968 -71.125 57.2265625 C-67.28828866 53.08837845 -63.50222263 48.91991491 -59.8046875 44.65625 C-53.42208372 37.32367729 -46.7981974 30.2181627 -40.14941406 23.12817383 C-37.14451458 19.91675907 -34.17691756 16.69004451 -31.3125 13.3515625 C-12.96465294 -7.76925893 -12.96465294 -7.76925893 0 0 Z " fill="#080808" transform="translate(1257.125,957.2734375)"/>
<path d="M0 0 C0.91714687 -0.00436032 1.83429375 -0.00872064 2.77923295 -0.0132131 C5.86319436 -0.02419178 8.9467108 -0.01373498 12.03066921 -0.00342751 C14.25967861 -0.00688302 16.4886863 -0.01164687 18.71769041 -0.01760924 C24.8513774 -0.03016331 30.98492483 -0.02392879 37.11861241 -0.01465058 C43.05139023 -0.00857373 48.98414455 -0.01654825 54.91691698 -0.02409268 C67.80152849 -0.0398973 80.6860954 -0.03851785 93.57071117 -0.02985594 C104.84553023 -0.02231332 116.12033293 -0.02033729 127.395154 -0.02392387 C128.5163878 -0.02426761 128.5163878 -0.02426761 129.66027279 -0.02461828 C132.69446025 -0.02555228 135.7286477 -0.02650747 138.76283515 -0.02749758 C167.23261778 -0.03667705 195.70237199 -0.02835009 224.17215024 -0.01220688 C249.47538253 0.00203167 274.77856952 0.00075511 300.08180141 -0.01358986 C328.50056908 -0.02964719 356.91931163 -0.03602754 385.33808321 -0.02675307 C388.3664757 -0.02579089 391.39486819 -0.02485237 394.42326069 -0.02392387 C395.16894583 -0.02368664 395.91463097 -0.02344941 396.68291264 -0.02320499 C407.95236278 -0.01979 419.22179478 -0.02378815 430.49124241 -0.03136253 C443.30203397 -0.03992987 456.11277391 -0.03781808 468.92355902 -0.0215203 C475.46382966 -0.01347471 482.00402716 -0.01057951 488.54429913 -0.02046776 C494.52556968 -0.02937432 500.50666234 -0.02454866 506.48791664 -0.0085351 C508.65739289 -0.00517014 510.82688401 -0.00691955 512.99635077 -0.01416247 C515.93459729 -0.0232233 518.87222634 -0.0139911 521.81044006 0 C522.66193645 -0.0070235 523.51343283 -0.014047 524.39073214 -0.02128333 C530.36152529 0.03593427 533.56990809 1.35761998 538.09229946 5.37752342 C540.48682729 8.11412666 540.82017654 10.08439477 541.09229946 13.69002342 C540.81314419 17.80756366 540.12536206 19.95292952 537.84229946 23.37752342 C532.78499104 27.64252195 528.96832066 27.94959296 522.65336418 27.87809467 C521.73284056 27.88360884 520.81231694 27.88912301 519.86389866 27.89480427 C516.76832907 27.90843819 513.67355703 27.89348096 510.57800198 27.87872887 C508.34074171 27.88262032 506.10348391 27.8882595 503.86623198 27.89549977 C497.70970056 27.91029455 491.55342386 27.90004916 485.39690053 27.88576305 C479.44209487 27.87581789 473.48732524 27.88462077 467.53252359 27.89288699 C454.60004026 27.91008659 441.66764164 27.90453341 428.73516005 27.8895298 C417.41845964 27.87648509 406.10178863 27.87128069 394.78508091 27.87384796 C394.03481902 27.87400838 393.28455712 27.87416879 392.51156002 27.87433407 C389.46611866 27.87499764 386.42067732 27.87570005 383.37523598 27.87645941 C354.79976794 27.88348539 326.2243517 27.86798539 297.64889684 27.84183595 C272.2516782 27.81871808 246.85451649 27.81333338 221.4572897 27.82356834 C214.95357897 27.82617028 208.44986825 27.82875526 201.94615746 27.83116627 C201.14551667 27.83146371 200.34487589 27.83176116 199.51997327 27.83206762 C178.3081738 27.83967916 157.09637901 27.83327341 135.88458163 27.82247025 C133.60271831 27.82132242 131.32085499 27.82017924 129.03899167 27.81904342 C127.52521696 27.81828818 126.01144226 27.81752253 124.49766757 27.81674642 C113.18635627 27.81108364 101.87505971 27.81242102 90.56374836 27.81697464 C77.70537603 27.82207744 64.84705888 27.81625169 51.98870032 27.79608034 C45.42412901 27.78604772 38.85962875 27.78112584 32.29505062 27.78897285 C26.29157107 27.79600252 20.28827337 27.78928879 14.28481788 27.77136923 C12.10726799 27.76730708 9.92970167 27.76835394 7.7521578 27.77488809 C4.80301603 27.78298352 1.85449519 27.77279285 -1.0946064 27.75784016 C-1.94931148 27.76457781 -2.80401655 27.77131546 -3.68462178 27.77825728 C-9.33329945 27.72248381 -12.54678288 26.61545284 -16.90770054 22.87752342 C-19.45045396 19.82621932 -19.49873158 16.34889613 -19.43504429 12.50642967 C-18.9335328 8.65679922 -17.48716911 6.50391545 -15.15770054 3.37752342 C-10.09258474 0.08289622 -5.8334935 -0.04824976 0 0 Z " fill="#0B0C0B" transform="translate(533.1577005386353,1061.6224765777588)"/>
<path d="M0 0 C0.74886475 0.00523682 1.49772949 0.01047363 2.26928711 0.01586914 C3.36188843 0.01961548 3.36188843 0.01961548 4.4765625 0.0234375 C5.40718506 0.0325415 6.33780762 0.04164551 7.29663086 0.05102539 C11.72069336 0.08196289 11.72069336 0.08196289 16.23413086 0.11352539 C16.23413086 9.02352539 16.23413086 17.93352539 16.23413086 27.11352539 C19.86413086 27.11352539 23.49413086 27.11352539 27.23413086 27.11352539 C30.81604402 27.75996534 34.22519184 28.46015329 37.73413086 29.36352539 C38.64324219 29.58951416 39.55235352 29.81550293 40.48901367 30.04833984 C54.08866509 33.50664118 54.08866509 33.50664118 59.23413086 36.11352539 C61.37314722 40.39155811 58.17662312 46.75445114 56.98413086 51.17602539 C56.67088867 52.39870117 56.35764648 53.62137695 56.03491211 54.88110352 C55.72424805 56.0419043 55.41358398 57.20270508 55.09350586 58.39868164 C54.80958984 59.46997314 54.52567383 60.54126465 54.2331543 61.64501953 C53.90347656 62.45962646 53.57379883 63.2742334 53.23413086 64.11352539 C49.05321504 65.507164 47.27356835 64.10776701 43.23413086 62.42602539 C32.76130381 58.3250537 32.76130381 58.3250537 15.23413086 55.11352539 C15.23413086 71.28352539 15.23413086 87.45352539 15.23413086 104.11352539 C18.20413086 105.10352539 21.17413086 106.09352539 24.23413086 107.11352539 C43.98404993 115.32331546 57.85482162 124.83696694 66.39038086 144.82055664 C70.9460125 158.55072421 68.86734359 173.64345391 63.13647461 186.59399414 C55.52589349 201.58296916 41.40113481 210.75234658 25.76928711 215.92993164 C22.47797345 216.80638947 19.65725179 217.11352539 16.23413086 217.11352539 C16.23413086 227.01352539 16.23413086 236.91352539 16.23413086 247.11352539 C9.96413086 247.11352539 3.69413086 247.11352539 -2.76586914 247.11352539 C-2.76586914 237.87352539 -2.76586914 228.63352539 -2.76586914 219.11352539 C-5.75649414 218.86602539 -8.74711914 218.61852539 -11.82836914 218.36352539 C-27.11379036 216.89074047 -40.48276262 212.92115289 -53.76586914 205.11352539 C-55.94935358 200.74655652 -52.69123509 194.07964126 -51.51586914 189.55102539 C-51.20262695 188.2806543 -50.88938477 187.0102832 -50.56665039 185.70141602 C-50.25598633 184.49549805 -49.94532227 183.28958008 -49.62524414 182.04711914 C-49.34132813 180.93393311 -49.05741211 179.82074707 -48.76489258 178.67382812 C-48.43521484 177.82892822 -48.10553711 176.98402832 -47.76586914 176.11352539 C-44.76586914 175.11352539 -44.76586914 175.11352539 -42.41040039 176.15258789 C-41.47583008 176.67594727 -40.54125977 177.19930664 -39.57836914 177.73852539 C-27.50678322 184.00702362 -15.15310942 186.43607733 -1.76586914 189.11352539 C-1.76586914 171.29352539 -1.76586914 153.47352539 -1.76586914 135.11352539 C-4.73586914 134.12352539 -7.70586914 133.13352539 -10.76586914 132.11352539 C-20.20612498 128.15137422 -29.14520885 124.08836701 -36.76586914 117.11352539 C-37.37430664 116.61852539 -37.98274414 116.12352539 -38.60961914 115.61352539 C-46.72755059 108.49253289 -51.83936864 96.75985838 -52.76586914 86.11352539 C-52.84708008 85.21633789 -52.92829102 84.31915039 -53.01196289 83.39477539 C-53.68693403 68.17724433 -48.81870817 54.68983732 -38.64086914 43.42602539 C-28.68913903 34.18513314 -16.87265266 29.69378549 -3.76586914 27.11352539 C-3.72828491 25.93995483 -3.72828491 25.93995483 -3.68994141 24.74267578 C-3.57437126 21.2202759 -3.45146965 17.69816979 -3.32836914 14.17602539 C-3.28905273 12.94432617 -3.24973633 11.71262695 -3.20922852 10.44360352 C-3.16733398 9.2737793 -3.12543945 8.10395508 -3.08227539 6.89868164 C-3.04561768 5.81466064 -3.00895996 4.73063965 -2.97119141 3.61376953 C-2.68861986 0.17284781 -2.68861986 0.17284781 0 0 Z M-12.76586914 62.11352539 C-16.42930117 66.36112631 -17.99642551 71.54007574 -17.76586914 77.11352539 C-16.785683 83.67561365 -14.57995068 88.08478137 -9.77758789 92.64086914 C-7.23537918 94.588103 -7.23537918 94.588103 -1.76586914 97.11352539 C-1.76586914 83.58352539 -1.76586914 70.05352539 -1.76586914 56.11352539 C-5.94796262 56.11352539 -9.625586 59.58230072 -12.76586914 62.11352539 Z M15.23413086 142.11352539 C15.23413086 157.29352539 15.23413086 172.47352539 15.23413086 188.11352539 C25.86714899 184.70527357 25.86714899 184.70527357 32.04663086 176.48852539 C34.76413571 170.66775002 35.38441997 165.33672971 33.68725586 159.10571289 C31.21217584 152.75300751 27.26560936 148.80571315 21.54663086 145.30102539 C20.57338867 144.69645508 19.60014648 144.09188477 18.59741211 143.46899414 C16.54362405 142.03060406 16.54362405 142.03060406 15.23413086 142.11352539 Z " fill="#0B0B0B" transform="translate(801.765869140625,631.886474609375)"/>
<path d="M0 0 C1.83175462 -0.00807831 1.83175462 -0.00807831 3.70051438 -0.01631981 C7.0826855 -0.02814254 10.46436329 -0.02653217 13.84651482 -0.019153 C17.49690735 -0.01442185 21.14724708 -0.02693068 24.79762268 -0.03717041 C31.94602343 -0.0543647 39.0943363 -0.05519714 46.24275237 -0.04995751 C52.05300876 -0.04591582 57.86323919 -0.04735935 63.67349434 -0.05270576 C64.91399286 -0.0538284 64.91399286 -0.0538284 66.17955195 -0.05497371 C67.85960563 -0.05650519 69.53965931 -0.05804354 71.21971298 -0.05958868 C86.97412891 -0.07331595 102.72849518 -0.06787439 118.48290998 -0.05640347 C132.8949697 -0.04647038 147.30690105 -0.05941264 161.71894097 -0.08333766 C176.5189505 -0.10772155 191.31890023 -0.11733831 206.11892945 -0.11068493 C214.42735118 -0.10719119 222.73567418 -0.10943501 231.04408073 -0.12693596 C238.11668356 -0.14164905 245.18911812 -0.14230511 252.26171761 -0.12486505 C255.86973167 -0.1163453 259.47744502 -0.11422893 263.0854435 -0.1295166 C266.99770918 -0.14588821 270.90950953 -0.13123334 274.82177734 -0.11352539 C276.53014374 -0.1279329 276.53014374 -0.1279329 278.27302259 -0.14263147 C284.71775257 -0.08249446 288.76272278 0.48205319 293.97438049 4.38768005 C296.95621536 8.71615002 297.61288128 12.18845934 296.97438049 17.38768005 C295.51810102 21.5918202 294.08865404 23.76985212 290.13413334 25.96250343 C284.8707783 28.12815035 279.46744972 27.80169446 273.85974121 27.76863098 C272.64109503 27.77331095 271.42244885 27.77799093 270.16687399 27.78281271 C266.79642607 27.79268972 263.42648154 27.78916046 260.05606449 27.77985406 C256.41662122 27.77305692 252.77722145 27.78354804 249.13778687 27.79179382 C242.01324759 27.80512587 234.8888032 27.8022559 227.76426022 27.7935559 C221.9740432 27.78677821 216.18385274 27.785863 210.39363289 27.78912735 C209.15706756 27.7898169 209.15706756 27.7898169 207.89552112 27.79052038 C206.22078024 27.79147956 204.54603937 27.7924522 202.8712985 27.79343815 C187.17174768 27.80199036 171.47224943 27.79216029 155.77270723 27.77603705 C142.30238906 27.76263153 128.83214844 27.76496422 115.36183167 27.77879333 C99.71655471 27.79484784 84.0713238 27.80116903 68.42603976 27.79195654 C66.75779729 27.7910009 65.08955481 27.79005779 63.42131233 27.78912735 C62.19011882 27.78843311 62.19011882 27.78843311 60.93405272 27.78772485 C55.15042023 27.78513475 49.36681697 27.78950631 43.58318901 27.79656601 C36.5354883 27.80497966 29.48788782 27.80270364 22.44019859 27.78672378 C18.84450239 27.77883959 15.24897332 27.77575192 11.65327835 27.78567123 C7.75610309 27.79625966 3.85920153 27.78361646 -0.03796387 27.76863098 C-1.74383993 27.77866923 -1.74383993 27.77866923 -3.48417813 27.78891027 C-9.06919047 27.74712612 -13.23299046 27.61026165 -18.02561951 24.38768005 C-20.8907019 21.29277822 -21.93559594 18.01784504 -22.52561951 13.88768005 C-21.93559594 9.75751506 -20.8907019 6.48258189 -18.02561951 3.38768005 C-12.30092402 -0.4645011 -6.64225451 -0.03498273 0 0 Z " fill="#0D0E0D" transform="translate(536.0256195068359,1247.612319946289)"/>
<path d="M0 0 C3.462406 0.0097503 6.92481506 0.01824224 10.38722405 0.02685145 C21.92788342 0.05593257 33.46853173 0.08735786 45.00915989 0.12707213 C45.7362731 0.12956861 46.46338632 0.13206509 47.21253326 0.13463723 C48.30504825 0.13838904 48.30504825 0.13838904 49.41963425 0.14221665 C50.89441191 0.14727626 52.36918959 0.15233098 53.84396729 0.15738085 C54.57543101 0.15988772 55.30689472 0.1623946 56.06052401 0.16497744 C68.02948155 0.20552354 79.99840772 0.22844111 91.96742079 0.24435949 C104.3516754 0.26109659 116.73581995 0.29272762 129.1199992 0.3392435 C136.03662717 0.36486711 142.95313907 0.38410748 149.86981758 0.38661936 C156.33419315 0.3890245 162.79829639 0.41165497 169.26257119 0.44817522 C171.63214304 0.45830343 174.0017552 0.46161377 176.37134537 0.45764521 C179.60105892 0.45327082 182.82972605 0.47332636 186.05931458 0.49958971 C186.99807877 0.49251141 187.93684296 0.48543312 188.90405455 0.47814032 C194.46059796 0.55539323 197.72500795 1.27217064 202.10739502 5.02530077 C204.65836912 8.56374871 205.34432735 11.25333917 205.10739502 15.52530077 C204.33545828 20.24446047 202.84543184 22.89755568 199.10739502 26.02530077 C191.93107772 28.39203178 184.37637225 28.31170703 176.90446839 28.28599718 C175.71254936 28.28982273 174.52063034 28.29364828 173.29259256 28.29758975 C170.01079546 28.30607727 166.72914282 28.30570368 163.44734213 28.30140916 C159.89791846 28.29893092 156.34852053 28.30796941 152.79910645 28.31544665 C145.85714483 28.32816323 138.91522194 28.32999132 131.97325063 28.32764638 C126.33090547 28.32586042 120.68857203 28.32761881 115.04622826 28.33187082 C114.2419741 28.33246601 113.43771994 28.3330612 112.60909444 28.33367443 C110.97510289 28.33488621 109.34111135 28.33610035 107.70711982 28.3373168 C92.40288319 28.34817966 77.09866864 28.34603522 61.79443078 28.33993196 C47.7965047 28.33475834 33.79864811 28.34603221 19.80073578 28.36503018 C5.41645096 28.38440256 -8.96780096 28.39266599 -23.35209891 28.38890693 C-31.42346711 28.38699469 -39.4947761 28.38948511 -47.56613365 28.40362146 C-54.43366609 28.41552824 -61.30110281 28.41694772 -68.16863655 28.4048313 C-71.67132139 28.39893896 -75.17383107 28.39785304 -78.67650428 28.4098337 C-82.4747092 28.42025458 -86.27244158 28.4122374 -90.07062927 28.39952257 C-91.17568414 28.40689686 -92.280739 28.41427114 -93.41928038 28.42186889 C-100.52798183 28.37171495 -105.783001 27.80757801 -111.26760498 22.90030077 C-113.49152123 18.96567971 -114.21720142 15.53873704 -113.89260498 11.02530077 C-112.70003582 7.37744218 -110.8247093 4.76113424 -107.78555599 2.36192778 C-103.94225644 0.58621227 -100.38549928 0.54669254 -96.23038879 0.51426867 C-94.92355717 0.48733992 -94.92355717 0.48733992 -93.59032491 0.45986715 C-90.66907315 0.40445847 -87.74803661 0.37122643 -84.82644287 0.33902147 C-82.72442541 0.30609793 -80.62241825 0.2725109 -78.52042118 0.23831061 C-52.34920579 -0.15253853 -26.17315317 -0.07577015 0 0 Z " fill="#0B0B0B" transform="translate(627.8926049768925,1154.974699229002)"/>
<path d="M0 0 C2.46089107 2.8454053 2.93908656 4.59644848 3.5 8.3125 C2.85721527 13.05303739 1.00786505 16.31430621 -2 20 C-6.21980436 22.81320291 -9.17060755 21.93167766 -14 21 C-16.76593034 20.22706954 -19.4343939 19.25066186 -22.125 18.25 C-61.37592422 4.48067398 -109.92666659 2.27192536 -149 18 C-153.13194188 18.67300568 -156.12644912 18.48530604 -159.8125 16.4375 C-163.45401968 12.37980664 -165.34191291 8.35977195 -165.0625 2.875 C-164.79889654 -0.38286842 -163.79759582 -1.20148971 -161.40625 -3.58203125 C-158.05872749 -6.19157608 -154.50655603 -7.47938039 -150.4375 -8.5625 C-149.70644043 -8.76593018 -148.97538086 -8.96936035 -148.22216797 -9.17895508 C-103.93670857 -21.08409798 -40.74002697 -25.07078583 0 0 Z " fill="#0D0D0D" transform="translate(887,585)"/>
<path d="M0 0 C0.64324219 0.53109375 1.28648437 1.0621875 1.94921875 1.609375 C13.06758755 11.70335477 19.23839034 26.7381653 20.23828125 41.5234375 C20.59571704 60.0724739 15.80641817 76.90129937 2.63671875 90.65234375 C-11.42168074 103.16952611 -28.96755698 109.75547662 -47.80859375 108.80859375 C-65.06996031 106.71000483 -80.81401904 99.0661525 -92.00390625 85.5859375 C-102.36425641 71.48870078 -106.67052332 54.89549962 -104.71875 37.4921875 C-102.92191859 26.74575347 -98.65662149 16.60770021 -92 8 C-91.47664062 7.31292969 -90.95328125 6.62585938 -90.4140625 5.91796875 C-80.16723676 -6.6620544 -64.73867695 -13.72454252 -48.875 -15.8125 C-30.51569221 -17.01553156 -14.08848062 -11.86890241 0 0 Z M-81 9 C-91.25996929 21.38131483 -97.19603553 34.76445384 -96 51 C-94.33831451 65.55730101 -87.36966478 78.89678414 -76.1875 88.375 C-66.36710828 95.73652252 -55.46337341 99.40501554 -43.25 99.3125 C-42.46359131 99.30686035 -41.67718262 99.3012207 -40.86694336 99.29541016 C-26.7691997 99.00408082 -14.55495671 94.16503138 -4.203125 84.46484375 C6.49221864 72.49895397 11.39278681 59.45451837 11.2109375 43.43359375 C10.31635679 28.8718077 3.7567353 15.77423034 -7 6 C-28.40422059 -10.5208873 -61.50370402 -11.71799599 -81 9 Z " fill="#1A1A1A" transform="translate(850,400)"/>
<path d="M0 0 C0 2.97 0 5.94 0 9 C1.175625 9.103125 2.35125 9.20625 3.5625 9.3125 C7.82485903 9.82914958 11.14087534 11.1508361 15 13 C14.85892253 14.45880109 14.71197585 15.91703551 14.5625 17.375 C14.48128906 18.18710937 14.40007813 18.99921875 14.31640625 19.8359375 C14 22 14 22 13 24 C12.39671875 23.79503906 11.7934375 23.59007812 11.171875 23.37890625 C10.37265625 23.10949219 9.5734375 22.84007812 8.75 22.5625 C7.96109375 22.29566406 7.1721875 22.02882813 6.359375 21.75390625 C4.25178012 21.08045292 2.15246027 20.50849405 0 20 C-0.47320557 28.09539712 -0.47320557 28.09539712 1 36 C3.6195597 38.40964507 5.97241742 39.45038548 9.2578125 40.77734375 C13.46429665 42.6528844 14.79423627 45.02962529 17 49 C18.57776048 54.30045024 18.68672849 59.04111577 16.375 64.125 C13.87784575 68.63035522 10.8365537 72.02205459 5.8359375 73.74609375 C3.9084741 74.23987854 1.95486146 74.62925041 0 75 C0.01160156 75.71027344 0.02320313 76.42054688 0.03515625 77.15234375 C0.04417969 78.07144531 0.05320312 78.99054688 0.0625 79.9375 C0.07410156 80.85402344 0.08570313 81.77054687 0.09765625 82.71484375 C0 85 0 85 -1 86 C-4 86.125 -4 86.125 -7 86 C-8 85 -8 85 -8.09765625 82.93359375 C-8.08605469 82.10988281 -8.07445312 81.28617187 -8.0625 80.4375 C-8.05347656 79.61121094 -8.04445313 78.78492188 -8.03515625 77.93359375 C-8.02355469 77.29550781 -8.01195312 76.65742188 -8 76 C-9.299375 75.9175 -10.59875 75.835 -11.9375 75.75 C-17.21340374 75.18891182 -21.26086372 73.33195595 -26 71 C-25.34 67.7 -24.68 64.4 -24 61 C-20.40332271 59.80110757 -19.29469538 60.5732755 -16.01171875 62.2109375 C-13.38938621 63.23950288 -10.7798698 63.60007515 -8 64 C-7.4148572 58.52566407 -7.10725306 53.45387223 -8 48 C-10.31774881 45.5277346 -12.36099653 44.51882802 -15.4453125 43.16015625 C-19.16870343 41.46925853 -20.70565545 39.33050015 -23 36 C-24.75380651 30.73858046 -25.02220057 24.96687482 -23.19921875 19.67578125 C-20.18248303 14.23321681 -15.74431811 11.2374872 -10 9 C-9.01 9 -8.02 9 -7 9 C-7 6.36 -7 3.72 -7 1 C-4.53721199 -0.231394 -2.7204945 -0.07159196 0 0 Z M-8 20 C-10.02263373 22.18444442 -10.93258797 23.60515813 -11.4375 26.5625 C-11.18297349 29.57258085 -11.18297349 29.57258085 -7 32 C-7 28.04 -7 24.08 -7 20 C-7.33 20 -7.66 20 -8 20 Z M-1 51 C-1 55.29 -1 59.58 -1 64 C2.68377223 62.42163702 2.68377223 62.42163702 4 61 C4.50095023 58.12693772 4.50095023 58.12693772 4 55 C2.35 53.68 0.7 52.36 -1 51 Z " fill="#181818" transform="translate(812,403)"/>
<path d="M0 0 C5.24929804 3.14364741 9.17039104 7.3601023 11.51171875 13.0546875 C12.37052509 20.69406944 12.3771998 26.9416472 7.51171875 33.0546875 C3.37191052 37.46091903 -0.37621822 40.10626393 -6.48828125 41.0546875 C-13.96250009 41.14929787 -20.40383822 39.0557672 -25.80078125 33.8046875 C-29.27818811 28.13780224 -31.31575886 22.79271946 -30.48828125 16.0546875 C-28.25801773 8.48772197 -24.27957648 4.02365249 -17.66015625 -0.078125 C-12.32931617 -2.20662589 -5.32815873 -2.02419845 0 0 Z " fill="#0D0E0D" transform="translate(640.48828125,667.9453125)"/>
<path d="M0 0 C0.66 0 1.32 0 2 0 C2 47.85 2 95.7 2 145 C2.99 145.33 3.98 145.66 5 146 C3.68 146 2.36 146 1 146 C0.67 99.14 0.34 52.28 0 4 C-0.99 4.99 -1.98 5.98 -3 7 C-3.66 6.67 -4.32 6.34 -5 6 C-3.38405168 3.95880212 -1.7143618 1.95927063 0 0 Z " fill="#4D4D4C" transform="translate(1165,1131)"/>
<path d="M0 0 C0.66 0 1.32 0 2 0 C2 15.84 2 31.68 2 48 C1.67 48 1.34 48 1 48 C0.67 33.48 0.34 18.96 0 4 C-0.99 4.99 -1.98 5.98 -3 7 C-3.66 6.67 -4.32 6.34 -5 6 C-3.38405168 3.95880212 -1.7143618 1.95927063 0 0 Z " fill="#545454" transform="translate(1165,1131)"/>
<path d="M0 0 C0.66 0.33 1.32 0.66 2 1 C-2.95 5.95 -7.9 10.9 -13 16 C-13 10.79628205 -8.49504984 7.5790344 -5 4 C-3.37707762 2.6137538 -1.7331451 1.24569804 0 0 Z " fill="#494949" transform="translate(770,396)"/>
<path d="M0 0 C0.66 0 1.32 0 2 0 C2 5.28 2 10.56 2 16 C1.67 16 1.34 16 1 16 C0.67 12.04 0.34 8.08 0 4 C-0.99 4.99 -1.98 5.98 -3 7 C-3.66 6.67 -4.32 6.34 -5 6 C-3.38405168 3.95880212 -1.7143618 1.95927063 0 0 Z " fill="#5D5D5C" transform="translate(1165,1131)"/>
<path d="M0 0 C0.66 0.33 1.32 0.66 2 1 C-1.63 4.63 -5.26 8.26 -9 12 C-9 8.47601214 -8.44884893 7.98495633 -6.1875 5.4375 C-5.40439453 4.53837891 -5.40439453 4.53837891 -4.60546875 3.62109375 C-3 2 -3 2 0 0 Z " fill="#4E4E4E" transform="translate(395,366)"/>
<path d="M0 0 C0.66 0.33 1.32 0.66 2 1 C-0.64 3.64 -3.28 6.28 -6 9 C-6.66 8.67 -7.32 8.34 -8 8 C-5.58443874 4.80800833 -3.31996462 2.25283313 0 0 Z " fill="#505050" transform="translate(503,691)"/>
<path d="M0 0 C0.66 0.33 1.32 0.66 2 1 C-0.31 3.31 -2.62 5.62 -5 8 C-5.33 7.34 -5.66 6.68 -6 6 C-2.25 1.125 -2.25 1.125 0 0 Z " fill="#404040" transform="translate(578,513)"/>
<path d="M0 0 C0.66 0.33 1.32 0.66 2 1 C-0.31 3.31 -2.62 5.62 -5 8 C-5 5 -5 5 -2.5 2.3125 C-1.675 1.549375 -0.85 0.78625 0 0 Z " fill="#525252" transform="translate(521,1249)"/>
<path d="M0 0 C0.66 0.33 1.32 0.66 2 1 C-0.31 3.31 -2.62 5.62 -5 8 C-5.33 7.34 -5.66 6.68 -6 6 C-4 4 -2 2 0 0 Z " fill="#444444" transform="translate(796,415)"/>
<path d="M0 0 C0.66 0.33 1.32 0.66 2 1 C-0.31 3.31 -2.62 5.62 -5 8 C-5 5 -5 5 -2.5 2.3125 C-1.675 1.549375 -0.85 0.78625 0 0 Z " fill="#525252" transform="translate(521,1063)"/>
<path d="M0 0 C0.66 0.33 1.32 0.66 2 1 C1.0479279 2.00596297 0.08812654 3.00461563 -0.875 4 C-1.40867187 4.556875 -1.94234375 5.11375 -2.4921875 5.6875 C-4 7 -4 7 -6 7 C-4.60667426 3.63279613 -3.0210714 2.0140476 0 0 Z " fill="#5A5A5A" transform="translate(967,879)"/>
</svg>
